<?xml version="1.0" encoding="UTF-8" standalone="no"?>
<!-- Created with Inkscape (http://www.inkscape.org/) -->

<svg
   xmlns:dc="http://purl.org/dc/elements/1.1/"
   xmlns:cc="http://creativecommons.org/ns#"
   xmlns:rdf="http://www.w3.org/1999/02/22-rdf-syntax-ns#"
   xmlns:svg="http://www.w3.org/2000/svg"
   xmlns="http://www.w3.org/2000/svg"
   xmlns:sodipodi="http://sodipodi.sourceforge.net/DTD/sodipodi-0.dtd"
   xmlns:inkscape="http://www.inkscape.org/namespaces/inkscape"
   width="360.01001mm"
   height="360mm"
   viewBox="0 0 360.01001 360"
   version="1.1"
   id="svg8"
   inkscape:version="0.92.4 (5da689c313, 2019-01-14)"
   sodipodi:docname="dessin.svg">
  <defs
     id="defs2" />
  <sodipodi:namedview
     id="base"
     pagecolor="#ffffff"
     bordercolor="#666666"
     borderopacity="1.0"
     inkscape:pageopacity="0.0"
     inkscape:pageshadow="2"
     inkscape:zoom="0.35"
     inkscape:cx="-1132.126"
     inkscape:cy="1070.2362"
     inkscape:document-units="mm"
     inkscape:current-layer="layer1"
     showgrid="false"
     inkscape:window-width="1920"
     inkscape:window-height="1001"
     inkscape:window-x="-9"
     inkscape:window-y="-9"
     inkscape:window-maximized="1"
     fit-margin-top="0"
     fit-margin-left="0"
     fit-margin-right="0"
     fit-margin-bottom="0" />
  <metadata
     id="metadata5">
    <rdf:RDF>
      <cc:Work
         rdf:about="">
        <dc:format>image/svg+xml</dc:format>
        <dc:type
           rdf:resource="http://purl.org/dc/dcmitype/StillImage" />
        <dc:title></dc:title>
      </cc:Work>
    </rdf:RDF>
  </metadata>
  <g
     inkscape:label="Calque 1"
     inkscape:groupmode="layer"
     id="layer1"
     transform="translate(-72,-72)">
    <path
       d="m137.16 124.44-8-8h245.67l-8 8H254.5v56.59c-1.67-.06-3.33-.06-5 0v-56.59H137.16zm47.05 201.01-73.38 73.38-5.66-5.66 41.13-41.13H72V151.96h74.3l-41.13-41.13 5.66-5.66 73.38 73.38-5.66 5.66-24.25-24.25H96.04c-1.6 8.1-7.98 14.46-16.05 16.05V328c8.07 1.61 14.44 7.97 16.04 16.04h58.26l24.25-24.25 5.67 5.66zM80 170.88c5.32-1.41 9.51-5.6 10.92-10.92H80v10.92zm10.91 173.16c-1.42-5.3-5.6-9.48-10.91-10.91v10.91h10.91zm341.09 8h-74.3l41.13 41.13-5.66 5.66-73.38-73.38 5.66-5.66 24.25 24.25h58.26c1.61-8.07 7.98-14.43 16.04-16.04V176c-8.07-1.61-14.44-7.97-16.04-16.04H349.7l-24.25 24.25-5.66-5.66 73.38-73.38 5.66 5.66-41.13 41.13H432v200.08zm-8-18.9c-5.3 1.42-9.48 5.6-10.91 10.91H424v-10.91zm0-173.18h-10.91c1.42 5.3 5.6 9.48 10.91 10.91v-10.91zm-131.02 34.08h21.52v-8h-36.2a70.913 70.913 0 0 1 14.68 8zM252 318.03c-36.41 0-66.03-29.62-66.03-66.03s29.62-66.03 66.03-66.03 66.03 29.62 66.03 66.03-29.62 66.03-66.03 66.03zm58.14-69.24-11.38 12.83v22.88h4.85c5.95-9.42 9.41-20.56 9.41-32.5 0-.28-.02-.55-.02-.82l-2.86-2.39zm-41.91-52.81 13.98 12.38 17.36 9.07v-3.58c-7.25-9.02-16.99-15.93-28.18-19.7l-3.16 1.83zm-27.26 2.07-14.06 12.45 10.96 10.39h28.25l10.96-10.39-14.06-12.45h-22.05zm-36.55 19.38 17.36-9.07 14.17-12.55-2.75-1.86c-11.44 3.71-21.41 10.72-28.79 19.9v3.58zm.82 44.19-11.38-12.83-2.87 2.39c0 .27-.02.55-.02.82 0 11.94 3.46 23.08 9.41 32.5h4.85v-22.88zm3.12-4.01 18.48-8.69 7.21-24.77-11.27-10.67-18.81 9.82-7.03 21.43 11.42 12.88zm21.8 42.4 19.34-9.1v-22.38l-20.83-14.94-18.43 8.66v23.46l17.6 12.62 2.32 1.68zm40.49 4.03L252 295.26l-18.65 8.78 3.85 7.17c4.74 1.19 9.7 1.82 14.8 1.82 5.1 0 10.06-.64 14.8-1.82l3.85-7.17zm23.11-41.78-18.43-8.66-20.83 14.94v22.38l19.34 9.1 6.85-4.91 13.07-9.38v-23.47zm1.87-4.65 11.42-12.88-7.03-21.43-18.81-9.82-11.27 10.67 7.21 24.77 18.48 8.69zm123.36-51.04v-5h-28.63v101h28.63v-5h-23.63v-91h23.63zM85.01 297.43v5h28.63v-101H85.01v5h23.63v91H85.01zm169.49 82.13v-56.59c-1.67.06-3.33.06-5 0v56.59H137.16l-8 8h245.67l-8-8H254.5zM127.01 256h54.08c-.07-1.32-.12-2.66-.12-4s.05-2.68.12-4h-54.08v8zm208.32 33.3H312.4c-1.74 2.8-3.65 5.48-5.75 8h28.68v-8zm-20.83 20.66h-21.52a70.913 70.913 0 0 1-14.68 8h36.2v-8zm41.67-41.31h-35.14c-.66 2.73-1.46 5.4-2.43 8h37.56v-8zm-145.15 41.31H189.5v8h36.2a70.913 70.913 0 0 1-14.68-8zm-42.35-95.27h22.92c1.74-2.8 3.65-5.48 5.75-8h-28.67v8zM377.01 248h-54.1c.07 1.32.12 2.66.12 4s-.05 2.68-.12 4h54.1v-8zm-55.98-12.65h35.14v-8h-37.56c.96 2.6 1.77 5.27 2.42 8zm-173.19 0h35.13c.66-2.73 1.46-5.4 2.43-8h-37.55v8zm43.75 53.95h-22.92v8h28.67a71.434 71.434 0 0 1-5.75-8zm34.11-103.26h-36.2v8h21.52c4.53-3.21 9.45-5.91 14.68-8zm-42.74 82.61h-35.13v8h37.55c-.95-2.6-1.76-5.27-2.42-8zm129.45-53.96h22.93v-8h-28.68c2.09 2.53 4.01 5.2 5.75 8z"
       id="path5"
       inkscape:connector-curvature="0" />
  </g>
</svg>
