<svg xmlns="http://www.w3.org/2000/svg" id="Layer_1" version="1.1" width="150" height="145.47">
  <defs/>
  <path d="m.19 80.14 25.34-4.01v-1.39c0-4.04.48-7.98 1.39-11.73L13.5 65.14c3.62-23.41 20.33-42.51 42.38-49.62V29.1a49.8 49.8 0 0 1 12.74-3.43V0C30.19 3.23 0 35.46 0 74.74c0 1.81.06 3.62.19 5.4M149.81 80.14l-25.35-4.01v-1.39c0-4.04-.49-7.98-1.39-11.73l13.42 2.13c-3.62-23.41-20.33-42.51-42.38-49.62V29.1a49.8 49.8 0 0 0-12.74-3.43V0C119.81 3.23 150 35.46 150 74.74c0 1.81-.07 3.62-.19 5.4M50.01 145.47 75 132.73l24.99 12.74c23.6-8.34 41.77-28.16 47.85-52.76l-12.64-2c-4.82 18.2-17.68 33.14-34.56 40.76L75 118.41l-25.64 13.06c-16.87-7.63-29.74-22.56-34.56-40.76l-12.64 2c6.05 24.6 24.25 44.42 47.84 52.76Z"/>
  <path d="M51.24 65.37v16.45h5.14v-5.95h3.65l1.33-3.59h-4.98v-3.33h6.17l1.33-3.59H51.24Z" class="st0"/>
  <path d="M70.54 65.37h-5.11v16.42h5.11z"/>
  <path d="M74.06 65.37v16.45h5.11v-5.95h3.69l1.32-3.59h-5.01v-3.33h6.21l1.29-3.59H74.06ZM101.32 81.82h-5.17l-.68-2.2h-5.79l-.65 2.2h-5.04l5.98-16.42h5.3l5.98 16.42zm-6.67-5.36-2.04-6.85-1.97 6.85z" class="st0"/>
  <path d="m97.12 121.6 5.16-3.2.84 1.35-1.72 1.08 2.8 4.52-1.72 1.05-2.8-4.52-1.72 1.08-.84-1.35Zm5.93-3.67 2.06-1.28 3.47 3.14-1.25-4.52 2.02-1.25 4.35 5.43-1.65 1.01-2.6-3.51 1.15 4.42-1.52.94-3.44-3 1.92 3.94-1.55.94-2.93-6.3-.03.03Z"/>
</svg>
