<svg xmlns="http://www.w3.org/2000/svg" viewBox="0 0 300 329.17"><metadata xmlns:fl="https://football-logos.cc/sweden/orgryte">dl1_e2372b46600e9e1d4dabbcdeab255b5b056147f84f8770edf13f47f0d1f68440</metadata><!-- Source: https://football-logos.cc --><path fill="#c6a851" d="M38.115 3.8 0 39.233s18.89 36.55 19.56 76.34c.112 8.496-1.788 24.48-6.259 41.692-3.13 11.848-8.83 23.585-10.06 36.55-1.34 14.084 2.012 28.614 5.142 40.462 10.73 41.356 53.316 61.811 53.316 61.811s10.06 4.136 21.684 6.818c3.353.783 19.896 1.789 33.197 7.154 17.436 7.153 32.302 19.113 32.302 19.113s8.83-11.736 34.874-21.125c7.824-2.795 19.56-3.018 30.85-5.03 11.959-2.124 23.472-6.148 31.184-10.842 30.514-18.33 43.592-44.374 47.392-62.929 2.347-11.512 3.688-26.266 1.677-40.014-2.124-13.749-7.713-26.49-10.395-38.898-3.354-15.76-4.471-28.837-4.248-35.767C281.222 72.318 300 40.35 300 40.35L265.462 3.8s-30.179 15.649-59.575 14.754C177.608 17.548 150.112 0 150.112 0s-26.826 16.095-54.77 17.101c-28.054.895-57.227-13.3-57.227-13.3" data-source="https://football-logos.cc"></path><path fill="#fff" d="m170.79 112.891 47.615-9.277-20.901 44.374 35.99 30.179-46.609 10.507-1.676 47.503-35.88-28.949-36.885 29.173-.223-46.721-48.845-13.86 36.214-29.956-16.878-43.815 44.822 8.607 21.795-39.68z"></path><path fill="#940c23" d="m14.754 42.25 26.379-24.59s26.043 10.172 52.869 9.166c26.937-1.006 54.769-13.078 54.769-13.078s28.055 14.754 55.663 16.32c28.278 1.676 56.222-9.837 56.222-9.837l25.037 27.832-55.887 41.58-53.54 10.953L150 45.94l-26.937 53.204L65.61 87.52l21.125 55.104-44.933 38.562 47.616 13.524-65.164 47.057s-9.613-12.407-8.942-38.562c.112-5.812.782-14.642 2.57-21.46 1.9-7.266 4.919-12.407 6.484-18.443 3.8-15.201 5.03-24.478 5.03-24.478s3.017-27.05-.671-50.969C25.037 63.487 14.754 42.25 14.754 42.25" data-source="https://football-logos.cc"></path><path fill="#222d60" d="m274.292 69.523-41.468 30.514-22.913 47.951 44.262 35.544-57.899 13.413-1.9 60.358-45.268-36.886-46.163 34.762-2.012-57.787-71.87 52.086s9.5 20.343 33.085 32.303c4.918 2.459 13.525 6.036 20.12 7.6 4.917 1.118 11.4 1.677 15.871 2.348 6.595 1.006 11.066 2.124 16.878 4.135 21.572 7.49 33.308 17.325 33.308 17.325s13.078-10.283 34.091-16.877c5.142-1.677 13.749-3.577 19.784-4.583 11.29-1.677 20.567-2.124 29.62-6.371 20.902-9.613 32.973-26.155 32.973-26.155s16.99-16.654 17.884-51.304c.112-5.812.112-13.748-1.676-21.125-1.789-7.266-5.254-14.084-6.707-20.679-4.247-18.778-6.147-32.637-6.147-32.637s-2.012-13.525-.56-28.838c1.79-17.772 6.707-35.097 6.707-35.097"></path><path fill="#c6a851" d="M113.227 123.622h7.824v7.935h-7.824zM126.192 123.622h7.824v7.935h-7.824zM146.87 136.587h7.825v40.686h-7.825zM129.434 136.252c-2.236-.783-4.471-1.006-7.154-1.006-.335.112-.782.112-1.118.223-.782 0-1.453.224-2.235.448-2.012.558-3.577 1.453-5.365 2.57-2.012 1.23-3.8 3.242-5.03 5.142-7.153 10.171-4.694 25.26 5.477 32.079 2.906 2.012 6.595 3.13 10.507 2.906 4.247-.223 7.824-2.012 10.842-4.694 11.848-10.395 9.053-32.303-5.924-37.668m2.123 30.961c-1.117 1.453-2.682 2.795-4.247 3.465l-2.012.67c-.223 0-.559.113-.782.113-1.342 0-2.683-.112-3.8-.448-5.813-2.123-8.607-8.718-8.272-15.089.224-3.688 1.453-7.153 3.8-9.836a10.3 10.3 0 0 1 4.36-3.018c.67-.223 1.34-.335 2.123-.559 12.295 0 14.978 16.43 8.83 24.702M183.867 147.653h7.377s0-6.818-5.588-10.06c-9.166-5.365-18.89-2.124-23.026 2.236-4.359 4.47-2.906 13.3 1.454 15.871 10.17 6.148 16.766 2.683 19.672 8.495.447.894.223 3.242-.783 4.36-.335.447-5.812 4.806-12.295 1.788-3.241-1.453-4.024-6.036-4.024-6.036h-7.824s.447 6.706 4.583 9.948c4.47 3.577 12.854 3.688 12.854 3.688s4.806.224 8.383-1.564c3.577-1.677 10.395-6.707 6.594-15.872-3.241-7.936-10.06-6.483-19.001-9.725-3.018-1.117-6.148-3.241-2.906-7.265 1.565-2.012 8.718-2.459 11.289-.782 2.347 1.453 3.241 4.918 3.241 4.918" data-source="https://football-logos.cc"></path><!-- source: https://football-logos.cc --></svg>