<svg xmlns="http://www.w3.org/2000/svg" xml:space="preserve" id="Layer_1" x="0" y="0" version="1.1" viewBox="0 0 154.9 154.9"><metadata xmlns:fl="https://football-logos.cc/denmark/horsens">dl1_9e51ccf10b6cbca9c508feef0d0d93d3519ec6e44b81f6f46e890d56979eb91c</metadata><!-- Source: https://football-logos.cc --><style data-source="https://football-logos.cc">.__2Vh1j5E__st1{fill-rule:evenodd;clip-rule:evenodd}</style><path fill="#fd0" fill-rule="evenodd" d="M77.45 1.75c41.8 0 75.71 33.9 75.71 75.71 0 41.8-33.9 75.71-75.71 75.71-41.8 0-75.71-33.9-75.71-75.71.01-41.81 33.91-75.71 75.71-75.71" clip-rule="evenodd"></path><path d="M77.45 154.9C34.74 154.9 0 120.16 0 77.45S34.74 0 77.45 0s77.45 34.74 77.45 77.45-34.74 77.45-77.45 77.45m0-151.41c-40.78 0-73.96 33.18-73.96 73.96s33.18 73.96 73.96 73.96 73.96-33.18 73.96-73.96S118.23 3.49 77.45 3.49"></path><path d="M77.65 17.15c15.8 0 28.62 12.82 28.62 28.62 0 2.07-.22 4.09-.64 6.04a29.6 29.6 0 0 0-5.68-.94c.37-1.64.57-3.34.57-5.1 0-12.63-10.24-22.87-22.87-22.87S54.78 33.14 54.78 45.77c0 1.74.2 3.44.57 5.07-1.95.11-3.86.4-5.7.87-.4-1.92-.62-3.9-.62-5.94 0-15.81 12.82-28.62 28.62-28.62m24.87 42.77c-4.93 8.63-14.22 14.46-24.87 14.46-10.68 0-20-5.86-24.91-14.54a21.7 21.7 0 0 1 6.67-.3c4.18 5.52 10.79 9.09 18.24 9.09 7.47 0 14.1-3.59 18.28-9.13.64-.06 1.29-.09 1.94-.09q2.4.015 4.65.51" class="__2Vh1j5E__st1"></path><path d="M57.03 52.23c7.48 0 14.29 2.87 19.38 7.57a30 30 0 0 0-3.63 4.48c-4.1-3.9-9.65-6.3-15.76-6.3-12.63 0-22.87 10.24-22.87 22.87s10.24 22.87 22.87 22.87S79.9 93.47 79.9 80.84c0-1.74-.2-3.44-.57-5.07q2.94-.165 5.7-.87c.4 1.92.62 3.9.62 5.94 0 15.8-12.82 28.62-28.62 28.62S28.41 96.65 28.41 80.84c0-15.8 12.82-28.61 28.62-28.61" class="__2Vh1j5E__st1" data-source="https://football-logos.cc"></path><path d="M97.87 52.23c15.8 0 28.62 12.82 28.62 28.62s-12.82 28.62-28.62 28.62c-7.48 0-14.29-2.87-19.39-7.57 1.35-1.37 2.56-2.87 3.63-4.48 4.1 3.9 9.65 6.3 15.76 6.3 12.63 0 22.87-10.24 22.87-22.87S110.5 57.98 97.87 57.98c-7.47 0-14.1 3.58-18.28 9.13-.64.06-1.29.09-1.94.09-1.6 0-3.15-.18-4.65-.51 4.93-8.64 14.22-14.46 24.87-14.46M73.04 95.08a28.47 28.47 0 0 1-3.79-14.24c0-2.07.22-4.09.64-6.04 1.83.49 3.73.81 5.68.94-.37 1.65-.57 3.35-.57 5.1 0 3.03.6 5.93 1.67 8.58-.91 2.08-2.14 3.99-3.63 5.66" class="__2Vh1j5E__st1"></path><path d="M42.9 122.99c0-2.86 2.19-4.79 5.02-4.79 2.5 0 3.72 1.42 4.27 2.69l-2.42 1.12c-.24-.72-.96-1.35-1.86-1.35-1.28 0-2.18 1.03-2.18 2.32s.9 2.32 2.18 2.32c.9 0 1.62-.62 1.86-1.35l2.42 1.11c-.54 1.24-1.78 2.71-4.27 2.71-2.83.01-5.02-1.93-5.02-4.78m28.58-4.79c2.86 0 5.07 1.94 5.07 4.79s-2.21 4.79-5.07 4.79-5.07-1.94-5.07-4.79c.01-2.84 2.21-4.79 5.07-4.79m0 2.47c-1.35 0-2.22 1.03-2.22 2.32s.87 2.32 2.22 2.32 2.22-1.03 2.22-2.32-.87-2.32-2.22-2.32M88 124.23c.69.67 1.74 1.19 2.98 1.19.53 0 1.03-.18 1.03-.54s-.39-.54-1.3-.71c-1.53-.28-3.86-.64-3.86-2.96 0-1.57 1.3-3 3.84-3 1.51 0 2.87.43 3.93 1.29l-1.5 1.98c-.8-.61-1.85-.92-2.58-.92-.69 0-.85.25-.85.49 0 .36.38.49 1.36.65 1.53.26 3.79.71 3.79 2.85 0 2.04-1.51 3.22-4 3.22-1.97 0-3.32-.58-4.3-1.47zm18.81-1.58v4.97h-2.8v-9.26h2.89l3.22 4.66v-4.66h2.8v9.26h-2.69zm8.32 1.58c.69.67 1.74 1.19 2.98 1.19.53 0 1.03-.18 1.03-.54s-.39-.54-1.3-.71c-1.53-.28-3.86-.64-3.86-2.96 0-1.57 1.3-3 3.84-3 1.51 0 2.87.43 3.93 1.29l-1.5 1.98c-.81-.61-1.85-.92-2.58-.92-.69 0-.85.25-.85.49 0 .36.37.49 1.36.65 1.53.26 3.79.71 3.79 2.85 0 2.04-1.51 3.22-4 3.22-1.97 0-3.32-.58-4.3-1.47zm-52.55-5.87v3.27h-2.26l-.76 2.45h3.02v3.53h2.8v-9.25zm-3.32 5.72v-5.72h-2.8v9.25h2.8zm43.46-.01v-2.44h-3.07l-.75 2.44z"></path><path d="M102.81 118.36h-7.02v9.25h7.02v-2.33H98.6v-4.59h4.21zM85.87 127.61l-1.68-3.28c.74-.36 1.67-1.21 1.67-2.8 0-1.74-1.17-3.18-3.33-3.18h-4.94v9.26h2.8v-6.93h1.71c.47 0 .92.31.92.81 0 .51-.44.82-.92.82h-1.41l1.64 5.31zM39.87 118.36h-3.53l-3.41 9.26h3.04l.36-1.19.72-2.33 1.06-3.27 1.05 3.27h-1.05l-.72 2.33h2.49l.36 1.19h3.04z" data-source="https://football-logos.cc"></path><!-- source: https://football-logos.cc --></svg>