<svg xmlns="http://www.w3.org/2000/svg" fill="none" class="Header_logo__V9h3K" viewBox="4.92 0 38.16 48"><metadata xmlns:fl="https://football-logos.cc/sweden/aik">dl1_78bc43082b3a3f2f89e56e86799a5da343d7adb4dc39fc4fa2387c49ef80b36d</metadata><!-- Source: https://football-logos.cc --><path fill="#002944" d="M41.617 21.833c-1.024 0-1.491-.698-1.81-1.414-.846.857-1.392 2.388-1.392 3.993 0 3.744 2.417 7.354 4.115 9.423-.377.437-4.879 6.02-8.827 6.02-.905 0-1.595-.237-2.108-.722q.03.15.03.307c0 3.167-4.798 7.054-7.625 8.56-2.8-1.491-7.625-5.388-7.625-8.56q0-.158.03-.307c-.514.484-1.204.721-2.108.721-3.949 0-8.45-5.581-8.827-6.02 1.694-2.064 4.115-5.675 4.115-9.422 0-1.605-.546-3.136-1.392-3.993-.32.716-.786 1.414-1.81 1.414-1 0-1.714-.76-1.378-1.608l1.97-4.965c1.001-.187 2.218-.4 4.028-.004l1.255-1.343c-.158-.346-.94-2.122-1.105-3.651l4.418-3.814c.716-.618 1.492-.143 1.507-.134.612.362.817 1.151.462 1.765-.147.27-.442.525-.724.743.61.536 1.421.886 2.09 1.128a.407.407 0 0 0 .545-.351c.15-1.85-.479-2.551-.545-2.878a.57.57 0 0 1 .107-.463.37.37 0 0 0 .076-.298l-.687-3.37-.545-.72-.252-1.154c.514-.111.541-.117 1.088-.224l.119.607q.116-.022.233-.042l-.103-.61c.61-.104.49-.085 1.097-.174l.09.612.236-.032L20.29.24a36 36 0 0 1 1.104-.123l.117 1.175-.296.852.079.69c.452-.047.886-.08 1.312-.102l-.03-.695-.426-.795-.069-1.179c.528-.03.555-.032 1.11-.051l.022.618.238-.006-.006-.618c.56-.007.549-.007 1.11 0l-.006.618.237.006.022-.618c.555.02.585.021 1.11.051l-.069 1.179-.425.795-.03.695c.422.022.863.056 1.312.102l.078-.69-.295-.852.116-1.175c.526.053.552.056 1.105.123l-.076.614.236.032.09-.612c.613.09.49.07 1.098.174l-.104.61.234.042.119-.607c.543.106.575.113 1.088.224l-.253 1.154-.544.72-.688 3.37a.37.37 0 0 0 .076.298.57.57 0 0 1 .108.463c-.068.335-.698 1.023-.545 2.878a.407.407 0 0 0 .544.351c.664-.24 1.48-.59 2.09-1.128-.281-.218-.576-.473-.723-.743a1.3 1.3 0 0 1 .462-1.765c.012-.008.79-.484 1.507.134l4.418 3.814c-.087 1.262-.933 3.292-1.106 3.651l1.256 1.343c1.81-.396 3.027-.183 4.027.004l1.97 4.965c.337.849-.38 1.608-1.377 1.608" data-source="https://football-logos.cc"></path><path fill="#FD0" d="m36.43 17.148-2.752-2.944.389-.746c.28-.538.722-1.701.938-2.533l-1.046-.902L8.933 35.05a19 19 0 0 0 1.968 1.658c1.067.768 2.015 1.232 2.826 1.384-.04-.458.115-.93.462-1.276a1.605 1.605 0 0 1 2.527.343l20.109-20.108zM21.305 31.843c-.138-.397-.439-.792-.798-.965l-1.75 1.75c.154.378.472.755.883.877l-1.876 1.876c.088-.528.268-1.213-.086-2.091l-1.418-3.521c-.155-.381-.44-.487-.704-.619l1.628-1.627 4.398 2.169c.453.223.94.369 1.44.43zm2.45-2.45a.813.813 0 1 1-1.15-1.149.813.813 0 0 1 1.15 1.15m1.32-1.319c-.052-.284-.083-.674-.45-1.04l-2.73-2.73c-.366-.366-.756-.398-1.04-.449l1.701-1.7c.051.283.083.673.449 1.039l2.73 2.73c.366.366.757.398 1.04.449zm2.444-2.445a.812.812 0 1 1-1.148-1.149.812.812 0 0 1 1.148 1.149m3.983-3.98c-.697-1.664-2.357-1.54-2.822-1.075-.306.306-.294.471-.063.702l.884.884c.366.366.757.397 1.04.448l-1.702 1.701c-.05-.284-.082-.674-.448-1.04l-2.731-2.73c-.367-.367-.758-.398-1.04-.449l1.701-1.7c.051.283.083.673.449 1.039l.384.384c.234.234.589.09.722-.043.743-.743.655-1.759-.412-2.524l1.364-1.364c.638 1.182.863 2.049.729 3.013.792-.11 1.627.117 2.35.538.259.152.752.389 1.423.388zm2.517-2.52a.812.812 0 1 1-1.148-1.149.812.812 0 0 1 1.148 1.149M17.441 29.367l1.885.93-1.076 1.076z" data-source="https://football-logos.cc"></path><path fill="#AF9664" d="M22.387 1.174 22.335.29q.312-.018.624-.03l.022.618q.355-.012.712-.016l-.006-.618c.297-.003.328-.003.624 0l-.006.618q.358.004.713.016L25.04.26q.312.01.623.029l-.051.885a28 28 0 0 0-3.225 0m2.042 4.407V3.913a.43.43 0 0 0-.859 0v1.668q-.3.006-.597.019l-.16-3.629a27 27 0 0 1 2.373 0l-.16 3.629a24 24 0 0 0-.597-.019m-.575-2.63-.007-.706a28 28 0 0 0-.712.014l.02.705c.318-.01.413-.01.7-.014m.99.013.02-.705c-.322-.01-.425-.011-.713-.014l-.006.705c.317.004.413.006.698.014m-1.512-.519.01.322q.16-.004.319-.006l-.004-.323zm1.006.316.32.006.009-.322-.326-.006zm-.576 1.152v1.665c.17-.002.304-.002.475 0V3.913a.238.238 0 0 0-.475 0m-2.495-2.65L21.18.38q-.31.03-.62.069l.075.613q-.354.043-.707.095l-.09-.611c-.294.043-.325.048-.617.097l.103.61q-.353.06-.702.127l-.118-.606q-.307.06-.611.126l.19.867c1.41-.307 2.54-.44 3.184-.505M20.788 5.8l-.26-1.648a.43.43 0 0 0-.849.135l.261 1.648a24 24 0 0 0-.586.11l-.726-3.558a27 27 0 0 1 2.343-.37l.41 3.608q-.297.034-.593.075m-.979-2.509-.117-.695a28 28 0 0 0-.702.125l.131.693c.31-.058.406-.075.688-.123m.98-.14-.09-.7c-.319.04-.421.055-.707.097l.104.698c.284-.042.381-.056.692-.095m-1.575-.277.06.317.314-.057-.053-.317q-.16.027-.32.057m.996-.164.047.319q.158-.023.317-.044l-.041-.32q-.162.022-.323.045m-.144 1.275a.24.24 0 0 0-.198.272l.26 1.645c.168-.029.3-.05.47-.075l-.26-1.644a.24.24 0 0 0-.272-.198M30.106.9a29 29 0 0 0-.611-.126l-.118.606a28 28 0 0 0-.702-.127l.103-.61c-.292-.05-.323-.054-.617-.097l-.09.61a28 28 0 0 0-.707-.094l.075-.614a30 30 0 0 0-.62-.068l-.087.882c1.066.107 2.108.27 3.184.505zm-.735 1.587-.726 3.559a24 24 0 0 0-.586-.112l.26-1.647a.43.43 0 0 0-.847-.134L27.21 5.8a24 24 0 0 0-.592-.075l.409-3.609c.8.092 1.553.21 2.343.371m-1.365.061c-.316-.047-.419-.06-.706-.097l-.09.7c.316.04.412.054.693.095zm.872.866.13-.693c-.316-.06-.418-.077-.701-.126l-.117.696c.31.053.407.07.688.123m-.468-.28.315.057.06-.317-.321-.057zm-.621-.424-.323-.045-.041.32.316.043zm.144 1.275a.24.24 0 0 0-.272.198l-.26 1.644c.173.026.303.046.469.075l.26-1.645a.24.24 0 0 0-.197-.272m-7.871 4.314-.075-.392q-.123.023-.245.048l.08.392zm-.08.83q.459-.093.927-.165l-.06-.395q-.477.073-.948.169zm.564-.916q.486-.08.979-.14l-.045-.396q-.504.06-1 .142zm.833.684q.47-.06.95-.1l-.032-.399q-.487.04-.968.103zm-.25-1.982.05.397q.508-.066 1.025-.109l-.032-.398q-.525.043-1.043.11m.89 1.107q.492-.046.99-.07l-.017-.399q-.508.024-1.01.07zm.787.74q.475-.028.955-.033l-.004-.4q-.49.006-.974.035zm-.11-1.993.021.398q.51-.03 1.027-.036l-.005-.399q-.525.006-1.044.037m-3.114.403.08.391q.5-.1 1.007-.18l-.06-.394q-.517.08-1.027.183m8.675.783-.245-.048-.075.392.24.048zM27.09 8.964q.466.072.927.165l.08-.391q-.47-.095-.947-.17zm-.616-.89q.493.058.98.139l.064-.394q-.495-.082-.999-.142zm-.803.722q.477.04.948.1l.05-.395q-.48-.063-.967-.103zm.124-1.593q.516.043 1.025.109l.05-.397a22 22 0 0 0-1.044-.11zm-.805.75q.498.022.99.069l.036-.398q-.5-.047-1.009-.071zm-.752.776q.48.006.955.034l.022-.4q-.483-.028-.973-.033zm.017-1.598q.516.006 1.027.036l.021-.398q-.519-.03-1.044-.037zm-.759.404.009.4c.342-.008.647-.008.989 0l.009-.4c-.35-.008-.658-.008-1.007 0m4.92-.363q-.508-.103-1.027-.183l-.06.395q.508.078 1.008.18zm.304-.527a.19.19 0 0 0-.15-.226 23 23 0 0 0-9.141 0 .192.192 0 0 0 .076.376 22.7 22.7 0 0 1 8.989 0 .19.19 0 0 0 .226-.15m-.554 3.197a.287.287 0 0 0-.225-.339 19.9 19.9 0 0 0-7.883 0 .287.287 0 1 0 .114.564 19.3 19.3 0 0 1 7.654 0 .287.287 0 0 0 .34-.225m-5.424-4.285-.013-.237-.231.013.015.237q.114-.008.23-.013m-1.142.088.228-.022-.022-.236-.23.022zm.634-.747.471-.03-.02-.379q-.24.013-.479.03zm.39-1.546-.021-.38q-.256.014-.508.032l.028.38q.25-.02.5-.032m-.619 2.326q.171-.015.341-.026l-.026-.38-.348.027zm.643-1.875-.246.014.015.236.243-.013zm-1.229.095.025.236.243-.023-.022-.237zm.424-.112.032.379.364-.029-.027-.378q-.184.012-.37.028m-.314 1.174a24 24 0 0 1 .47-.044l-.032-.378q-.24.019-.477.044zm.344-1.557-.032-.379q-.254.021-.507.047l.04.377q.248-.026.499-.045m4.706.495-.245-.024-.022.237.243.023zm-.18 1.747.024-.236-.23-.022-.022.236zm-1.142-.088.229.013.015-.237-.232-.013zm.094-1.754-.013.237.244.013.015-.236zm.024-.451q.251.013.501.031l.028-.379a25 25 0 0 0-.508-.032zm1.29-.281a26 26 0 0 0-.507-.047l-.032.379q.25.02.5.045zm-1.371 1.798q.236.012.47.029l.029-.379q-.24-.016-.479-.03zm.358.783q.171.01.342.026l.032-.379-.347-.026zm.108-1.516.364.028.032-.378q-.184-.015-.37-.028zm.24.78q.235.019.47.044l.039-.378q-.239-.024-.478-.044zm-9.55 3.535c.24-.184.526-.425.638-.625a.786.786 0 0 0-.274-1.067.73.73 0 0 0-.592-.082.57.57 0 0 0-.37.75c.111.294.286.656.598 1.024M7.78 20.073c-.53-.36-1.104-.439-1.704-.23-.439.151-.575.53-.591.573-.216.543.346.9.897.9.764 0 1.088-.51 1.398-1.243M30.02 38.355a1.086 1.086 0 1 0 .18 2.156c-.804 2.004-3.538 4.551-6.202 6.123-2.663-1.572-5.397-4.119-6.2-6.123.72.12 1.264-.457 1.264-1.07a1.086 1.086 0 0 0-2.171 0c0 2.638 3.987 6.217 7.107 7.968 3.119-1.75 7.106-5.327 7.108-7.965 0-.6-.486-1.09-1.086-1.09m12.493-17.94a.97.97 0 0 0-.59-.572c-.602-.209-1.175-.13-1.705.23.31.734.633 1.244 1.398 1.244.55 0 1.112-.358.897-.901M21.09 10.654q.102.031.203.064l-.044-.313-.19.029zm.419.135.2.067-.06-.506-.19.025zm.413.14.2.071-.07-.696-.19.02zm.408.148.198.076-.07-.887q-.096.007-.19.017zm.403.158q.098.04.197.081l-.064-1.08-.191.013zm.397.168.196.089-.05-1.275-.192.008zm.391.182q.098.047.194.096l-.03-1.476-.191.004zm.384-1.382v1.578l.095.05.096-.05v-1.578zm.575 1.382.027-1.375-.192-.005-.029 1.476q.096-.049.194-.096m.39-.182.047-1.178-.192-.008-.05 1.275zm.398-.168.058-.986-.191-.012-.064 1.08q.098-.042.197-.082m.403-.158.063-.794q-.096-.01-.191-.017l-.07.887zm.408-.147.06-.606-.19-.02-.07.696zm.413-.141.05-.414-.19-.025-.06.506zm.418-.136.03-.22q-.093-.015-.189-.028l-.043.313zm-5.497 19.384q.406.199.835.32l-.84.842c-.356-.53-.744-.67-.979-.784l-2.123 2.123c.097.236.25.695.703 1.057l-.735.736a3.3 3.3 0 0 0-.24-1.183l-1.418-3.522a1.34 1.34 0 0 0-.43-.562l1.076-1.075zm-1.437.154-2.839-1.4-.243.244 1.218 3.02zm2.902-1.674a.43.43 0 1 0 .608.607.43.43 0 0 0-.608-.607m-.143-5.051a1.8 1.8 0 0 1-.384-.563l-.747.747c.209.09.4.22.563.383l2.73 2.731q.248.248.384.563l.747-.747q-.315-.137-.563-.383zm3.907 1.286a.43.43 0 1 0 .609.607.43.43 0 0 0-.608-.607m2.968-5.477-.502.07.07-.502c.103-.74-.024-1.418-.451-2.316l-.692.692c.424.399.666.858.706 1.344.043.528-.168 1.054-.593 1.479-.274.274-.866.441-1.265.043l-.384-.384a1.8 1.8 0 0 1-.383-.563l-.747.747c.209.09.4.22.563.384l2.73 2.73q.248.248.384.563l.747-.747a1.8 1.8 0 0 1-.563-.383l-.883-.883c-.59-.591-.098-1.083.063-1.245.348-.347 1.008-.496 1.642-.371.393.077 1.06.32 1.548 1.078l.912-.912a3.3 3.3 0 0 1-.798-.334c-.698-.407-1.445-.581-2.104-.49m3.532-1.023a.43.43 0 1 0 .608.607.43.43 0 0 0-.608-.607m-5.39 15.878v-2.987l-.806.881v.01l.437-.076v2.172zm3.386-1.1c0 .668-.493 1.185-1.176 1.185s-1.195-.512-1.195-1.185c0-.456.247-.792.607-1.034a.94.94 0 0 1-.35-.73c0-.489.402-.892.929-.892.526 0 .938.398.938.901 0 .322-.18.56-.37.72.347.186.617.556.617 1.035m-1.726-1.745c0 .308.228.564.55.564s.54-.252.54-.564c0-.313-.222-.56-.54-.56a.544.544 0 0 0-.55.56m1.337 1.74c0-.455-.322-.825-.787-.825s-.801.37-.801.825c0 .45.336.83.801.83s.787-.38.787-.83m2.893.82c-.195.105-.37.142-.565.142-.697 0-1.09-.464-1.09-1.384 0-.91.388-1.375 1.114-1.375.398 0 .66.142.849.403.161.223.265.517.265 1.147 0 1.593-.792 1.892-1.275 2.1l-.057-.094c.427-.341.678-.683.759-.939m.18-1.228c0-.365-.063-.6-.162-.768q-.178-.309-.569-.308a.61.61 0 0 0-.554.298c-.1.176-.157.427-.157.769 0 .687.256 1.047.712 1.047h.014c.46 0 .716-.355.716-1.038m1.906 1.513v-2.987l-.806.881v.01l.436-.076v2.172zM25.94 32.72a.26.26 0 0 0-.256-.256.255.255 0 0 0-.256.256c0 .138.114.256.256.256a.26.26 0 0 0 .256-.256m11.57 0a.26.26 0 0 0-.256-.256.255.255 0 0 0-.256.256c0 .138.114.256.256.256a.26.26 0 0 0 .256-.256M17.349 15.693a1.806 1.806 0 1 0 0 3.615 1.806 1.806 0 1 0 0-3.614M17.3 23.07h.096c.119-.41.138-.673.009-2.32h-.113c-.132 1.652-.113 1.875.008 2.32m.836-2.416c.235 1.38.301 1.577.526 1.93l.09-.023c.024-.393-.025-.623-.509-1.935zm1.62 1.105.075-.043c-.043-.33-.123-.497-.81-1.428l-.095.055c.459 1.059.552 1.193.83 1.416m.698-1.096.055-.055c-.063-.246-.135-.35-.826-.846l-.074.074c.5.703.595.755.845.827m.733-.99c-.12-.216-.217-.3-.998-.592l-.052.09c.636.53.747.566 1.011.57zm.846-.87.022-.085c-.253-.197-.428-.264-1.554-.428l-.028.105c1.078.433 1.234.445 1.56.407M23.4 17.55v-.1c-.524-.128-.927-.127-2.804-.007v.113c1.896.125 2.228.123 2.804-.006m2.017-2.268c-.896.12-1.547.282-4.946 1.32l.03.113c3.52-.804 4.257-1.044 4.944-1.33zm-5.227.642c1.761-.864 1.96-1.005 2.34-1.36l-.05-.084c-.459.129-.765.285-2.347 1.346zm-.585-.761.08.079c1.303-1.117 1.462-1.302 1.702-1.713l-.068-.068c-.397.22-.628.438-1.714 1.702m-.68-.505.095.055c.84-1.188.917-1.36 1.007-1.76l-.08-.047c-.295.261-.424.46-1.023 1.752m-.164-2.253-.09-.024c-.218.333-.292.56-.536 1.966l.107.029c.504-1.367.535-1.556.519-1.97m-1.366-.474h-.095c-.118.408-.138.667-.009 2.32h.112c.13-1.605.118-1.858-.008-2.32m-.834 2.416c-.337-1.779-.418-1.984-.65-2.4l-.094.025c-.005.49.092.842.635 2.404zm-.79.31c-.753-1.575-.89-1.76-1.214-2.088l-.083.048c.108.435.24.69 1.2 2.097zm-1.535-.216c.055.244.131.345.777.798l.074-.073c-.46-.662-.553-.715-.797-.778zm-.545.907-.036.062c.114.295.421.343.853.509l.05-.088c-.523-.463-.641-.506-.867-.483m-.738.932-.02.078c.197.184.334.245 1.262.352l.028-.102c-.876-.382-.995-.383-1.27-.328m-.787 1.174v.091c.372.13.598.137 1.933.01v-.11c-1.38-.134-1.557-.114-1.933.009m-.663 1.663c.517-.011.886-.101 2.72-.721l-.029-.11c-2.004.4-2.244.488-2.717.735zm3.06.057-.058-.1c-1.8.91-2.427 1.254-2.938 1.704l.05.089c.585-.201.965-.406 2.945-1.693m.528.664-.082-.082c-2.126 1.936-2.51 2.374-2.865 2.873l.074.074c.5-.36.81-.614 2.873-2.865m.682.505-.1-.058c-1.811 2.864-2.11 3.468-2.366 4.106l.092.054c.535-.686.866-1.25 2.374-4.102m.79.31-.113-.03c-1.135 3.741-1.36 4.678-1.492 5.582l.106.029c.327-.849.552-1.498 1.499-5.58M31.549 8.451c.312-.368.486-.73.598-1.025a.57.57 0 0 0-.37-.75.73.73 0 0 0-.592.083.786.786 0 0 0-.274 1.067c.112.2.398.441.638.625m10.544 10.902-1.445-3.637c-1.423-.266-2.566-.197-3.825.112l-1.703-1.82c.4-.768 1.084-2.616 1.183-3.532l-3.59-3.1c-1.105 3.47-5.344 3.067-8.714 5.05-3.37-1.983-7.609-1.58-8.713-5.05l-3.59 3.1c.1.916.783 2.764 1.183 3.532l-1.703 1.82c-1.26-.31-2.403-.378-3.825-.112l-1.445 3.637c2.367-.819 4.196 2.026 4.196 5.06 0 3.524-2.124 7.18-3.957 9.414 2.498 2.908 5.616 5.51 8.151 5.51.562 0 1.27-.095 1.794-.62a1.086 1.086 0 1 0-1.589-.057c-2.468.136-5.412-2.716-6.305-3.605l25.37-25.371-.436-.377L7.793 34.644a30 30 0 0 1-.774-.837c.063-.082 3.753-4.579 3.753-9.395 0-2.934-1.56-5.693-3.824-5.865l.887-2.232c1.615-.242 2.69.044 3.563.258l2.295-2.454c-.808-1.494-1.165-2.934-1.274-3.38l2.614-2.258c.413.744 1.015 1.348 1.825 1.832.944.564 2.047.905 3.214 1.267 2.3.711 2.833.98 3.927 1.624 1.097-.645 1.63-.913 3.928-1.624 1.167-.362 2.27-.703 3.214-1.267.81-.484 1.412-1.088 1.825-1.832l2.614 2.258c-.109.446-.466 1.886-1.274 3.38l2.295 2.454c.5-.122 1.033-.265 1.758-.325L17.002 37.606a.287.287 0 0 0 .406.407l21.786-21.787c.318.01.638.04.97.089l.886 2.232c-2.266.172-3.823 2.932-3.823 5.865 0 4.816 3.687 9.31 3.753 9.395-2.68 3.011-5.435 4.966-7.482 4.853a1.085 1.085 0 1 0-1.589.058c.524.524 1.232.619 1.794.619 2.535 0 5.653-2.602 8.15-5.51-1.832-2.233-3.956-5.89-3.956-9.415 0-3.033 1.83-5.877 4.196-5.059" data-source="https://football-logos.cc"></path><!-- source: https://football-logos.cc --></svg>