<svg xmlns="http://www.w3.org/2000/svg" id="Capa_2" data-name="Capa 2" viewBox="0 0 379.09 482.3"><metadata xmlns:fl="https://football-logos.cc/uruguay/albion">dl1_a4de9d077862a61fec93d81127ad6ed9192c3c1270927dcc73e5c6a018462564</metadata><!-- Source: https://football-logos.cc --><defs data-source="https://football-logos.cc"><style>.cls-1{fill:#003275}.cls-2{fill:#67582a}.cls-3{fill:#fff}.cls-4{fill:#807c42}.cls-5{fill:#cc001b}</style></defs><g id="Capa_1-2" data-name="Capa 1" data-source="https://football-logos.cc"><path d="M60.62 368.21c-47.87-61.93-82.31-158.29-44.5-302.36l173.42 173.42z" class="cls-5"></path><path d="M189.55 251.96 66.26 375.25c54.66 66.36 123.28 90.22 123.29 90.22s68.63-23.86 123.29-90.22zM189.55 226.6 360.24 55.9c-51.99-24.12-109.8-37.57-170.7-37.57S70.84 31.78 18.84 55.9l170.7 170.7Z" class="cls-1"></path><path d="M318.47 368.21c47.87-61.92 82.31-158.28 44.5-302.35L189.55 239.28l128.93 128.93Z" class="cls-5"></path><path d="M189.16 137.17c1.15 0 2.42.14 3.81.48 0 0-2.17 1.21-3.23 3.13 0 0 2.87-.64 6.27-.64 2.48 0 5.24.34 7.39 1.51h-.15c-.54 0-2.33.14-2.27 2.06.09 2.87 3.64.81 6.14 4.22.18.25.35.39.37 2.28.03 3.54 3.55 8.01 7.86 8.02 0 0-.99 1.77-4.46 1.86 1.66.27 3.33 1.33 3.8 1.94 0 0 .65 4.39 4.62 5.22.61.13 1.18.18 1.69.18 2.08 0 3.3-.86 3.42-.86.36 1.2-.45 7.14-6.51 7.14-.14 0-.29 0-.44-.01-2.05-.1-3.56-1.49-4.09-2.06.67.82 2.8 3.93 3.79 11.26.04.29-1.83 5.28 3.74 7.89 0 0-.6.09-1.46.09-2.31 0-6.52-.67-6.36-5.61 0 0-6.73 6.54-.06 14.05 0 0-8.4-3.97-4.79-13.03 0 0-.29-.84-1.38-.84-.13 0-.28.13-.32.37-.48 3.01-2.03 7.79-2.02 19.4 0 0-4.15-1.64-8.07-6.69 0 0 3.93-6.71 2.42-14.28 0 0 .78 18.39-18.1 21.97 0 0 2.32-2.84 2.32-4.64 0 0-3.87 3.35-15.66 4.82 0 0-7.29 1.37-9.89 5.1 0 0-1.15-3.99.6-6.52 2.02-2.93 4.63-3.88 6.98-3.88.16 0 .32 0 .48.01 0 0 1.71 1.05 4.12 1.05.94 0 1.98-.16 3.07-.61 1.22-.5 3.22-1.79 4.35-4.06 1.37-2.77.84-6.32-.41-7.86 0 0-.93 7.14-7.82 7.14-.76 0-1.58-.09-2.49-.28 0 0-2.68-5.57 3.09-9.8 0 0-9.51 1.99-5.43 11.79 0 0-7.74 2.32-8.86 8.34 0 0-5.24 7.39-15.55 7.39-.58 0-1.17-.02-1.78-.07 0 0 11.65-5.08 12.59-17.65 0 0 1.98.98 2.07 4.13v.38-.38c.03-1.74.67-7.32 7.43-8.02 0 0-.19-.02-.51-.02-1.18 0-4.17.3-6.42 3.09 0 0-.23-6.11 6.9-7.77 2.22-.52 9.48-4.65 11.19-8.79.13-.31-.34-.65-.57-.93-1.92-2.35-4.08-3.18-6.07-3.18-2.48 0-4.71 1.28-5.91 2.5-2.22 2.26-2.06 5.49-2.06 5.49s-5.77-2.01-5.77-8.39c0-2.36 1.55-6.51 3.88-7.28 0 0-.32 1.29.18 2.57.2.51.99 1.8 1.32 1.82.36.02.73.03 1.1.03 4.43 0 9.3-1.56 11.5-3.21.05-.04-.44-1.02-.46-1.07-1.48-3.21-4.8-4.88-8.07-4.88-2.49 0-4.96.98-6.55 2.99 0 0-.98-1.29-.67-3.13 0 0-3.11-.9-2.88-4.56.09-1.34.73-2.32 1.67-3.09 0 0-.32-1.47-1.69-2.31 0 0 4.3-2.64 10.62-2.64.78 0 1.6.04 2.44.13 0 0 6.57-6.93 15.09-6.93.28 0 .55 0 .83.02 0 0 2.74-5.87 10.1-5.87m-2.63 14.75 1.53-.71s1.75-.67 4.15-.67c1.91 0 4.22.42 6.39 1.94 0 0-2.01 4.66-7.85 5.12 0 0 4.83 9.32-5.96 14.89 0 0 9.75-1.63 8.88-12.16 0 0 5.47-2.13 7.04-7.35 0 0-5.14-3.85-12.02-3.85h-.32s-1.79-.62-.95-2.73c0 0-1.97 2.09-.89 5.52m-14.81.03c2.02 0 3.27-1.83 3.27-1.83.5-1 2.17-1.57 2.17-1.57h-9.68s.44 3.14 4.01 3.39h.23m13.1 12.73c-.78-2.61-2.78-3.05-4.05-3.05-.64 0-1.09.11-1.09.11 2.87 8.67-3.4 12.69-3.4 12.69 5.74-1.71 6.43-8.61 6.43-8.61 1.91.46 2.56 2.27 2.56 2.27 4.91-6.65.74-12.5.74-12.5 1.6 4.65-1.19 9.08-1.19 9.08m18.39 14.46c-.98-.16-5.82-3.54-5.41-8.38 0 0-5.88 6.16-5.69 14.16 0 0-5.69-2.76-5.15-8.77 0 0-3.89 2.72-2.12 9.58 1.37 5.33-3.65 9.14-3.65 9.14s7.54-1.56 6.58-10.23c0 0 .61 3.7 4.11 3.7.13 0 .26 0 .4-.02 0 0-1.72-6.52 4.45-12.41 0 0 2.39 4.67 7.62 4.67.84 0 1.76-.12 2.76-.4 0 0-4.52-3.86-.73-8.64 0 0 3.71-8.03-4.37-12.21 0 0 4.51 3.36 2.32 9.93 0 0-3.42 3.63-1.46 9.22.14.39.36.65.33.65m10.62 19.47c-3.94-4.44-2.74-8.44-1.43-10.68.27.76.67 1.42 1.22 1.98 1.63 1.68 4.07 2.03 5.83 2.03.94 0 1.6-.1 1.63-.11l3.43-.54-3.15-1.47c-4.17-1.95-3.44-5.32-3.2-6.42.06-.26.09-.42.06-.64-.49-3.65-1.26-6.3-2.02-8.18.38.1.79.16 1.22.18.17 0 .33.01.49.01 3.26 0 5.09-1.54 6.06-2.83 1.47-1.98 1.8-4.56 1.48-5.67l-.23-.76h-.8c-.27 0-.46.1-.67.2-.4.2-1.33.66-2.76.66-.48 0-.97-.05-1.47-.16-3.18-.67-3.76-4.19-3.79-4.34l-.04-.28-.17-.22c-.25-.31-.65-.66-1.15-.98 1.3-.65 1.82-1.49 1.9-1.63l.88-1.58h-1.81c-3.63-.02-6.77-3.84-6.8-6.97-.02-1.83-.16-2.34-.55-2.87-1.51-2.05-3.38-2.47-4.62-2.75-1.31-.29-1.32-.36-1.33-.9-.01-.45.13-.6.18-.65.22-.23.69-.31 1.03-.31h.08l4.79.31-4.21-2.3c-2-1.09-4.65-1.64-7.9-1.64-1.29 0-2.5.09-3.52.2.55-.44.99-.69 1-.69l2.37-1.33-2.64-.64c-1.4-.34-2.77-.51-4.06-.51-6.53 0-9.72 4.21-10.71 5.85h-.22c-7.81 0-13.93 5.38-15.49 6.89q-1.02-.09-2.04-.09c-6.55 0-10.99 2.69-11.18 2.8l-1.47.9 1.46.91c.51.32.82.76 1 1.11-.9.93-1.4 2.04-1.48 3.32-.19 2.93 1.47 4.59 2.82 5.31 0 1.81.9 3.03.95 3.09l.46.61c-2.38 1.62-3.58 5.64-3.58 7.78 0 5.65 4.24 8.62 6.49 9.4l1.49.52-.08-1.57s-.09-2.8 1.76-4.69c.99-1.01 2.93-2.18 5.15-2.18 1.98 0 3.74.94 5.25 2.79.07.08.14.17.23.25-1.85 3.65-8.38 7.32-10.26 7.76-7.9 1.83-7.73 8.77-7.73 8.84l.03.67c-.54-.57-1.02-.82-1.06-.84l-1.41-.7-.12 1.57c-.88 11.76-11.85 16.71-11.96 16.76l-3.86 1.7 4.2.34c.63.05 1.25.08 1.87.08 10.74 0 16.19-7.52 16.42-7.84l.12-.17c-.31 2.26.28 4.39.32 4.52l.62 2.15 1.28-1.84c1.91-2.75 7.24-4.29 9.18-4.66 6.76-.84 11-2.31 13.44-3.44-.35.58-.75 1.13-1.09 1.55l-1.85 2.26 2.87-.54c7.1-1.34 11.54-4.72 14.32-8.49l.32.41c4.06 5.22 8.34 6.95 8.52 7.03l1.46.58v-1.57c0-5.83.38-9.88.83-12.88.94 5.4 6.09 7.91 6.16 7.95m-43.52-50.66h4.99c-.25.31-1.13 1.27-2.32 1.27h-.16c-1.33-.09-2.08-.68-2.5-1.26Zm18.24.77c-.02-.23-.03-.46-.02-.67.3.22.57.34.69.39-.17.06-.27.09-.29.1h-.04l-.03.03zm4.95 8.08c4.39-.87 6.46-3.94 7.11-5.12.03.02.06.04.08.05-1.66 4.12-6.1 5.91-6.15 5.93l-.72.28c-.1-.43-.21-.82-.32-1.15Zm-10.76 8.24c.06-1.21-.05-2.54-.41-4.01 1.39.09 2.31.86 2.73 2.28l.03.11c-.26-.12-.55-.23-.86-.3l-1.19-.28-.12 1.21s-.04.4-.18.99m-27.01-.48.02-.02c1.3-1.65 3.38-2.59 5.72-2.59 3.12 0 5.91 1.67 7.1 4.27l.03.07c.03.06.05.11.07.15-2.22 1.31-6.33 2.55-10.18 2.55-.25 0-.49 0-.73-.02-.23-.28-.59-.87-.7-1.15-.36-.94-.14-1.93-.13-1.94l.43-1.85-1.62.53Zm30.73-.15.52-.83s.03-.04.06-.09c-.14.33-.31.66-.5 1zm19.01 13.44c.1-.25.13-.61-.14-1.03-.05-.08-.13-.21-.19-.36-1.72-4.93 1.2-8.11 1.23-8.14l.16-.17.07-.22c.48-1.45.66-2.79.64-4.01.58 2.54-.3 4.87-.52 5.41-2.57 3.33-1.72 6.49-.36 8.5-.25.02-.5.03-.74.03h-.15Zm-8.34-4.24c.39-.67.78-1.27 1.13-1.78.37 1.34 1.05 2.52 1.83 3.5-.73-.8-1.1-1.5-1.14-1.57l-.65-1.26-1.03.97zm-10.24 15.27c.52-1.46.74-3.18.25-5.08-.77-2.99-.38-5.07.22-6.42.82 3.6 3.64 5.69 4.92 6.48-.03.63 0 1.19.03 1.64-1.84-.51-2.2-2.6-2.22-2.7l-2.11.29c.29 2.58-.25 4.45-1.09 5.79m-21.23 8.93 1.13-.34-.45-1.09c-1.14-2.73-1.24-5.01-.3-6.8.14-.26.29-.51.46-.74-1.17 3.39.22 6.37.24 6.41l.23.47.51.11c.94.2 1.86.3 2.71.3 4.26 0 6.69-2.51 7.91-4.98.16 1.3.03 2.83-.63 4.16-1.17 2.37-3.37 3.37-3.8 3.55-.85.35-1.75.53-2.67.53-2.05 0-3.55-.89-3.56-.89l-.23-.14h-.27c-.18-.02-.35-.03-.53-.03M182.86 256.17c4.8 0 10.28 1.42 16.36 5.16 0 0-1.75-.96-4.21-.96-1.62 0-3.54.42-5.47 1.79 0 0 1.79-.6 4.3-.6 3.65 0 8.82 1.27 12.13 7.51 1.16 2.18 1.49 4.03 1.31 7.56 0 0-1.37-2.24-5.41-3.06a7.3 7.3 0 0 0-1.46-.14c-2.9 0-6.88 1.49-8.58 6.37-.8 2.3-1.18 7.94 5.88 11.2 0 0-.55-.18-1.26-.18-1.2 0-2.84.51-3.02 3.24-.03.52.14.97.38 1.34l1.04 1c.16.11.27.16.27.16s-.06-.02-.18-.04c-4.89.14-12.22 6.06-13.59 8.04-2.67 2.18-3.53 4.96-3.53 4.96 1.82 2.74 1.82 5.44 1.82 5.44.02 8.59-6.26 8.92-7.21 8.92h-.12c2.67-2.71.96-5.19.96-5.19-6.57-.6-6.33-5.76-6.33-5.76-.21-1.05-.7-1.1-.77-1.1-.1-.02-.2-.02-.29-.02-1.82 0-2.24 2.85-2.24 2.85-.82 4.3-3.18 5.38-5.33 5.38s-4.1-1.07-4.1-1.07c-3.76 2.9-2.57 6.18-2.57 6.18-4.96-2.64-3.21-8.17-3.21-8.17 1.75-5.53 8.13-6.59 8.13-6.59 2.45-.45 3.94-1.79 3.94-1.79-2.29-1-3.99-1.31-5.22-1.31-1.91 0-2.66.74-2.66.74-1.91 1.51-3.79 2.02-5.45 2.02-3.37 0-5.83-2.1-5.83-2.1-.27-.03-.52-.04-.76-.04-3.8 0-4.79 3.42-4.79 3.42-.58-4.3 2.96-7.09 2.96-7.09.85-2.65 4.96-4.7 6.97-4.73h.33c6.49 0 7 3.33 11.23 3.96.69.1 1.27.14 1.75.14 2.48 0 2.42-1.13 2.42-1.13.35-2.09-2.1-2.41-3.31-2.45-8.39-.27-5.91-5.54-5.91-5.54-.5-.63-1.67-.82-2.89-.82-1.73 0-3.54.38-3.54.38 3.77-3.73 7.83-4.35 7.83-4.35q1.23-.18 2.28-.18c6.57 0 7.58 5.01 7.58 5.01 1.9 5.65 4.96 6.32 4.96 6.32.52.09 1.02.14 1.5.14 2.68 0 4.75-1.35 6.03-3.02.75-1.32 1.22-2.84 1.45-4.14.33-1.88-1.12-3.29-1.12-3.29-2.49-2.06-7.97-7.33-8.9-14.36 0 0-2.87.65-4.9 4.19 0 0-2.76-6.71 3.89-10.79 0 0-1.07-.3-2.49-.3-1.2 0-2.66.22-3.91 1.04 0 0 1.92-3.92 6.08-7.55 3.88-3.38 9.56-6.6 16.78-6.6m0-1.06c-7.95 0-13.9 3.73-17.48 6.86-4.28 3.73-6.26 7.72-6.34 7.89l-1.7 3.47 3.24-2.11c.83-.54 1.88-.83 3.11-.86-4.53 4.48-2.19 10.37-2.17 10.44l.82 2.01 1.08-1.88c1.04-1.8 2.29-2.75 3.16-3.23 1.45 6.74 6.67 11.72 9 13.65.14.15 1.01 1.14.8 2.32-.14.79-.5 2.31-1.29 3.73-.77.98-2.43 2.54-5.14 2.54-.41 0-.84-.04-1.27-.11-.23-.07-2.59-.93-4.16-5.57-.45-2.05-2.79-5.79-8.61-5.79-.77 0-1.59.06-2.43.19-.18.03-4.46.72-8.42 4.65l-2.56 2.53 3.52-.73s1.73-.35 3.32-.35c.83 0 1.33.09 1.63.19-.2.85-.31 2.19.46 3.44 1.04 1.7 3.28 2.61 6.67 2.72 1.07.03 1.91.27 2.2.63.05.06.16.2.1.58-.1.07-.46.25-1.37.25-.46 0-.99-.04-1.59-.13-1.53-.22-2.49-.85-3.61-1.58-1.72-1.12-3.66-2.38-7.77-2.38h-.35c-2.44.04-6.69 2.21-7.86 5.17-.87.78-3.68 3.66-3.11 7.85l.67 4.98 1.4-4.83c.03-.1.84-2.65 3.77-2.65.12 0 .23 0 .35.01.79.59 3.16 2.13 6.23 2.13 2.16 0 4.22-.76 6.11-2.25l.05-.04.04-.04s.55-.43 1.9-.43c.83 0 1.76.16 2.79.47-.48.21-1.06.4-1.71.52-.27.04-7.02 1.24-8.95 7.32-.7 2.2-.82 7.01 3.72 9.43l2.43 1.3-.93-2.59c-.03-.09-.74-2.34 1.73-4.57.83.36 2.32.88 3.94.88 1.94 0 5.34-.81 6.38-6.25.07-.42.45-1.94 1.16-1.99.02.04.03.1.05.18.03.97.48 5.78 6.7 6.63.24.64.44 1.96-1.03 3.45l-1.64 1.67 2.35.14h.17c.78 0 3.5-.17 5.65-2.32 1.75-1.75 2.64-4.33 2.63-7.67 0-.11-.01-2.75-1.7-5.56.34-.8 1.24-2.57 3.02-4.02l.12-.1.09-.12c1.23-1.78 8.26-7.45 12.74-7.59v-.34l.63-1.63s-.04-.02-.09-.05l-.87-.84a.93.93 0 0 1-.15-.59c.13-1.99 1.12-2.24 1.96-2.24.52 0 .94.13.94.13l.77-1.98c-7.34-3.39-5.55-9.23-5.32-9.89 1.83-5.25 6.26-5.66 7.57-5.66.44 0 .87.04 1.25.12 3.47.7 4.67 2.5 4.72 2.58l1.79 2.78.17-3.29c.19-3.7-.18-5.74-1.43-8.11-2.11-3.98-5.03-6.36-7.23-7.86-5.56-3.81-11.32-5.61-16.81-5.61Z" class="cls-2"></path><path d="M231.66 174.58c1.99 0 5.52 1.63 6.18 5.24 0 0 .72 4.44-3.06 6.62 0 0 3.29-1.02 7.87-1.02 4.55 0 10.38 1.01 15.49 5.03 0 0 1.58 1.55 2.59 1.55.39 0 .69-.23.78-.86.1-.69-.18-2.08-1.79-2.12l1.63-.34s3.93 2.2.64 5.25c0 0 5.97 8.44 1.8 18.93-.79 2-3.27 5.95-2.8 8.76 0 0-.69-2.35-2.87-2.54h-.22c-3.26 0-5.67 6.33.82 10.29.65.4 1.69.68 2.85.68 1.85 0 4-.73 5.36-2.93 0 0-.73 7.6-9.82 8.17h-.28c-2.12 0-5.78-1.38-7.84-4.5-1.55-2.34-2.49-5.92-.31-10.16 0 0-1.76.87-2.9 2.64-1.49 2.3-2.13 5.95 1.43 9.48 0 0-9.75-6.13-2.41-15.48.96-1.22 1.62-1.72 3.49-2.39h-.11c-.9 0-7.2-.26-7.2-7.59 0 0 .82-6.3 6.98-6.3.25 0 .52.01.79.03 0 0-3.02.51-3.12 3.02-.12 3.02 1.87 3.85 3.72 3.85.23 0 .46-.01.68-.04 0 0 3.52-2.18 3.61-8.15 0 0 .22-7.52-8.81-9.22 0 0 1.97 3.74-1.1 7.34 0 0 .22-1.82-1.2-3.69-1.02-1.33-3.02-2.93-5.59-2.93-1.2 0-2.52.35-3.92 1.23 0 0-10.07 3.03-12.33 17.29-1.11 6.96 2.51 18.84 15.49 23.01 0 0 24.81 3.41 38.49 28.17 0 0 3.42 5.48 3.55 11.63.12 5.68-3.35 11.96-11.55 14.82-1.05.37-2.27.55-3.58.55-7.03 0-16.66-5.23-16.4-15.35 0 0 2.89-10.13-7.38-16.88l-1.17 1.95s8.11 6.81 3.91 17.86c0 0-2.91 3.94-3.58 9.16-.69 5.37 1.53 12.93 10.13 16.39 0 0-.08 1.68-2.46 2.31 0 0-1.09 1.36-.45 3.15.51 1.43 2.28 1.91 2.28 1.91s-4.07 0-5.33 4.62c0 0-.89 6.54 6.31 6.54h.17s-2.76.18-2.91 3.05c-.1 1.79 1.73 2.75 1.73 2.75s-1.87-.91-4.31-.91c-2.06 0-4.52.64-6.61 3.01a.6.6 0 0 1-.09-.07c-2.48 2.76-2.58 6.03-2.58 6.03 2.24 1.95 2.88 4.3 2.88 4.3 2.23 8.09-4.26 9.51-4.26 9.51 1.67-3-.4-4.75-.4-4.75-.6.11-1.16.16-1.66.16-4.4 0-5.22-3.66-5.22-3.66-.34-.69-.69-.78-.85-.78-.06 0-.09.01-.09.01-1.88.21-1.53 3.07-1.53 3.07.42 5.33-3.01 6.2-5.28 6.2-1.08 0-1.9-.2-1.9-.2-2.58 3.42-.77 6-.77 6-4.95-1.12-4.74-6.35-4.74-6.35.21-5.23 5.51-7.68 5.51-7.68 2.02-.98 3-2.5 3-2.5-.91-.13-1.7-.19-2.4-.19-3.69 0-4.59 1.57-4.59 1.57-1.96 2.65-4.37 3.33-6.32 3.33s-3.51-.71-3.51-.71c-3.98.63-4.03 4.26-4.03 4.26-1.53-3.6.89-6.88.89-6.88.1-2.51 3.2-5.27 4.94-5.78 1.38-.4 2.51-.55 3.47-.55 2.82 0 4.25 1.29 6.67 1.29.27 0 .56-.02.86-.05 3.85-.47 3.4-1.86 3.4-1.86-.12-1.22-1.08-1.53-2.03-1.53-.53 0-1.06.1-1.44.19-1.07.26-1.97.37-2.72.37-4.4 0-3.74-3.78-3.74-3.78-.27-.2-.65-.28-1.08-.28-1.82 0-4.62 1.43-4.62 1.43 2.39-4.14 5.78-5.66 5.78-5.66 1.73-.76 3.19-1.05 4.41-1.05 3.86 0 5.33 2.91 5.33 2.91 2.82 4.2 5.49 4.33 5.8 4.33h.03c6.49-.58 6.52-8.42 6.49-9.5a9 9 0 0 0-.54-.69s-5.04-6.33-2.48-14.2c0 0-5.44-.54-7.39-6.76 0 0-2.03-6.13-8.75-6.13-.74 0-1.54.07-2.4.24 0 0 7.56-11.8-1.51-26.15-5.18-8.19-13.24-12.37-23.02-12.37-.3 0-.6 0-.91.01 0 0-25.11-3.5-26.83-21.53 0 0 1.02-.23 2.75-.23 3.32 0 9.28.84 15.85 5.71 0 0 .97-9.62 7.88-18.08 0 0-7.85 4.91-8.65 14.37 0 0-4.77-4.59-13.24-4.59-3.64 0-7.96.85-12.88 3.28-7.77 3.84-10.16 9.57-10.16 9.57-1.01-2.16-4.66-2.68-4.66-2.68-4.2.4-4.07 3.39-4.07 3.39 1 3.2-.6 6.51-.6 6.51-.06 5.09-2.89 6.04-4.98 6.04-1.24 0-2.22-.33-2.22-.33 3.2-1.1 3.2-3.7 3.2-3.7-3.3-1.9-2.3-3.9-2.3-3.9.1-2.1-1.4-2.5-1.4-2.5-.56-.24-1.05-.34-1.47-.34-2.02 0-2.44 2.34-2.44 2.34.2 4.3-4.6 5.91-4.6 5.91-1.3 1.2-.5 4.4-.5 4.4-8.51-5.1 1.3-12.21 1.3-12.21 2-1.53.87-2.67.87-2.67-.24-.39-.57-.53-.91-.53-.89 0-1.89.93-1.89.93-1.46 3.39-4.01 3.99-5.66 3.99-.92 0-1.55-.19-1.55-.19-3.54.53-3.14 3.74-3.14 3.74-3.74-3.2 1.47-6.61 1.47-6.61.53-3.87 7.07-4.2 7.07-4.2 1.87-.47 1.2-2.27 1.2-2.27-.21-.67-.69-.86-1.15-.86-.54 0-1.05.26-1.05.26-1.6.82-2.93 1.11-4 1.11-2.42 0-3.54-1.44-3.54-1.44-.31-.08-.6-.11-.88-.11-2.36 0-3.59 2.51-3.59 2.51-1.68-5.1 3.77-5.27 4.52-5.27h.08c1.41-1.05 2.78-1.36 3.93-1.36 1.78 0 3.01.76 3.01.76 1.67.53 3.27.6 3.27.6 3.79-1.38 6.84-1.76 9.04-1.76 2.57 0 3.96.51 3.96.51.68 0 13.1-12.82 43.39-16.45 6.6-.79 21.62-.78 26.31-12.17 0 0 2.03 2.97 8.18 5.38 0 0-9.97 23.02 14.1 35.07 2.26 1.13 4.28 1.62 8.16 2.09 0 0 .63-.06 1.72-.06 5.55 0 22.93 1.5 27.85 19.83 0 0-2.48 1.89-2.48 6.08 0 3.11 2.19 9.71 9.03 9.71h.38c7.13-.25 10.07-6.14 9.31-10.82-.71-4.42-3.81-8.41-3.81-8.41s-8.69-15.12-27.25-21.2c0 0-24.98-5.87-23.95-28.58 0 0-.79-14.9 15.73-25.8 0 0 4.52-2.59 2.06-6.08-.45-.65-1.61-1.4-2.85-1.4-.46 0-.92.1-1.37.35-1.8 1.01-1.75 1.83-1.93 2.62h-.01c-.06 0-.3 0-.53.06-.24.06-1.33 1.24-1.33 1.24s-1.24-5.04 3.23-7.28c.75-.38 1.68-.63 2.79-.71h.24m0-1.06c-.11 0-.22 0-.32.01-1.2.09-2.28.37-3.19.83-4.13 2.07-4.28 6.45-3.78 8.48l.47 1.92 1.34-1.46c.35-.38.75-.78.95-.95h.98l.2-.83c.02-.1.04-.2.06-.31.11-.58.19-.97 1.35-1.62.26-.14.54-.22.85-.22.86 0 1.7.55 1.98.94.47.66.63 1.29.49 1.92-.28 1.25-1.69 2.32-2.21 2.62l-.03.02-.03.02c-16.49 10.88-16.25 25.5-16.21 26.69-1 22.78 23.43 29.28 24.72 29.6 17.94 5.89 26.54 20.56 26.62 20.7l.04.06.05.06s2.94 3.83 3.6 7.92c.38 2.33-.29 4.8-1.77 6.61-1.52 1.85-3.77 2.87-6.52 2.97h-.34c-6.62 0-7.97-6.82-7.97-8.65 0-3.57 1.99-5.17 2.07-5.24l.55-.43-.17-.68c-5.14-19.13-23.4-20.62-28.88-20.62-.86 0-1.45.03-1.7.05-3.78-.46-5.66-.95-7.71-1.97-9.62-4.82-14.83-11.95-15.49-21.18-.49-6.92 1.87-12.46 1.89-12.52l.44-1.01-1.03-.4c-5.71-2.23-7.67-4.96-7.69-4.99l-1.12-1.59-.74 1.79c-3.91 9.5-15.79 10.61-22.88 11.26-.95.09-1.82.17-2.57.26-17.48 2.1-31.92 7.47-42.92 15.97-.18.14-.36.27-.5.38-.67-.17-1.97-.42-3.81-.42-2.87 0-5.97.59-9.2 1.75-.44-.04-1.55-.15-2.69-.5a7.46 7.46 0 0 0-3.43-.85c-1.51 0-2.95.46-4.28 1.37-1.07.03-3.59.32-4.89 2.11-.86 1.18-.98 2.71-.38 4.55l.82 2.48 1.15-2.35s.98-1.92 2.64-1.92c.11 0 .22 0 .34.02.56.53 1.9 1.53 4.07 1.53 1.4 0 2.91-.41 4.49-1.22.06-.03.34-.14.56-.14.05 0 .08 0 .1.01 0 0 .02.04.04.1.05.15.11.48.01.66-.06.12-.23.19-.38.23-.96.07-6.88.65-7.86 4.64-.86.64-2.77 2.31-2.91 4.47-.06.91.19 2.26 1.71 3.57l2.09 1.79-.34-2.73c-.04-.35-.11-2.09 2.04-2.52.31.07.88.17 1.59.17 1.7 0 4.78-.58 6.53-4.4.33-.26.77-.51 1-.52 0 0 .01.02.02.03l.1.16.05.03s.02.06.01.14c-.01.09-.1.43-.77.94-.2.14-5.38 3.95-5.18 8.37.09 2.19 1.43 4.07 3.98 5.6l2.2 1.32-.62-2.49c-.25-1.01-.34-2.62.09-3.24 1.13-.45 5.17-2.37 5.06-6.72.08-.34.41-1.37 1.37-1.37.3 0 .65.09 1.05.25l.07.03.07.02c.08.03.61.27.62 1.27-.23.73-.55 2.76 2.2 4.63-.19.62-.75 1.61-2.39 2.17l-2.95 1.02 2.96 1s1.17.39 2.57.39c1.77 0 5.87-.67 6.04-6.86.36-.84 1.48-3.85.61-6.89.04-.42.35-1.88 2.97-2.17.94.16 3.13.78 3.73 2.06l1.02 2.18.93-2.22c.02-.05 2.37-5.43 9.65-9.03 4.25-2.1 8.43-3.17 12.4-3.17 7.9 0 12.46 4.25 12.5 4.3l.79.75c-.02.12-.05.23-.07.34-6.38-4.25-12.11-4.92-15.06-4.92-1.84 0-2.94.25-2.99.26l-.91.21.09.93c1.78 18.65 26.69 22.33 27.75 22.48h.18c.29 0 .59-.01.88-.01 9.56 0 17.21 4.11 22.12 11.87 8.61 13.62 1.58 24.9 1.51 25.01l-1.34 2.09 2.44-.47c.76-.15 1.5-.22 2.2-.22 5.84 0 7.67 5.18 7.74 5.4 1.56 4.99 5.16 6.67 7.06 7.22-1.92 7.78 2.77 13.8 2.98 14.06.11.13.22.26.31.38 0 1.84-.44 7.59-5.48 8.08-.25 0-2.42-.19-4.86-3.81-.29-.52-2.08-3.42-6.24-3.42-1.49 0-3.12.39-4.84 1.15-.15.07-3.74 1.71-6.28 6.1l-1.8 3.12 3.2-1.64c.71-.37 2.84-1.31 4.12-1.32.04.71.24 1.7.95 2.54.85 1.01 2.16 1.52 3.89 1.52.87 0 1.87-.13 2.97-.4.43-.1.85-.16 1.19-.16.86 0 .94.28.97.53-.14.13-.7.53-2.46.74-.25.03-.5.05-.74.05-1 0-1.81-.26-2.75-.56-1.08-.34-2.3-.74-3.93-.74-1.16 0-2.39.2-3.77.6-2.13.62-5.34 3.55-5.68 6.44-.6.93-2.33 4.12-.83 7.66l1.97 4.63.08-5.03c0-.26.16-2.6 2.85-3.17.61.23 1.97.67 3.63.67 2.01 0 4.89-.65 7.18-3.76l.04-.05.03-.05s.8-1.04 3.67-1.04h.04c-.32.23-.69.47-1.11.67-.22.1-5.87 2.78-6.11 8.6-.08 2.12.97 6.39 5.57 7.43l2.69.61-1.59-2.26c-.04-.07-1.14-1.78.38-4.22.37.05.86.1 1.41.1 2.07 0 3.75-.63 4.85-1.83 1.18-1.28 1.68-3.13 1.49-5.51-.05-.43-.04-1.37.28-1.77.03-.04.07-.07.11-.1 0 .01.01.02.02.03.43 1.59 2.2 4.34 6.22 4.34.4 0 .82-.03 1.25-.08.34.5.75 1.54-.12 3.09l-1.15 2.06 2.31-.51c.12-.03 2.9-.66 4.5-3.3 1.2-1.99 1.39-4.53.56-7.54-.03-.1-.67-2.39-2.79-4.44.11-.79.48-2.49 1.65-4.12s.7-.7.7-.7c1.55-1.76 3.51-2.65 5.81-2.65 2.15 0 3.83.79 3.85.8l.96-1.9s-1.22-.68-1.16-1.75c.1-1.87 1.73-2.03 1.92-2.04l-.08-2.13h-.16c-1.91 0-3.32-.5-4.19-1.5-1.21-1.39-1.1-3.41-1.07-3.77 1.06-3.72 7.37-4.32 7.37-4.32s-4.11-2.04-4.37-2.77c-.3-.84-.05-1.54.13-1.89 2.15-.73 2.8-2.3 2.84-3.16l.04-.75-.7-.28c-8.02-3.23-10.12-10.25-9.47-15.27.63-4.87 3.35-8.63 3.38-8.67l.09-.12.05-.14c3.67-9.67-1.62-16.38-3.56-18.41l.15-.26c8.43 6.23 6.06 14.97 6.03 15.06l-.04.13v.13c-.11 4.15 1.35 7.91 4.23 10.87 3.35 3.44 8.42 5.58 13.22 5.58 1.45 0 2.78-.2 3.93-.61 9.22-3.22 12.38-10.3 12.26-15.85-.14-6.22-3.41-11.67-3.7-12.15-13.33-24.11-37.39-28.39-39.16-28.67-12.57-4.08-15.68-15.53-14.68-21.8 2.13-13.44 11.49-16.41 11.59-16.44l.14-.04.12-.08c1.12-.71 2.25-1.06 3.35-1.06 2.09 0 3.82 1.3 4.75 2.51 1.12 1.47 1 2.87.99 2.92l-.34 3.39 2.21-2.58c2.06-2.42 2.15-4.88 1.86-6.54 6.26 2.04 6.18 7.44 6.17 7.69 0 .2-.01.4-.02.59l-3.72-.31c-.3-.02-.59-.04-.88-.04-5.61 0-7.71 4.72-8.03 7.22v.14c0 5.18 2.81 7.26 5.17 8.1-.38.33-.74.73-1.13 1.23-2.4 3.06-3.35 6.14-2.82 9.15.85 4.91 5.31 7.76 5.5 7.88l8.15 5.13-6.84-6.78c-3.23-3.21-2.35-6.2-1.55-7.69-.4 3.21.77 5.69 1.7 7.08 2.42 3.65 6.55 4.98 8.73 4.98.12 0 .23 0 .34-.01 9.88-.62 10.8-9.05 10.81-9.13l.44-4.55-2.4 3.89c-1.3 2.11-3.35 2.43-4.45 2.43s-1.87-.27-2.29-.53c-3.28-2-3.92-4.58-3.43-6.32.33-1.18 1.18-2 2.05-2h.12c1.44.12 1.94 1.76 1.94 1.78l2.07-.48c-.31-1.81.98-4.47 1.93-6.42.33-.68.61-1.26.81-1.77 3.66-9.22-.05-16.83-1.45-19.19.79-.95 1.13-1.95 1.01-2.97-.24-2.04-2.25-3.21-2.48-3.34l-.35-.19-.39.08-1.63.34-2.29.48c-4.1-2.7-9.09-4.11-14.56-4.11-1.78 0-3.38.15-4.67.33 1.32-2.36.94-4.89.91-5.04-.77-4.19-4.77-6.13-7.23-6.13Zm28.81 17.33c-.3-.14-.73-.43-1.15-.77h.37c.42.02.55.17.59.22.12.15.17.38.18.55Zm-11.1 15.97c-.64 0-1.53-.12-2.08-.69-.42-.44-.62-1.13-.58-2.05.06-1.6 2.15-2 2.24-2.01l3.5-.63c-.51 3.34-2.21 4.93-2.78 5.38zM119.47 151.03c2.42 0 3.36 2.47 3.36 2.47 2.95.79 3.31 3.07 3.44 4.48.13 1.46.25 2.77.25 2.77 4.27 5.95 3.94 10.21 3.94 10.21.86.14 1.58 2.68 2.38 4.79h.03c3.65 10.25 15.25 13.4 19.39 13.4.4 0 .74-.03.98-.09 0 0-9.52 3.71-7.56 12.55 0 0 .7 8.98-9.04 9.66 0 0-1.7-.18-2.91-1.49-.92-1-1.1-2.73-1.1-2.73s5.01-.36 6.97-5.95c2.68-7.68-3.84-11.26-6.69-11.71-.87-.14-1.34-.25-1.85-.25-.68 0-1.43.19-3.31.74 0 0 2.32-6.18-2.48-8.64 0 0-2.08-1.46-3.17-3.42-1.14.49-2.32.61-3.19.61-.78 0-1.31-.1-1.31-.1-.81.22-1.52.31-2.16.31-4.51 0-4.84-4.78-4.84-4.78.89 1.29 2.18 1.58 3.17 1.58.8 0 1.4-.19 1.4-.19.55-2.17 1.58-2.49 2.15-2.49.24 0 .4.06.4.06 1.72-.39 1.7-1.69 1.7-1.69.09-1.85-1.32-2.02-1.85-2.02h-.2c-.53.18-1.05.25-1.54.25-2.69 0-4.71-2.2-4.71-2.2-.28-.17-.62-.24-.97-.24-1.24 0-2.7.83-2.7.83 1.86-3.46 4.03-4.43 5.89-4.43 2.39 0 4.26 1.61 4.26 1.61.59.45 1.06.59 1.42.59.66 0 .93-.49.93-.49.94-1.02-.95-2.17-.95-2.17-4.77-.64-5.78-3.14-5.78-3.14-.69-1.54-1.83-1.87-2.69-1.87-.67 0-1.17.2-1.17.2 1.35-1.61 2.74-2.03 3.82-2.03 1.2 0 2.03.51 2.03.51.15-.02.3-.03.44-.03 3.05 0 5.59 4.16 5.59 4.16.34.6.77.77 1.16.77.52 0 .95-.31.95-.31 1.08-.71-.01-1.91-.01-1.91-4.51-2.42-3.4-5.03-3.4-5.03-.07-2.53-2.54-2.61-2.54-2.61.8-.39 1.5-.54 2.11-.54m0-1.06c-.82 0-1.68.22-2.57.65l-1.2 1.09 1.64.93c.32.02 1.38.17 1.5 1.42-.12.49-.26 1.53.35 2.77-1.01-.78-2.23-1.39-3.55-1.39h-.23a5.4 5.4 0 0 0-2.24-.49c-1.19 0-2.96.42-4.64 2.41l-2.75 3.27 3.96-1.6s.34-.13.78-.13c.79 0 1.34.4 1.72 1.25.02.06.49 1.15 2.02 2.16-.3-.04-.6-.07-.92-.07-1.89 0-4.61.87-6.83 5l-1.75 3.25 3.21-1.83c.34-.19 1.39-.69 2.17-.69.13 0 .25.02.33.05.56.55 2.63 2.4 5.35 2.4.59 0 1.17-.09 1.73-.26.22 0 .5.05.63.19.16.17.16.52.16.71v.08-.01c0 .07-.08.39-.67.59-.11-.02-.23-.03-.37-.03-.65 0-2.16.27-2.98 2.64-.16.02-.35.04-.56.04-1.01 0-1.78-.38-2.29-1.12l-2.21-3.21.27 3.88c.14 2 1.55 5.77 5.9 5.77.69 0 1.43-.1 2.21-.29.26.03.7.08 1.25.08.71 0 1.71-.07 2.74-.38 1.23 1.74 2.92 2.95 3.01 3l.06.04.07.03c3.89 1.99 2.04 7.1 1.96 7.32l-.73 1.98 2.03-.59c1.75-.51 2.47-.69 3.01-.69.3 0 .6.05 1.09.14.18.03.37.06.59.1 1.44.23 4.09 1.42 5.5 3.79 1.1 1.84 1.22 4.04.35 6.53-1.7 4.88-6 5.24-6.04 5.24l-1.1.08.11 1.09c.02.21.25 2.11 1.38 3.34 1.46 1.59 3.49 1.82 3.58 1.83h.18c3.3-.23 5.87-1.38 7.62-3.41 2.71-3.14 2.43-7.22 2.41-7.39v-.07l-.02-.07c-1.74-7.86 6.56-11.19 6.91-11.33l-.62-2.03c-.1.02-.33.06-.75.06-3.7 0-14.94-3.01-18.38-12.69l-.25-.71h-.03c-.06-.16-.11-.32-.17-.48-.63-1.77-1.13-3.17-1.89-3.86-.07-1.49-.62-5.23-3.97-9.99-.04-.46-.13-1.44-.23-2.48-.09-1.04-.36-4.1-3.74-5.26-.48-.89-1.74-2.65-4.12-2.65Z" class="cls-2"></path><path d="M49.55 223.79c0-.47.38-.9.9-.9h18.88c.52 0 .9.43.9.9v2.64c0 .47-.38.9-.9.9H54.41v10.91h12.6c.47 0 .9.42.9.9v2.6c0 .47-.43.9-.9.9h-12.6v12.42c0 .47-.43.9-.9.9h-3.07c-.52 0-.9-.43-.9-.9v-31.25ZM105.4 101.31l14.49-31.77c.14-.28.57-.52.8-.52h.47c.24 0 .66.24.8.52l14.4 31.77c.28.61-.09 1.23-.8 1.23h-2.97c-.57 0-.9-.28-1.09-.71l-2.93-6.47h-15.44c-.94 2.17-1.94 4.3-2.88 6.47-.14.33-.52.71-1.09.71h-2.97c-.71 0-1.09-.61-.8-1.23Zm21.39-10.01-5.81-12.93h-.24l-5.76 12.93h11.8ZM141.09 70.38c0-.47.38-.9.9-.9h3.12c.47 0 .9.43.9.9v27.76h12.79c.52 0 .9.42.9.9v2.6c0 .47-.38.9-.9.9h-16.81c-.52 0-.9-.43-.9-.9V70.39ZM164.64 70.38c0-.47.38-.9.9-.9h10.57c5.71 0 9.82 3.78 9.82 8.73 0 3.64-2.69 6.23-4.91 7.51 2.5 1.04 5.9 3.35 5.9 7.69 0 5.29-4.34 9.11-10.29 9.11h-11.09c-.52 0-.9-.43-.9-.9V70.37Zm11.94 27.81c2.88 0 5.1-2.22 5.1-5.15s-2.74-4.96-5.81-4.96h-6.47v10.1h7.18Zm-.76-14.35c3.02 0 4.86-2.22 4.86-5.05s-1.84-4.86-4.86-4.86h-6.37v9.91zM194.01 70.38c0-.47.43-.9.9-.9h3.12c.47 0 .9.43.9.9v31.25c0 .47-.43.9-.9.9h-3.12c-.47 0-.9-.43-.9-.9zM222.61 69.02c9.44 0 16.99 7.6 16.99 17.04s-7.55 16.95-16.99 16.95-16.95-7.51-16.95-16.95 7.51-17.04 16.95-17.04m0 29.27c6.75 0 12.27-5.48 12.27-12.23s-5.52-12.32-12.27-12.32-12.23 5.62-12.23 12.32 5.52 12.23 12.23 12.23M246.36 69.86c0-.47.43-.85.9-.85h1.18l20.49 23.7h.05V70.38c0-.47.38-.9.9-.9h3.02c.47 0 .9.43.9.9v31.77c0 .47-.43.85-.9.85h-1.23l-20.49-24.36h-.05v22.99c0 .47-.38.9-.9.9h-2.97c-.47 0-.9-.43-.9-.9z" class="cls-3"></path><path d="M379.06 194.39c2.71 221.09-189.51 287.91-189.51 287.91v-8.35s187.36-65.13 189.52-279.56Z" class="cls-2"></path><path d="M.03 194.39C-2.68 415.48 189.54 482.3 189.54 482.3v-8.35S2.18 408.82.03 194.39" class="cls-4"></path><path d="m165.31 386.73-2.7 1.28c-.3.13-.64.07-.74-.24l-.4-1.18c-.1-.27-.03-.54.1-.67l4.79-4.35h1.65c.34 0 .61.3.61.64v21.65c0 .34-.27.64-.61.64h-2.06c-.37 0-.64-.3-.64-.64zM177.89 392.73v-.1c-1.45-.74-3.47-2.6-3.47-5.23 0-3.71 3.1-6.17 7.15-6.17s7.22 2.46 7.22 6.17c0 2.6-2.02 4.45-3.47 5.19v.14c1.55.71 4.08 2.73 4.08 5.63 0 3.67-2.97 6.47-7.86 6.47s-7.72-2.8-7.72-6.47c0-2.93 2.83-5.06 4.08-5.63Zm3.67 9.37c2.39 0 4.32-1.42 4.32-3.67 0-1.79-1.55-3.64-4.28-4.05-2.73.4-4.28 2.26-4.28 4.05 0 2.23 2.02 3.67 4.25 3.67Zm3.81-14.57c0-2.06-1.65-3.54-3.88-3.54-2.02 0-3.67 1.48-3.67 3.54 0 1.82 1.15 3.2 3.78 3.61 2.6-.37 3.78-1.82 3.78-3.61ZM195.86 402.27c1.55-.51 6.95-3.3 8.06-7.42-.3.17-2.26 1.21-4.48 1.21-3.61 0-7.08-2.66-7.08-7.32 0-4.25 3.44-7.72 7.55-7.72 5.36 0 7.92 4.25 7.92 9.47 0 9.41-8.06 13.35-11.16 14.57-.4.14-.71-.03-.84-.4l-.57-1.42c-.17-.4-.03-.78.61-.98Zm8.7-11.5c.3-2.83-.98-6.71-4.65-6.71-2.46 0-4.45 2.16-4.45 4.65s1.99 4.62 4.48 4.62c2.7 0 4.45-1.96 4.62-2.56M214.37 386.73l-2.7 1.28c-.3.13-.64.07-.74-.24l-.4-1.18c-.1-.27-.03-.54.1-.67l4.79-4.35h1.65c.34 0 .61.3.61.64v21.65c0 .34-.27.64-.61.64h-2.06c-.37 0-.64-.3-.64-.64z" class="cls-3"></path><path d="M189.55 0C132.47 0 78.11 11.82 28.71 33.16c-1.58 3.81-3.1 7.67-4.56 11.6C74.76 22.15 130.71 9.6 189.55 9.6s114.79 12.56 165.4 35.16a354 354 0 0 0-4.56-11.6C300.98 11.82 246.62 0 189.55 0" class="cls-4"></path><path d="M151.77 154.77c-.95.77-1.59 1.74-1.67 3.09-.23 3.66 2.88 4.56 2.88 4.56-.3 1.84.67 3.13.67 3.13 3.68-4.66 12.01-3.77 14.62 1.89.02.05.51 1.03.46 1.07-2.39 1.78-7.91 3.47-12.6 3.18-.33-.02-1.13-1.31-1.32-1.82-.49-1.28-.18-2.57-.18-2.57-2.32.77-3.88 4.92-3.88 7.28 0 6.38 5.77 8.39 5.77 8.39s-.16-3.22 2.06-5.49c2.17-2.21 7.69-4.59 11.98.68.23.28.7.62.57.93-1.71 4.14-8.97 8.27-11.19 8.79-7.13 1.65-6.9 7.77-6.9 7.77 2.86-3.55 6.93-3.06 6.93-3.06-7.38.76-7.46 7.35-7.43 8.39.06-3.46-2.08-4.51-2.08-4.51-.95 12.58-12.59 17.65-12.59 17.65 11.49.93 17.34-7.32 17.34-7.32 1.12-6.02 8.86-8.34 8.86-8.34-4.08-9.8 5.43-11.79 5.43-11.79-5.76 4.23-3.09 9.8-3.09 9.8 9.16 1.93 10.31-6.87 10.31-6.87 1.26 1.54 1.78 5.09.41 7.86-1.12 2.28-3.13 3.56-4.35 4.06-3.87 1.59-7.19-.44-7.19-.44-2.47-.13-5.3.74-7.46 3.87-1.74 2.53-.6 6.52-.6 6.52 2.6-3.73 9.89-5.1 9.89-5.1 11.78-1.46 15.66-4.82 15.66-4.82 0 1.81-2.32 4.64-2.32 4.64 18.88-3.57 18.1-21.97 18.1-21.97 1.51 7.57-2.42 14.28-2.42 14.28 3.93 5.05 8.07 6.69 8.07 6.69-.01-11.61 1.54-16.39 2.02-19.4.04-.24.19-.37.32-.37 1.09 0 1.38.84 1.38.84-3.61 9.06 4.79 13.03 4.79 13.03-6.67-7.5.06-14.05.06-14.05-.22 6.78 7.82 5.51 7.82 5.51-5.58-2.61-3.7-7.59-3.74-7.89-.99-7.33-3.12-10.43-3.79-11.26.53.57 2.04 1.96 4.09 2.06 6.47.3 7.32-5.9 6.96-7.12-.03-.1-1.91 1.35-5.13.67-3.97-.84-4.62-5.22-4.62-5.22-.48-.6-2.15-1.67-3.8-1.94 3.47-.08 4.46-1.86 4.46-1.86-4.31-.01-7.83-4.48-7.86-8.02-.02-1.89-.19-2.03-.37-2.28-2.5-3.41-6.05-1.35-6.14-4.22-.07-2.26 2.42-2.06 2.42-2.06-5.1-2.78-13.66-.87-13.66-.87 1.06-1.91 3.23-3.13 3.23-3.13-10.23-2.47-13.91 5.39-13.91 5.39-8.93-.48-15.92 6.91-15.92 6.91-7.63-.83-13.06 2.51-13.06 2.51 1.37.85 1.69 2.31 1.69 2.31Zm51.44 24.36s-.19-.26-.33-.65c-1.96-5.6 1.46-9.22 1.46-9.22 2.18-6.57-2.32-9.93-2.32-9.93 8.08 4.18 4.37 12.21 4.37 12.21-3.78 4.78.73 8.64.73 8.64-7.15 2.04-10.37-4.27-10.37-4.27-6.18 5.89-4.45 12.41-4.45 12.41-3.86.3-4.52-3.69-4.52-3.69.97 8.67-6.58 10.23-6.58 10.23s5.02-3.81 3.65-9.14c-1.77-6.86 2.12-9.58 2.12-9.58-.54 6.01 5.15 8.77 5.15 8.77-.19-7.99 5.69-14.16 5.69-14.16-.42 4.84 4.43 8.22 5.41 8.38Zm-15.79-32.74c-.84 2.1.95 2.73.95 2.73 7.04-.12 12.34 3.85 12.34 3.85-1.56 5.22-7.03 7.35-7.03 7.35.86 10.53-8.88 12.16-8.88 12.16 10.79-5.57 5.96-14.89 5.96-14.89 5.84-.46 7.85-5.12 7.85-5.12-4.9-3.43-10.54-1.27-10.54-1.27l-1.53.71c-1.08-3.43.89-5.52.89-5.52Zm-7.73 15.34s3.97-1 5.14 2.94c0 0 2.79-4.42 1.19-9.08 0 0 4.17 5.85-.74 12.5 0 0-.65-1.81-2.56-2.27 0 0-.69 6.9-6.43 8.61 0 0 6.26-4.02 3.4-12.69Zm-2.52-13.19s-1.67.57-2.17 1.57c0 0-1.35 1.97-3.51 1.82-3.57-.25-4.01-3.39-4.01-3.39h9.68ZM197.7 291.02c-7.06-3.26-6.68-8.9-5.88-11.2 2.01-5.77 7.21-6.8 10.04-6.23 4.04.81 5.41 3.06 5.41 3.06.18-3.53-.15-5.37-1.31-7.56-5.58-10.51-16.42-6.91-16.42-6.91 4.88-3.47 9.68-.83 9.68-.83-15.22-9.37-26.7-4.2-33.15 1.44-4.16 3.63-6.08 7.55-6.08 7.55 2.73-1.78 6.4-.73 6.4-.73-6.65 4.08-3.89 10.79-3.89 10.79 2.04-3.54 4.91-4.19 4.91-4.19.93 7.03 6.41 12.29 8.9 14.36 0 0 1.46 1.41 1.12 3.29-.23 1.3-.7 2.82-1.45 4.14-1.51 1.96-4.12 3.49-7.53 2.88 0 0-3.06-.68-4.96-6.32 0 0-1.23-6.13-9.86-4.83 0 0-4.07.62-7.83 4.35 0 0 5.23-1.09 6.43.44 0 0-2.48 5.27 5.91 5.54 1.22.04 3.66.37 3.31 2.45 0 0 .08 1.62-4.17.99-4.3-.63-4.76-4.07-11.56-3.95-2.01.03-6.13 2.08-6.97 4.73 0 0-3.55 2.79-2.96 7.09 0 0 1.12-3.86 5.55-3.37 0 0 5.46 4.67 11.27.08 0 0 2.01-2 7.87.56 0 0-1.49 1.34-3.94 1.79 0 0-6.38 1.07-8.13 6.59 0 0-1.75 5.53 3.21 8.17 0 0-1.18-3.29 2.57-6.18 0 0 7.79 4.3 9.43-4.31 0 0 .46-3.16 2.54-2.83 0 0 .55-.05.78 1.1 0 0-.24 5.16 6.33 5.76 0 0 1.7 2.48-.96 5.19 0 0 7.35.38 7.33-8.92 0 0 0-2.7-1.82-5.44 0 0 .86-2.78 3.53-4.96 1.37-1.99 8.7-7.9 13.59-8.04.12.03.18.04.18.04s-.11-.05-.27-.16l-1.04-1c-.25-.37-.42-.82-.38-1.34.29-4.35 4.28-3.06 4.28-3.06Z" class="cls-3"></path><path d="M274.68 260.9c-13.68-24.75-38.49-28.17-38.49-28.17-12.98-4.16-16.59-16.05-15.49-23.01 2.26-14.25 12.33-17.29 12.33-17.29 4.41-2.77 8.02-.25 9.51 1.7 1.42 1.86 1.2 3.69 1.2 3.69 3.07-3.6 1.1-7.34 1.1-7.34 9.03 1.7 8.81 9.22 8.81 9.22-.09 5.97-3.61 8.15-3.61 8.15-2 .21-4.53-.42-4.4-3.81.1-2.51 3.12-3.02 3.12-3.02-6.88-.56-7.77 6.26-7.77 6.26 0 7.89 7.31 7.59 7.31 7.59-1.87.67-2.54 1.17-3.49 2.39-7.34 9.35 2.41 15.48 2.41 15.48-3.56-3.53-2.92-7.18-1.43-9.48 1.14-1.77 2.9-2.64 2.9-2.64-2.19 4.23-1.24 7.82.31 10.16 2.16 3.26 6.06 4.62 8.12 4.49 9.09-.57 9.82-8.17 9.82-8.17-2.21 3.58-6.53 3.28-8.21 2.25-6.63-4.05-3.97-10.57-.61-10.28 2.18.19 2.87 2.54 2.87 2.54-.47-2.81 2-6.76 2.8-8.76 4.17-10.5-1.8-18.93-1.8-18.93 3.29-3.05-.64-5.25-.64-5.25l-1.63.34c1.61.04 1.89 1.43 1.79 2.12-.34 2.27-3.37-.69-3.37-.69-10.26-8.06-23.36-4.01-23.36-4.01 3.78-2.18 3.06-6.62 3.06-6.62-.69-3.76-4.49-5.37-6.42-5.23-1.11.08-2.04.34-2.79.71-4.46 2.24-3.23 7.28-3.23 7.28s1.09-1.18 1.33-1.24c.27-.06.54-.06.54-.06.18-.79.13-1.61 1.93-2.62 1.65-.92 3.6.16 4.22 1.04 2.46 3.49-2.06 6.08-2.06 6.08-16.52 10.9-15.73 25.8-15.73 25.8-1.03 22.71 23.95 28.58 23.95 28.58 18.56 6.08 27.25 21.2 27.25 21.2s3.1 3.98 3.81 8.41c.75 4.68-2.18 10.57-9.31 10.82-7.14.25-9.41-6.54-9.41-9.7 0-4.19 2.48-6.08 2.48-6.08-5.88-21.92-29.57-19.78-29.57-19.78-3.88-.47-5.9-.96-8.16-2.09-24.07-12.06-14.1-35.08-14.1-35.08-6.15-2.41-8.18-5.38-8.18-5.38-4.69 11.39-19.71 11.38-26.31 12.17-30.33 3.64-42.74 16.49-43.39 16.45 0 0-4.8-1.75-13 1.25 0 0-1.6-.07-3.27-.6 0 0-3.34-2.07-6.94.6 0 0-6.41-.2-4.6 5.27 0 0 1.53-3.14 4.47-2.4 0 0 2.34 3 7.54.33 0 0 1.73-.87 2.2.6 0 0 .67 1.8-1.2 2.27 0 0-6.54.33-7.07 4.2 0 0-5.2 3.4-1.47 6.61 0 0-.4-3.2 3.14-3.74 0 0 4.94 1.47 7.21-3.8 0 0 1.94-1.8 2.8-.4 0 0 1.13 1.13-.87 2.67 0 0-9.81 7.11-1.3 12.21 0 0-.8-3.2.5-4.4 0 0 4.8-1.6 4.6-5.91 0 0 .6-3.4 3.9-2 0 0 1.5.4 1.4 2.5 0 0-1 2 2.3 3.9 0 0 0 2.6-3.2 3.7 0 0 7.11 2.4 7.21-5.71 0 0 1.6-3.3.6-6.51 0 0-.13-2.99 4.07-3.39 0 0 3.65.52 4.66 2.68 0 0 2.39-5.73 10.16-9.57 16.35-8.07 26.11 1.31 26.11 1.31.8-9.47 8.65-14.37 8.65-14.37-6.9 8.46-7.88 18.08-7.88 18.08-10.02-7.42-18.6-5.48-18.6-5.48 1.72 18.03 26.83 21.53 26.83 21.53 10.18-.27 18.59 3.91 23.92 12.35 9.07 14.35 1.51 26.15 1.51 26.15 8.64-1.67 11.15 5.89 11.15 5.89 1.95 6.23 7.39 6.76 7.39 6.76-2.56 7.87 2.48 14.2 2.48 14.2q.285.33.54.69c.03 1.08 0 8.92-6.49 9.5 0 0-2.82.14-5.82-4.32 0 0-2.53-5.04-9.74-1.86 0 0-3.39 1.51-5.78 5.66 0 0 4.29-2.2 5.7-1.15 0 0-.9 5.18 6.46 3.41 1.07-.26 3.28-.55 3.47 1.35 0 0 .46 1.39-3.4 1.86-3.9.47-5.11-2.41-11.01-.69-1.74.51-4.84 3.27-4.94 5.78 0 0-2.42 3.27-.89 6.88 0 0 .05-3.63 4.03-4.26 0 0 5.87 2.77 9.83-2.62 0 0 1.27-2.22 6.99-1.39 0 0-.98 1.53-3 2.5 0 0-5.3 2.45-5.51 7.68 0 0-.21 5.23 4.74 6.35 0 0-1.81-2.58.77-6 0 0 7.81 1.88 7.18-6 0 0-.35-2.86 1.53-3.07 0 0 .47-.17.94.77 0 0 1.03 4.55 6.88 3.51 0 0 2.07 1.75.4 4.75 0 0 6.49-1.42 4.26-9.51 0 0-.64-2.36-2.88-4.3 0 0 .1-3.27 2.58-6.03.03.02.06.04.09.07 4.57-5.17 10.92-2.1 10.92-2.1s-1.83-.96-1.73-2.75c.15-2.87 2.91-3.05 2.91-3.05-7.39.1-6.48-6.54-6.48-6.54 1.26-4.62 5.33-4.62 5.33-4.62s-1.77-.47-2.28-1.91c-.64-1.79.45-3.15.45-3.15 2.39-.63 2.46-2.31 2.46-2.31-8.6-3.46-10.82-11.03-10.13-16.39.67-5.22 3.58-9.16 3.58-9.16 4.2-11.05-3.91-17.86-3.91-17.86l1.17-1.95c10.27 6.75 7.38 16.88 7.38 16.88-.32 12.01 13.31 17.13 19.98 14.8 8.19-2.87 11.67-9.14 11.55-14.82-.13-6.15-3.55-11.63-3.55-11.63ZM117.59 164.93s-5.9-5.09-10.15 2.82c0 0 2.4-1.37 3.67-.59 0 0 2.83 3.08 6.25 1.95 0 0 2.15-.26 2.04 2.01 0 0 .02 1.3-1.7 1.69 0 0-1.76-.66-2.55 2.43 0 0-2.96.95-4.57-1.38 0 0 .43 6.22 7 4.47 0 0 2.33.42 4.5-.51 1.09 1.96 3.17 3.42 3.17 3.42 4.8 2.45 2.48 8.64 2.48 8.64 3.3-.96 3.13-.81 5.16-.49 2.85.45 9.37 4.03 6.69 11.71-1.95 5.6-6.97 5.95-6.97 5.95s.18 1.73 1.1 2.73c1.21 1.31 2.91 1.49 2.91 1.49 9.74-.68 9.04-9.66 9.04-9.66-1.96-8.84 7.56-12.55 7.56-12.55-2.79.63-16.37-2.06-20.37-13.31h-.03c-.79-2.11-1.51-4.65-2.38-4.79 0 0 .33-4.27-3.94-10.21 0 0-.12-1.31-.25-2.77-.12-1.41-.49-3.69-3.44-4.48 0 0-1.47-3.86-5.47-1.93 0 0 2.47.07 2.54 2.61 0 0-1.11 2.61 3.4 5.03 0 0 1.09 1.2.01 1.91 0 0-1.3.94-2.1-.46 0 0-2.79-4.57-6.03-4.13 0 0-3.01-1.87-5.85 1.51 0 0 2.64-1.06 3.86 1.67 0 0 1.02 2.49 5.78 3.14 0 0 1.89 1.16.95 2.17 0 0-.66 1.17-2.35-.1ZM321.78 222.42c4.77 0 8.21 1.6 11.42 4.39.42.38.42.94.05 1.32l-2.08 2.12c-.33.43-.76.43-1.18 0-2.22-1.94-5.24-3.16-8.17-3.16-6.75 0-11.85 5.67-11.85 12.27s5.15 12.23 11.9 12.23c3.45 0 5.85-1.37 8.12-3.12.42-.33.85-.28 1.13-.05l2.17 2.12c.38.33.28.94-.05 1.27-3.21 3.12-7.27 4.58-11.47 4.58-9.44 0-17.04-7.51-17.04-16.95s7.6-17.04 17.04-17.04Z" class="cls-3"></path></g><!-- source: https://football-logos.cc --></svg>