<svg xmlns="http://www.w3.org/2000/svg" xml:space="preserve" viewBox="1 1 187.87 250"><metadata xmlns:fl="https://football-logos.cc/cyprus/anorthosis">dl1_880c9867baa056ba716aeecbe11b67bc231744aa9a6008bee86e3e8295877c64</metadata><!-- Source: https://football-logos.cc --><defs data-source="https://football-logos.cc"><clipPath id="a" clipPathUnits="userSpaceOnUse"><path d="M0 870.236h1218.896V0H0Z"></path></clipPath><clipPath id="b" clipPathUnits="userSpaceOnUse"><path d="m364.047 659.745 1.753-35.919c-68.883-263.112 210.641-476.272 210.641-476.272 296.023 236.442 210.642 476.105 210.642 476.105l-1.984 32.634c-143.268 1.377-209.921 77.054-209.921 77.054-76.632-79.031-211.131-73.602-211.131-73.602"></path></clipPath><clipPath id="c" clipPathUnits="userSpaceOnUse"><path d="M0 870.236h1218.896V0H0Z"></path></clipPath></defs><g clip-path="url(#a)" transform="matrix(.39622 0 0 -.39622 -133.09 300.615)"><path d="M0 0v32.074s140.783-6.908 223.441 76.734c0 0 67.806-76.004 222.337-77.461l1.486-32.075s92.067-253.326-223.021-509.427C224.243-510.155-69.216-273.614 0 0" style="fill:#fff;fill-opacity:1;fill-rule:nonzero;stroke:none" transform="translate(351.147 641.502)"></path><path d="M0 0c100.68 79.705 160.058 161.552 194.204 235.82 34.153 74.268 43.072 140.913 43.069 190.198-.002 53.579-10.52 86.66-10.612 86.954l-3.765-1.201 3.948.161-1.57 38.451-3.758.034c-78.309.709-133.029 20.168-168.177 39.347-17.571 9.591-30.247 19.119-38.5 26.214-4.126 3.546-7.147 6.485-9.12 8.518a77 77 0 0 0-2.182 2.332q-.352.396-.516.587l-.116.137-.023.027-.075-.063.076.063h-.001l-.075-.063.076.063-2.779 3.364-3.073-3.098c-17.635-17.783-37.63-31.49-58.235-42.048-30.904-15.839-63.181-24.573-90.712-29.325-27.529-4.754-50.302-5.531-62.176-5.53-2.88 0-5.118.045-6.629.09-.755.023-1.328.045-1.709.062l-.424.019-.101.006-.025.001-4.174.235v-39.584h3.951l-3.757 1.224c-.099-.306-9.938-30.616-9.94-80.993-.003-47.575 8.792-113.058 42.858-187.916C-159.979 169.228-100.655 85.03.209-.026l5.095 6.041C-94.763 90.408-153.291 173.623-186.849 247.359c-33.553 73.739-42.147 138.034-42.149 184.643 0 24.673 2.412 44.384 4.812 57.891 1.2 6.753 2.397 11.955 3.289 15.449.445 1.748.814 3.068 1.068 3.942q.192.656.292.974l.072.231.016.051.003.009-.917.297.917-.299v.002l-.917.297.917-.299.194.597v36.031h-3.951l-.223-3.945c.067-.003 3.409-.19 9.334-.19 16.291.003 52.099 1.405 93.039 11.976 20.469 5.288 42.223 12.871 63.452 23.748 21.227 10.877 41.932 25.052 60.243 43.516l-2.806 2.783-3.046-2.517c.251-.303 16.557-19.955 52.763-39.718 36.199-19.765 92.301-39.604 171.892-40.312l.035 3.95-3.948-.161 1.439-35.227.161-.508.545.174-.545-.173v-.001l.545.174-.545-.173c.069-.213 10.242-32.424 10.24-84.553-.003-48.34-8.732-113.791-42.347-186.896C153.403 166.018 94.895 85.217-4.905 6.195Z" style="fill:#2151a8;fill-opacity:1;fill-rule:nonzero;stroke:none" transform="translate(575.325 125.247)"></path><path d="M0 0c95.231 75.265 151.409 152.618 183.72 222.852 32.316 70.231 40.763 133.302 40.761 179.985-.002 50.858-10.007 82.284-10.094 82.562l-3.56-1.137 3.734.153-1.483 36.34-3.556.032c-74.128.669-125.927 19.058-159.199 37.181-16.634 9.064-28.632 18.068-36.444 24.772-3.906 3.352-6.765 6.129-8.633 8.05a72 72 0 0 0-2.065 2.204q-.334.374-.488.554l-.11.129-.022.026-.069-.057.07.057h-.001l-.069-.057.07.057-2.627 3.174-2.904-2.922c-16.694-16.805-35.621-29.758-55.128-39.736-29.255-14.967-59.81-23.222-85.871-27.712-26.06-4.493-47.617-5.227-58.858-5.226-2.725 0-4.844.043-6.274.085a148 148 0 0 0-2.019.077l-.096.005-.024.001-3.947.222v-37.409h3.737l-3.553 1.159c-.093-.289-9.456-29.097-9.457-76.935-.003-45.076 8.327-107.059 40.562-177.855C-151.667 159.833-95.542 80.256-.139-.06l4.814 5.717c-94.647 79.689-150.017 158.335-181.77 228.071-31.748 69.737-39.888 130.595-39.891 174.758 0 23.43 2.295 42.156 4.579 54.989 1.142 6.417 2.282 11.36 3.13 14.681.423 1.66.775 2.916 1.017 3.746q.183.624.277.926l.068.22.016.048.003.009-.865.28.865-.281v.001l-.865.28.865-.281.184.564v34.05h-3.737l-.21-3.731c.062-.003 3.225-.18 8.833-.18 15.42.003 49.316 1.328 88.069 11.317 19.376 4.997 39.969 12.163 60.064 22.441 20.093 10.278 39.692 23.674 57.026 41.123l-2.651 2.633-2.879-2.382c.238-.287 15.673-18.858 49.944-37.534 34.265-18.677 87.369-37.423 162.709-38.092l.033 3.737-3.733-.153 1.358-33.291.154-.481.003-.009c.214-.677 9.739-31.185 9.737-80.279-.002-45.79-8.271-107.73-40.078-176.861C145.117 156.845 89.764 80.481-4.635 5.863Z" style="fill:#2151a8;fill-opacity:1;fill-rule:nonzero;stroke:none" transform="translate(575.497 142.026)"></path></g><g clip-path="url(#b)" transform="matrix(.39622 0 0 -.39622 -133.09 300.615)" data-source="https://football-logos.cc"><path d="M423.1 147.313h-43.336v262.905H423.1ZM510.495 145.868h-43.336v263.736h43.336zM597.902 147.313h-43.348v262.905h43.348zM685.3 147.313h-43.336v262.905H685.3ZM772.697 149.614h-43.336V412.52h43.336z" style="fill:#2151a8;fill-opacity:1;fill-rule:nonzero;stroke:none"></path></g><g clip-path="url(#c)" transform="matrix(.39622 0 0 -.39622 -133.09 300.615)" data-source="https://football-logos.cc"><path d="m0 0 9.318 28.761 2.557 14.495-421.284-.001 5.395-17.006L-392.657.42z" style="fill:#2151a8;fill-opacity:1;fill-rule:nonzero;stroke:none" transform="translate(775.208 408.774)"></path><path d="M0 0s-2.004-1.641-3.971 1.03c0 0-7.965-.596-8.611 1.398 0 0-3.648.031-4.96 1.702 0 0-5.968.382-5.942 3.367 0 0-4.628 1.696-4.283 3.354 0 0-4.324-1.291-3.938 5.007 0 0-3.321-.636-4.964 1.369 0 0-4.637.703-4.937 4.354 0 0-3.654-.633-3.289 3.344 0 0-4.3 1.363-4.266 5.344 0 0-5.295 1.371-3.941 4.675 0 0-6.29 1.381-4.937 4.356 0 0-5.614 2.7-4.6 5.013 0 0-3.64 1.358-3.282 4.34 0 0-4.956 2.365-3.274 5.002 1.681 2.639.337.662.337.662s-5.636.377-3.609 4.673c2.029 4.295.339.66.339.66s-5.321-1.609-5.925 5.359c0 0-4.624 2.36-4.584 7.004 0 0-3.322-.635-3.274 5.003 0 0-18.895 1.154-20.182 5.809 0 0-1.636 2.668.351 2.319 0 0-9.577 4.726-9.902 5.723-.323.997.36 3.314 2.682 3.293 0 0-13.526 8.407-13.848 9.736 0 0-.322.998 2.008 1.974l-.978 1.998s-12.215 6.736-11.865 9.057c.353 2.318 3.002 1.964 6.968.272 0 0 .673.989-.974 2.329-1.648 1.342-12.204 8.064-13.474 14.708 0 0 7.62-1.059 16.197-6.44 0 0 5.955-1.708 4.312-.036-1.644 1.673-16.806 12.747-16.09 19.043 0 0 11.548-7.065 18.488-10.108 0 0 2.319-.352 1.334.984s-13.44 18.688-10.693 29.608c0 0 1.704 5.625 3.99 1.294 0 0 10.115-19.654 13.095-20.343 0 0-.268 7.628-.919 8.962 0 0 .355 2.651 2.654-.023 2.297-2.673 18.742-19.062 27.986-24.117 0 0 15.835-10.083 19.798-11.778 3.967-1.691 41.941-21.584 46.226-24.604 4.287-3.02 16.184-8.098 12.126-17.017 0 0-10.704-10.855-3.786-16.221 0 0 7.219-9.347 18.916 1.167 0 0-.696 3.141 1.758 6.667 0 0 1.692 4.072 1.813 7.576 0 0 .584 5.384 1.841 10.492 0 0 1.685 8.069-4.651 12.792 0 0-1.975.511-4.624.263 0 0-1.701.778-.843 1.489.861.71 4.704 3.419 6.635 3.762 1.938.344 3.194.603 4.271.369 0 0 1.046 1.832 1.765 2.049.722.219 8.957 1.362 13.84-5.372 0 0 4.586-4.664 4.485-11.487 0 0 .366-20.168.585-20.751.22-.586 1.955-2.983 1.718-9.403 0 0 5.131-9.427 13.776-1.778 0 0 7.282 5.775 6.829 10.945 0 0 .336 2.468-.91 3.87-1.241 1.402-5.617 4.942-4.816 9.381S56.413 94.1 62.419 98.09c0 0 5.185 3.523 6.62 4.346 1.438.82 36.586 16.123 39.094 17.293 2.511 1.169 28.217 12.741 48.126 29.363 0 0 9.639 13.019 10.701 11.94 0 0 2.029.219-.794-9.285 0 0-.255-2.021 2.633 1.527 2.89 3.549 6.746 8.994 7.478 10.893.73 1.9 2.555 6.648 3.152 6.763.596.114 2.719-2.525 2.682-6.93 0 0-.704-12.619-10.32-23.019 0 0-9.729-9.683 1.75-4.3 0 0 8.96 3.138 15.433 7.846 0 0 4.437 3.654 3.215.211 0 0-4.587-6.988-18.604-16.873 0 0-2.164-2.363 1.061-1.32 3.226 1.046 14.584 5.952 16.488 6.054 1.905.103 1.785.104 1.54-.727-.245-.832-1.602-6.657-12.248-11.924 0 0-8.489-4.335-6.827-4.587 1.664-.253 7.154 1.487 7.869 1.122 0 0 .948-.604-1.692-3.082 0 0-3.497-4.971-11.62-7.76 0 0-5.024-2.578-.373-1.904 4.652.675 3.695.327 3.573-.148-.122-.476-5.302-6.745-15.81-10.228 0 0-.843-1.183.345-1.55s5.823-1.599-3.86-5.566c0 0-6.807-2.323-5.737-2.69 1.067-.367 2.258-.257 2.375-.735.115-.478-.253-1.665-3.842-3.301-3.583-1.638-4.421-1.988-6.21-2.21-1.787-.225-12.037-.971-12.633-.966-.594.005-.514-4.164-3.367-4.02 0 0 2.357-2.877-3.865-6.279 0 0 3.563-.863-3.145-5.57 0 0 1.894-1.684-2.78-4.861 0 0 2.353-3.354-4.575-5.676 0 0-.514-4.643-4.452-5.442 0 0 .079-4.764-4.806-4.961 0 0 2.929-5.386-5.293-6.148 0 0-.401-.688.241-1.627q.093-.136.22-.283c.945-1.08-.739-2.614-3.834-2.827 0 0 .427-5.243-4.086-4.253 0 0 .203-4.408-3.722-3.66 0 0-.508-3.447-4.909-2.814 0 0-.035-4.526-5.389-3.647 0 0-.033-3.811-3.957-2.825 0 0-.515-4.998-5.745-3.762 0 0-1.237-5.111-5.028-2.696 0 0-.032-4.049-5.024-2.697 0 0-2.425-4.861-7.053-2.441 0 0-5.745-3.167-7.756-1.244-2.007 1.923-11.088-15.032-1.134-21.427 0 0-20.549 7.677-33.127-1.031C3.398-23.848 8.664-.193 0 0" style="fill:#2151a8;fill-opacity:1;fill-rule:nonzero;stroke:none" transform="translate(551.988 480.716)"></path><path d="M0 0h3.729a78 78 0 0 1-1.606 4.811A148 148 0 0 1 .047 10 194 194 0 0 1-3.774.096Zm-8.294-1.561q1.132 2.64 2.855 7.052a501 501 0 0 1 2.878 7.524q1.156 3.114 2.477 6.698l2.359-.132 2.359.132a1380 1380 0 0 1 6.181-16.935 412 412 0 0 1 6.039-15.282l-4.529.141-4.624-.141-.991 3.113-1.839 5.709q-1.651 0-3.351.047-1.698.046-3.35.096l-3.302-.143Q-6.501-7.926-8.2-12.504l-3.066.141-1.747-.141z" style="fill:#fff;fill-opacity:1;fill-rule:nonzero;stroke:none" transform="translate(433.893 428.397)"></path><path d="M0 0q0 2.687-.119 6.84-.117 4.152-.117 4.813l-.143 4.906 2.977-.189 3.113.258A349 349 0 0 1 14.439 5.99a283 283 0 0 1 9.012-10.051v8.73q0 2.03-.161 6.182-.16 4.152-.16 5.708.988-.093 1.459-.142.471-.047.988-.047.754 0 1.226.052.47.052 1.365.206a45 45 0 0 1-.378-3.235 42 42 0 0 1-.141-3.424q0-4.674-.046-9.397l-.091-9.398q0-1.275.071-2.644.069-1.37.255-3.635-.661.095-1.51.168a17 17 0 0 1-1.272.072q-.898 0-1.488-.071a95 95 0 0 1-1.297-.164 629 629 0 0 1-8.869 10.498A465 465 0 0 1 4.061 5.896V-6.895l.247-8.21q-.472.045-1.112.142a8 8 0 0 1-1.207.098q-.853 0-1.372-.071A63 63 0 0 1-.52-15.1q.284 3.584.401 7.075Q0-4.531 0 0" style="fill:#fff;fill-opacity:1;fill-rule:nonzero;stroke:none" transform="translate(457.02 430.993)"></path><path d="M0 0c3.275 0 5.667 1.373 7.179 4.127q2.266 4.127 2.266 9.457 0 5.142-2.266 9.15-2.268 4.011-7.036 4.01-4.96.001-7.226-4.01-2.268-4.009-2.268-9.386 0-5.189 2.268-9.269Q-4.817-.001 0 0m.518 29.766q7.693 0 12.482-4.058 4.79-4.057 4.791-11.649 0-8.21-4.884-12.621Q8.021-2.972-.331-2.971q-8.117 0-12.767 4.15-4.648 4.15-4.648 12.172 0 7.875 5.049 12.146 5.05 4.269 13.215 4.269" style="fill:#fff;fill-opacity:1;fill-rule:nonzero;stroke:none" transform="translate(510.526 418.345)"></path><path d="M0 0q0 2.454-1.268 4.058t-3.704 1.604h-1.913V-6.224q3.442 0 5.165 1.461Q0-3.302 0 0m-6.885-15.898q0-1.794.048-2.434.047-.635.422-4.416-1.028 0-2.57.122-1.541.12-1.774.119-1.028 0-2.571-.119-1.544-.122-1.775-.122.33 3.832.451 7.239.117 3.407.117 8.47 0 2.981-.285 8.943-.283 5.962-.283 7.051.707 0 2.387-.136a63 63 0 0 1 1.819-.136l6.131.272h1.696q4.906 0 7.876-1.932Q7.776 5.091 7.775.426q0-3.96-2.49-6.623T.278-9.14q-2.512-.285-4.127-.33a106 106 0 0 0-3.036-.049z" style="fill:#fff;fill-opacity:1;fill-rule:nonzero;stroke:none" transform="translate(551.543 438.635)"></path><path d="M0 0q1.51 0 3.804.115 2.288.119 2.619.119L6.411.47l-.019-2.269v-2.363l.031.15-6.514.246-6.466-.246-.008 2.123V.234q1.465 0 3.802-.117Q-.423-.001 0 0m-.227-15.379q4.912-.002 7.23 4.127 2.312 4.127 2.313 9.457.002 5.142-2.266 9.15-2.27 4.011-7.042 4.01-4.959.001-7.228-4.01-2.268-4.009-2.268-9.386.001-5.14 2.242-9.242Q-5-15.38-.227-15.379M-17.51 2.027q1.18 5.993 6.281 9.175c3.4 2.124 7.269 3.185 11.616 3.185q7.647 0 12.488-4.058 4.84-4.056 4.84-11.602.002-8.163-4.936-12.62-4.93-4.458-13.243-4.457-8.121 0-12.774 4.15-4.65 4.15-4.651 12.172 0 .895.051 1.508.046.614.328 2.547" style="fill:#fff;fill-opacity:1;fill-rule:nonzero;stroke:none" transform="translate(583.33 433.724)"></path><path d="M0 0a4 4 0 0 1-.094-.871v-2.285q0-.565.14-1.225l-7.498.149-8.111-.149v3.492q3.342 2.029 4.519 5.044 1.174 3.02 1.175 7.548 0 5.092-2.311 9.102t-7.074 4.009q-4.953 0-7.17-4.126-2.215-4.127-2.215-9.553.001-4.008 1.297-7.168 1.303-3.161 4.324-4.858v-3.49l-8.119.149-7.508-.149.082 2.736L-38.645 0a54 54 0 0 1 7.728-.567q-3.104 1.839-4.587 4.954c-.985 2.076-1.482 4.404-1.482 6.982 0 5.19 1.709 9.233 5.118 12.126q5.117 4.34 13.134 4.341 7.639 0 12.451-4.01 4.81-4.011 4.81-11.512 0-4.342-1.628-7.453-1.626-3.113-5.21-5.425Q-4.206-.564 0 0" style="fill:#fff;fill-opacity:1;fill-rule:nonzero;stroke:none" transform="translate(645.857 420.274)"></path><path d="m0 0 .143-2.081q-1.23.001-3.728.149-2.502.149-3.869.148h-5.38a280 280 0 0 1 3.792-5.049 357 357 0 0 1 3.84-4.912 272 272 0 0 1-6.502-6.94l-3.305-3.826h8.143q1.412 0 4.33.198 2.916.197 4.374.197l-.233-3.451q0-1.796.233-3.827l-11.7.148-14.91-.148v1.93a154 154 0 0 1 8.255 9.298l3.538 4.436a130 130 0 0 1-4.834 6.674A238 238 0 0 1-23.499 0v2.253q2.124 0 6.37-.135 4.246-.137 6.418-.137 2.69 0 6.747.137 4.056.135 4.107.135z" style="fill:#fff;fill-opacity:1;fill-rule:nonzero;stroke:none" transform="translate(676.067 445.288)"></path><path d="M0 0q-.002 7.035-.12 10.647a129 129 0 0 1-.451 7.344q1.04-.113 2.29-.231a22 22 0 0 1 2.004-.118q.85 0 2.429.164 1.583.166 2.052.165a146 146 0 0 1-.438-7.314 268 268 0 0 1-.116-8.543q.001-4.717.119-8.28.12-3.564.453-7.527c-.537 0-1.451.029-2.743.096q-1.938.097-1.986.098l-4.064-.194c.187 2.013.332 4.279.427 6.798Q-.001-3.117 0 0" style="fill:#fff;fill-opacity:1;fill-rule:nonzero;stroke:none" transform="translate(686.625 429.581)"></path><path d="m0 0 .141-2.081q-1.228.001-3.727.149-2.501.149-3.869.148h-5.379a296 296 0 0 1 3.791-5.049q1.814-2.363 3.842-4.912a274 274 0 0 1-6.502-6.94l-3.305-3.826h8.141q1.411 0 4.331.198 2.916.197 4.376.197l-.236-3.451q.001-1.796.236-3.827l-11.699.148-14.912-.148v1.93a156 156 0 0 1 8.256 9.298l3.536 4.436a128 128 0 0 1-4.834 6.674A237 237 0 0 1-23.498 0v2.253q2.124 0 6.369-.135 4.248-.137 6.418-.137 2.69 0 6.747.137 4.056.135 4.105.135z" style="fill:#fff;fill-opacity:1;fill-rule:nonzero;stroke:none" transform="translate(726.978 445.288)"></path><path d="m0 0 8.841-27.743 29.113-.168-23.657-16.976 8.843-27.745L-.32-55.381l-23.658-16.977 9.157 27.641-23.453 17.248 29.114-.17z" style="fill:#e4b91c;fill-opacity:1;fill-rule:nonzero;stroke:none" transform="translate(575.452 704.902)"></path><path d="m0 0 135.026-.059s-16.834 15.38-11.128 42.298c0 0 .285 11.187-6.563 15.731 0 0 7.42-16.779-2.281-26.568 0 0-9.416-8.391-7.989-14.333 0 0-7.705 7.343-.857 17.479 0 0 2.569 7.342-1.141 11.187 0 0-2.283 6.293-9.987 6.642 0 0 5.134-2.447 3.138-9.089s-4.85-13.284-8.845-9.439c0 0-5.421 3.145-3.423 9.439 0 0-9.986-2.448-4.281-15.032 0 0 4.279-16.08-7.133-9.788 0 0 5.421 21.675-6.562 24.47 0 0 5.135-5.593 2.853-12.584 0 0-3.424-9.09-6.562-.699 0 0-.855 3.495.857 6.64 0 0-5.42-2.095-4.566-9.087.855-6.993-5.136-11.887-7.134-5.594-1.997 6.294-1.712 17.131-14.837 21.324 0 0 12.555-27.966-7.989-25.519-20.543 2.447-15.692 18.527-9.7 17.828 0 0-11.041 4.173-19.418-12.581 0 0-1.724-2.71-2.838-6.644C-2.45 12.175 4.188 7.883 0 0" style="fill:#ef2e31;fill-opacity:1;fill-rule:nonzero;stroke:none" transform="translate(552.514 453.3)"></path><path d="m0 0-135.026-.059s16.834 15.38 11.128 42.298c0 0-.286 11.187 6.562 15.731 0 0-7.419-16.779 2.282-26.568 0 0 9.415-8.391 7.989-14.333 0 0 7.704 7.343.856 17.479 0 0-2.568 7.342 1.142 11.187 0 0 2.283 6.293 9.986 6.642 0 0-5.134-2.447-3.138-9.089s4.85-13.284 8.845-9.439c0 0 5.422 3.145 3.424 9.439 0 0 9.986-2.448 4.28-15.032 0 0-4.279-16.08 7.133-9.788 0 0-5.421 21.675 6.563 24.47 0 0-5.136-5.593-2.854-12.584 0 0 3.424-9.09 6.563-.699 0 0 .854 3.495-.857 6.64 0 0 5.42-2.095 4.565-9.087-.854-6.993 5.136-11.887 7.134-5.594s1.712 17.131 14.837 21.324c0 0-12.554-27.966 7.989-25.519 20.544 2.447 15.693 18.527 9.701 17.828 0 0 11.041 4.173 19.417-12.581 0 0 1.724-2.71 2.838-6.644C2.449 12.175-4.19 7.883 0 0" style="fill:#ef2e31;fill-opacity:1;fill-rule:nonzero;stroke:none" transform="translate(595.048 453.3)"></path><path d="M0 0q0 .938-.119 2.875a53 53 0 0 0-.118 2.998q-2.122-.937-3.28-1.529-1.153-.596-3.838-2.094L-9.92 6.188q10.623 4.254 18.746 8.38l1.198-.56-.258-21.373-.013.498-.002-11.758.002.561q0-1.686.236-5.094.238-3.402.238-4.592l-5.4.24q-.945 0-3.109-.123c-1.443-.074-2.211-.117-2.29-.117q-.001 5.753.284 16.187C-.093-4.602 0-.75 0 0" style="fill:#2151a8;fill-opacity:1;fill-rule:nonzero;stroke:none" transform="translate(442.13 383.933)"></path><path d="M0 0q2.97 0 3.89 2.502.914 2.5.914 6.064c0 2.547-.292 4.732-.884 6.566q-.887 2.754-3.857 2.753-3.032-.002-3.888-2.625c-.567-1.752-.854-3.965-.854-6.627q0-3.505.919-6.07Q-2.84 0 0 0m-3.563-4.355q-5.123 0-8.213 3.22-3.094 3.215-3.093 8.4c0 4.284 1.377 7.68 4.124 10.18 2.752 2.497 6.312 3.748 10.688 3.748q7.807.002 11.683-4.908 3.879-4.908 3.878-12.907-.001-10.07-5.47-17.098c-3.643-4.69-8.741-7.034-15.277-7.034-1.5 0-2.781.129-3.844.377a83 83 0 0 0-3.784 1c.252 1.006.449 1.982.597 2.942.146.964.215 1.945.215 2.949l.441.123q1.126-1.692 2.749-2.636c1.081-.626 2.291-.94 3.62-.94q5.374 0 7.714 4.878Q4.804-7.185 4.804-1.182c-.958-1.121-2.165-1.925-3.621-2.422-1.455-.5-3.04-.751-4.746-.751" style="fill:#2151a8;fill-opacity:1;fill-rule:nonzero;stroke:none" transform="translate(532.367 376.937)"></path><path d="M0 0c0 .627-.036 1.58-.114 2.873q-.126 1.94-.127 3.002c-1.413-.626-2.509-1.137-3.28-1.534A140 140 0 0 1-7.36 2.248l-2.563 3.94q10.628 4.255 18.75 8.38l1.196-.56-.261-21.375-.006.498-.007-11.758.007.563q0-1.686.234-5.092.233-3.407.233-4.592l-5.397.236q-.943-.001-3.107-.119c-1.444-.076-2.205-.117-2.294-.117q0 5.75.286 16.185Q0-1.12 0 0" style="fill:#2151a8;fill-opacity:1;fill-rule:nonzero;stroke:none" transform="translate(617.853 383.93)"></path><path d="M0 0c0 .624-.043 1.58-.12 2.873a49 49 0 0 0-.119 3.002 75 75 0 0 1-3.282-1.531c-.773-.396-2.048-1.094-3.846-2.096l-2.556 3.94c7.078 2.833 13.331 5.626 18.743 8.378l1.199-.564-.257-21.369-.015.497v-11.755.557q.002-1.682.234-5.09.243-3.403.241-4.594l-5.396.238q-.95 0-3.114-.119c-1.443-.074-2.211-.119-2.293-.119 0 3.836.102 9.231.287 16.19C-.103-4.604 0-.75 0 0" style="fill:#2151a8;fill-opacity:1;fill-rule:nonzero;stroke:none" transform="translate(703.735 383.935)"></path></g><!-- source: https://football-logos.cc --></svg>