<svg xmlns="http://www.w3.org/2000/svg" viewBox="86.83 63.19 1638.42 1638.42"><metadata xmlns:fl="https://football-logos.cc/venezuela/academia-anzoategui">dl1_7ee9b18364421713f2c1aba4f01d29f51e2e5954cb98549d5242e52a12501de1</metadata><!-- Source: https://football-logos.cc --><path fill="#39afe2" fill-rule="evenodd" d="M1725.25 882.4a819.21 819.21 0 0 1-819.21 819.21A819.21 819.21 0 0 1 86.83 882.4 819.21 819.21 0 0 1 906.04 63.19a819.21 819.21 0 0 1 819.21 819.21m-32.99.02A786.23 786.23 0 0 0 906.03 96.19 786.23 786.23 0 0 0 119.8 882.42a786.23 786.23 0 0 0 786.23 786.23 786.23 786.23 0 0 0 786.23-786.23" data-source="https://football-logos.cc"></path><path fill="#4c4c4c" fill-rule="evenodd" d="M1692.26 882.42a786.23 786.23 0 0 1-786.23 786.23A786.23 786.23 0 0 1 119.8 882.42 786.23 786.23 0 0 1 906.03 96.19a786.23 786.23 0 0 1 786.23 786.23m-22.84-.01a763.39 763.39 0 0 0-763.39-763.39 763.39 763.39 0 0 0-763.39 763.39 763.39 763.39 0 0 0 763.39 763.39 763.39 763.39 0 0 0 763.39-763.39"></path><path fill="#39afe2" fill-rule="evenodd" d="M1669.42 882.41a763.39 763.39 0 0 1-763.39 763.39 763.39 763.39 0 0 1-763.39-763.39 763.39 763.39 0 0 1 763.39-763.39 763.39 763.39 0 0 1 763.39 763.39m-24.11 0a739.28 739.28 0 0 0-739.28-739.28 739.28 739.28 0 0 0-739.28 739.28 739.28 739.28 0 0 0 739.28 739.28 739.28 739.28 0 0 0 739.28-739.28"></path><path fill="#4c4c4c" fill-rule="evenodd" d="M1645.31 882.41a739.28 739.28 0 0 1-739.28 739.28 739.28 739.28 0 0 1-739.28-739.28 739.28 739.28 0 0 1 739.28-739.28 739.28 739.28 0 0 1 739.28 739.28M873.02 191.448a.51.51-67.989 0 0 .389-.227l13.78-20.837a.51.51-37.337 0 0-.462-.791l-18.902 1.345a.51.51 22.206 0 0-.43.301l-9.148 20.514a.51.51-3.875 0 0 .502.716zm-4.675 7.222q-4.906.347-11.967.827a.818.813-88.879 0 0-.758.733q-3.85 38.49-12.79 126.76-.21 2.04-.17 2.73a.632.631-4.022 0 0 .68.59l18.43-1.31a1.154 1.143-89.98 0 0 1.06-1.07l2.07-28.28a.514.512 1.482 0 1 .493-.467q4.632-.13 10.04-.513 5.408-.384 10.012-.908a.514.512-9.591 0 1 .554.392l6.039 27.706a1.154 1.143 81.871 0 0 1.2.91l18.431-1.303a.632.631-4.086 0 0 .589-.68q-.057-.689-.553-2.679-21.301-86.126-30.542-123.689a.818.813 80.771 0 0-.854-.619q-7.058.522-11.964.87m107.969 133.633q8.273 1.048 9.753 1.101a.259.257 4.472 0 0 .263-.224l13.73-108.66a.655.655-50.859 0 1 .73-.57l19.33 2.45a.695.683-82.82 0 0 .76-.6l2.23-17.62a.776.774 5.083 0 0-.727-.867c-5.75-.325-14.401-1.602-29.791-3.551s-24.086-2.869-29.736-3.987a.776.774 9.352 0 0-.92.658l-2.233 17.62a.695.683-82.746 0 0 .587.77l19.33 2.446a.655.655 27.116 0 1 .565.734l-13.789 108.653a.259.257 9.962 0 0 .199.282q1.446.318 9.719 1.365m-205.396-94.314a29.69 29.69 0 0 0-36.544-20.676l-4.086 1.133a29.69 29.69 0 0 0-20.676 36.545l19.69 71a29.69 29.69 0 0 0 36.544 20.676l4.086-1.133a29.69 29.69 0 0 0 20.676-36.545zm375.252 4.261-51.3-17.41a.642.628-64.386 0 0-.74.27q-.92 1.49-1.59 3.47-22.22 65.61-40.11 118.06a.636.626-71.422 0 0 .39.8l51.03 17.32a1.069 1.059 18.691 0 0 1.35-.66l5.16-15.23a1.524 1.521-71.151 0 0-.95-1.94l-31.45-10.67a.645.642 18.865 0 1-.4-.81l11.73-34.56a.61.601-70.822 0 1 .77-.38l25.48 8.64a1.059 1.056 18.86 0 0 1.35-.66l5.23-15.42a1.28 1.28 4.108 0 0-.8-1.62l-24.7-8.39a1.189 1.18 18.664 0 1-.75-1.5l10.94-32.22a.699.696 18.564 0 1 .89-.44l32.44 11.01a.408.398-71.345 0 0 .51-.26l5.75-16.93a.37.37-86.487 0 0-.23-.47m-510.91 9.66L586.6 275.6a.997.984-26.176 0 0-.46 1.32l7.41 15.2a.895.886 64.152 0 0 1.19.42l29.36-14.3a.536.536 77.979 0 1 .77.5q-.08 2.13.05 3.57 4.36 47.19 8.4 89.12c.22 2.37.02 5.6.77 7.3q2.4 5.45 6.61 13.55a1.141 1.123-26.442 0 0 1.5.49l50.29-24.49a.689.684-25.81 0 0 .32-.91c-1.64-3.52-4.55-8.43-7.12-14.53q-.77-1.82-2.72-.86-12.76 6.27-28.82 14.26a1.239 1.235-12.425 0 1-1.79-1.14q.02-1.02-.46-6.09-6.52-68.34-8.56-91.26-.14-1.59-1.25-3.86-3.36-6.87-5.99-11.72a.64.632-27.399 0 0-.84-.26m577.29 108.33q-.18.26-.95 1.55-9.21 15.32-11.2 18.35c-1.96 2.98-5.84 7.13-9.65 6.89q-6.42-.41-9.95-5.8c-2.77-4.23-.88-8.89 1.39-12.79q20.18-34.6 36.46-62.22 1.67-2.85 5.42-4.7c4.43-2.2 9.48.3 12.41 3.42 5.85 6.22-.67 16.44-4.4 21.96a.853.851-59.238 0 0 .31 1.23l15.68 8.24a.972.971 31.131 0 0 1.26-.31q4.06-5.97 6.73-12.18c3.47-8.08 4.29-18.21-.65-25.49q-8.63-12.7-22.83-16.35c-14.04-3.6-25.07 3.24-32 15.03q-35.93 61.16-36.18 61.61c-6.06 11.31-8.09 23.89.5 33.95q9.26 10.82 23.46 13.38 5.98 1.08 10.75-.34c7.67-2.28 13.97-7.69 18.02-14.55q4.96-8.4 21.54-36.76a1.41 1.41 8.006 0 0-.51-1.93l-25.07-14.47a.582.573-60.135 0 0-.79.22l-8.42 14.58a1.206 1.201 30.43 0 0 .43 1.64l8 4.78a.749.738 32.677 0 1 .24 1.06m-699.6 17.38a.158.157-.187 0 1 .22-.22l70.26 51.52a.571.563-45.421 0 0 .68-.01l14.95-11.32a.6.6 26.523 0 0 .12-.84l-77.35-102.21a.936.936-51.322 0 0-1.31-.19l-13.7 10.37a1 .998 52.84 0 0-.19 1.39l44.16 58.34a.319.317 89.535 0 1-.44.45l-62.23-45.64a.408.405 43.641 0 0-.49.01l-17.11 12.95a.614.606 53.417 0 0-.12.85l77.48 102.38a.65.65-34.994 0 0 .91.13l14.12-10.69a.75.75-18.984 0 0 .15-1.05zm817.97-29.08q-27.06 30.15-67.37 75.5-1.86 2.08-3.79 5.37-8.95 15.21.24 29.3c5.94 9.12 16.99 16.67 28.02 16.62 9.55-.05 17.64-6.68 23.67-13.46q8.05-9.08 64.6-72.45a1.07 1.063 41.747 0 0-.09-1.5l-13.82-12.24a.702.701 41.46 0 0-.98.06q-41.62 46.63-65.01 72.89c-4.6 5.16-10.4 9.01-16.86 3.56-8.31-7.01-2.77-14.01 3.37-20.64q.79-.86 62.48-70.03a.828.814-48.453 0 0-.06-1.16l-13.42-11.88a.694.694-22.096 0 0-.98.06m63.57 533.86a488.46 488.46 0 0 0-488.46-488.46A488.46 488.46 0 0 0 417.57 882.4a488.46 488.46 0 0 0 488.46 488.46 488.46 488.46 0 0 0 488.46-488.46M512.113 488.719a.71.71-78.636 0 0-.156-1.073l-110.468-68.829a.71.71 23.783 0 0-.907.132l-16.087 18.165a.71.71-45.15 0 0-.024.912l80.973 101.892a.71.71 63.622 0 0 1.087.029l12.433-14.039a.71.71-56.357 0 0 .012-.927l-18.222-21.712a.71.71 80.367 0 1 .012-.927l13.105-14.791a.71.71 83.096 0 1 .923-.121l23.742 15.7a.71.71 27.364 0 0 .923-.122zm914.299-46.08a.47.47 0 0 0-.662-.059L1327 525.148a.47.47 0 0 0-.059.662l12.367 14.791a.47.47 0 0 0 .662.059l98.75-82.568a.47.47 0 0 0 .059-.662zM1273.55 1306.99l87.86 93.06a1.068 1.061-43.299 0 0 1.51.04q10.99-10.48 18.94-17.92c8.92-8.33 15.46-18.35 12.49-30.65q-1.53-6.32-6.08-12.48-7.39-10-17.15-16.49-10.37-6.9-21.76-2.08-.43.18-.7-.29-.16-.28-.02-.66 3.97-10.39-2.14-19.83c-5.99-9.27-14.55-17.69-25.14-20.98-9.77-3.05-20.23 1.51-27.29 8.12q-12.8 11.99-20.49 19.26a.636.63 47.213 0 0-.03.9m-767.652 44.816a.77.77 38.144 0 0-.024-1.089l-18.858-18.074a.77.77 80.586 0 1-.023-1.089l23.694-24.708a.77.77-75.513 0 1 1.089-.023l23.808 22.814a.77.77 28.287 0 0 1.089-.023l11.894-12.418a.77.77-53.879 0 0-.023-1.089l-38.378-36.774a.77.77 81.319 0 0-1.089.023l-88.614 92.458a.77.77 38.586 0 0 .023 1.089l13.478 12.905a.77.77 46.195 0 0 1.089-.024l37.934-39.588a.77.77 79.122 0 1 1.089-.023l18.848 18.064a.77.77-36.26 0 0 1.089-.023zm97.98-5.223a.65.65 48.705 0 0 .542.082l24.139-7.1a.65.65 42.824 0 0 .175-1.166l-15.885-10.504a.65.65 66.113 0 0-.643-.043l-20.082 9.78a.65.65 51.378 0 0-.075 1.126zm592.752 16.806q22.937 33.424 57.53 83.317 1.584 2.299 4.328 4.952 12.68 12.29 28.549 6.676c10.269-3.625 20.217-12.59 22.769-23.327 2.204-9.299-2.336-18.729-7.506-26.192q-6.932-9.969-55.217-79.904a1.07 1.064-34.621 0 0-1.48-.266l-15.162 10.552a.702.701-34.908 0 0-.173.967q35.529 51.469 55.549 80.407c3.932 5.69 6.308 12.238-.515 17.234-8.776 6.428-14.277-.61-19.276-8.144q-.65-.971-53.364-77.272a.828.814 55.179 0 0-1.142-.216l-14.717 10.249a.695.695-39.933 0 0-.173.967m-626.116-31.065q-23.487 33.071-58.426 82.769-1.613 2.28-3.159 5.772-7.172 16.149 3.573 29.119c6.946 8.396 18.797 14.649 29.763 13.345 9.495-1.137 16.788-8.652 22.015-16.083q6.974-9.948 56.017-79.419a1.071 1.064 35.221 0 0-.261-1.482l-15.139-10.603a.703.702 34.935 0 0-.968.171q-36.096 51.121-56.375 79.904c-3.989 5.656-9.321 10.146-16.367 5.459-9.064-6.027-4.349-13.621 1.004-20.915q.688-.945 54.184-76.77a.829.815-54.978 0 0-.192-1.147l-14.701-10.291a.695.695 17.506 0 0-.968.171m124.477 70.104a.71.71 58.669 0 0-.36-.937l-55.212-24.622a.71.71-23.045 0 0-.938.36l-7.202 16.152a.71.71-7.949 0 0 .36.938l17.782 7.922a.71.71 69.948 0 1 .36.938l-44.452 99.643a.71.71 44.133 0 0 .359.937l17.124 7.642a.71.71 4.982 0 0 .937-.359l44.452-99.644a.71.71 63.764 0 1 .937-.359l17.714 7.892a.71.71 59.092 0 0 .937-.359zm498.225 86.222a.73.73-77.153 0 1-.976-.336l-47.79-98.138a.73.73-26.266 0 0-.976-.336l-16.838 8.2a.73.73-66.843 0 0-.336.976l56.13 115.268a.73.73 74.771 0 0 .976.336l46.137-22.47a.73.73-3.247 0 0 .337-.976l-7.71-15.818a.73.73-37.131 0 0-.976-.336zm-472.162-75.887-34.744 123.169a1.068 1.061 15.807 0 0 .741 1.316q14.635 4.05 25.101 7.052c11.727 3.377 23.683 3.844 32.712-5.019q4.638-4.558 7.588-11.625 4.786-11.475 5.344-23.182.597-12.441-9.387-19.74-.375-.276-.11-.749.158-.281.556-.356 10.953-1.928 15.917-12.017c4.879-9.9 7.709-21.568 5.095-32.344-2.399-9.949-11.682-16.583-20.979-19.248q-16.86-4.827-27.046-7.693a.636.63-73.68 0 0-.788.436m369.786 42.657a.421.415 70.307 0 0 .54.26l16.76-6.12a.986.983 73.212 0 0 .62-1.16c-3.63-14.67-9.4-30.98-26.68-32.77q-11.19-1.16-21.57 4.15c-14.81 7.59-17.75 21.63-12.96 36.94q18.86 60.23 20.26 64.73c3.21 10.28 8.16 19.34 18.46 23.09q7.17 2.61 16.05.83c19.49-3.91 30.77-18.41 24.81-38.75q-2.43-8.28-4.91-15.64a1.099 1.093 72.429 0 0-1.34-.7l-16.85 4.96a.788.776 72.219 0 0-.51 1.01q2.48 7.05 4.25 13.46c1.86 6.71 1.76 13.57-5.47 16.29-8.78 3.3-12.88-3.08-15.17-10.37q-5.18-16.48-20.09-64.14c-2.3-7.33-2.13-14.53 6.68-17q3.19-.9 6.63.7c6.6 3.05 8.4 14.13 10.49 20.23m-221.841 15.178a29.6 29.6 0 0 0-25.367-33.299l-4.281-.579a29.6 29.6 0 0 0-33.299 25.367l-9.891 73.155a29.6 29.6 0 0 0 25.367 33.299l4.281.579a29.6 29.6 0 0 0 33.299-25.367zm91.951 100.747a.5.5 63.436 0 0 .494-.505l-.198-17.9a.5.5-28.778 0 0-.506-.494l-31.65.348a.5.5 20.575 0 1-.506-.494l-1.208-109.36a.5.5 86.966 0 0-.506-.495l-19.02.21a.5.5 87.262 0 0-.494.505l1.418 128.26a.5.5-76.799 0 0 .506.495z"></path><path fill="#fff" fill-rule="evenodd" d="m873.02 191.448-14.271 1.021a.51.51 45.594 0 1-.502-.716l9.148-20.514a.51.51 46.925 0 1 .43-.301l18.902-1.345a.51.51 66.604 0 1 .462.791l-13.78 20.837a.51.51 56.336 0 1-.389.227M875.433 298.67q-5.408.383-10.04.513a.514.512 1.482 0 0-.493.467l-2.07 28.28a1.154 1.143-89.98 0 1-1.06 1.07l-18.43 1.31a.632.631-4.022 0 1-.68-.59q-.04-.69.17-2.73 8.94-88.27 12.79-126.76a.818.813-88.879 0 1 .758-.733q7.061-.48 11.967-.827 4.906-.348 11.964-.87a.818.813 80.771 0 1 .854.619q9.241 37.563 30.542 123.689.496 1.99.553 2.679a.632.631-4.086 0 1-.589.68l-18.431 1.303a1.154 1.143 81.871 0 1-1.2-.91l-6.039-27.706a.514.512-9.591 0 0-.554-.392q-4.604.524-10.012.908m-5.572-71.045L866.217 280a.96.959 89.738 0 0 1.029 1.021l14.003-1.1a.509.5-9.101 0 0 .452-.613l-11.492-51.711a.176.176-49.499 0 0-.348.028M992.592 203.762c15.39 1.949 24.041 3.226 29.791 3.551a.776.774 5.083 0 1 .727.867l-2.23 17.62a.695.683-82.82 0 1-.76.6l-19.33-2.45a.655.655-87.026 0 0-.73.57l-13.73 108.66a.259.257 4.472 0 1-.263.224q-1.48-.053-9.753-1.101-8.273-1.047-9.719-1.365a.259.257 9.962 0 1-.199-.282l13.789-108.653a.655.655-1.115 0 0-.565-.734l-19.33-2.446a.695.683-82.746 0 1-.587-.77l2.233-17.62a.776.774 9.352 0 1 .92-.658c5.65 1.118 14.346 2.038 29.736 3.987M790.608 308.989a29.69 29.69 0 0 1-20.676 36.545l-4.086 1.133a29.69 29.69 0 0 1-36.544-20.676l-19.69-71a29.69 29.69 0 0 1 20.676-36.545l4.086-1.133a29.69 29.69 0 0 1 36.544 20.676zm-38.833-65.26a11.37 11.37 0 0 0-13.953-7.991l-.502.136a11.37 11.37 0 0 0-7.991 13.953l19.156 70.504a11.37 11.37 0 0 0 13.953 7.991l.502-.136a11.37 11.37 0 0 0 7.991-13.953zM1146.17 242.25a.37.37-41.26 0 1 .23.47l-5.75 16.93a.408.398-71.345 0 1-.51.26l-32.44-11.01a.699.696 18.564 0 0-.89.44l-10.94 32.22a1.189 1.18 18.664 0 0 .75 1.5l24.7 8.39a1.28 1.28 46.433 0 1 .8 1.62l-5.23 15.42a1.059 1.056 18.86 0 1-1.35.66l-25.48-8.64a.61.601-70.822 0 0-.77.38l-11.73 34.56a.645.642 18.865 0 0 .4.81l31.45 10.67a1.524 1.521-71.151 0 1 .95 1.94l-5.16 15.23a1.069 1.059 18.691 0 1-1.35.66l-51.03-17.32a.636.626-71.422 0 1-.39-.8q17.89-52.45 40.11-118.06.67-1.98 1.59-3.47a.642.628-64.386 0 1 .74-.27z"></path><path fill="#4c4c4c" fill-rule="evenodd" d="M869.861 227.625a.176.176-49.499 0 1 .348-.028l11.492 51.711a.509.5-9.101 0 1-.452.613l-14.003 1.1a.96.959 89.738 0 1-1.029-1.021zM770.931 314.233a11.37 11.37 0 0 1-7.991 13.953l-.502.136a11.37 11.37 0 0 1-13.953-7.991l-19.156-70.504a11.37 11.37 0 0 1 7.991-13.953l.502-.136a11.37 11.37 0 0 1 13.953 7.991z"></path><path fill="#fff" fill-rule="evenodd" d="M635.26 251.91a.64.632-27.399 0 1 .84.26q2.63 4.85 5.99 11.72 1.11 2.27 1.25 3.86 2.04 22.92 8.56 91.26.48 5.07.46 6.09a1.239 1.235-12.425 0 0 1.79 1.14q16.06-7.99 28.82-14.26 1.95-.96 2.72.86c2.57 6.1 5.48 11.01 7.12 14.53a.689.684-25.81 0 1-.32.91l-50.29 24.49a1.141 1.123-26.442 0 1-1.5-.49q-4.21-8.1-6.61-13.55c-.75-1.7-.55-4.93-.77-7.3q-4.04-41.93-8.4-89.12-.13-1.44-.05-3.57a.536.536 77.979 0 0-.77-.5l-29.36 14.3a.895.886 64.152 0 1-1.19-.42l-7.41-15.2a.997.984-26.176 0 1 .46-1.32zM1212.55 360.24a.749.738 32.677 0 0-.24-1.06l-8-4.78a1.206 1.201 30.43 0 1-.43-1.64l8.42-14.58a.582.573-60.135 0 1 .79-.22l25.07 14.47a1.41 1.41 64.033 0 1 .51 1.93q-16.58 28.36-21.54 36.76c-4.05 6.86-10.35 12.27-18.02 14.55q-4.77 1.42-10.75.34-14.2-2.56-23.46-13.38c-8.59-10.06-6.56-22.64-.5-33.95q.25-.45 36.18-61.61c6.93-11.79 17.96-18.63 32-15.03q14.2 3.65 22.83 16.35c4.94 7.28 4.12 17.41.65 25.49q-2.67 6.21-6.73 12.18a.972.971 31.131 0 1-1.26.31l-15.68-8.24a.853.851-59.238 0 1-.31-1.23c3.73-5.52 10.25-15.74 4.4-21.96-2.93-3.12-7.98-5.62-12.41-3.42q-3.75 1.85-5.42 4.7-16.28 27.62-36.46 62.22c-2.27 3.9-4.16 8.56-1.39 12.79q3.53 5.39 9.95 5.8c3.81.24 7.69-3.91 9.65-6.89q1.99-3.03 11.2-18.35.77-1.29.95-1.55M512.95 377.62l50.11 66.22a.75.75 3.383 0 1-.15 1.05l-14.12 10.69a.65.65-.414 0 1-.91-.13L470.4 353.07a.614.606 53.417 0 1 .12-.85l17.11-12.95a.408.405 43.641 0 1 .49-.01l62.23 45.64a.319.317 89.535 0 0 .44-.45l-44.16-58.34a1 .998 52.84 0 1 .19-1.39l13.7-10.37a.936.936.159 0 1 1.31.19l77.35 102.21a.6.6 26.542 0 1-.12.84l-14.95 11.32a.571.563-45.421 0 1-.68.01l-70.26-51.52a.158.157-.187 0 0-.22.22M1331.9 348.48l13.42 11.88a.828.814-48.453 0 1 .06 1.16q-61.69 69.17-62.48 70.03c-6.14 6.63-11.68 13.63-3.37 20.64 6.46 5.45 12.26 1.6 16.86-3.56q23.39-26.26 65.01-72.89a.702.701 41.46 0 1 .98-.06l13.82 12.24a1.07 1.063 41.747 0 1 .09 1.5q-56.55 63.37-64.6 72.45c-6.03 6.78-14.12 13.41-23.67 13.46-11.03.05-22.08-7.5-28.02-16.62q-9.19-14.09-.24-29.3 1.93-3.29 3.79-5.37 40.31-45.35 67.37-75.5a.694.694-36.988 0 1 .98-.06"></path><path fill="#39afe2" fill-rule="evenodd" d="M1394.49 882.4a488.46 488.46 0 0 1-488.46 488.46A488.46 488.46 0 0 1 417.57 882.4a488.46 488.46 0 0 1 488.46-488.46 488.46 488.46 0 0 1 488.46 488.46m-27.26.02a461.21 461.21 0 0 0-461.21-461.21 461.21 461.21 0 0 0-461.21 461.21 461.21 461.21 0 0 0 461.21 461.21 461.21 461.21 0 0 0 461.21-461.21"></path><path fill="#fff" fill-rule="evenodd" d="m512.113 488.719-12.654 14.289a.71.71 66.923 0 1-.923.122l-23.742-15.7a.71.71-8.199 0 0-.923.121l-13.105 14.791a.71.71 43.259 0 0-.012.927l18.222 21.712a.71.71-5.145 0 1-.012.927l-12.433 14.039a.71.71 73.603 0 1-1.087-.029l-80.973-101.892a.71.71-7.046 0 1 .024-.912l16.087-18.165a.71.71 69.795 0 1 .907-.132l110.468 68.829a.71.71-23.247 0 1 .156 1.073M414.18 447.82l33.54 39.95a.954.952 45.743 0 0 1.44.02l9.25-10.45a.506.497-53.095 0 0-.1-.75l-43.9-29.03a.175.175 86.507 0 0-.23.26"></path><path fill="#cee7f7" fill-rule="evenodd" d="M1367.23 882.42a461.21 461.21 0 0 1-461.21 461.21 461.21 461.21 0 0 1-461.21-461.21 461.21 461.21 0 0 1 461.21-461.21 461.21 461.21 0 0 1 461.21 461.21m-369.45-85.14c-4.02.12-7-2.43-7.07-6.28-.24-12.69-3.26-23.95 3.2-35.48q1.61-2.86 5.99-7.3 2.86-2.91 5.99-7.34c12.85-18.2 1.91-35.31-10.96-48.81q-5.75-6.02-6.5-13.21a6.334 6.29-44.804 0 1 .01-1.46c.53-4.45 1.38-8.63 1.11-12.99-1.14-18.49-11.68-30.77-22.95-44.47-4.17-5.07-8.98-11.18-5.12-17.45 2.37-3.85 6.11-6.01 9.07-8.55 8.82-7.55-.68-19.08-9.08-20.39q-4.19-.65-7.87.64-7.75 2.7-11.46 3.88-21.35 6.82-42.33.84-12.06-3.44-21.11-9.12c-9.1-5.71-17.05-12.37-28.96-13.54-17.75-1.75-28.52 11.41-36.48 25.28-4.81 8.38-13.31 12.12-22.97 14.79-23.61 6.53-48.36 9.79-71.87 6.18q-24.88-3.82-46.74-16.41-2.42-1.4-9.29-5.74c-3.96-2.51-7.5-3.78-11.44-4.54-6.13-1.18-12.95 3.85-16.51 8.48q-1.38 1.8-3.65 7.46c-3.47 8.62-9.38 15.98-17.6 19.21q-8.8 3.46-9.76 3.95c-6.58 3.34-12.38 7.99-16.2 14.5q-7.71 13.13-6.97 27.62 1.45 28.33 2.13 40.35c.58 10.08 2.73 20.19 13.97 22.71 10.18 2.29 19.11 1.68 31.99 1.51q11.09-.14 17.23 1.27c15.36 3.52 33.85 18.33 35.94 35.46q.37 3.06-.99 9.21c-3.66 16.63-6.53 35.03 9.98 45.47 20.04 12.66 48.83 8.53 60.64 34.58 2.39 5.27 3.36 11.88 6.62 17.03q4.15 6.56 10.53 12.69 7.29 7.02 7.44 7.2c5.62 6.77 8.85 15.26 4.09 23.61q-4.19 7.34-12.29 11.18-13.75 6.53-26.81 7.41c-10.73.73-26.85 1.04-33.96 11.57q-3.39 5.03-4.02 9.47-1.36 9.5-1.17 12.27 1.15 17.47.63 23.73-1.2 14.75-6.79 31.22-4.83 14.22-14.53 25.42c-16.69 19.27-32.1 38.44-44.62 60.14-4.27 7.4-8.02 16.31-7.19 24.72.7 7.07 6.72 12.94 12.58 16.61 13.16 8.24 28.14 15.49 43.56 19.88 7.74 2.21 16.46 2.74 24.14 5.11q18.27 5.64 32.02 20.05 3.79 3.97 9.33 9.9c12.25 13.09 32.17 15.56 47.14 6.48q14.41-8.75 23.36-11.28 7.29-2.06 13.7-3.68c15-3.8 28.59-9.3 26.88-28.1q-.88-9.63-4.31-22.12c-1.93-7.01 1.63-12.9 8.19-15.6 7.54-3.1 15.65-4.37 23.66-5.22 11.77-1.24 24.17.46 36.48 3.27q4.99 1.13 17.23 5.43 8.93 3.13 17.35 5.1 9.6 2.25 15.34 2.2 13.28-.11 23.06-8.78c10-8.86 16.01-18.87 24.35-32.35 6.32-10.21 15.6-17.58 28.26-13.72q4.05 1.24 14.19 4.35 26.87 8.26 46.19-9.88c3.42-3.21 6.92-8 9.36-10.98 18.72-22.82 47.07-16.12 72.8-15.83q11.64.14 15.38-.21c13.61-1.24 25.84-3.89 38.33-11.22 12.46-7.31 20.74-20.6 14.28-35.1-2.8-6.28-7.85-13.03-14.05-16.65-16.27-9.48-39.91-15.24-47.81-34.77-2.14-5.29-3.1-11.55-2.99-17.58.21-12.49-7.99-21.31-19.88-23.46q-12.44-2.25-28.28-.62-6.76.7-9.77.04c-9.66-2.09-14.27-11.73-16.06-20.58-2-9.89-4.58-18.96-9.68-27.39q-3.59-5.92-9.68-12.37-22.9-24.26-53.9-38.22-25.59-11.53-52.05-10.68"></path><path fill="#fff" fill-rule="evenodd" d="M1438.779 457.43a.47.47 0 0 1-.059.662l-98.75 82.568a.47.47 0 0 1-.662-.059l-12.367-14.791a.47.47 0 0 1 .059-.662l98.75-82.568a.47.47 0 0 1 .662.059z"></path><path fill="#4c4c4c" fill-rule="evenodd" d="M414.18 447.82a.175.175 86.507 0 1 .23-.26l43.9 29.03a.506.497-53.095 0 1 .1.75l-9.25 10.45a.954.952 45.743 0 1-1.44-.02z" data-source="https://football-logos.cc"></path><path fill="#303030" fill-rule="evenodd" d="M990.71 791c.07 3.85 3.05 6.4 7.07 6.28q26.46-.85 52.05 10.68 31 13.96 53.9 38.22 6.09 6.45 9.68 12.37c5.1 8.43 7.68 17.5 9.68 27.39 1.79 8.85 6.4 18.49 16.06 20.58q3.01.66 9.77-.04 15.84-1.63 28.28.62c11.89 2.15 20.09 10.97 19.88 23.46-.11 6.03.85 12.29 2.99 17.58 7.9 19.53 31.54 25.29 47.81 34.77 6.2 3.62 11.25 10.37 14.05 16.65 6.46 14.5-1.82 27.79-14.28 35.1-12.49 7.33-24.72 9.98-38.33 11.22q-3.74.35-15.38.21c-25.73-.29-54.08-6.99-72.8 15.83-2.44 2.98-5.94 7.77-9.36 10.98q-19.32 18.14-46.19 9.88-10.14-3.11-14.19-4.35c-12.66-3.86-21.94 3.51-28.26 13.72-8.34 13.48-14.35 23.49-24.35 32.35q-9.78 8.67-23.06 8.78-5.74.05-15.34-2.2-8.42-1.97-17.35-5.1-12.24-4.3-17.23-5.43c-12.31-2.81-24.71-4.51-36.48-3.27-8.01.85-16.12 2.12-23.66 5.22-6.56 2.7-10.12 8.59-8.19 15.6q3.43 12.49 4.31 22.12c1.71 18.8-11.88 24.3-26.88 28.1q-6.41 1.62-13.7 3.68-8.95 2.53-23.36 11.28c-14.97 9.08-34.89 6.61-47.14-6.48q-5.54-5.93-9.33-9.9-13.75-14.41-32.02-20.05c-7.68-2.37-16.4-2.9-24.14-5.11-15.42-4.39-30.4-11.64-43.56-19.88-5.86-3.67-11.88-9.54-12.58-16.61-.83-8.41 2.92-17.32 7.19-24.72 12.52-21.7 27.93-40.87 44.62-60.14q9.7-11.2 14.53-25.42 5.59-16.47 6.79-31.22.52-6.26-.63-23.73-.19-2.77 1.17-12.27.63-4.44 4.02-9.47c7.11-10.53 23.23-10.84 33.96-11.57q13.06-.88 26.81-7.41 8.1-3.84 12.29-11.18c4.76-8.35 1.53-16.84-4.09-23.61q-.15-.18-7.44-7.2-6.38-6.13-10.53-12.69c-3.26-5.15-4.23-11.76-6.62-17.03-11.81-26.05-40.6-21.92-60.64-34.58-16.51-10.44-13.64-28.84-9.98-45.47q1.36-6.15.99-9.21c-2.09-17.13-20.58-31.94-35.94-35.46q-6.14-1.41-17.23-1.27c-12.88.17-21.81.78-31.99-1.51-11.24-2.52-13.39-12.63-13.97-22.71q-.68-12.02-2.13-40.35-.74-14.49 6.97-27.62c3.82-6.51 9.62-11.16 16.2-14.5q.96-.49 9.76-3.95c8.22-3.23 14.13-10.59 17.6-19.21q2.27-5.66 3.65-7.46c3.56-4.63 10.38-9.66 16.51-8.48 3.94.76 7.48 2.03 11.44 4.54q6.87 4.34 9.29 5.74 21.86 12.59 46.74 16.41c23.51 3.61 48.26.35 71.87-6.18 9.66-2.67 18.16-6.41 22.97-14.79 7.96-13.87 18.73-27.03 36.48-25.28 11.91 1.17 19.86 7.83 28.96 13.54q9.05 5.68 21.11 9.12 20.98 5.98 42.33-.84 3.71-1.18 11.46-3.88 3.68-1.29 7.87-.64c8.4 1.31 17.9 12.84 9.08 20.39-2.96 2.54-6.7 4.7-9.07 8.55-3.86 6.27.95 12.38 5.12 17.45 11.27 13.7 21.81 25.98 22.95 44.47.27 4.36-.58 8.54-1.11 12.99a6.334 6.29-44.804 0 0-.01 1.46q.75 7.19 6.5 13.21c12.87 13.5 23.81 30.61 10.96 48.81q-3.13 4.43-5.99 7.34-4.38 4.44-5.99 7.3c-6.46 11.53-3.44 22.79-3.2 35.48M856.6 960.52a.135.131-62.412 0 0 .05.17q28.47 17.68 61.88 13.39c29.04-3.72 54.3-21.36 68.48-46.75 28.46-50.98 2.39-115.97-53.16-133.19-24.8-7.7-52.2-4.87-74.42 8.28q-33.33 19.73-43.09 57.62-1.65 6.42-2.37 11.68c-.88 6.42-.82 15.16.56 22.32q5.9 30.55 28.49 52.17a.591.59 12.777 0 0 .97-.61q-8-23.99 5.09-45.97c.61-1.02 2.09-1.91 2.17-3.23a1.09 1.057 21.678 0 0-.4-.89c-8.77-7.06-23.41-17.86-35.33-16.13a.643.635-86.931 0 1-.71-.8q.9-3.37 1.87-7.45 3.71-15.63 12.13-30.56 3.93-6.97 5.7-8.58 16.23-14.8 37.54-23.82a.663.656-15.467 0 1 .91.51c2.15 14.7 10.25 24.57 21.27 33.83a.737.735 48.497 0 1-.07 1.18c-19.22 12.52-34.05 29.63-41.38 51.56a1.394 1.392-63.811 0 0 .54 1.59c16.2 11.17 36.2 14.74 55.7 12.44q4.42-.52 10.41-1.36a.795.785 85.205 0 1 .9.77q.26 17.14 4.31 32.64c1.44 5.52 4.28 12.21 8.19 15.26a.584.581 51.494 0 1-.11.99q-19.53 8.97-39.86 13.02a10.116 9.905 41.954 0 1-3.05.13q-13.95-1.57-24.84-6.44-2.2-.99-8.07-3.87a.215.215 6.865 0 0-.29.09z"></path><path fill="#fff" fill-rule="evenodd" d="M856.9 960.42q5.87 2.88 8.07 3.87 10.89 4.87 24.84 6.44a10.116 9.905 41.954 0 0 3.05-.13q20.33-4.05 39.86-13.02a.584.581 51.494 0 0 .11-.99c-3.91-3.05-6.75-9.74-8.19-15.26q-4.05-15.5-4.31-32.64a.795.785 85.205 0 0-.9-.77q-5.99.84-10.41 1.36c-19.5 2.3-39.5-1.27-55.7-12.44a1.394 1.392-63.811 0 1-.54-1.59c7.33-21.93 22.16-39.04 41.38-51.56a.737.735 48.497 0 0 .07-1.18c-11.02-9.26-19.12-19.13-21.27-33.83a.663.656-15.467 0 0-.91-.51q-21.31 9.02-37.54 23.82-1.77 1.61-5.7 8.58-8.42 14.93-12.13 30.56-.97 4.08-1.87 7.45a.643.635-86.931 0 0 .71.8c11.92-1.73 26.56 9.07 35.33 16.13a1.09 1.057 21.678 0 1 .4.89c-.08 1.32-1.56 2.21-2.17 3.23q-13.09 21.98-5.09 45.97a.591.59 12.777 0 1-.97.61q-22.59-21.62-28.49-52.17c-1.38-7.16-1.44-15.9-.56-22.32q.72-5.26 2.37-11.68 9.76-37.89 43.09-57.62c22.22-13.15 49.62-15.98 74.42-8.28 55.55 17.22 81.62 82.21 53.16 133.19-14.18 25.39-39.44 43.03-68.48 46.75q-33.41 4.29-61.88-13.39a.135.131-62.412 0 1-.05-.17l.01-.01a.215.215 65.166 0 1 .29-.09m16.52-153.9a.152.147 89.013 0 0 .18.18q16.67-3.86 25.16-4.22c14.56-.62 29.59 3.13 41.2 11.92a.953.945 39.793 0 0 1.27-.11q1.75-1.88 2.57-2.74 2.86-3 7.79-3.25a.191.19 65.189 0 0 .12-.33q-1.59-1.53-3.79-2.67-35.58-18.48-73.04-4.96a.385.371-4.158 0 0-.26.29zm48.12 100.71q7.54-.31 12.46-1.53c13.68-3.41 26.97-5.34 40.19-1.87a1.467 1.463 14.037 0 0 1.79-1.07c3.44-14.34 6.21-25.53 7.18-39.24q.39-5.42-.92-8.67-.74-1.83-4.59-7.68c-9.22-13.96-20.45-23.04-34.81-30.4a2.495 2.479-52.696 0 0-2.82.39q-17.69 16.25-40.55 25.05-.37.14-2.48.65a.592.589 64.711 0 0-.33.93q6.86 9.16 11.78 18.75 5.23 10.17 8.15 20.6 2.88 10.32 4.14 23.38a.784.782 86.132 0 0 .81.71m60.47-67.88 2.18 16.17a3.48 3.48 10.154 0 0 .96 1.98q4.28 4.43 7.16 10.28a.214.213-64.135 0 0 .4-.14q-3.01-14.67-10.12-28.47a.309.308 27.683 0 0-.58.18m4.53 76.31q-3.58.78-6.1-2.49-1.43-1.87-4.35-6.31a.502.5 29.137 0 0-.92.26q-.13 4.49-2.07 9.81-7.78 21.37-27.12 34.65-5.78 3.96-9.54 5.2a.968.963-40.305 0 0-.15 1.77l4.62 2.42a4.534 4.524-44.802 0 0 4.21.01q28.9-15.05 41.93-44.71a.448.444 5.406 0 0-.51-.61"></path><path fill="#303030" fill-rule="evenodd" d="m873.42 806.52 1.2-5.89a.385.371-4.158 0 1 .26-.29q37.46-13.52 73.04 4.96 2.2 1.14 3.79 2.67a.191.19 65.189 0 1-.12.33q-4.93.25-7.79 3.25-.82.86-2.57 2.74a.953.945 39.793 0 1-1.27.11c-11.61-8.79-26.64-12.54-41.2-11.92q-8.49.36-25.16 4.22a.152.147 89.013 0 1-.18-.18M920.73 906.52q-1.26-13.06-4.14-23.38-2.92-10.43-8.15-20.6-4.92-9.59-11.78-18.75a.592.589 64.711 0 1 .33-.93q2.11-.51 2.48-.65 22.86-8.8 40.55-25.05a2.495 2.479-52.696 0 1 2.82-.39c14.36 7.36 25.59 16.44 34.81 30.4q3.85 5.85 4.59 7.68 1.31 3.25.92 8.67c-.97 13.71-3.74 24.9-7.18 39.24a1.467 1.463 14.037 0 1-1.79 1.07c-13.22-3.47-26.51-1.54-40.19 1.87q-4.92 1.22-12.46 1.53a.784.782 86.132 0 1-.81-.71M982.01 839.35a.309.308 27.683 0 1 .58-.18q7.11 13.8 10.12 28.47a.214.213-64.135 0 1-.4.14q-2.88-5.85-7.16-10.28a3.48 3.48 22.8 0 1-.96-1.98zM987.05 916.27q-13.03 29.66-41.93 44.71a4.534 4.524-44.802 0 1-4.21-.01l-4.62-2.42a.968.963-40.305 0 1 .15-1.77q3.76-1.24 9.54-5.2 19.34-13.28 27.12-34.65 1.94-5.32 2.07-9.81a.502.5 29.137 0 1 .92-.26q2.92 4.44 4.35 6.31 2.52 3.27 6.1 2.49a.448.444 5.406 0 1 .51.61"></path><path fill="#fff" fill-rule="evenodd" d="M1273.55 1306.99a.636.63 47.213 0 1 .03-.9q7.69-7.27 20.49-19.26c7.06-6.61 17.52-11.17 27.29-8.12 10.59 3.29 19.15 11.71 25.14 20.98q6.11 9.44 2.14 19.83-.14.38.02.66.27.47.7.29 11.39-4.82 21.76 2.08 9.76 6.49 17.15 16.49 4.55 6.16 6.08 12.48c2.97 12.3-3.57 22.32-12.49 30.65q-7.95 7.44-18.94 17.92a1.068 1.061-43.299 0 1-1.51-.04zm27.566-.223 22.784 24.093a.77.77 68.306 0 0 1.089.031l4.359-4.123a12.45 11.87 46.6 0 0 .07-17.201l-6.733-7.121a12.45 11.87 46.6 0 0-17.179-.89l-4.359 4.122a.77.77-.286 0 0-.031 1.089m36.583 38.767 25.862 27.348a.66.66 68.319 0 0 .933.026l5.893-5.572a12.97 12.59 46.6 0 0 .236-18.074l-8.946-9.46a12.97 12.59 46.6 0 0-18.059-.773l-5.893 5.572a.66.66 35.259 0 0-.026.933M505.898 1351.806l-11.885 12.408a.77.77-16.263 0 1-1.089.023l-18.848-18.064a.77.77 1.535 0 0-1.089.023l-37.934 39.588a.77.77 76.005 0 1-1.089.024l-13.478-12.905a.77.77 80.117 0 1-.023-1.089l88.614-92.458a.77.77 86.758 0 1 1.089-.023l38.378 36.774a.77.77-12.118 0 1 .023 1.089l-11.894 12.418a.77.77 34.428 0 1-1.089.023l-23.808-22.814a.77.77-71.68 0 0-1.089.023l-23.694 24.708a.77.77 41.144 0 0 .023 1.089l18.858 18.074a.77.77 75.532 0 1 .024 1.089"></path><path fill="#4c4c4c" fill-rule="evenodd" d="M1301.116 1306.767a.77.77 1.372 0 1 .031-1.089l4.359-4.122a12.45 11.87 46.6 0 1 17.179.89l6.733 7.121a12.45 11.87 46.6 0 1-.07 17.201l-4.359 4.123a.77.77 68.302 0 1-1.089-.031z"></path><path fill="#fff" fill-rule="evenodd" d="m603.878 1346.583-11.829-7.825a.65.65 79.736 0 1 .075-1.126l20.082-9.78a.65.65 87.34 0 1 .643.043l15.885 10.504a.65.65 88.967 0 1-.175 1.166l-24.139 7.1a.65.65-87.133 0 1-.542-.082M1196.63 1363.389a.695.695-39.934 0 1 .173-.967l14.717-10.249a.828.814 55.179 0 1 1.142.216q52.714 76.301 53.364 77.272c4.999 7.534 10.5 14.572 19.276 8.144 6.823-4.996 4.447-11.544.515-17.234q-20.02-28.938-55.549-80.407a.702.701-34.908 0 1 .173-.967l15.162-10.552a1.07 1.064-34.621 0 1 1.48.266q48.285 69.935 55.217 79.904c5.17 7.463 9.71 16.893 7.506 26.192-2.552 10.737-12.5 19.702-22.769 23.327q-15.869 5.614-28.549-6.676-2.744-2.653-4.328-4.952-34.593-49.893-57.53-83.317M570.514 1332.324a.695.695 17.45 0 1 .968-.171l14.701 10.291a.829.815-54.978 0 1 .192 1.147q-53.496 75.825-54.184 76.77c-5.353 7.294-10.068 14.888-1.004 20.915 7.046 4.687 12.378.197 16.367-5.459q20.279-28.783 56.375-79.904a.703.702 34.935 0 1 .968-.171l15.139 10.603a1.071 1.064 35.221 0 1 .261 1.482q-49.043 69.471-56.017 79.419c-5.227 7.431-12.52 14.946-22.015 16.083-10.966 1.304-22.817-4.949-29.763-13.345q-10.745-12.97-3.573-29.119 1.546-3.492 3.159-5.772 34.939-49.698 58.426-82.769"></path><path fill="#4c4c4c" fill-rule="evenodd" d="M1337.699 1345.534a.66.66 74.975 0 1 .026-.933l5.893-5.572a12.97 12.59 46.6 0 1 18.059.773l8.946 9.46a12.97 12.59 46.6 0 1-.236 18.074l-5.893 5.572a.66.66 68.286 0 1-.933-.026z"></path><path fill="#fff" fill-rule="evenodd" d="m694.991 1402.428-7.202 16.144a.71.71 14.476 0 1-.937.359l-17.714-7.892a.71.71-16.487 0 0-.937.359l-44.452 99.644a.71.71 58.818 0 1-.937.359l-17.124-7.642a.71.71 61.6 0 1-.359-.937l44.452-99.643a.71.71 72.621 0 0-.36-.938l-17.782-7.922a.71.71 5.608 0 1-.36-.938l7.202-16.152a.71.71 84.147 0 1 .938-.36l55.212 24.622a.71.71 65.772 0 1 .36.937M1193.216 1488.65l27.978-13.63a.73.73 14.504 0 1 .976.336l7.71 15.818a.73.73 15.888 0 1-.337.976l-46.137 22.47a.73.73-79.891 0 1-.976-.336l-56.13-115.268a.73.73 14.663 0 1 .336-.976l16.838-8.2a.73.73 8.909 0 1 .976.336l47.79 98.138a.73.73 62.245 0 0 .976.336M721.054 1412.763a.636.63-73.68 0 1 .788-.436q10.186 2.866 27.046 7.693c9.297 2.665 18.58 9.299 20.979 19.248 2.614 10.776-.216 22.444-5.095 32.344q-4.964 10.089-15.917 12.017-.398.075-.556.356-.265.473.11.749 9.984 7.299 9.387 19.74-.558 11.707-5.344 23.182-2.95 7.067-7.588 11.625c-9.029 8.863-20.985 8.396-32.712 5.019q-10.466-3.002-25.101-7.052a1.068 1.061 15.807 0 1-.741-1.316zm14.408 23.277-9.211 32.334a.56.56 12.611 0 0 .385.692l6.29 1.791a12.23 11.54-74.1 0 0 14.449-8.6l2.817-9.887a12.23 11.54-74.1 0 0-7.748-14.924l-6.29-1.791a.56.56-82.053 0 0-.692.385m-14.69 51.817-10.023 35.659a1.05 1.05-77.257 0 0 .726 1.294l7.307 2.054a13.13 12.82-74.3 0 0 15.895-9.171l3.485-12.399a13.13 12.82-74.3 0 0-8.788-16.109l-7.307-2.054a1.05 1.05-43.234 0 0-1.295.726M1090.84 1455.42c-2.09-6.1-3.89-17.18-10.49-20.23q-3.44-1.6-6.63-.7c-8.81 2.47-8.98 9.67-6.68 17q14.91 47.66 20.09 64.14c2.29 7.29 6.39 13.67 15.17 10.37 7.23-2.72 7.33-9.58 5.47-16.29q-1.77-6.41-4.25-13.46a.788.776 72.219 0 1 .51-1.01l16.85-4.96a1.099 1.093 72.429 0 1 1.34.7q2.48 7.36 4.91 15.64c5.96 20.34-5.32 34.84-24.81 38.75q-8.88 1.78-16.05-.83c-10.3-3.75-15.25-12.81-18.46-23.09q-1.4-4.5-20.26-64.73c-4.79-15.31-1.85-29.35 12.96-36.94q10.38-5.31 21.57-4.15c17.28 1.79 23.05 18.1 26.68 32.77a.986.983 73.212 0 1-.62 1.16l-16.76 6.12a.421.415 70.307 0 1-.54-.26"></path><path fill="#4c4c4c" fill-rule="evenodd" d="M735.462 1436.04a.56.56-82.062 0 1 .692-.385l6.29 1.791a12.23 11.54-74.1 0 1 7.748 14.924l-2.817 9.887a12.23 11.54-74.1 0 1-14.449 8.6l-6.29-1.791a.56.56 48.598 0 1-.385-.692z"></path><path fill="#fff" fill-rule="evenodd" d="M859.108 1543.753a29.6 29.6 0 0 1-33.299 25.367l-4.281-.579a29.6 29.6 0 0 1-25.367-33.299l9.891-73.155a29.6 29.6 0 0 1 33.299-25.367l4.281.579a29.6 29.6 0 0 1 25.367 33.299zm-10.079-75.481a11.38 11.38 0 0 0-9.752-12.803l-.555-.074a11.38 11.38 0 0 0-12.802 9.752l-9.789 72.401a11.38 11.38 0 0 0 9.752 12.802l.555.076a11.38 11.38 0 0 0 12.802-9.753zM960.95 1571.345l-51.67.57a.5.5-49.143 0 1-.506-.495l-1.418-128.26a.5.5-53.783 0 1 .494-.505l19.02-.21a.5.5-49.969 0 1 .506.495l1.208 109.36a.5.5 2.311 0 0 .506.494l31.65-.348a.5.5-45.396 0 1 .506.494l.198 17.9a.5.5-52.744 0 1-.494.505"></path><path fill="#4c4c4c" fill-rule="evenodd" d="M839.24 1540.673a11.38 11.38 0 0 1-12.802 9.753l-.555-.076a11.38 11.38 0 0 1-9.752-12.802l9.789-72.401a11.38 11.38 0 0 1 12.802-9.752l.555.074a11.38 11.38 0 0 1 9.752 12.803zM720.772 1487.857a1.05 1.05-31.14 0 1 1.295-.726l7.307 2.054a13.13 12.82-74.3 0 1 8.788 16.109l-3.485 12.399a13.13 12.82-74.3 0 1-15.895 9.171l-7.307-2.054a1.05 1.05-45.028 0 1-.726-1.294z" data-source="https://football-logos.cc"></path><!-- source: https://football-logos.cc --></svg>