<svg xmlns="http://www.w3.org/2000/svg" xmlns:xlink="http://www.w3.org/1999/xlink" width="50.068" height="52.406" version="1.2" viewBox="0 0 37.551 39.305"><metadata xmlns:fl="https://football-logos.cc/cyprus/apollon">dl1_9f807d31d178d734bdda722a9aef877e3e68b81057d4bb9e350d8f289a8b947f</metadata><!-- Source: https://football-logos.cc --><defs data-source="https://football-logos.cc"><clipPath id="m"><path d="M769 198h1v17h-1zm0 0"></path></clipPath><clipPath id="n"><path d="M772.605 199.285c-.765.328-1.625.7-2.566.992-.3 1.387-.57 3.508-.371 6.313.273 3.863 3.394 6.574 5.262 7.722 1.87-1.148 4.992-3.859 5.265-7.722.2-2.805-.066-4.918-.375-6.313-.941-.293-1.797-.664-2.566-.992-.828-.36-1.758-.762-2.32-.832-.57.07-1.5.473-2.329.832"></path></clipPath><clipPath id="o"><path d="M780 198h1v17h-1zm0 0"></path></clipPath><clipPath id="p"><path d="M772.605 199.285c-.765.328-1.625.7-2.566.992-.3 1.387-.57 3.508-.371 6.313.273 3.863 3.394 6.574 5.262 7.722 1.87-1.148 4.992-3.859 5.265-7.722.2-2.805-.066-4.918-.375-6.313-.941-.293-1.797-.664-2.566-.992-.828-.36-1.758-.762-2.32-.832-.57.07-1.5.473-2.329.832"></path></clipPath><clipPath id="q"><path d="M893 289.863h32V326h-32zm0 0"></path></clipPath><clipPath id="r"><path d="M893 289.863h33V326h-33zm0 0"></path></clipPath><clipPath id="s"><path d="M890.281 313h37.551v16.172h-37.55zm0 0"></path></clipPath><clipPath id="t"><path d="M926 316h1.832v2H926Zm0 0"></path></clipPath></defs><use xlink:href="#g" width="100%" height="100%" x="495.24" y="441.693" style="fill:#575c42;fill-opacity:1" transform="translate(-890.281 -289.863)"></use><use xlink:href="#g" width="100%" height="100%" x="507.39" y="441.693" style="fill:#575c42;fill-opacity:1" transform="translate(-890.281 -289.863)"></use><use xlink:href="#h" width="100%" height="100%" x="360.224" y="529.693" style="fill:#575c42;fill-opacity:1" transform="translate(-890.281 -289.863)"></use><use xlink:href="#h" width="100%" height="100%" x="353.392" y="546.199" style="fill:#575c42;fill-opacity:1" transform="translate(-890.281 -289.863)"></use><use xlink:href="#i" width="100%" height="100%" x="204.368" y="727.693" style="fill:#000;fill-opacity:1" transform="translate(-890.281 -289.863)"></use><use xlink:href="#i" width="100%" height="100%" x="191.092" y="738.693" style="fill:#000;fill-opacity:1" transform="translate(-890.281 -289.863)"></use><use xlink:href="#i" width="100%" height="100%" x="190.835" y="749.693" style="fill:#000;fill-opacity:1" transform="translate(-890.281 -289.863)"></use><use xlink:href="#i" width="100%" height="100%" x="208.968" y="760.693" style="fill:#000;fill-opacity:1" transform="translate(-890.281 -289.863)"></use><use xlink:href="#i" width="100%" height="100%" x="205.571" y="771.693" style="fill:#000;fill-opacity:1" transform="translate(-890.281 -289.863)"></use><use xlink:href="#i" width="100%" height="100%" x="387.628" y="595.693" style="fill:#000;fill-opacity:1" transform="translate(-890.281 -289.863)"></use><use xlink:href="#j" width="100%" height="100%" x="367.349" y="650.693" style="fill:#000;fill-opacity:1" transform="translate(-890.281 -289.863)"></use><use xlink:href="#j" width="100%" height="100%" x="361.261" y="661.693" style="fill:#000;fill-opacity:1" transform="translate(-890.281 -289.863)"></use><use xlink:href="#k" width="100%" height="100%" x="728.866" y="754.211" style="fill:#000;fill-opacity:1" transform="translate(-890.281 -289.863)"></use><use xlink:href="#k" width="100%" height="100%" x="730.358" y="754.211" style="fill:#000;fill-opacity:1" transform="translate(-890.281 -289.863)"></use><use xlink:href="#k" width="100%" height="100%" x="789.253" y="754.211" style="fill:#000;fill-opacity:1" transform="translate(-890.281 -289.863)"></use><use xlink:href="#k" width="100%" height="100%" x="925.524" y="754.211" style="fill:#000;fill-opacity:1" transform="translate(-890.281 -289.863)"></use><use xlink:href="#k" width="100%" height="100%" x="921.584" y="762.212" style="fill:#000;fill-opacity:1" transform="translate(-890.281 -289.863)"></use><use xlink:href="#l" width="100%" height="100%" x="982.287" y="762.211" style="fill:#000;fill-opacity:1" transform="translate(-890.281 -289.863)"></use><use xlink:href="#k" width="100%" height="100%" x="1127.604" y="754.211" style="fill:#000;fill-opacity:1" transform="translate(-890.281 -289.863)"></use><use xlink:href="#k" width="100%" height="100%" x="1200.572" y="754.211" style="fill:#000;fill-opacity:1" transform="translate(-890.281 -289.863)"></use><use xlink:href="#k" width="100%" height="100%" x="727.524" y="137.173" style="fill:#000;fill-opacity:1" transform="translate(-890.281 -289.863)"></use><use xlink:href="#k" width="100%" height="100%" x="867.341" y="137.173" style="fill:#000;fill-opacity:1" transform="translate(-890.281 -289.863)"></use><use xlink:href="#k" width="100%" height="100%" x="1136.019" y="137.173" style="fill:#000;fill-opacity:1" transform="translate(-890.281 -289.863)"></use><use xlink:href="#k" width="100%" height="100%" x="1200.912" y="137.173" style="fill:#000;fill-opacity:1" transform="translate(-890.281 -289.863)"></use><use xlink:href="#k" width="100%" height="100%" x="1001.635" y="137.173" style="fill:#000;fill-opacity:1" transform="translate(-890.281 -289.863)"></use><use xlink:href="#k" width="100%" height="100%" x="923.109" y="137.173" style="fill:#000;fill-opacity:1" transform="translate(-890.281 -289.863)"></use><use xlink:href="#k" width="100%" height="100%" x="924.6" y="137.173" style="fill:#000;fill-opacity:1" transform="translate(-890.281 -289.863)"></use><use xlink:href="#k" width="100%" height="100%" x="926.588" y="145.174" style="fill:#000;fill-opacity:1" transform="translate(-890.281 -289.863)"></use><use xlink:href="#k" width="100%" height="100%" x="791.924" y="137.173" style="fill:#000;fill-opacity:1" transform="translate(-890.281 -289.863)"></use><use xlink:href="#k" width="100%" height="100%" x="1061.005" y="137.173" style="fill:#000;fill-opacity:1" transform="translate(-890.281 -289.863)"></use><use xlink:href="#k" width="100%" height="100%" x="990.148" y="240.123" style="fill:#000;fill-opacity:1" transform="translate(-890.281 -289.863)"></use><use xlink:href="#k" width="100%" height="100%" x="1126.972" y="240.123" style="fill:#000;fill-opacity:1" transform="translate(-890.281 -289.863)"></use><use xlink:href="#k" width="100%" height="100%" x="1201.941" y="240.123" style="fill:#000;fill-opacity:1" transform="translate(-890.281 -289.863)"></use><use xlink:href="#k" width="100%" height="100%" x="723.503" y="240.123" style="fill:#000;fill-opacity:1" transform="translate(-890.281 -289.863)"></use><use xlink:href="#k" width="100%" height="100%" x="800.88" y="240.123" style="fill:#000;fill-opacity:1" transform="translate(-890.281 -289.863)"></use><use xlink:href="#k" width="100%" height="100%" x="782.757" y="248.124" style="fill:#000;fill-opacity:1" transform="translate(-890.281 -289.863)"></use><use xlink:href="#k" width="100%" height="100%" x="1066.595" y="240.123" style="fill:#000;fill-opacity:1" transform="translate(-890.281 -289.863)"></use><use xlink:href="#k" width="100%" height="100%" x="855.028" y="240.123" style="fill:#000;fill-opacity:1" transform="translate(-890.281 -289.863)"></use><use xlink:href="#k" width="100%" height="100%" x="859.746" y="248.124" style="fill:#000;fill-opacity:1" transform="translate(-890.281 -289.863)"></use><use xlink:href="#k" width="100%" height="100%" x="924.145" y="240.123" style="fill:#000;fill-opacity:1" transform="translate(-890.281 -289.863)"></use><use xlink:href="#k" width="100%" height="100%" x="927.505" y="248.124" style="fill:#000;fill-opacity:1" transform="translate(-890.281 -289.863)"></use><g clip-path="url(#m)" style="clip-rule:nonzero" transform="translate(-890.281 -289.863)"><g clip-path="url(#n)" style="clip-rule:nonzero"><path d="M769.598 214.313h-.13v-15.86h.13zm0 0" style="fill:#fff;fill-opacity:1;fill-rule:nonzero;stroke:none"></path></g></g><g clip-path="url(#o)" style="clip-rule:nonzero" transform="translate(-890.281 -289.863)"><g clip-path="url(#p)" style="clip-rule:nonzero"><path d="M780.266 198.453h.129v15.86h-.13zm0 0" style="fill:#fff;fill-opacity:1;fill-rule:nonzero;stroke:none"></path></g></g><use xlink:href="#k" width="100%" height="100%" x="1125.53" y="342.147" style="fill:#000;fill-opacity:1" transform="translate(-890.281 -289.863)"></use><use xlink:href="#k" width="100%" height="100%" x="859.585" y="342.147" style="fill:#000;fill-opacity:1" transform="translate(-890.281 -289.863)"></use><use xlink:href="#k" width="100%" height="100%" x="921.296" y="342.147" style="fill:#000;fill-opacity:1" transform="translate(-890.281 -289.863)"></use><use xlink:href="#k" width="100%" height="100%" x="922.787" y="342.147" style="fill:#000;fill-opacity:1" transform="translate(-890.281 -289.863)"></use><use xlink:href="#k" width="100%" height="100%" x="928.457" y="350.148" style="fill:#000;fill-opacity:1" transform="translate(-890.281 -289.863)"></use><use xlink:href="#k" width="100%" height="100%" x="1066.249" y="341.868" style="fill:#000;fill-opacity:1" transform="translate(-890.281 -289.863)"></use><use xlink:href="#k" width="100%" height="100%" x="997.707" y="342.147" style="fill:#000;fill-opacity:1" transform="translate(-890.281 -289.863)"></use><use xlink:href="#k" width="100%" height="100%" x="988.383" y="350.148" style="fill:#000;fill-opacity:1" transform="translate(-890.281 -289.863)"></use><use xlink:href="#k" width="100%" height="100%" x="1187.542" y="342.147" style="fill:#000;fill-opacity:1" transform="translate(-890.281 -289.863)"></use><use xlink:href="#k" width="100%" height="100%" x="727.668" y="342.147" style="fill:#000;fill-opacity:1" transform="translate(-890.281 -289.863)"></use><use xlink:href="#k" width="100%" height="100%" x="792.515" y="342.147" style="fill:#000;fill-opacity:1" transform="translate(-890.281 -289.863)"></use><use xlink:href="#k" width="100%" height="100%" x="789.498" y="350.148" style="fill:#000;fill-opacity:1" transform="translate(-890.281 -289.863)"></use><g clip-path="url(#q)" style="clip-rule:nonzero" transform="translate(-890.281 -289.863)"><path d="m920.832 289.996 4.098 4.57s-1.602 2.559-2.106 5.645c-.672 4.105.266 7.465.942 10.285 1.832 7.707-7.266 10.086-10.696 11.336-3.199 1.164-4.113 3.18-4.113 3.18s-.738-1.95-3.934-3.117c-3.433-1.243-12.53-3.63-10.695-11.333.672-2.82 1.61-6.183.942-10.28-.504-3.087-1.97-5.716-1.97-5.716l4.028-4.57zm0 0" style="fill:#fff;fill-opacity:1;fill-rule:evenodd;stroke:none"></path></g><g clip-path="url(#r)" style="clip-rule:nonzero" transform="translate(-890.281 -289.863)"><path d="M893.46 294.586c.255.476 1.49 2.906 1.938 5.676.63 3.832-.125 6.96-.793 9.718l-.144.614c-.39 1.617-.3 3.11.254 4.426.476 1.128 1.305 2.167 2.469 3.082 2.14 1.687 5.02 2.675 6.921 3.335.352.122.68.231.961.333 2.582.94 3.59 2.375 3.903 2.949.035-.067.086-.145.136-.227v.516l-.027.062-.133.29-.113-.298c0-.008-.184-.48-.75-1.093-.523-.563-1.488-1.356-3.11-1.942-.28-.105-.609-.218-.952-.34-1.922-.66-4.829-1.66-7-3.37-2.614-2.063-3.563-4.676-2.82-7.79q.068-.299.144-.609c.664-2.734 1.41-5.836.789-9.613-.496-3.028-1.938-5.645-1.953-5.668l-.043-.09 4.129-4.684h11.84v.27h-11.72zm15.645 29.906c.473-.676 1.61-1.945 3.918-2.785.286-.105.614-.219.965-.34 1.903-.652 4.782-1.644 6.922-3.332 1.164-.918 1.992-1.953 2.469-3.082.555-1.316.637-2.812.254-4.43q-.069-.299-.149-.609c-.664-2.758-1.422-5.887-.797-9.723.458-2.761 1.79-5.128 2.07-5.609l-3.984-4.45h-11.668v-.269h11.786l4.203 4.692-.055.086c-.016.023-1.59 2.57-2.082 5.597-.617 3.778.129 6.88.79 9.614.054.207.1.41.148.609.738 3.11-.208 5.726-2.817 7.785-2.18 1.711-5.078 2.715-7.004 3.375-.347.121-.676.23-.96.34-1.618.59-2.63 1.402-3.192 1.98-.485.5-.73.91-.817 1.067zm0 0" style="fill:#0068b3;fill-opacity:1;fill-rule:evenodd;stroke:none"></path></g><path d="m897.86 290.68-3.352 3.765s1.875 4.23 1.875 7.328c0 3.293-.66 7.102-1.14 8.868-1.118 4.097 2.413 7.82 8.773 9.699 3.797 1.129 4.968 2.734 4.968 2.734s1.664-1.738 5.27-2.914c6.351-2.058 9.664-5.328 8.504-9.52-.488-1.757-1.145-5.574-1.145-8.867 0-3.097 1.88-7.328 1.88-7.328l-3.356-3.765zm0 0" style="fill:#fff;fill-opacity:1;fill-rule:evenodd;stroke:none" transform="translate(-890.281 -289.863)"></path><path d="M894.664 294.469c.254.601 1.856 4.449 1.856 7.304 0 3.43-.704 7.282-1.145 8.903-.531 1.945.004 3.87 1.55 5.554 1.544 1.684 4.005 3.06 7.13 3.985 3.246.96 4.586 2.262 4.941 2.66l.004-.004v.383l-.027.035-.098-.133c-.02-.027-1.21-1.594-4.898-2.683-3.168-.942-5.676-2.34-7.25-4.063-1.614-1.758-2.172-3.762-1.614-5.805.442-1.61 1.137-5.43 1.137-8.832 0-3.027-1.848-7.23-1.867-7.273l-.035-.078 3.457-3.875H909v.27h-11.078ZM909 322.87c.434-.406 2.094-1.824 5.215-2.836 3.207-1.043 5.566-2.363 7.012-3.93 1.48-1.601 1.953-3.433 1.398-5.43-.445-1.59-1.148-5.417-1.148-8.902 0-2.855 1.601-6.703 1.855-7.304l-3.254-3.653H909v-.27h11.2l3.452 3.876-.039.078c-.015.043-1.863 4.246-1.863 7.273 0 3.454.695 7.254 1.133 8.829.582 2.093.093 4.007-1.457 5.687-1.48 1.602-3.88 2.95-7.13 4.004-3.534 1.144-5.202 2.86-5.218 2.879l-.078.082zm0 0" style="fill:#0068b3;fill-opacity:1;fill-rule:evenodd;stroke:none" transform="translate(-890.281 -289.863)"></path><path d="M922.898 296.309c.18-.465.008-.258.368-1.079.226-.503.261-.793.261-.793l-3.246-3.91-22.402.032-3.488 3.925s.265.48.492.989c.222.507.043.16.312.851zM922.492 297.426l-27.023.011v-.273l27.12-.008zM909.012 317.578c2.207 0 4.12.809 4.12 1.817 0 .906-1.913 1.71-4.12 1.71-2.215 0-4.13-.804-4.13-1.71 0-1.008 1.915-1.817 4.13-1.817" style="fill:#0068b3;fill-opacity:1;fill-rule:evenodd;stroke:none" transform="translate(-890.281 -289.863)"></path><g clip-path="url(#s)" style="clip-rule:nonzero" transform="translate(-890.281 -289.863)"><path d="M909.082 329.066c1.566-.043 2.844-.308 4.45-1.23 4.902-2.8 6.69-3.988 6.69-3.988s.294.625 1.481.761c1.082.121 1.809-.445 2.188-1.39.52-1.278.539-3.989.539-3.989s1.386.043 2.64-1.074c.828-.742.723-1.27.489-1.613-.29-.426-.625-.113-.625-.113v-.512c0-.25-1.965-2.332-1.965-2.332s-.25-.145-.762-.094c-1.613.18-2.488 1.844-2.82 3.23-.246 1.016-.36 1.86-.848 2.602-.434.637-.855.805-.855.805s0-.398-.801-.54c-1.406-.245-2.64 1.075-5.328 2.735-2.102 1.297-2.575 1.543-4.473 1.703h-.059c-1.898-.16-2.367-.406-4.472-1.703-2.684-1.66-4.27-2.87-5.324-2.734-.809.105-.805.539-.805.539s-.422-.168-.852-.805c-.488-.742-.601-1.586-.847-2.601-.336-1.387-1.207-3.051-2.82-3.23-.516-.052-.762.093-.762.093s-1.965 2.082-1.965 2.332v.512s-.336-.313-.625.113c-.235.344-.34.871.488 1.613 1.254 1.117 2.64 1.074 2.64 1.074s.02 2.711.54 3.989c.375.945 1.105 1.511 2.187 1.39 1.188-.136 1.48-.761 1.48-.761s1.786 1.187 6.692 3.988c1.602.922 2.883 1.187 4.445 1.23zm0 0" style="fill:#fff;fill-opacity:1;fill-rule:evenodd;stroke:none"></path><path d="m897.848 323.7.097.062c.012.015 1.84 1.222 6.68 3.988 1.672.953 2.969 1.176 4.406 1.215h.024v.203h-.028c-1.469-.043-2.797-.27-4.504-1.242-4.265-2.438-6.191-3.668-6.605-3.938-.14.196-.543.614-1.496.723a3 3 0 0 1-.301.016c-.922 0-1.61-.508-1.996-1.47-.469-1.163-.54-3.421-.543-3.925-.367-.012-1.531-.137-2.613-1.098-.438-.398-.672-.777-.688-1.14V317a.97.97 0 0 1 .184-.512c.152-.222.316-.27.433-.27.063 0 .125.012.176.04v-.34c0-.262 1.395-1.766 1.996-2.398l.008-.012.016-.008c.004-.008.199-.117.582-.117.078 0 .152.004.242.015.758.082 1.418.485 1.953 1.196.422.554.754 1.3.95 2.101q.07.293.128.563c.172.765.32 1.425.707 2.007.278.418.555.625.7.711.066-.164.265-.41.855-.488.059-.004.125-.008.18-.008.863 0 2.007.723 3.738 1.828.441.281.945.602 1.476.934 2.079 1.281 2.532 1.531 4.426 1.683h.024v.204h-.036c-1.94-.16-2.445-.442-4.52-1.72a100 100 0 0 1-1.48-.929c-1.699-1.082-2.828-1.797-3.628-1.797q-.077.001-.149.008c-.703.086-.719.422-.719.438l-.004.144-.136-.047c-.02-.011-.453-.191-.895-.851-.406-.613-.562-1.285-.738-2.067l-.125-.562c-.164-.684-.852-2.941-2.735-3.149-.074-.011-.148-.011-.214-.011-.278 0-.434.062-.473.082-.914.969-1.883 2.074-1.926 2.254v.742l-.172-.16s-.097-.082-.207-.082q-.144.002-.265.18c-.301.437-.145.925.472 1.48 1.145 1.02 2.414 1.047 2.555 1.047h.121v.101c0 .032.024 2.703.527 3.95.247.617.766 1.347 1.813 1.347q.14.002.277-.02c1.106-.124 1.395-.699 1.395-.702zm11.207 5.265h.023c1.438-.04 2.738-.262 4.406-1.215 4.84-2.766 6.668-3.973 6.68-3.988l.102-.063.05.106c0 .004.29.578 1.395.703q.136.021.277.02c1.047 0 1.563-.731 1.813-1.348.504-1.246.527-3.918.527-3.95v-.101h.121c.14 0 1.41-.028 2.555-1.047.617-.555.773-1.043.473-1.48-.082-.118-.168-.18-.266-.18a.33.33 0 0 0-.207.086l-.172.148v-.734c-.043-.18-1.012-1.285-1.926-2.254-.039-.02-.195-.082-.472-.082-.067 0-.141 0-.22.012-1.878.207-2.566 2.464-2.73 3.148q-.07.288-.129.559c-.171.785-.328 1.457-.734 2.07-.441.66-.879.84-.898.852l-.141.05v-.148s-.023-.317-.719-.438a2 2 0 0 0-.32-.027c-.856 0-1.7.574-2.973 1.453-.566.387-1.207.828-1.96 1.293-1.028.633-1.688 1.035-2.333 1.29-.664.26-1.308.359-2.187.429h-.035v-.203h.023c1.895-.153 2.344-.403 4.426-1.684.75-.469 1.39-.91 1.953-1.289 1.305-.898 2.168-1.496 3.086-1.496q.176 0 .36.035c.57.102.773.336.847.488.145-.085.418-.293.703-.714.387-.582.535-1.243.707-2.008q.059-.27.13-.563c.175-.715.894-3.074 2.901-3.297.09-.011.164-.015.243-.015.382 0 .578.11.582.117l.015.008.008.012c.602.632 1.996 2.136 1.996 2.398v.34a.4.4 0 0 1 .176-.04c.117 0 .281.048.43.27q.19.27.191.567c-.008.375-.238.765-.695 1.18-1.078.96-2.242 1.085-2.61 1.097-.007.504-.074 2.762-.542 3.926-.391.96-1.079 1.469-1.997 1.469q-.147.001-.3-.016c-.957-.11-1.36-.527-1.5-.723-.41.27-2.34 1.5-6.602 3.938-1.707.973-3.035 1.2-4.504 1.242h-.027zm0 0" style="fill:#0068b3;fill-opacity:1;fill-rule:evenodd;stroke:none"></path></g><path d="M909.234 324.645c1.442.035 2.215-.336 5.203-2.22 2.172-1.37 2.985-2.187 4.395-2.116.316.011 2.45 2.484 2.45 2.484s-.66-.074-1.243.203c-.703.336-4.094 2.762-6.574 4.067-1.344.707-2.438 1.312-4.215 1.277h-.117c-1.774.035-3.246-.57-4.59-1.277-2.48-1.305-5.871-3.731-6.582-4.067-.578-.277-1.238-.203-1.238-.203s2.132-2.473 2.453-2.484c1.402-.07 2.219.746 4.394 2.117 2.985 1.883 4.13 2.254 5.563 2.219zM920.566 323.715s.336-.203.805-.317a.95.95 0 0 1 .559.024l.691.719s-.547.109-1.094 0c-.668-.137-.96-.426-.96-.426M897.652 323.602s-.34-.204-.808-.317c-.324-.074-.559.027-.559.027l-.691.715s.547.11 1.093 0c.676-.133.965-.425.965-.425M893.703 314.191l-1.144 1.23s.629.157 1.054.65c.426.495 1.051.898.961 3.382-.07 2.04.09 2.918.313 3.5.226.582.406.672.406.672l2.797-3.004s-.754-.621-1.05-1.297c-.653-1.469-.54-2.152-.966-3.16-.41-.969-1.277-2.016-2.37-1.973M924.39 314.21l1.141 1.24s-.625.152-1.054.648c-.422.492-1.047.894-.957 3.379.07 2.043-.09 2.914-.317 3.496-.223.586-.402.672-.402.672l-2.797-3s.719-.633 1.05-1.301c.731-1.453.54-2.153.966-3.16.41-.97 1.277-2.016 2.37-1.973" style="fill:#0068b3;fill-opacity:1;fill-rule:evenodd;stroke:none" transform="translate(-890.281 -289.863)"></path><path d="M924.414 318.582s0-.738.469-1.523c.347-.579.93-1.23 1.097-.875.247.52-.023.921-.222 1.347-.13.262-.16.36-.094.489.07.136.246.183.246.183s-.469.18-.87.27c-.403.086-.626.109-.626.109M893.664 318.59s0-.735-.469-1.52c-.351-.582-.925-1.226-1.093-.87-.25.51.023.913.222 1.34.125.26.153.358.09.495-.066.133-.246.18-.246.18s.469.18.871.265c.402.094.625.11.625.11M891.484 317.79c-.199 0-.425-.231-.476-.278l.152-.14c.106.108.27.226.336.21q.019-.007.031-.043c.164-.465-.418-1.031-.422-1.035l.137-.145c.027.028.684.66.477 1.25-.047.121-.125.16-.18.172-.02.008-.035.008-.055.008" style="fill:#0068b3;fill-opacity:1;fill-rule:evenodd;stroke:none" transform="translate(-890.281 -289.863)"></path><g clip-path="url(#t)" style="clip-rule:nonzero" transform="translate(-890.281 -289.863)"><path d="M926.629 317.773c-.02 0-.035 0-.055-.004-.054-.011-.133-.05-.18-.171-.207-.586.45-1.227.477-1.25l.137.144c-.004.008-.586.574-.422 1.04.008.023.023.038.031.042.07.016.234-.101.336-.215l.152.137c-.05.047-.277.277-.476.277" style="fill:#0068b3;fill-opacity:1;fill-rule:evenodd;stroke:none"></path></g><path d="m902.227 321.922-1.325 2.105 1.188.762.246-.336-.738-.586 1.03-1.633zM903.926 323.063l-1.262 2.085.41.266 1.301-2.062zM903.332 326.055l.457.285 1.102-1.192.035.938.25.09.472-.559-.152 1.063.438.129.437-2.485-.234-.082-.723.942v-.997l-.27-.117zM906.355 326.965l1.829-2.137h.214l.356 3.11-.559.035-.113-.89-1.629.116zM910.125 324.848l-.79 1.156.618.473-.914 1.359.434.234 1.238-1.73-.586-.45.504-.792zM911.7 324.207l-.516 1.41.668.238-.555 1.512.504.164.77-1.996-.653-.219.32-.957zM913.445 323.363l-.62 1.703 1.628.633.668-1.613zM914.656 322.695l1.375 2.086 1.207-.824-.355-.422-.719.488-1.059-1.613zm0 0" style="fill:#fff;fill-opacity:1;fill-rule:evenodd;stroke:none" transform="translate(-890.281 -289.863)"></path><path d="m913.75 324.059-.273.687.691.266.25-.688zM907.965 325.719l-.871.976.937-.136zm0 0" style="fill:#0068b3;fill-opacity:1;fill-rule:evenodd;stroke:none" transform="translate(-890.281 -289.863)"></path><path d="M907.297 318.18h-.254l-.754.87.316.118.239-.148.015 1.328.438.03zM908.117 318.098l-.797.941.563.57-.52.551.2.336 1.312-1.512zM910.145 318.215l-.926.015-.446 1.243.266.035.465-.203.254.285-.29.285-.35-.184-.278.285.547.356.27-.035.652-.742-.621-.688-.31.117.126-.32.656-.016zM911.281 318.16l-1.062 1.613 1.082.02v.55l.453-.011-.016-1.348h-.445l-.012.422-.375.016.688-.977zm0 0" style="fill:#fff;fill-opacity:1;fill-rule:evenodd;stroke:none" transform="translate(-890.281 -289.863)"></path><path d="m908.074 318.676-.273.316.293.274.258-.286zm0 0" style="fill:#0068b3;fill-opacity:1;fill-rule:evenodd;stroke:none" transform="translate(-890.281 -289.863)"></path><path d="m897.668 291.79-1.996 3.413.148.266 2.2-.676.437 1.398.55-.164-1.155-4.12zM899.867 291.79l-.156.167-.496 4.102.55.082.2-1.278 1.73-1.125zM901.879 293.621l1.648-1.543h.184l1.203 1.727v.199l-1.512 1.383-.195-.02-1.344-1.547zM905.16 292.082l.016 3.422 1.804-.012-.011-.562h-1.25l.02-2.84zM907.316 292.078l.016 3.414 1.8-.004-.01-.566h-1.247l.02-2.84zM908.809 293.629l1.64-1.547h.184l1.207 1.734v.2l-1.512 1.379-.2-.02-1.335-1.543zM913.07 292.09l-.367.047-.965 4.011.54.18.734-2.613.726 1.723.418-.008.301-3.16-.637-.009-.125 1.446zM915.969 292.09l2.394.148-.015.664-1.676-.238v.793h1.223l.03.574-1.16.067.051 1.98-.613-.031-.234-3.988zM920.7 291.957l-1.528 1.797 1.558 1.887.422-.438-1.175-1.45 1.175-1.41zM918.836 295.488h-.586v-.558h.586zM922.027 295.488h-.586v-.558h.586zm0 0" style="fill:#fff;fill-opacity:1;fill-rule:evenodd;stroke:none" transform="translate(-890.281 -289.863)"></path><path d="m910.465 292.883-.906.832.754.894.855-.754zM903.508 292.902l-.903.813.75.914.856-.754zM900.168 292.95l-.152 1.21.875-.523zM897.55 293.133l-.804 1.445 1.125-.32zM913.516 319.188s1.285.109 1.71 0c.426-.11.829-.383 1.098-.649.38-.383.606-.496.606-.496s-.805-.11-1.25-.086c-.453.02-.989.129-1.344.402-.45.336-.82.829-.82.829" style="fill:#0068b3;fill-opacity:1;fill-rule:evenodd;stroke:none" transform="translate(-890.281 -289.863)"></path><path d="M915.047 315.176s-.262.386-.555.707c-.43.46-.539.84-.719 2.656-.02.223-.02.445-.02.445s.888-.867 1.071-1.367c.223-.605.293-1.23.246-1.613-.043-.379-.023-.828-.023-.828M915.004 317.71s1.094.087 1.656-.046c.559-.133 1.14-.336 1.543-.738.402-.403.762-.742.762-.742s-1.078-.04-1.856.136c-.695.153-.96.29-1.41.692-.449.406-.695.699-.695.699" style="fill:#0068b3;fill-opacity:1;fill-rule:evenodd;stroke:none" transform="translate(-890.281 -289.863)"></path><path d="M916.055 313.832s-.457.379-.668 1.008c-.45 1.324-.27 2.758-.27 2.758s.735-.852.938-1.32c.207-.473.316-1.122.18-1.59a7 7 0 0 1-.18-.856M916.68 315.895s.898-.02 1.367-.047c.469-.024.96-.153 1.41-.672.445-.516.738-.899.738-.899s-.894-.086-1.61.094c-.718.18-.94.426-1.323.805-.38.383-.582.718-.582.718" style="fill:#0068b3;fill-opacity:1;fill-rule:evenodd;stroke:none" transform="translate(-890.281 -289.863)"></path><path d="M917.063 312.332s-.489.645-.672 1.34c-.114.43-.086 1.39 0 1.773.093.38.047.696.047.696s.695-.786.847-1.57c.156-.782.07-1.188-.066-1.59a3 3 0 0 1-.156-.649" style="fill:#0068b3;fill-opacity:1;fill-rule:evenodd;stroke:none" transform="translate(-890.281 -289.863)"></path><path d="M916.84 312.73c-.145.25-.324.594-.414.954-.11.41-.094 1.367 0 1.754.054.253.062.476.05.601.083-.101.223-.285.364-.516v.13a5 5 0 0 1-.375.511l-.078.082.02-.113s.038-.309-.048-.68c-.093-.394-.109-1.367 0-1.785.11-.418.328-.813.48-1.07zm.2-.312c-.044.07-.118.176-.2.312v-.132c.113-.176.195-.285.195-.285l.055-.07.008.085c0 .004.023.25.156.64.125.387.227.802.067 1.61-.079.39-.286.777-.481 1.074v-.129c.176-.273.344-.617.414-.957.16-.796.059-1.199-.062-1.574a3.7 3.7 0 0 1-.153-.574" style="fill:#0068b3;fill-opacity:1;fill-rule:evenodd;stroke:none" transform="translate(-890.281 -289.863)"></path><path d="M917.898 310.738s-.402.614-.48 1.074c-.082.458.215 1.075.215 1.774 0 .586-.024.66-.168 1.289 0 0 .945-1.047 1.05-1.719.11-.676-.05-1.265-.265-1.773-.215-.512-.352-.645-.352-.645M920.879 312.242s-.754.055-1.344.297c-.586.242-.965.992-1.23 1.371-.27.375-.43.563-.43.563l1.422-.403c.562-.16.828-.347 1.125-.937.297-.594.457-.89.457-.89M921.285 309.371s0 .988-.164 1.5c-.16.512-.828 1.047-1.074 1.238-.242.188-.578.41-.578.41s-.2-.734.125-1.433c.32-.7.453-.863.933-1.184.485-.324.758-.53.758-.53M919.855 306.426s.63.59.61 1.441c-.02.727-.047.899-.32 1.352-.266.457-.348.777-.348.777s-.348-.883-.457-1.664c-.106-.777-.051-1.02.11-1.371a1.6 1.6 0 0 1 .405-.535M915.992 304.773s.192.778.969 1.372c.559.421.617.43.992.535.285.086.535.086.535.086s.196-.54-.215-1.024c-.293-.351-.601-.3-1.043-.433-.726-.211-1.238-.536-1.238-.536" style="fill:#0068b3;fill-opacity:1;fill-rule:evenodd;stroke:none" transform="translate(-890.281 -289.863)"></path><path d="M916.05 304.844c.075.215.317.804.93 1.27.118.093.215.163.297.222v.078c-.093-.059-.199-.14-.34-.246-.777-.59-.972-1.383-.976-1.387l-.02-.082.07.043c.005.004.516.324 1.227.535l.04.012v.07l-.06-.015a5.7 5.7 0 0 1-1.167-.5m1.226 1.492c.282.195.383.223.645.3l.043.012c.223.067.43.079.5.082a1.08 1.08 0 0 0-.215-.968c-.207-.242-.422-.285-.687-.34-.09-.02-.184-.035-.286-.063v-.07c.106.031.204.05.293.07.274.051.512.098.73.36.415.492.224 1.05.224 1.054l-.012.02h-.024c-.008 0-.261 0-.543-.078l-.043-.016c-.253-.07-.363-.101-.625-.285zM917.473 306.977s.023.75.425 1.425c.407.672.782.809.993 1.024.218.207.43.449.43.449s.038-.965-.266-1.527c-.305-.563-.43-.672-.864-.942-.425-.27-.718-.43-.718-.43M918.078 309.148s-.234.352-.16.965c.078.696.293.856.562 1.582.266.727.239 1.371.239 1.371s.617-1.097.593-1.664c-.027-.562-.16-.996-.593-1.48a10 10 0 0 1-.64-.774" style="fill:#0068b3;fill-opacity:1;fill-rule:evenodd;stroke:none" transform="translate(-890.281 -289.863)"></path><path d="m913.652 319.18-.043-.051c.02-.024 2.13-2.133 2.785-2.93.625-.746 2.079-2.496 2.762-3.84.153-.289.219-.925.196-1.789a14 14 0 0 0-.223-2.082c-.223-1.09-.395-1.43-.692-1.777l.051-.043c.344.402.5.809.707 1.805.196.96.383 3.214.024 3.918-.688 1.351-2.145 3.105-2.77 3.851-.664.797-2.773 2.91-2.797 2.938" style="fill:#0068b3;fill-opacity:1;fill-rule:evenodd;stroke:none" transform="translate(-890.281 -289.863)"></path><path d="m919.469 310.637-.07-.016c.007-.012.074-.258.277-.445.324-.309.566-.469.566-.469l.04.05c-.005.005-.239.161-.563.466-.184.175-.25.414-.25.414M918.75 306.96l-.062-.026.246-.606.062.027zM917.383 315.027l-.059-.03c.172-.349.176-1.204.176-1.208h.066c0 .035-.004.875-.183 1.238M919.336 310.535c-.066-.355-.664-.816-.668-.82l.04-.055c.026.02.624.48.69.863zm0 0" style="fill:#0068b3;fill-opacity:1;fill-rule:evenodd;stroke:none" transform="translate(-890.281 -289.863)"></path><path d="M919.023 306.332a.215.215 0 0 1-.21-.207c0-.117.097-.21.21-.21a.21.21 0 0 1 0 .417" style="fill:#fff;fill-opacity:1;fill-rule:evenodd;stroke:none" transform="translate(-890.281 -289.863)"></path><path d="M919.023 305.95a.18.18 0 0 0-.175.175c0 .094.082.172.175.172v.07a.243.243 0 0 1-.238-.242c0-.137.106-.242.238-.242zm0 0v-.067c.133 0 .239.105.239.242a.243.243 0 0 1-.239.242v-.07a.174.174 0 0 0 0-.348" style="fill:#0068b3;fill-opacity:1;fill-rule:evenodd;stroke:none" transform="translate(-890.281 -289.863)"></path><path d="M920.398 309.754a.21.21 0 0 1-.207-.207c0-.113.094-.207.207-.207.114 0 .207.094.207.207a.21.21 0 0 1-.207.207" style="fill:#fff;fill-opacity:1;fill-rule:evenodd;stroke:none" transform="translate(-890.281 -289.863)"></path><path d="M920.398 309.375a.174.174 0 0 0-.175.172c0 .094.078.172.175.172v.07a.243.243 0 0 1-.242-.242c0-.129.11-.238.242-.238zm0 .344a.17.17 0 0 0 .172-.172.17.17 0 0 0-.172-.172v-.066a.24.24 0 1 1 0 .48zm0 0" style="fill:#0068b3;fill-opacity:1;fill-rule:evenodd;stroke:none" transform="translate(-890.281 -289.863)"></path><path d="M918.688 309.684a.204.204 0 0 1-.208-.2c0-.113.094-.21.207-.21a.21.21 0 0 1 .208.21c0 .11-.09.2-.207.2" style="fill:#fff;fill-opacity:1;fill-rule:evenodd;stroke:none" transform="translate(-890.281 -289.863)"></path><path d="M918.688 309.309a.174.174 0 0 0-.176.171c0 .094.078.172.176.172v.067a.24.24 0 0 1-.243-.239c0-.128.11-.242.242-.242zm0 0v-.07c.136 0 .242.113.242.241a.24.24 0 0 1-.242.239v-.067a.17.17 0 0 0 .171-.172.17.17 0 0 0-.172-.171" style="fill:#0068b3;fill-opacity:1;fill-rule:evenodd;stroke:none" transform="translate(-890.281 -289.863)"></path><path d="M919.195 314.336a.21.21 0 0 1-.207-.207c0-.113.098-.207.207-.207.117 0 .207.094.207.207 0 .117-.09.207-.207.207" style="fill:#fff;fill-opacity:1;fill-rule:evenodd;stroke:none" transform="translate(-890.281 -289.863)"></path><path d="M919.195 313.953a.177.177 0 0 0-.172.176c0 .098.082.176.172.176v.066a.24.24 0 0 1-.238-.242c0-.129.11-.242.238-.242zm0 0v-.066c.137 0 .242.113.242.242a.24.24 0 0 1-.242.242v-.066a.175.175 0 0 0 .176-.176.175.175 0 0 0-.176-.176" style="fill:#0068b3;fill-opacity:1;fill-rule:evenodd;stroke:none" transform="translate(-890.281 -289.863)"></path><path d="M918.25 307.305a.206.206 0 0 1-.207-.207c0-.118.094-.207.207-.207a.207.207 0 1 1 0 .414" style="fill:#fff;fill-opacity:1;fill-rule:evenodd;stroke:none" transform="translate(-890.281 -289.863)"></path><path d="M918.25 306.922a.17.17 0 0 0-.172.176c0 .097.074.175.172.175v.067a.246.246 0 0 1-.242-.242c0-.137.113-.243.242-.243zm0 .351a.175.175 0 0 0 .176-.175.175.175 0 0 0-.176-.176v-.067c.137 0 .242.106.242.243a.24.24 0 0 1-.242.242zm0 0" style="fill:#0068b3;fill-opacity:1;fill-rule:evenodd;stroke:none" transform="translate(-890.281 -289.863)"></path><path d="M914.48 318.828s.184.02.782-.11c.761-.171.914-.394.914-.238 0 .102-.383.383-.746.52-.493.18-.852.145-.852.145zM914.3 318.547c.192-.18.5-.367.95-.41.45-.047.875-.094 1.121-.047.156.027.098.113-.172.203-.265.09-.992.312-1.398.332-.403.023-.5-.078-.5-.078M917.133 315.516s.554-.34.668-.383c.11-.043.156.023.332.137.18.109.23.085.293-.137.066-.223.117-.266.36-.383.245-.113.425-.043.558-.18.133-.132.226-.086.336-.132.113-.047-.36-.024-.938.07-.582.086-.672.11-.875.265-.203.157-.734.743-.734.743M915.5 317.395s.309-.223.668-.426c.36-.2.605-.336.672-.266.062.067.113.2.113.2s.18-.048.379-.157c.203-.113.332-.18.332-.18s-.219.262-.02.223c.301-.055.782-.3.899-.39.11-.09-.305-.09-.797-.047-.492.046-1.164.25-1.367.316s-.793.547-.879.727M914.86 315.602s-.56.617-.66.921a8 8 0 0 0-.29 1.356c-.043.336-.07.738-.07.738s.223-.773.336-1.222a5 5 0 0 1 .324-.973c.14-.336.36-.82.36-.82M915.969 314.023s-.383.45-.492.786a6.4 6.4 0 0 0-.27 1.5c-.023.496-.023 1.043-.023 1.043s.136-.34.246-.72c.113-.382.113-.468.156-1.03.043-.559.137-.684.223-1.051.078-.317.16-.528.16-.528M917.04 312.734s-.11.313-.138.786c-.02.468.051.628-.02 1.05-.066.426-.151.543-.187.75-.047.274-.066.375-.035.395.02.012.36-.52.473-.977.129-.547.18-.726.078-1.297-.086-.472-.172-.707-.172-.707M916.773 313.371c.008-.133.079-.59.079-.59s-.301.617-.372 1.028a4.2 4.2 0 0 0-.043.964c.02.383.098.942.09.762-.015-.215.133-.582.223-1.027.05-.274-.016-.695.023-1.137M917.867 310.965s-.312.469-.36.828c-.042.36.036.605.114 1.031.047.262.059.438.059.438l.078.136s.265-.164.101-.886c-.172-.719-.023-1.2.008-1.547" style="fill:#fff;fill-opacity:1;fill-rule:evenodd;stroke:none" transform="translate(-890.281 -289.863)"></path><path d="M917.969 311.21c-.086-.026-.078.708.02 1.267.124.683-.11.785-.11.964 0 .18.25.329.371.036.14-.36.21-.575.164-.965-.055-.5-.254-1.23-.445-1.301M918.766 313.629s.152.094.265-.043-.043-.27.094-.445c.129-.18.332.085.418-.024a4 4 0 0 0 .25-.402s.11.086.312 0c.2-.094.559-.317.559-.317s-.871.114-1.23.317c-.36.2-.684.59-.727.746-.043.16-.055.059.059.168M921.16 309.832s-.172.797-.515 1.191c-.457.508-1 1.188-1 1.188s.37-.23.53-.34c.153-.11.446-.324.645-.66.39-.649.27-.867.34-1.379M920.598 310.023s-.344.168-.594.504c-.246.336-.535 1.18-.469 1.29.067.113.18-.45.559-.794.636-.586.504-1 .504-1M918.102 309.414s-.086.27-.063.629c.02.36.09.703.254 1.008.18.34.277.41.277.41s.047-.563-.043-1.008c-.086-.453-.425-1.039-.425-1.039M918.39 309.668s.317.648.419 1.14c.093.462 0 .876 0 .876s.043.39.085.613c.051.223.258-.348.305-.836.047-.496-.047-.77-.27-1.078-.222-.317-.538-.715-.538-.715M917.586 307.262s.144.707.293.965c.168.293.258.414.629.738.316.281.601.383.601.383s-.336-.54-.738-1.078c-.402-.536-.785-1.008-.785-1.008M917.824 307.316l1.23 1.727s.145-.27-.058-.625c-.465-.836-1.172-1.102-1.172-1.102M919.824 306.813s.207.269.223.605c.027.336.047.809-.043 1.187-.09.383-.067.774-.067.774s.313-.41.403-1.04c.058-.394.043-.987-.156-1.323-.18-.301-.332-.461-.332-.461s-.43.46-.454 1.132c-.023.754.293 1.739.293 1.739s-.164-.957-.078-1.649c.09-.695.211-.965.211-.965M916.21 304.965s.552.418 1.052.473c.539.05.726.19.922.359.359.297.222.7.222.7s-.16-.325-.539-.524c-.379-.203-.426-.09-.847-.383-.426-.29-.81-.625-.81-.625M916.156 305.043s.102.266.344.559c.45.527.98.816 1.488.988.274.086.496-.043 0-.383-.488-.336-.613-.246-.926-.445-.312-.203-.906-.719-.906-.719M916.004 318.055a.21.21 0 0 1-.211-.207c0-.114.094-.211.21-.211.114 0 .208.097.208.21a.21.21 0 0 1-.207.208" style="fill:#fff;fill-opacity:1;fill-rule:evenodd;stroke:none" transform="translate(-890.281 -289.863)"></path><path d="M916.004 317.672a.174.174 0 0 0-.176.172c0 .097.078.176.176.176v.07a.244.244 0 0 1 0-.488zm0 .348a.17.17 0 0 0 .172-.176.17.17 0 0 0-.172-.172v-.07c.137 0 .242.113.242.242a.24.24 0 0 1-.242.246zm0 0" style="fill:#0068b3;fill-opacity:1;fill-rule:evenodd;stroke:none" transform="translate(-890.281 -289.863)"></path><path d="m914.84 318.012-.027-.067c.27-.109.953-.129.98-.132v.066c-.004 0-.695.02-.953.133" style="fill:#0068b3;fill-opacity:1;fill-rule:evenodd;stroke:none" transform="translate(-890.281 -289.863)"></path><path d="M917.918 316.309a.21.21 0 0 1-.211-.207c0-.028.008-.059.016-.082a.22.22 0 0 1 .195-.13.21.21 0 0 1 0 .419" style="fill:#fff;fill-opacity:1;fill-rule:evenodd;stroke:none" transform="translate(-890.281 -289.863)"></path><path d="M917.918 315.926c-.074 0-.137.039-.16.11-.012.015-.016.042-.016.066 0 .097.078.175.176.175v.067a.243.243 0 0 1-.223-.34.25.25 0 0 1 .223-.145zm0 .351a.17.17 0 0 0 .172-.175.17.17 0 0 0-.172-.176v-.067c.129 0 .242.106.242.243a.25.25 0 0 1-.242.242zm0 0" style="fill:#0068b3;fill-opacity:1;fill-rule:evenodd;stroke:none" transform="translate(-890.281 -289.863)"></path><path d="m916.148 316.59-.046-.047c.011-.012.289-.266.976-.402.547-.106.652-.036.676-.012l-.059.043s-.097-.067-.601.035c-.668.133-.946.383-.946.383M917.746 314.648l-.027-.062c.004 0 .285-.137.644-.25.47-.145.649-.145.657-.145v.067c-.004 0-.184 0-.637.144-.356.11-.629.246-.637.246M918.535 313.527l-.062-.02c0-.003.156-.46.12-.948-.019-.286-.085-.621-.085-.625l.062-.016c0 .008.075.344.094.637.031.504-.121.953-.129.972M918.926 312.914l-.031-.062s.156-.079.382-.254c.22-.172.25-.262.25-.262l.063.016c0 .008-.031.113-.27.3-.234.18-.39.254-.394.262" style="fill:#0068b3;fill-opacity:1;fill-rule:evenodd;stroke:none" transform="translate(-890.281 -289.863)"></path><path d="m919.387 312.617-.035-.058.378-.235.032.059zm0 0" style="fill:#0068b3;fill-opacity:1;fill-rule:evenodd;stroke:none" transform="translate(-890.281 -289.863)"></path><path d="M919.926 312.477a.21.21 0 0 1-.207-.207c0-.118.097-.211.207-.211a.21.21 0 1 1 0 .418" style="fill:#fff;fill-opacity:1;fill-rule:evenodd;stroke:none" transform="translate(-890.281 -289.863)"></path><path d="M919.926 312.094a.177.177 0 0 0-.172.176c0 .093.082.171.172.171v.07a.243.243 0 0 1 0-.484zm0 0v-.067c.136 0 .242.106.242.243a.24.24 0 0 1-.242.242v-.07a.174.174 0 0 0 .176-.172.175.175 0 0 0-.176-.176" style="fill:#0068b3;fill-opacity:1;fill-rule:evenodd;stroke:none" transform="translate(-890.281 -289.863)"></path><path d="M918.488 311.938a.203.203 0 0 1-.207-.208c0-.117.09-.207.207-.207.11 0 .207.09.207.207a.21.21 0 0 1-.207.208" style="fill:#fff;fill-opacity:1;fill-rule:evenodd;stroke:none" transform="translate(-890.281 -289.863)"></path><path d="M918.488 311.555a.17.17 0 0 0-.172.175c0 .098.075.176.172.176v.067a.24.24 0 0 1-.242-.243c0-.136.106-.242.242-.242zm0 .351a.175.175 0 0 0 .176-.176.175.175 0 0 0-.176-.175v-.067a.24.24 0 0 1 .242.242.24.24 0 0 1-.242.243zm0 0" style="fill:#0068b3;fill-opacity:1;fill-rule:evenodd;stroke:none" transform="translate(-890.281 -289.863)"></path><path d="M917.566 313.79a.21.21 0 1 1 .21-.207c.001.108-.092.206-.21.206" style="fill:#fff;fill-opacity:1;fill-rule:evenodd;stroke:none" transform="translate(-890.281 -289.863)"></path><path d="M917.566 313.402a.178.178 0 0 0 0 .356v.062a.243.243 0 0 1-.242-.238.24.24 0 0 1 .242-.242zm0 0v-.062a.24.24 0 0 1 .243.242c0 .129-.11.238-.243.238v-.062a.18.18 0 0 0 .176-.176.18.18 0 0 0-.176-.18M919.824 309.734s-.043.22-.21.446c-.137.18-.216.304-.216.304zm0 0" style="fill:#0068b3;fill-opacity:1;fill-rule:evenodd;stroke:none" transform="translate(-890.281 -289.863)"></path><path d="m919.43 310.5-.059-.035c.004 0 .082-.125.219-.305.164-.219.203-.43.203-.437l.066.015c-.004.012-.043.227-.218.461-.133.18-.211.3-.211.3" style="fill:#0068b3;fill-opacity:1;fill-rule:evenodd;stroke:none" transform="translate(-890.281 -289.863)"></path><path d="M919.36 307a.206.206 0 0 1-.208-.207c0-.113.094-.207.207-.207.114 0 .211.094.211.207a.21.21 0 0 1-.21.207" style="fill:#fff;fill-opacity:1;fill-rule:evenodd;stroke:none" transform="translate(-890.281 -289.863)" data-source="https://football-logos.cc"></path><path d="M919.36 306.617a.174.174 0 0 0-.173.176c0 .098.079.176.172.176v.066a.24.24 0 0 1-.242-.242c0-.129.11-.242.242-.242zm0 .352a.175.175 0 0 0 .175-.176.175.175 0 0 0-.176-.176v-.066c.133 0 .243.113.243.242a.24.24 0 0 1-.243.242zM918.953 307.895c-.008-.012-.262-.196-.39-.34-.141-.153-.196-.285-.2-.293l.063-.024s.054.133.183.266c.133.148.383.336.387.336zm0 0" style="fill:#0068b3;fill-opacity:1;fill-rule:evenodd;stroke:none" transform="translate(-890.281 -289.863)"></path><path d="m919.008 307.719-.063-.016a6 6 0 0 1 .145-.543c.058-.16.11-.242.117-.242l.05.04s-.05.077-.105.222a7 7 0 0 0-.144.539M904.52 319.129s-1.29.117-1.711 0c-.426-.11-.829-.379-1.098-.649-.379-.378-.602-.488-.602-.488s.801-.117 1.25-.094c.45.024.985.137 1.34.403.453.34.82.828.82.828" style="fill:#0068b3;fill-opacity:1;fill-rule:evenodd;stroke:none" transform="translate(-890.281 -289.863)"></path><path d="M902.988 315.121s.262.383.555.703c.43.461.539.844.719 2.656.02.227.02.45.02.45s-.887-.868-1.071-1.368c-.223-.605-.293-1.234-.246-1.609.043-.387.023-.832.023-.832M903.031 317.652s-1.093.09-1.656-.043c-.559-.136-1.14-.336-1.543-.742-.402-.402-.762-.738-.762-.738s1.078-.043 1.86.137c.691.156.957.293 1.41.691.445.402.691.695.691.695" style="fill:#0068b3;fill-opacity:1;fill-rule:evenodd;stroke:none" transform="translate(-890.281 -289.863)"></path><path d="M901.98 313.773s.461.383.668 1.008c.45 1.324.27 2.758.27 2.758s-.734-.851-.938-1.32c-.203-.473-.316-1.121-.18-1.59.137-.473.18-.856.18-.856M901.355 315.84s-.898-.024-1.367-.047-.96-.156-1.41-.672c-.445-.52-.738-.894-.738-.894s.898-.094 1.61.085c.718.18.94.426 1.323.809.38.379.582.719.582.719" style="fill:#0068b3;fill-opacity:1;fill-rule:evenodd;stroke:none" transform="translate(-890.281 -289.863)"></path><path d="M900.973 312.273s.488.645.672 1.348c.113.426.09 1.39 0 1.77-.094.382-.047.695-.047.695s-.696-.785-.848-1.57c-.156-.786-.07-1.188.066-1.59.137-.406.157-.653.157-.653M900.137 310.68s.402.62.48 1.074c.082.457-.21 1.074-.21 1.773 0 .59.019.664.163 1.29 0 0-.945-1.047-1.05-1.715-.11-.672.05-1.266.265-1.778.219-.508.352-.644.352-.644M897.16 312.188s.75.05 1.34.292c.586.243.965.997 1.23 1.372.274.378.434.566.434.566s-.86-.238-1.426-.406c-.562-.16-.828-.348-1.125-.938-.297-.594-.453-.886-.453-.886M896.75 309.313s0 .988.168 1.5c.16.511.828 1.05 1.07 1.238s.578.414.578.414.2-.735-.125-1.438c-.32-.695-.453-.855-.933-1.183a12 12 0 0 1-.758-.531M898.18 306.371s-.63.586-.61 1.438c.02.73.047.898.32 1.359.266.45.348.773.348.773s.348-.882.457-1.66c.106-.781.051-1.023-.11-1.37-.163-.356-.405-.54-.405-.54M902.043 304.715s-.188.777-.969 1.37c-.558.427-.617.43-.992.536-.285.086-.535.086-.535.086s-.192-.54.215-1.023c.293-.348.605-.301 1.047-.43a5.3 5.3 0 0 0 1.234-.54M900.566 306.918s-.027.758-.425 1.426c-.41.672-.782.808-.996 1.023-.22.211-.43.453-.43.453s-.04-.965.265-1.53c.305-.556.43-.669.864-.938.426-.27.722-.434.722-.434" style="fill:#0068b3;fill-opacity:1;fill-rule:evenodd;stroke:none" transform="translate(-890.281 -289.863)"></path><path d="M899.96 309.09s.231.355.157.965c-.078.695-.293.863-.558 1.59-.27.722-.243 1.37-.243 1.37s-.617-1.105-.593-1.667c.03-.567.16-1 .593-1.485.43-.476.645-.773.645-.773" style="fill:#0068b3;fill-opacity:1;fill-rule:evenodd;stroke:none" transform="translate(-890.281 -289.863)"></path><path d="M904.383 319.121c-.024-.02-2.133-2.137-2.797-2.933-.625-.75-2.082-2.504-2.77-3.852-.359-.707-.171-2.957.024-3.914.207-1.004.363-1.406.707-1.809l.055.043c-.301.352-.473.688-.696 1.774-.11.554-.195 1.367-.222 2.086-.024.859.043 1.496.195 1.793.683 1.336 2.137 3.086 2.762 3.836.66.796 2.765 2.906 2.785 2.925zm0 0" style="fill:#0068b3;fill-opacity:1;fill-rule:evenodd;stroke:none" transform="translate(-890.281 -289.863)"></path><path d="M898.57 310.582c0-.004-.07-.242-.254-.418-.324-.3-.558-.46-.562-.46l.039-.056c0 .004.242.164.566.47.2.187.274.437.274.444zM899.074 306.285l.246.606zM899.285 306.902l-.246-.605.063-.024.246.606zM900.652 314.969c-.18-.36-.183-1.203-.183-1.239h.066c0 .012.004.86.176 1.208zM898.703 310.477l-.066-.012c.066-.379.664-.844.691-.863l.04.054c-.005.004-.602.469-.665.82" style="fill:#0068b3;fill-opacity:1;fill-rule:evenodd;stroke:none" transform="translate(-890.281 -289.863)"></path><path d="M899.016 306.273c.109 0 .207-.09.207-.207a.21.21 0 0 0-.207-.21.21.21 0 0 0-.211.21c0 .118.093.207.21.207" style="fill:#fff;fill-opacity:1;fill-rule:evenodd;stroke:none" transform="translate(-890.281 -289.863)"></path><path d="M899.016 305.89a.175.175 0 0 0-.176.176c0 .098.078.176.176.176v.067a.24.24 0 0 1-.243-.243.24.24 0 0 1 .243-.242zm0 .352c.09 0 .172-.078.172-.176a.177.177 0 0 0-.172-.175v-.067c.129 0 .242.11.242.242a.243.243 0 0 1-.242.243zm0 0" style="fill:#0068b3;fill-opacity:1;fill-rule:evenodd;stroke:none" transform="translate(-890.281 -289.863)"></path><path d="M897.637 309.7c.113 0 .21-.098.21-.204a.21.21 0 0 0-.417 0 .21.21 0 0 0 .207.203" style="fill:#fff;fill-opacity:1;fill-rule:evenodd;stroke:none" transform="translate(-890.281 -289.863)"></path><path d="M897.637 309.316a.176.176 0 0 0 0 .352v.066a.245.245 0 0 1-.242-.238.24.24 0 0 1 .242-.242zm0 0v-.062a.24.24 0 0 1 .242.242c0 .125-.11.238-.242.238v-.066a.18.18 0 0 0 .176-.172.18.18 0 0 0-.176-.18" style="fill:#0068b3;fill-opacity:1;fill-rule:evenodd;stroke:none" transform="translate(-890.281 -289.863)"></path><path d="M899.348 309.633a.207.207 0 1 0 0-.414.207.207 0 0 0 0 .414" style="fill:#fff;fill-opacity:1;fill-rule:evenodd;stroke:none" transform="translate(-890.281 -289.863)"></path><path d="M899.348 309.254a.17.17 0 0 0-.172.176c0 .09.074.168.172.168v.07a.243.243 0 0 1-.243-.238c0-.137.106-.243.243-.243zm0 .344a.174.174 0 0 0 .175-.168.175.175 0 0 0-.175-.176v-.066a.24.24 0 0 1 .242.242c0 .125-.11.238-.242.238zm0 0" style="fill:#0068b3;fill-opacity:1;fill-rule:evenodd;stroke:none" transform="translate(-890.281 -289.863)"></path><path d="M898.84 314.285c.11 0 .207-.098.207-.21a.21.21 0 0 0-.207-.208.21.21 0 0 0 0 .418" style="fill:#fff;fill-opacity:1;fill-rule:evenodd;stroke:none" transform="translate(-890.281 -289.863)"></path><path d="M898.84 313.902a.174.174 0 0 0-.176.172c0 .098.078.176.176.176v.066a.24.24 0 0 1-.242-.242.24.24 0 0 1 .242-.242zm0 .348a.18.18 0 0 0 .176-.176.177.177 0 0 0-.176-.172v-.07a.243.243 0 0 1 0 .484zm0 0" style="fill:#0068b3;fill-opacity:1;fill-rule:evenodd;stroke:none" transform="translate(-890.281 -289.863)"></path><path d="M899.785 307.25a.207.207 0 0 0 .207-.21c0-.11-.09-.208-.207-.208a.21.21 0 0 0-.207.207c0 .117.09.211.207.211" style="fill:#fff;fill-opacity:1;fill-rule:evenodd;stroke:none" transform="translate(-890.281 -289.863)"></path><path d="M899.785 306.867a.174.174 0 0 0-.176.172c0 .098.078.176.176.176v.066a.24.24 0 0 1-.242-.242c0-.129.105-.242.242-.242zm0 .348a.17.17 0 0 0 .172-.176.17.17 0 0 0-.172-.172v-.07c.13 0 .242.113.242.242a.243.243 0 0 1-.242.242zm0 0" style="fill:#0068b3;fill-opacity:1;fill-rule:evenodd;stroke:none" transform="translate(-890.281 -289.863)"></path><path d="M903.555 318.77s-.184.027-.782-.11c-.761-.164-.914-.394-.914-.234 0 .101.383.383.746.515.493.18.852.145.852.145zM903.734 318.496c-.191-.18-.5-.375-.949-.418-.45-.043-.875-.086-1.12-.043-.153.027-.099.11.17.2.267.09.993.312 1.395.34.407.019.504-.079.504-.079M900.902 315.457s-.554-.336-.668-.383c-.109-.043-.156.024-.332.137-.18.11-.23.09-.293-.137-.066-.222-.117-.265-.359-.379-.246-.11-.426-.043-.559-.18-.132-.136-.222-.09-.336-.136-.113-.043.36-.023.938.07.582.086.672.113.875.266.203.16.734.742.734.742M902.535 317.336s-.308-.223-.668-.422c-.355-.203-.605-.34-.672-.27a.8.8 0 0 0-.113.204s-.18-.043-.379-.16c-.203-.114-.332-.18-.332-.18s.219.262.02.226c-.301-.058-.782-.304-.899-.39-.11-.094.309-.094.797-.051.492.05 1.164.25 1.367.316.203.067.793.547.88.727M903.176 315.547s.558.617.66.918c.144.441.258 1.078.289 1.355.043.336.07.739.07.739s-.222-.77-.336-1.223a5 5 0 0 0-.324-.973c-.14-.328-.36-.816-.36-.816M902.066 313.969s.383.445.496.781c.11.34.247 1.008.266 1.5.024.496.024 1.043.024 1.043s-.137-.332-.247-.719c-.113-.375-.113-.469-.156-1.023-.043-.563-.137-.688-.222-1.059-.079-.308-.16-.523-.16-.523M900.996 312.68s.11.308.137.78c.02.474-.051.63.02 1.056.066.425.152.539.187.754.05.265.066.367.035.39-.02.016-.36-.52-.473-.98-.129-.547-.175-.727-.078-1.297.086-.465.172-.703.172-.703M901.262 313.316c-.008-.132-.078-.593-.078-.593s.3.617.37 1.035c.048.293.067.578.044.957-.02.383-.098.945-.09.765.015-.21-.133-.585-.223-1.03-.05-.274.016-.692-.023-1.134M900.168 310.906s.312.469.36.828c.042.36-.036.606-.114 1.036-.047.265-.059.433-.059.433l-.078.137s-.265-.164-.101-.887c.172-.719.027-1.2-.008-1.547" style="fill:#fff;fill-opacity:1;fill-rule:evenodd;stroke:none" transform="translate(-890.281 -289.863)"></path><path d="M900.066 311.152c.086-.027.079.707-.02 1.266-.124.684.11.785.11.965s-.25.332-.37.035c-.145-.36-.208-.574-.165-.965.055-.5.254-1.23.445-1.3M899.27 313.578s-.153.086-.266-.05c-.11-.13.043-.266-.094-.446-.129-.18-.332.086-.418-.023a4 4 0 0 1-.25-.403s-.11.09-.312 0a6 6 0 0 1-.559-.316s.871.113 1.23.316c.36.203.684.594.727.75s.055.055-.058.172M896.879 309.777s.168.797.512 1.188c.457.508 1 1.187 1 1.187s-.371-.222-.532-.336c-.152-.113-.445-.324-.644-.664-.387-.644-.27-.859-.336-1.375M897.438 309.965s.347.172.593.504c.246.34.535 1.18.469 1.289-.066.113-.18-.445-.559-.793-.636-.582-.504-1-.504-1M899.934 309.355s.09.278.062.637c-.016.356-.09.7-.254 1.008-.18.332-.277.402-.277.402s-.047-.562.043-1.007c.09-.45.426-1.04.426-1.04M899.64 309.61s-.312.648-.413 1.144c-.09.457 0 .871 0 .871s-.043.39-.086.613c-.051.23-.258-.343-.305-.836-.043-.496.047-.761.27-1.078.222-.312.535-.715.535-.715M900.45 307.203s-.145.715-.294.965c-.168.293-.254.414-.629.738-.316.281-.601.383-.601.383s.336-.539.738-1.078c.402-.535.785-1.008.785-1.008M900.21 307.262l-1.23 1.726s-.144-.27.06-.629c.464-.832 1.171-1.097 1.171-1.097M898.21 306.758s-.202.265-.222.601c-.027.34-.043.809.043 1.192.09.379.067.77.067.77s-.313-.41-.403-1.04c-.058-.394-.043-.984.157-1.324.18-.297.336-.46.336-.46s.425.46.449 1.132c.023.754-.29 1.738-.29 1.738s.165-.953.075-1.648c-.09-.696-.211-.961-.211-.961M901.824 304.906s-.55.418-1.05.473c-.54.059-.727.191-.922.36-.36.304-.223.706-.223.706s.16-.328.539-.53c.379-.196.426-.087.848-.376.425-.297.808-.633.808-.633" style="fill:#fff;fill-opacity:1;fill-rule:evenodd;stroke:none" transform="translate(-890.281 -289.863)"></path><path d="M901.879 304.984s-.102.274-.344.563a3.3 3.3 0 0 1-1.488.984c-.274.094-.496-.043 0-.379.488-.34.613-.246.926-.449.312-.2.906-.719.906-.719M902.031 318c.117 0 .211-.09.211-.207a.21.21 0 1 0-.418 0c0 .117.094.207.207.207" style="fill:#fff;fill-opacity:1;fill-rule:evenodd;stroke:none" transform="translate(-890.281 -289.863)"></path><path d="M902.031 317.617a.174.174 0 0 0 0 .348v.07a.246.246 0 0 1-.242-.242.24.24 0 0 1 .242-.242zm0 0v-.066a.24.24 0 0 1 .242.242c0 .129-.109.242-.242.242v-.07a.17.17 0 0 0 .176-.172.175.175 0 0 0-.176-.176" style="fill:#0068b3;fill-opacity:1;fill-rule:evenodd;stroke:none" transform="translate(-890.281 -289.863)"></path><path d="M903.195 317.953c-.258-.11-.949-.129-.953-.129v-.066c.027 0 .711.02.985.133zm0 0" style="fill:#0068b3;fill-opacity:1;fill-rule:evenodd;stroke:none" transform="translate(-890.281 -289.863)"></path><path d="M900.117 316.25c.117 0 .211-.09.211-.207 0-.027-.008-.055-.015-.082a.21.21 0 0 0-.196-.125.206.206 0 0 0-.207.207c0 .117.094.207.207.207" style="fill:#fff;fill-opacity:1;fill-rule:evenodd;stroke:none" transform="translate(-890.281 -289.863)"></path><path d="M900.117 315.867a.174.174 0 0 0-.172.176c0 .098.078.176.172.176v.066a.24.24 0 0 1-.238-.242c0-.129.11-.242.238-.242zm0 .352a.175.175 0 0 0 .176-.176.14.14 0 0 0-.016-.066.17.17 0 0 0-.16-.11v-.066c.098 0 .188.058.227.148a.3.3 0 0 1 .015.094.24.24 0 0 1-.242.242zm0 0" style="fill:#0068b3;fill-opacity:1;fill-rule:evenodd;stroke:none" transform="translate(-890.281 -289.863)"></path><path d="M901.887 316.531s-.274-.25-.946-.383c-.511-.101-.605-.027-.605-.027l-.05-.043c.019-.027.124-.102.671.008.688.137.965.387.98.398zM900.29 314.59c-.005 0-.282-.137-.638-.242-.453-.141-.632-.145-.636-.145v-.07c.008 0 .187.004.656.152.36.106.64.246.644.246zM899.5 313.477a2.7 2.7 0 0 1-.129-.98c.02-.294.094-.63.094-.63l.062.012s-.066.336-.086.621c-.035.496.121.945.121.95zM899.11 312.855c-.005-.008-.16-.082-.395-.261-.238-.18-.27-.29-.27-.301l.067-.016s.027.098.246.262c.226.176.383.254.383.254zm0 0" style="fill:#0068b3;fill-opacity:1;fill-rule:evenodd;stroke:none" transform="translate(-890.281 -289.863)"></path><path d="m898.652 312.563-.379-.235.036-.058.375.234zm0 0" style="fill:#0068b3;fill-opacity:1;fill-rule:evenodd;stroke:none" transform="translate(-890.281 -289.863)"></path><path d="M898.11 312.418c.109 0 .206-.09.206-.207a.215.215 0 0 0-.207-.211.213.213 0 0 0-.21.21c0 .118.093.208.21.208" style="fill:#fff;fill-opacity:1;fill-rule:evenodd;stroke:none" transform="translate(-890.281 -289.863)"></path><path d="M898.11 312.035a.175.175 0 0 0-.176.176c0 .094.078.18.175.18v.062a.24.24 0 0 1-.242-.242.24.24 0 0 1 .242-.242zm0 .356c.09 0 .171-.086.171-.18a.177.177 0 0 0-.172-.176v-.066c.13 0 .243.11.243.242a.246.246 0 0 1-.243.242zm0 0" style="fill:#0068b3;fill-opacity:1;fill-rule:evenodd;stroke:none" transform="translate(-890.281 -289.863)"></path><path d="M899.547 311.879c.117 0 .207-.09.207-.207 0-.11-.09-.207-.207-.207a.214.214 0 0 0-.207.207c0 .117.098.207.207.207" style="fill:#fff;fill-opacity:1;fill-rule:evenodd;stroke:none" transform="translate(-890.281 -289.863)"></path><path d="M899.547 311.496a.18.18 0 0 0-.172.176c0 .098.082.18.172.18v.062a.243.243 0 0 1-.242-.242c0-.129.113-.242.242-.242zm0 0v-.066c.137 0 .242.113.242.242a.24.24 0 0 1-.242.242v-.062a.178.178 0 0 0 0-.355" style="fill:#0068b3;fill-opacity:1;fill-rule:evenodd;stroke:none" transform="translate(-890.281 -289.863)"></path><path d="M900.469 313.73c.113 0 .207-.09.207-.207a.206.206 0 0 0-.207-.207.203.203 0 0 0-.207.207c0 .118.09.207.207.207" style="fill:#fff;fill-opacity:1;fill-rule:evenodd;stroke:none" transform="translate(-890.281 -289.863)"></path><path d="M900.469 313.348a.175.175 0 0 0-.176.175c0 .098.078.176.176.176v.067a.246.246 0 0 1-.242-.243.24.24 0 0 1 .242-.242zm0 .351a.17.17 0 0 0 .172-.176.17.17 0 0 0-.172-.175v-.067c.136 0 .242.106.242.242a.243.243 0 0 1-.242.243zM898.21 309.676s.044.219.212.449c.137.176.215.3.215.3zm0 0" style="fill:#0068b3;fill-opacity:1;fill-rule:evenodd;stroke:none" transform="translate(-890.281 -289.863)"></path><path d="M898.605 310.445c0-.004-.078-.125-.21-.3-.176-.23-.215-.454-.22-.465l.067-.008s.043.21.203.43c.137.18.215.304.219.304zm0 0" style="fill:#0068b3;fill-opacity:1;fill-rule:evenodd;stroke:none" transform="translate(-890.281 -289.863)"></path><path d="M898.676 306.95a.21.21 0 0 0 .207-.212.206.206 0 0 0-.207-.207.206.206 0 0 0-.207.207c0 .117.093.211.207.211" style="fill:#fff;fill-opacity:1;fill-rule:evenodd;stroke:none" transform="translate(-890.281 -289.863)"></path><path d="M898.676 306.566a.174.174 0 0 0-.176.172c0 .098.078.176.176.176v.066a.243.243 0 0 1-.242-.242c0-.133.109-.242.242-.242zm0 .348a.17.17 0 0 0 .172-.176.17.17 0 0 0-.172-.172v-.07a.24.24 0 0 1 .242.242.24.24 0 0 1-.242.242zM899.082 307.836l-.043-.055c.004 0 .258-.187.387-.328.133-.14.183-.273.183-.273l.063.023a1 1 0 0 1-.2.293 3 3 0 0 1-.39.34" style="fill:#0068b3;fill-opacity:1;fill-rule:evenodd;stroke:none" transform="translate(-890.281 -289.863)"></path><path d="M898.8 306.879s.06.078.11.238c.063.156.149.54.149.54zm0 0" style="fill:#0068b3;fill-opacity:1;fill-rule:evenodd;stroke:none" transform="translate(-890.281 -289.863)"></path><path d="M899.027 307.66c0-.004-.09-.379-.144-.531a1.2 1.2 0 0 0-.106-.23l.051-.04c0 .004.059.082.117.243s.141.53.145.542zM912.7 315.305c-.552 0-1.184-.04-1.895-.164-.473-.082-.883-.258-1.184-.383-.187-.082-.34-.145-.426-.156-.058-.004-.136 0-.215.008-.164.008-.332.02-.421-.043l-.008-.008c-.473-.336-.727-.575-.758-.704a.34.34 0 0 1 .02-.207c-.067-.03-.223-.129-.2-.28a.7.7 0 0 1 .078-.227.18.18 0 0 1-.078-.082q-.033-.077.016-.164a.7.7 0 0 1 .156-.215c-.02-.043-.05-.137-.02-.211a.23.23 0 0 1 .13-.133c.206-.078.288-.043.492.031q.046.017.105.04c.02.007.04.01.047.01q-.007-.005-.008-.01c-.024-.048-.055-.094-.027-.13.023-.039.085-.03.132-.023.32.055.528.195.739.484.066.086.125.188.183.293.137.23.266.453.45.496.265.063 1.445.145 1.976.059.344-.059.73-.18.957-.262-.164-.097-.273-.437-.312-1.004-.051-.793-.16-1.32-.243-1.742-.05-.262-.097-.484-.113-.7q-.031-.35-.086-.64a1.05 1.05 0 0 1-.285.575c-.488.511-.863.664-1.543.613-.973-.067-1.27-.625-1.281-.645l.058-.03c.004.003.297.546 1.227.608.664.047 1.016-.093 1.492-.597.285-.29.301-.633.266-.848l-.047-.21.062-.02s.036.082.051.21c.051.22.121.587.153.981.015.207.062.43.109.688.09.425.195.953.25 1.754.05.746.207.921.293.96q.03.013.055.008l.097-.035.035.059c-.008 0-.05.039-.117.043-.21.078-.664.234-1.062.305-.54.085-1.7.011-2.008-.06-.211-.054-.352-.288-.492-.534-.059-.098-.117-.2-.18-.285-.191-.274-.39-.407-.7-.461-.034-.004-.05-.004-.062 0 .008.011.02.039.032.054.02.04.043.07.02.102-.024.027-.071.02-.142-.004-.039-.012-.074-.027-.101-.035-.2-.078-.266-.102-.445-.035a.15.15 0 0 0-.094.09c-.027.081.023.183.023.183l.02.027-.028.02s-.078.047-.156.203a.16.16 0 0 0-.015.11c.02.046.078.062.078.062l.05.012-.03.039a.46.46 0 0 0-.09.234c-.016.14.187.219.19.223l.036.008-.02.035c0 .004-.054.102-.03.2.015.058.132.226.734.66l.008.007c.07.047.234.04.379.028.082-.004.16-.008.222-.004.102.011.258.078.45.16.296.125.703.297 1.164.379 1.293.23 2.316.164 3.058.117.086-.008.176-.012.258-.016.305-.02.371-.215.469-.98.094-.676-.059-2.38-.137-3.29a4 4 0 0 1-.027-.331c-.032-.356-.035-.578-.04-.778-.003-.257-.003-.449-.062-.828l-.016-.086c-.078-.55-.078-.55-.578-1.183l-.07-.094c-.598-.758-.93-.898-1.484-1.129l-.012-.004c-.379-.152-1.102-.508-1.688-.789-.292-.14-.539-.262-.664-.32a5 5 0 0 1-.605-.305l-.016-.004-.004-.015a4 4 0 0 0-.16-.567c-.148-.418-.199-.601-.203-.61l-.031-.148.101-.172c.227-.343.344-.718.395-1.203.043-.425 0-.761 0-.765v-.016l.008-.008c0-.004.129-.164.129-.316 0-.11.043-.125.094-.13.03-.007.05-.01.074-.054.015-.031.039-.066.062-.113.094-.153.227-.39.203-.543-.03-.188-.226-.45-.226-.453l-.016-.016.012-.02c0-.003.05-.148-.094-.292-.168-.172-.238-.274-.242-.278l-.004-.011s-.098-.332-.133-.434c-.023-.074-.195-.277-.531-.25-.125.016-.207.031-.281.04-.117.019-.203.03-.39.03-.31 0-.442-.03-.782-.136-.23-.067-.38.035-.582.171-.078.047-.164.11-.266.164-.215.118-.191.172-.18.196.005.015.009.035-.003.055-.016.019-.04.019-.07.019-.106 0-.606.55-.669.82-.066.262-.066.493-.066.493v.019l-.02.012s-.289.164-.316.511c-.02.196 0 .313.02.414.015.086.03.165.015.262a.7.7 0 0 1-.082.211c-.047.09-.09.172-.09.32 0 .227.195.457.356.579q.053.033.113.066c.11.062.246.145.398.379.172.258.274.512.297.59h.235l.175.355c.176.352.172.61.137.957-.023.254-.164.531-.3.797-.063.125-.126.246-.169.36-.14.343-.707.468-.73.476h-.008c-.008 0-.844.008-1.274.438-.699.699-.82 2.113-.707 3.105.106.941.239 1.61.336 2.098.067.351.114.578.114.726 0 .36-.043 1.606-.047 1.617h-.063c0-.015.043-1.261.043-1.617 0-.144-.047-.383-.113-.71-.094-.489-.23-1.165-.336-2.11-.113-1 .012-2.441.727-3.156.441-.442 1.25-.457 1.316-.457.05-.008.559-.137.68-.442.043-.11.105-.23.172-.363.132-.258.273-.527.292-.77.036-.343.04-.582-.132-.921l-.153-.32h-.242l-.008-.016c0-.008-.101-.309-.297-.598a1.06 1.06 0 0 0-.379-.36 1 1 0 0 1-.117-.074c-.062-.047-.383-.304-.383-.629 0-.164.047-.253.098-.347.027-.059.059-.117.07-.195.016-.086 0-.153-.011-.239-.016-.097-.04-.226-.02-.433a.74.74 0 0 1 .332-.555c0-.063.012-.262.07-.492.067-.266.575-.864.735-.864-.016-.066.008-.148.219-.265.101-.055.187-.113.265-.164.211-.14.375-.254.637-.176.332.102.465.129.762.129.183 0 .265-.008.382-.027.07-.012.153-.024.286-.036.347-.039.562.172.601.293.027.09.121.387.129.43.016.02.086.117.227.262.152.152.132.3.117.355.043.059.199.285.234.469.027.168-.117.422-.215.586-.023.043-.047.078-.058.105-.043.079-.098.09-.13.09-.03.004-.034.004-.034.067 0 .152-.102.3-.137.343.012.067.039.38 0 .766-.05.5-.18.879-.402 1.23l-.086.153.023.121s.05.188.195.602c.118.312.153.507.168.558.055.031.274.153.586.293.13.059.375.18.664.32.555.27 1.309.633 1.684.79l.016.004c.566.234.902.375 1.507 1.148l.075.098c.507.648.507.648.59 1.21l.015.086c.059.38.059.583.062.84.008.2.012.422.04.77.004.097.015.21.023.336.082.914.234 2.617.14 3.304-.097.75-.163 1.016-.53 1.036q-.124.01-.258.015c-.34.024-.731.047-1.176.047" style="fill:#0068b3;fill-opacity:1;fill-rule:evenodd;stroke:none" transform="translate(-890.281 -289.863)"></path><path d="m907.25 305.7-.04-.055c.009-.004.536-.399.985-.872.633-.668.621-.98.621-.984l.067-.004c0 .012.015.336-.637 1.035-.453.48-.988.871-.996.88M906.684 305.781h-.067c0-.351-.078-1.11-.078-1.117l.063-.008c.004.008.082.77.082 1.125M906.277 303.906l-.058-.035.03.02-.03-.02s.035-.078-.047-.344q-.025-.064-.04-.133c-.081-.246-.156-.464-.066-.609.028-.055.051-.09.07-.125.051-.078.087-.14.145-.277.09-.192.156-.344.137-.653a2 2 0 0 0-.016-.14c-.02-.293-.043-.594.016-.774.066-.195.254-.441.379-.488l.015-.004c.102-.043.153-.062.235-.184.062-.097.09-.109.164-.101.035 0 .078.004.152-.008a.6.6 0 0 1 .188.008c.07.008.078.008.12-.059.083-.117.141-.117.255-.11.027 0 .066.009.109.009h.121c.11.004.137.004.195-.04.098-.073.266-.089.45.095.16.164.359.312.48.394.14.098.176.176.149.352-.024.148.066.543.07.547l-.07.011c-.004-.011-.09-.41-.067-.57.02-.149 0-.203-.12-.281a3.5 3.5 0 0 1-.49-.407c-.148-.152-.284-.14-.359-.086-.078.055-.128.055-.242.051h-.117c-.043 0-.082-.004-.113-.004-.11-.008-.133-.008-.192.078-.066.098-.109.098-.187.086-.04-.004-.094-.011-.176-.004-.07.008-.125.004-.156.004-.055-.004-.055-.004-.106.067a.47.47 0 0 1-.27.215l-.015.004c-.097.039-.273.253-.34.453-.054.164-.027.468-.008.738q.007.07.008.14c.024.325-.047.497-.136.692-.063.14-.102.203-.149.281-.023.035-.043.07-.074.125-.066.117 0 .328.074.555q.023.067.04.133c.09.289.054.383.042.398M905.496 300.742a.09.09 0 0 1-.07-.035c-.07-.078.02-.293.078-.406.074-.157.164-.137.25-.121.031.004.058.011.094.011.074 0 .183-.109.253-.187.04-.04.075-.078.102-.098.063-.043.094-.191.117-.34q.016-.07.031-.133a.34.34 0 0 1 .137-.23 1 1 0 0 0 .156-.164c.192-.238.496-.172.504-.168l-.011.062c-.012 0-.274-.058-.438.145-.074.094-.125.14-.168.176a.3.3 0 0 0-.117.191c-.012.047-.016.09-.023.133-.036.176-.063.32-.141.383-.031.02-.059.05-.098.086-.086.097-.199.207-.304.207a1 1 0 0 1-.11-.008c-.082-.02-.12-.024-.18.082-.085.18-.109.304-.082.336.012.011.051.004.07 0 .063-.028.13-.051.184-.074.137-.06.23-.098.29-.06l-.036.06c-.031-.02-.133.023-.226.062-.055.023-.125.05-.192.074a.3.3 0 0 1-.07.016" style="fill:#0068b3;fill-opacity:1;fill-rule:evenodd;stroke:none" transform="translate(-890.281 -289.863)"></path><path d="M905.96 301.367c-.042 0-.077-.012-.081-.012l.02-.066c.007.004.16.04.28-.078.134-.133.2-.238.2-.238l.059.039c-.004 0-.075.113-.208.242a.37.37 0 0 1-.27.113M909.078 300.043a.13.13 0 0 1-.082-.027c-.039-.036-.027-.082-.027-.09l.066.015-.035-.008.035.008s-.004.016.004.024c.012.011.031.02.102.004a.6.6 0 0 0 .156-.063c.113-.05.227-.105.348-.02l-.04.055c-.09-.062-.171-.023-.28.024a.5.5 0 0 1-.165.066c-.035.012-.058.012-.082.012M909.79 300.648s-.005-.187-.083-.289c-.07-.09-.203-.015-.203-.015l-.035-.059c.066-.035.207-.078.293.031.093.121.097.328.097.332zM907.441 299.242a.2.2 0 0 1-.085-.02l.027-.062c.082.04.129-.004.203-.07a.5.5 0 0 1 .098-.082c.117-.063.27-.156.27-.156l.034.058-.265.153c-.036.02-.059.05-.09.074-.051.054-.11.105-.192.105M908.336 298.918c-.016 0-.023 0-.031-.004-.074-.023-.094-.105-.098-.117l.066-.016c0 .016.02.059.047.07.032.008.07-.019.098-.039.16-.14.453-.191.469-.191l.008.07c-.004 0-.285.043-.43.168q-.07.06-.129.059M906.25 299.957l-.05-.05c.01-.005.195-.188.362-.188.079 0 .118-.024.184-.067.059-.035.133-.078.25-.132.102-.04.149-.067.188-.086.066-.04.093-.051.203-.051.105 0 .16-.031.246-.086.054-.027.117-.066.21-.11.169-.078.22-.074.313-.062a1 1 0 0 0 .172.012c.25 0 .363 0 .633.066.258.07.375.078.375.078l.027.004v.031c0 .008 0 .22-.18.266-.035.016-.07.02-.101.023-.094.024-.117.032-.117.102s-.004.137-.051.176c-.043.035-.117.039-.234.015l.015-.062c.094.02.149.012.176-.008.023-.016.027-.055.027-.121 0-.13.082-.145.172-.164a.5.5 0 0 0 .094-.024c.098-.027.121-.125.133-.175a2.3 2.3 0 0 1-.348-.07c-.27-.071-.379-.071-.621-.071a1 1 0 0 1-.176-.012c-.086-.011-.12-.015-.281.059-.086.035-.148.074-.203.105a.45.45 0 0 1-.281.098c-.102 0-.11.004-.168.04-.04.015-.094.046-.196.089-.117.047-.183.094-.238.125a.36.36 0 0 1-.223.078c-.144 0-.308.172-.312.172" style="fill:#0068b3;fill-opacity:1;fill-rule:evenodd;stroke:none" transform="translate(-890.281 -289.863)"></path><path d="m907.125 300.125-.008-.066c.004 0 .184-.024.242-.16.024-.055.012-.098.008-.133-.012-.07-.012-.125.125-.16l.016.07c-.086.02-.086.027-.078.078a.25.25 0 0 1-.008.168c-.075.176-.285.2-.297.203M908.305 299.688q-.082 0-.18-.012-.136-.017-.184-.09c-.046-.063-.027-.129-.027-.133l.063.02-.028-.012.035.012c-.008 0-.015.043.008.074q.036.053.137.058c.227.028.348.02.488-.101l.036-.027c.125-.106.144-.106.257.004l.024.023-.051.05-.023-.03c-.036-.036-.063-.063-.079-.063a.4.4 0 0 0-.085.066l-.036.028a.48.48 0 0 1-.355.133M906.563 300.398c-.122 0-.188-.152-.188-.16l.063-.027s.058.133.14.113q.03-.001.059-.008c.105-.015.226-.035.277-.148.008-.035.016-.047.016-.059-.024-.008-.063-.023-.086-.101l.062-.02c.016.047.031.055.051.059.008.004.027.011.04.035.007.02.003.047-.028.113-.063.149-.211.172-.324.188q-.03.004-.051.008c-.012 0-.02.008-.031.008M905.426 301.395c-.051-.028-.074-.063-.078-.102-.016-.07.039-.148.129-.277q.021-.036.05-.07c.168-.239.383-.196.391-.196l-.012.066c-.008 0-.18-.035-.32.168q-.031.036-.055.07c-.074.102-.125.18-.12.223.003.016.007.036.054.067zM906.129 302.066c-.05 0-.098-.03-.149-.062-.011-.008-.027-.02-.043-.023-.125-.079-.125-.31-.125-.325h.067c0 .059.015.219.097.266.012.004.024.016.04.027.046.028.093.055.12.047.02-.004.04-.035.06-.082l.062.024c-.028.074-.059.113-.102.125q-.017.002-.027.004M905.84 303.11c-.008 0-.012-.005-.016-.005-.066-.015-.105-.105-.105-.246 0-.093.031-.152.054-.199.028-.062.043-.09-.019-.152-.023-.024-.063-.055-.082-.055s-.055.031-.094.078c-.023.027-.05.055-.09.094a.215.215 0 0 1-.242.039.27.27 0 0 1-.16-.25c.016-.23.156-.332.16-.336l.04.059-.02-.032.02.032c-.005 0-.118.085-.133.28-.004.071.05.15.12.184.036.02.102.036.173-.023.035-.035.062-.07.082-.094.058-.058.09-.097.144-.101.043 0 .082.035.129.082.098.093.066.16.031.222-.02.043-.047.098-.047.172 0 .114.031.18.051.184.012 0 .035-.016.07-.078.09-.188.172-.2.188-.2v.07s-.055.009-.125.161c-.05.09-.094.113-.129.113M906.242 302.543c-.023 0-.05-.023-.082-.047-.047-.043-.105-.098-.191-.062-.07.023-.11.004-.137-.016-.078-.059-.066-.207-.062-.223l.066.004c-.004.035-.004.137.04.164.003.008.022.02.07.008.12-.05.206.028.257.07.016.016.035.028.047.036h-.012l.063.027c-.008.02-.024.035-.043.035q-.005.005-.016.004M905.695 302.066a.26.26 0 0 1-.136-.043c-.055-.039-.082-.113-.09-.183a.08.08 0 0 1-.059.043c-.062.027-.144-.016-.258-.102-.164-.113-.172-.34-.172-.347h.067s.004.195.144.296c.079.051.157.106.2.09q.023-.005.043-.062c.011-.028.02-.059.054-.059.028.008.036.035.04.078.003.059.019.16.066.188.098.058.152.039.203-.016l.05.047c-.05.047-.097.07-.152.07M907.77 299.984l-.04-.058c.032-.02.051-.063.055-.11a.34.34 0 0 0-.105-.238c-.149-.152-.192-.176-.196-.176l.036-.058c.004 0 .05.03.207.187.085.086.136.192.125.29a.23.23 0 0 1-.082.163M906.375 299.234q-.06.001-.113-.004c-.133-.027-.192-.05-.192-.05l.024-.063s.054.023.183.043c.133.02.293-.004.325-.05l.054.038c-.043.063-.172.086-.281.086" style="fill:#0068b3;fill-opacity:1;fill-rule:evenodd;stroke:none" transform="translate(-890.281 -289.863)"></path><path d="M905.855 301.676c-.085 0-.183-.074-.273-.14q-.035-.028-.07-.056c-.051-.039-.082-.082-.082-.128 0-.086.078-.145.082-.145l.039.05c-.016.016-.055.052-.055.095 0 .023.02.054.055.078.023.02.047.03.074.05.145.114.234.176.309.09.105-.133.238-.355.242-.355l.058.035c-.004.008-.14.227-.253.363-.04.047-.079.063-.125.063M905.879 303.32c-.121 0-.367-.238-.422-.289l.05-.047c.18.176.348.286.38.266.05-.066.11-.281.129-.36l.062.016c0 .016-.066.293-.14.387-.008.016-.028.027-.051.027zM908.137 304.008c-.192 0-.422-.059-.692-.168-.324-.13-.625-.504-.828-.746l-.039-.047a2.8 2.8 0 0 1-.34-.547l.063-.023s.136.289.332.527l.039.047c.191.238.488.605.797.726.37.153.656.196.87.133.052-.011.09-.02.13-.031.168-.031.281-.05.437-.336l.055.031c-.168.313-.3.336-.48.375-.036.008-.075.012-.118.028a.8.8 0 0 1-.226.03M908.063 302.86c.066.038.183.077.355.081h.012v.067h-.012c-.367-.008-.5-.168-.504-.172l.031-.055c.004 0 .266.027.485.027v.07c-.125 0-.274-.01-.368-.019m.368.082c.207.004.32-.043.37-.082a4 4 0 0 1-.37.02v-.07c.222 0 .449-.024.449-.028l.058-.004-.019.051c-.004.008-.07.18-.465.18h-.023zm0 0" style="fill:#0068b3;fill-opacity:1;fill-rule:evenodd;stroke:none" transform="translate(-890.281 -289.863)"></path><path d="M908.918 302.844c-.047-.028-.2-.11-.281-.102-.04.004-.067.004-.09.008a.5.5 0 0 1-.117.012.2.2 0 0 1-.074-.012c-.016-.004-.04-.012-.09-.012a.5.5 0 0 0-.14.04c-.06.023-.13.05-.212.066l-.008-.066a1 1 0 0 0 .192-.067.5.5 0 0 1 .168-.043c.066.004.09.012.109.016.016.004.027.011.055.011.043 0 .07-.008.109-.011.027 0 .05-.004.09-.012.125-.008.32.11.328.113zM908.496 302.457a.22.22 0 0 1-.144-.055c-.028-.027-.079-.027-.125-.027-.07-.008-.149-.008-.157-.086-.008-.086-.008-.137.086-.16l.02.066c-.047.008-.047.008-.04.086 0 .02.028.02.09.024.059 0 .125.008.168.043.059.054.133.039.16.03a.15.15 0 0 0 .094-.089c.008-.086.008-.2-.082-.508-.078-.262-.066-.332-.05-.394q0-.011.003-.028a.22.22 0 0 1 .059-.113.6.6 0 0 1 .191-.191c.141-.09.192-.118.395-.102.219.012.312.2.316.207l-.058.031a.32.32 0 0 0-.262-.168c-.191-.015-.23.008-.36.09a.5.5 0 0 0-.163.164v.012l-.008.004s-.036.027-.047.078c0 .008 0 .02-.004.027-.008.055-.024.118.05.364.09.3.102.433.083.539a.2.2 0 0 1-.137.14.3.3 0 0 1-.078.016M906.926 301.34l-.059-.04c.008-.003.113-.152.332-.245a1.2 1.2 0 0 1 .531-.121c.188 0 .422.242.434.253l-.05.047c0-.004-.223-.23-.384-.23-.18 0-.304.027-.507.11-.2.085-.297.226-.297.226" style="fill:#0068b3;fill-opacity:1;fill-rule:evenodd;stroke:none" transform="translate(-890.281 -289.863)"></path><path d="M907.223 301.395c.054.035.183.109.363.117v.066a.8.8 0 0 1-.43-.144l-.02-.016.009-.023c.004-.02.058-.16.441-.18v.062c-.246.02-.336.082-.363.118m.363.117h.031c.246 0 .313-.106.332-.153a.45.45 0 0 0-.257-.082h-.106v-.062c.035-.004.067-.004.106-.004.199 0 .316.11.32.117l.015.016-.004.011c0 .012-.046.223-.406.223h-.031zM908.707 301.36q.096.105.309.128v.067c-.18-.02-.317-.078-.383-.176l-.016-.02.016-.015c.004-.008.098-.133.383-.145v.07c-.184.005-.278.063-.309.09m.309.13h.02a.7.7 0 0 0 .284-.06.28.28 0 0 0-.238-.16h-.066v-.07a.3.3 0 0 1 .074.008c.23.008.304.227.304.23l.008.028-.023.012a.8.8 0 0 1-.32.078h-.043zm0 0" style="fill:#0068b3;fill-opacity:1;fill-rule:evenodd;stroke:none" transform="translate(-890.281 -289.863)"></path><path d="M907.64 301.547a.167.167 0 0 1-.167-.168c0-.086.074-.16.168-.16.086 0 .164.074.164.16a.17.17 0 0 1-.164.168M909.055 301.52c-.082 0-.153-.063-.153-.145s.07-.148.153-.148c.078 0 .14.066.14.148a.14.14 0 0 1-.14.145" style="fill:#0068b3;fill-opacity:1;fill-rule:evenodd;stroke:none" transform="translate(-890.281 -289.863)"></path><path d="M907.668 301.438a.05.05 0 0 1-.047-.047c0-.032.023-.051.047-.051.031 0 .047.02.047.05 0 .024-.016.048-.047.048M909.055 301.438a.05.05 0 0 1-.047-.047c0-.032.023-.051.047-.051.023 0 .043.02.043.05 0 .024-.02.048-.043.048" style="fill:#fff;fill-opacity:1;fill-rule:evenodd;stroke:none" transform="translate(-890.281 -289.863)"></path><path d="m909.402 301.438-.062-.024s.02-.062-.02-.117c-.039-.05-.129-.086-.261-.09-.22-.012-.364.18-.364.184l-.054-.043c.008-.012.168-.22.418-.211.16.004.265.05.32.129.055.074.023.168.023.172M907.18 301.453l-.063-.035c.004-.004.051-.09.235-.2.136-.07.18-.085.39-.058.203.031.297.196.305.207l-.059.031a.37.37 0 0 0-.258-.168c-.187-.03-.218-.019-.343.051-.164.094-.207.168-.207.172M910.188 310.137c-.047 0-.082-.016-.102-.04-.027-.038-.008-.085-.008-.093l.062.031-.03-.015.03.015s-.004.016 0 .024c.004 0 .012.015.07.008.063-.004.079-.024.087-.028.004-.012 0-.02 0-.02l.054-.027c.008.004.02.043 0 .082q-.03.047-.129.063zm0 0" style="fill:#0068b3;fill-opacity:1;fill-rule:evenodd;stroke:none" transform="translate(-890.281 -289.863)"></path><path d="M908.613 313.176s-.215-.215-.398-.317a1.3 1.3 0 0 0-.399-.136l.012-.067c.012 0 .234.031.422.145.191.105.402.32.41.328zM908.457 313.488s-.102-.066-.371-.21c-.219-.118-.344-.118-.344-.118v-.066c.004 0 .14 0 .371.125.278.144.38.21.383.219zM908.355 313.871s-.152-.086-.308-.152c-.14-.067-.176-.059-.176-.059.004 0 .012 0 .016-.015l-.059-.032c.02-.03.066-.039.246.04.156.07.317.16.317.16zM908.793 312.656a2 2 0 0 0-.262-.16l.028-.059c.008.004.164.082.273.165zm0 0" style="fill:#332e68;fill-opacity:1;fill-rule:evenodd;stroke:none" transform="translate(-890.281 -289.863)"></path><path d="M905.594 310.75c-.813 0-.946-.457-.95-.477l.067-.02c.008.02.121.446.918.43.805-.011 1.129-.37 1.129-.378l.05.043c-.011.02-.343.394-1.175.402zm0 0" style="fill:#0068b3;fill-opacity:1;fill-rule:evenodd;stroke:none" transform="translate(-890.281 -289.863)"></path><path d="M905.227 310.379c-.086 0-.122-.098-.125-.156l.066-.004s.012.09.059.09c.062 0 .109-.051.109-.055l.055.043c-.004.004-.067.082-.164.082M905.113 315.602l-.066-.004.004-.2c.02-.46.023-.547.05-1.332.012-.418-.109-.988-.23-1.547-.101-.48-.203-.933-.203-1.25v-.957c-.047-.074-.379-.59-.453-1.214-.05-.426.309-1.422.324-1.461l.063.02c-.004.007-.368 1.023-.32 1.437.077.648.445 1.183.449 1.187l.008.008v.98c0 .31.093.762.203 1.239.117.558.242 1.137.226 1.558-.027.79-.027.872-.047 1.333zM911.977 313.648c-.012-.004-1.11-.566-2.551-1.894-1.242-1.164-2.035-3.11-2.043-3.129l.062-.023c.008.02.793 1.953 2.032 3.101 1.43 1.324 2.52 1.88 2.535 1.887zm0 0" style="fill:#0068b3;fill-opacity:1;fill-rule:evenodd;stroke:none" transform="translate(-890.281 -289.863)"></path><path d="M912.121 313.207c-.016-.004-1.363-.664-2.64-2.02-1.274-1.367-1.508-2.445-1.508-2.46l.07-.012c0 .012.227 1.078 1.488 2.426 1.266 1.351 2.606 2.004 2.621 2.007zm0 0" style="fill:#0068b3;fill-opacity:1;fill-rule:evenodd;stroke:none" transform="translate(-890.281 -289.863)"></path><path d="M906.57 304.797s-.59.512-.945.762c-.36.246-.695.605-.785.828s-.121.453-.121.453l.726-.121s.567-.25.723-.567c.16-.312.437-.816.437-.816zm0 0" style="fill:#fff;fill-opacity:1;fill-rule:evenodd;stroke:none" transform="translate(-890.281 -289.863)"></path><path d="m905.668 305.566-.023.02c-.352.238-.684.594-.774.812-.066.16-.101.32-.11.399l.673-.106c.02-.008.117-.054.234-.125v.078c-.117.067-.203.106-.207.11h-.012l-.77.125.005-.043c.004-.008.035-.238.125-.461.093-.234.433-.602.797-.848q.029-.018.062-.043zm.871-.703c-.144.125-.582.5-.871.703v-.082c.352-.25.875-.707.883-.71l.047-.051.043.617-.004.008c-.004.008-.285.512-.438.82-.101.2-.351.371-.531.477v-.078c.168-.106.387-.258.469-.426.144-.293.398-.746.437-.817zm0 0" style="fill:#0068b3;fill-opacity:1;fill-rule:evenodd;stroke:none" transform="translate(-890.281 -289.863)"></path><path d="M905.465 306.59s-.113.894.16 1.207c.266.312 1 .941 1.879 1.055a5.95 5.95 0 0 0 3.996-.895c1.566-1.008 1.25-.922 1.676-.719.43.2.742.606.742.606s-.313-.895-.629-1.055c-.309-.156-.422-.156-.422-.156s-.18-.29-.406-.403a1.2 1.2 0 0 1-.293-.18s-.332-.34-.64-.34c-.317 0-.43-.108-.43-.108s-.246-.266-.715-.293c-.473-.02-.762.34-1.695.605-.942.274-2.192.453-2.508.43-.313-.028-.715.246-.715.246" style="fill:#fff;fill-opacity:1;fill-rule:evenodd;stroke:none" transform="translate(-890.281 -289.863)"></path><path d="M905.496 306.61c-.012.113-.086.89.152 1.167.266.309.997.93 1.856 1.043a6.089 6.089 0 0 0 2.14-.113v.066a6.1 6.1 0 0 1-2.144.114c-.883-.117-1.629-.746-1.906-1.067-.14-.164-.18-.48-.184-.75v-.129c0-.191.02-.343.02-.355l.004-.016.015-.008c.016-.011.418-.277.735-.254h.058c.38 0 1.54-.171 2.434-.425.433-.121.726-.266.965-.383h.004v.07a5.3 5.3 0 0 1-.95.379c-.902.258-2.074.426-2.453.426h-.062c-.27-.02-.613.191-.684.234m4.149 2.098a5.9 5.9 0 0 0 1.836-.781c.312-.2.539-.348.726-.473.438-.293.57-.379.684-.379.058 0 .11.027.176.066.035.02.078.047.125.07.273.126.496.329.625.47-.106-.266-.329-.75-.543-.86-.293-.148-.407-.152-.41-.152h-.016l-.008-.016c-.008-.004-.18-.285-.395-.394-.222-.11-.293-.184-.293-.184-.008-.004-.336-.328-.625-.328-.328 0-.449-.117-.453-.121s-.246-.258-.691-.281c-.25-.008-.442.082-.715.218l-.023.008v-.07c.28-.137.48-.234.738-.223.48.024.73.29.742.305 0 0 .105.098.402.098.317 0 .653.332.668.347 0 0 .067.063.285.176.204.102.364.336.407.395.043.011.168.035.418.16.324.16.629 1.039.644 1.07l-.058.035c-.004-.004-.317-.402-.727-.593l-.133-.07c-.062-.036-.097-.06-.14-.06-.098 0-.246.102-.649.368-.183.121-.418.277-.722.476a6 6 0 0 1-1.875.79zm0 0" style="fill:#0068b3;fill-opacity:1;fill-rule:evenodd;stroke:none" transform="translate(-890.281 -289.863)"></path><path d="M905.41 305.973a.42.42 0 0 0-.238.418c.02.136.137.261.34.27s.336-.052.347-.306c.02-.25-.011-.285-.164-.347-.148-.067-.218-.067-.285-.035" style="fill:#fff;fill-opacity:1;fill-rule:evenodd;stroke:none" transform="translate(-890.281 -289.863)"></path><path d="M905.496 305.984a.12.12 0 0 0-.07.02.37.37 0 0 0-.219.383c.016.113.117.23.305.242h.004v.066h-.008c-.227-.015-.348-.16-.371-.3a.45.45 0 0 1 .257-.454.22.22 0 0 1 .122-.027v.07zm.02.645c.175.004.296-.031.312-.274.02-.246-.016-.261-.148-.32a.5.5 0 0 0-.164-.05v-.07a1 1 0 0 1 .195.058c.164.074.203.12.183.39-.015.23-.12.332-.343.332h-.035zM906.816 307.2c-.363 0-.93-.36-.957-.38l.04-.05c.007.004.632.402.964.363 1.059-.133 2.239-.766 2.25-.77l.036.055c-.016.012-1.208.644-2.274.781zm0 0" style="fill:#0068b3;fill-opacity:1;fill-rule:evenodd;stroke:none" transform="translate(-890.281 -289.863)"></path><path d="M906.8 306.82c-.245 0-.386-.043-.39-.043l.02-.066c0 .004.21.066.57.031.36-.031.562-.094.562-.094l.024.063c-.012 0-.207.066-.582.101a4 4 0 0 1-.203.008M909.883 306.035l-.027-.062c.023-.008.636-.282 1.152-.285v.07c-.5.004-1.121.273-1.125.277M907.648 308.258c-.074 0-.144-.008-.226-.016-.16-.02-.367-.066-.442-.183a.18.18 0 0 1-.008-.164c.09-.239.536-.461 1.051-.723.285-.14.582-.293.84-.457.309-.195.461-.188.59-.184.059 0 .11 0 .168-.02.094-.027.156-.09.223-.155a.7.7 0 0 1 .265-.165c.203-.05.965-.117 1-.12l.004.07c-.008 0-.789.066-.984.113-.098.023-.164.09-.235.156-.074.063-.148.133-.25.164a.5.5 0 0 1-.199.02c-.12 0-.254-.004-.547.18-.261.164-.554.316-.843.46-.485.243-.938.47-1.02.684-.016.04-.016.07.004.105.047.075.188.125.387.153.699.082 1.027-.238 1.031-.246l.043.05c-.008.008-.277.278-.852.278" style="fill:#0068b3;fill-opacity:1;fill-rule:evenodd;stroke:none" transform="translate(-890.281 -289.863)"></path><path d="m908.93 307.684-.028-.063c.008-.004.434-.137.793-.45.106-.089.192-.175.282-.26.21-.212.394-.391.656-.454a.9.9 0 0 1 .386-.004c.118.016.196.027.282-.055.047-.03.074-.066.11-.101.108-.114.202-.207.433-.207.293 0 .476.07.488.07l-.027.063s-.184-.063-.461-.063c-.207 0-.282.07-.387.188l-.105.101c-.114.102-.22.086-.34.07-.098-.011-.207-.03-.364.008-.242.059-.414.223-.625.43q-.127.13-.285.266c-.367.32-.797.457-.808.46M907.746 307.715l-.039-.055c.25-.187 1.031-.465 1.062-.476l.024.066c-.012 0-.805.285-1.047.465M908.066 308.664a2.5 2.5 0 0 1-.582-.09c-.55-.129-.78-.25-.8-.43l.07-.007c.012.136.242.253.746.37.422.102.57.094.645.087h.03v.062c-.007 0-.019.008-.027.008zM909.059 308.55l-.016-.062c.008-.004.578-.183 1.055-.578.476-.394.765-.828.765-.832l.059.04c-.008.003-.297.445-.781.847a3.5 3.5 0 0 1-1.082.586M911.348 307.043l-.008-.063c.008 0 .343-.043.601-.261.024-.02.047-.035.07-.059.133-.113.211-.187.387-.113a.8.8 0 0 0 .387.05h.082v.071h-.082a.9.9 0 0 1-.41-.059c-.137-.054-.188-.011-.32.102a1.312 1.312 0 0 1-.707.332M910.238 308.32l-.03-.058s.218-.102.648-.367c.43-.262.808-.68.816-.684l.047.043c0 .004-.39.426-.828.695-.43.27-.649.371-.653.371M905.719 306.027l-.051-.043c.004 0 .25-.304.367-.457.117-.148.504-.746.508-.75l.055.04c-.016.023-.391.601-.508.75-.117.152-.363.456-.371.46M905.438 305.988l-.055-.035.289-.426.055.04zM905.148 306.277l-.144-.14.047-.047.144.144zM905.25 306.61s-.062-.016-.14-.016c-.087 0-.31-.059-.32-.059l.015-.066c.004.004.222.058.304.058s.157.02.157.02zm0 0" style="fill:#0068b3;fill-opacity:1;fill-rule:evenodd;stroke:none" transform="translate(-890.281 -289.863)"></path><path d="M912.586 311.785s-.102.79-.32 1.172c-.22.387-.485 1.211-.77 1.531s-.273.25-.402.586c-.137.34-.121.774-.457 1.008-.332.238-.586.59-.586.59s-.012.219.3.035c.32-.184.391-.219.59-.137.2.082.352.235.625.184.266-.047.47-.168.47-.168s.128.203.382.203c.25 0 .27-.117.453-.238.184-.113.336-.027.254-.531-.086-.512-.219-1.805-.137-2.239.082-.437.219-.773.016-1.363-.2-.586-.3-.539-.418-.633" style="fill:#fff;fill-opacity:1;fill-rule:evenodd;stroke:none" transform="translate(-890.281 -289.863)"></path><path d="M911.598 314.41q-.037.051-.078.102l-.141.148c-.145.156-.148.168-.254.43q-.059.152-.094.316c-.062.266-.132.535-.375.703-.293.211-.53.52-.57.575 0 .011.004.035.016.046q.017.017.047.016a.45.45 0 0 0 .19-.066c.216-.13.317-.188.43-.188.055 0 .106.016.184.051.055.02.106.047.156.07a.64.64 0 0 0 .348.117c.035 0 .063 0 .098-.008a.1.1 0 0 0 .043-.011v.074c-.008 0-.02.004-.028.004-.039.004-.078.012-.113.012-.148 0-.265-.067-.383-.121-.043-.032-.097-.055-.144-.079a.4.4 0 0 0-.16-.039c-.098 0-.188.051-.399.172a.45.45 0 0 1-.222.078.13.13 0 0 1-.098-.039c-.04-.039-.031-.093-.031-.105v-.012l.004-.004c.008-.012.261-.363.593-.594.227-.16.29-.418.348-.664.027-.113.055-.23.094-.332.11-.265.12-.285.273-.445.031-.04.082-.086.14-.152.044-.051.083-.11.126-.18zm.445 2.133.016.027c.004 0 .128.184.359.184.16 0 .21-.047.293-.121a3 3 0 0 1 .14-.106c.047-.03.083-.043.118-.058.117-.055.18-.078.12-.446-.089-.539-.218-1.816-.132-2.25a3 3 0 0 1 .043-.195c.074-.355.14-.66-.027-1.144-.16-.465-.25-.52-.336-.579q-.011-.006-.028-.011c-.027.187-.125.797-.312 1.133-.078.14-.172.343-.262.554-.133.313-.281.656-.437.88v-.126c.133-.215.261-.512.379-.777.09-.219.18-.422.261-.567.211-.379.317-1.156.317-1.164l.008-.062.043.039c.023.02.043.035.07.05.094.055.195.122.36.606.175.504.105.832.027 1.18a2 2 0 0 0-.04.2c-.081.421.044 1.69.13 2.218.07.402-.008.46-.153.52a1 1 0 0 0-.113.054c-.05.04-.09.07-.129.106a.43.43 0 0 1-.34.136.5.5 0 0 1-.394-.195 1.6 1.6 0 0 1-.426.156v-.074c.238-.047.418-.148.418-.152zm0 0" style="fill:#0068b3;fill-opacity:1;fill-rule:evenodd;stroke:none" transform="translate(-890.281 -289.863)"></path><path d="M911.402 316.746c0-.02-.07-1.652.672-2.781.531-.82.547-1.469.547-1.477h.066c0 .028-.011.676-.562 1.516-.727 1.11-.652 2.723-.652 2.738zm0 0" style="fill:#0068b3;fill-opacity:1;fill-rule:evenodd;stroke:none" transform="translate(-890.281 -289.863)"></path><path d="M912 316.566c-.02-.039-.453-1.027.59-2.765.39-.653.332-1.5.332-1.508l.066-.004c0 .008.059.875-.34 1.543-1.027 1.707-.593 2.7-.59 2.71zM912.586 316.66a.36.36 0 0 1-.2-.05.26.26 0 0 1-.132-.2c-.04-.183.047-.875.203-1.265.145-.375.2-.891.2-.895l.066.004c-.004.004-.055.531-.203.918-.157.39-.235 1.07-.204 1.223.012.074.047.129.106.156.148.09.398 0 .402-.004l.02.066c-.004 0-.125.047-.258.047" style="fill:#0068b3;fill-opacity:1;fill-rule:evenodd;stroke:none" transform="translate(-890.281 -289.863)"></path><path d="M912.984 315.797a.5.5 0 0 1-.261-.074c-.13-.07-.203-.141-.137-.47l.07.017c-.07.304 0 .335.102.394.18.098.3.055.304.055l.028.058a.2.2 0 0 1-.106.02" style="fill:#332e68;fill-opacity:1;fill-rule:evenodd;stroke:none" transform="translate(-890.281 -289.863)"></path><path d="M901.855 309.332c-.093.14.082.168.399.148.32-.011.691.086.672 1.31-.016 1.226-.27 2.034.168 3.112.437 1.07 1.261 1.66 1.812 1.895.551.234.551.351.551.351l.09.844 3.32-1.144-.437-.707s.047-.102.101-.266c.047-.168.047-.34.047-.34s-.148-.082-.285-.2l-.129-.12s.043.2-.09.34c-.168.183-.414.105-.414.105s.031.18-.187.25c-.215.063-.309-.09-.309-.09s.004.149-.144.207c-.215.082-.32-.023-.32-.023s-.009.117-.196.18c-.184.07-.254-.043-.254-.043s-.02.171-.207.203c-.184.035-.25 0-.25 0s-.082.215-.266.234c-.152.02-.976-.184-1.41-.687-.437-.504-1.023-1.63-.957-2.84.074-1.324.235-2.07-.168-2.57-.402-.504-.988-.383-1.136-.149" style="fill:#fff;fill-opacity:1;fill-rule:evenodd;stroke:none" transform="translate(-890.281 -289.863)"></path><path d="M902.309 309.45c.101 0 .257.015.382.14.192.187.278.582.266 1.2-.004.335-.023.636-.047.925-.055.754-.098 1.394.215 2.172a3.45 3.45 0 0 0 1.797 1.879q.292.134.414.214v.082a2 2 0 0 0-.445-.23 3.55 3.55 0 0 1-1.825-1.922c-.328-.789-.277-1.441-.218-2.2.02-.288.039-.585.043-.921.008-.602-.075-.977-.246-1.152-.082-.086-.192-.121-.336-.121h-.204c-.18 0-.265-.02-.3-.079-.02-.035-.012-.07.02-.125.081-.128.277-.214.487-.214.157 0 .454.047.708.367.332.41.289.996.222 1.883-.015.207-.031.449-.047.703-.07 1.277.586 2.402.946 2.82.336.383.894.586 1.195.652v.07c-.317-.066-.899-.28-1.242-.679-.512-.59-1.028-1.734-.965-2.863.012-.258.031-.5.047-.707.066-.903.105-1.45-.207-1.836-.239-.297-.516-.348-.657-.348-.187 0-.363.078-.43.192-.007.015-.023.043-.019.058.012.016.055.043.242.043.043 0 .094 0 .145-.004zm3.027 6.53c.14.098.156.149.156.168l.082.797 3.242-1.113-.425-.687.008-.016s.05-.106.097-.266c.04-.129.051-.258.051-.308a1.5 1.5 0 0 1-.273-.196l-.075-.062a.38.38 0 0 1-.101.281.41.41 0 0 1-.406.121c-.004.07-.04.188-.207.239a.3.3 0 0 1-.118.019.26.26 0 0 1-.183-.062.25.25 0 0 1-.153.16.5.5 0 0 1-.171.039.3.3 0 0 1-.141-.035c-.02.043-.074.113-.203.16a.3.3 0 0 1-.121.023.24.24 0 0 1-.125-.035.3.3 0 0 1-.215.172.6.6 0 0 1-.242.004c-.032.062-.121.21-.282.23h-.023q-.063-.001-.172-.02v-.07a1 1 0 0 0 .172.028q.005.002.016-.008c.164-.02.242-.207.242-.211l.012-.035.035.02s.023.007.086.007q.065 0 .14-.012a.21.21 0 0 0 .176-.175l.063-.016c0 .008.035.055.117.055a.3.3 0 0 0 .101-.02c.16-.058.168-.148.176-.148l.004-.07.047.043c.004.008.05.043.137.043a.4.4 0 0 0 .148-.032c.121-.05.121-.164.121-.172l.063-.011s.054.082.175.082a.3.3 0 0 0 .098-.016c.184-.058.16-.203.16-.207l-.011-.055.054.016s.051.012.117.012a.35.35 0 0 0 .266-.11c.117-.125.078-.304.078-.304l.055-.035.133.117c.132.117.277.199.28.199l.017.008v.02c0 .011 0 .175-.047.351-.047.129-.086.215-.098.254l.45.727-3.407 1.167-.086-.882s-.012-.028-.09-.09zm0 0" style="fill:#0068b3;fill-opacity:1;fill-rule:evenodd;stroke:none" transform="translate(-890.281 -289.863)"></path><path d="M908.23 312.332c-.14-.605-.398-1.273-.906-1.836-.886-.98-1.476-1.453-1.484-2.105-.004-.645.531-.918.797-.832.156.05.039.183-.219.37-.262.184-.484.497.3 1.442.782.938 1.31 1.36 1.821 2.52.137.304.148.629.148.629zm0 0" style="fill:#fff;fill-opacity:1;fill-rule:evenodd;stroke:none" transform="translate(-890.281 -289.863)"></path><path d="m907.262 310.05-.063-.073c-.16-.18-.324-.368-.511-.586-.395-.48-.575-.844-.54-1.114.024-.191.145-.297.247-.375.238-.175.28-.246.277-.277 0-.02-.027-.027-.05-.04a1 1 0 0 0-.09-.007c-.141 0-.302.07-.419.195-.113.106-.238.305-.238.617.004.512.379.907.996 1.563q.18.188.39.422v.101a21 21 0 0 0-.44-.48c-.606-.64-1.008-1.067-1.012-1.598 0-.344.14-.558.254-.676a.67.67 0 0 1 .468-.21q.053 0 .114.011c.054.02.09.051.093.094.016.078-.074.172-.3.34-.102.07-.204.168-.223.328-.035.246.14.598.527 1.066.184.211.348.403.508.582l.012.012zm.992 2.259.394.16a1.8 1.8 0 0 0-.14-.57c-.375-.84-.762-1.301-1.246-1.848v-.106c.511.582.914 1.043 1.308 1.93.137.312.149.633.149.645v.054l-.516-.219-.008-.019c-.172-.75-.465-1.348-.894-1.82l-.04-.04v-.101q.043.046.09.098c.434.476.73 1.078.903 1.836" style="fill:#0068b3;fill-opacity:1;fill-rule:evenodd;stroke:none" transform="translate(-890.281 -289.863)"></path><path d="m903.11 309.7 2.738-1.126zm0 0" style="fill:#fff;fill-opacity:1;fill-rule:evenodd;stroke:none" transform="translate(-890.281 -289.863)"></path><path d="m903.125 309.73-.027-.062 2.734-1.121.023.062zm0 0" style="fill:#0068b3;fill-opacity:1;fill-rule:evenodd;stroke:none" transform="translate(-890.281 -289.863)"></path><path d="m907.672 314.707-2.043-6.031zm0 0" style="fill:#fff;fill-opacity:1;fill-rule:evenodd;stroke:none" transform="translate(-890.281 -289.863)"></path><path d="m907.645 314.715-2.051-6.027.062-.02 2.051 6.027zm0 0" style="fill:#0068b3;fill-opacity:1;fill-rule:evenodd;stroke:none" transform="translate(-890.281 -289.863)"></path><path d="m907.188 314.91-2.133-6.015zm0 0" style="fill:#fff;fill-opacity:1;fill-rule:evenodd;stroke:none" transform="translate(-890.281 -289.863)"></path><path d="m907.156 314.918-2.129-6.012.063-.02 2.129 6.009zm0 0" style="fill:#0068b3;fill-opacity:1;fill-rule:evenodd;stroke:none" transform="translate(-890.281 -289.863)"></path><path d="m906.7 315.008-2.216-5.86zm0 0" style="fill:#fff;fill-opacity:1;fill-rule:evenodd;stroke:none" transform="translate(-890.281 -289.863)"></path><path d="m906.672 315.02-2.215-5.856.063-.027 2.214 5.86zm0 0" style="fill:#0068b3;fill-opacity:1;fill-rule:evenodd;stroke:none" transform="translate(-890.281 -289.863)"></path><path d="m906.262 315.195-2.328-5.808zm0 0" style="fill:#fff;fill-opacity:1;fill-rule:evenodd;stroke:none" transform="translate(-890.281 -289.863)"></path><path d="m906.234 315.203-2.332-5.808.063-.024 2.332 5.809zm0 0" style="fill:#0068b3;fill-opacity:1;fill-rule:evenodd;stroke:none" transform="translate(-890.281 -289.863)"></path><path d="m905.793 315.344-2.313-5.781zm0 0" style="fill:#fff;fill-opacity:1;fill-rule:evenodd;stroke:none" transform="translate(-890.281 -289.863)"></path><path d="m905.766 315.355-2.317-5.78.063-.024 2.316 5.781zM908.43 315.14l-.825 1.13.372-.137.597-.797zM908.387 314.438l-1.625 2.125.394-.13 1.399-1.913zM906.262 315.195l-.121.118-.13.043-.6.667.081.239.914-1.043zM906.785 315.059l-1.258 1.57.043.305 1.535-1.926zM907.684 314.66l-.082.188-.196.066-1.425 1.918.402-.148 1.469-2.004zm0 0" style="fill:#0068b3;fill-opacity:1;fill-rule:evenodd;stroke:none" transform="translate(-890.281 -289.863)"></path><use xlink:href="#k" width="100%" height="100%" x="734.958" y="443.675" style="fill:#000;fill-opacity:1" transform="translate(-890.281 -289.863)"></use><use xlink:href="#k" width="100%" height="100%" x="1071.54" y="443.235" style="fill:#000;fill-opacity:1" transform="translate(-890.281 -289.863)"></use><use xlink:href="#k" width="100%" height="100%" x="1124.651" y="442.94" style="fill:#000;fill-opacity:1" transform="translate(-890.281 -289.863)"></use><use xlink:href="#k" width="100%" height="100%" x="924.355" y="451.1" style="fill:#000;fill-opacity:1" transform="translate(-890.281 -289.863)"></use><use xlink:href="#k" width="100%" height="100%" x="1202.834" y="442.842" style="fill:#000;fill-opacity:1" transform="translate(-890.281 -289.863)"></use><use xlink:href="#k" width="100%" height="100%" x="859.644" y="443.675" style="fill:#000;fill-opacity:1" transform="translate(-890.281 -289.863)"></use><use xlink:href="#k" width="100%" height="100%" x="784.034" y="443.675" style="fill:#000;fill-opacity:1" transform="translate(-890.281 -289.863)"></use><use xlink:href="#k" width="100%" height="100%" x="993.368" y="443.099" style="fill:#000;fill-opacity:1" transform="translate(-890.281 -289.863)"></use><use xlink:href="#k" width="100%" height="100%" x="1195.386" y="545.557" style="fill:#000;fill-opacity:1" transform="translate(-890.281 -289.863)"></use><use xlink:href="#k" width="100%" height="100%" x="1185.83" y="553.558" style="fill:#000;fill-opacity:1" transform="translate(-890.281 -289.863)"></use><use xlink:href="#k" width="100%" height="100%" x="797.474" y="545.557" style="fill:#000;fill-opacity:1" transform="translate(-890.281 -289.863)"></use><use xlink:href="#k" width="100%" height="100%" x="789.523" y="553.558" style="fill:#000;fill-opacity:1" transform="translate(-890.281 -289.863)"></use><use xlink:href="#l" width="100%" height="100%" x="782.069" y="561.557" style="fill:#000;fill-opacity:1" transform="translate(-890.281 -289.863)"></use><use xlink:href="#k" width="100%" height="100%" x="859.081" y="545.557" style="fill:#000;fill-opacity:1" transform="translate(-890.281 -289.863)"></use><use xlink:href="#k" width="100%" height="100%" x="996.532" y="545.557" style="fill:#000;fill-opacity:1" transform="translate(-890.281 -289.863)"></use><use xlink:href="#k" width="100%" height="100%" x="925.069" y="545.557" style="fill:#000;fill-opacity:1" transform="translate(-890.281 -289.863)"></use><use xlink:href="#k" width="100%" height="100%" x="1138.62" y="545.557" style="fill:#000;fill-opacity:1" transform="translate(-890.281 -289.863)"></use><use xlink:href="#k" width="100%" height="100%" x="727.577" y="545.557" style="fill:#000;fill-opacity:1" transform="translate(-890.281 -289.863)"></use><use xlink:href="#k" width="100%" height="100%" x="1065.92" y="545.557" style="fill:#000;fill-opacity:1" transform="translate(-890.281 -289.863)"></use><use xlink:href="#k" width="100%" height="100%" x="1066.109" y="645.812" style="fill:#000;fill-opacity:1" transform="translate(-890.281 -289.863)"></use><use xlink:href="#k" width="100%" height="100%" x="920.08" y="646.065" style="fill:#000;fill-opacity:1" transform="translate(-890.281 -289.863)"></use><use xlink:href="#k" width="100%" height="100%" x="722.127" y="646.065" style="fill:#000;fill-opacity:1" transform="translate(-890.281 -289.863)"></use><use xlink:href="#k" width="100%" height="100%" x="855.378" y="646.065" style="fill:#000;fill-opacity:1" transform="translate(-890.281 -289.863)"></use><use xlink:href="#k" width="100%" height="100%" x="857.772" y="654.066" style="fill:#000;fill-opacity:1" transform="translate(-890.281 -289.863)" data-source="https://football-logos.cc"></use><!-- source: https://football-logos.cc --></svg>