<svg xmlns="http://www.w3.org/2000/svg" id="Calque_2" data-name="Calque 2" viewBox="0 0 322.48 357.87"><metadata xmlns:fl="https://football-logos.cc/cyprus/aris-limassol">dl1_2ad64d131395299d611839a1e5900545999e7f600de6c5f685801f1bc6a26856</metadata><!-- Source: https://football-logos.cc --><defs data-source="https://football-logos.cc"><style>.cls-1{fill:#fff}.cls-2{fill:#02b13e}</style></defs><g id="Layer_1" data-name="Layer 1" data-source="https://football-logos.cc"><path d="M315.22 149.83h7v7c0 50.5-16.67 87.45-30.66 109.55-15.26 24.12-30.53 36.2-31.17 36.7l-7.93 6.2-6.97-21.89c-11.87 15.92-37.1 44.13-80.83 68.57l-3.42 1.91-3.42-1.91c-43.73-24.44-68.96-52.65-80.83-68.57l-6.97 21.89-7.93-6.2c-.64-.5-15.91-12.58-31.17-36.7C16.93 244.28.26 207.33.26 156.83v-7h7c19.12 0 28.03-8.15 28.03-25.66 0-29.11-29.4-53.84-29.69-54.08L0 65.46 52.12 6.87 58.13 0l3.58 5.31c.32.48.63.97.94 1.46 1.37 2.21 6.98 10.12 16.89 10.12 10.75 0 18.43-1.97 26.56-4.06 8.33-2.15 16.95-4.36 28.67-4.36 12.33 0 21.31 4.39 26.47 7.84 5.16-3.45 14.14-7.84 26.47-7.84s20.34 2.21 28.67 4.36c8.13 2.09 15.81 4.06 26.56 4.06 9.91 0 15.52-7.91 16.89-10.12.31-.49.62-.98.94-1.46L264.35 0l6.01 6.87 52.12 58.59-5.6 4.63c-.29.24-29.69 24.97-29.69 54.08 0 17.51 8.91 25.66 28.03 25.66" class="cls-1"></path><path d="m265.13 11.52 47.3 53.17S280.2 91.3 280.2 124.17c0 18.05 8.72 32.66 35.02 32.66 0 94.51-59.14 140.74-59.14 140.74l-8.32-26.15s-23.71 43.34-86.51 78.44c-62.8-35.1-86.51-78.44-86.51-78.44l-8.32 26.15S7.27 251.34 7.27 156.83c26.31 0 35.03-14.61 35.03-32.66 0-32.88-32.24-59.48-32.24-59.48l47.29-53.17s6.08 12.37 22.19 12.37c22.99 0 33.29-8.42 55.22-8.42 17.13 0 26.47 9.74 26.47 9.74s9.34-9.74 26.47-9.74c21.93 0 32.24 8.42 55.22 8.42 16.12 0 22.19-12.37 22.19-12.37" class="cls-2"></path><path d="M311.01 160.87s-66.99 30.92-149.77 30.92-149.76-30.91-149.77-30.92c.36 19.69 3.39 38.7 9.01 56.57.64 2.04 1.32 4.06 2.03 6.07 22.29 8.6 75.97 26.37 138.73 26.37s116.44-17.77 138.73-26.37c.73-2.09 1.44-4.19 2.1-6.31 5.57-17.8 8.57-36.72 8.94-56.33M292.97 79.6c5.2-6.95 10.38-12.22 13.58-15.24l-41.07-46.17c-3.77 4.29-10.91 9.87-22.55 9.87s-20.89-2.24-29.33-4.42c-8.01-2.06-15.58-4.01-25.89-4.01-14.99 0-23.14 8.13-23.48 8.47l-3.04 3.1-2.96-3.12c-.32-.33-8.47-8.46-23.46-8.46-10.31 0-17.88 1.95-25.89 4.01-8.45 2.17-17.18 4.42-29.33 4.42S60.77 22.47 57 18.18L15.93 64.36c3.21 3.02 8.38 8.3 13.58 15.24 2.36 3.15 4.48 6.33 6.36 9.52h250.74c1.88-3.19 4-6.37 6.36-9.52" class="cls-1"></path><path d="M106.78 81.19H94.27L89.3 71.6H66.53l-4.7 9.59h-12.2l22.19-42.2h12.16l22.81 42.2ZM85.6 64.49l-7.85-15.66-7.69 15.66h15.55Zm29.27 16.7v-42.2h21.49q10.5 0 13.68.63c3.26.63 6 2.01 8.2 4.13q3.3 3.18 3.3 8.22c0 2.59-.64 4.77-1.9 6.53a13.4 13.4 0 0 1-4.84 4.16c-1.96 1.01-3.95 1.67-5.97 2-2.75.4-6.72.6-11.93.6h-10.53v15.92h-11.5Zm11.5-35.06V58.1h9.33q6.795 0 9.09-.66t3.6-2.07c.87-.94 1.3-2.03 1.3-3.28 0-1.53-.61-2.8-1.83-3.8s-2.76-1.62-4.62-1.87c-1.37-.19-4.13-.29-8.28-.29zm44.71 35.06v-42.2h12.04V55.6h23.59V38.99h12.04v42.2h-12.04V62.74h-23.59v18.45zm80.3-7.14L269.3 61.1l-18.82-14.97h20.66v-7.14h-40.65v1.66L256.2 61.1l-25.71 18.59v1.51h42.38v-7.14h-21.49ZM67.64 226.64l-8.95-2.72-10.61-29.8-9.61 23.66-8.82-2.68 13.5-30.84 9.65 2.93 14.85 39.44Zm14.37-3.51v-8.4l15.6 3.23v-6.4l-15.6-3.23V201l16.36 3.38v-6.4l-24.88-5.15v34.93l25.22 5.22v-6.4l-16.7-3.46Zm32.54-22.73-7.52-.76v34.93l8.66.88v-21.81l9.39 11.9 1.3.13 9.39-10v21.81l8.66.88v-34.93l-7.53-.76-11.17 11.82zm48.23 31.51v-8.4l15.93-.24v-6.4l-15.93.24v-7.33l16.7-.25v-6.4l-25.4.39v34.94l25.75-.39v-6.4l-17.05.26Zm65.41-29.85c-3.61 4.36-5.41 8.94-5.41 13.72s1.82 8.68 5.45 11.43q5.445 4.125 14.13 2.25c5.72-1.23 10.4-4.02 14.06-8.35 3.65-4.34 5.48-8.92 5.48-13.76s-1.8-8.56-5.4-11.38q-5.4-4.23-14.13-2.34c-5.84 1.26-10.56 4.07-14.17 8.43Zm6.33 18.9c-1.98-1.53-2.97-3.89-2.97-7.07s.99-5.99 2.97-8.37 4.59-3.92 7.84-4.62c3.23-.7 5.82-.28 7.8 1.24 1.97 1.52 2.96 3.89 2.96 7.09s-.99 5.97-2.96 8.35q-2.955 3.57-7.8 4.62c-3.24.7-5.86.28-7.84-1.25Zm-33.22 8.62 11.6-10.61v-3.99l-11.6-7.53 12.37-1.38v-6.4l-25.25 2.82v6.4l14.15 9.19-14.15 12.94v6.4l25.6-2.86v-6.4zm78.88-17.04 11.57-13.26v-3.99l-11.6-4.86 13.24-4.33v-6.4l-24.15 7.9v6.4l14.15 5.9-14.15 16.23v6.4l24.48-8.01v-6.4l-13.54 4.43Z" class="cls-2"></path><path d="m199.5 131.57-28.84-1.2-9.42-29-9.42 29-28.84 1.2L146 148.29l-9.43 29 24.67-17.92 24.67 17.92-9.42-29z" class="cls-1"></path></g><!-- source: https://football-logos.cc --></svg>