<svg xmlns="http://www.w3.org/2000/svg" viewBox="121.72 66.74 456.57 566.51"><metadata xmlns:fl="https://football-logos.cc/bolivia/aurora">dl1_b14d593625f290cf4ca743f887f2b6bc1c4cb3eb0647e954ad223ab6e9e8363a</metadata><!-- Source: https://football-logos.cc --><path d="M349.35 66.745c2.514 2.883 4.778 5.958 7.185 8.937 9.675 12.011 21.568 22.485 34.008 31.553 19.566 14.228 41.527 25.691 63.739 35.188 34.604 14.74 71.126 25.548 107.91 33.305 9.629 43.792 16.469 88.5 16.076 133.448.012 53.145-10.105 105.635-33.604 153.526-22.33 45.495-56.005 84.079-96.305 114.572-29.396 22.319-61.45 40.05-95.149 54.98a13.6 13.6 0 0 1-3.55 1.001c-3.862-.93-7.52-2.92-11.13-4.528-25.5-11.475-50-25.345-72.736-41.634-34.532-24.714-64.62-55.279-87.69-91.003-29.635-45.495-46.89-97.425-53.383-151.178-5.398-45.877-3.587-92.79 5.958-138.011 2.359-10.868 5.183-21.818 9.127-32.221 7.472-1.573 14.931-3.253 22.319-5.148 37.678-9.747 75.512-22.426 110.426-39.728 22.974-11.809 45.876-25.846 63.333-45.162 5.136-5.517 9.116-11.784 13.465-17.897" style="fill:#febe10;stroke-width:1.19160044" data-source="https://football-logos.cc"></path><path d="M350.1 87.872c22.605 26.096 54.456 45.59 85.45 60.164 36.832 17.17 76.334 29.504 115.93 38.44 9.521 44.781 15.67 91.146 13.835 136.999-1.525 39.978-8.96 79.408-24.368 116.42-15.563 37.82-39.466 71.972-68.899 100.296-35.068 33.854-77.859 60.01-122.353 79.54-42.624-18.59-83.817-44.233-116.932-77.073-32.614-31.673-57.912-70.519-74.2-112.928-20.318-52.669-27.205-110.926-22.975-167.039 2.014-25.929 6.077-52.156 13.858-77.013 19.614-4.492 39.085-9.783 58.21-16.062 28.694-9.319 57.28-20.71 83.686-35.355 22.128-12.452 42.433-26.704 58.758-46.39" style="fill:#4ebde5;stroke-width:1.19160044"></path><path d="M349.445 108.915c4.099 3.48 7.733 7.46 11.796 10.975 9.414 8.234 19.781 15.467 30.47 21.937 27.168 16.468 57.328 28.944 87.38 39.109 19.41 6.387 38.894 12.035 58.924 16.158 7.77 34.58 13.299 69.446 14.443 104.92 1.465 45.639-4.457 90.979-21.819 133.424-15.598 38.477-40.288 72.807-71.114 100.559-31.888 28.992-70.27 51.572-109.842 68.374-8.163-3.67-16.373-7.21-24.345-11.284-42.861-21.2-82.137-50.68-111.927-88.298-28.086-35.176-47.21-76.644-57.173-120.459-9.39-40.74-11.034-83.52-6.339-124.999 2.538-21.187 6.53-42.993 13.823-63.095 22.76-4.838 45.197-11.273 67.23-18.72 20.162-6.96 39.87-14.812 58.9-24.464 17.374-8.984 34.116-19.16 48.475-32.554 3.956-3.635 7.304-7.817 11.118-11.583" style="fill:#fff;stroke-width:1.19160044"></path><path d="M350.017 129.554c3.622 2.324 6.72 5.481 10.14 8.09 9.712 7.556 20.09 14.288 30.743 20.437 26.454 15.038 55.148 26.847 83.937 36.534 16.849 5.565 33.889 10.534 51.179 14.514l1.68 8.186c-121.03 44.435-241.99 89.072-363.01 133.543-2.787-21.294-3.788-42.874-2.68-64.323 1.263-26.239 4.993-52.859 12.655-78.026 36.14-8.543 71.948-19.852 105.85-35.057 21.567-9.937 41.991-20.912 60.402-36.093 3.086-2.526 5.862-5.493 9.104-7.805" style="fill:#4ebde5;stroke-width:1.19160044"></path><path d="M349.409 184.248c3.098 6.387 6.196 12.786 9.425 19.114a4174 4174 0 0 1 20.818 3.062c-4.874 5.088-10.07 9.83-15.098 14.752a6364 6364 0 0 1 3.54 20.877c-6.269-3.194-12.453-6.518-18.673-9.795-6.208 3.277-12.357 6.637-18.59 9.854 1.12-6.935 2.23-13.87 3.373-20.805-5.136-4.838-10.212-9.747-15.3-14.62 7.018-1.133 14.049-2.205 21.067-3.337 3.218-6.328 6.328-12.715 9.438-19.102m-114.191 41.599a554 554 0 0 1 9.318 18.875c7.03 1.001 14.049 2.038 21.056 3.122-5.029 4.97-10.236 9.76-15.17 14.836 1.109 6.935 2.36 13.846 3.492 20.77-6.256-3.23-12.464-6.567-18.708-9.832a2312 2312 0 0 1-18.553 9.915c1.108-6.96 2.252-13.918 3.36-20.877-5.124-4.826-10.224-9.676-15.24-14.621 6.815-1.311 13.965-1.692 20.65-3.515 3.384-4.636 5.362-10.403 8.15-15.444a809 809 0 0 1 1.645-3.229" style="fill:#febe10;stroke-width:1.19160044"></path><path d="M493.962 244.925c13.68 24.654 27.085 49.44 40.705 74.117-7.019 2.705-14.097 5.255-21.151 7.853-2.121-4.54-4.206-9.08-6.304-13.62-2.311.87-4.623 1.74-6.935 2.621 1.311 4.779 2.634 9.557 3.992 14.335-7.09 2.765-14.24 5.363-21.4 7.948-6.114-27.478-12.5-54.909-18.459-82.423 9.879-3.527 19.697-7.22 29.552-10.831m-51.322 23.391c4.873 1.763 7.924 5.696 10.164 10.2 2.36 5.052 4.576 10.736 4.743 16.36.047 4.362-3.218 6.173-6.232 8.556 3.336.382 7.03.286 9.759 2.526 3.014 2.288 4.409 6.4 5.755 9.795 3.063 8.342 6.244 16.647 9.14 25.036-6.387 2.335-12.762 4.695-19.15 7.007-4.158-10.403-7.304-21.366-12.082-31.47-1.37-3.254-4.004-1.788-6.828-2.205 4.135 12.011 8.723 23.868 13.084 35.808a1048 1048 0 0 1-20.686 7.65c-9.688-26.144-19.316-52.3-28.944-78.467 9.068-3.325 18.088-6.888 27.311-9.76 4.469-1.322 9.402-2.693 13.966-1.036" style="fill:#4ebde5;stroke-width:1.19160044"></path><path d="M487.563 270.699c4.588 9.533 9.104 19.101 13.751 28.61l-6.542 2.395c-2.383-9.056-4.719-18.136-6.566-27.323zm-56.649 13.453c4.135 1.919 5.482 7.984 6.638 12 1.406 3.598-1.86 4.468-3.98 6.506-2.264-5.875-4.41-11.797-6.554-17.707 1.299-.275 2.597-.537 3.896-.799" style="fill:#fff;stroke-width:1.19160044"></path><path d="M369.738 289.157c6.684-1.561 13.87-1.37 19.566 2.848 4.73 3.396 6.875 8.424 9.008 13.62 3.384 8.603 6.482 17.314 9.7 25.989 1.8 5.1 3.92 10.355 4.885 15.693 1.001 5.481-.178 11.284-3.61 15.717-3.813 5.005-9.986 8.33-15.956 10.01-6.637 1.751-13.965 1.835-19.888-2.062-3.753-2.347-6.172-5.886-7.971-9.866-3.015-6.72-5.398-13.74-7.996-20.639-2.705-7.602-5.863-15.145-7.96-22.95-1.466-5.422-1.12-11.153 1.787-16.027 3.885-6.554 11.225-10.558 18.435-12.333" style="fill:#4ebde5;stroke-width:1.19160044" data-source="https://football-logos.cc"></path><path d="M372.871 303.468c3.647 4.206 5.017 10.63 7.09 15.741 4.457 12.774 9.962 25.298 13.477 38.358-1.525.286-3.384 1.299-4.945.953-1.763-2.383-2.86-5.41-3.932-8.163-3.587-9.902-7.245-19.756-10.891-29.623-1.847-5.004-4.17-9.985-4.66-15.348 1.192-1.06 2.3-1.656 3.861-1.918" style="fill:#fff;stroke-width:1.19160044"></path><path d="M328.377 311.166c4.73 2.037 7.52 6.125 9.664 10.617 2.216 4.933 4.361 10.57 4.278 16.039 0 3.968-3.408 5.874-6.09 8.162 3.027.322 6.4.155 8.985 1.978 3.373 2.157 4.683 5.887 6.125 9.426 3.206 8.603 6.34 17.23 9.545 25.834-6.41 2.395-12.822 4.778-19.268 7.078-4.397-11.273-7.758-23.165-13.299-33.949-1.846.19-3.693.405-5.54.62 4.242 11.88 8.746 23.653 13.036 35.521a3303 3303 0 0 1-20.65 7.591c-9.665-26.168-19.364-52.323-28.957-78.515 9.26-3.253 18.387-6.982 27.765-9.854 4.683-1.347 9.723-2.586 14.406-.548m-53.646 14.704c6.816 18.494 13.656 36.987 20.472 55.481 1.56 4.385 3.23 8.913 3.027 13.644-.215 5.54-3.003 10.665-7.245 14.156-4.362 3.587-9.914 5.815-15.408 6.911-6.315 1.216-13.596.644-18.827-3.42-4.6-3.467-6.673-9.95-8.758-15.121a7445 7445 0 0 1-20.079-54.42c6.888-2.515 13.751-5.065 20.615-7.603a15252 15252 0 0 1 19.78 53.539c1.657 4.373 2.837 9.008 5.947 12.607a23.5 23.5 0 0 0 3.348-1.752c-.727-5.839-3.05-10.724-5.017-16.182-6.172-16.754-12.404-33.496-18.529-50.261 6.9-2.503 13.775-5.077 20.674-7.579" style="fill:#4ebde5;stroke-width:1.19160044"></path><path d="M311.873 326.8c1.883.274 4.195.107 5.91.989 2.872 3.777 4.445 8.972 4.91 13.655-1.31 1.335-2.788 2.538-4.182 3.79-2.42-6.09-4.743-12.167-6.638-18.434" style="fill:#fff;stroke-width:1.19160044"></path><path d="M538.051 332.245c-1.418 28.491-6.065 56.565-15.36 83.579-11.928 35.08-31.565 67.242-57.042 94.136-32.03 33.937-73.438 60.093-115.99 78.777-39.942-17.719-76.608-41.027-107.113-72.533-16.635-17.147-30.958-36.403-42.66-57.208 112.714-42.278 225.416-84.58 338.165-126.75m-328.596 17.659c13.597 24.702 27.085 49.475 40.67 74.189-7.043 2.657-14.109 5.23-21.163 7.84-2.085-4.54-4.159-9.08-6.208-13.643-2.336.881-4.671 1.751-6.995 2.633a1233 1233 0 0 1 3.944 14.407 6510 6510 0 0 1-21.33 7.888c-6.148-27.466-12.487-54.897-18.481-82.4a2930 2930 0 0 0 29.563-10.914" style="fill:#4ebde5;stroke-width:1.19160044"></path><path d="M202.866 375.417c4.73 9.592 9.151 19.328 14.049 28.837-2.157.834-4.314 1.668-6.47 2.514-2.789-9.009-4.779-18.327-6.84-27.538-.25-1.263-.5-2.538-.74-3.813M307.941 482.28c.262 13.798.06 27.597.12 41.396l-8.056-.036c.036-9.509-.048-19.018.072-28.527a157 157 0 0 1-10.105 5.565c-.036-2.467-.072-4.933-.084-7.4 5.506-2.729 8.497-5.493 12.06-10.45 1.99-.239 3.991-.37 5.993-.548m34.545 5.505c2.931 3.98 3.586 9.628 3.73 14.418.07 5.279-.406 11.535-3.278 16.11-3.741 6.078-12.63 8.056-18.66 4.362-2.872-1.645-3.932-5.732-5.16-8.592 2.455-.25 4.898-.488 7.353-.715 1.81 1.728 3.098 5.243 6.172 4.254 4.087-.81 4.409-6.732 5.577-9.914-4.254 1.645-7.781 3.48-12.321 1.359-9.152-4.159-9.629-19.352-1.156-24.476 5.576-3.432 13.81-2.216 17.743 3.194m33.4 3.682c.942 4.623-1.597 7.03-4.444 10.105 2.061 1.632 5.052 3.372 5.862 6.005 1.18 4.087.525 8.604-2.204 11.94-4.636 5.815-14.192 6.518-19.96 2.062-2.645-1.99-3.777-5.875-5.04-8.818 2.574-.322 5.16-.632 7.733-.942 1.61 2.384 2.55 5.792 5.935 5.91 5.207.12 7.4-6.791 4.683-10.616-1.692-2.789-5.16-1.776-7.913-2.3.334-1.764.656-3.54.99-5.315 2.037-1.132 5.707-1.763 6.267-4.373 1.025-3.074-1.811-6.423-4.993-5.672-2.287.417-3.527 3.61-4.885 5.255a714 714 0 0 1-7.007-1.144c1.287-3.182 2.086-6.625 5.1-8.64 6.673-4.599 18.136-2.204 19.876 6.543m11.618-8.02c6.971 0 13.93 0 20.89-.023.035 2.49.059 4.98.082 7.47-4.897.013-9.783 0-14.68-.023a513 513 0 0 1-1.275 5.85c4.385-.178 8.234-1.167 12.035 1.621 6.947 4.755 7.352 15.575 1.966 21.652-4.397 5.267-13.048 5.755-18.66 2.264-3.337-2.097-4.326-5.744-5.827-9.152 2.61-.286 5.207-.56 7.817-.81 1.25 1.668 2.371 3.777 4.063 5.029 2.884 1.501 5.946-.024 7.126-2.884 1.537-3.658 1.299-9.27-2.765-11.213-3.002-1.454-6.053 1.037-8.65 2.36-2.05-.227-4.088-.477-6.137-.716 1.31-7.15 2.645-14.287 4.015-21.425" style="fill:#fff;stroke-width:1.19160044"></path><path d="M329.807 489.822c5.755-2.168 8.532 6.018 6.923 10.308-1.215 4.42-6.804 5.41-9.08 1.239-1.442-3.265-1.656-9.688 2.157-11.547" style="fill:#4ebde5;stroke-width:1.19160044" data-source="https://football-logos.cc"></path><!-- source: https://football-logos.cc --></svg>