<svg id="Layer_1" data-name="Layer 1" xmlns="http://www.w3.org/2000/svg" width="300" height="324.69" viewBox="0 0 300 324.69"><title>FC Ballkani logo - Brandlogos.net</title><g id="_944610144" data-name=" 944610144"><path id="path7" d="M384,546.34C253.2,472.86,231.92,380.17,234.15,247.55c50-16.25,99.87-25.32,149.85-25.9,50,.58,99.87,9.65,149.85,25.9C536.08,380.17,514.8,472.86,384,546.34Z" transform="translate(-234 -221.66)" style="fill:#fffd07"/><path id="path9" d="M384,534.47c49.57-28.62,91.3-65.15,115-118.59,16.91-38.27,22.76-81.23,24.25-123.62-46.43-15.75-92.78-28-139.21-28.54-46.43.58-92.86,12.78-139.21,28.54,1.48,42.39,7.34,85.36,24.25,123.62C292.7,469.32,334.43,505.85,384,534.47Z" transform="translate(-234 -221.66)" style="fill:#6c6ab1"/><path id="path11" d="M260.62,393.86l165.6-126.59a426.77,426.77,0,0,1,44.53,9.15L274.23,426.68c-1.81-3.55-3.55-7.09-5.2-10.8C265.9,408.7,263.1,401.28,260.62,393.86Z" transform="translate(-234 -221.66)" style="fill:#ff6302"/><path id="path13" d="M274.23,426.68,470.76,276.42c13.69,3.46,27.3,7.59,40.91,12L292.29,456.12A211.31,211.31,0,0,1,274.23,426.68Z" transform="translate(-234 -221.66)" style="fill:#0b1009"/><path id="path15" d="M292.29,456.12,511.67,288.46c3.88,1.24,7.67,2.47,11.55,3.79-.33,9.81-.91,19.63-1.81,29.36L313.16,480.78A238.87,238.87,0,0,1,292.29,456.12Z" transform="translate(-234 -221.66)" style="fill:#ff6302"/><path id="path19" d="M254.27,279.39l-8.08-25.9,17.4-5.44,1.81,5.77-10.47,3.3,1.57,5,9.81-3.13,1.81,5.69-9.9,3.13,3,9.32Zm40.91-22.76.16.74c.91,3.38.82,6.1-.25,8s-3.38,3.3-6.76,4.21l-2.39.66c-3.71,1-6.52.82-8.41-.33s-3.38-3.79-4.45-7.75l-1.48-5.44c-1-4-1-6.93.08-8.91s3.38-3.46,7.09-4.45l2-.49c3.63-1,6.43-1,8.25,0s3.22,3.3,4.12,6.76l.08.49-6.93,1.9-.16-.49a3.54,3.54,0,0,0-1.48-2.31,4.71,4.71,0,0,0-3.05,0c-1.57.41-2.47,1-2.8,1.73s-.25,2.14.33,4.45l1.15,4.29c.58,2.23,1.24,3.55,1.9,4s1.73.41,3.3,0a4.25,4.25,0,0,0,2.72-1.57,4.19,4.19,0,0,0,0-3.05l-.16-.58Zm16-20.87,12.54-2.31c3.3-.66,5.69-.58,7.17.08s2.47,2.14,2.89,4.45l.33,1.65a5.28,5.28,0,0,1-.49,3.71,5.51,5.51,0,0,1-3.05,2.14,6.89,6.89,0,0,1,4,1.15,5.14,5.14,0,0,1,1.9,3.3l.33,1.57c.41,2.47.08,4.37-1.07,5.69s-3.63,2.23-7.34,2.89l-12.29,2.31Zm8.16,4.54.91,4.78,5-1a2.32,2.32,0,0,0,1.57-.66,2.35,2.35,0,0,0,.25-1.57l-.25-1.07a1.48,1.48,0,0,0-.74-1.24,2.21,2.21,0,0,0-1.73-.16Zm1.81,9.9.91,4.95,5.36-1a3.08,3.08,0,0,0,1.65-.74,1.8,1.8,0,0,0,.25-1.65l-.16-1.07a2.15,2.15,0,0,0-.82-1.4,2.62,2.62,0,0,0-1.81-.08Zm29.28-3.71,5.94-.66-4-10.89L352,235Zm-9.15,11.3L346.06,230l11.05-1.24,10.56,26.06-7.67.91-1.73-4.62-8.49,1L349,257Zm30.6-3.05-.49-27.05,7.34-.16.41,20.78,12-.25.16,6.35Zm23.42.08,2.14-27.05,7.26.58-1.57,20.78,12,.91-.49,6.27Zm23.34,2,4-26.8,7.17,1.07-1.57,10.06.58.08,8-9.07,8.49,1.32-10.8,11.63,7.67,15.26L433.4,259,428,247.3l-.58-.08-1.57,10.64Zm35.87-4.21,5.86,1.32-.25-11.55-.49-.08Zm-12.29,7.83,13.36-24.82,11,2.39,1.65,28.12-7.59-1.65-.16-4.95L452,257.7l-2.14,4.37Zm29.94,6.76L479.34,241l10.39,2.89,2.8,21.61,5.36-19.38,6.68,1.81-7.17,26.14-10.47-2.89-2.72-21.77L478.84,269Zm31.26,9,8.25-25.81,6.93,2.23-8.16,25.81Z" transform="translate(-234 -221.66)" style="fill:#0b1009"/><polygon id="polygon21" points="226.53 77.36 190.33 122.47 238 89.65 195.44 128.9 247.48 103.58 199.56 136 254.74 118.76 202.53 143.66 259.77 134.84 204.35 151.66 262.24 151.42 205.01 159.83 262.24 168.24 204.35 168.08 259.77 184.9 202.53 176.08 254.74 200.98 199.56 183.75 247.48 216.16 195.44 190.84 238 230.01 190.33 197.27 226.53 242.38 184.31 202.88 213.42 252.86 177.46 207.5 198.82 261.27 170.12 211.04 183.15 267.45 162.21 213.52 166.74 271.17 154.12 214.67 150 272.4 145.88 214.67 133.18 271.17 137.71 213.52 116.85 267.45 129.88 211.04 101.18 261.27 122.45 207.5 86.58 252.86 115.69 202.88 73.38 242.38 109.67 197.27 62 230.01 104.56 190.84 52.52 216.16 100.44 183.75 45.18 200.98 97.47 176.08 40.23 184.9 95.57 168.08 37.76 168.24 94.99 159.83 37.76 151.42 95.57 151.66 40.23 134.84 97.47 143.66 45.18 118.76 100.44 136 52.52 103.58 104.56 128.9 62 89.65 109.67 122.47 73.38 77.36 115.69 116.86 86.58 66.88 122.45 112.24 101.18 58.47 129.88 108.61 116.85 52.29 137.71 106.22 133.18 48.58 145.88 104.99 150 47.26 154.12 104.99 166.74 48.58 162.21 106.22 183.15 52.29 170.12 108.61 198.82 58.47 177.46 112.24 213.42 66.88 184.31 116.86 226.53 77.36" style="fill:#fffd07"/><path id="path23" d="M384,333.24a48.15,48.15,0,1,0,34.14,14.1A48,48,0,0,0,384,333.24Zm-34.8,13.44a49.18,49.18,0,1,1-14.43,34.8A49,49,0,0,1,349.2,346.68Z" transform="translate(-234 -221.66)" style="fill:#070719"/><path id="path25" d="M384,333.24a48.15,48.15,0,1,0,34.14,14.1A48,48,0,0,0,384,333.24Z" transform="translate(-234 -221.66)" style="fill:#fff"/><path id="path27" d="M384.41,364.41l6.85,3.88,7.17,4.21,13.44-7.75V349.49L398,341.07l-6.76,3.88-6.85,4Zm-42.47,9.07a42.43,42.43,0,0,0-.82,8,40.49,40.49,0,0,0,.74,7.75l7,4,6.76,3.88,13.86-8V373.57l-13.86-8.08-6.76,4Zm-1,16a42.45,42.45,0,0,1-.74-8,45.84,45.84,0,0,1,.82-8.25l-4.54-2.64a48.66,48.66,0,0,1,14.51-25L356,348.5l13.53-8.16V335A49.9,49.9,0,0,1,384,332.74,48.92,48.92,0,0,1,398.43,335v5.36L412,348.5l5-2.89a49.23,49.23,0,0,1,14.51,25L427,373.24a45.78,45.78,0,0,1,.74,8.25,50.66,50.66,0,0,1-.66,8l4.54,2.64a49,49,0,0,1-14.43,25.07l-4.87-2.8-13.86,8.33v5.36A48.89,48.89,0,0,1,384,430.23a49.85,49.85,0,0,1-14.51-2.14v-5.36l-13.77-8.33-4.87,2.8a47.88,47.88,0,0,1-14.43-25.07Zm85.19-.25a48.37,48.37,0,0,0,.66-7.75,42.45,42.45,0,0,0-.74-8l-6.93-4-6.76-4-13.94,8.08v15.59l13.86,8,6.85-3.88Zm-14.27,24.33V398l-14.35-8.25-6.27,3.63-6.85,4v16.49l6.85,3.88,7,4.12Zm-42.14,8.25,7-4.12,6.76-3.88V397.32l-6.76-4-6.35-3.63L356.12,398v15.59Zm-13.61-72.33v15.26l13.44,7.75,7.17-4.21,6.76-3.88v-15.5l-6.76-4L370,341.07Z" transform="translate(-234 -221.66)" style="fill:#070719"/><path id="path31" d="M354.48,502.06h1.9v.08c0,.33.08.49.25.58a1.65,1.65,0,0,0,.74.16h.49c.33,0,.58,0,.66-.08a.5.5,0,0,0,.25-.49V502a.43.43,0,0,0-.16-.33,1.07,1.07,0,0,0-.66-.16l-1.65-.25a1.66,1.66,0,0,1-1.32-.58,1.6,1.6,0,0,1-.41-1.32v-.49a1.63,1.63,0,0,1,.16-.91,1.2,1.2,0,0,1,.49-.74,2.42,2.42,0,0,1,.66-.33c.25,0,.58-.08,1.15-.08h1.15a2.71,2.71,0,0,1,1.73.49,1.54,1.54,0,0,1,.58,1.32v.49h-1.9V499a.7.7,0,0,0-.16-.49c-.08-.08-.33-.08-.58-.08h-.49a1.42,1.42,0,0,0-.66.08.63.63,0,0,0-.16.41v.33c0,.25.25.41.82.49h0l1.48.16a2.46,2.46,0,0,1,1.48.58,1.71,1.71,0,0,1,.41,1.24v.74a2,2,0,0,1-.58,1.48,2.26,2.26,0,0,1-1.57.58h-1.65a3.06,3.06,0,0,1-1.9-.49,1.6,1.6,0,0,1-.58-1.4Zm7.34-5.2h2.06v4.45a3.06,3.06,0,0,0,.16,1.15,1.43,1.43,0,0,0,1,.25h.33a1.43,1.43,0,0,0,1-.25,3.06,3.06,0,0,0,.16-1.15v-4.45h2.06v4.54a5.15,5.15,0,0,1-.16,1.48,1.93,1.93,0,0,1-.41.82,1.35,1.35,0,0,1-.91.58,3.29,3.29,0,0,1-1.4.25h-1a3.29,3.29,0,0,1-1.4-.25,1.57,1.57,0,0,1-.91-.58,1.93,1.93,0,0,1-.41-.82,6.14,6.14,0,0,1-.16-1.48Zm8.16,7.59v-7.59h2v2.89h2.64v-2.89h2v7.59h-2v-3H372v3Zm10.47-2.89h1.65l-.74-3.13h-.16Zm-2.89,2.89,2.14-7.59h3.13l2.06,7.59h-2.14l-.33-1.32H380l-.33,1.32Zm10.31-4H389c.33,0,.58,0,.66-.16s.16-.33.16-.66v-.25c0-.33,0-.58-.16-.66s-.33-.16-.66-.16h-1.15Zm-2,4v-7.59h3.05a3.82,3.82,0,0,1,2.31.49,1.67,1.67,0,0,1,.66,1.57v.66a1.61,1.61,0,0,1-.33,1.15,1.72,1.72,0,0,1-1.07.58,1.86,1.86,0,0,1,1.07.49,1.4,1.4,0,0,1,.33,1.07v1.57h-2.06V503c0-.33,0-.49-.16-.66a1.07,1.07,0,0,0-.66-.16h-1.15v2.23Zm7.42,0v-7.59h5.61v1.73H395.3v1.32h3.55v1.4H395.3v1.4H399v1.73Zm7.09,0v-7.59h2v2.89h.16l1.81-2.89h2.39l-2.47,3.71,2.72,3.88h-2.47l-2-3.05h-.16v3.05Zm7.34,0v-7.59h5.69v1.73h-3.63v1.32h3.46v1.4h-3.46v1.4h3.71v1.73ZM411,496v-1.24h1.15V496Zm-1.81,0v-1.24h1.15V496Zm-38.68,15.59,2.56-2.23h2.23v7.5h-1.9v-5.53l-1.73,1.57Zm10.23-.82h-.41a1.19,1.19,0,0,0-.74.16.63.63,0,0,0-.16.41v.58a.7.7,0,0,0,.16.49c.08.08.33.08.74.08h.41c.33,0,.58,0,.66-.08a.7.7,0,0,0,.16-.49v-.58a.63.63,0,0,0-.16-.41A1.07,1.07,0,0,0,380.7,510.72Zm-3,4h1.81v.16a.63.63,0,0,0,.16.41c.08.08.25.08.58.08h.49c.33,0,.49,0,.58-.08a.79.79,0,0,0,.16-.58v-1.32a1.48,1.48,0,0,1-.58.41,1.61,1.61,0,0,1-.66.08h-.74a1.89,1.89,0,0,1-1.48-.49,2.1,2.1,0,0,1-.49-1.57v-.66a1.76,1.76,0,0,1,.58-1.48,3.06,3.06,0,0,1,1.9-.49h.91a2.38,2.38,0,0,1,1.9.66,3.64,3.64,0,0,1,.58,2.39v1.57a3.5,3.5,0,0,1-.58,2.39c-.33.49-1,.66-1.9.66H380a2.71,2.71,0,0,1-1.73-.41,1.3,1.3,0,0,1-.58-1.24Zm8.33-.82h2.14v-3.05Zm-1.65,1.48v-2l3-4.12h2.72v4.62H391v1.48h-.91v1.4h-1.9v-1.4Zm7.59-4.54v-1.57h5.69v1.48l-2.56,6h-2l2.47-5.94Z" transform="translate(-234 -221.66)"/></g></svg>