<svg xmlns="http://www.w3.org/2000/svg" viewBox="285.36 77.36 453.04 858.33"><metadata xmlns:fl="https://football-logos.cc/bolivia/blooming">dl1_c8a388c0dbd06b4d8c6f2456626a74bbe59da2b8232c805c2222e538c8a48102</metadata><!-- Source: https://football-logos.cc --><path fill-rule="evenodd" d="M697.48 157.51q-3.95-2.42-1.75-8.54 2.04-1.83 3.09-5.41.54-1.87 4-5.75c2.41-2.7 5.26-2.49 7.78-3.69 2.14-1.02 2.14-3.37-.09-4.34-2.37-1.02-4.9-.74-8.88-.93-5.45-.27-10.41 3.09-11.56 8.2q-.86 3.8-.19 10.82-.23 2.98-4.49 3.71-2.9-.12-4.4-2.97a2.456 2.437-61.48 0 1-.28-.96c-.33-3.66-.29-8.51-4.14-11.24q-7.65-5.44-16.07-1.31c-5.26 2.58-5.58 10.91-4.15 15.72q1.5 5.06 6.75 7.06c4.99 1.9 8.27-.13 12.02-2.79 1.57-1.12 5.01-.89 4.77 1.88l-.26 5.11q-1.76 4.33-6.78 5.48-10.1 2.32-17.66-2.97-5.2-3.64-8.86-8.53-.73-.97-2.77-1.82a2.088 2.035 51.855 0 0-1.05-.14c-7.93 1.01-18.98 1.88-25.52-4.09-3.54-3.25-5.92-6.77-5.96-11.56q.21-4.9 4.58-5.59c4.5-.4 5.08 1.97 7.23 4.56q5.17 8.09 12.7 7.82 5.32.27 8.2-3.97c3.76-5.53 6.08-13.33-1.01-17.32q-1.01-.95-2.88-1.76-9.54-1.88-16.35 4.4-3.61 2.27-6.58-.54-.76-1.7-.66-3.76 1.63-2.45 4.33-4.69 5.41-4.46 5.86-11.59c.56-8.99-7.16-11.9-14.75-11.58-12.23.5-13.12 11.79-9.15 20.57q.44.96-.03 3.77l-1.78 2.38c-5.22.73-6.78-2.04-9.43-5.51q-.91-2.38-3.9-4.81-5.12-4.18-11.17-4.4c-11.05-1.64-12.04 21.21-2.6 23.5q7.52 1.82 16.2-1.84.87-.37 4.91-.15a1.936 1.929 72.727 0 1 1.42.75q2.26 2.97.17 5.63-4.36 5.53-11.59 6.66c-10.87 1.7-18.37-3.61-26.26-10.31a1.439 1.435 45.857 0 0-1.82-.03q-4.23 3.35-9.43 4.37c-9.52 1.87-18.21.33-24.69-7.3a2.374 2.293-72.814 0 1-.46-.91q-.74-3.1-.33-4.57c2-7.15 8.81-2.33 13.02.45q4.53 3.4 10.99 2.62 6.27-.76 8.14-5.89 1.18-3.22.41-7.61c-.63-9.73-9.98-11.84-17.91-9.43q-3.58 1.82-5.77 5.47c-1.91 3.17-3.75 4.13-7.12 3.24a2.1 2.1-65.127 0 1-.88-.48c-6.21-5.65 1.17-10.34 3.2-14.72 5.74-12.41-6.97-17.12-16.56-15.86-8.65 1.13-14.83 9.07-9.12 17.36 2.83 4.11 6.13 7.71 3.67 11.61-1.3 2.08-3.47 2.22-5.68 2.02-2.11-.2-3.6-2.52-4.87-4.52q-3.01-4.75-8.78-4.83c-4.01-.48-7.75-.22-10.7 2.9q-4.45 4.98-2.63 13.93 1.09 5.33 7.09 6.43 7.96 1.47 12.8-2.66c3.13-2 5.45-4.1 9.48-3.25 3.05.64 3.1 4.43 2.56 6.8-1.09 4.75-8.91 8.76-12.83 9.47q-12.49 2.25-22.43-4.97a1.36 1.36-48.62 0 0-1.73.11q-4.45 4.19-9.53 7.27-8.11 4.92-17.79 2.98c-3.51-.7-6.63-2.62-9.12-4.77q-3.26-2.83-1.44-6.42c1.5-2.96 7.71-1.38 9.86-.37q5.22 2.6 11.01 1.65 4.06-.48 6.41-4.01 2.39-2.69 2.36-6.27.63-5.8-1.87-10.8c-2.24-4.49-9.04-4.01-12.75-2.21q-5.22 2.03-7.96 6.01-1.36 1.66-3.87 5.18-1.59 2.23-5.13 2.97-3.5-.87-4.17-4.63c1.23-5.4 3.19-9.43 1.85-14.85-1.19-4.8-4.37-6.97-9.19-7.48-8.15-.87-17.04 2.32-16.32 12.12q.38 5.26 4.22 9.56c1.4 1.56 4.9 3.34 5.4 5.71q.47 2.26-.42 4.05a1.299 1.286 4.83 0 1-.79.66c-4.82 1.39-5.86-.87-9.32-2.61q-.68-.5-1.54-.74-6.93-3.19-13.32-.26c-7.4 3.4-5.65 13.56-1.64 18.74 3.82 4.93 10.63 4.96 15.43 1.34q3.21-2.21 6.98-8.04 2.66-4.12 8.08-2.22l1.78 2.11c2.02 9.06-4.97 17.13-13.48 19q-8.39 1.85-17.56.38a2.829 2.825-66.007 0 0-2.65 1.02q-4.25 5.34-9.65 8.99c-7.06 4.77-18.49 6.25-24.57-.88q-1.02-2.88-.71-6.45.78-3.45 4.31-2.4a2.872 2.693-15.406 0 1 .95.5c3.8 3.03 5.69 4.77 11.01 3.49 2.6-.63 5.83-3.71 6.78-5.94q2.42-5.69.58-12.71a4.061 3.998 21.355 0 0-.55-1.23c-4.59-6.96-16.24-6.88-21.16-.27-3.2 4.29-.56 9.64-5.58 13.18q-4.66.31-6.26-2.98c.82-8.25 1.27-16.3-6.76-19.09q-2.37-.83-6.25-.59c-3.1.2-7.33.02-8.57 2.04a2.228 2.045 19.51 0 0 1.66 3.13q7.71 1.27 10.92 8.64 1.49 3.43 3.75 6.77 1.27 3.77-1.32 7.27a.285.283-37.865 0 1-.49-.06l-.54-1.37q-.57-3.82-2.19-7.32c-2.29-4.91-4.66-9.3-10.51-10.43-2.59-.5-5.5-2.33-5.43-5.14.1-4.28 6.1-5.95 9.71-6.14 6.93-.35 13.77-.28 17.14 6.35 1.43 2.79 2.25 5.52 1.95 9q-.37 4.37-.24 7.39a.806.796-89.219 0 0 .74.77q2.74.18 3.27-2.97c.69-4.05.08-7.17 3.44-10.75q4.33-4.6 10.74-5.06 14.08-.99 15.87 13 .19 1.45-.21 4.74c-.88 7.35-5.23 12.07-12.95 12.55-4.28.27-6.38-1.34-9.7-3.72a.889.885-68.415 0 0-1.4.61q-.55 4.53 3.88 6.42c10.17 4.34 20.83-3.81 26.61-11.61a4.192 4.188 21.358 0 1 3.82-1.67c10.57 1.18 28.03 2.34 29.11-12.87a2.716 2.523 7.736 0 0-2.2-2.68q-1.69-.33-2.49 1.14-3.88 7.09-11.08 10.16c-9.83 4.19-16.81-.3-19.4-9.62q-1.31-4.72-.47-8.49c2.01-9.06 12.45-11.96 20.3-8.91q3.01 1.17 7.72 4.75a1.697 1.691 39.636 0 0 2.28-.21l.07-.08a1.546 1.545-49.342 0 0-.17-2.24c-6.39-5.17-11.61-12.56-8.71-21.14 2.14-6.35 8.12-8.79 14.41-9.34 7.49-.65 13.77 2.91 15.44 10.48q1.41 6.43-1.24 12.18c-.61 1.32-.65 3.21.36 3.98a2.076 1.942-56.294 0 0 2.94-.69q1.35-2.3 3.73-5.6 6.53-9.04 17.56-9.13a4.387 4.195-34.972 0 1 1.3.2c8.85 2.88 9.88 11.84 8.65 19.92-1.32 8.68-11.07 11.94-18.6 9.64q-2.87-.88-7.27-2.45-1.8-.63-2.98-.04a2 1.697 58.475 0 0-.43 2.78q2.22 3.14 6.31 4.44c7.92 2.51 15.99.23 22.14-4.77q1.52-1.23 6.11-5.16a2.828 2.82-46.694 0 1 3.54-.11c8.78 6.64 22.18 7.91 30.33-.45q1.8-1.85 1.57-5.14a.752.75 4.134 0 0-.59-.68q-2.07-.45-3.13.19c-3.39 2.04-5.88 4.14-9.24 5.22-5.83 1.87-14.89 1.95-17.8-4.57q-2.96-6.65-1.39-14.16c.87-4.18 5.42-7.69 9.23-8.56 8.17-1.87 14.84-.41 19.33 7.45a2.797 2.791-30.06 0 0 3.84 1.02l.11-.07a2.739 2.734 59.698 0 0 .98-3.75q-.1-.17-3.03-4.23c-2.88-4.01-4.19-8.55-2.79-13.24 4.35-14.54 40.66-12.75 32.62 9.66a3.704 3.682-16.761 0 1-.53.98c-1.77 2.33-5.64 6.84-4.54 10.23a1.578 1.573 77.63 0 0 1.68 1.08q1.48-.18 2.41-1.45c3.31-4.5 6.22-7.29 11.52-8.18 8.93-1.51 18.27 2.85 18.16 12.95-.07 6.78-1.48 13.27-8.76 15.21-6.54 1.74-13.39-.39-18.45-4.7-1.52-1.3-5.43-2.65-5.96.39-.56 3.15 2.82 5.81 5.26 7.15 9.44 5.24 19.41 2.61 27.93-2.94a1.984 1.984 51.744 0 1 2.53.3q5.14 5.46 11.18 8.72c7.37 3.97 18.04 4.33 23.31-3.23a1.944 1.781-62.145 0 0-.75-2.87q-1.4-.5-2.97.18c-7.48 3.24-14.97 5.49-21.75.36-4.59-3.48-4.39-9.87-3.94-15.36 1.37-16.39 17.47-14.29 25.95-5.46 1.81 1.88 3.18 4.9 4.33 6.74.86 1.38 1.85 2.19 3.39 1.97a2.054 1.756 78.564 0 0 1.38-2.48c-.64-2.56-1.72-4.81-1.98-7.77-.71-8.01 3.03-15.25 11.9-16.29q7.88-.92 14.45 3.28 4.84 3.1 5 9.67c.2 7.71-4.24 12.48-9.71 17.15a1.864 1.86-32.956 0 0-.47 2.19l.03.06a1.252 1.249 61.426 0 0 1.79.53q.5-.31 3.83-2.62c6.21-4.29 15.86-4.74 21.42.55 6.82 6.5 3.67 17.44-2.47 23.09-6.17 5.69-14.34 1.54-20.17-2.63a12.855 12.784 89.543 0 1-2.9-2.87c-1.07-1.46-3.1-5.63-5.77-4.06a1.32 1.29-11.543 0 0-.63.93c-1.36 9.94 8.88 14.66 17.35 14.43q6.58-.18 12.37-.48a3.371 3.365-21.354 0 1 2.77 1.21c7.02 8.4 16.58 16.84 28.1 11.18a4.278 4.257-6.752 0 0 2.29-2.89l.47-2.05a1.003 1.003-8.611 0 0-1.48-1.09l-5.17 2.99a1.513 1.34-61.016 0 1-.48.17q-11.71 2.08-16.43-8.32-.75-1.65-.88-7.38-.25-10.22 8.42-13.63c6.25-2.46 12.56-.65 17.48 3.53 3.88 3.29 3.19 7.52 3.95 11.93a3.189 3.186 1.513 0 0 2.44 2.57l.04.01a1.709 1.707 5.886 0 0 2.08-1.69c-.06-4.74-1.15-11.01.76-14.73q3.19-6.24 10.06-6.82c4.72-.4 15.29-1.09 16.72 4.42 1.26 4.81-2.41 6.35-6.28 7.39q-3.34.9-5.79 4.46-5.07 7.38-5.7 15.12" data-source="https://football-logos.cc"></path><path fill="#edb91b" fill-rule="evenodd" d="M536.41 102.37q.89.21 1.04 1.21-4.15 3.21-4.91 4.71-2.62 5.2-.44 10.52a2.346 2.322 11.969 0 0 .48.73q1.43 1.46 2.2 3.14c-4.21-2.78-11.02-7.6-13.02-.45q-.41 1.47.33 4.57a2.374 2.293-72.814 0 0 .46.91c6.48 7.63 15.17 9.17 24.69 7.3q5.2-1.02 9.43-4.37a1.439 1.435 45.857 0 1 1.82.03c7.89 6.7 15.39 12.01 26.26 10.31q7.23-1.13 11.59-6.66 2.09-2.66-.17-5.63a1.936 1.929 72.727 0 0-1.42-.75q-4.04-.22-4.91.15-8.68 3.66-16.2 1.84c-9.44-2.29-8.45-25.14 2.6-23.5q-8.12 3.43-8.08 12.34.01 2.91 1.32 5.3a2.289 2.258 2.622 0 0 .74.8c2.2 1.5 3.63 3.34 6.32 4.08q7.78 2.12 12.68-4.54a1.991 1.968 69.671 0 0 .33-.73l1.76-8.04c2.65 3.47 4.21 6.24 9.43 5.51q-3.58 5.49-1.24 11.64 1.36 3.58 4.32 4.67.88.33 3.65.25 2.27-.07 3.56.74c.04 4.79 2.42 8.31 5.96 11.56 6.54 5.97 17.59 5.1 25.52 4.09a2.088 2.035 51.855 0 1 1.05.14q2.04.85 2.77 1.82 3.66 4.89 8.86 8.53 7.56 5.29 17.66 2.97 5.02-1.15 6.78-5.48.39 1.29.73 1.67 0 4.85 3.9 4.71-19.93 8.3-33.94-4.78-3.21-2.99-6.23-6.69a1.446 1.443-25.661 0 0-1.43-.5q-14.8 3.12-28.81-3.34c-5.49-2.54-8.28-6.23-11.99-10.65a2.409 2.39-31.324 0 0-2.76-.66c-7.09 2.96-15.23 3.63-22.6 2.72q-10.04-1.25-17.23-9.1a2.476 2.461 56.327 0 0-2.85-.58c-10.17 4.67-24 6.42-34.21.9-3.26-1.76-5.69-4.29-8.86-7.33a1.454 1.454-49.457 0 0-2.17.17c-9.82 12.93-28.57 12.63-41.83 6.39a2.8 2.8-56.27 0 0-3.26.65c-8.6 9.41-21.56 10.77-33.67 8.19q-2.15-.46-7.26-1.78a1.478 1.472 27.235 0 0-1.51.48c-3.23 3.84-6.71 7.93-11.42 10.41q-8.87 4.65-18.56 4.93c-3.69.11-8.01-.74-11.61-1.06a1.509 1.506-70.177 0 0-1.38.65q-13.85 20.29-38.54 12.58 2.28-1.81 2.53-3.85.18-1.46.74-2.61c6.08 7.13 17.51 5.65 24.57.88q5.4-3.65 9.65-8.99a2.829 2.825-66.007 0 1 2.65-1.02q9.17 1.47 17.56-.38c8.51-1.87 15.5-9.94 13.48-19q4.47 3.84 9.17 1.53c3.33-1.65 4.81-5.33 4.22-8.87q-.71-4.22-.42-6.12 3.54-.74 5.13-2.97 2.51-3.52 3.87-5.18-2.73 9.35 2.53 14.72.27.34.27.91c-2.15-1.01-8.36-2.59-9.86.37q-1.82 3.59 1.44 6.42c2.49 2.15 5.61 4.07 9.12 4.77q9.68 1.94 17.79-2.98 5.08-3.08 9.53-7.27a1.36 1.36-48.62 0 1 1.73-.11q9.94 7.22 22.43 4.97c3.92-.71 11.74-4.72 12.83-9.47.54-2.37.49-6.16-2.56-6.8-4.03-.85-6.35 1.25-9.48 3.25q5.76-7.62.06-15.12-2.71-3.57-7.72-4.81l-.83-.15a.198.195-48.466 0 1-.02-.38q.84-.3 1.95-.14 5.77.08 8.78 4.83c1.27 2 2.76 4.32 4.87 4.52 2.21.2 4.38.06 5.68-2.02 2.46-3.9-.84-7.5-3.67-11.61-5.71-8.29.47-16.23 9.12-17.36 9.59-1.26 22.3 3.45 16.56 15.86-2.03 4.38-9.41 9.07-3.2 14.72a2.1 2.1 64.856 0 0 .88.48c3.37.89 5.21-.07 7.12-3.24q2.19-3.65 5.77-5.47m-23.242 1.059a10.93 9.39-86.6 0 0-10.021 10.354 10.93 9.39-86.6 0 0 8.725 11.468 10.93 9.39-86.6 0 0 10.021-10.354 10.93 9.39-86.6 0 0-8.725-11.468"></path><path fill="#edb91b" fill-rule="evenodd" d="M422.12 117q-5.9-1.66-10.03 1.61-1.63 1.29-2.21 3.3-1.91 6.69 1.66 11.07-5.42-1.9-8.08 2.22-3.77 5.83-6.98 8.04.93-1.85 2.5-3.51.65-.7 1.33-3.26.21-.56-.03-.69 1.25-6.7-3.03-10.76-.06-.18-.1-.33a.3.294-21.002 0 1 .16-.35q.13-.05.24-.18c3.46 1.74 4.5 4 9.32 2.61a1.299 1.286 4.83 0 0 .79-.66q.89-1.79.42-4.05c-.5-2.37-4-4.15-5.4-5.71q-3.84-4.3-4.22-9.56c-.72-9.8 8.17-12.99 16.32-12.12 4.82.51 8 2.68 9.19 7.48 1.34 5.42-.62 9.45-1.85 14.85m194.14 5.29q-4.94-8.82-13.74-3.52.47-2.81.03-3.77c-3.97-8.78-3.08-20.07 9.15-20.57 7.59-.32 15.31 2.59 14.75 11.58q-.45 7.13-5.86 11.59-2.7 2.24-4.33 4.69"></path><path fill="#ab9972" fill-rule="evenodd" d="M484.5 101.66q-1.11-.16-1.95.14a.198.195-48.466 0 0 .02.38l.83.15q-4.23-.1-9.6 2.23c2.95-3.12 6.69-3.38 10.7-2.9m69.82 10.14-2.6-4.69a1.428 1.425 3.765 0 0-.36-.41l-3.5-2.7a1.548 1.473 72.996 0 0-.39-.22q-4.94-2.04-10.02-.2-.15-1-1.04-1.21c7.93-2.41 17.28-.3 17.91 9.43"></path><path fill="#0881fa" fill-rule="evenodd" d="M483.4 102.33q5.01 1.24 7.72 4.81 5.7 7.5-.06 15.12-4.84 4.13-12.8 2.66-6-1.1-7.09-6.43-1.82-8.95 2.63-13.93 5.37-2.33 9.6-2.23m70.92 9.47q.77 4.39-.41 7.61-1.87 5.13-8.14 5.89-6.46.78-10.99-2.62-.77-1.68-2.2-3.14a2.346 2.322 11.969 0 1-.48-.73q-2.18-5.32.44-10.52.76-1.5 4.91-4.71 5.08-1.84 10.02.2a1.548 1.473 72.996 0 1 .39.22l3.5 2.7a1.428 1.425 3.765 0 1 .36.41z"></path><path fill="#db0b08" fill-rule="evenodd" d="M513.168 103.429a10.93 9.39-86.6 0 1 8.725 11.468 10.93 9.39-86.6 0 1-10.021 10.354 10.93 9.39-86.6 0 1-8.725-11.468 10.93 9.39-86.6 0 1 10.021-10.354"></path><path fill="#edb91b" fill-rule="evenodd" d="M457.87 120.48q-.75-1.43-1.02-3.27-2.77-9.74-13.6-9.74c3.71-1.8 10.51-2.28 12.75 2.21q2.5 5 1.87 10.8"></path><path fill="#0881fa" fill-rule="evenodd" d="M576.24 106.43q6.05.22 11.17 4.4 2.99 2.43 3.9 4.81l-1.76 8.04a1.991 1.968 69.671 0 1-.33.73q-4.9 6.66-12.68 4.54c-2.69-.74-4.12-2.58-6.32-4.08a2.289 2.258 2.622 0 1-.74-.8q-1.31-2.39-1.32-5.3-.04-8.91 8.08-12.34m-132.99 1.04q10.83 0 13.6 9.74.29 4.92-1.34 9.54-2.35 3.53-6.41 4.01-5.85-.41-11.28-2.56-5.26-5.37-2.53-14.72 2.74-3.98 7.96-6.01"></path><path fill="#db0b08" fill-rule="evenodd" d="M422.12 117q.67 3.76 4.17 4.63-.29 1.9.42 6.12c.59 3.54-.89 7.22-4.22 8.87q-4.7 2.31-9.17-1.53l-1.78-2.11q-3.57-4.38-1.66-11.07.58-2.01 2.21-3.3 4.13-3.27 10.03-1.61m194.14 5.29q-.1 2.06.66 3.76l-1.31 6.81q-4.37.69-4.58 5.59-1.29-.81-3.56-.74-2.77.08-3.65-.25-2.96-1.09-4.32-4.67-2.34-6.15 1.24-11.64l1.78-2.38q8.8-5.3 13.74 3.52"></path><path fill="#ab9972" fill-rule="evenodd" d="M457.87 120.48q.03 3.58-2.36 6.27 1.63-4.62 1.34-9.54.27 1.84 1.02 3.27"></path><path fill="#0881fa" fill-rule="evenodd" d="M396.01 123.42q-.11.74 1.24 1.6 4.28 4.06 3.03 10.76l.03.69q-.68 2.56-1.33 3.26-1.57 1.66-2.5 3.51c-4.8 3.62-11.61 3.59-15.43-1.34-4.01-5.18-5.76-15.34 1.64-18.74q6.39-2.93 13.32.26m243.84-1.23q.53 1.62 2.58 2.55 2.81 2.93 3.1 6.49l.08 2.64q-1.18 8.33-10.07 11.37-7.53.27-12.7-7.82l.66-10.83q6.81-6.28 16.35-4.4"></path><path fill="#ab9972" fill-rule="evenodd" d="M642.73 123.95q-.25.42-.3.79-2.05-.93-2.58-2.55 1.87.81 2.88 1.76m-245.18.21q-.11.13-.24.18a.3.294-21.002 0 0-.16.35q.04.15.1.33-1.35-.86-1.24-1.6.86.24 1.54.74"></path><path fill="#edb91b" fill-rule="evenodd" d="M635.54 145.24q8.89-3.04 10.07-11.37.33-1.53-.08-2.64-.29-3.56-3.1-6.49.05-.37.3-.79c7.09 3.99 4.77 11.79 1.01 17.32q-2.88 4.24-8.2 3.97m-18.62-19.19q2.97 2.81 6.58.54l-.66 10.83c-2.15-2.59-2.73-4.96-7.23-4.56z"></path><path fill-rule="evenodd" d="M684.26 168.46q1.88-.78 3.49-.99 1.92-.25 2.06 1.61-2.87 2.46-4.36 3.14-1.04.48-5.05 2.56a.809.807-20.301 0 0-.42.91q.64 2.64-1.53 7.25-.35.75-.47 4.01a4.057 4.003-30.578 0 1-.46 1.74q-1.38 2.62-4.89 4.53a2.034 2.012 76.858 0 0-1.05 1.71c-.17 5.93-3.41 9.69-7.55 13.28a3.215 3.206-25.02 0 0-1.07 2.93c.69 4.45-.77 10.56-5.68 12.34-2.15.78-4.49.14-6.77.26a4.11 3.92-55.323 0 0-1.21.25q-28.95 10.99-54.33 14.64-15.85 2.28-43.72 3.78-31.17 1.68-63.99 1.1-3.54-.06-15.76-.69-4.96-.25-8.12-.69c-3.65-.5-6.87-.39-10.82-.84q-10.63-1.21-17.88-2.17-30.24-4.01-58.72-14.31a5.071 5.067-35.24 0 0-1.69-.29c-2.94.01-6.15.75-8.43-1.03q-5.88-4.6-3.62-11.61a1.817 1.814 28.488 0 0-.58-1.95c-4.91-3.99-8.74-7.85-8.62-14.67a1.202 1.199-75.115 0 0-.63-1.09c-3.31-1.81-6.25-3.52-5.39-7.96q.25-1.31-.45-2.25-2.29-3.04-1.56-7.78a1.292 1.287 10.521 0 0-1-1.45c-4.25-.91-6.53-3.83-9.92-6.4l2.71-.61a1.921 1.88 45.609 0 1 .94.02q2.5.73 4.42 2.32 24.69 7.71 38.54-12.58a1.509 1.506-70.177 0 1 1.38-.65c3.6.32 7.92 1.17 11.61 1.06q9.69-.28 18.56-4.93c4.71-2.48 8.19-6.57 11.42-10.41a1.478 1.472 27.235 0 1 1.51-.48q5.11 1.32 7.26 1.78c12.11 2.58 25.07 1.22 33.67-8.19a2.8 2.8-56.27 0 1 3.26-.65c13.26 6.24 32.01 6.54 41.83-6.39a1.454 1.454-49.457 0 1 2.17-.17c3.17 3.04 5.6 5.57 8.86 7.33 10.21 5.52 24.04 3.77 34.21-.9a2.476 2.461 56.327 0 1 2.85.58q7.19 7.85 17.23 9.1c7.37.91 15.51.24 22.6-2.72a2.409 2.39-31.324 0 1 2.76.66c3.71 4.42 6.5 8.11 11.99 10.65q14.01 6.46 28.81 3.34a1.446 1.443-25.661 0 1 1.43.5q3.02 3.7 6.23 6.69 14.01 13.08 33.94 4.78m-171.725-18.774q4.374-.008 11.429.226Q589.72 152.1 650.99 172.54q12.25 4.09 21.78 8.13a2.203 2.201-57.091 0 0 2.47-.53q1.41-1.5 1.65-4.4a1.131 1.125-1.45 0 0-1.28-1.21c-14 1.99-24.83-3.5-33.04-14.66a1.056 1.05-23.341 0 0-1.04-.41c-13.78 2.49-26.86.2-37.07-9.66q-1.99-1.92-4.22-4.51a1.366 1.361-28.906 0 0-1.43-.41q-14.41 4.55-28.09 1.23c-5.25-1.27-9.24-3.88-13.12-7.65a1.217 1.216 56.204 0 0-1.31-.26q-9.48 3.79-19.4 4-14.02.3-23.721-9.39-.279-.278-.668-.277-.39.001-.667.28-9.662 9.729-23.684 9.485-9.92-.17-19.416-3.922a1.217 1.216-56.434 0 0-1.308.265c-3.865 3.786-7.845 6.412-13.09 7.703q-13.666 3.375-28.094-1.117a1.366 1.361 28.676 0 0-1.429.416q-2.219 2.599-4.201 4.527c-10.171 9.901-23.241 12.243-37.031 9.808a1.056 1.05 23.111 0 0-1.039.415c-8.165 11.193-18.973 16.726-32.981 14.792a1.131 1.125 1.22 0 0-1.275 1.215q.252 2.9 1.668 4.394a2.203 2.201 56.861 0 0 2.472.52q9.514-4.078 21.747-8.218 61.188-20.686 126.934-23.138 7.054-.263 11.428-.272m-.22 9.918q34.171-.089 67.705 5.109 9.32 1.447 32.71 6.317 12.06 2.51 33.24 9.56 11.59 3.86 22.64 9.37a3.68 3.67 29.59 0 0 4.74-1.3l.09-.14a2.897 2.894-61.651 0 0-1.26-4.22q-21.32-9.39-41.51-14.95-6.08-1.67-19.43-5.01-12.18-3.04-19.58-4.3-27.43-4.68-55.16-6.936-8.513-.693-24.203-.652t-24.199.778q-27.718 2.399-55.124 7.221-7.393 1.299-19.557 4.402-13.333 3.409-19.404 5.11-20.161 5.665-41.432 15.165a2.897 2.894 61.354 0 0-1.238 4.227l.091.139a3.68 3.67-29.887 0 0 4.746 1.276q11.022-5.567 22.592-9.487 21.143-7.16 33.19-9.733 23.364-4.991 32.677-6.486 33.506-5.371 67.676-5.46M361.61 192.14q-1.95.48-3.73 1.91c-2.3 1.84-1.28 5.85.11 7.72 2 2.7 5.74 7.36 9.43 5.88q20.5-7.92 49.1-14.34 18.59-4.18 37.5-6.44 26.54-3.18 53.57-4.04l9.36-.18c2.4.1 4.89.48 7.07.51q23.91.4 47.66 3.39c10.05 1.26 17 2.7 27.32 4.44q7.21 1.22 20.14 4.14c12.18 2.76 24.51 6.63 36.71 10.47q4.21 2.49 7.88-1.1 2.95-2.88 4.47-6.2 1.22-2.65-.25-4.97a1.405 1.395 85.313 0 0-.62-.53l-3.44-1.51c-15.16-6.69-30.58-12.13-46.84-16.21q-12.1-3.03-17.43-4.15c-40.15-8.44-80.78-9.73-121.36-7.03q-16.04 1.06-40.4 4.94c-11.83 1.89-25.2 5.75-35.23 8.19-6.83 1.65-12.65 4.06-19.05 6-7.1 2.16-14.7 5.88-21.97 9.11m150.832 5.274q12.572-.039 29.309 1.172 33.129 2.394 63.229 9.484 23.69 5.57 43.47 11.79c6.09 1.91 12.6.88 11.31-7.31q-.33-2.12-2.85-3.05c-38.48-14.2-79.68-21.49-120.661-23.214q-9.684-.406-23.842-.363-14.159.044-23.84.51c-40.97 1.976-82.124 9.52-120.516 23.956q-2.514.946-2.831 3.068c-1.24 8.198 5.277 9.188 11.355 7.24q19.741-6.342 43.396-12.057 30.056-7.276 63.17-9.874 16.729-1.314 29.301-1.352M643.38 221.52a.384.381 41.18 0 0-.05-.7q-12.19-4.46-23.93-7.28c-16.66-3.99-31.05-7.43-46.79-9.39q-7.8-.97-15.34-1.91c-15.22-1.88-30.1-2.14-47.72-2.2q-25.41-.08-49.99 3.3-.95.13-19.75 3.29-9.61 1.61-19.59 4.08c-16.47 4.08-25.22 6.03-37.57 10.41a.781.778-43.159 0 0-.05 1.45q4.54 1.97 12.35 4.16c31 8.73 64.84 12.66 97.55 13q30.36.31 57.5-1.06 23.55-1.19 37.56-3.12 20.59-2.82 28.31-5.01 9.88-2.81 21.17-6.52 4.05-1.33 6.34-2.5"></path><path fill="#ab9972" fill-rule="evenodd" d="M449.1 130.76q-5.79.95-11.01-1.65 0-.57-.27-.91 5.43 2.15 11.28 2.56"></path><path fill="#edb91b" fill-rule="evenodd" d="M695.73 148.97q-2.6-1.69-5.85-1.1-.67-7.02.19-10.82c1.15-5.11 6.11-8.47 11.56-8.2 3.98.19 6.51-.09 8.88.93 2.23.97 2.23 3.32.09 4.34-2.52 1.2-5.37.99-7.78 3.69q-3.46 3.88-4 5.75-1.05 3.58-3.09 5.41m-360.95-.18q-2.5-.11-5.25.9-2.26-3.34-3.75-6.77-3.21-7.37-10.92-8.64a2.228 2.045 19.51 0 1-1.66-3.13c1.24-2.02 5.47-1.84 8.57-2.04q3.88-.24 6.25.59c8.03 2.79 7.58 10.84 6.76 19.09"></path><path fill="#ab9972" fill-rule="evenodd" d="m645.61 133.87-.08-2.64q.41 1.11.08 2.64"></path><path fill="#edb91b" fill-rule="evenodd" d="M512.501 132.533q.389-.001.668.277 9.701 9.69 23.721 9.39 9.92-.21 19.4-4a1.217 1.216 56.204 0 1 1.31.26c3.88 3.77 7.87 6.38 13.12 7.65q13.68 3.32 28.09-1.23a1.366 1.361-28.906 0 1 1.43.41q2.23 2.59 4.22 4.51c10.21 9.86 23.29 12.15 37.07 9.66a1.056 1.05-23.341 0 1 1.04.41c8.21 11.16 19.04 16.65 33.04 14.66a1.131 1.125-1.45 0 1 1.28 1.21q-.24 2.9-1.65 4.4a2.203 2.201-57.091 0 1-2.47.53q-9.53-4.04-21.78-8.13-61.27-20.44-127.026-22.628-7.055-.234-11.429-.226t-11.428.272q-65.746 2.452-126.934 23.138-12.233 4.14-21.747 8.218a2.203 2.201 56.861 0 1-2.472-.52q-1.416-1.494-1.668-4.394a1.131 1.125 1.22 0 1 1.275-1.215c14.008 1.934 24.816-3.599 32.981-14.792a1.056 1.05 23.111 0 1 1.039-.415c13.79 2.435 26.86.093 37.031-9.808q1.982-1.928 4.201-4.527a1.366 1.361 28.676 0 1 1.429-.416q14.428 4.492 28.094 1.117c5.245-1.291 9.225-3.917 13.09-7.703a1.217 1.216-56.434 0 1 1.308-.265q9.496 3.752 19.416 3.922 14.022.244 23.684-9.485.277-.279.667-.28M344.7 157.15l-3.66-5.38c5.02-3.54 2.38-8.89 5.58-13.18 4.92-6.61 16.57-6.69 21.16.27a4.061 3.998 21.355 0 1 .55 1.23q1.84 7.02-.58 12.71c-.95 2.23-4.18 5.31-6.78 5.94-5.32 1.28-7.21-.46-11.01-3.49a2.872 2.693-15.406 0 0-.95-.5q-3.53-1.05-4.31 2.4m13.651-.813c6.381-.611 10.329-8.183 8.527-14.225-1.354-4.538-5.823-6.68-10.484-6.234-4.662.446-8.644 3.396-9.113 8.108-.624 6.274 4.688 12.961 11.07 12.351m327.039-4.757q-3.41 1.67-4.32 4.24-.84.6-1.18 1.15c.24-2.77-3.2-3-4.77-1.88-3.75 2.66-7.03 4.69-12.02 2.79q-5.25-2-6.75-7.06c-1.43-4.81-1.11-13.14 4.15-15.72q8.42-4.13 16.07 1.31c3.85 2.73 3.81 7.58 4.14 11.24a2.456 2.437-61.48 0 0 .28.96q1.5 2.85 4.4 2.97m-16.894-16.554a10.37 10.02-84.6 0 0-10.952 9.381 10.37 10.02-84.6 0 0 9 11.267 10.37 10.02-84.6 0 0 10.952-9.381 10.37 10.02-84.6 0 0-9-11.267"></path><path fill="#db0b08" fill-rule="evenodd" d="M668.496 135.026a10.37 10.02-84.6 0 1 9 11.267 10.37 10.02-84.6 0 1-10.952 9.381 10.37 10.02-84.6 0 1-9-11.267 10.37 10.02-84.6 0 1 10.952-9.381m-312.102.852c4.661-.446 9.13 1.696 10.484 6.234 1.802 6.042-2.146 13.614-8.527 14.225-6.382.61-11.694-6.077-11.07-12.351.469-4.712 4.451-7.662 9.113-8.108"></path><path fill="#ab9972" fill-rule="evenodd" d="M400.28 135.78q.24.13.03.69z"></path><path fill="#0881fa" fill-rule="evenodd" d="M695.73 148.97q-2.2 6.12 1.75 8.54-1.38 7.6-7.67 11.57-.14-1.86-2.06-1.61-1.61.21-3.49.99-3.9.14-3.9-4.71l.71-7.93q.91-2.57 4.32-4.24 4.26-.73 4.49-3.71 3.25-.59 5.85 1.1m-360.95-.18q1.6 3.29 6.26 2.98l3.66 5.38q-.31 3.57.71 6.45-.56 1.15-.74 2.61-.25 2.04-2.53 3.85-1.92-1.59-4.42-2.32a1.921 1.88 45.609 0 0-.94-.02l-2.71.61q-6.85-4.86-6.89-12.8l.54 1.37a.285.283-37.865 0 0 .49.06q2.59-3.5 1.32-7.27 2.75-1.01 5.25-.9"></path><path fill="#edb91b" fill-rule="evenodd" d="M512.297 152.452q15.69-.041 24.203.652 27.73 2.256 55.16 6.936 7.4 1.26 19.58 4.3 13.35 3.34 19.43 5.01 20.19 5.56 41.51 14.95a2.897 2.894-61.651 0 1 1.26 4.22l-.09.14a3.68 3.67 29.59 0 1-4.74 1.3q-11.05-5.51-22.64-9.37-21.18-7.05-33.24-9.56-23.39-4.87-32.71-6.317-33.534-5.198-67.705-5.109t-67.676 5.46q-9.313 1.495-32.677 6.486-12.047 2.573-33.19 9.733-11.57 3.92-22.592 9.487a3.68 3.67-29.887 0 1-4.746-1.276l-.091-.139a2.897 2.894 61.354 0 1 1.238-4.227q21.271-9.5 41.432-15.165 6.071-1.701 19.404-5.11 12.164-3.103 19.557-4.402 27.406-4.822 55.124-7.221 8.509-.737 24.199-.778"></path><path fill="#ab9972" fill-rule="evenodd" d="m681.07 155.82-.71 7.93q-.34-.38-.73-1.67l.26-5.11q.34-.55 1.18-1.15"></path><path fill="#edb91b" fill-rule="evenodd" d="M663.89 191.29q-6.94.1-13.86 1.66a2.514 2.502 86.933 0 0-1.94 2.17c-.35 3.11 1 4.85 3.57 6.86q2.13 1.66 4.19 3.62c-12.2-3.84-24.53-7.71-36.71-10.47q-12.93-2.92-20.14-4.14c-10.32-1.74-17.27-3.18-27.32-4.44q-23.75-2.99-47.66-3.39c-2.18-.03-4.67-.41-7.07-.51l15.75-5.07a1.483 1.452 11.919 0 0 .66-.42q2.37-2.63.38-5.39a3.316 3.029 2.597 0 0-.7-.7q-1.49-1.06-2.85-1.52-3.26-1.11-14.67-5.29a4.339 3.781 55.269 0 0-.83-.21q-3.19-.48-4.37.05-7.24 3.21-14.73 5.2-2.81.74-4.54 2.75a1.633 1.606 68.672 0 0-.39.91q-.41 4.46 3.44 5.66 6.55 2.04 13.49 4.21-27.03.86-53.57 4.04-18.91 2.26-37.5 6.44-28.6 6.42-49.1 14.34 2.42-2.65 5.46-4.66c3.25-2.14 4.52-4 3.68-7.55a2.305 2.302 86.744 0 0-1.97-1.76l-12.98-1.54c7.27-3.23 14.87-6.95 21.97-9.11 6.4-1.94 12.22-4.35 19.05-6 10.03-2.44 23.4-6.3 35.23-8.19q24.36-3.88 40.4-4.94c40.58-2.7 81.21-1.41 121.36 7.03q5.33 1.12 17.43 4.15c16.26 4.08 31.68 9.52 46.84 16.21m-243.344-16.395q-6.686 2.497-14.89 7.674a2.136 2.07-2.957 0 0-.736.791c-1.33 2.49.45 3.78 3.06 4.3q3.75.76 12.237 2.925 3.007.767 6.337-.476 6.688-2.492 14.891-7.67a2.136 2.07-2.957 0 0 .737-.791c1.33-2.49-.45-3.78-3.06-4.3q-3.75-.76-12.238-2.925-3.007-.767-6.338.472m180.201 15.69q.043.005.262-.026 7.081-1.009 14.151-2.259 2.96-.52 5.16-2.19a1.814 1.814-36.04 0 0 .39-2.47q-1.49-2.17-4.43-3.47-1.22-.54-10.83-5.452-1.218-.622-2.699-.801-1.481-.178-2.812.138-10.5 2.493-11.813 2.729-3.165.565-5.127 2.32a1.814 1.814 49.757 0 0-.207 2.492q1.742 2.144 4.494 3.351 6.572 2.891 13.211 5.55.206.082.25.088" data-source="https://football-logos.cc"></path><path fill="#0881fa" fill-rule="evenodd" d="m516.95 182.65-9.36.18q-6.94-2.17-13.49-4.21-3.85-1.2-3.44-5.66a1.633 1.606 68.672 0 1 .39-.91q1.73-2.01 4.54-2.75 7.49-1.99 14.73-5.2 1.18-.53 4.37-.05a4.339 3.781 55.269 0 1 .83.21q11.41 4.18 14.67 5.29 1.36.46 2.85 1.52a3.316 3.029 2.597 0 1 .7.7q1.99 2.76-.38 5.39a1.483 1.452 11.919 0 1-.66.42z"></path><path fill="#db0b08" fill-rule="evenodd" d="M426.554 190.109q-3.33 1.243-6.337.476-8.487-2.165-12.237-2.925c-2.61-.52-4.39-1.81-3.06-4.3a2.136 2.07-2.957 0 1 .736-.791q8.204-5.177 14.89-7.674 3.331-1.239 6.338-.472 8.488 2.165 12.238 2.925c2.61.52 4.39 1.81 3.06 4.3a2.136 2.07-2.957 0 1-.737.791q-8.203 5.178-14.891 7.67m176.197-16.192q1.481.179 2.699.801 9.61 4.912 10.83 5.452 2.94 1.3 4.43 3.47a1.814 1.814-36.04 0 1-.39 2.47q-2.2 1.67-5.16 2.19-7.07 1.25-14.151 2.259-.219.031-.262.026t-.25-.088q-6.639-2.659-13.211-5.55-2.752-1.207-4.494-3.351a1.814 1.814 49.757 0 1 .207-2.492q1.962-1.755 5.127-2.32 1.313-.236 11.813-2.729 1.331-.316 2.812-.138"></path><path fill="#edb91b" fill-rule="evenodd" d="M512.407 185.923q14.158-.043 23.842.363C577.23 188.01 618.43 195.3 656.91 209.5q2.52.93 2.85 3.05c1.29 8.19-5.22 9.22-11.31 7.31q-19.78-6.22-43.47-11.79-30.1-7.09-63.229-9.484-16.737-1.211-29.309-1.172-12.572.038-29.301 1.352-33.114 2.598-63.17 9.874-23.655 5.715-43.396 12.057c-6.078 1.948-12.595.958-11.355-7.24q.317-2.122 2.831-3.068c38.392-14.436 79.546-21.98 120.516-23.956q9.681-.466 23.84-.51"></path><path fill="#0881fa" fill-rule="evenodd" d="m663.89 191.29 3.44 1.51a1.405 1.395 85.313 0 1 .62.53q1.47 2.32.25 4.97-1.52 3.32-4.47 6.2-3.67 3.59-7.88 1.1-2.06-1.96-4.19-3.62c-2.57-2.01-3.92-3.75-3.57-6.86a2.514 2.502 86.933 0 1 1.94-2.17q6.92-1.56 13.86-1.66m-302.28.85 12.98 1.54a2.305 2.302 86.744 0 1 1.97 1.76c.84 3.55-.43 5.41-3.68 7.55q-3.04 2.01-5.46 4.66c-3.69 1.48-7.43-3.18-9.43-5.88-1.39-1.87-2.41-5.88-.11-7.72q1.78-1.43 3.73-1.91"></path><path fill="#ab9972" fill-rule="evenodd" d="M643.38 221.52q-2.29 1.17-6.34 2.5-11.29 3.71-21.17 6.52-7.72 2.19-28.31 5.01-14.01 1.93-37.56 3.12-27.14 1.37-57.5 1.06c-32.71-.34-66.55-4.27-97.55-13q-7.81-2.19-12.35-4.16a.781.778-43.159 0 1 .05-1.45c12.35-4.38 21.1-6.33 37.57-10.41q9.98-2.47 19.59-4.08 18.8-3.16 19.75-3.29 24.58-3.38 49.99-3.3c17.62.06 32.5.32 47.72 2.2q7.54.94 15.34 1.91c15.74 1.96 30.13 5.4 46.79 9.39q11.74 2.82 23.93 7.28a.384.381 41.18 0 1 .05.7"></path><path fill="#edb91b" fill-rule="evenodd" d="M511.38 794.78q-5.63-16.41-18.78-28.66-14.83-13.81-34.87-16.53-6.43-.88-14.95-.83-29.74.15-88.76-.03-9.57-.03-19.81-3.39-22.76-7.47-32.2-29.57-5.46-12.77-5.61-26.52-.16-15.35-.11-49.25.16-99.35 0-316.72-.01-19.11-.27-32.5c-.1-5.16-.13-12.03 2.54-16.08q3.96-6.01 10.95-6.01 177.53-.09 398.73-.03 10.7 0 13.27 1.48c6.42 3.7 6.89 9.05 6.89 16.91q-.05 211.07-.01 394.68.01 14.83-5.47 28.86-9.62 24.63-33.34 34.33c-9.92 4.06-20.45 5.02-32.94 4.96q-56-.25-81.64-.08-10.62.07-21.32 3.13-23.55 6.73-35.95 28.55-3.54 6.24-5.2 13.24a.601.598-47.867 0 1-1.15.06m-202.3-513.46-.01 398.75c0 9.19.43 16.91 2.36 24.55 3.23 12.77 12.07 23.08 24.46 27.93q9.06 3.55 17.38 3.72 9.33.2 87.75.08c14.03-.03 24.48 1.13 36.29 5.7q16.78 6.49 29.21 21.19 1.28 1.52 4.35 5.44a.633.63 42.65 0 0 1.02-.04c11.64-17.49 30.04-27.43 50.87-30.17q7.94-1.04 13.24-1.04 78.48-.04 81.69-.02 10.2.08 15.07-.82c18.1-3.34 32.36-12.81 38.61-30.66q4.48-12.82 4.48-23.15-.1-197.91-.02-400.95a1.04 1.03.273 0 0-1.04-1.04H309.62a.54.53 0 0 0-.54.53"></path><path fill="#0881fa" fill-rule="evenodd" d="M309.08 281.32a.54.53 0 0 1 .54-.53h405.17a1.04 1.03.273 0 1 1.04 1.04q-.08 203.04.02 400.95 0 10.33-4.48 23.15c-6.25 17.85-20.51 27.32-38.61 30.66q-4.87.9-15.07.82-3.21-.02-81.69.02-5.3 0-13.24 1.04c-20.83 2.74-39.23 12.68-50.87 30.17a.633.63 42.65 0 1-1.02.04q-3.07-3.92-4.35-5.44-12.43-14.7-29.21-21.19c-11.81-4.57-22.26-5.73-36.29-5.7q-78.42.12-87.75-.08-8.32-.17-17.38-3.72c-12.39-4.85-21.23-15.16-24.46-27.93-1.93-7.64-2.36-15.36-2.36-24.55zm68.24 60.01a1.3 1.3 11.492 0 0 1.3 1.3h30.09a1.3 1.3-78.508 0 0 1.3-1.3v-6.47a1.3 1.3 87.459 0 0-1.3-1.3h-20.32a1.3 1.3 17.664 0 1-1.3-1.3v-39.3a1.3 1.3-45 0 0-1.3-1.3h-7.17a1.3 1.3 45 0 0-1.3 1.3zm35.422-24.015q.018 7.09.984 13.936c1.606 11.384 11.522 11.735 20.797 11.711s19.189-.427 20.736-11.82q.93-6.85.912-13.941t-.985-13.937c-1.606-11.384-11.521-11.734-20.797-11.71s-19.189.427-20.736 11.819q-.93 6.851-.911 13.942m48.348-.034q-.003 7.107.944 13.971c1.576 11.414 11.512 11.796 20.809 11.799 9.296.004 19.233-.37 20.817-11.783q.953-6.863.956-13.97.003-7.106-.945-13.97c-1.575-11.415-11.511-11.796-20.808-11.8-9.297-.003-19.233.37-20.818 11.783q-.953 6.864-.955 13.97m98.65-13.481v37.13a1.63 1.63-15.125 0 0 1.63 1.63h5.61a1.71 1.7 0 0 0 1.71-1.7v-47.67a1.69 1.69-.823 0 0-1.74-1.69l-10.97.33a3.027 3-80.559 0 0-2.73 1.97l-12.57 33.89a.423.421 44.865 0 1-.79 0l-13.17-35.25a.925.923-9.892 0 0-.87-.61h-13.34a.98.97 90 0 0-.97.98v48.17a1.58 1.58-28.86 0 0 1.58 1.58h5.92a1.42 1.42-8.146 0 0 1.42-1.42V303.4a.332.33-55.406 0 1 .64-.12l14.18 37.97a2.545 2.541 79.687 0 0 2.38 1.65h5a2.403 2.397-79.839 0 0 2.25-1.57l13.97-37.68a.445.442-34.943 0 1 .86.15m100.78-1.55c3.81-3.2 10.31-2.84 15.35-2.29 5.3.57 5.8 1.12 7.15 5.9a1.85 1.842-8.653 0 0 1.83 1.34l6.46-.2a.885.882 86.613 0 0 .85-.96c-.36-4.01-.21-7.5-2.28-10.27-3.33-4.45-9.24-4.2-14.77-4.29-7.34-.12-21.72-.97-24.06 8.56q-3.69 15.06-1.1 31.51c1.31 8.3 6.97 11.27 14.78 11.55 6.15.22 20.48 1.29 24.81-4.77q2.34-3.27 2.54-8.47.22-5.54.03-12.51a1.46 1.46 5.942 0 0-1.12-1.38c-5.71-1.32-15.15-.23-18.31-.29a1.71 1.7.845 0 0-1.73 1.67l-.07 4.02a1.76 1.751.637 0 0 1.76 1.79h9.02a1.181 1.18 89.253 0 1 1.18 1.15q.11 4.05-.62 6.75c-1.47 5.45-14.41 3.86-18.55 3.16q-4.38-.74-4.54-6.19-.54-17.74.92-25a1.403 1.392-14.139 0 1 .47-.78M363.45 316.9a.37.369-40.039 0 1 .06-.68c5.01-1.62 4.99-5.48 5.11-10.37.23-9.6-2.8-13.51-12.62-13.75q-7.99-.19-24.92-.26a1.17 1.17-45 0 0-1.17 1.17v48.42a1.071 1.06.834 0 0 1.04 1.06q12.34.37 25.82-.02c5.55-.16 10.75-1.71 12.25-7.7 1.73-6.9 1.45-14.21-5.57-17.87m269.04 15.53-19.34-39.29a2.266 2.256-13.043 0 0-2.03-1.26h-13.45a1.3 1.29 0 0 0-1.3 1.29v47.63a1.79 1.79 0 0 0 1.79 1.79h6.03a1.56 1.56 81.809 0 0 1.56-1.56v-37.47a.518.514-59.227 0 1 .97-.25q9.93 18.62 18.37 37.63a2.735 2.732 78.07 0 0 2.5 1.63h13.62a1.46 1.46-72.368 0 0 1.46-1.46v-47.42a1.97 1.96 0 0 0-1.97-1.96h-5.78a1.94 1.94 45.072 0 0-1.94 1.94v38.64a.26.258-58.447 0 1-.49.12m-45.102-39.079a1.37 1.37 0 0 0-1.372-1.367l-7.08.012a1.37 1.37 0 0 0-1.368 1.373l.084 47.8a1.37 1.37 0 0 0 1.372 1.367l7.08-.012a1.37 1.37 0 0 0 1.368-1.373zM549.67 410.59v-14.33a.39.38-90 0 1 .38-.39h10.69a3.266 3.134-51.372 0 0 .83-.11c3.79-.98 3.46-4.64 3.51-8.37q.09-6.58.02-23.76c-.01-3.45-.91-6.71-4.76-6.73q-22.86-.16-96.8.08c-3.24.01-4.49 3.19-4.5 6.15q-.03 10.37.06 26.2c.02 3.84 1.37 6.37 5.38 6.4q5.95.04 9.09-.01a.61.601 89.091 0 1 .62.61v14.16a1.528 1.523 79.785 0 1-.99 1.43q-9.91 3.71-19.64 10.89c-5.12 3.77-9.71 8.67-13.79 12.44q-2.45 2.26-6.52 8.22-7.52 11.01-11.7 21.69a1.418 1.411 10.575 0 1-1.32.9h-28.34a.93.93-89.695 0 1-.93-.94q.03-5.16.01-8.12c-.03-3.85-1.21-6.86-5.39-6.85q-10.4.03-31.57.02-5.24 0-5.25 5.83-.08 53.48.02 95.32 0 1.27-.01 1.36c-.2 2.78 1.53 6.39 4.73 6.36q10.92-.12 32.92-.08a2.567 2.42-51.882 0 0 .73-.11q3.43-1.04 3.59-4.86.1-2.38.11-10.25a.69.69 45 0 1 .69-.69h30.87a1.441 1.431 76.483 0 1 1.28.79q16.65 32.68 49.92 47.91a1.126 1.119-77.688 0 1 .65 1.02v20.06a.73.73.387 0 1-.74.73q-3.82-.02-8.5.11-6.04.16-6.02 6.28.05 13.65.11 26.96c.03 5.68 4.52 5.3 8.64 5.27q30.71-.21 76.31.16c5.27.04 10.45-.34 14.75-.19 3.37.11 6.01-1.27 6.18-4.65q.19-3.77.14-24.3c-.01-4.12.79-9.13-4.89-9.48q-2.9-.18-9.57-.21a.91.91.318 0 1-.9-.91v-19.27a1.628 1.616 77.913 0 1 .95-1.48q15.43-7.11 28.27-19.09 2.41-2.26 7.12-7.91c5.57-6.68 8.91-11.29 12.74-18.13.57-1.03.36-2.15 1.2-3.26a.934.918-70.764 0 1 .73-.36h33.14a.62.62-89.545 0 1 .62.63q-.01 1.02-.03 8.25c-.01 3.64.87 6.88 4.74 6.95q6.28.11 32 0c4.52-.02 5.63-2.67 5.79-6.9q.15-3.97.14-6.28-.21-46.47.03-89.85.04-5.78-5.3-5.73-21.45.16-30.95 0-6.08-.1-6.39 5.82-.22 4.29-.19 9.41a.59.59 89.523 0 1-.59.6h-31.32a.653.638 79.341 0 1-.6-.42q-5.92-15.46-15.53-26.33c-2.63-2.97-7.4-8.48-12.09-12.31q-10.92-8.92-23.44-14.58a1.949 1.944 12.291 0 1-1.14-1.77M387.29 672.37l7.52-.19a2.158 2.144 80.628 0 1 2.12 1.53l.59 1.95a.746.74 81.544 0 0 .71.53h4.53a.705.698 3.19 0 0 .7-.62c1.08-9.13-10.4-8.45-16.07-8.13-3.99.22-7.22 1.62-7.48 5.89-.33 5.54.03 9.74 6.9 10.38q7.12.66 8.63.61a2.671 2.664 88.966 0 1 2.76 2.67v.9a3.1 3.1 38.23 0 1-3.1 3.1h-7.63a2.091 2.087-8.439 0 1-2-1.48l-.69-2.29a.805.796 80.496 0 0-.79-.57l-3.53.11a.837.835-88.468 0 0-.81.77q-.6 7.14 6.02 8.3 4.14.72 12.24-.12 5.36-.56 6.01-5.94c.8-6.52-.29-10.55-7.64-10.59q-6.74-.04-9.43-.5c-2.3-.39-2.03-4.46-.92-5.69a1.916 1.904-69.326 0 1 1.36-.62m249.04 1.17-15.35 17.34a1.158.976 78.008 0 0-.23.43q-.53 1.83-.11 3.88a.869.861-5.686 0 0 .85.69h22.58a1.02 1.02 0 0 0 1.02-1.02v-3.29a1.12 1.12-2.485 0 0-1.12-1.12h-13.91a.342.336 19.338 0 1-.27-.55l6.92-8.55a1.389 1.033-10.085 0 1 .16-.17q4.15-3.65 7.85-8.15a1.862 1.842-25.84 0 0 .41-1.16v-3.5a.99.98 90 0 0-.98-.99h-21.58a1.04 1.04-45 0 0-1.04 1.04v3.5a1.13 1.13-45 0 0 1.13 1.13h13.45a.294.294 20.905 0 1 .22.49m-216.228 16.489q4.537.007 5.007.012a1.441 1.427-9.494 0 1 1.331.94l1.218 3.31a2.125 2.113-9.862 0 0 1.982 1.386l3.806.019a.847.846-10.031 0 0 .799-1.141l-9.531-25.917a1.221 1.211-5.669 0 0-.953-.774q-1.479-.222-3.623-.226-2.144-.003-3.624.214a1.221 1.211 5.855 0 0-.956.771l-9.614 25.886a.847.846 10.217 0 0 .795 1.144l3.806-.007a2.125 2.113 10.048 0 0 1.986-1.38l1.229-3.306a1.441 1.427 9.68 0 1 1.334-.935q.47-.003 5.008.004m28.517-6.897q3.41 6.019 6.625 12.008a1.251 1.225-13.748 0 0 1.096.65h7.96a1.04 1.04 0 0 0 1.04-1.04v-26.28a.95.95 81.816 0 0-.95-.95h-3.93a1.16 1.16-15.248 0 0-1.16 1.16v19.87a.329.328-58.916 0 1-.619.154q-2.339-4.422-4.638-8.481-3.409-6.021-6.624-12.01a1.251 1.225-13.748 0 0-1.096-.649h-7.96a1.04 1.04 0 0 0-1.04 1.04v26.28a.95.95-45 0 0 .95.95h3.93a1.16 1.16-15.248 0 0 1.16-1.16v-19.87a.329.328-58.916 0 1 .619-.154q2.339 4.422 4.637 8.482m31.073 12.494q.187-.001 1.975-.04a1.099 1.096-.698 0 0 1.073-1.096v-21.01a.66.66-56.242 0 1 .66-.66h6.74a1.13 1.12-90 0 0 1.12-1.13v-3.01a1.028 1.023-89.485 0 0-1.005-1.028q-5.199-.102-10.625-.027-5.427-.051-10.626.074a1.028 1.023 89.232 0 0-1 1.032l.013 3.01a1.13 1.12 89.746 0 0 1.125 1.125l6.74-.029a.66.66-55.932 0 1 .663.657l.093 21.009a1.099 1.096.444 0 0 1.078 1.092q1.788.031 1.976.031m52.834-13.75c.043 5.968-.167 12.966 7.65 13.882q8.304.972 13.194-.448 5.27-1.53 4.6-8.31a.904.896-4.951 0 0-.96-.8l-3.72.29a.95.949 5.115 0 0-.85.71q-.93 3.5-4.94 3.54c-1.86.02-8.32.68-8.453-2.501q-.126-3.109-.149-6.409-.024-3.3.057-6.41c.088-3.183 6.556-2.616 8.417-2.622q4.01-.018 4.99 3.469a.95.949-5.936 0 0 .86.697l3.724.237a.904.896 4.13 0 0 .948-.814q.573-6.788-4.719-8.243-4.909-1.35-13.199-.259c-7.803 1.028-7.493 8.022-7.45 13.991m51.374 2.064q2.57-1.61 2.72-4.83c.14-2.8.34-6.92-1.97-9.03q-2.37-2.18-5.19-2.29-7.83-.33-16.67 0a1.201 1.191 89.012 0 0-1.15 1.2v25.45a1.25 1.25-45 0 0 1.25 1.25h3.78a1.4 1.4 0 0 0 1.4-1.4v-6.78a.89.89 45 0 1 .89-.89q3.71 0 7.53.09c2.46.06 3.41 1.37 3.56 3.88q.23 3.79.23 3.9a1.17 1.17.768 0 0 1.13 1.16l3.93.15a1.261 1.252-88.906 0 0 1.3-1.26q-.01-3.08-.1-6.31-.06-2.41-2.62-3.75a.312.311-47.279 0 1-.02-.54m20.343 12.164c6.286-.003 13.318-.147 12.914-8.571q-.037-.833.133-18.833a1.231 1.221-.679 0 0-1.27-1.23l-4.26.12a1.342 1.332 89.556 0 0-1.29 1.32q-.09 8.76.072 18.065c.062 3.576-3.439 3.567-6.302 3.569s-6.363.012-6.304-3.564q.154-9.305.057-18.065a1.342 1.332-89.603 0 0-1.291-1.319l-4.26-.116a1.231 1.221.631 0 0-1.269 1.231q.185 18 .148 18.833c-.397 8.424 6.636 8.562 12.922 8.56m-98.899-6.01q4.518-.016 4.986-.013a1.435 1.421-9.782 0 1 1.33.929l1.23 3.29a2.116 2.104-10.15 0 0 1.98 1.37h3.79a.844.843-10.319 0 0 .79-1.14l-9.62-25.76a1.216 1.206-5.957 0 0-.953-.766q-1.474-.214-3.609-.207t-3.608.231a1.216 1.206 5.567 0 0-.947.773l-9.445 25.825a.844.843 9.929 0 0 .798 1.134l3.79-.025a2.116 2.104 9.76 0 0 1.97-1.384l1.208-3.298a1.435 1.421 9.392 0 1 1.323-.938q.468-.006 4.987-.021M502.6 721.92l-.45 4.96a1.553 1.549-89.134 0 1-1.45 1.41q-3.01.19-6.96.04-2.51-.09-2.7-1.87a1.113 1.111 89.686 0 0-1.01-1l-3.5-.31a1.101 1.098.671 0 0-1.2 1.17q.44 6.24 6.71 6.78c5.31.46 10.89.92 14.49-2.74a2.912 2.91 74.911 0 0 .73-1.27q1.09-3.97.72-12.83c-.22-5.3-2.72-8.05-7.98-8.5-4.6-.4-11.04-1.16-13.84 3.33-1.61 2.58-1.13 9.67 2.38 10.79 3.93 1.27 9.35 1.69 13.08-.56a.647.641-13.259 0 1 .98.6m-25.65 10.55v-23.38a1.335 1.327 3.136 0 0-1.19-1.32q-5.87-.64-9.84 3.13-.7.66-4.04 3.62a1.254 1.246 48.75 0 0-.11 1.76l1.48 1.68a1.149 1.141 48.698 0 0 1.62.11l4.62-4.06a.979.976 67.671 0 1 1.62.68q.01.14.01.31.18 9.39.02 17.54a.651.65-89.145 0 0 .65.67h4.42a.74.74 45 0 0 .74-.74m54.42.41a1.18 1.17 90 0 0 1.17-1.18v-3.3a.625.611-2.561 0 1 .57-.61l2.38-.18a.703.694 87.794 0 0 .64-.7v-2.87a.792.781-82.268 0 0-.57-.76q-.9-.25-1.84-.05a.788.787-5.949 0 1-.95-.77v-13.6a.973.964-88.11 0 0-.9-.97c-1.63-.11-5.48-.47-7.19.52q-.79.46-2.1 1.93-4.74 5.35-8.94 10.04c-2.12 2.36-1.99 3.49-1.88 6.5a1.07 1.07 89.174 0 0 1.07 1.04h13.08a.75.74 0 0 1 .75.74v3.22a1 .99-90 0 0 .99 1zm13.44-13.67.44-4.97a1.829 1.825-.591 0 1 1.61-1.64q3.39-.38 7.64-.03c1.47.12 1.69.75 2.13 2.13a1.526 1.518 83.566 0 0 1.31 1.05l3.38.3a.693.683 4.528 0 0 .75-.63q.39-5.72-4.6-7.33-1.06-.34-6.35-.32c-4.67.02-10.81.07-11.31 5.99q-.59 6.76.42 13.74.72 4.97 6.14 5.61 5.54.66 10.39-.04c6.42-.93 5.63-7.65 4.39-12.09a3.173 3.157 2.719 0 0-1.91-2.09c-3.93-1.49-10.02-2-13.66.75a.483.481 74.09 0 1-.77-.43"></path><path fill="#fff" fill-rule="evenodd" d="M377.32 341.33v-48.37a1.3 1.3 45 0 1 1.3-1.3h7.17a1.3 1.3-45 0 1 1.3 1.3v39.3a1.3 1.3-19.195 0 0 1.3 1.3h20.32a1.3 1.3-54.468 0 1 1.3 1.3v6.47a1.3 1.3-53.145 0 1-1.3 1.3h-30.09a1.3 1.3 36.855 0 1-1.3-1.3m35.422-24.015q-.019-7.091.911-13.942c1.547-11.392 11.46-11.795 20.736-11.819s19.191.326 20.797 11.71q.966 6.846.985 13.937.018 7.091-.912 13.941c-1.547 11.393-11.46 11.796-20.736 11.82s-19.191-.327-20.797-11.711q-.966-6.846-.984-13.936m32.204-10.618a5.69 5.69 0 0 0-5.67-5.709l-10.06-.035a5.69 5.69 0 0 0-5.709 5.67l-.073 20.94a5.69 5.69 0 0 0 5.67 5.709l10.06.035a5.69 5.69 0 0 0 5.709-5.67zm37.917-15.169c9.297.004 19.233.385 20.808 11.8q.948 6.864.945 13.97t-.956 13.97c-1.584 11.413-11.521 11.787-20.817 11.783-9.297-.003-19.233-.385-20.809-11.799q-.947-6.864-.944-13.971.002-7.106.955-13.97c1.585-11.413 11.521-11.786 20.818-11.783m10.616 14.861a5.38 5.38 0 0 0-5.371-5.39l-10.68-.018a5.38 5.38 0 0 0-5.389 5.37l-.038 21.54a5.38 5.38 0 0 0 5.371 5.39l10.68.018a5.38 5.38 0 0 0 5.389-5.37zm66.261-2.589a.445.442-34.943 0 0-.86-.15l-13.97 37.68a2.403 2.397-79.839 0 1-2.25 1.57h-5a2.545 2.541 79.687 0 1-2.38-1.65l-14.18-37.97a.332.33-55.406 0 0-.64.12v37.74a1.42 1.42 25.151 0 1-1.42 1.42h-5.92a1.58 1.58 27.272 0 1-1.58-1.58v-48.17a.98.97-90 0 1 .97-.98h13.34a.925.923-9.892 0 1 .87.61l13.17 35.25a.423.421 44.865 0 0 .79 0l12.57-33.89a3.027 3-80.559 0 1 2.73-1.97l10.97-.33a1.69 1.69-.823 0 1 1.74 1.69v47.67a1.71 1.7 0 0 1-1.71 1.7h-5.61a1.63 1.63 33.708 0 1-1.63-1.63zm100.31-.77q-1.46 7.26-.92 25 .16 5.45 4.54 6.19c4.14.7 17.08 2.29 18.55-3.16q.73-2.7.62-6.75a1.181 1.18 89.253 0 0-1.18-1.15h-9.02a1.76 1.751.637 0 1-1.76-1.79l.07-4.02a1.71 1.7.845 0 1 1.73-1.67c3.16.06 12.6-1.03 18.31.29a1.46 1.46 5.942 0 1 1.12 1.38q.19 6.97-.03 12.51-.2 5.2-2.54 8.47c-4.33 6.06-18.66 4.99-24.81 4.77-7.81-.28-13.47-3.25-14.78-11.55q-2.59-16.45 1.1-31.51c2.34-9.53 16.72-8.68 24.06-8.56 5.53.09 11.44-.16 14.77 4.29 2.07 2.77 1.92 6.26 2.28 10.27a.885.882 86.613 0 1-.85.96l-6.46.2a1.85 1.842-8.653 0 1-1.83-1.34c-1.35-4.78-1.85-5.33-7.15-5.9-5.04-.55-11.54-.91-15.35 2.29a1.403 1.392-14.139 0 0-.47.78m-296.6 13.87c7.02 3.66 7.3 10.97 5.57 17.87-1.5 5.99-6.7 7.54-12.25 7.7q-13.48.39-25.82.02a1.071 1.06.834 0 1-1.04-1.06v-48.42a1.17 1.17 45 0 1 1.17-1.17q16.93.07 24.92.26c9.82.24 12.85 4.15 12.62 13.75-.12 4.89-.1 8.75-5.11 10.37a.37.369-40.039 0 0-.06.68m-22.879-14.859-.121 8.659a.91.91-78.187 0 0 .898.923l11.648.162a4.56 4.07.8 0 0 4.617-4.006l.033-2.339a4.56 4.07.8 0 0-4.503-4.134l-11.649-.162a.91.91-45 0 0-.923.897m.091 20.491.036 10.3a.57.57-2.568 0 0 .572.568l13.3-.047a4.37 4.18-.2 0 0 4.355-4.195l-.01-3.08a4.37 4.18-.2 0 0-4.385-4.165l-13.3.047a.57.57-2.618 0 0-.568.572m291.828 9.898a.26.258-58.447 0 0 .49-.12v-38.64a1.94 1.94 45.023 0 1 1.94-1.94h5.78a1.97 1.96 0 0 1 1.97 1.96v47.42a1.46 1.46-57.189 0 1-1.46 1.46h-13.62a2.735 2.732 78.07 0 1-2.5-1.63q-8.44-19.01-18.37-37.63a.518.514-59.227 0 0-.97.25v37.47a1.56 1.56-64.8 0 1-1.56 1.56h-6.03a1.79 1.79 45 0 1-1.79-1.79v-47.63a1.3 1.29 0 0 1 1.3-1.29h13.45a2.266 2.256-13.043 0 1 2.03 1.26zm-45.018 8.721a1.37 1.37 0 0 1-1.368 1.373l-7.08.012a1.37 1.37 0 0 1-1.372-1.367l-.084-47.8a1.37 1.37 0 0 1 1.368-1.373l7.08-.012a1.37 1.37 0 0 1 1.372 1.367z"></path><path fill="#0881fa" fill-rule="evenodd" d="M340.571 302.041a.91.91 34.892 0 1 .923-.897l11.649.162a4.56 4.07.8 0 1 4.503 4.134l-.033 2.339a4.56 4.07.8 0 1-4.617 4.006l-11.648-.162a.91.91-52.432 0 1-.898-.923zm104.302 25.596a5.69 5.69 0 0 1-5.709 5.67l-10.06-.035a5.69 5.69 0 0 1-5.67-5.709l.073-20.94a5.69 5.69 0 0 1 5.709-5.67l10.06.035a5.69 5.69 0 0 1 5.67 5.709zm48.568.292a5.38 5.38 0 0 1-5.389 5.37l-10.68-.018a5.38 5.38 0 0 1-5.371-5.39l.038-21.54a5.38 5.38 0 0 1 5.389-5.37l10.68.018a5.38 5.38 0 0 1 5.371 5.39zm-152.779-5.397a.57.57 35.344 0 1 .568-.572l13.3-.047a4.37 4.18-.2 0 1 4.385 4.165l.01 3.08a4.37 4.18-.2 0 1-4.355 4.195l-13.3.047a.57.57 35.34 0 1-.572-.568z"></path><path fill-rule="evenodd" d="M549.67 410.59a1.949 1.944 12.291 0 0 1.14 1.77q12.52 5.66 23.44 14.58c4.69 3.83 9.46 9.34 12.09 12.31q9.61 10.87 15.53 26.33a.653.638 79.341 0 0 .6.42h31.32a.59.59 89.523 0 0 .59-.6q-.03-5.12.19-9.41.31-5.92 6.39-5.82 9.5.16 30.95 0 5.34-.05 5.3 5.73-.24 43.38-.03 89.85.01 2.31-.14 6.28c-.16 4.23-1.27 6.88-5.79 6.9q-25.72.11-32 0c-3.87-.07-4.75-3.31-4.74-6.95q.02-7.23.03-8.25a.62.62-89.545 0 0-.62-.63h-33.14a.934.918-70.764 0 0-.73.36c-.84 1.11-.63 2.23-1.2 3.26-3.83 6.84-7.17 11.45-12.74 18.13q-4.71 5.65-7.12 7.91-12.84 11.98-28.27 19.09a1.628 1.616 77.913 0 0-.95 1.48v19.27a.91.91.318 0 0 .9.91q6.67.03 9.57.21c5.68.35 4.88 5.36 4.89 9.48q.05 20.53-.14 24.3c-.17 3.38-2.81 4.76-6.18 4.65-4.3-.15-9.48.23-14.75.19q-45.6-.37-76.31-.16c-4.12.03-8.61.41-8.64-5.27q-.06-13.31-.11-26.96-.02-6.12 6.02-6.28 4.68-.13 8.5-.11a.73.73.387 0 0 .74-.73v-20.06a1.126 1.119-77.688 0 0-.65-1.02q-33.27-15.23-49.92-47.91a1.441 1.431 76.483 0 0-1.28-.79h-30.87a.69.69 45 0 0-.69.69q-.01 7.87-.11 10.25-.16 3.82-3.59 4.86a2.567 2.42-51.882 0 1-.73.11q-22-.04-32.92.08c-3.2.03-4.93-3.58-4.73-6.36q.01-.09.01-1.36-.1-41.84-.02-95.32.01-5.83 5.25-5.83 21.17.01 31.57-.02c4.18-.01 5.36 3 5.39 6.85q.02 2.96-.01 8.12a.93.93-89.695 0 0 .93.94h28.34a1.418 1.411 10.575 0 0 1.32-.9q4.18-10.68 11.7-21.69 4.07-5.96 6.52-8.22c4.08-3.77 8.67-8.67 13.79-12.44q9.73-7.18 19.64-10.89a1.528 1.523 79.785 0 0 .99-1.43v-14.16a.61.601 89.091 0 0-.62-.61q-3.14.05-9.09.01c-4.01-.03-5.36-2.56-5.38-6.4q-.09-15.83-.06-26.2c.01-2.96 1.26-6.14 4.5-6.15q73.94-.24 96.8-.08c3.85.02 4.75 3.28 4.76 6.73q.07 17.18-.02 23.76c-.05 3.73.28 7.39-3.51 8.37a3.266 3.134-51.372 0 1-.83.11h-10.69a.39.38-90 0 0-.38.39zm-5.6-2.3v-17.11a.7.7 44.991 0 1 .7-.7h13.29a1.4 1.39 0 0 0 1.4-1.39v-26.3a.87.87 74.779 0 0-.87-.87h-93.47a.94.94-45 0 0-.94.94v26.59a1.07 1.06-90 0 0 1.06 1.07h13.12a.74.74-45 0 1 .74.74v16.98a.575.525-62.989 0 0 .08.29q.67 1.06 2.33.46 15.83-5.67 33.99-4.5 12.46.8 17.07 2.03 3.94 1.05 9.85 2.97a1.261 1.258-80.96 0 0 1.65-1.2m44.71 40.17q-7.08-9.91-8.43-11.28-6.28-6.37-14.45-12.42-15-11.11-36.78-15.92a.485.411 40.269 0 0-.23 0l-.25.05a.51.508 61.101 0 0-.25.87c6.15 5.8 10.18 9.56 13.79 15.4a1.46 1.46 71.885 0 0 .8.64q14.84 5.17 28.01 14.72 4.43 3.21 7.68 7a.741.708 71.678 0 0 .47.25l9.55.85a.101.101 74.551 0 0 .09-.16M426.6 463.71q10.58-3.63 22.33-5.15a1.484 1.434-72.544 0 0 .92-.5q13.99-16.37 31.68-27.52a1.217 1.203-11.326 0 0 .56-.83q1.8-10.1 6.28-19.01a.395.392-83.999 0 0-.45-.56q-36.39 9.59-56.12 41.38-3.5 5.64-5.73 11.65a.42.418-89.605 0 0 .53.54m95.67 17.02q1.26.25 2.03.73 15.98 10.1 28.45 18.13a.688.682-43.93 0 0 .71.01l28.57-16.49a.96.927 77.383 0 0 .47-.77q.66-11.34-2.33-23.06-1.21-4.74-2.64-9.92a1.611 1.586 10.425 0 0-.61-.87c-3.87-2.77-7.28-6.02-11.59-8.96q-10.07-6.89-22.88-11.6a1.104 1.074 39.3 0 0-.93.08q-.95.56-2.08.9c-5.03 1.54-9.22 3.42-13.72 6.68q-1.1.79-8.35 5.92a.83.824 67.726 0 0-.34.82q3.64 21.52 4.75 37.84a.611.608-86.327 0 0 .49.56m-2.23-.24-4.85-38.37a.988.978-79.686 0 0-.52-.76c-9.73-5.18-20.58-7.48-31.38-9.06a.876.841-58.702 0 0-.64.17q-6.9 5.32-13.97 10.71-5.9 4.48-16.93 16.26a1.28 1.277-24.84 0 0-.35.95q.81 16.39 4.23 32.11a.79.785-88.153 0 0 .55.59L492.9 504a1.202 1.195 32.246 0 0 1.12-.25l25.79-22.65a.724.698 66.705 0 0 .23-.61m-100.79-8.1a.739.738-80.858 0 0-.7-.97h-31.81a1.4 1.4 45 0 1-1.4-1.4v-13.74a.7.7 45 0 0-.7-.7h-30.08a.59.59-84.157 0 0-.59.59v96.35a.94.94-45.079 0 0 .94.94h29.56a.94.94-84.155 0 0 .94-.94v-13.61a1.05 1.05-.556 0 1 1.03-1.05q12.91-.26 25.81-.06 4.24.06 7.94-.55a.926.916-15.705 0 0 .71-1.25q-3.37-8.39-4.57-16.8c-.96-6.76-1.66-16.58-.82-25.18.91-9.17 1.29-14.06 3.74-21.63m252.51 80.03v-95.73a1.04 1.04 45 0 0-1.04-1.04h-30.24a.58.58 11.257 0 0-.58.58v14.38a.86.85 0 0 1-.86.85h-34.45a.448.442 81.272 0 0-.42.58c3.76 11.82 5.72 25.55 4.34 38.31q-.83 7.7-.95 8.65-.78 6.24-4.19 15.47-.77 2.08-.77 2.14a1.236 1.233 87.507 0 0 1.24 1.14l35.23-.01a.84.83 0 0 1 .84.83v13.82a1.06 1.05 90 0 0 1.05 1.06h29.78a1.03 1.02 90 0 0 1.02-1.03M554 502.66l-7.93 34.71a.783.774 32.702 0 0 .15.67l18.4 22.94a.839.822-26.191 0 0 .85.28q11.36-2.94 20.72-10.72a5.511 5.42-8.052 0 0 1.5-1.96c4.76-10.5 9.06-21.15 10.19-32.1q.52-5 1.3-10.99a1.853 1.822-54.653 0 0-.16-.99q-5.21-11.41-15-19.19a.423.408-40.14 0 0-.45-.03l-29.19 16.86a.819.775 82.724 0 0-.38.52m-68.67 66.19 20.76-27.31a1.299 1.258 52.653 0 0 .15-1.27l-12.91-30.5a2.253 2.072 31.288 0 1-.13-.45l-.34-2.36a.768.759 4.29 0 0-.54-.62l-36.2-10.76a.722.707 26.176 0 0-.76.25l-16.83 22.15a1.95 1.898 60.29 0 0-.37 1.43q1.85 12.95 7.42 25.52c2.35 5.29 4.19 7.97 7.54 13.81a2.327 2.292 88.317 0 0 .94.9c10.1 5.23 18.75 8.44 30.42 9.58a.932.927-68.361 0 0 .85-.37m105.52-17.78a.778.775 47.418 0 0 1.36.06q6.7-10.94 9.59-22.29 3.85-15.15 3.55-31.01a.312.311-32.432 0 0-.59-.13l-3.34 6.6a5.052 5.048 58.759 0 0-.55 2.25q-.12 15.33-5.95 30.97-2.37 6.35-4.38 11.01a2.42 2.412 43.675 0 0 .05 2.02zm-141.52 20.61 1.87-10.56a1.718 1.69-56.787 0 0-.24-1.2q-9.29-14.58-13.6-31.14-.71-2.73-.89-4.24-.49-4.22-.52-4.3a1.542 1.528-80.658 0 0-.59-.83c-6.76-4.93-11.97-12.65-16.76-20.15a.332.329 29.186 0 0-.61.17c-.02 7.63.85 14.63 2.03 21.76 3.21 19.42 14.45 37.69 28.95 50.62a.222.219-64.552 0 0 .36-.13m37.84-1c2.8 7.05 8.48 13.15 14.45 17.6a1.678 1.636 64.16 0 0 .94.34q10.47.54 19.42.16 7.91-.33 23.27-3.77a4.81 4.688 19.795 0 0 1.78-.81c3.7-2.74 7.25-6.98 10.36-10.44 2.7-3 4.09-6.29 5.72-10.26a.879.874 36.107 0 0-.14-.88l-18.69-22.49a1.028 1.022-21.319 0 0-.85-.37l-35.29 2.69a.067.054-69.699 0 0-.05.03q-7.59 10.8-16.44 21.97c-1.25 1.58-3.9 4.14-4.45 5.31a1.149 1.113-44.066 0 0-.03.92m5.42 23.8q27.72 5.95 54.85-4.8a.967.965 49.004 0 0 .12-1.74l-.05-.03a4.516 4.466 51.977 0 0-3.36-.43q-20.48 5.45-41.21 3.35a1.757 1.702-49.722 0 0-.71.07l-9.66 3.01a.295.294-47.176 0 0 .02.57m67.13 51.37v-26.17a.76.76 0 0 0-.76-.76h-14a.88.88 45 0 1-.88-.88v-22.5a.726.725 80.97 0 0-.95-.69c-19.88 6.55-42.68 7.08-62.57-.52a.853.847-79.609 0 0-1.15.8v22.99a.81.8 0 0 1-.81.8h-13.44a.95.95-45 0 0-.95.95v26.18a1.09 1.09 11.192 0 0 1.09 1.09h93.12a1.3 1.29 0 0 0 1.3-1.29"></path><path fill="#db0b08" fill-rule="evenodd" d="M544.07 408.29a1.261 1.258-80.96 0 1-1.65 1.2q-5.91-1.92-9.85-2.97-4.61-1.23-17.07-2.03-18.16-1.17-33.99 4.5-1.66.6-2.33-.46a.575.525-62.989 0 1-.08-.29v-16.98a.74.74-45 0 0-.74-.74h-13.12a1.07 1.06 90 0 1-1.06-1.07v-26.59a.94.94-45 0 1 .94-.94h93.47a.87.87-56.23 0 1 .87.87v26.3a1.4 1.39 0 0 1-1.4 1.39h-13.29a.7.7 45 0 0-.7.7z"></path><path fill="#fff" fill-rule="evenodd" d="M588.78 448.46a.101.101 74.551 0 1-.09.16l-9.55-.85a.741.708 71.678 0 1-.47-.25q-3.25-3.79-7.68-7-13.17-9.55-28.01-14.72a1.46 1.46 66.834 0 1-.8-.64c-3.61-5.84-7.64-9.6-13.79-15.4a.51.508 61.101 0 1 .25-.87l.25-.05a.485.411 40.269 0 1 .23 0q21.78 4.81 36.78 15.92 8.17 6.05 14.45 12.42 1.35 1.37 8.43 11.28M426.6 463.71a.42.418-89.605 0 1-.53-.54q2.23-6.01 5.73-11.65 19.73-31.79 56.12-41.38a.395.392-83.999 0 1 .45.56q-4.48 8.91-6.28 19.01a1.217 1.203-11.326 0 1-.56.83q-17.69 11.15-31.68 27.52a1.484 1.434-72.544 0 1-.92.5q-11.75 1.52-22.33 5.15"></path><path fill="#fff" fill-rule="evenodd" d="M521.78 480.17q-1.11-16.32-4.75-37.84a.83.824 67.726 0 1 .34-.82q7.25-5.13 8.35-5.92c4.5-3.26 8.69-5.14 13.72-6.68q1.13-.34 2.08-.9a1.104 1.074 39.3 0 1 .93-.08q12.81 4.71 22.88 11.6c4.31 2.94 7.72 6.19 11.59 8.96a1.611 1.586 10.425 0 1 .61.87q1.43 5.18 2.64 9.92 2.99 11.72 2.33 23.06a.96.927 77.383 0 1-.47.77l-28.57 16.49a.688.682-43.93 0 1-.71-.01q-12.47-8.03-28.45-18.13-.77-.48-2.03-.73a.611.608-86.327 0 1-.49-.56m-1.97.93-25.79 22.65a1.202 1.195 32.246 0 1-1.12.25l-36.72-10.91a.79.785-88.153 0 1-.55-.59q-3.42-15.72-4.23-32.11a1.28 1.277-24.84 0 1 .35-.95q11.03-11.78 16.93-16.26 7.07-5.39 13.97-10.71a.876.841-58.702 0 1 .64-.17c10.8 1.58 21.65 3.88 31.38 9.06a.988.978-79.686 0 1 .52.76l4.85 38.37a.724.698 66.705 0 1-.23.61"></path><path fill="#db0b08" fill-rule="evenodd" d="M419.25 472.39c-2.45 7.57-2.83 12.46-3.74 21.63-.84 8.6-.14 18.42.82 25.18q1.2 8.41 4.57 16.8a.926.916-15.705 0 1-.71 1.25q-3.7.61-7.94.55-12.9-.2-25.81.06a1.05 1.05-.556 0 0-1.03 1.05v13.61a.94.94-60.173 0 1-.94.94h-29.56a.94.94 45.019 0 1-.94-.94v-96.35a.59.59-60.19 0 1 .59-.59h30.08a.7.7 45 0 1 .7.7v13.74a1.4 1.4 45 0 0 1.4 1.4h31.81a.739.738-80.858 0 1 .7.97m252.51 80.03a1.03 1.02-90 0 1-1.02 1.03h-29.78a1.06 1.05 90 0 1-1.05-1.06v-13.82a.84.83 0 0 0-.84-.83l-35.23.01a1.236 1.233 87.507 0 1-1.24-1.14q0-.06.77-2.14 3.41-9.23 4.19-15.47.12-.95.95-8.65c1.38-12.76-.58-26.49-4.34-38.31a.448.442 81.272 0 1 .42-.58h34.45a.86.85 0 0 0 .86-.85v-14.38a.58.58 36.851 0 1 .58-.58h30.24a1.04 1.04 45 0 1 1.04 1.04z"></path><path fill="#fff" fill-rule="evenodd" d="m554.38 502.14 29.19-16.86a.423.408-40.14 0 1 .45.03q9.79 7.78 15 19.19a1.853 1.822-54.653 0 1 .16.99q-.78 5.99-1.3 10.99c-1.13 10.95-5.43 21.6-10.19 32.1a5.511 5.42-8.052 0 1-1.5 1.96q-9.36 7.78-20.72 10.72a.839.822-26.191 0 1-.85-.28l-18.4-22.94a.783.774 32.702 0 1-.15-.67l7.93-34.71a.819.775 82.724 0 1 .38-.52m-69.9 67.08c-11.67-1.14-20.32-4.35-30.42-9.58a2.327 2.292 88.317 0 1-.94-.9c-3.35-5.84-5.19-8.52-7.54-13.81q-5.57-12.57-7.42-25.52a1.95 1.898 60.29 0 1 .37-1.43l16.83-22.15a.722.707 26.176 0 1 .76-.25l36.2 10.76a.768.759 4.29 0 1 .54.62l.34 2.36a2.253 2.072 31.288 0 0 .13.45l12.91 30.5a1.299 1.258 52.653 0 1-.15 1.27l-20.76 27.31a.932.927-68.361 0 1-.85.37"></path><path fill="#fff" fill-rule="evenodd" d="m590.85 551.07-.26-.52a2.42 2.412 43.675 0 1-.05-2.02q2.01-4.66 4.38-11.01 5.83-15.64 5.95-30.97a5.052 5.048 58.759 0 1 .55-2.25l3.34-6.6a.312.311-32.432 0 1 .59.13q.3 15.86-3.55 31.01-2.89 11.35-9.59 22.29a.778.775 47.418 0 1-1.36-.06m-141.52 20.61a.222.219-64.552 0 1-.36.13c-14.5-12.93-25.74-31.2-28.95-50.62-1.18-7.13-2.05-14.13-2.03-21.76a.332.329 29.186 0 1 .61-.17c4.79 7.5 10 15.22 16.76 20.15a1.542 1.528-80.658 0 1 .59.83q.03.08.52 4.3.18 1.51.89 4.24 4.31 16.56 13.6 31.14a1.718 1.69-56.787 0 1 .24 1.2zm37.87-1.92c.55-1.17 3.2-3.73 4.45-5.31q8.85-11.17 16.44-21.97a.067.054-69.699 0 1 .05-.03l35.29-2.69a1.028 1.022-21.319 0 1 .85.37l18.69 22.49a.879.874 36.107 0 1 .14.88c-1.63 3.97-3.02 7.26-5.72 10.26-3.11 3.46-6.66 7.7-10.36 10.44a4.81 4.688 19.795 0 1-1.78.81q-15.36 3.44-23.27 3.77-8.95.38-19.42-.16a1.678 1.636 64.16 0 1-.94-.34c-5.97-4.45-11.65-10.55-14.45-17.6a1.149 1.113-44.066 0 1 .03-.92m5.39 24.72a.295.294-47.176 0 1-.02-.57l9.66-3.01a1.757 1.702-49.722 0 1 .71-.07q20.73 2.1 41.21-3.35a4.516 4.466 51.977 0 1 3.36.43l.05.03a.967.965 49.004 0 1-.12 1.74q-27.13 10.75-54.85 4.8"></path><path fill="#db0b08" fill-rule="evenodd" d="M559.72 645.85a1.3 1.29 0 0 1-1.3 1.29H465.3a1.09 1.09 36.829 0 1-1.09-1.09v-26.18a.95.95 45 0 1 .95-.95h13.44a.81.8 0 0 0 .81-.8v-22.99a.853.847-79.609 0 1 1.15-.8c19.89 7.6 42.69 7.07 62.57.52a.726.725 80.97 0 1 .95.69v22.5a.88.88 45 0 0 .88.88h14a.76.76 45 0 1 .76.76z"></path><path fill="#fff" fill-rule="evenodd" d="M385.93 672.99c-1.11 1.23-1.38 5.3.92 5.69q2.69.46 9.43.5c7.35.04 8.44 4.07 7.64 10.59q-.65 5.38-6.01 5.94-8.1.84-12.24.12-6.62-1.16-6.02-8.3a.837.835-88.468 0 1 .81-.77l3.53-.11a.805.796 80.496 0 1 .79.57l.69 2.29a2.091 2.087-8.439 0 0 2 1.48h7.63a3.1 3.1-10.343 0 0 3.1-3.1v-.9a2.671 2.664 88.966 0 0-2.76-2.67q-1.51.05-8.63-.61c-6.87-.64-7.23-4.84-6.9-10.38.26-4.27 3.49-5.67 7.48-5.89 5.67-.32 17.15-1 16.07 8.13a.705.698 3.19 0 1-.7.62h-4.53a.746.74 81.544 0 1-.71-.53l-.59-1.95a2.158 2.144 80.628 0 0-2.12-1.53l-7.52.19a1.916 1.904-69.326 0 0-1.36.62m250.4.55a.294.294 20.905 0 0-.22-.49h-13.45a1.13 1.13-45 0 1-1.13-1.13v-3.5a1.04 1.04-45 0 1 1.04-1.04h21.58a.99.98 90 0 1 .98.99v3.5a1.862 1.842-25.84 0 1-.41 1.16q-3.7 4.5-7.85 8.15a1.389 1.033-10.085 0 0-.16.17l-6.92 8.55a.342.336 19.338 0 0 .27.55h13.91a1.12 1.12 35.522 0 1 1.12 1.12v3.29a1.02 1.02 0 0 1-1.02 1.02h-22.58a.869.861-5.686 0 1-.85-.69q-.42-2.05.11-3.88a1.158.976 78.008 0 1 .23-.43zm-216.228 16.489q-4.538-.007-5.008-.004a1.441 1.427 9.68 0 0-1.334.935l-1.229 3.306a2.125 2.113 10.048 0 1-1.986 1.38l-3.806.007a.847.846 10.217 0 1-.795-1.144l9.614-25.886a1.221 1.211 5.855 0 1 .956-.771q1.48-.217 3.624-.214t3.623.226a1.221 1.211-5.669 0 1 .953.774l9.531 25.917a.847.846-10.031 0 1-.799 1.141l-3.806-.019a2.125 2.113-9.862 0 1-1.982-1.386l-1.218-3.31a1.441 1.427-9.494 0 0-1.331-.94q-.47-.005-5.007-.012m-.732-12.709-2.1 6.65a.745.744 8.847 0 0 .71.97h4.72a.597.589 79.903 0 0 .55-.8l-2.57-6.85a.693.692 43.671 0 0-1.31.03m34.673 2.903q2.299 4.059 4.638 8.481a.329.328-58.916 0 0 .619-.154v-19.87a1.16 1.16 33.725 0 1 1.16-1.16h3.93a.95.95-64.838 0 1 .95.95v26.28a1.04 1.04 0 0 1-1.04 1.04h-7.96a1.251 1.225-13.748 0 1-1.096-.65q-3.215-5.989-6.625-12.008-2.298-4.06-4.637-8.482a.329.328-58.916 0 0-.619.154v19.87a1.16 1.16 33.725 0 1-1.16 1.16h-3.93a.95.95 45 0 1-.95-.95v-26.28a1.04 1.04 0 0 1 1.04-1.04h7.96a1.251 1.225-13.748 0 1 1.096.649q3.215 5.989 6.624 12.01m25.587-12.598q5.426-.075 10.625.027a1.028 1.023-89.485 0 1 1.005 1.028v3.01a1.13 1.12 90 0 1-1.12 1.13h-6.74a.66.66 74.806 0 0-.66.66v21.01a1.099 1.096-.698 0 1-1.073 1.096q-1.788.039-1.975.04-.188 0-1.976-.031a1.099 1.096.444 0 1-1.078-1.092l-.093-21.009a.66.66-81.504 0 0-.663-.657l-6.74.029a1.13 1.12 89.746 0 1-1.125-1.125l-.013-3.01a1.028 1.023 89.232 0 1 1-1.032q5.199-.125 10.626-.074m59.268 14.205q.023 3.3.149 6.409c.133 3.181 6.593 2.521 8.453 2.501q4.01-.04 4.94-3.54a.95.949 5.115 0 1 .85-.71l3.72-.29a.904.896-4.951 0 1 .96.8q.67 6.78-4.6 8.31-4.89 1.42-13.194.448c-7.817-.916-7.607-7.914-7.65-13.882-.043-5.969-.353-12.963 7.45-13.991q8.29-1.091 13.199.259 5.292 1.455 4.719 8.243a.904.896 4.13 0 1-.948.814l-3.724-.237a.95.949-5.936 0 1-.86-.697q-.98-3.487-4.99-3.469c-1.861.006-8.329-.561-8.417 2.622q-.081 3.11-.057 6.41m45.002 2.11a.312.311-47.279 0 0 .02.54q2.56 1.34 2.62 3.75.09 3.23.1 6.31a1.261 1.252-88.906 0 1-1.3 1.26l-3.93-.15a1.17 1.17.768 0 1-1.13-1.16q0-.11-.23-3.9c-.15-2.51-1.1-3.82-3.56-3.88q-3.82-.09-7.53-.09a.89.89 45 0 0-.89.89v6.78a1.4 1.4 45 0 1-1.4 1.4h-3.78a1.25 1.25-45 0 1-1.25-1.25v-25.45a1.201 1.191 89.012 0 1 1.15-1.2q8.84-.33 16.67 0 2.82.11 5.19 2.29c2.31 2.11 2.11 6.23 1.97 9.03q-.15 3.22-2.72 4.83m-15.139-9.353.058 4.759a1 1-45.365 0 0 1.013.988l7.469-.091a2.43 2.27-.7 0 0 2.402-2.3l-.027-2.219a2.43 2.27-.7 0 0-2.457-2.241l-7.47.092a1 1 90 0 0-.988 1.012m35.479 15.957c2.863-.002 6.364.007 6.302-3.569q-.162-9.305-.072-18.065a1.342 1.332 89.556 0 1 1.29-1.32l4.26-.12a1.231 1.221-.679 0 1 1.27 1.23q-.17 18-.133 18.833c.404 8.424-6.628 8.568-12.914 8.571-6.286.002-13.319-.136-12.922-8.56q.037-.833-.148-18.833a1.231 1.221.631 0 1 1.269-1.231l4.26.116a1.342 1.332-89.603 0 1 1.291 1.319q.097 8.76-.057 18.065c-.059 3.576 3.442 3.565 6.304 3.564m-98.972-22.747q2.135-.007 3.609.207a1.216 1.206-5.957 0 1 .953.766l9.62 25.76a.844.843-10.319 0 1-.79 1.14h-3.79a2.116 2.104-10.15 0 1-1.98-1.37l-1.23-3.29a1.435 1.421-9.782 0 0-1.33-.929q-.468-.003-4.986.013-4.519.015-4.987.021a1.435 1.421 9.392 0 0-1.323.938l-1.208 3.298a2.116 2.104 9.76 0 1-1.97 1.384l-3.79.025a.844.843 9.929 0 1-.798-1.134l9.445-25.825a1.216 1.206 5.567 0 1 .947-.773q1.473-.223 3.608-.231m.234 17.082q.922.004 2.279-.046a.617.616 78.124 0 0 .549-.843q-1.44-3.67-2.235-6.575-.21-.774-.561-.775t-.568.771q-.817 2.898-2.286 6.557a.617.616-77.675 0 0 .543.847q1.356.06 2.279.064"></path><path fill="#0881fa" fill-rule="evenodd" d="M568.761 674.587a1 1-51.385 0 1 .988-1.012l7.47-.092a2.43 2.27-.7 0 1 2.457 2.241l.027 2.219a2.43 2.27-.7 0 1-2.402 2.3l-7.469.091a1 1-45.337 0 1-1.013-.988zm-63.227 2.053q.351.001.561.775.795 2.905 2.235 6.575a.617.616 78.124 0 1-.549.843q-1.357.05-2.279.046-.923-.004-2.279-.064a.617.616-77.675 0 1-.543-.847q1.469-3.659 2.286-6.557.217-.773.568-.771m-86.164.68a.693.692 43.671 0 1 1.31-.03l2.57 6.85a.597.589 79.903 0 1-.55.8h-4.72a.745.744 8.847 0 1-.71-.97z"></path><path fill="#fff" fill-rule="evenodd" d="M502.6 721.92a.647.641-13.259 0 0-.98-.6c-3.73 2.25-9.15 1.83-13.08.56-3.51-1.12-3.99-8.21-2.38-10.79 2.8-4.49 9.24-3.73 13.84-3.33 5.26.45 7.76 3.2 7.98 8.5q.37 8.86-.72 12.83a2.912 2.91 74.911 0 1-.73 1.27c-3.6 3.66-9.18 3.2-14.49 2.74q-6.27-.54-6.71-6.78a1.101 1.098.671 0 1 1.2-1.17l3.5.31a1.113 1.111 89.686 0 1 1.01 1q.19 1.78 2.7 1.87 3.95.15 6.96-.04a1.553 1.549-89.134 0 0 1.45-1.41zm-1.062-6.747a2 2 0 0 0-2.007-1.993l-5.82.02a2 2 0 0 0-1.993 2.007l.004.94a2 2 0 0 0 2.007 1.993l5.82-.02a2 2 0 0 0 1.993-2.007zM476.95 732.47a.74.74 45 0 1-.74.74h-4.42a.651.65-89.145 0 1-.65-.67q.16-8.15-.02-17.54 0-.17-.01-.31a.979.976 67.671 0 0-1.62-.68l-4.62 4.06a1.149 1.141 48.698 0 1-1.62-.11l-1.48-1.68a1.254 1.246 48.75 0 1 .11-1.76q3.34-2.96 4.04-3.62 3.97-3.77 9.84-3.13a1.335 1.327 3.136 0 1 1.19 1.32zm54.42.41h-3.72a1 .99 90 0 1-.99-1v-3.22a.75.74 0 0 0-.75-.74h-13.08a1.07 1.07 89.174 0 1-1.07-1.04c-.11-3.01-.24-4.14 1.88-6.5q4.2-4.69 8.94-10.04 1.31-1.47 2.1-1.93c1.71-.99 5.56-.63 7.19-.52a.973.964-88.11 0 1 .9.97v13.6a.788.787-5.949 0 0 .95.77q.94-.2 1.84.05a.792.781-82.268 0 1 .57.76v2.87a.703.694 87.794 0 1-.64.7l-2.38.18a.625.611-2.561 0 0-.57.61v3.3a1.18 1.17 90 0 1-1.17 1.18m-5.57-16.85a.442.442-27.21 0 0-.78-.25l-5.03 6.07a.403.402 19.879 0 0 .31.66h5.04a.885.883 87.887 0 0 .88-.95zm19.01 3.18a.483.481 74.09 0 0 .77.43c3.64-2.75 9.73-2.24 13.66-.75a3.173 3.157 2.719 0 1 1.91 2.09c1.24 4.44 2.03 11.16-4.39 12.09q-4.85.7-10.39.04-5.42-.64-6.14-5.61-1.01-6.98-.42-13.74c.5-5.92 6.64-5.97 11.31-5.99q5.29-.02 6.35.32 4.99 1.61 4.6 7.33a.693.683 4.528 0 1-.75.63l-3.38-.3a1.526 1.518 83.566 0 1-1.31-1.05c-.44-1.38-.66-2.01-2.13-2.13q-4.25-.35-7.64.03a1.829 1.825-.591 0 0-1.61 1.64zm10.849 5.671a1.63 1.63 0 0 0-1.633-1.627l-6.66.012a1.63 1.63 0 0 0-1.627 1.633l.002 1.12a1.63 1.63 0 0 0 1.633 1.627l6.66-.012a1.63 1.63 0 0 0 1.627-1.633z"></path><path fill="#0881fa" fill-rule="evenodd" d="M501.542 716.113a2 2 0 0 1-1.993 2.007l-5.82.02a2 2 0 0 1-2.007-1.993l-.004-.94a2 2 0 0 1 1.993-2.007l5.82-.02a2 2 0 0 1 2.007 1.993zm24.258-.083.42 5.53a.885.883 87.887 0 1-.88.95h-5.04a.403.402 19.879 0 1-.31-.66l5.03-6.07a.442.442-27.21 0 1 .78.25m29.861 9.971a1.63 1.63 0 0 1-1.627 1.633l-6.66.012a1.63 1.63 0 0 1-1.633-1.627l-.002-1.12a1.63 1.63 0 0 1 1.627-1.633l6.66-.012a1.63 1.63 0 0 1 1.633 1.627z"></path><path fill="#edb91b" fill-rule="evenodd" d="M368.87 823.64a.498.497 25.092 0 1 .32.88l-23.26 19.32a1.158 1.15-28.312 0 0-.37 1.22l9.25 30.62a.351.347 9.595 0 1-.54.38l-25.42-17.93a1.956 1.949 44.399 0 0-2.28.02l-25.82 19.04a.341.341 25.352 0 1-.53-.37l9.5-32.01a.715.707-62.128 0 0-.23-.76l-23.9-19.1a.624.622 63.97 0 1 .38-1.11l29.21-.33a1.476 1.45 24.351 0 0 .9-.33q1.04-.84 1.72-2.91 3.83-11.56 9.66-28.16.21-.58.8-.41.27.08.39.41c2.46 7.03 4.09 11.13 6.18 18.88q1.51 5.6 3.89 11.6a1.684 1.67-10.809 0 0 1.56 1.05zm327.338-30.798q.404.002.495.262 5.667 16.136 9.717 29.426.58 1.9 2.83 1.89 8.23-.06 27.99.49 1.27.03 1.14.62a.256.234 79.239 0 1-.08.13l-23.88 19.15a1.419 1.417 62.221 0 0-.47 1.52l9.36 31.01a.409.408 10.368 0 1-.64.44q-7.88-5.93-25.3-18.394-1.047-.749-1.447-.751t-1.454.738q-17.528 12.313-25.459 18.174a.409.408-9.87 0 1-.636-.446l9.629-30.927a1.419 1.417-61.723 0 0-.457-1.524l-23.713-19.357a.256.234-78.741 0 1-.079-.131q-.124-.591 1.146-.61 19.764-.378 27.993-.247 2.25.03 2.846-1.865 4.166-13.254 9.972-29.341.094-.259.497-.257M447.95 903.24a.379.378 8.991 0 1-.58.42l-25.2-17.78a1.674 1.667 44.304 0 0-1.96.02l-26.09 19.24a.348.348 24.831 0 1-.54-.38l9.28-31.23a2.324 2.317-62.616 0 0-.78-2.47l-23.01-18.4a.337.336 63.538 0 1 .2-.6l30.13-.92a1.56 1.56 7.797 0 0 1.45-1.1l9.34-29.53a.957.955-45.259 0 1 1.82-.01l9.61 29.54a1.66 1.658-8.903 0 0 1.58 1.15h29.01a.573.57 25.055 0 1 .37 1.01l-23.25 19.32a1.503 1.498 62.001 0 0-.48 1.58zm180.33 2.34-25.94-19a1.593 1.582 44.795 0 0-1.89 0l-25.62 18.89a.614.613-9.369 0 1-.95-.68l9.77-30.91a.887.885-61.479 0 0-.28-.95l-23.48-19.47a.685.684-25.051 0 1 .44-1.21h29.94a1.379 1.359 8.639 0 0 1.31-.95l9.57-30.28a.841.839-45.294 0 1 1.6-.01l9.7 29.79a1.746 1.732 81.698 0 0 1.61 1.21l29.29.83a.445.444 28.547 0 1 .24.81c-5.12 3.52-10.26 8.33-16.85 13.3q-3.38 2.56-6.83 6.17a.918.917-31.437 0 0-.22.91l9.36 31a.5.497-80.373 0 1-.77.55m-72.89-22.87q-.15.54-.29.64c-3.25 2.33-6.52 5.67-10.4 8.59q-6.94 5.23-13.16 10.62a1.419 1.408-28.915 0 0-.43 1.47l9.24 30.58a.385.383 9.396 0 1-.59.42l-26.02-18.36a1.358 1.355 44.571 0 0-1.59.01l-25.67 18.93a.392.387 80.235 0 1-.6-.43l9.31-31.33a1.297 1.284-62.593 0 0-.43-1.38l-23.85-19.06a.665.662-25.528 0 1 .42-1.18h30.08a1.148 1.142 9.736 0 0 1.08-.76q5.21-14.62 9.85-29.85.21-.68.57-1.01a.928.924 60.921 0 1 1.53.44q4.14 15.68 9.61 30.2a1.6 1.6 79.715 0 0 1.5 1.04h29.52a.335.332-82.589 0 1 .32.42" data-source="https://football-logos.cc"></path><!-- source: https://football-logos.cc --></svg>