<svg xmlns="http://www.w3.org/2000/svg" viewBox="0 0 160.95 165.18"><metadata xmlns:fl="https://football-logos.cc/bosnia-and-herzegovina/borac">dl1_e07f0b5414904bfba5c71212de930b560e794fc488291159aa6eac8989759c10</metadata><!-- Source: https://football-logos.cc --><clipPath id="a" data-source="https://football-logos.cc"><path d="M-22.811-.527h45.624v46.823h-45.624z"></path></clipPath><clipPath id="b"><path d="M-40.038-17.19H5.586v46.823h-45.624z"></path></clipPath><clipPath id="c"><path d="M-45.447-34.428h58.991V24.58h-58.99z"></path></clipPath><clipPath id="d"><path d="M-46.619-38.372h58.991v59.01h-58.99z"></path></clipPath><clipPath id="e"><path d="M-20.16-20.669h58.99v59.01h-58.99z"></path></clipPath><clipPath id="f"><path d="M-24.083-15.99h58.99v59.008h-58.99z"></path></clipPath><clipPath id="g"><path d="M-41.321-45.298H17.67V13.71h-58.991z"></path></clipPath><clipPath id="h"><path d="M-26.199-47.833h58.991v59.01h-58.99z"></path></clipPath><clipPath id="i"><path d="M-10.3-37.235h58.99v59.009H-10.3z"></path></clipPath><clipPath id="j"><path d="M-11.43-32.354h58.992v59.01H-11.43z"></path></clipPath><clipPath id="k"><path d="M-12.973-27.693h58.99v59.01h-58.99z"></path></clipPath><clipPath id="l"><path d="M-15.203-23.37h58.991v59.01h-58.99z"></path></clipPath><clipPath id="m"><path d="M-17.977-19.427h58.991v59.01h-58.99z"></path></clipPath><clipPath id="n"><path d="M-21.248-15.716h58.991v59.009h-58.99z"></path></clipPath><clipPath id="o"><path d="M-24.788-12.588h58.991V46.42h-58.99z"></path></clipPath><clipPath id="p"><path d="M-28.57-9.836h58.991v59.009h-58.99z"></path></clipPath><clipPath id="q"><path d="M-48.556-37.188h58.991v59.01h-58.99z"></path></clipPath><clipPath id="r"><path d="M-47.427-32.306h58.991v59.01h-58.99z"></path></clipPath><clipPath id="s"><path d="M-45.883-27.645h58.991v59.01h-58.991z"></path></clipPath><clipPath id="t"><path d="M-43.654-23.322h58.991v59.009h-58.99z"></path></clipPath><clipPath id="u"><path d="M-40.88-19.38h58.991v59.01h-58.99z"></path></clipPath><clipPath id="v"><path d="M-37.609-15.669h58.991v59.01h-58.99z"></path></clipPath><clipPath id="w"><path d="M-34.069-12.54h58.991v59.008h-58.99z"></path></clipPath><clipPath id="x"><path d="M-30.287-9.789h58.991V49.22h-58.99z"></path></clipPath><clipPath id="y"><path d="M-28.32-8.959h58.99v59.01h-58.99z"></path></clipPath><clipPath id="z"><path d="M-19.187-42.862h58.991v59.009h-58.99z"></path></clipPath><clipPath id="A"><path d="M-18.077-41.434h58.991v59.009h-58.99z"></path></clipPath><clipPath id="B"><path d="M-17.693-36.392h58.99v59.01h-58.99z"></path></clipPath><clipPath id="C"><path d="M-21.312-36.903h58.991v59.01h-58.991z"></path></clipPath><clipPath id="D"><path d="M-20.771-40.927h58.99v59.009h-58.99z"></path></clipPath><clipPath id="E"><path d="M-21.98-40.452h58.99v59.009h-58.99z"></path></clipPath><clipPath id="F"><path d="M-22.616-38.579h58.99v59.01h-58.99z"></path></clipPath><clipPath id="G"><path d="M-19.967-35.806h58.99v59.01h-58.99z"></path></clipPath><clipPath id="H"><path d="M-16.104-37.584h58.99v59.009h-58.99z"></path></clipPath><clipPath id="I"><path d="M-16.797-41.744h58.99v59.009h-58.99z"></path></clipPath><clipPath id="J"><path d="M-19.187-42.693h58.991v59.009h-58.99z"></path></clipPath><clipPath id="K"><path d="M-39.202-35.627H19.79v59.009H-39.2z"></path></clipPath><clipPath id="L"><path d="M-20.613-27.429h58.991V31.58h-58.99z"></path></clipPath><clipPath id="M"><path d="M-25.402-32.374h58.991v59.01h-58.991z"></path></clipPath><clipPath id="N"><path d="M-29.435-34.538h58.99V24.47h-58.99z"></path></clipPath><clipPath id="O"><path d="M-34.448-34.954h58.991v59.009h-58.99z"></path></clipPath><clipPath id="P" data-source="https://football-logos.cc"><path d="M-39.216-40.107h58.991v59.009h-58.99z"></path></clipPath><clipPath id="Q"><path d="M-24.986-51.5h58.99V7.51h-58.99z"></path></clipPath><clipPath id="R"><path d="M-27.665-50.003h58.99v59.01h-58.99z"></path></clipPath><clipPath id="S"><path d="M-30.085-50.405h58.991V8.604h-58.99z"></path></clipPath><clipPath id="T"><path d="M-34.156-49.876h58.99v59.01h-58.99z"></path></clipPath><clipPath id="U"><path d="M-23.858-19.492h58.99v59.01h-58.99z"></path></clipPath><clipPath id="V"><path d="M-25.672-21.132h58.991v59.009h-58.991z"></path></clipPath><clipPath id="W"><path d="M-29.27-22.37h58.991v59.01h-58.99z"></path></clipPath><clipPath id="X"><path d="M-30.884-23.903h58.991v59.009h-58.99z"></path></clipPath><clipPath id="Y"><path d="M-33.834-26.69h58.99v59.01h-58.99z"></path></clipPath><clipPath id="Z"><path d="M-37.085-28.105h58.991v59.01h-58.99z"></path></clipPath><clipPath id="aa"><path d="M-37.309-28.537h58.991v59.01h-58.99z"></path></clipPath><clipPath id="ab"><path d="M-40.819-29.186h58.991v59.01h-58.99z"></path></clipPath><clipPath id="ac"><path d="M-34.26-26.349h58.99v59.01h-58.99z"></path></clipPath><path fill="#fff" fill-rule="evenodd" d="M0 0c15.517 9.621 22.52 23.325 22.36 39.402-12.881 8.546-32.155 8.64-44.72 0C-22.52 23.325-15.612 9.621 0 0" clip-path="url(#a)" transform="matrix(3.52778 0 0 -3.52778 80.473 163.322)"></path><path fill="#ccac5e" d="M0 0c-3.71-6.539-9.32-12.287-16.991-17.044l-.234-.145-.236.145C-25.16-12.299-30.763-6.566-34.463-.047c-3.871 6.823-5.655 14.496-5.572 22.79l.002.233.192.132c6.344 4.362 14.368 6.526 22.43 6.526 8.104 0 16.258-2.186 22.792-6.52l.199-.133.003-.238C5.665 14.468 3.865 6.81 0 0m-17.227-16.135C-9.811-11.491-4.379-5.901-.779.442c3.745 6.6 5.509 14.024 5.464 22.055-6.348 4.147-14.242 6.238-22.096 6.238-7.81 0-15.571-2.067-21.727-6.232-.046-8.052 1.702-15.495 5.455-22.107 3.588-6.324 9.013-11.898 16.456-16.531" clip-path="url(#b)" transform="matrix(3.52778 0 0 -3.52778 141.244 104.54)"></path><path fill="#254a91" fill-rule="evenodd" d="M0 0c.629 2.632.971 5.365 1.041 8.179a27.7 27.7 0 0 1-5.167 2.691L-30.852-3.962a32.9 32.9 0 0 1 5.566-9.798z" clip-path="url(#c)" transform="matrix(3.52778 0 0 -3.52778 136.75 65.185)"></path><path fill="#ccac5e" d="M0 0a38 38 0 0 0-.734-4.047l-.047-.193-.177-.096-25.286-13.76-.326-.177-.234.285a33.7 33.7 0 0 0-3.258 4.738 33 33 0 0 0-2.385 5.194l-.128.357.334.186L-5.515 7.318l.187.104.195-.077Q-3.731 6.79-2.405 6.1q1.296-.675 2.524-1.493l.206-.137-.007-.245A42 42 0 0 0 0 0m-1.563-3.647q.434 1.862.675 3.759.24 1.899.301 3.888-1.072.699-2.232 1.303-1.192.62-2.449 1.128L-31.471-8.111a32 32 0 0 1 2.188-4.697 33 33 0 0 1 2.938-4.324z" clip-path="url(#d)" transform="matrix(3.52778 0 0 -3.52778 140.884 51.274)"></path><path fill="#fff" fill-rule="evenodd" d="M0 0c2.468-3.01 5.564-5.75 9.334-8.172C18.104-2.37 23.231 5.161 25.286 13.76z" clip-path="url(#e)" transform="matrix(3.52778 0 0 -3.52778 47.545 113.726)"></path><path fill="#ccac5e" d="M0 0a37 37 0 0 0-4.269 4.393l-.343.419.475.259 25.286 13.76.885.481-.233-.978c-1.062-4.442-2.934-8.604-5.692-12.396-2.646-3.637-6.107-6.933-10.45-9.806l-.244-.161-.246.157A44 44 0 0 0 0 0m-3.23 4.545A36.4 36.4 0 0 1 .59.674a42.6 42.6 0 0 1 4.818-3.632c4.136 2.774 7.44 5.938 9.974 9.423a33.6 33.6 0 0 1 5.293 11.088z" clip-path="url(#f)" transform="matrix(3.52778 0 0 -3.52778 61.384 130.228)"></path><path fill="#d52d22" fill-rule="evenodd" d="M0 0c-9.292 3.682-20.838 2.828-28.82-2.692.052-4.271.73-8.338 2.094-12.14z" clip-path="url(#g)" transform="matrix(3.52778 0 0 -3.52778 122.195 26.838)"></path><path fill="#ccac5e" d="M0 0c5.172.483 10.522-.228 15.287-2.117l.882-.349-.829-.46-26.726-14.832-.462-.256-.178.497a35 35 0 0 0-1.55 5.92 40 40 0 0 0-.571 6.366l-.003.237.198.137C-9.944-2.086-5.056-.472 0 0m14.058-2.613C9.652-1.03 4.79-.452.081-.892c-4.823-.45-9.484-1.968-13.325-4.567q.052-3.075.552-5.987a34.4 34.4 0 0 1 1.337-5.27z" clip-path="url(#h)" transform="matrix(3.52778 0 0 -3.52778 68.846 17.897)"></path><g fill-rule="evenodd"><path fill="#ccac5e" d="m0 0 .029.003-1.067.996-.38 3.345.949-.878.125-1.067.16-.25.111.275-.074 1.072.771 1.037.242-3.357z" clip-path="url(#i)" transform="matrix(3.52778 0 0 -3.52778 12.761 55.283)"></path><path fill="#ccac5e" d="m0 0 .028.007-1.217.807-.926 3.237 1.081-.71.299-1.032.199-.22.064.29-.249 1.045.59 1.15.792-3.272z" clip-path="url(#j)" transform="matrix(3.52778 0 0 -3.52778 16.744 72.504)"></path><path fill="#ccac5e" d="m0 0 .028.009-1.274.714-1.165 3.158 1.13-.626.375-1.007.215-.205.043.294-.327 1.024.503 1.191L.562 1.348z" clip-path="url(#k)" transform="matrix(3.52778 0 0 -3.52778 22.19 88.948)"></path><path fill="#ccac5e" d="m0 0 .026.013-1.355.545-1.56 2.983 1.202-.477.501-.951.239-.175.005.296-.455.974.345 1.246L.384 1.409z" clip-path="url(#l)" transform="matrix(3.52778 0 0 -3.52778 30.055 104.197)"></path><path fill="#ccac5e" d="m0 0 .024.016-1.415.359-1.945 2.748 1.255-.312.623-.875.261-.141-.035.294-.581.904.176 1.28L.192 1.448z" clip-path="url(#m)" transform="matrix(3.52778 0 0 -3.52778 39.841 118.108)"></path><path fill="#ccac5e" d="m0 0 .023.019-1.446.206-2.225 2.526 1.28-.177.713-.804.274-.113-.066.289-.674.837.039 1.292L.038 1.46z" clip-path="url(#n)" transform="matrix(3.52778 0 0 -3.52778 51.38 131.198)"></path><path fill="#ccac5e" d="m0 0 .02.022-1.46.022-2.526 2.227 1.293-.015.809-.708.285-.077-.101.278-.774.746-.124 1.286 2.432-2.328z" clip-path="url(#o)" transform="matrix(3.52778 0 0 -3.52778 63.869 142.233)"></path><path fill="#ccac5e" d="m0 0 .018.023-1.456-.117-2.727 1.973 1.287.11.873-.627.293-.05-.129.267-.841.669-.247 1.268 2.644-2.083z" clip-path="url(#p)" transform="matrix(3.52778 0 0 -3.52778 77.211 151.94)"></path><path fill="#ccac5e" d="m0 0-.029.002 1.068.997.379 3.345-.949-.878-.125-1.068-.16-.249-.111.275.074 1.072-.772 1.037-.241-3.358z" clip-path="url(#q)" transform="matrix(3.52778 0 0 -3.52778 147.718 55.45)"></path><path fill="#ccac5e" d="m0 0-.028.007 1.217.807.926 3.237-1.081-.71-.299-1.032-.199-.22-.064.289.249 1.046-.59 1.15-.792-3.272z" clip-path="url(#r)" transform="matrix(3.52778 0 0 -3.52778 143.734 72.673)"></path><path fill="#ccac5e" d="m0 0-.028.009 1.274.714 1.165 3.158-1.13-.626-.375-1.008-.216-.203-.042.293.327 1.024-.503 1.191-1.034-3.204z" clip-path="url(#s)" transform="matrix(3.52778 0 0 -3.52778 138.289 89.116)"></path><path fill="#ccac5e" d="m0 0-.026.013 1.355.544 1.56 2.983-1.202-.476-.501-.951-.239-.175-.005.296.455.974-.345 1.246-1.436-3.045z" clip-path="url(#t)" transform="matrix(3.52778 0 0 -3.52778 130.424 104.365)"></path><path fill="#ccac5e" d="m0 0-.024.016 1.415.359 1.945 2.748-1.254-.312-.624-.875-.261-.142.035.295.581.904-.176 1.28-1.829-2.826z" clip-path="url(#u)" transform="matrix(3.52778 0 0 -3.52778 120.638 118.275)"></path><path fill="#ccac5e" d="m0 0-.023.019 1.446.206 2.225 2.526-1.28-.177-.713-.804-.274-.113.066.289.673.837-.038 1.292-2.12-2.615z" clip-path="url(#v)" transform="matrix(3.52778 0 0 -3.52778 109.099 131.365)"></path><path fill="#ccac5e" d="m0 0-.02.022 1.46.023 2.525 2.226-1.292-.015-.809-.708-.286-.077.102.278.774.745.124 1.287L.146 1.453z" clip-path="url(#w)" transform="matrix(3.52778 0 0 -3.52778 96.61 142.4)"></path><path fill="#ccac5e" d="m0 0-.018.023 1.456-.117 2.727 1.973-1.288.109-.873-.627-.292-.049.128.267.842.668.247 1.269L.285 1.432z" clip-path="url(#x)" transform="matrix(3.52778 0 0 -3.52778 83.269 152.107)"></path><path fill="#ccac5e" d="m0 0 1.191.926 1.157-.9-1.191-.927z" clip-path="url(#y)" transform="matrix(3.52778 0 0 -3.52778 76.331 155.036)"></path><path fill="#254a91" d="M0 0c.496 0 .958-.099 1.391-.268.454-.194.85-.467 1.189-.797.342-.338.611-.747.792-1.188a3.55 3.55 0 0 0 0-2.79 3.4 3.4 0 0 0-.792-1.189 3.8 3.8 0 0 0-1.189-.805A3.6 3.6 0 0 0 0-7.309a3.6 3.6 0 0 0-1.395.272c-.441.194-.85.467-1.188.805-.331.33-.611.739-.793 1.189a3.57 3.57 0 0 0 0 2.79c.182.441.462.85.793 1.188.338.33.747.603 1.188.797C-.961-.099-.487 0 0 0" clip-path="url(#z)" transform="matrix(3.52778 0 0 -3.52778 44.11 35.432)"></path><path fill="#fff" d="M0 0c-.091-.008-.203-.02-.318-.02-.111-.025-.239-.034-.351-.058a2 2 0 0 1-.26-.054c-.07-.012-.136-.037-.194-.058a5 5 0 0 1-.247-.433 5 5 0 0 1-.261-.52c-.045-.104-.09-.194-.135-.293-.038-.083-.058-.161-.091-.239.033-.046.053-.112.091-.194a2.528 2.528 0 0 1 .305-.508q.098-.119.215-.207c.044.025.111.038.169.058.078.025.148.034.214.058.116.021.239.058.376.103.111.021.239.054.363.087l.623 1.213c-.057.07-.115.162-.16.252-.046.079-.1.169-.146.272a2 2 0 0 0-.115.281C.045-.169.013-.091 0 0" clip-path="url(#A)" transform="matrix(3.52778 0 0 -3.52778 40.195 40.47)"></path><path fill="#fff" d="M0 0c.099.025.189.036.28.057.091.033.182.045.273.07.091.034.181.055.273.079.078.033.168.058.247.09l.161 1.313-.966.986a4 4 0 0 1-.338-.09 2.3 2.3 0 0 1-.364-.1c-.09-.012-.157-.036-.227-.057-.053-.025-.124-.033-.181-.045-.033-.07-.066-.149-.099-.215a1.3 1.3 0 0 1-.091-.26c-.037-.103-.058-.219-.082-.31a2 2 0 0 1-.054-.325c.054-.092.136-.215.227-.343.099-.124.215-.248.326-.372.116-.103.215-.206.33-.284C-.194.115-.091.045 0 0" clip-path="url(#B)" transform="matrix(3.52778 0 0 -3.52778 38.841 58.26)"></path><path fill="#fff" d="m0 0 .137 1.098c-.009 0 0-.008-.009 0-.116.083-.251.182-.433.285a4 4 0 0 1-.578.33l-1.333-.636-.169-1.324c.066-.058.136-.103.194-.149q.099-.069.235-.136c.078-.033.178-.079.293-.124.111-.045.235-.091.372-.124.045.009.082.033.123.054h.013c.181.091.375.181.578.305.194.116.396.252.577.421" clip-path="url(#C)" transform="matrix(3.52778 0 0 -3.52778 51.608 56.456)"></path><path fill="#fff" d="M0 0c-.012.066-.024.148-.045.226-.025.079-.058.158-.091.248-.057.104-.103.215-.161.33a6 6 0 0 1-.202.352 4 4 0 0 1-.305.045 4 4 0 0 1-.31.045c-.099.012-.198.02-.302.033-.09.012-.189.025-.292.025-.07-.046-.161-.103-.252-.174a3 3 0 0 1-.247-.19c-.079-.07-.149-.123-.215-.193-.045-.058-.104-.112-.124-.169.02-.079.045-.17.079-.261.033-.091.065-.194.123-.284.033-.092.091-.182.137-.26s.103-.157.148-.24l1.478-.235z" clip-path="url(#D)" transform="matrix(3.52778 0 0 -3.52778 49.7 42.259)"></path><path fill="#fff" d="M0 0a.8.8 0 0 1-.215.157.7.7 0 0 1-.26.111c-.09.037-.182.058-.284.083-.099.008-.215.008-.318.008l-.599-.714.203-1.337c.227-.099.433-.227.602-.326.169-.116.306-.215.421-.284.066.057.132.114.203.181.065.07.148.136.227.215q.084.084.169.181c.057.07.103.123.148.194.008.396-.025.702-.091.949C.149-.342.07-.148 0 0" clip-path="url(#E)" transform="matrix(3.52778 0 0 -3.52778 53.968 43.935)"></path><path fill="#fff" d="M0 0c.025.091.033.181.046.284C.058.4.058.512.058.635a3.565 3.565 0 0 1-.545 1.87l-.02-.495c.008-.013 0 0 .008-.025 0-.013 0-.013.012-.021.058-.149.149-.342.215-.59.058-.239.116-.557.103-.953A.3.3 0 0 0-.136.33c.013-.034.034-.066.045-.112.025-.045.034-.091.058-.135C-.02.058-.012.024 0 0" clip-path="url(#F)" transform="matrix(3.52778 0 0 -3.52778 56.209 50.543)"></path><path fill="#fff" d="M0 0c.313.078.611.19.882.338.294.157.566.363.806.603 0 .008.008.008.02.02h-.26A2.7 2.7 0 0 0 .85.532C.643.408.45.318.259.226L.247.214C.189.19.136.169.099.136z" clip-path="url(#G)" transform="matrix(3.52778 0 0 -3.52778 46.864 60.326)"></path><path fill="#fff" d="M0 0a3.3 3.3 0 0 1 .623-.838c.136-.148.298-.273.454-.388.149-.103.318-.202.475-.28 0 .008 0 .032-.008.045-.013.033-.013.054-.025.091v.02c-.013 0-.013.013-.013.013a2.4 2.4 0 0 0-.305.202 4.254 4.254 0 0 0-.681.693c-.099.124-.178.248-.248.351-.033.012-.066.02-.103.033a.3.3 0 0 1-.09.033c-.021 0-.046.013-.054.013C.013-.012.013 0 0 0" clip-path="url(#H)" transform="matrix(3.52778 0 0 -3.52778 33.236 54.052)"></path><path fill="#fff" d="m0 0-.012-.013C-.036-.037-.057-.045-.07-.07a3.5 3.5 0 0 1-.747-1.099 3.4 3.4 0 0 1-.272-1.237c.033.045.066.082.111.127.046.055.09.1.136.158.013.012.025.032.046.057.012.013.025.021.037.033.02.091.053.182.091.294q.07.174.157.362c.078.174.169.351.26.524.103.17.194.326.259.43C.008-.388 0-.355 0-.318v.235z" clip-path="url(#I)" transform="matrix(3.52778 0 0 -3.52778 35.68 39.376)"></path><path fill="#fff" d="M0 0c-.112 0-.214 0-.33-.009l-.268-.037c.021-.021.045-.045.066-.053a1 1 0 0 0 .124-.082c.045-.021.09-.034.149-.054a.5.5 0 0 1 .147-.058c.1 0 .191-.012.306-.025l.302-.033c.111-.012.227-.033.33-.046.111-.02.222-.045.338-.057l.429.07a3.7 3.7 0 0 1-.747.285A3.6 3.6 0 0 1 0 0" clip-path="url(#J)" transform="matrix(3.52778 0 0 -3.52778 44.11 36.028)"></path></g><path fill="#fff" d="m0 0 .564.316L.552.313A.3.3 0 0 0 .427.307a.3.3 0 0 0-.126.051L.297.361a.5.5 0 0 0-.099.115 2 2 0 0 0-.097.161l-1.429 2.552a5 5 0 0 0-.111.209.6.6 0 0 0-.058.154.3.3 0 0 0 .02.179l-.443-.248.027-.005a.4.4 0 0 0 .198-.141q.066-.081.149-.227L-.099.526q.072-.13.104-.233A.44.44 0 0 0 .022.064.3.3 0 0 0 0 0m.953 5.092-.459-.257.034-.007a.4.4 0 0 0 .194-.14h.001q.066-.078.147-.225h.001l1.447-2.584a2 2 0 0 0 .088-.171.5.5 0 0 0 .047-.149.3.3 0 0 0-.023-.135l-.001-.001a.3.3 0 0 0-.074-.103v-.001l-.001-.001-.005-.005q.124.067.228.116.172.081.281.111h.002a1 1 0 0 0 .269.028 1.7 1.7 0 0 0 .308-.04h.001q.121-.026.243-.081l-.354.307-.039-.022a1 1 0 0 0-.212-.09.4.4 0 0 0-.221 0 .43.43 0 0 0-.192.135 1.2 1.2 0 0 0-.146.213L1.052 4.605v.001q-.076.136-.104.237a.36.36 0 0 0 .004.245zm-1.077-.701-.129.231-.088.157.157.087 1.456.816.157.087.087-.156.129-.231.088-.156-.157-.088-.091-.051a1.3 1.3 0 0 1-.203-.139l-.001-.001c-.004-.01.008.007.012-.007a1 1 0 0 1 .072-.16l.001.001L2.83 2.166a1 1 0 0 1 .101-.151.1.1 0 0 1 .029-.029l.002-.001.025.006a.6.6 0 0 1 .125.054l.149.084.11.061.095-.082.851-.738.134-.117-.113-.135L4.15.895 4.03.753l-.138.124a1.5 1.5 0 0 1-.274.201 1 1 0 0 1-.255.099q-.134.029-.243.032a.6.6 0 0 1-.168-.016 1.5 1.5 0 0 1-.222-.089 5 5 0 0 1-.36-.189L-.294-.576-.45-.664l-.088.157-.129.23-.088.157.157.088.131.073a.7.7 0 0 1 .122.084l.018.018v.001a.2.2 0 0 1-.011.044A1 1 0 0 1-.412.35L-1.86 2.935a1.3 1.3 0 0 1-.112.172c-.014.017-.001.02-.009.022-.005.001-.005-.005-.028-.014a1.3 1.3 0 0 1-.19-.091l-.084-.047-.156-.088-.088.157-.129.23-.088.157.157.088 1.445.809.157.088.088-.156.129-.231.087-.157-.156-.087-.107-.06a2 2 0 0 1-.195-.127l.023-.046a4 4 0 0 1 .101-.189L.414.813Q.465.721.496.675L.498.672l.04.018q.068.033.169.089V.78l1.177.659h.001a3 3 0 0 1 .196.119v.001a2 2 0 0 1-.076.144L.558 4.288v.001a1 1 0 0 1-.112.169h.001c-.014.018-.006.022-.012.024-.006.001-.004-.007-.029-.015a1.3 1.3 0 0 1-.189-.09L.12 4.323l-.156-.088zM-4.611-.391l.724.405-.928.805zm-.098-1.616-.029.171.034-.222q.023-.148.029-.239.009-.104-.001-.177a.5.5 0 0 0-.033-.133l-.017-.04.349.196a.4.4 0 0 0-.096.03l-.003.001a.364.364 0 0 0-.16.152.5.5 0 0 0-.044.119q-.014.055-.029.142m2.476.864zm-2.796 2.885-.184-.103.256-.222L-3.46.118l.149-.13.01.006.095-.086.661-.592v-.001q.102-.093.166-.157a.7.7 0 0 0 .102-.126v.001a.33.33 0 0 0 .044-.176v-.001a.4.4 0 0 0-.025-.121l.567.318-.055.008a.7.7 0 0 0-.213.091q-.1.063-.22.166zm-.514.123.447.251.109.061.094-.081 2.946-2.504.001-.002q.1-.086.175-.133a.3.3 0 0 1 .095-.044l.003-.001a.14.14 0 0 1 .062.001q.044.007.092.036h.001l.059.033.157.087.087-.156.127-.228L-1-.971l-.157-.088-1.347-.755-.157-.087-.088.156-.127.228-.081.144.137.092q.024.018.068.044l.069.041h.001a1 1 0 0 1 .08.051c.005.005.004-.001.005-.001l.003.008-.041.045a5 5 0 0 1-.15.141l-.565.507-1.15-.644.145-.859a1 1 0 0 1 .032-.144l.003-.005h.001l.003-.001h.011l.025.008a1 1 0 0 1 .075.038l.071.039v-.001l.06.031.151.073.083-.147.127-.228.088-.157-.156-.087-1.131-.633-.157-.088-.087.157-.128.228-.088.156.157.088a1 1 0 0 1 .11.07.2.2 0 0 1 .04.036l.002.003a.1.1 0 0 1 .02.034q.008.022.012.048a1 1 0 0 1-.003.107 3 3 0 0 1-.025.212l-.575 3.793-.018.123zm-3.965-3.019.713-1.273.426.239q.213.119.346.217.122.09.174.159a.5.5 0 0 1 .075.146h.001a.7.7 0 0 1 .005.397 1 1 0 0 1-.09.218.9.9 0 0 1-.15.203.585.585 0 0 1-.568.163 1.3 1.3 0 0 1-.226-.088 6 6 0 0 1-.388-.203zm1.113.909a1.6 1.6 0 0 1-.296-.099l.032.009h.001a1 1 0 0 0 .322.021.969.969 0 0 0 .581-.28q.119-.117.21-.281.085-.15.124-.302a1.1 1.1 0 0 0-.011-.599v-.001a.86.86 0 0 0-.241-.371l.048.036q.181.138.269.254l.001.001a1 1 0 0 1 .137.256q.052.143.065.317v.002a.9.9 0 0 1-.021.272q-.033.14-.114.283-.092.166-.214.277a.8.8 0 0 1-.257.159q-.149.056-.307.068h-.001a1.1 1.1 0 0 1-.324-.022zm-.068.351v.001zm-1.524-1.14-.347-.195a.34.34 0 0 0 .173-.07.5.5 0 0 0 .112-.117 2 2 0 0 0 .102-.163l1.449-2.588q.054-.1.088-.179a.6.6 0 0 0 .045-.162v-.004a.4.4 0 0 0-.034-.191l.499.279a1 1 0 0 0-.069.021h-.001a.5.5 0 0 0-.12.069l-.003.002a.6.6 0 0 0-.11.128 3 3 0 0 0-.112.186h-.001l-.543.971-.074.131-.014.025-.074.132-.888 1.586zm-1.008-.153 1.494.836a7 7 0 0 0 .602.308q.261.116.436.149v.001h.004q.216.045.419.029.206-.015.407-.092.209-.078.374-.229.162-.148.285-.367.104-.186.149-.375.048-.193.032-.385h-.001a1.6 1.6 0 0 0-.086-.41 1.3 1.3 0 0 0-.189-.352 1.7 1.7 0 0 0-.339-.325 5 5 0 0 0-.516-.33l-.534-.299.455-.815q.056-.099.097-.159a.4.4 0 0 1 .036-.048l.03-.019.007-.001h.003l.033.011q.054.022.127.063l.13.073.157.088.087-.157.128-.227.088-.157-.156-.088-1.465-.82-.157-.088-.088.157-.127.228-.088.156.157.088.089.05q.086.048.134.084a.3.3 0 0 1 .046.038v.002l.009.017q.002.004.001.016a.2.2 0 0 1-.017.054 1 1 0 0 1-.07.14l-1.448 2.587a1 1 0 0 1-.108.164l-.005.003-.006.003h-.016a.3.3 0 0 1-.057-.02 2 2 0 0 1-.15-.076l-.088-.05-.157-.088-.088.157-.129.23-.088.157zm-2.7-2.223a1.6 1.6 0 0 1-.329-.24 1.2 1.2 0 0 1-.34-.63 1.6 1.6 0 0 1-.025-.407v-.001q.013-.22.09-.452.078-.242.225-.503a2.7 2.7 0 0 1 .298-.434q.156-.181.329-.301.175-.12.353-.185a1.24 1.24 0 0 1 1.049.09q.168.093.29.217a1.1 1.1 0 0 1 .309.614q.032.192.013.434a2 2 0 0 1-.092.474 2.5 2.5 0 0 1-.205.47 2.6 2.6 0 0 1-.3.432 2.2 2.2 0 0 1-.363.339q-.165.122-.326.188a1 1 0 0 1-.31.072 1 1 0 0 1-.319-.032 1.5 1.5 0 0 1-.347-.145m.938-3.62q.114.01.229.036a2 2 0 0 0-.231-.003h-.001a1.6 1.6 0 0 0-.457.097q-.221.08-.433.227a2 2 0 0 0-.398.363 3 3 0 0 0-.339.492 3 3 0 0 0-.254.567 2.2 2.2 0 0 0-.107.543v.001q-.015.26.032.495.047.238.157.442h.001q.062.116.143.22a2.045 2.045 0 0 1-.473-.821v-.001a1.9 1.9 0 0 1-.075-.518q-.003-.27.069-.532.07-.264.216-.523.197-.35.465-.589c.268-.239.383-.283.613-.371l.001-.001q.419-.162.842-.124m-.119 4.165a2 2 0 0 1-.205-.006l.073-.003h.001q.21-.014.421-.099.204-.082.407-.232.229-.17.42-.392c.191-.222.241-.311.342-.491q.148-.266.235-.539a2.5 2.5 0 0 0 .109-.553v-.001a2.2 2.2 0 0 0-.019-.518 1.5 1.5 0 0 0-.144-.448v-.001a2 2 0 0 0-.104-.171q.043.046.083.096.245.301.351.692.108.391.049.786a2.4 2.4 0 0 1-.287.807q-.148.264-.332.462a1.9 1.9 0 0 1-.871.533 2.1 2.1 0 0 1-.529.078m-1.159.061q.28.156.571.231.294.075.597.067.323-.009.617-.092.296-.083.557-.242h.001q.26-.158.478-.392.215-.23.383-.53.26-.466.33-.931a2.2 2.2 0 0 0-.058-.932 2.2 2.2 0 0 0-.42-.824 2.5 2.5 0 0 0-.741-.61 2.5 2.5 0 0 0-1.005-.327 2.2 2.2 0 0 0-1.003.146q-.404.155-.722.438a2.6 2.6 0 0 0-.541.681 2.7 2.7 0 0 0-.25.607 2.252 2.252 0 0 0 .269 1.82 2.5 2.5 0 0 0 .937.89m-4.3-5.463.607-1.085a2 2 0 0 1 .083-.137h-.001l.001-.002.044.02q.06.03.162.086l.369.207q.265.149.442.266a2 2 0 0 1 .265.201q.081.075.132.17.052.097.075.217v.001q.022.114.003.225a.55.55 0 0 1-.082.223.7.7 0 0 1-.14.178.6.6 0 0 1-.18.104q-.103.038-.214.039a.6.6 0 0 1-.23-.035q-.14-.041-.322-.128a7 7 0 0 1-.439-.228zm1.819 1.489zm-.291-.402-.079-.02a1.011 1.011 0 0 0 .452-.054.9.9 0 0 0 .295-.173q.128-.113.218-.272.092-.165.122-.339c.03-.174.018-.234-.005-.353a1.035 1.035 0 0 0-.314-.583l-.02-.018q.135.1.24.2.133.124.217.271.083.146.12.317a.87.87 0 0 1-.095.625.9.9 0 0 1-.335.338.8.8 0 0 1-.23.085 1.2 1.2 0 0 1-.278.019 1.7 1.7 0 0 1-.308-.043m-.844 1.854-.71-.397q.119.053.226.088.252.082.446.07h.002q.196-.014.426-.123l.058-.029zm-.497-4.823zl-.008-.016.564.316a.3.3 0 0 0-.115-.007v-.001a.3.3 0 0 0-.129.049v-.001a.5.5 0 0 0-.107.119h-.001a2 2 0 0 0-.098.164l-.695 1.241-.059.104-.029.053-.059.104-.776 1.386-.081.144-.345-.193q.025-.004.049-.009a.43.43 0 0 0 .204-.136v-.001q.074-.083.152-.223l1.472-2.628a.7.7 0 0 0 .087-.227.4.4 0 0 0-.027-.237m-.545-.524-.13.23-.087.157.156.087.128.072a.6.6 0 0 1 .112.078.2.2 0 0 1 .041.05l.001.001q.001.003-.002.023a.4.4 0 0 1-.047.114l-1.472 2.628a1 1 0 0 1-.107.16h-.001l-.025.029a.2.2 0 0 1-.039-.008.7.7 0 0 1-.146-.066l-.127-.072-.157-.087-.088.156-.129.231-.088.157.157.087 3.027 1.695.11.062.096-.084.908-.794.132-.116-.112-.134-.186-.222-.11-.132-.137.104a2.3 2.3 0 0 1-.4.254.8.8 0 0 1-.296.088.9.9 0 0 1-.313-.051 2.6 2.6 0 0 1-.455-.209l-.779-.436.601-1.072.535.3q.263.147.475.255.22.112.392.187h.001q.182.077.365.121.187.044.373.052h.001q.191.009.366-.027.178-.038.33-.122h.001a1.2 1.2 0 0 0 .475-.477 1.2 1.2 0 0 0 .149-.426 1.2 1.2 0 0 0-.016-.449v-.001a1.51 1.51 0 0 0-.442-.774v-.001a3.5 3.5 0 0 0-.391-.31 7 7 0 0 0-.51-.316l-1.896-1.061-.157-.088z" clip-path="url(#K)" transform="matrix(3.52778 0 0 -3.52778 114.718 60.955)"></path><path fill="#fff" fill-rule="evenodd" d="m0 0 .699-1.24a1 1 0 0 1 .152-.22q.043-.028.109-.013.064.018.273.135l.369.209q.534.302.739.494c.205.192.223.29.259.485a.82.82 0 0 1-.1.569.77.77 0 0 1-.416.363.86.86 0 0 1-.558.004Q1.235.697.73.413zm.052-2.386-.13.23.127.071q.177.1.227.21.053.112-.055.301l-1.48 2.622q-.14.246-.246.274c-.106.028-.177-.013-.317-.092l-.128-.071-.129.229L.94 3.094l.911-.793-.185-.222q-.467.356-.794.377-.324.02-.865-.287l-.934-.526L-.146.26l.69.389q.516.292.849.437.331.144.675.162.344.017.602-.125.258-.14.408-.407.2-.353.116-.749a1.3 1.3 0 0 0-.387-.682q-.304-.287-.864-.604z" clip-path="url(#L)" transform="matrix(3.52778 0 0 -3.52778 49.14 89.877)"></path><path fill="#fff" fill-rule="evenodd" d="M0 0a1.53 1.53 0 0 1-.616-.603 1.56 1.56 0 0 1-.164-.844q.029-.48.341-1.031.298-.53.685-.793.388-.265.799-.289.414-.023.792.19.376.213.559.567.182.354.14.871a2.5 2.5 0 0 1-.325 1.017q-.287.509-.715.824Q1.13.181.763.202.397.225 0 0m-.166.292Q.352.585.909.569A2.15 2.15 0 0 0 1.996.267q.484-.291.801-.854.49-.871.261-1.726-.232-.855-1.07-1.329-.937-.528-1.856-.177-.75.287-1.173 1.036-.315.558-.313 1.142.002.585.319 1.103c.317.518.502.622.869.83" clip-path="url(#M)" transform="matrix(3.52778 0 0 -3.52778 66.037 72.433)"></path><path fill="#fff" fill-rule="evenodd" d="m0 0 .894-1.583.581.328q.442.25.574.428c.132.178.136.265.14.437a1 1 0 0 1-.139.52.93.93 0 0 1-.404.398.77.77 0 0 1-.513.051Q.944.534.473.267zm-1.154-.263L.337.579q.679.383.985.442.38.078.73-.052c.35-.13.422-.258.568-.514a1.14 1.14 0 0 0 .159-.656 1.26 1.26 0 0 0-.238-.671q-.204-.276-.796-.608l-.69-.39.548-.969q.122-.215.178-.259a.24.24 0 0 1 .151-.059q.075.001.247.098l.131.074.128-.228-1.461-.825-.129.227.09.051q.186.106.236.175c.05.069.048.098.044.153a.8.8 0 0 1-.11.268L-.35-.583q-.1.18-.163.224c-.063.044-.09.041-.146.036a1 1 0 0 1-.276-.119l-.09-.05z" clip-path="url(#N)" transform="matrix(3.52778 0 0 -3.52778 80.265 64.797)"></path><path fill="#fff" fill-rule="evenodd" d="m0 0 1.166.658-1.501 1.295zm-.718 2.379.446.251L2.681.137q.22-.19.352-.217a.4.4 0 0 1 .28.057l.061.033.128-.227-1.345-.759-.128.227q.061.042.123.077.13.073.156.124.048.095.005.174a1.4 1.4 0 0 1-.233.235l-.661.591-1.37-.773.17-.982a.7.7 0 0 1 .053-.202q.03-.055.082-.079a.16.16 0 0 1 .111-.017q.06.006.169.068l.12.065.128-.228-1.128-.637-.128.227a.7.7 0 0 1 .209.159.4.4 0 0 1 .063.168q.012.099-.029.367z" clip-path="url(#O)" transform="matrix(3.52778 0 0 -3.52778 97.948 63.33)"></path><path fill="#fff" fill-rule="evenodd" d="m0 0-.129.23 1.453.82.129-.23-.092-.051q-.24-.137-.279-.226-.038-.09.095-.326l1.472-2.608q.131-.232.234-.264c.103-.032.167.005.293.077l.149.083.853-.735-.187-.223q-.309.275-.613.339-.303.065-.495.012-.191-.054-.621-.296l-2.658-1.5-.129.23.129.074q.204.113.227.22.024.105-.104.334l-1.456 2.578q-.145.257-.235.28-.089.023-.349-.124l-.084-.047-.13.229 1.442.815.131-.231-.106-.059a1 1 0 0 1-.251-.176q-.05-.062-.038-.124.012-.063.149-.307L.238-3.751a1 1 0 0 1 .15-.222q.042-.031.107-.016.064.016.281.138l1.174.663q.21.119.259.165.047.045.042.098t-.113.246L.682-.101Q.539.153.448.177.358.202.098.055z" clip-path="url(#P)" transform="matrix(3.52778 0 0 -3.52778 114.768 45.151)"></path><path fill="#ccac5e" fill-rule="evenodd" d="M0 0v-2.489q0-.16.012-.192a.12.12 0 0 1 .071-.074.5.5 0 0 1 .186-.005l.309.028v-.438q-.945-.091-1.89-.221v.44l.312.044a.7.7 0 0 1 .209.049.17.17 0 0 1 .07.08.6.6 0 0 1 .023.208v1.776q-.308-.038-.614-.078v.442q.263.061.404.108.21.07.447.172.132.056.245.126z" clip-path="url(#Q)" transform="matrix(3.52778 0 0 -3.52778 64.57 4.961)"></path><path fill="#ccac5e" fill-rule="evenodd" d="M0 0a.513.513 0 0 1 .474.303.7.7 0 0 1 .068.32.6.6 0 0 1-.15.425.47.47 0 0 1-.379.152.52.52 0 0 1-.384-.182.64.64 0 0 1-.153-.442q0-.27.148-.427C-.228-.008-.151-.006 0 0m-.963-1.65v.446q.423.04.671.115.252.076.419.195.167.121.27.28.104.161.145.366a1.194 1.194 0 0 0-.739-.283 1.2 1.2 0 0 0-.574.112.9.9 0 0 0-.385.347 1 1 0 0 0-.132.532q0 .509.345.862.345.356.934.383c.406.017.722-.091.951-.315q.2-.196.301-.469A1.4 1.4 0 0 0 1.344.3a2.1 2.1 0 0 0-.136-.8 1.6 1.6 0 0 0-.425-.592 1.9 1.9 0 0 0-.679-.392q-.389-.133-1.067-.166" clip-path="url(#R)" transform="matrix(3.52778 0 0 -3.52778 74.021 10.241)"></path><path fill="#ccac5e" fill-rule="evenodd" d="m0 0-.444-.036a1.2 1.2 0 0 0-.024.225q0 .33.149.57.15.242.461.392.308.149.69.134.347-.014.63-.165a1.1 1.1 0 0 0 .426-.375.85.85 0 0 0 .141-.461 1 1 0 0 0-.1-.443 1.4 1.4 0 0 0-.367-.433Q1.31-.799.542-1.265q.37-.006.737-.017a.9.9 0 0 1 .229.011q.048.017.083.073a.5.5 0 0 1 .058.19l.019.103.426-.022q-.052-.284-.101-.567-.05-.284-.099-.569l-.29.011-.027.112q-1.01.025-2.021.022v.44q.223.152.505.373.281.22.625.505.35.289.468.501a.67.67 0 0 1 .086.328q0 .2-.162.346C.916.721.826.723.646.729Q.448.736.3.663C.152.59.125.544.07.451A.57.57 0 0 1-.013.155Q-.013.098 0 0" clip-path="url(#S)" transform="matrix(3.52778 0 0 -3.52778 82.557 8.822)"></path><path fill="#ccac5e" fill-rule="evenodd" d="M0 0a.5.5 0 0 1-.284-.039.42.42 0 0 1-.19-.186.63.63 0 0 1-.068-.303q0-.255.15-.433c.15-.178.225-.188.379-.208a.45.45 0 0 1 .386.11q.153.14.153.402 0 .264-.149.446A.56.56 0 0 1 0 0m.963 1.436V.995a3 3 0 0 1-.67.017A1.2 1.2 0 0 1-.125.887Q-.293.795-.397.653C-.501.511-.514.447-.541.319q.194.115.366.153T.2.483Q.52.438.772.265a1.18 1.18 0 0 0 .519-.987q-.001-.502-.347-.761c-.232-.175-.542-.229-.933-.178-.405.053-.721.193-.95.434q-.201.21-.302.482-.1.275-.1.614 0 .458.135.768.134.309.424.529c.29.22.419.244.679.292q.389.071 1.066-.022" clip-path="url(#T)" transform="matrix(3.52778 0 0 -3.52778 96.92 10.69)"></path><path fill="#254a91" d="m0 0 .297.158q.16.086.192.195c.032.109.014.143-.022.21Q.418.655.337.69C.256.725.231.721.181.712A.7.7 0 0 1-.016.635L-.267.502zm-.413.777.402.214q.305.162.56.102A.578.578 0 0 0 .964.35Q.892.106.538-.082l-1.034-.55-.13.244.086.046q.086.045.091.085.004.04-.047.138l-.515.969q-.05.091-.09.108-.04.015-.143-.039l-.06-.032-.129.244 1.472.783.497-.45-.185-.205q-.196.159-.356.172c-.16.013-.227-.023-.361-.094l-.269-.143z" clip-path="url(#U)" transform="matrix(3.52778 0 0 -3.52778 60.59 117.877)"></path><path fill="#254a91" d="m0 0 .35.186-.428.394zm-.452.977.397.211L1.197.108q.1-.085.148-.093t.135.042l.13-.245-.834-.443-.129.244.049.028q.07.036.088.07c.018.034.013.042.004.06a.5.5 0 0 1-.074.081l-.138.132L.04-.301l.029-.213A.3.3 0 0 1 .089-.6a.06.06 0 0 1 .033-.029.1.1 0 0 1 .061.002 1 1 0 0 1 .121.058l.13-.244-.682-.363-.13.244a.4.4 0 0 1 .09.062.14.14 0 0 1 .032.061.4.4 0 0 1-.002.108z" clip-path="url(#V)" transform="matrix(3.52778 0 0 -3.52778 66.989 112.092)"></path><path fill="#254a91" d="m0 0 .156.083q.16.085.192.193a.27.27 0 0 1-.023.211.28.28 0 0 1-.132.13.24.24 0 0 1-.16.019.7.7 0 0 1-.19-.076l-.11-.058zm-.497-.632-.13.244.056.029q.106.057.117.099c.011.042-.008.078-.045.147L-.697.26l-.625-.332.199-.373q.058-.11.096-.123c.038-.013.073.006.144.044l.059.031.13-.244-.862-.458-.129.244.058.031q.103.055.114.097.009.041-.039.133l-.509.957q-.06.113-.1.128t-.124-.029l-.078-.042-.13.244.862.458.129-.244-.08-.042q-.083-.045-.094-.083-.012-.039.045-.147l.163-.307.625.332-.176.33q-.044.082-.077.098-.034.016-.143-.041l-.066-.035-.129.244.862.458.13-.244-.072-.038q-.089-.047-.102-.085c-.013-.038 0-.064.028-.116l.175-.329.26.139q.305.161.56.101A.55.55 0 0 0 .784.73.58.58 0 0 0 .823.274Q.749.031.396-.157z" clip-path="url(#W)" transform="matrix(3.52778 0 0 -3.52778 79.68 107.727)"></path><path fill="#254a91" d="m0 0 .35.186-.428.393zm-.451.977.396.21L1.197.108a.4.4 0 0 1 .148-.094q.046-.006.136.042l.13-.244-.834-.443-.13.243.05.029q.069.037.087.07c.018.033.014.042.005.06a.5.5 0 0 1-.075.08l-.138.133-.535-.285.028-.214A.4.4 0 0 1 .089-.6a.06.06 0 0 1 .033-.029.1.1 0 0 1 .061.001 1 1 0 0 1 .122.059l.129-.244-.682-.363-.13.244a.3.3 0 0 1 .09.062.14.14 0 0 1 .032.061.4.4 0 0 1-.002.108z" clip-path="url(#X)" transform="matrix(3.52778 0 0 -3.52778 85.375 102.315)"></path><path fill="#254a91" d="m0 0 .394.209L1.65-.869a.4.4 0 0 1 .135-.088q.05-.015.148.037l.13-.244-.834-.443-.13.244.05.028q.123.068.092.129a.4.4 0 0 1-.074.081l-.794.729" clip-path="url(#Y)" transform="matrix(3.52778 0 0 -3.52778 95.783 92.487)"></path><path fill="#254a91" d="m0 0-.033-.017-.032-.016Q-.175-.09-.17-.242l.036-1.414q.012-.414-.306-.583a.45.45 0 0 0-.271-.055.25.25 0 0 0-.198.137.22.22 0 0 0-.019.171.19.19 0 0 0 .091.121.25.25 0 0 0 .218.001q.054-.022.087-.004a.11.11 0 0 1 .058.069.6.6 0 0 1 .006.166l-.007.096-1.062.568a.4.4 0 0 1-.142.054.35.35 0 0 1-.137-.051l-.13.244.876.466.13-.244-.105-.056q-.066-.035-.041-.082a.23.23 0 0 1 .091-.079l.514-.288-.028.565a.3.3 0 0 1-.016.111q-.02.039-.104-.005l-.088-.047-.129.244.716.381z" clip-path="url(#Z)" transform="matrix(3.52778 0 0 -3.52778 107.25 87.494)"></path><path fill="#254a91" d="m0 0 .86.458.13-.244L.933.183A.3.3 0 0 1 .837.121.1.1 0 0 1 .814.058a.3.3 0 0 1 .037-.101l.25-.469.278.801q.019.054.02.07c.001.016-.001.019-.004.025q-.009.018-.028.019c-.019.001-.039-.01-.079-.031L1.217.335l-.129.244.797.423.13-.243-.027-.014a.4.4 0 0 1-.074-.047.3.3 0 0 1-.039-.053 1 1 0 0 1-.047-.104l-.23-.595.873-.417a.5.5 0 0 1 .151-.054q.053 0 .129.04l.034.018.13-.244-.89-.473-.13.244.036.019a.5.5 0 0 1 .113.071q.016.02.009.034t-.077.051l-.546.277-.144-.373.094-.177a.3.3 0 0 1 .061-.084.1.1 0 0 1 .055-.017.3.3 0 0 1 .1.04l.072.038.13-.244-.861-.458-.13.244.065.035q.075.04.094.065c.019.025.018.036.016.058a.3.3 0 0 1-.044.109l-.512.963a.4.4 0 0 1-.068.099.1.1 0 0 1-.058.02.3.3 0 0 1-.098-.035L.13-.244z" clip-path="url(#aa)" transform="matrix(3.52778 0 0 -3.52778 108.041 85.97)"></path><path fill="#254a91" d="m0 0 .35.186-.428.394zm-.451.977.395.211L1.197.108q.102-.085.148-.093c.046-.008.077.009.136.042l.13-.244-.835-.444-.129.244.05.028q.069.037.087.07c.018.033.014.042.004.06a.4.4 0 0 1-.073.081l-.138.132-.536-.285.029-.213a.3.3 0 0 1 .019-.085.06.06 0 0 1 .034-.029.1.1 0 0 1 .06.001 1 1 0 0 1 .121.058l.13-.244-.682-.363-.13.244a.3.3 0 0 1 .09.063q.024.027.032.06c.008.033.004.058-.002.108z" clip-path="url(#ab)" transform="matrix(3.52778 0 0 -3.52778 120.424 83.68)"></path><path fill="#254a91" d="m0 0 .149-1.252q.012-.413-.306-.583-.137-.072-.271-.054c-.134.018-.155.057-.197.136q-.046.086-.02.172c.026.086.047.098.091.121q.096.05.218.001.054-.022.087-.005.045.025.059.07c.014.045.01.085.006.166L-.426.34" clip-path="url(#ac)" transform="matrix(3.52778 0 0 -3.52778 97.287 93.687)" data-source="https://football-logos.cc"></path><!-- source: https://football-logos.cc --></svg>