<svg xmlns="http://www.w3.org/2000/svg" viewBox="884.07 197.33 791.88 1044"><metadata xmlns:fl="https://football-logos.cc/venezuela/carabobo">dl1_ad51735c9ea15289bcd4b263093ffb7f3c58e4f983e7896746d7a980d5fb26ae</metadata><!-- Source: https://football-logos.cc --><path d="M0 0c-20.588-31.112-57.135-46.772-91.61-60.751-51.677-20.979-103.378-41.959-155.055-62.939-8.866-3.592-17.986-7.254-27.566-7.415-.76-.023-1.52 0-2.28.046-.76-.046-1.52-.069-2.28-.046-9.58.161-18.7 3.823-27.566 7.415-51.677 20.98-103.378 41.96-155.055 62.939-34.475 13.979-71.022 29.639-91.61 60.751-20.588 31.135-20.818 71.091-20.335 108.49l.968 74.707.967 74.706.967 74.707.967 74.706.967 74.707.968 74.707.483 37.353c.092 6.932-.552 14.969 6.61 18.561 4.306 2.142 9.349 3.017 13.978 4.238a852 852 0 0 0 16.766 4.329 991 991 0 0 0 33.714 7.784 1034 1034 0 0 0 68.144 12.182 1042 1042 0 0 0 68.788 7.6 1049 1049 0 0 0 69.133 3.04 1306 1306 0 0 0 26.852 0 1049 1049 0 0 0 69.133-3.04 1042 1042 0 0 0 68.788-7.6 1034 1034 0 0 0 68.144-12.182 991 991 0 0 0 33.714-7.784 852 852 0 0 0 16.766-4.329c4.629-1.221 9.672-2.096 13.978-4.238 7.162-3.592 6.518-11.629 6.61-18.561l.483-37.353.968-74.707.967-74.707.967-74.706.967-74.707.967-74.706.968-74.707C20.818 71.091 20.588 31.135 0 0" clip-path="url(#clipPath5)" style="fill:#5b0708;fill-opacity:1;fill-rule:nonzero;stroke:none" transform="matrix(1.33333 0 0 -1.33333 1648.692 1066.515)" data-source="https://football-logos.cc"></path><path d="M0 0c-16.12-48.361-50.664-64.482-50.664-64.482l-218.524-90.988-.115-.069-.138.069-218.524 90.988S-522.508-48.361-538.629 0c-16.12 48.361 0 552.331 0 552.331s64.436 31.274 269.188 41.13a.3.3 0 0 0 .138.023c.046 0 .069 0 .115-.023C-64.435 583.605 0 552.331 0 552.331S16.12 48.361 0 0" clip-path="url(#clipPath7)" style="fill:#fff;fill-opacity:1;fill-rule:nonzero;stroke:none" transform="matrix(1.33333 0 0 -1.33333 1638.312 1010.414)"></path><g aria-label="FC CARABOBO"><path d="M3.901-75.195H37.02v15.046H23.46v14.258h12.07v14.308H23.46V.001H3.901ZM87.99-42.407H68.431v-13.097q0-5.711-.633-7.128-.623-1.415-2.754-1.416-2.416 0-3.07 1.72-.646 1.714-.645 7.426v34.932q0 5.476.645 7.154.653 1.671 2.93 1.67 2.179.001 2.847-1.67.678-1.677.68-7.85v-9.433h19.558v2.924q0 11.665-1.652 16.546-1.642 4.876-7.29 8.544-5.648 3.663-13.91 3.662-8.591-.001-14.167-3.11-5.568-3.11-7.383-8.613-1.818-5.507-1.816-16.563V-48.68q-.002-8.118.55-12.18.561-4.07 3.328-7.833 2.765-3.764 7.665-5.925 4.896-2.162 11.261-2.162 8.648 0 14.262 3.349 5.624 3.34 7.383 8.34c1.177 3.33 1.77 8.507 1.77 15.53zM-388.768-40.695h-19.558v-13.096q0-5.712-.633-7.13-.623-1.414-2.754-1.415-2.416.001-3.07 1.721-.645 1.713-.645 7.426v34.931q0 5.477.645 7.154.653 1.671 2.93 1.67 2.18.001 2.847-1.67.678-1.676.68-7.849v-9.434h19.558v2.924q0 11.665-1.652 16.546-1.643 4.877-7.289 8.545c-3.768 2.441-8.402 3.662-13.91 3.662q-8.591-.002-14.168-3.111-5.568-3.11-7.383-8.612-1.818-5.508-1.816-16.564v-21.97q-.002-8.12.55-12.181.561-4.07 3.329-7.833 2.763-3.763 7.664-5.925c3.263-1.44 7.02-2.161 11.261-2.161q8.648 0 14.262 3.348 5.625 3.34 7.383 8.34 1.769 4.995 1.77 15.53zm41.373-32.787 11.192 75.195h-20.016l-.972-13.52h-7.008l-1.172 13.52h-20.25l9.95-75.195zm-10.359 48.35q-1.477-12.774-2.965-31.541-2.977 21.558-3.715 31.54zm25.491-48.35h13.84q13.839 0 18.738 1.068 4.897 1.068 7.993 5.459 3.093 4.383 3.093 14.003-.001 8.773-2.191 11.8-2.18 3.018-8.59 3.619 5.8 1.442 7.793 3.856 2.004 2.417 2.496 4.434t.492 11.12V1.714h-18.164v-24.989q-.002-6.033-.96-7.476-.95-1.44-4.981-1.441V1.713h-19.559zm19.559 12.867v16.716q3.29.001 4.617-.907 1.324-.906 1.324-5.874v-4.137q-.001-3.566-1.277-4.679-1.28-1.119-4.664-1.119m66.047-12.867 11.191 75.195h-20.015l-.973-13.52h-7.008l-1.172 13.52h-20.25l9.95-75.195zm-10.36 48.35q-1.478-12.774-2.964-31.541-2.979 21.558-3.715 31.54zm25.489-48.35h19.511q9.234 0 13.993 1.44 4.768 1.435 7.687 5.824 2.928 4.393 2.93 14.147 0 6.597-2.074 9.197-2.064 2.604-8.145 3.993 6.783 1.535 9.2 5.086 2.412 3.554 2.413 10.892v6.968q0 7.614-1.746 11.282-1.736 3.672-5.543 5.018-3.81 1.348-15.61 1.348h-22.616zm19.558 12.867v16.716a64 64 0 0 1 1.946-.043q2.881.001 3.668-1.415.783-1.425.785-8.112 0-3.525-.657-4.942-.645-1.414-1.687-1.789-1.045-.37-4.055-.415m0 28.422v21.039q4.123-.135 5.262-1.297 1.136-1.162 1.137-5.713v-7.019q0-4.822-1.02-5.849-1.02-1.024-5.379-1.161m78.205 2.738q-.001 11.335-.539 16.054-.527 4.715-3.34 8.612-2.812 3.901-7.593 5.993-4.782 2.085-11.145 2.086-6.048-.001-10.851-1.967-4.808-1.974-7.735-5.925-2.93-3.948-3.492-8.595c-.37-3.096-.55-8.515-.55-16.258v-12.868q-.001-11.331.538-16.046.537-4.711 3.34-8.612 2.812-3.897 7.594-5.993 4.791-2.092 11.156-2.093 6.033 0 10.84 1.975 4.803 1.977 7.734 5.925 2.928 3.951 3.48 8.595.563 4.647.563 16.25zm-19.558-24.71q0-5.245-.586-6.704-.576-1.466-2.39-1.467-1.526.001-2.345 1.187-.808 1.18-.808 6.985v35.118q0 6.546.527 8.078.537 1.535 2.496 1.534 1.99 0 2.543-1.763.563-1.771.563-8.408zm27.384-19.317h19.511q9.234 0 13.992 1.44 4.77 1.435 7.688 5.824 2.928 4.393 2.93 14.147 0 6.597-2.075 9.197-2.064 2.604-8.144 3.993 6.783 1.535 9.2 5.086 2.412 3.554 2.413 10.892v6.968q0 7.614-1.746 11.282Q-83.906-.98-87.713.365q-3.81 1.348-15.61 1.348h-22.616zm19.558 12.867v16.716a64 64 0 0 1 1.945-.043q2.883.001 3.668-1.415.784-1.425.786-8.112 0-3.525-.657-4.942-.646-1.414-1.687-1.789-1.045-.37-4.055-.415m0 28.422v21.039q4.123-.135 5.262-1.297 1.135-1.162 1.137-5.713v-7.019q0-4.822-1.02-5.849-1.02-1.024-5.379-1.161m78.202 2.738q-.001 11.335-.539 16.054-.527 4.715-3.34 8.612-2.812 3.901-7.593 5.993-4.782 2.085-11.145 2.086-6.048-.001-10.851-1.967-4.809-1.974-7.735-5.925-2.93-3.948-3.492-8.595c-.37-3.096-.55-8.515-.55-16.258v-12.868q-.001-11.331.538-16.046.537-4.711 3.34-8.612 2.812-3.897 7.594-5.993 4.791-2.092 11.156-2.093 6.033 0 10.84 1.975 4.803 1.977 7.734 5.925 2.928 3.951 3.48 8.595.563 4.647.563 16.25zm-19.558-24.71q-.001-5.245-.586-6.704-.576-1.466-2.39-1.467-1.526.001-2.345 1.187-.808 1.18-.808 6.985v35.118q0 6.546.527 8.078.537 1.535 2.496 1.534 1.99 0 2.543-1.763.563-1.771.563-8.408zm0 0" style="fill:#5b0708;fill-opacity:1;fill-rule:nonzero;stroke:none" transform="matrix(1.33333 0 0 1.84333 1514.482 721.971)"></path></g><path d="M0 0v-200.699c0-.23-520.459 0-520.459 0V0h-1.381s62.408 31.274 260.782 41.13a.3.3 0 0 0 .138.023c.046 0 .069 0 .115-.023C-62.432 31.274 0 0 0 0" clip-path="url(#clipPath13)" style="fill:#5b0708;fill-opacity:1;fill-rule:nonzero;stroke:none" transform="matrix(1.33333 0 0 -1.33333 1626.983 288.775)"></path><path d="M0 0c0-12.882-1.957-25.402-5.665-37.324h-352.53A125.4 125.4 0 0 0-363.86 0c0 83.052 81.454 150.363 181.93 150.363S0 83.052 0 0" clip-path="url(#clipPath15)" style="fill:#f6b807;fill-opacity:1;fill-rule:nonzero;stroke:none" transform="matrix(1.33333 0 0 -1.33333 1521.631 486.248)"></path><path d="m0 0-.852-44.907h-41.153V0h5.158v85.208s-9.211 2.303-13.817 11.514h-23.145c-4.605-9.211-13.817-11.514-13.817-11.514V0h5.158v-44.907h-41.152L-124.473 0h5.85v95.479h5.596v17.041h19.69V99.002s5.711.023 10.317 6.932 7.162 22.937 20.795 20.703c13.61 2.234 16.167-13.817 20.773-20.703 4.605-6.909 10.317-6.932 10.317-6.932v13.518h19.713V95.479h5.573V0Z" clip-path="url(#clipPath17)" style="fill:#5b0708;fill-opacity:1;fill-rule:nonzero;stroke:none" transform="matrix(1.33333 0 0 -1.33333 1362.117 476.14)" data-source="https://football-logos.cc"></path><path d="m0 0 78.299 29.938v292.47H0Z" clip-path="url(#clipPath19)" style="fill:#5b0708;fill-opacity:1;fill-rule:nonzero;stroke:none" transform="matrix(1.33333 0 0 -1.33333 1325.116 1182.365)"></path><path d="m0 0-78.299 29.938v292.47H0Z" clip-path="url(#clipPath21)" style="fill:#5b0708;fill-opacity:1;fill-rule:nonzero;stroke:none" transform="matrix(1.33333 0 0 -1.33333 1233 1182.365)"></path><path d="M0 0s66.785 13.817 78.299 71.39v192.147H0Z" clip-path="url(#clipPath23)" style="fill:#5b0708;fill-opacity:1;fill-rule:nonzero;stroke:none" transform="matrix(1.33333 0 0 -1.33333 1521.631 1103.87)"></path><path d="M0 0s-66.785 13.817-78.299 71.39v192.147H0Z" clip-path="url(#clipPath25)" style="fill:#5b0708;fill-opacity:1;fill-rule:nonzero;stroke:none" transform="matrix(1.33333 0 0 -1.33333 1036.484 1102.531)" data-source="https://football-logos.cc"></path><!-- source: https://football-logos.cc --></svg>