<svg xmlns="http://www.w3.org/2000/svg" xml:space="preserve" viewBox="22.61 4.68 212.49 249.45"><metadata xmlns:fl="https://football-logos.cc/uruguay/central-espanol">dl1_83c8589f954eb63cb6728eed2abb9e5616f1210aeaaa98d41b80ca2312d2b999</metadata><!-- Source: https://football-logos.cc --><path d="M966.375 34.016c30.035 48.996 61.405 82.39 108.515 111.199 41.24 25.215 93.48 44.387 146.5 61.039 51.93 16.309 104.6 30.129 156.16 47.656 78.36 26.637 164.52 63.988 233.68 121.09 98.96 81.684 150.06 192.078 151.9 328.113 1.63 121.285-25.29 229.785-51.33 334.707-22.75 91.66-44.23 178.24-44.02 264.85.14 57.25 9.6 109.6 29.43 161.25 12.74 33.18 29.92 64.26 46.29 95.74l-345.53 345.22c-133.74-74.13-274.51-143.14-431.595-143.14-157.09.01-297.859 69.01-431.586 143.14L189.25 1559.66c16.367-31.48 33.551-62.55 46.289-95.73 19.824-51.65 29.289-104 29.426-161.25.211-86.61-21.27-173.2-44.012-264.85-26.039-104.928-52.961-213.42-51.324-334.717 1.828-136.035 52.934-246.429 151.883-328.109 69.168-57.098 155.324-94.453 233.683-121.094 51.571-17.523 104.227-31.344 156.164-47.652 53.024-16.649 105.262-35.82 146.5-61.039 47.114-28.805 78.485-62.2 108.516-111.203" style="fill:#d70200;fill-opacity:1;fill-rule:evenodd;stroke:none" transform="matrix(.13333 0 0 -.13333 0 258.667)" data-source="https://football-logos.cc"></path><path d="M966.375 123.629c-10.98 13.531-22.305 26.07-35.527 37.758-51.196 45.277-125.309 74.222-200.02 97.801-64.898 20.488-130.66 37.167-194.441 61.292-62.469 23.641-126.766 54.833-179.012 97.965-86.812 71.664-129.801 165.024-131.422 285.426-1.539 114.024 24.496 218.934 49.672 320.389 23.602 95.13 45.898 184.99 45.672 278.56-.164 68-12.715 131.82-38.227 193.81-7.375 17.92-15.859 35.2-24.789 52.37l286.305 286.04c42.535-23.57 85.777-45.47 130.664-64.28 103.586-43.42 201.516-65.34 291.125-65.34 89.615 0 187.535 21.92 291.125 65.34 44.89 18.81 88.13 40.71 130.66 64.28L1674.47 1549c-8.93-17.17-17.42-34.45-24.79-52.37-25.51-61.99-38.07-125.81-38.23-193.81-.22-93.57 22.07-183.43 45.68-278.56 25.17-101.455 51.2-206.365 49.67-320.389-1.62-120.402-44.61-213.762-131.42-285.426-52.25-43.132-116.55-74.324-179.02-97.965-63.77-24.125-129.54-40.804-194.44-61.292-74.71-23.579-148.83-52.524-200.02-97.801-13.22-11.688-24.545-24.227-35.525-37.758" style="fill:#fff;fill-opacity:1;fill-rule:evenodd;stroke:none" transform="matrix(.13333 0 0 -.13333 0 258.667)"></path><path d="M1277.1 1754.01V305.961c-29.37-8.719-58.81-17.242-88.04-26.582-63.8-20.383-127.09-44.938-177.22-80.621V1684.05c83.05 6.33 171.89 29.75 265.26 69.96M1368.05 334.844V1797.74c5.34 2.83 10.71 5.71 16.08 8.65l262.04-261.81c-38.71-77.06-57.64-156.22-57.85-241.71-.23-96.42 22.4-187.62 46.36-284.18 24.82-100.034 50.48-203.467 48.99-314.51-2.69-199.387-127.21-295.774-282.56-357.028a941 941 0 0 0-33.06-12.308M920.906 198.758V1684.05c-83.043 6.33-171.89 29.75-265.261 69.96V305.961c29.371-8.719 58.816-17.242 88.039-26.582 63.804-20.383 127.101-44.938 177.222-80.621M564.699 334.844V1797.74c-5.344 2.83-10.703 5.71-16.078 8.65l-262.039-261.81c38.703-77.06 57.637-156.22 57.844-241.71.234-96.42-22.395-187.62-46.352-284.18-24.828-100.034-50.492-203.467-48.996-314.51 2.688-199.387 127.203-295.774 282.555-357.028a945 945 0 0 1 33.066-12.308" style="fill:#d70200;fill-opacity:1;fill-rule:evenodd;stroke:none" transform="matrix(.13333 0 0 -.13333 0 258.667)"></path><path d="M1572.52 446.816 539.934 1797.71l-238.696-238.48L1262.51 301.633c46.65 13.781 93.23 27.629 138.6 45.519 64.68 25.5 124 57.09 171.41 99.664" style="fill:#280050;fill-opacity:1;fill-rule:evenodd;stroke:none" transform="matrix(.13333 0 0 -.13333 0 258.667)" data-source="https://football-logos.cc"></path><path d="M1258.95 974.848c.38 390.082-585.352 390.222-585.149.136-.422-390.082 585.309-390.269 585.149-.187z" style="fill:#000050;fill-opacity:1;fill-rule:evenodd;stroke:none" transform="matrix(.13333 0 0 -.13333 0 258.667)"></path><path d="M1058.68 1226.34v-52.16c-8.5 3.95-17.25 7.36-26.17 10.18-7.19 2.28-14.46 4.09-21.78 5.75V991.566h47.95V945.09h-47.95V710.922a268 268 0 0 0-29.699-3.352c-5.59-.316-11.187-.476-16.781-.425V1243c3.984.03 7.973-.03 11.969-.19 28.271-1.09 55.951-6.61 82.461-16.47m162.73-331.43c-22.73-72.238-74.78-131.312-143.73-163.168v486.688c68.95-31.86 121-90.95 143.74-163.2h-49.98a220.8 220.8 0 0 1-30.76 53.56c-5.21 6.69-10.84 12.9-16.52 19.15V818.488c10.27 11.309 19.93 22.754 28.23 35.711a219.5 219.5 0 0 1 20.5 40.711zm-389.605 254.45c-54.817-41.82-87.492-107.55-87.492-176.145 0-68.59 32.675-134.317 87.492-176.145v-53.871c-82.778 48.047-133.969 136.395-133.969 231.875 0 95.486 51.191 183.836 133.969 231.886zm113.441-396.653v-44.789c-32.914 2.508-64.648 10.992-94.43 25.23v483.862c29.782 14.24 61.516 22.71 94.43 25.22v-48.5c-16.375-1.53-32.25-4.96-47.949-9.91V991.566l47.945.059v-46.594l-47.945.059V762.621c2.644-.84 5.285-1.664 7.949-2.422a220.3 220.3 0 0 1 40-7.492" style="fill:#fff;fill-opacity:1;fill-rule:evenodd;stroke:none" transform="matrix(.13333 0 0 -.13333 0 258.667)" data-source="https://football-logos.cc"></path><!-- source: https://football-logos.cc --></svg>