<svg xmlns="http://www.w3.org/2000/svg" xml:space="preserve" viewBox="0 0 144.3 170.95"><metadata xmlns:fl="https://football-logos.cc/sweden/degerfors">dl1_c000aadc3b09957488c490ade805843c8796e4cf03a77f34609dcef2029c5514</metadata><!-- Source: https://football-logos.cc --><path d="M0 0v69.251c.004 1.283.211 31.429 7.958 48.112 18.787 40.457 63.287 53.336 63.735 53.46l.455.128.454-.129c.447-.123 44.953-13.002 63.74-53.459 7.745-16.683 7.952-46.829 7.957-48.105V0Z" style="clip-rule:evenodd;fill:#b79c14;fill-rule:evenodd" data-source="https://football-logos.cc"></path><path d="M3.37 69.246c.002.304.211 30.686 7.645 46.697 17.205 37.051 56.801 50.159 61.133 51.496 4.33-1.334 43.93-14.445 61.137-51.496 7.434-16.011 7.642-46.393 7.644-46.692V29.254H3.37z" style="clip-rule:evenodd;fill:#f7140d;fill-rule:evenodd"></path><path d="M140.943 3.369v22.516H3.37V3.369z" style="clip-rule:evenodd;fill:#fff;fill-rule:evenodd"></path><path d="M17.076 7.682h-6.01v13.613h5.896c4.494 0 5.65-4.209 5.65-7.129 0-2.578-.947-6.484-5.536-6.484m-.454 11.263h-2.768V10.03h2.729c1.213 0 3.13.323 3.13 4.344 0 2.237-.78 4.57-3.091 4.57" style="clip-rule:evenodd;fill:#b79c14;fill-rule:evenodd"></path><path d="M59.563 20.992v-2.408h-10.01v13.614h10.333V29.79h-7.547v-3.528h6.637v-2.408h-6.637v-2.862z" style="clip-rule:evenodd;fill:#b79c14;fill-rule:evenodd" transform="translate(-24.229 -10.902)"></path><path d="M44.93 16.252h3.167c-.589 2.748-2.675 2.996-3.3 2.996-1.935 0-3.964-.967-3.964-4.684 0-3.489 1.878-4.893 3.906-4.893 2.011 0 2.978 1.707 2.978 2.238h2.844c-.151-1.878-1.801-4.589-5.973-4.589-4.589-.018-6.654 3.49-6.654 7.206 0 4.779 2.976 7.13 6.257 7.13 2.483 0 3.526-1.233 4.246-2.069l.284 1.708h1.897v-7.337h-5.689Z" style="clip-rule:evenodd;fill:#b79c14;fill-rule:evenodd"></path><path d="M88.1 20.992v-2.408H78.088v13.614h10.335V29.79h-7.547v-3.528h6.637v-2.408h-6.637v-2.862z" style="clip-rule:evenodd;fill:#b79c14;fill-rule:evenodd" transform="translate(-24.229 -10.902)" data-source="https://football-logos.cc"></path><path d="M77.864 18.224c0-2.541-.605-2.958-1.725-3.453 1.346-.454 2.105-1.743 2.105-3.241 0-1.176-.664-3.848-4.285-3.848h-6.883v13.613h2.787v-5.328h2.938c2.105 0 2.22.721 2.22 2.578 0 1.404.113 2.105.303 2.75h3.147v-.36c-.607-.228-.607-.72-.607-2.711m-4.663-4.55h-3.338V10.03h3.545c1.67 0 1.992 1.063 1.992 1.784 0 1.347-.72 1.858-2.2 1.858" style="clip-rule:evenodd;fill:#b79c14;fill-rule:evenodd"></path><path d="M108.407 24.064v-3.072h6.845v-2.408h-9.689v13.614h2.844v-5.726h5.991v-2.408z" style="clip-rule:evenodd;fill:#b79c14;fill-rule:evenodd" transform="translate(-24.229 -10.902)"></path><path d="M99.423 7.32c-1.8 0-6.541.78-6.541 7.167 0 6.39 4.74 7.168 6.54 7.168 1.802 0 6.543-.778 6.543-7.168 0-6.388-4.741-7.167-6.542-7.167m0 11.928c-1.536 0-3.697-.949-3.697-4.76s2.16-4.76 3.697-4.76 3.696.949 3.696 4.76-2.16 4.76-3.696 4.76M119.598 18.224c0-2.541-.608-2.958-1.725-3.453 1.344-.454 2.104-1.743 2.104-3.241 0-1.176-.664-3.848-4.287-3.848h-6.881v13.613h2.787v-5.328h2.938c2.105 0 2.219.721 2.219 2.578 0 1.404.114 2.105.303 2.75h3.148v-.36c-.606-.228-.606-.72-.606-2.711m-4.664-4.55h-3.338V10.03h3.547c1.668 0 1.989 1.063 1.989 1.784 0 1.347-.72 1.858-2.198 1.858M129.987 13.54l-3.318-.815c-.568-.133-1.44-.361-1.44-1.423 0-1.23 1.29-1.63 2.37-1.63 2.482 0 2.71 1.442 2.787 2.048h2.73c-.02-1.669-1.137-4.4-5.308-4.4-4.42 0-5.235 2.674-5.235 4.192 0 2.995 2.124 3.488 4.323 4l1.46.34c1.442.342 2.466.627 2.466 1.689 0 1.44-1.498 1.764-2.843 1.764-2.485 0-2.865-1.443-2.883-2.201h-2.73c0 1.688.853 4.551 5.82 4.551 1.195 0 5.366-.36 5.366-4.456 0-2.445-1.707-3.203-3.565-3.659" style="clip-rule:evenodd;fill:#b79c14;fill-rule:evenodd"></path><path d="m118.996 59.177-6.653 6.652a48.9 48.9 0 0 1 9.03 28.378c0 27.147-22.006 49.154-49.155 49.154-27.145 0-49.152-22.007-49.152-49.154S45.073 45.051 72.22 45.051c10.575 0 20.36 3.35 28.378 9.032l6.652-6.652-8.812-8.812h29.37v29.37zm-9.475 35.032c-.001-20.603-16.7-37.304-37.301-37.305-20.6 0-37.301 16.701-37.301 37.303 0 20.6 16.7 37.3 37.302 37.3 20.601 0 37.299-16.698 37.3-37.298" style="clip-rule:evenodd;fill:#fff;fill-rule:evenodd"></path><path d="M63.596 57.91a37 37 0 0 0-8.644 3.23c-.045 9.77-1.13 13.516-6.23 13.516h-4.138v-28.33h4.42c2.202 0 3.587.909 4.461 2.435a49 49 0 0 1 8.13-2.552c-1.848-3.998-5.242-6.173-11.288-6.173H36.029v40.91h13.939c14.619 0 13.656-14.393 13.656-20.682q0-1.209-.028-2.353" style="clip-rule:evenodd;fill:#b79c14;fill-rule:evenodd"></path><path d="M92.869 84.923h8.555v40.911h-8.555zM118.089 131.486h9.765v6.291h-9.765v17.848h-8.556v-40.91h24.286v6.289h-15.73z" style="clip-rule:evenodd;fill:#b79c14;fill-rule:evenodd" transform="translate(-24.229 -10.902)" data-source="https://football-logos.cc"></path><!-- source: https://football-logos.cc --></svg>