<svg xmlns="http://www.w3.org/2000/svg" xml:space="preserve" viewBox="1.05 0.6 345.03 457.73"><metadata xmlns:fl="https://football-logos.cc/uruguay/deportivo-maldonado">dl1_e4fa504a9780c40f792be0e71cd1957f1e4c500f6ae23c25cea506df307b869a</metadata><!-- Source: https://football-logos.cc --><path d="M389.551 3416.57c311.09-210.02 604.754-211.92 914.819 18.93 296.14-211.54 549.22-249.8 909.95-19.44 90.06-139.1 180.11-278.2 270.17-417.29-250.85-455.07-349.96-801.46 4.11-1315.99 29.57-34.52 292.9-659.6-135.84-1137.053-540.17-459.954-553.33-73.016-1048.39-543.215-258.2 365.281-803.475 201.511-1045.265 542.187C78.145 777.953-120.254 1058.37 116.082 1683.29c66.168 147.14 493 566.82 4.359 1312.64 89.704 140.21 179.407 280.43 269.11 420.64" style="fill:#d8b513;fill-opacity:1;fill-rule:evenodd;stroke:none" transform="matrix(.13333 0 0 -.13333 0 458.667)" data-source="https://football-logos.cc"></path><path d="M439.176 3265.98c296.383-217.78 579.804-180.57 864.984 31.76 274.42-206.87 528.72-258.46 867.68-26.08l182.87-299.73c-222.52-422.65-328.03-815.05-18.78-1288.29 45.65-42 281.7-581.55-92.13-1022.73-354.3-391.254-701.68-141.488-942.72-458.094-294.89 305.207-691.564 161.887-926.256 450.614-170.535 210.429-351.218 467.7-103.094 1030.16 69.633 130.43 411.399 571.06-21.621 1285.73z" style="fill:#017200;fill-opacity:1;fill-rule:evenodd;stroke:none" transform="matrix(.13333 0 0 -.13333 0 458.667)"></path><path d="m612.629 2327.28 1383.131.25c-167.51-702.44-1202.612-708.87-1383.131-.25" style="fill:#fff;fill-opacity:1;fill-rule:evenodd;stroke:none" transform="matrix(.13333 0 0 -.13333 0 458.667)"></path><path d="m464.672 2327.73 147.957-.45c36.914-137.64 114.84-260.93 199.941-342.17a8626701 8626701 0 0 0-510.902-249.85c112.777 189.29 169.164 368.58 163.004 592.47M2144.68 2327.73c-49.32-.16-99.6-.05-148.92-.2-36.91-137.64-82.86-217.71-156.43-302.54l430.57-229.98c-95.99 192.48-130.35 309.6-125.22 532.72M994.605 1864.86c65.755-30.66 135.185-46.06 203.415-58.93q-160.813-693.017-321.61-1386.035C597.945 478 430.73 521.75 269.406 795.684q362.603 534.578 725.199 1069.176M1618.82 1864.84c-65.37-30.41-134.9-46.05-203.12-58.92 107.2-462.01 216.33-938.533 323.53-1400.549 262.83 41.445 440.41 120.746 601.73 394.676-241.73 356.393-480.41 708.403-722.14 1064.793" style="fill:#cf0200;fill-opacity:1;fill-rule:evenodd;stroke:none" transform="matrix(.13333 0 0 -.13333 0 458.667)" data-source="https://football-logos.cc"></path><path d="m891.016 2885.43 5.218-2.58-37.531-73.3-7.609 1.18c0 13.01-4.379 23.76-13.137 32.14-8.754 8.38-19.18 14.4-31.273 17.95s-23.559 5.37-34.297 5.37c-22.621-1.07-42.532-7.31-59.629-18.91-17.199-11.5-30.543-28.38-40.031-50.51-9.489-22.14-14.18-48.69-14.18-79.54 0-48.25 9.594-85.22 28.672-110.69 19.179-25.47 47.535-38.26 85.168-38.26 19.91 0 38.883 5.69 56.918 17.19 17.929 11.4 27.004 27.08 27.004 47.08l7.293 2.15 46.39-65.78-6.984-4.08c-2.082 2.68-4.274 4.08-6.774 4.08-3.234 0-9.804-3.97-19.703-11.82-9.906-7.85-18.972-14.72-27.312-20.53-8.344-5.69-19.703-11.28-34.09-16.55s-30.856-7.84-49.621-7.84c-34.817 0-65.156 8.48-91.008 25.36-25.852 16.87-45.66 40.84-59.316 72.01-13.657 31.06-20.434 66.95-20.434 107.68 0 30.2 4.277 58.04 12.824 83.51 8.547 25.36 20.43 47.18 35.547 65.35 15.219 18.16 32.734 32.02 52.746 41.7 19.914 9.67 41.281 14.5 63.805 14.5 29.918 0 58.168-6.45 84.644-19.24 4.692-2.47 10.321-5.8 16.786-9.88 6.566-4.09 11.257-6.99 14.07-8.49 2.816-1.61 5.316-2.37 7.301-2.37 4.062 0 6.984.97 8.543 3.12M1086.62 2552.88v345.63c0 5.05-1.46 9.35-4.28 12.79-2.81 3.44-6.67 5.16-11.57 5.16v7.84h142.72c60.15 0 105.71-16.34 136.77-49.12 31.06-32.66 46.6-81.14 46.6-145.08 0-45.78-6.57-83.72-19.71-113.81-13.13-30.1-33.67-52.45-61.4-67.18-27.83-14.72-63.38-22.03-106.54-22.03h-138.44v7.85c4.9 0 8.76 1.72 11.57 5.05 2.82 3.33 4.28 7.63 4.28 12.9m63.79 315.32v-285.02h57.65c30.86 0 55.26 4.3 73.19 12.9 17.82 8.6 30.96 23.32 39.3 44.28 8.34 20.85 12.51 49.97 12.51 87.37 0 34.4-4.59 61.91-13.86 82.54-9.29 20.53-23.36 35.36-42.43 44.39-18.98 9.03-43.27 13.54-72.98 13.54zM1645.03 2526.82h-82.98v7.85c9.79 0 14.69 6.02 14.69 17.95v345.63c0 11.93-4.9 17.95-14.69 17.95v7.85h110.4v-7.85c-7.51-.86-11.27-4.51-11.27-11.07 0-1.83 1.25-6.45 3.65-13.75 2.4-7.42 3.96-12.26 4.59-14.51l72.46-192.6 72.65 193.24c4.9 12.79 7.4 21.82 7.4 27.08 0 7.1-3.96 10.96-11.98 11.61v7.85h107.06v-7.85c-3.65 0-6.78-1.72-9.28-5.26-2.6-3.44-3.86-7.64-3.86-12.69v-345.63c0-5.27 1.36-9.57 3.96-12.9 2.71-3.33 5.74-5.05 9.18-5.05v-7.85h-81.42v7.85c4.27 0 7.19 1.51 8.55 4.4 1.46 3.02 2.19 7.53 2.19 13.55v271.48h-1.26l-106.95-297.28-102.58 297.28h-1.25v-271.48c0-6.02.73-10.53 2.19-13.55 1.35-2.89 4.27-4.4 8.55-4.4z" style="fill:#fff;fill-opacity:1;fill-rule:nonzero;stroke:none" transform="matrix(.13333 0 0 -.13333 0 458.667)"></path><path d="M994.328 2611.36c17.402 0 31.532-21.34 31.532-47.67s-14.13-47.68-31.532-47.68-31.527 21.35-31.527 47.68 14.125 47.67 31.527 47.67M1449.56 2611.87c17.4 0 31.53-21.34 31.53-47.67s-14.13-47.68-31.53-47.68-31.53 21.35-31.53 47.68 14.13 47.67 31.53 47.67M1995.29 2610.84c17.4 0 31.52-21.34 31.52-47.68 0-26.33-14.12-47.67-31.52-47.67-17.41 0-31.54 21.34-31.54 47.67 0 26.34 14.13 47.68 31.54 47.68" style="fill:#fff;fill-opacity:1;fill-rule:evenodd;stroke:none" transform="matrix(.13333 0 0 -.13333 0 458.667)" data-source="https://football-logos.cc"></path><!-- source: https://football-logos.cc --></svg>