<?xml version="1.0" encoding="UTF-8" standalone="no"?>
<!-- Generator: Adobe Illustrator 21.1.0, SVG Export Plug-In . SVG Version: 6.00 Build 0)  -->

<svg
   xmlns:dc="http://purl.org/dc/elements/1.1/"
   xmlns:cc="http://creativecommons.org/ns#"
   xmlns:rdf="http://www.w3.org/1999/02/22-rdf-syntax-ns#"
   xmlns:svg="http://www.w3.org/2000/svg"
   xmlns="http://www.w3.org/2000/svg"
   xmlns:sodipodi="http://sodipodi.sourceforge.net/DTD/sodipodi-0.dtd"
   xmlns:inkscape="http://www.inkscape.org/namespaces/inkscape"
   version="1.1"
   id="Layer_1"
   x="0px"
   y="0px"
   viewBox="0 0 623.6 623.6"
   style="enable-background:new 0 0 623.6 623.6;"
   xml:space="preserve"
   sodipodi:docname="deportivo-lara-logo-escudo.svg"
   inkscape:export-filename="C:\Users\alexalbinonet\deportivo-lara-logo-escudo.png"
   inkscape:export-xdpi="538.81"
   inkscape:export-ydpi="538.81"
   inkscape:version="0.92.3 (2405546, 2018-03-11)"><metadata
   id="metadata381"><rdf:RDF><cc:Work
       rdf:about=""><dc:format>image/svg+xml</dc:format><dc:type
         rdf:resource="http://purl.org/dc/dcmitype/StillImage" /></cc:Work></rdf:RDF></metadata><defs
   id="defs379" /><sodipodi:namedview
   pagecolor="#ffffff"
   bordercolor="#666666"
   borderopacity="1"
   objecttolerance="10"
   gridtolerance="10"
   guidetolerance="10"
   inkscape:pageopacity="0"
   inkscape:pageshadow="2"
   inkscape:window-width="1024"
   inkscape:window-height="705"
   id="namedview377"
   showgrid="false"
   inkscape:zoom="0.37844774"
   inkscape:cx="311.79999"
   inkscape:cy="311.79999"
   inkscape:window-x="-4"
   inkscape:window-y="-4"
   inkscape:window-maximized="1"
   inkscape:current-layer="Layer_1" />
<style
   type="text/css"
   id="style2">
	.st0{fill:#F8982C;}
	.st1{fill:#ED1C24;}
	.st2{fill:#FFFFFF;}
	.st3{fill:#20AE57;}
	.st4{fill:#FCD033;}
	.st5{fill:none;stroke:#ED2290;stroke-miterlimit:10;}
</style>
<g
   id="g374"
   inkscape:export-filename="C:\Users\alexalbinonet\deportivo-lara-logo-escudo-7.png"
   inkscape:export-xdpi="9.876544"
   inkscape:export-ydpi="9.876544">
	<g
   id="g22">
		<g
   id="g8">
			<g
   id="g6">
				<path
   d="M179.3,12.1c1.9-2.6,7.3-4.5,6-5.7c-1.3-1.2-8.7,2.8-8.7,2.8c-36.3-15.4-51.7,5.7-54.1,9.6c-2.4,4-9.5,28.2,11.7,26.1      c21.2-2.1,21.3-23.8,21.1-28.9c-0.3-5.1-1-1.4-1-1.4c-1.4,11.8-9.9,28.7-20.3,27.6c-10.4-1-9.6-13.9-4.8-21.3      c4.9-7.5,11.4-14.5,26-14.7c14.5-0.2,18.4,5.2,18.4,5.2c-8.2,8.4-23.4,31.6-27.6,39.3c-4.2,7.7-4.6,8-4.6,8s-2.8-3-11.2-4.2      c-8.4-1.3-12.2,3.3-12.3,5.5c-0.1,2.2,1.2,6.8,10.8,7.1c9.6,0.2,14.9-4.2,14.9-4.2c11.8,8.2,23.1,1.9,23.1,1.9      C201.4,44.2,179.3,12.1,179.3,12.1z M129.4,64.3c-7.2,1.4-7.8-2.6-7.8-3.6c0-1,0.4-2.8,5.4-3.3c5-0.5,11.7,4,11.7,4      S136.6,62.9,129.4,64.3z M169.4,59.8c-12.1,8.6-21.9,1.8-21.9,1.8c17.9-13.5,19.7-21.2,22.1-28.8c2.4-7.6,7.2-17.2,7.2-17.2      C185.1,26.9,181.5,51.1,169.4,59.8z"
   id="path4" />
			</g>
		</g>
		<g
   id="g14">
			<g
   id="g12">
				<path
   d="M402.6,18.3c0,0,4.5-3.6,7.8-0.8c3.4,2.8-1.2,7.4-1.2,7.4s-4.6,4-7.7,1.3C398.5,23.5,402.6,18.3,402.6,18.3z"
   id="path10" />
			</g>
		</g>
		<g
   id="g20">
			<g
   id="g18">
				<path
   d="M496.2,53.6c-2.4,2.6-6.9,7.1-8.5,4.6c0,0,7.5-7.8,7.6-12.6c0,0,2.4-19.2-19-10.8c-21.5,8.4-23.4,25.6-33.6,22.6      c0,0,10.8-11.4,10.9-19.2c0.1-7.7-6.2-9.4-13.2-0.6c-7.1,8.7-3.3,18.5-2.8,20.1c0,0-2.1,3.5-8.4,5.3c-6.3,1.8-8.6,0.1-1.6-9.6      c7-9.8,9.3-19.6,1.6-21.6c-7.7-2-20.8,13.7-32,27.2c0,0-5.5,4.9-6.6,3.2c-1-1.7,5.1-14,14.7-27h-11.2c0,0-19.8,20.7-25.7,25.5      c-5.9,4.8-8.7,4.8-4.1-4.2l19-31.6h7.6l1.4-2.9h-6.8l6.7-12.6h-9.3L374.3,22h-5.3l-1.5,2.9h4.8c0,0-26.9,32.6-32.1,36      c-5.2,3.4-8.9,4.1-5.3-2c3.6-6.1,7.9-12,7.9-12s3.4-6.5-0.8-8.4c-4.2-1.9-7.7-3.2-6.8-6.3c0,0,0.5-2.7-2.3-2.8      c-2.8-0.1-2.8,4.7-2.4,6.9c0,0-16.5,18.5-18.4,20.2c-1.9,1.6-3.4,3-5.5,2c0,0,5.7-5.6,7.2-11c1.5-5.5,0.5-14.1-8.6-14.5      c-9.1-0.4-20.9,5.6-27.1,12.8c-6.2,7.1-11.2,13.9-12.7,15.4c-1.5,1.5-3,3.2-4.9,2.3c-1.9-0.9,1.8-5.8,1.8-5.8s5.5-7.7,6.8-10.9      c1.3-3.2,2.4-9.9-1.6-12.3c-4.1-2.4-13.2,3.5-17.6,8.2c-4.4,4.7-5.5,4.1-1.8-1.9c3.7-6,13.8-23.2,13.8-23.2h-9.4      c0,0-27.9,34.1-39.4,42.4c-11.5,8.2-17.2,1.9-12.8-5.1c0,0,21.4-1.4,22.3-14.8c0,0,1.5-9-13.6-6.2c0,0-7.2,1.1-21.6,15.1      c0,0-5,5.2-4,5.5c0,0,0,1.8,4.8-2.2c4.7-4-0.9,2.6,1.5,8c2.4,5.4,6.2,7.5,11.7,7.1c5.5-0.4,8.5,1.8,33.3-24.9c0,0,1-1.5,1.8-1.3      c0.8,0.3-0.8,2.2-0.8,2.2l-29.2,46.7h11.4c0,0,15.4-30.3,35.5-46.9c0,0,6.4-5.7,8.2-4.6c1.8,1-4.4,9.9-6.9,12.5      c-2.6,2.6-7.8,20.1,7.3,15.7c0,0,3.3-1.4,5-3.2c1.7-1.8,7.3-8.1,10.5-13.5c0,0,3.9-4,1.9,0.4c-1.9,4.4-1.3,11.8,3.1,15.3      c4.5,3.6,10,2.6,19.7-2.3c0,0,5.9,1.4,13.6-6.8c7.7-8.2,16.8-18.1,16.8-18.1s3.6-0.8,3.2,1.8c-0.4,2.6-9.1,13.9-9.8,16.8      c-0.6,3-2.1,15,11.6,8.7c0,0,13.4-7.3,23-23.1c0,0,1.3-2.5,2-2.4c0.6,0.1-4.9,8.7-7.3,14.1c-2.4,5.4-0.1,14,6.2,13      c6.3-1,15.5-7.3,21.1-16.2c0,0,1.4-2.2,2.3-1.8c0.9,0.4-7.6,12.4,0,17.7c0,0,5.7,3.7,18.5-10.5c12.9-14.3,8.9-11.4,18.4-19      c0,0,5.4-2.8,1.2,2.8c-4.2,5.7-9.1,13.9-9.4,17.9c-0.3,4,1,18,26.5,1.7c0,0,9.3,5.4,18.9-10c0,0,3.7-3.9,1.6,1.3      c-2.1,5.1-1.4,16.5,9.9,16.1c0,0,5.9,0.2,13-3.8c0,0,3,0.4,4.8,0c1.8-0.4,8.9-6.7,10.8-9.4C500.7,51,498.6,51,496.2,53.6z       M205,45.7c5.1-6.6,7.9-10.9,11.6-9.1c3.7,1.8-1.8,8.3-4,9.9c-2.2,1.6-9.8,6.7-10.5,4.9C201.4,49.6,205,45.7,205,45.7z       M299.9,56.7c-0.9,0.7-0.6,3.3-0.6,3.3c-5.3,6.4-10.6,5-10.1-1.3c0.5-6.3,5.5-11.8,10.8-18.4c5.4-6.6,9.8-4.3,10.5,1.3      c0.6,5.6-7.1,14.3-7.1,14.3C301.6,55.9,300.8,56,299.9,56.7z M440.7,54.9c-3.4-10.8,4.8-16.3,7-16c2.2,0.4,1.3,4.4,1.3,4.4      C447.7,48.1,440.7,54.9,440.7,54.9z M484.6,56c-1.8-0.2-2.5,0-3.5,0.7c-0.9,0.7-0.6,3.3-0.6,3.3c-5.3,6.4-10.6,5-10.1-1.3      c0.5-6.3,5.5-11.8,10.8-18.4c5.4-6.6,9.8-4.3,10.5,1.3C492.3,47.4,484.6,56,484.6,56z"
   id="path16" />
			</g>
		</g>
	</g>
	<g
   id="g28">
		<g
   id="g26">
			<path
   class="st0"
   d="M551.6,101.1h-243h-243c28.2,86.6,21.4,205,21.4,205c-2.6,144.8,59.2,209.1,59.2,209.1     c54.6,68,162.4,104.7,162.4,104.7S416.4,583.2,471,515.2c0,0,61.8-64.3,59.2-209.1C530.2,306.1,523.4,187.7,551.6,101.1z"
   id="path24" />
		</g>
	</g>
	<g
   id="g34">
		<g
   id="g32">
			<path
   class="st1"
   d="M72.5,106.2h236.1v504.3c0,0-104.8-35.7-157.8-101.8c0,0-60.1-62.5-57.5-203.3     C93.3,305.4,99.9,190.4,72.5,106.2"
   id="path30" />
		</g>
	</g>
	<g
   id="g40">
		<g
   id="g38">
			<path
   d="M544.8,106.2H308.6v504.3c0,0,104.8-35.7,157.8-101.8c0,0,60.1-62.5,57.5-203.3C524,305.4,517.4,190.4,544.8,106.2"
   id="path36" />
		</g>
	</g>
	<g
   id="g46">
		<g
   id="g44">
			<path
   class="st1"
   d="M290.8,106.2h254c0,0-7,24.2-8.7,32.6c0,0-6.8,35.3-7.8,47.4c0,0-4.4,47.7-4.5,62.1l-12.8,0.8l-201.9-8.3     l-18.5-134.6"
   id="path42" />
		</g>
	</g>
	<g
   id="g52">
		<g
   id="g50">
			<path
   class="st2"
   d="M444.6,227.1l82.2-25l1.4-15.9l-41.8,9.4l-32.7,6.6l-13.6-8.1l27.8-20.1l70.8-46.2l4.3-15.7l-10.7-0.4     l-134.7,74.6l-6.3-1.7l76-78.4h-30.4l-61.5,60.5v-14.2l27.4-46.3h-22.2l-37.6,62l11.9-62h-20.5l-13.2,51.3l-6.6-51.3h-17.3     l-1.3,36.6l-13.4-14.2l-6.4-22.4h-19l11.7,47l-7.6-2.3l-28.8-44.7h-23.5l35.2,65.3l-71.3-65.3h-26.7l78.9,85.1L72.5,106.5     l2.7,9.1l4.3,15.8l125.2,78l-4.2,8.7L89.4,189.4l1.3,12.6l88.8,28.5l23.4,10.3c0,0,30.6-1.6,49.7-7.4c0.8-0.2,1.5-0.5,2.2-0.7     c18.9-6.3,15.6-8.1,53.3-7.8L444.6,227.1z"
   id="path48" />
		</g>
	</g>
	<g
   id="g58">
		<g
   id="g56">
			<polygon
   class="st3"
   points="523.3,279.7 523.4,259.7 523.4,259.7 523.6,250.5 308.2,224.9 93.6,250.5 94,269.2 93.8,271.1      93.7,294.3 308.5,271.8 523.5,294.3    "
   id="polygon54" />
		</g>
	</g>
	<g
   id="g64">
		<g
   id="g62">
			<polygon
   class="st4"
   points="523.9,241.6 452.1,242 523.6,250.5    "
   id="polygon60" />
		</g>
	</g>
	<g
   id="g70">
		<g
   id="g68">
			<polygon
   class="st4"
   points="448.6,232.6 526,212 526.8,201.9 463.7,218.5    "
   id="polygon66" />
		</g>
	</g>
	<g
   id="g76">
		<g
   id="g74">
			<polygon
   class="st4"
   points="452.1,209.6 527.9,189.4 529.2,178.6 464,197.7    "
   id="polygon72" />
		</g>
	</g>
	<g
   id="g82">
		<g
   id="g80">
			<polygon
   class="st4"
   points="539,126.9 444.6,180.6 446.6,184.5 452.1,180.3 469.2,178.5 535.9,139.4    "
   id="polygon78" />
		</g>
	</g>
	<g
   id="g88">
		<g
   id="g86">
			<path
   class="st4"
   d="M431.5,176.3L543.1,112l1.7-5.9h-11.6l-136.7,78.4l77.6-78.4H461l-79.6,79.6l-0.6,0.6c0,0,7.4,5.3,4.7,9.2     C385.5,195.6,421.9,178.6,431.5,176.3"
   id="path84" />
		</g>
	</g>
	<g
   id="g94">
		<g
   id="g92">
			<path
   class="st4"
   d="M444.6,106.2l-68.2,68.6c0,0-13.4-5.5-17.9,4.6l-2.1-1.7l40.7-71.6h11.4l-31.2,54.2l54.4-54.2H444.6z"
   id="path90" />
		</g>
	</g>
	<g
   id="g100">
		<g
   id="g98">
			<polygon
   class="st4"
   points="384.9,106.2 347.8,168.7 335.4,163.8 350,106.2 360.1,106.2 349,148.2 373.5,106.2    "
   id="polygon96" />
		</g>
	</g>
	<g
   id="g106">
		<g
   id="g104">
			<polygon
   class="st4"
   points="311.3,106.2 311.3,160.5 324.1,161.4 339.2,106.2 329.1,106.2 321,135.3 320.6,106.2    "
   id="polygon102" />
		</g>
	</g>
	<g
   id="g112">
		<g
   id="g110">
			<polygon
   class="st4"
   points="300.2,106.2 299.1,158.7 287.2,160.9 271.4,106.2 281.7,106.2 290.1,137.2 290.8,106.2    "
   id="polygon108" />
		</g>
	</g>
	<g
   id="g118">
		<g
   id="g116">
			<path
   class="st4"
   d="M260.4,106.2l16,59.5c0,0-5.6,5.6-10.6,8.3l-40.3-67.8h11.6l24.1,40.8l-10.2-40.8H260.4z"
   id="path114" />
		</g>
	</g>
	<g
   id="g124">
		<g
   id="g122">
			<path
   class="st4"
   d="M213.4,106.2l30.3,52.1c0,0-8.6,11.7-12.2,13.2l-65.8-65.3H180l52.9,53.9l-30.4-53.9H213.4z"
   id="path120" />
		</g>
	</g>
	<g
   id="g130">
		<g
   id="g128">
			<path
   class="st4"
   d="M150.8,106.2l73.6,73.9l-7.4,11.2L74.2,111.9c0,0-1.1-3-1.7-5.8h13l127.8,76.1l-75.7-76.1H150.8z"
   id="path126" />
		</g>
	</g>
	<g
   id="g136">
		<g
   id="g134">
			<polygon
   class="st4"
   points="78.3,126.9 207.6,204 194.1,219.3 89.4,189.4 88.1,178.6 199.4,210.8 81.3,139.5    "
   id="polygon132" />
		</g>
	</g>
	<g
   id="g142">
		<g
   id="g140">
			<polygon
   class="st4"
   points="90.7,201.9 149.9,218.4 142.9,226.8 91.6,212    "
   id="polygon138" />
		</g>
	</g>
	<g
   id="g148">
		<g
   id="g146">
			<polygon
   class="st4"
   points="93.3,241.6 145.5,241.3 151.7,245.7 93.6,250.5    "
   id="polygon144" />
		</g>
	</g>
	<g
   id="g294">
		<g
   id="g280">
			<g
   id="g154">
				<g
   id="g152">
					<path
   d="M309.7,468.7c0,37.1-30.2,67.2-67.5,67.2c-37.3,0-67.5-30.1-67.5-67.2c0-37.1,30.2-67.2,67.5-67.2       C279.5,401.5,309.7,431.6,309.7,468.7"
   id="path150" />
				</g>
			</g>
			<g
   id="g160">
				<g
   id="g158">
					<path
   class="st2"
   d="M307.4,468.7c0,36.2-29.3,65.6-65.4,65.6c-36.1,0-65.4-29.4-65.4-65.6c0-36.2,29.3-65.6,65.4-65.6       C278.1,403.1,307.4,432.4,307.4,468.7"
   id="path156" />
				</g>
			</g>
			<g
   id="g166">
				<g
   id="g164">
					<polygon
   points="234.3,415.1 218.8,428.8 224.5,449 248,454.4 263.6,437.6 255.5,418.9      "
   id="polygon162" />
				</g>
			</g>
			<g
   id="g172">
				<g
   id="g170">
					<path
   d="M189.3,464.2c0,0,15.4,5,18.6,5c0,0,4.7,17.9,6.8,22.6L203,505.6c0,0-11.4-3.5-15.1-7.3c0,0-6.2-13.1-6.6-18.7       C181.3,479.6,187.6,466.5,189.3,464.2"
   id="path168" />
				</g>
			</g>
			<g
   id="g178">
				<g
   id="g176">
					<path
   d="M198.8,418.8v10.1c0,0-11.7,13.8-12.5,15.9l-5.4-0.5C180.9,444.3,187.4,426.9,198.8,418.8"
   id="path174" />
				</g>
			</g>
			<g
   id="g184">
				<g
   id="g182">
					<polygon
   points="268.9,481.8 256.4,479.6 239.8,498.1 246.2,515.2 248.6,516 251.5,507.8 257.9,505 262.1,501.4 268.2,489.7        269.8,483.9      "
   id="polygon180" />
				</g>
			</g>
			<g
   id="g192">
				<g
   id="g190">
					<g
   id="g188">
						<polygon
   points="256.6,480.9 247.3,453.8 247.9,453.6 257.2,480.7       "
   id="polygon186" />
					</g>
				</g>
			</g>
			<g
   id="g200">
				<g
   id="g198">
					<g
   id="g196">
						<polygon
   points="206.1,471.8 205.6,471.4 226.6,446.2 227.1,446.6       "
   id="polygon194" />
					</g>
				</g>
			</g>
			<g
   id="g208">
				<g
   id="g206">
					<g
   id="g204">
						<path
   d="M240.7,498.7c-10.5-2-26.4-6.6-26.6-6.6l0.2-0.6c0.2,0,16.1,4.6,26.6,6.6L240.7,498.7z"
   id="path202" />
					</g>
				</g>
			</g>
			<g
   id="g216">
				<g
   id="g214">
					<g
   id="g212">
						<path
   d="M185.3,503.2c-1-1.4,2.3-5.2,2.9-5.9l0.5,0.4c-1.5,1.6-3.4,4.4-2.9,5.1L185.3,503.2z"
   id="path210" />
					</g>
				</g>
			</g>
			<g
   id="g224">
				<g
   id="g222">
					<g
   id="g220">
						<path
   d="M181.9,480.2c-1-0.5-5.8-2.9-6-4.3l0.6-0.1c0.1,0.8,3.3,2.7,5.6,3.8L181.9,480.2z"
   id="path218" />
					</g>
				</g>
			</g>
			<g
   id="g232">
				<g
   id="g230">
					<g
   id="g228">
						<path
   d="M189.3,465.7c0-0.1-2.8-11.6-3.3-22.2l0.6,0c0.5,10.5,3.2,21.9,3.3,22L189.3,465.7z"
   id="path226" />
					</g>
				</g>
			</g>
			<g
   id="g240">
				<g
   id="g238">
					<g
   id="g236">
						<path
   d="M219.4,429.1c-7.7-0.3-20.2-0.5-21.1,0l-0.4-0.5c0.7-0.8,15.3-0.4,21.5-0.2L219.4,429.1z"
   id="path234" />
					</g>
				</g>
			</g>
			<g
   id="g248">
				<g
   id="g246">
					<g
   id="g244">
						<path
   d="M234.4,416c-2.1-4.6-5.4-11.6-5.6-12l0.3-0.2l-0.1-0.3c0.3-0.1,0.3-0.1,6,12.2L234.4,416z"
   id="path242" />
					</g>
				</g>
			</g>
			<g
   id="g256">
				<g
   id="g254">
					<g
   id="g252">
						<path
   d="M255.4,419.6l-0.4-0.5c3.1-3,13.3-12.7,14.9-11.8l-0.3,0.6C268.7,407.6,261.5,413.7,255.4,419.6z"
   id="path250" />
					</g>
				</g>
			</g>
			<g
   id="g262">
				<g
   id="g260">
					<path
   d="M234.3,534.3l-3.5-5.4l-18.7-6.4l-4.1,2.6C208.1,525.1,224.3,535.3,234.3,534.3"
   id="path258" />
				</g>
			</g>
			<g
   id="g270">
				<g
   id="g268">
					<g
   id="g266">
						<path
   d="M230.5,529.5l-0.3-0.5c0.1-0.1,14.6-9.4,16.6-12l0.5,0.4C245.2,520,231.1,529.1,230.5,529.5z"
   id="path264" />
					</g>
				</g>
			</g>
			<g
   id="g278">
				<g
   id="g276">
					<g
   id="g274">
						<path
   d="M212.3,523.4c-1.6-1.4-9.7-17.8-10.1-18.5l0.6-0.3c2.4,4.7,8.7,17.2,9.9,18.3L212.3,523.4z"
   id="path272" />
					</g>
				</g>
			</g>
		</g>
		<g
   id="g286">
			<g
   id="g284">
				<path
   class="st0"
   d="M306.2,356.4c0,0-7.8-6.7-6.6-13.1c1.2-6.4,5.3-10.7,14.5-14.4c0,0,1.2-1.4,3.5-2.7c0,0,2.1-7.4,9.6-9v-7.8      h-4.6V304h4.6v-5.9h5.3v5.9h4.2v5.8h-4.2v7.6c0,0,5.9,0.3,13.3,8.8c0,0,0.2-0.2,1.9,0.2c0,0,12-2.3,14.5,10.5      c2.5,12.8-5.4,13.7-8,17.5c0,0-2.5,2.6-1,4.3c1.5,1.7,9.4,8.8,9.4,8.8s13.4,0.9,13.1,19.7c0,0,10.9,12.6,13.6,16.4      c0,0,10.1,8.3,11.4,19.2c1.3,10.9-3.7,19.1-3.7,22.1c0,2.9,0.6,6.9,2.4,10c1.8,3.2,3.8,5,2.3,16.4c0,0-0.1,4.2,1.2,10.1      c1.3,5.9-2.2,7.4-2.6,12.3c-0.4,4.9,4.1,18.2,5.6,26.4c1.6,8.3,4.1,13.9-4,13.9c-8.1,0-148,0-148,0s-4.6,0.4-4.9-6.4      c-0.3-6.8-6.6-7.3-5.2-15.4c1.4-8.1,4.8-9,12.6-10.1c0,0,8.6-10.8,9.6-16.7c1-5.9-4.8-8.4,1.5-17.8c0,0,2.8-4.1-1.9-9.4      c-4.8-5.3-9.9-8.6-5.6-16.5c4.3-8,7.2-13.1,7.2-13.1s-27.9-49.5-41-68.9c0,0-5.1-8.8-8.4-6.9c-3.2,1.9,1.1,6.2,7,13.9      c5.9,7.7,8.4,10.6,8.8,15.8c0.5,5.3-2.9,5.6-2.9,5.6l-3.4,0.3c0,0-1.8-0.1-2.7-5.3c-0.9-5.2-5.2-10.6-8.7-13.5      c-3.5-2.9-13.2-16.1-5.2-22.5c8.1-6.3,15.9-2.7,21.5,6.4c5.6,9.1,40.3,66.7,40.3,66.7s6.9,1.6,4.7-3.6      c-2.2-5.2,1.3-11.2,2.1-12.8C280,402.4,306.7,363.2,306.2,356.4z"
   id="path282" />
			</g>
		</g>
		<g
   id="g292">
			<g
   id="g290">
				<path
   class="st2"
   d="M311.2,356.1c0,0-7.5-5.6-5.7-12.1c1.8-6.5,10.7-10.5,10.7-10.5s1.8-1.7,3-2.3c0,0,2-7.7,11.1-7.7      c9,0,13,7.7,13,7.7s12.6-1.1,13.8,8.6c1.3,9.7-7.5,11.7-9,13.8c-1.4,2.1-2.3,3.8,0.8,6.8c3,3.1,11.6,11,11.6,11      s11.2,0.5,11.7,18.6l13.8,17.4c0,0,9.9,9.1,10.1,18.5c0.2,9.5-4,17.7-3.4,21.2c0.6,3.5,0.9,4.9,3.3,9c2.4,4.1,0.8,11.8,0.5,15.7      c-0.3,3.9,1.1,7.9,0.6,11.3c0,0-2.6,11.4-1.6,14.6c1,3.2,7.5,29.3,7.5,29.3s1.2,3.8-2.7,3.8c-3.9,0-142.9,0-142.9,0      s-2.7,0.4-3.2-3.5c-0.5-3.8-3.2-7.6-5-10.1c-1.8-2.5-1-5.8-0.2-6.9c0.7-1.1,2.2-3.8,9.8-3.5c0,0,11.3-13.7,11.8-21.4      c0.5-7.7-3.3-7.8,0.8-15.2c4.2-7.4,0.6-14.1-4.1-18.9c-4.7-4.8-1.6-8-1.6-8l9.2-16.3c0,0,9-0.4,8.2-4.7c-0.7-4.3-5.5-6-0.4-15      C287.7,398.3,309.7,367.5,311.2,356.1z"
   id="path288" />
			</g>
		</g>
	</g>
	<g
   id="g300">
		<g
   id="g298">
			<path
   class="st5"
   d="M216.7,265.7"
   id="path296" />
		</g>
	</g>
	<g
   id="g314">
		<g
   id="g306">
			<g
   id="g304">
				<path
   d="M492.1,171.1l-22,0.1l-6.2,5c-17.7-22.3-66.3,13.2-66.3,13.2c1.2-7.3-12.1-11.8-12.1-11.8s4.7-11.9-5-14.4      c-9.7-2.4-14.5,8.8-14.5,8.8l-1.5-0.9c0,0-19.3,0-21.9,0.1c-2.6,0.1-6.8,5.4-6.8,5.4c-6.2-10.5-20.3-7.4-20.3-7.4      c-49.4,10.6-69,52.1-69,52.1c-31.9,18.4-42.2,8.2-42.2,8.2c10.4-6.2,33.2-29.9,33.2-29.9c13.9-3.8,86.1-46.6,82.8-73.4      c-3.2-26.9-41.9-7.3-41.9-7.3c-2.1-8.6-19-6.8-19-6.8c-54.9,3.5-75.9,26.5-84,55.3c-8,28.8,23.9,32.2,23.9,32.2l-16.1,18.1      c-43.1-22.3-53.9,7.8-53.9,7.8c-12.4,38.8,55.8,16.5,55.8,16.5c35.1,15,60.7-2.7,60.7-2.7c16.4,20.2,45.7-1.9,45.7-1.9      c5.4,26.1,45.4-4,45.4-4c1.9,29,37.5,6.4,37.5,6.4C387.3,261,419,237,419,237c6.4,26.9,42.7-2.7,54.2-11.6c11.5-9,9.5-14,9.5-14      c-1.9-12.2-19.1,3.2-19.1,3.2s23.3-26,30.3-33.8C500.9,173.1,492.1,171.1,492.1,171.1z M295.5,130c0,0,8.7-4.8,4,2.5      c-4.7,7.3-15.6,21-44.5,40.6C255,173,279.7,138.1,295.5,130z M198.6,160.4c11.8-21.3,28.2-36.7,66.7-33c0,0-23.8,15.3-55.5,56      C209.7,183.5,186.8,181.7,198.6,160.4z"
   id="path302" />
			</g>
		</g>
		<g
   id="g312">
			<g
   id="g310">
				<path
   class="st2"
   d="M457,225.3c-23,16.7-5.4-5-5.4-5l39.3-44.5h-19.7l-10.8,11.1c0.6-11.5-8.1-17.7-35.1-7.6      c-27,10.1-46.1,45.4-46.1,45.4c-36.1,23-16.1,2.7,2.7-17.2c18.8-19.8,8.8-21.4,0.9-25.7c-7.9-4.3,5.2-13.4-3.4-13.9      c-8.6-0.5-11.2,12.8-11.2,12.8s-14.7,18.5-39,41c-24.3,22.5-4.7-2.6-4.7-2.6l38.3-43.3h-19.4l-10.9,11.3c1.3-4.4-0.1-21-32-8.8      c-32,12.3-49.1,45.1-49.1,45.1c-40,27.4-54.8,6.4-54.8,6.4c22.9-16.7,38.3-35.3,38.3-35.3c88.1-36.6,97.6-88,58.4-76.2      C254,130.1,211.9,190,211.9,190c-36.4-5-14.6-37.6-14.6-37.6c21-38.2,65.1-30.3,70.4-29.7c5.4,0.6,8.9-2.8,0.4-5      c-8.5-2.2-20.4-0.4-20.4-0.4c-44.1,3.4-59.9,33.2-59.9,33.2c-27.2,43.4,18.3,46.7,18.3,46.7c-5.7,7.1-21.9,26.6-21.9,26.6      c-16.9-10.6-46.8-15.7-51.4,7.5c-4.5,23.2,52.6,5.4,52.6,5.4c35.1,18.4,63.7-6,63.7-6c2.9,31,52-5.8,52-5.8      c-5.2,6.1-6.4,15.1-1.3,18.6c5.1,3.5,20.1-6.5,24.5-10.3c4.5-3.8,41.8-43.5,45.4-46.2c3.6-2.8,5.9-1,5.9-1      c3.6,3.3-3.1,8.9-3.1,8.9c-12.1,13.4-26.4,19.9-29.2,36c-2.8,16.1,6.8,13,13.4,11.6c6.6-1.4,20.5-10.6,20.5-10.6      c4.7,29.1,51.4-7.1,51.4-7.1c-10.4,16.8-2.7,22.9,14.7,15.5c17.5-7.3,33.2-24.9,33.2-24.9v-3.5C476.8,211.8,480,208.7,457,225.3      z M294.5,125.5c19.9-7.5,10.2,9.3,8.4,12c-1.8,2.7-19.4,28.6-62.8,48.5C240.1,186,274.6,132.9,294.5,125.5z M147.7,236.4      c-4.1-0.4-16-8.8,0-13.4c16-4.6,29.6,6.1,29.6,6.1C168.8,236.3,151.8,236.8,147.7,236.4z M313.9,205.4      c-10.9,13.7-39.9,32.1-43.4,27.4c-3.4-4.7,12.3-20.4,18.9-27.4c6.6-7.1,29.7-27.2,34.8-21.1      C329.3,190.5,313.9,205.4,313.9,205.4z M440.9,205.4c-10.9,13.7-39.9,32.1-43.4,27.4c-3.4-4.7,12.3-20.4,18.9-27.4      c6.6-7.1,29.7-27.2,34.8-21.1C456.3,190.5,440.9,205.4,440.9,205.4z"
   id="path308" />
			</g>
		</g>
	</g>
	<g
   id="g372">
		<g
   id="g328">
			<g
   id="g320">
				<g
   id="g318">
					<path
   class="st2"
   d="M285.3,269.4H275v-0.3c3.2-3.8,5.1-6.3,5.7-7.6c0.7-1.3,1-2.6,1-3.8c0-0.9-0.3-1.7-0.8-2.3       c-0.6-0.6-1.2-0.9-2-0.9c-1.3,0-2.4,0.7-3.1,2l-0.5-0.2c0.5-1.7,1.2-2.9,2.1-3.7c0.9-0.8,2-1.2,3.3-1.2c0.9,0,1.7,0.2,2.4,0.6       c0.7,0.4,1.3,1,1.7,1.7c0.4,0.7,0.6,1.4,0.6,2c0,1.1-0.3,2.3-1,3.5c-0.9,1.6-2.8,3.8-5.7,6.7h3.8c0.9,0,1.5,0,1.8-0.1       c0.3-0.1,0.5-0.2,0.7-0.4c0.2-0.2,0.4-0.6,0.7-1.2h0.5L285.3,269.4z"
   id="path316" />
				</g>
			</g>
			<g
   id="g326">
				<g
   id="g324">
					<path
   class="st2"
   d="M285.6,269.8h-10.9V269l0.1-0.1c3.1-3.7,5-6.3,5.7-7.5c0.6-1.2,1-2.5,1-3.7c0-0.8-0.2-1.5-0.8-2       c-0.5-0.5-1.1-0.8-1.8-0.8c-1.2,0-2.1,0.6-2.8,1.8L276,257l-1-0.4l0.1-0.3c0.5-1.7,1.2-3,2.2-3.8c1-0.8,2.2-1.3,3.5-1.3       c0.9,0,1.8,0.2,2.6,0.7c0.8,0.4,1.4,1.1,1.8,1.8c0.4,0.8,0.7,1.5,0.7,2.2c0,1.2-0.3,2.4-1,3.6c-0.8,1.5-2.6,3.6-5.2,6.2h3       c1.1,0,1.6-0.1,1.7-0.1c0.2-0.1,0.4-0.2,0.5-0.3c0.1-0.1,0.3-0.4,0.7-1.1l0.1-0.2h1.1L285.6,269.8z M275.5,269.1h9.6l0.8-4       c-0.2,0.3-0.3,0.6-0.5,0.7c-0.2,0.2-0.5,0.4-0.8,0.5c-0.3,0.1-0.9,0.1-1.9,0.1H278l0.6-0.6c2.9-2.8,4.8-5,5.6-6.6       c0.6-1.1,0.9-2.2,0.9-3.3c0-0.6-0.2-1.2-0.6-1.9c-0.4-0.7-0.9-1.2-1.6-1.6c-0.7-0.4-1.4-0.6-2.3-0.6c-1.2,0-2.2,0.4-3.1,1.1       c-0.8,0.7-1.4,1.7-1.8,3c0.8-1.1,1.8-1.7,3.1-1.7c0.9,0,1.7,0.3,2.3,1c0.6,0.7,0.9,1.5,0.9,2.5c0,1.3-0.4,2.6-1,4       C280.4,263,278.6,265.4,275.5,269.1z"
   id="path322" />
				</g>
			</g>
		</g>
		<g
   id="g342">
			<g
   id="g334">
				<g
   id="g332">
					<path
   class="st2"
   d="M305.1,260.7c0,1.7-0.2,3.4-0.7,4.9c-0.3,0.9-0.7,1.7-1.2,2.3c-0.5,0.6-1.1,1.1-1.7,1.4       c-0.6,0.3-1.3,0.5-2.1,0.5c-0.8,0-1.6-0.2-2.3-0.6c-0.7-0.4-1.3-1-1.8-1.8c-0.4-0.6-0.7-1.4-1-2.3c-0.4-1.3-0.6-2.7-0.6-4.1       c0-1.9,0.3-3.6,0.8-5.2c0.4-1.3,1.1-2.3,2-3c0.9-0.7,1.8-1,2.8-1c1,0,2,0.3,2.8,1c0.9,0.7,1.5,1.6,1.9,2.8       C304.8,257,305.1,258.8,305.1,260.7z M301.1,260.7c0-3.1,0-4.8-0.1-5.4c-0.1-1.2-0.3-2-0.6-2.4c-0.2-0.3-0.6-0.4-1-0.4       c-0.4,0-0.7,0.1-0.9,0.3c-0.3,0.3-0.5,0.8-0.6,1.6c-0.1,0.8-0.2,3.4-0.2,8c0,2.5,0.1,4.1,0.3,5c0.1,0.6,0.3,1,0.6,1.2       c0.2,0.2,0.6,0.3,1,0.3c0.4,0,0.7-0.1,1-0.4c0.4-0.5,0.6-1.2,0.6-2.2L301.1,260.7z"
   id="path330" />
				</g>
			</g>
			<g
   id="g340">
				<g
   id="g338">
					<path
   class="st2"
   d="M299.5,270.1c-0.9,0-1.7-0.2-2.5-0.7c-0.7-0.5-1.4-1.1-1.9-1.9c-0.4-0.6-0.7-1.4-1-2.4       c-0.4-1.3-0.6-2.7-0.6-4.2c0-1.9,0.3-3.7,0.8-5.3c0.5-1.4,1.2-2.4,2.1-3.2c1.9-1.5,4.2-1.5,6.1,0c0.9,0.7,1.6,1.7,2,2.9       c0.6,1.6,0.9,3.4,0.9,5.4c0,1.8-0.3,3.4-0.8,5c-0.3,1-0.7,1.8-1.2,2.4c-0.5,0.6-1.1,1.1-1.8,1.5       C301,269.9,300.2,270.1,299.5,270.1z M299.5,251.9c-0.9,0-1.8,0.3-2.6,1c-0.8,0.7-1.5,1.6-1.9,2.9c-0.5,1.5-0.8,3.3-0.8,5.1       c0,1.4,0.2,2.7,0.5,4c0.3,0.9,0.6,1.7,1,2.2c0.5,0.8,1.1,1.3,1.7,1.7c0.6,0.4,1.3,0.6,2.1,0.6c0.7,0,1.3-0.2,1.9-0.5       c0.6-0.3,1.1-0.8,1.6-1.3c0.5-0.6,0.8-1.3,1.1-2.2c0.5-1.5,0.7-3.1,0.7-4.8c0-1.9-0.3-3.6-0.8-5.2c-0.4-1.1-1-2-1.8-2.6       C301.3,252.2,300.4,251.9,299.5,251.9z M299.5,269.2c-0.5,0-0.9-0.1-1.2-0.4c-0.3-0.3-0.5-0.7-0.7-1.4c-0.2-0.9-0.3-2.5-0.3-5       c0-4.6,0.1-7.2,0.2-8c0.1-0.8,0.4-1.4,0.7-1.8c0.3-0.3,0.6-0.4,1.1-0.4c0.6,0,1,0.2,1.3,0.5c0.4,0.5,0.6,1.3,0.7,2.6       c0,0.5,0.1,2.3,0.1,5.4l-0.1,5.5c-0.1,1.1-0.3,1.9-0.7,2.4C300.4,269,300,269.2,299.5,269.2z M299.4,252.8       c-0.3,0-0.5,0.1-0.7,0.2c-0.3,0.3-0.4,0.7-0.5,1.4c-0.1,0.7-0.2,3.4-0.2,7.9c0,2.4,0.1,4.1,0.2,4.9c0.1,0.7,0.3,0.9,0.5,1       c0.2,0.2,0.4,0.2,0.7,0.2c0.3,0,0.6-0.1,0.7-0.3c0.3-0.4,0.5-1.1,0.5-2.1l0-5.5c0-3,0-4.8,0-5.3c-0.1-1.4-0.4-2-0.6-2.2       C300.1,252.9,299.8,252.8,299.4,252.8z"
   id="path336" />
				</g>
			</g>
		</g>
		<g
   id="g356">
			<g
   id="g348">
				<g
   id="g346">
					<path
   class="st2"
   d="M323.6,260.7c0,1.7-0.2,3.4-0.7,4.9c-0.3,0.9-0.7,1.7-1.2,2.3c-0.5,0.6-1.1,1.1-1.7,1.4       c-0.6,0.3-1.3,0.5-2.1,0.5c-0.8,0-1.6-0.2-2.3-0.6c-0.7-0.4-1.3-1-1.8-1.8c-0.4-0.6-0.7-1.4-1-2.3c-0.4-1.3-0.6-2.7-0.6-4.1       c0-1.9,0.3-3.6,0.8-5.2c0.4-1.3,1.1-2.3,2-3c0.9-0.7,1.8-1,2.8-1c1,0,2,0.3,2.8,1c0.9,0.7,1.5,1.6,1.9,2.8       C323.3,257,323.6,258.8,323.6,260.7z M319.6,260.7c0-3.1,0-4.8-0.1-5.4c-0.1-1.2-0.3-2-0.6-2.4c-0.2-0.3-0.6-0.4-1-0.4       c-0.4,0-0.7,0.1-0.9,0.3c-0.3,0.3-0.5,0.8-0.6,1.6c-0.1,0.8-0.2,3.4-0.2,8c0,2.5,0.1,4.1,0.3,5c0.1,0.6,0.3,1,0.5,1.2       c0.2,0.2,0.6,0.3,1,0.3c0.4,0,0.8-0.1,1-0.4c0.4-0.5,0.6-1.2,0.6-2.2L319.6,260.7z"
   id="path344" />
				</g>
			</g>
			<g
   id="g354">
				<g
   id="g352">
					<path
   class="st2"
   d="M317.9,270.1c-0.9,0-1.7-0.2-2.5-0.7c-0.7-0.5-1.4-1.1-1.9-1.9c-0.4-0.6-0.7-1.4-1-2.4       c-0.4-1.3-0.6-2.7-0.6-4.2c0-1.9,0.3-3.7,0.8-5.3c0.5-1.4,1.2-2.4,2.1-3.2c1.9-1.5,4.2-1.5,6.1,0c0.9,0.7,1.6,1.7,2,2.9       c0.6,1.6,0.9,3.4,0.9,5.4c0,1.8-0.3,3.4-0.8,5c-0.3,1-0.7,1.8-1.2,2.4c-0.5,0.6-1.1,1.1-1.8,1.5       C319.5,269.9,318.7,270.1,317.9,270.1z M317.9,251.9c-0.9,0-1.8,0.3-2.6,1c-0.8,0.7-1.5,1.6-1.9,2.9c-0.5,1.5-0.8,3.3-0.8,5.1       c0,1.4,0.2,2.7,0.5,4c0.3,0.9,0.6,1.7,1,2.2c0.5,0.8,1.1,1.3,1.7,1.7c0.6,0.4,1.3,0.6,2.1,0.6c0.7,0,1.3-0.2,1.9-0.5       c0.6-0.3,1.1-0.8,1.6-1.3c0.5-0.6,0.8-1.3,1.1-2.2c0.5-1.5,0.7-3.1,0.7-4.8c0-1.9-0.3-3.6-0.8-5.2c-0.4-1.1-1-2-1.8-2.6       C319.8,252.2,318.9,251.9,317.9,251.9z M318,269.2c-0.5,0-0.9-0.1-1.2-0.4c-0.3-0.3-0.5-0.7-0.7-1.4c-0.2-0.9-0.3-2.5-0.3-5       c0-4.6,0.1-7.2,0.2-8c0.1-0.8,0.4-1.4,0.7-1.8c0.3-0.3,0.6-0.4,1.1-0.4c0.6,0,1,0.2,1.3,0.5c0.4,0.5,0.6,1.3,0.7,2.6       c0,0.5,0.1,2.3,0.1,5.4l-0.1,5.5c-0.1,1.1-0.3,1.9-0.7,2.4C318.9,269,318.5,269.2,318,269.2z M317.9,252.8       c-0.3,0-0.5,0.1-0.7,0.2c-0.3,0.3-0.5,0.7-0.5,1.4c-0.1,0.7-0.2,3.4-0.2,7.9c0,2.4,0.1,4.1,0.3,4.9c0.1,0.7,0.3,0.9,0.4,1       c0.2,0.2,0.4,0.2,0.7,0.2c0.3,0,0.6-0.1,0.7-0.3c0.3-0.4,0.5-1.1,0.6-2.1l0-5.5c0-3,0-4.8,0-5.3c-0.1-1.4-0.4-2-0.6-2.2       C318.5,252.9,318.3,252.8,317.9,252.8z"
   id="path350" />
				</g>
			</g>
		</g>
		<g
   id="g370">
			<g
   id="g362">
				<g
   id="g360">
					<path
   class="st2"
   d="M330.6,269.8v-0.4c1.4-0.3,2.6-0.8,3.6-1.4c1-0.6,1.8-1.4,2.4-2.4c0.6-0.9,1-2,1.2-3.2       c-0.5,0.3-1,0.5-1.4,0.6c-0.4,0.1-0.8,0.2-1.2,0.2c-1.3,0-2.4-0.5-3.3-1.4c-0.9-1-1.3-2.3-1.3-3.9c0-1.2,0.2-2.2,0.7-3.2       c0.5-1,1.2-1.7,2-2.2c0.9-0.5,1.8-0.8,2.8-0.8c1,0,2,0.3,2.9,0.9c0.9,0.6,1.6,1.4,2.2,2.5c0.5,1.1,0.8,2.4,0.8,3.8       c0,1.8-0.4,3.6-1.3,5.3c-0.9,1.7-2.2,3-3.9,4.1C335.1,269.2,333,269.7,330.6,269.8z M338,261.3c0.1-1,0.1-1.8,0.1-2.5       c0-1.6-0.2-3-0.5-4.4c-0.2-0.7-0.5-1.3-0.9-1.6c-0.2-0.2-0.5-0.3-0.8-0.3c-0.4,0-0.8,0.2-1,0.6c-0.3,0.5-0.5,1.5-0.5,2.9       c0,2.4,0.3,4,0.9,4.9c0.4,0.6,0.9,0.9,1.5,0.9C337.1,261.7,337.5,261.6,338,261.3z"
   id="path358" />
				</g>
			</g>
			<g
   id="g368">
				<g
   id="g366">
					<path
   class="st2"
   d="M330.3,270.1v-1l0.2-0.1c1.4-0.3,2.6-0.8,3.5-1.4c0.9-0.6,1.7-1.4,2.3-2.3c0.4-0.7,0.8-1.6,1-2.5       c-0.3,0.1-0.6,0.2-0.8,0.3c-0.4,0.1-0.8,0.2-1.3,0.2c-1.4,0-2.6-0.5-3.5-1.5c-0.9-1-1.4-2.4-1.4-4.1c0-1.2,0.3-2.3,0.7-3.3       c0.5-1,1.2-1.8,2.2-2.4c1.9-1.2,4.1-1.1,6,0.1c1,0.6,1.7,1.5,2.3,2.7c0.6,1.1,0.8,2.5,0.8,3.9c0,1.9-0.5,3.7-1.4,5.4       c-0.9,1.7-2.3,3.1-4.1,4.2c-1.8,1-3.9,1.6-6.3,1.7L330.3,270.1z M338.3,261.8l-0.1,0.6c-0.2,1.2-0.7,2.4-1.3,3.3       c-0.6,1-1.4,1.8-2.5,2.5c-0.7,0.4-1.4,0.8-2.3,1.1c1.7-0.2,3.2-0.7,4.5-1.5c1.7-1,3-2.3,3.8-3.9c0.9-1.6,1.3-3.4,1.3-5.1       c0-1.4-0.3-2.6-0.8-3.7c-0.5-1.1-1.2-1.9-2.1-2.4c-1.6-1.1-3.6-1.1-5.3-0.1c-0.8,0.5-1.5,1.2-1.9,2.1c-0.4,0.9-0.7,1.9-0.7,3       c0,1.6,0.4,2.8,1.2,3.7c0.8,0.9,1.8,1.3,3.1,1.3c0.4,0,0.7-0.1,1.1-0.1c0.3-0.1,0.8-0.3,1.3-0.6L338.3,261.8z M336.7,262.1       c-0.7,0-1.3-0.3-1.8-1c-0.6-1-0.9-2.6-0.9-5.1c0-1.5,0.2-2.5,0.6-3.1c0.3-0.5,0.7-0.7,1.3-0.7c0.4,0,0.8,0.1,1,0.4       c0.4,0.4,0.8,1,1,1.8c0.4,1.4,0.6,2.9,0.6,4.5c0,0.7,0,1.6-0.1,2.6l0,0.2l-0.2,0.1C337.6,261.9,337.1,262.1,336.7,262.1z        M335.9,252.8c-0.3,0-0.6,0.1-0.7,0.4c-0.2,0.3-0.5,1-0.5,2.7c0,2.3,0.3,3.9,0.8,4.8c0.3,0.5,0.7,0.7,1.2,0.7       c0.2,0,0.5-0.1,1-0.3c0.1-0.9,0.1-1.7,0.1-2.3c0-1.5-0.2-3-0.5-4.3c-0.2-0.7-0.5-1.2-0.8-1.5       C336.4,252.9,336.1,252.8,335.9,252.8z"
   id="path364" />
				</g>
			</g>
		</g>
	</g>
</g>
</svg>