<?xml version="1.0" encoding="UTF-8" standalone="no"?>
<!-- Created with Inkscape (http://www.inkscape.org/) -->
<!DOCTYPE svg PUBLIC "-//W3C//DTD SVG 1.1//EN" "http://www.w3.org/Graphics/SVG/1.1/DTD/svg11.dtd">
<svg
   xmlns:dc="http://purl.org/dc/elements/1.1/"
   xmlns:cc="http://creativecommons.org/ns#"
   xmlns:rdf="http://www.w3.org/1999/02/22-rdf-syntax-ns#"
   xmlns:svg="http://www.w3.org/2000/svg"
   xmlns="http://www.w3.org/2000/svg"
   version="1.1"
   width="400"
   height="481.45822"
   id="svg2985"
   xml:space="preserve"><metadata
     id="metadata2991"><rdf:RDF><cc:Work
         rdf:about=""><dc:format>image/svg+xml</dc:format><dc:type
           rdf:resource="http://purl.org/dc/dcmitype/StillImage" /><dc:title></dc:title></cc:Work></rdf:RDF></metadata><defs
     id="defs2989" /><g
     transform="matrix(1.25,0,0,-1.25,-70.264125,643.30823)"
     id="g2993"><g
       transform="matrix(0.65116899,0,0,0.65116899,22.398893,47.957288)"
       id="g3446"><path
         d="m 335.911,454.479 c 4.45,9.438 5.228,18.873 4.34,26.842 -2.106,18.882 -17.799,20.384 -32.355,12.597 -11.11,-5.943 -19.55,-17.559 -23.236,-29.516 -8.181,-0.173 -17.869,-0.927 -26.306,-2.122 -32.047,-4.54 -69.35,-22.381 -69.35,-56.796 4.832,-43.753 64.425,-38.676 72.341,-29.666 -41.223,14.29 -41.343,35.739 -26.48,52.406 6.547,7.369 24.279,17.778 46.312,18.206 -1.386,-8.774 -1.184,-16.047 -1.089,-22.53 -7.029,-2.324 -12.548,-4.379 -23.619,-7.35 l -1.651,-18.812 c 5.992,1.614 22.511,9.254 24.989,10.756 -1.593,-38.401 -5.322,-88.695 -14.675,-107.353 -10.615,5.878 -27.01,11.868 -45.119,13.943 -9.372,1.075 -37.09,2.886 -37.979,-12.634 -0.579,-10.111 17.893,-22.968 37.281,-26.377 19.812,-3.484 39.668,0.097 55.84,11.79 11.656,-4.957 30.955,-9.751 43.79,-9.312 53.525,1.476 94.219,38.044 95.663,83.812 0,11.751 -1.787,22.876 -6.837,33.896 -11.951,26.084 -38.411,46.366 -71.86,58.22 z M 202.255,299.932 c -0.451,6.105 18.515,5.338 32.482,2.108 12.324,-2.85 20.554,-7.77 24.118,-9.377 -4.98,-4.315 -12.777,-7.025 -24.4,-7.054 -14.478,-0.037 -31.773,8.53 -32.2,14.323 z m 123.64,171.929 c -0.669,-4.9 -1.732,-9.5 -4.122,-13.118 -7.993,2.54 -18.373,4.422 -26.468,4.422 1.373,4.364 3.352,8.59 7.94,14.115 11.027,13.28 25.434,14.948 22.65,-5.419 z m -33.972,-25.032 c 5.825,-0.183 12.534,-1.697 19.62,-4.014 -5.842,-5.765 -10.925,-8.976 -18.523,-13.45 -0.928,4.964 -1.229,10.635 -1.097,17.464 z M 361.17,367.03 c -0.269,-26.311 -13.383,-56.578 -38.301,-66.879 -10.171,-4.205 -25.709,-6.863 -39.509,-4.106 24.416,25.955 34.766,58.834 45.602,91.093 -23.453,1.185 -29.917,20.762 -31.766,30.372 8.884,4.581 18.6,11.62 26.493,19.742 20.446,-14.179 37.783,-40.745 37.481,-70.222"
         id="path2999"
         style="fill:#008dd0;fill-opacity:1;fill-rule:evenodd;stroke:none" /><path
         d="m 125.142,207.148 -7.399,-0.72 4.63,15.793 -16.453,-0.218 5.935,15.35 -16.414,1.161 7.2,14.799 -16.2601,2.529 8.4132,14.146 -15.9902,3.88 9.5672,13.393 -15.6102,5.205 10.6536,12.543 -15.1192,6.494 11.6672,11.608 -14.5238,7.736 12.5972,10.592 -13.8246,8.924 13.4383,9.499 -13.0293,10.051 14.1867,8.342 -12.1429,11.105 14.8347,7.126 -11.1703,12.082 15.3785,5.858 -10.1207,12.975 15.8157,4.552 -8.9997,13.776 16.1422,3.212 -7.8164,14.482 16.3529,1.85 -6.576,15.084 16.45,0.475 -5.29,15.582 16.433,-0.904 -3.969,15.97 16.3,-2.275 -2.619,16.247 16.052,-3.632 -1.249,16.409 15.692,-4.962 0.127,16.456 15.221,-6.259 1.504,16.388 14.646,-7.51 2.869,16.204 13.966,-8.708 4.215,15.907 13.188,-9.847 5.531,15.499 12.318,-10.916 6.81,14.982 11.361,-11.909 8.039,14.36 10.324,-12.818 9.213,13.637 9.215,-13.636 10.322,12.818 8.041,-14.361 11.359,11.91 6.811,-14.983 12.316,10.917 5.533,-15.5 13.187,9.848 4.217,-15.908 13.964,8.71 2.87,-16.206 14.645,7.511 1.506,-16.389 15.22,6.259 0.128,-16.456 15.692,4.963 -1.249,-16.41 16.051,3.633 -2.618,-16.248 16.3,2.277 -3.968,-15.971 16.432,0.904 -5.291,-15.583 16.45,-0.473 -6.577,-15.086 16.355,-1.849 -7.817,-14.483 16.142,-3.211 -9,-13.777 15.816,-4.551 -10.121,-12.975 15.379,-5.859 -11.17,-12.082 14.835,-7.125 -12.144,-11.106 14.187,-8.341 -13.03,-10.051 13.439,-9.499 -13.825,-8.925 12.598,-10.591 -14.523,-7.737 11.666,-11.607 -15.119,-6.495 10.654,-12.543 -15.609,-5.205 9.566,-13.391 -15.99,-3.882 8.413,-14.145 -16.26,-2.53 7.201,-14.798 -16.415,-1.161 5.936,-15.35 -16.453,0.217 4.632,-15.792 -8.792,0.855 c -3.531,2.034 -7.105,4.002 -10.714,5.912 33.52,37.817 53.888,87.559 53.888,142.056 0,118.323 -95.956,214.279 -214.279,214.279 -118.323,0 -214.2796,-95.956 -214.2796,-214.279 0,-54.295 20.2136,-103.873 53.5126,-141.638 -3.956,-2.082 -7.866,-4.236 -11.73,-6.466 z m 327.645,8.767 c -46.776,23.749 -99.689,37.14 -155.73,37.14 -55.72,0 -108.352,-13.239 -154.931,-36.735 -32.978,36.889 -53.0389,85.569 -53.0389,138.932 0,115.161 93.3919,208.552 208.5519,208.552 115.161,0 208.552,-93.391 208.552,-208.552 0,-53.557 -20.21,-102.4 -53.404,-139.337 z M 297.639,513 c 87.107,0 157.748,-70.641 157.748,-157.748 0,-42.778 -17.046,-81.575 -44.702,-109.995 -35.681,12.039 -73.891,18.566 -113.629,18.566 -39.41,0 -77.315,-6.429 -112.743,-18.278 -27.492,28.393 -44.422,67.074 -44.422,109.707 0,87.107 70.641,157.748 157.748,157.748"
         id="path3001"
         style="fill:#008dd0;fill-opacity:1;fill-rule:evenodd;stroke:none" /><path
         d="m 294.955,183.516 c 49.668,0 96.236,-13.278 136.361,-36.471 l -4.822,-9.565 c -38.671,22.473 -83.601,35.35 -131.539,35.35 -47.594,0 -92.227,-12.684 -130.709,-34.859 l -5.265,9.302 c 40.037,23.056 86.465,36.243 135.974,36.243"
         id="path3003"
         style="fill:#008dd0;fill-opacity:1;fill-rule:evenodd;stroke:none" /><path
         d="m 145.34,287.125 -4.758,-0.606 c 1.259,-3.279 1.699,-6.347 1.321,-9.204 -0.378,-2.856 -2.185,-4.904 -5.433,-6.152 -1.123,-0.431 -2.411,-0.74 -3.867,-0.917 -2.64,-0.319 -5.02,-0.148 -7.144,0.512 -2.12,0.66 -3.959,1.632 -5.503,2.919 -1.547,1.296 -2.855,2.76 -3.93,4.389 -1.074,1.63 -1.953,3.343 -2.639,5.131 l -3.746,-0.464 -3.327,8.671 3.734,0.493 c -0.5,1.3 -0.897,2.646 -1.205,4.044 -0.308,1.399 -0.386,2.836 -0.241,4.314 0.144,1.479 0.661,2.847 1.547,4.093 0.886,1.247 2.209,2.213 3.988,2.895 1.152,0.443 2.456,0.756 3.906,0.932 2.713,0.346 5.16,0.176 7.325,-0.519 2.172,-0.69 4.017,-1.703 5.55,-3.045 1.529,-1.338 2.803,-2.806 3.818,-4.406 1.01,-1.596 1.843,-3.259 2.51,-4.995 l 4.754,0.614 3.34,-8.699 z m -11.805,-0.812 -13.579,-1.663 c 1.012,-2.637 2.427,-4.296 4.257,-4.975 1.819,-0.682 3.508,-0.932 5.058,-0.752 0.881,0.134 1.547,0.297 2.004,0.474 1.168,0.448 2.028,1.209 2.582,2.303 0.549,1.084 0.441,2.626 -0.322,4.613 z m -16.437,5.781 13.58,1.663 c -0.575,1.498 -1.571,2.922 -2.979,4.271 -1.415,1.346 -3.517,1.835 -6.325,1.47 -0.827,-0.123 -1.547,-0.297 -2.153,-0.53 -1.698,-0.651 -2.599,-1.642 -2.706,-2.971 -0.098,-1.334 0.096,-2.632 0.583,-3.903"
         id="path3005"
         style="fill:white;fill-opacity:1;fill-rule:nonzero;stroke:none" /><path
         d="m 129.013,329.815 c -1.409,0.185 -2.64,0.807 -3.704,1.865 -1.062,1.065 -1.678,2.24 -1.836,3.527 -0.132,1.085 0.104,2.029 0.705,2.829 0.604,0.799 1.44,1.26 2.516,1.393 0.345,0.041 0.727,0.041 1.138,0.004 0.884,-0.116 1.736,-0.441 2.559,-0.977 0.823,-0.537 1.494,-1.188 2.026,-1.952 0.533,-0.771 0.848,-1.592 0.955,-2.464 0.135,-1.108 -0.106,-2.053 -0.726,-2.847 -0.612,-0.792 -1.448,-1.253 -2.492,-1.381 -0.345,-0.042 -0.729,-0.042 -1.141,0.003"
         id="path3007"
         style="fill:white;fill-opacity:1;fill-rule:nonzero;stroke:none" /><path
         d="m 130.331,360.385 -31.7533,12.842 1.2965,9.228 13.3208,-5.427 -11.927,15.345 1.519,10.809 13.606,-18.743 18.192,6.222 -1.618,-11.522 -15.008,-4.026 13.668,-5.5 -1.296,-9.228"
         id="path3009"
         style="fill:white;fill-opacity:1;fill-rule:nonzero;stroke:none" /><path
         d="m 136.937,412.759 c -1.142,0.846 -1.919,1.987 -2.335,3.427 -0.414,1.447 -0.382,2.773 0.104,3.976 0.409,1.012 1.074,1.724 1.988,2.131 0.915,0.406 1.87,0.405 2.875,-0.001 0.323,-0.13 0.658,-0.317 0.998,-0.548 0.717,-0.529 1.306,-1.226 1.765,-2.096 0.459,-0.867 0.73,-1.762 0.824,-2.688 0.093,-0.933 -0.03,-1.804 -0.358,-2.619 -0.419,-1.034 -1.089,-1.743 -2.016,-2.138 -0.919,-0.396 -1.873,-0.394 -2.849,0.001 -0.323,0.13 -0.657,0.316 -0.996,0.555"
         id="path3011"
         style="fill:white;fill-opacity:1;fill-rule:nonzero;stroke:none" /><path
         d="m 130.86,465.442 14.395,19.815 16.719,-19.961 2.343,3.226 9.694,-11.542 -4.686,-6.45 -4.416,5.241 -11.266,-15.505 4.401,-5.262 -4.686,-6.449 -9.694,11.54 c 0.493,0.678 0.838,1.435 1.043,2.283 0.202,0.841 0.275,1.805 0.212,2.876 -0.092,2.054 -0.89,4.118 -2.407,6.189 l -2.049,2.495 -9.603,11.504 z m 10.305,0.62 5.203,-6.244 c 1.049,-1.261 1.893,-2.402 2.541,-3.42 0.637,-1.021 1.118,-2.094 1.425,-3.218 0.309,-1.124 0.382,-2.33 0.211,-3.613 l 5.966,8.21 -11.45,13.647 -3.896,-5.362"
         id="path3013"
         style="fill:white;fill-opacity:1;fill-rule:nonzero;stroke:none" /><path
         d="m 166.8,506.489 7.089,5.538 8.345,-18.777 1.789,26.695 7.175,5.606 13.908,-31.306 -7.068,-5.522 -8.346,18.777 -1.629,-26.57 -7.342,-5.737 -13.921,31.296"
         id="path3015"
         style="fill:white;fill-opacity:1;fill-rule:nonzero;stroke:none" /><path
         d="m 222.223,505.916 -2.376,34.17 8.863,2.88 0.851,-12.3 10.736,3.488 -0.852,12.3 8.862,2.878 2.355,-34.175 -8.839,-2.873 -0.957,13.671 -10.736,-3.488 0.956,-13.672 -8.863,-2.879"
         id="path3017"
         style="fill:white;fill-opacity:1;fill-rule:nonzero;stroke:none" /><path
         d="m 266.605,519.718 17.766,34.555 11.283,0.789 5.767,-32.909 -9.942,-0.695 -0.772,5.711 -11.285,-0.789 -2.858,-5.966 -9.959,-0.696 z m 22,27.183 -5.991,-12.979 7.583,0.53 -1.592,12.449"
         id="path3019"
         style="fill:white;fill-opacity:1;fill-rule:nonzero;stroke:none" /><path
         d="m 316.652,522.353 21.314,28.692 8.979,-2.406 -4.514,-19.78 15.791,16.759 9.001,-2.412 -11.955,-31.201 -8.618,2.31 7.229,18.028 -15.024,-15.941 -5.775,1.549 4.211,18.836 -11.997,-16.75 -8.642,2.316"
         id="path3021"
         style="fill:white;fill-opacity:1;fill-rule:nonzero;stroke:none" /><path
         d="m 384.912,495.614 c -1.992,1.245 -3.562,2.6 -4.709,4.063 -0.595,0.736 -1.084,1.488 -1.457,2.253 -0.382,0.761 -0.675,1.56 -0.888,2.384 -0.389,1.603 -0.42,3.208 -0.103,4.82 0.161,0.768 0.414,1.561 0.745,2.371 0.326,0.822 0.724,1.609 1.197,2.366 0.859,1.376 1.898,2.631 3.101,3.782 1.82,1.735 3.804,3.146 5.959,4.223 2.164,1.073 4.493,1.801 7.002,2.173 2.508,0.372 5.063,0.296 7.665,-0.229 2.594,-0.52 5.115,-1.543 7.55,-3.066 1.98,-1.236 3.564,-2.61 4.755,-4.11 1.197,-1.503 1.982,-3.038 2.347,-4.619 0.376,-1.578 0.392,-3.164 0.055,-4.763 -0.327,-1.596 -0.972,-3.152 -1.924,-4.676 -0.859,-1.375 -1.905,-2.66 -3.141,-3.847 -1.711,-1.664 -3.696,-3.064 -5.945,-4.185 -2.254,-1.129 -4.609,-1.868 -7.069,-2.235 -2.461,-0.374 -4.988,-0.296 -7.582,0.224 -2.589,0.517 -5.109,1.541 -7.558,3.071 z m 5.909,5.71 c 1.786,-1.114 3.981,-1.554 6.593,-1.331 2.613,0.225 5.114,1.497 7.514,3.832 0.449,0.446 0.838,0.875 1.181,1.276 0.348,0.408 0.645,0.808 0.902,1.219 0.775,1.24 1.155,2.431 1.145,3.565 -0.009,1.134 -0.311,2.144 -0.905,3.028 -0.596,0.885 -1.328,1.594 -2.193,2.134 -1.073,0.672 -2.399,1.117 -3.959,1.337 -1.568,0.224 -3.226,0.048 -4.997,-0.534 -1.765,-0.584 -3.489,-1.672 -5.187,-3.269 -0.868,-0.867 -1.543,-1.695 -2.034,-2.48 -0.784,-1.253 -1.173,-2.457 -1.161,-3.602 0.012,-1.146 0.321,-2.16 0.922,-3.048 0.602,-0.888 1.334,-1.598 2.179,-2.127"
         id="path3023"
         style="fill:white;fill-opacity:1;fill-rule:nonzero;stroke:none" /><path
         d="m 446.068,430.555 25.856,5.084 -2.136,4.599 7.758,1.444 5.781,-12.395 -33.626,-6.523 -3.633,7.791"
         id="path3025"
         style="fill:white;fill-opacity:1;fill-rule:nonzero;stroke:none" /><path
         d="m 461.827,382.92 -1.367,9.729 13.055,-9.285 c -0.399,0.792 -0.665,1.712 -0.813,2.77 -0.227,1.621 -0.114,3.035 0.355,4.235 0.462,1.208 1.218,2.192 2.286,2.949 1.06,0.757 2.341,1.24 3.846,1.453 1.011,0.142 2.112,0.144 3.32,0.018 2.279,-0.239 4.432,-0.959 6.457,-2.168 2.029,-1.209 3.72,-2.832 5.088,-4.892 1.367,-2.053 2.234,-4.408 2.606,-7.056 0.443,-3.148 0.02,-5.708 -1.261,-7.685 -1.28,-1.978 -3.248,-3.148 -5.896,-3.521 -1.098,-0.154 -2.244,-0.172 -3.426,-0.058 -2.175,0.238 -4.186,0.737 -6.026,1.494 -1.848,0.754 -3.791,1.855 -5.842,3.316 l -12.382,8.701 z m 27.691,-1.565 c -0.129,0.917 -0.471,1.755 -1.018,2.518 -0.552,0.753 -1.245,1.366 -2.077,1.825 -0.823,0.458 -1.718,0.74 -2.667,0.847 -0.503,0.05 -0.99,0.044 -1.451,-0.02 -1.003,-0.141 -1.789,-0.571 -2.351,-1.289 -0.562,-0.718 -0.765,-1.666 -0.601,-2.825 0.202,-1.442 0.848,-2.621 1.933,-3.531 1.089,-0.917 2.346,-1.459 3.775,-1.618 0.251,-0.019 0.492,-0.034 0.707,-0.037 0.217,0 0.478,0.02 0.767,0.061 1.026,0.144 1.813,0.567 2.378,1.269 0.564,0.702 0.767,1.641 0.605,2.8"
         id="path3027"
         style="fill:white;fill-opacity:1;fill-rule:nonzero;stroke:none" /><path
         d="m 468.736,324.043 -7.051,2.691 3.119,25.392 13.751,-19.573 c 0.472,-0.694 0.956,-1.369 1.433,-2.024 0.406,-0.529 0.783,-1.03 1.148,-1.49 0.624,-0.76 1.217,-1.383 1.78,-1.859 0.477,-0.402 1.056,-0.744 1.739,-1.026 0.452,-0.151 0.863,-0.249 1.224,-0.293 0.91,-0.112 1.674,0.073 2.313,0.536 0.631,0.464 1.006,1.183 1.124,2.149 0.051,0.416 0,0.973 -0.146,1.667 -0.146,0.688 -0.584,1.46 -1.311,2.305 -0.733,0.847 -1.893,1.588 -3.471,2.236 l 1.011,8.235 c 3.154,-1.319 5.842,-3.443 8.065,-6.36 2.224,-2.92 3.07,-6.554 2.535,-10.912 -0.388,-3.156 -1.428,-5.46 -3.112,-6.901 -1.691,-1.443 -3.73,-2.021 -6.117,-1.729 -0.88,0.108 -1.837,0.361 -2.873,0.751 -1.577,0.585 -3.031,1.473 -4.343,2.669 -1.318,1.198 -2.665,2.766 -4.043,4.713 -1.432,2.033 -3.29,4.876 -5.584,8.528 l -1.191,-9.705"
         id="path3029"
         style="fill:white;fill-opacity:1;fill-rule:nonzero;stroke:none" /><path
         d="m 456.462,305.088 17.113,-26.804 4.859,12.659 6.453,-4.535 -9.43,-24.563 -22.568,33.938 3.573,9.305"
         id="path3031"
         style="fill:white;fill-opacity:1;fill-rule:nonzero;stroke:none" /><path
         d="m 194.066,186.918 -5.565,-2.428 -6.473,14.837 c -0.244,0.559 -0.591,1.419 -1.039,2.584 -0.45,1.162 -0.802,2.036 -1.056,2.619 l -0.02,-0.053 2.286,-22.736 -4.053,-1.769 -15.138,17.304 -0.022,-0.053 c 0.255,-0.582 0.645,-1.425 1.176,-2.524 0.599,-1.156 1.019,-2 1.252,-2.535 l 6.504,-14.909 -5.674,-2.475 -11.451,26.245 8.07,3.521 13.832,-15.617 -2.077,20.746 7.996,3.489 11.452,-26.246"
         id="path3033"
         style="fill:#008dd0;fill-opacity:1;fill-rule:nonzero;stroke:none" /><path
         d="m 250.897,201.512 -6.334,-1.13 -3.106,17.424 -8.926,-19.568 -5.422,-0.967 -5.025,28.19 6.489,1.157 3.079,-17.266 8.914,19.405 5.305,0.945 5.026,-28.19"
         id="path3035"
         style="fill:#008dd0;fill-opacity:1;fill-rule:nonzero;stroke:none" /><path
         d="m 312.501,204.931 -6.594,0 0,11.733 -10.05,0 0,-11.733 -6.553,0 0,28.635 6.553,0 0,-11.096 10.05,0 0,11.096 6.594,0 0,-28.635"
         id="path3037"
         style="fill:#008dd0;fill-opacity:1;fill-rule:nonzero;stroke:none" /><path
         d="m 312.501,204.931 -6.594,0 0,11.733 -10.05,0 0,-11.733 -6.553,0 0,28.635 6.553,0 0,-11.096 10.05,0 0,11.096 6.594,0 0,-28.635"
         id="path3039"
         style="fill:#008dd0;fill-opacity:1;fill-rule:nonzero;stroke:none" /><path
         d="m 378.579,204.721 c -1.769,-2.833 -4.048,-4.885 -6.838,-6.156 -2.886,-1.329 -5.936,-1.63 -9.151,-0.9 -4.155,0.943 -7.364,3.153 -9.626,6.63 -2.262,3.476 -2.926,7.27 -1.993,11.381 0.915,4.035 3.119,7.117 6.612,9.246 3.492,2.13 7.278,2.732 11.355,1.807 3.372,-0.765 6.086,-2.34 8.142,-4.724 2.057,-2.383 3.192,-5.283 3.405,-8.703 l -6.86,1.557 c -0.878,3.407 -2.87,5.463 -5.98,6.169 -2.405,0.545 -4.569,0.154 -6.492,-1.178 -1.924,-1.33 -3.158,-3.198 -3.705,-5.603 -0.539,-2.379 -0.228,-4.637 0.936,-6.778 1.164,-2.14 2.935,-3.48 5.312,-4.02 3.164,-0.718 5.824,0.228 7.983,2.839 l 6.9,-1.567"
         id="path3041"
         style="fill:#008dd0;fill-opacity:1;fill-rule:nonzero;stroke:none" /><path
         d="m 428.863,174.016 -7.083,3.266 -2.383,15.377 -5.431,-11.774 -5.986,2.761 11.992,26.003 5.987,-2.76 -5.547,-12.027 13.688,8.272 6.425,-2.964 -15.125,-8.703 3.463,-17.451"
         id="path3043"
         style="fill:#008dd0;fill-opacity:1;fill-rule:nonzero;stroke:none" /><path
         d="m 297.998,691.752 -10.173,-32.614 -33.552,0.065 27.182,-20.358 -10.344,-32.739 26.887,20.301 26.884,-20.301 -10.343,32.739 27.183,20.358 -33.552,-0.065 -10.172,32.614 z"
         id="path3045"
         style="fill:none;stroke:#231f20;stroke-width:0.21600001;stroke-linecap:butt;stroke-linejoin:miter;stroke-miterlimit:22.92560005;stroke-opacity:1;stroke-dasharray:none" /><path
         d="m 297.998,704.409 12.942,-41.498 42.13,0.084 -34.132,-25.565 13.096,-41.446 -34.036,25.7 -34.037,-25.7 13.095,41.446 -34.132,25.565 42.131,-0.084 12.943,41.498"
         id="path3047"
         style="fill:#008dd0;fill-opacity:1;fill-rule:evenodd;stroke:none" /><path
         d="m 297.998,691.752 -10.173,-32.614 -33.552,0.065 27.182,-20.358 -10.344,-32.739 26.887,20.301 26.884,-20.301 -10.343,32.739 27.183,20.358 -33.552,-0.065 -10.172,32.614"
         id="path3049"
         style="fill:#fbda16;fill-opacity:1;fill-rule:evenodd;stroke:none" /><path
         d="m 446.479,474.721 c 1.759,-3.958 -0.207,-8.185 -4.389,-9.44 -4.182,-1.254 -9,0.938 -10.759,4.898 -1.759,3.957 0.207,8.184 4.39,9.439 4.181,1.254 8.999,-0.938 10.758,-4.897"
         id="path3051"
         style="fill:white;fill-opacity:1;fill-rule:evenodd;stroke:none" /></g></g></svg>