<svg xmlns="http://www.w3.org/2000/svg" xml:space="preserve" viewBox="-0.11 -0.11 307.53 374.42"><metadata xmlns:fl="https://football-logos.cc/sweden/djurgarden">dl1_66842f52f79af341927232c85fb5d69c01af647d66a4b50d32847226ef67c59d</metadata><!-- Source: https://football-logos.cc --><path d="m301.9 28.4-1.4-6-6 1.3C220.1 39.6 157.5 2.3 156.8 2l-3.3-2-3.2 2c-.6.4-63.2 37.8-137.6 22.1l-6-1.3-1.4 6C5 30-1.2 57.6.2 103.3 4.6 246.6 97 339.8 150.8 372.2l3.2 2 3.2-2c53.8-32.6 145.8-126 149.9-269.3 1.4-45.7-4.9-73.3-5.2-74.5" style="fill:#cfb571" data-source="https://football-logos.cc"></path><path d="M211.7 35.5c-29.1-6.2-50.2-16.7-58.1-21-13.9 7.7-69.6 34.9-137.2 23-1.7 10.3-4.7 33.4-3.7 65.4 1.2 37.3 8.5 71 19.6 101z" style="fill:#feeb0a"></path><path d="M154 359.5c51.3-32.6 134.7-119.7 140.4-252L88.6 300.7c22.5 26.9 46.2 46.6 65.4 58.8" style="fill:#0469b0" data-source="https://football-logos.cc"></path><path d="M108 207.5c7.3 7.8 5.1 16.2-.1 21l-.9.8L86.1 207l1-.9c5.5-5.1 14.2-5.7 20.9 1.4M294.8 95.3 83.1 294c-17.9-22.6-34.7-49.8-47.4-81.3L222.3 37.5c20.2 3.3 43.6 4.2 68.6-.3 1.5 9.5 4.2 29.9 3.9 58.1M120.6 195.6c-11.8-12.5-30.4-13.5-42.8-1.8l-14.9 14 42 44.6 14.9-14c12.4-11.6 12.6-30.2.8-42.8m36.3-2.6c-3.5-3.8-9.4-3.9-13.2-.4s-3.9 9.4-.4 13.2 9.4 3.9 13.2.4 4-9.4.4-13.2m31.8-19.3L146.8 129l-12.9 12.1 41.9 44.7zm22.1-31.3c-3.5-3.8-9.4-3.9-13.2-.4s-3.9 9.4-.4 13.2 9.4 3.9 13.2.4 3.9-9.4.4-13.2m18.2-33.8 13.6-12.8-10.7-11.4-13.6 12.8-6.9-7.3 13.9-13-10.8-11.5-26.6 25 42 44.6 12.8-12zm39.3-20.1c-3.5-3.8-9.4-3.9-13.2-.4s-3.9 9.4-.4 13.2 9.4 3.9 13.2.4c3.8-3.6 4-9.5.4-13.2" style="fill:#e12027" data-source="https://football-logos.cc"></path><!-- source: https://football-logos.cc --></svg>