<svg xmlns="http://www.w3.org/2000/svg" viewBox="0 0.62 1492 2106.38"><metadata xmlns:fl="https://football-logos.cc/venezuela/estudiantes-merida">dl1_ad4a4929ba4df39e322408fe255b0d5ae21e9e159ff9d0212aaad73a5fe9955d</metadata><!-- Source: https://football-logos.cc --><path fill="#ddbb5e" fill-rule="evenodd" d="M547.477 114.69h120.134a.32.32-67.559 0 1 .18.585l-96.084 65.407a.32.32 68.167 0 0-.115.39l41.141 97.081a.32.32-48.916 0 1-.465.395l-95.219-59.822a.32.32 47.904 0 0-.339-.001l-96.865 59.79a.32.32-57.852 0 1-.468-.382l35.441-97.008a.32.32 44.291 0 0-.111-.367l-88.744-65.481a.32.32-70.693 0 1 .19-.577h117.735a.32.32-5.77 0 0 .308-.232L516.561.852a.32.32 85.111 0 1 .617.006l29.989 113.594a.32.32 78.223 0 0 .31.238M985.017 2.515a.197.197-9.074 0 1 .379 0l29.971 113.493a.774.773-7.23 0 0 .748.579l119.51-.002a.329.326-61.934 0 1 .179.599l-95.693 65.242a.536.535 61.149 0 0-.189.659l40.987 96.778a.309.308 4.737 0 1-.45.379l-95.075-59.758a.396.39-43.148 0 0-.409-.01l-96.761 59.71a.294.293-5.724 0 1-.429-.35l35.383-96.786a.531.523-62.166 0 0-.179-.599l-88.694-65.47a.233.233-75.906 0 1 .14-.419l117.273.017a1.042 1.04-81.8 0 0 .998-.749z" data-source="https://football-logos.cc"></path><path fill="#041760" fill-rule="evenodd" d="M1492 485.76v491.38c-2.51 119.66-22.17 236.94-55.49 353.61q-31.2 109.21-79.78 215.45-40.74 89.09-94.44 170.34-57.69 87.3-132.79 158.69c-99.31 94.42-218.86 169.09-346.41 218.86q-13.73 5.36-36.6 12.91h-1.13q-37.63-10.1-70.69-22.88c-157.8-61.01-300.54-164.12-404.99-297.8-77.13-98.71-135.66-212.18-178.14-330.84q-57.51-160.66-79.94-331.01-9.86-74.88-11.6-145.1V485.9c15.7-4.79 32.54-10.21 47.09-14.3q74.78-21.03 159.42-39.06 186.5-39.74 375.24-53.52c118.62-8.66 237.42-7.83 355.46 2q214.49 17.86 427.36 69.38 46.42 11.23 91.91 24.67 17.78 5.25 35.52 10.69M764.76 2063.13q.64 0 1.37-.27 36.79-13.39 70.82-29.4 66.31-31.18 127.67-71.75 78.74-52.07 145.6-117.73 68.07-66.84 121.68-147.34c56.76-85.24 101.75-177.95 136.7-274.29 39.15-107.91 66.17-219.3 79.4-332.84q4.48-38.44 6.72-84.59 1.17-23.87.94-84.84-.01-2.76 0-406.95a.625.623-81.971 0 0-.45-.6q-53.13-15.63-107.44-28.57c-151-35.99-304.64-59.98-459.25-69.97q-140-9.05-281.33-.05c-153.94 9.79-307.17 33.49-457.65 68.9Q93.39 496.06 36.8 512.5a.693.689-8.552 0 0-.49.66q.06 35.69.01 443.12 0 42.47 2.62 79.26 7.03 98.38 27.88 199.33 17.12 82.92 43.03 163.13 36.02 111.52 88.05 210.12c38.17 72.33 84.68 141.14 139.43 202.28q112.9 126.1 264.57 203.45 42.36 21.61 86.62 37.8 28.71 10.49 50.62 16.14l6.23 1.55a2.61 2.583-46.7 0 0 1.43-.05l18.02-5.91a.078.062 43.148 0 0-.02-.13q-.06-.02-.07-.03a.052.047-29.42 0 1 .03-.09"></path><path fill="#fff" fill-rule="evenodd" d="M764.73 2063.22q.01.01.07.03a.078.062 43.148 0 1 .02.13l-18.02 5.91a2.61 2.583-46.7 0 1-1.43.05l-6.23-1.55q-21.91-5.65-50.62-16.14-44.26-16.19-86.62-37.8-151.67-77.35-264.57-203.45c-54.75-61.14-101.26-129.95-139.43-202.28q-52.03-98.6-88.05-210.12-25.91-80.21-43.03-163.13-20.85-100.95-27.88-199.33-2.62-36.79-2.62-79.26.05-407.43-.01-443.12a.693.689-8.552 0 1 .49-.66q56.59-16.44 112.74-29.66c150.48-35.41 303.71-59.11 457.65-68.9q141.33-9 281.33.05c154.61 9.99 308.25 33.98 459.25 69.97q54.31 12.94 107.44 28.57a.625.623-81.971 0 1 .45.6q-.01 404.19 0 406.95.23 60.97-.94 84.84-2.24 46.15-6.72 84.59c-13.23 113.54-40.25 224.93-79.4 332.84-34.95 96.34-79.94 189.05-136.7 274.29q-53.61 80.5-121.68 147.34-66.86 65.66-145.6 117.73-61.36 40.57-127.67 71.75-34.03 16.01-70.82 29.4-.73.27-1.37.27a.052.047-29.42 0 0-.03.09M892.34 604.44A145.94 145.94 0 0 0 746.4 458.5a145.94 145.94 0 0 0-145.94 145.94A145.94 145.94 0 0 0 746.4 750.38a145.94 145.94 0 0 0 145.94-145.94M212.066 770.163q-.527.133-2.429.119-33.927-.342-92.693-.334a.304.297-89.397 0 0-.296.297l-.258 84.661a.523.523 67.217 0 0 .522.523l23.599.071a.502.495-89.476 0 0 .503-.501l.179-57.54a.403.396-89.923 0 1 .393-.399l28.844.091a.65.643.108 0 1 .646.641l-.153 48.385a.417.417 89.66 0 0 .42.413l21.889.073a.572.566-89.721 0 0 .572-.573l.153-48.372a.474.467-.199 0 1 .476-.472l27.006.082a.636.629.144 0 1 .631.627l-.17 55.936a.495.495 14.676 0 0 .493.497l23.825.079a.29.283-.76 0 0 .283-.283l.253-83.19a.714.714-84.05 0 0-.711-.717l-33.893-.117zM1377.6 793.62a16.21 16.21 0 0 0-16.21-16.21 16.21 16.21 0 0 0-16.21 16.21 16.21 16.21 0 0 0 16.21 16.21 16.21 16.21 0 0 0 16.21-16.21m-492.35 806.93q.57-.29.79-.83c1.11-.67 1.95-1.99 2.59-2.66q34.63-35.83 67.21-74.22 21.3-25.1 42.19-52.37 19.21-25.07 31.17-45.23 16.68-28.11 27.39-51.64 23.64-51.92 39.92-108.11 18.7-64.56 30.42-131.56 15.34-87.68 21.89-177.51c3.18-43.48 5.13-85.39 4.83-128.13a.536.527 5.237 0 0-.44-.52q-137.71-24.62-275.2-35.05-107.07-8.13-212.43-2.85-55.43 2.78-116.37 9.06-103.86 10.7-205.24 28.76a.96.957-4.742 0 0-.79.93q-.93 94.23 7.56 187.12 5.83 63.71 16.87 125.44 8.21 45.86 19.88 90.57c13.9 53.23 32.11 105.57 56.19 154.55q16.31 33.17 33.82 59.47 20.67 31.07 46.89 63.6c55.78 69.18 119.45 132.14 188.08 188.67q17.74 14.61 35.84 27.88a.675.672 44.177 0 0 .81-.01q10.38-8.06 21.75-17.78 59.74-51.08 114.38-107.58m435.23-693.426c-10.074 1.073-19.212-.236-27.987-5.14-12.953-7.244-19.283-20.804-18.903-35.514.24-9.25 4.91-18.85 11.35-25.45a.191.188 39.597 0 0-.03-.29l-20.51-14.53a.521.513 37.848 0 0-.68.08c-14.81 16.94-17.56 37.14-12.646 58.735 7.557 33.206 38.577 52.943 72.308 49.35 33.73-3.592 59.898-29.42 60.291-63.473.255-22.145-6.688-41.313-24.733-54.754a.521.513-50.007 0 0-.682.065l-16.99 18.524a.191.188-51.757 0 0 .032.29c7.686 5.096 14.273 13.497 16.456 22.489 3.47 14.3.138 28.889-10.999 38.698-7.545 6.642-16.202 9.847-26.277 10.92M155.86 951.64l-7.24-.34c-6.1-1.51-9.4-8.95-9.96-14.72q-2.37-24.53 13.96-42.43a.47.469 37.164 0 0-.1-.72l-21.82-13.71a.545.535 35.645 0 0-.71.11c-13.04 15.8-17.75 36.33-16.04 56.66 1.28 15.19 7.79 29.87 21.38 37.51 8.8 4.94 20.56 6.03 30.1 3.78 13.15-3.1 20.68-14.05 24.76-26.33q3.18-9.58 4.81-18.48 1.55-8.39 3.25-13.46c1.39-4.12 3.46-7.88 7.69-9.67a2.652 2.583 31.717 0 1 .9-.2c2.44-.07 4-.48 6.03-.04q7.39 1.59 9.37 9.11c3.85 14.57-.08 28.21-9.04 40.44a.517.517 33.546 0 0 .15.74l21.15 13.29a.689.686-53.22 0 0 .89-.13q1.12-1.28 2.17-3.02c7.75-12.8 10.82-26.85 10.77-41.79-.1-25.75-15.29-47.41-43.35-45.73-14.91.89-24.54 9.73-30.2 23.01-4.62 10.84-6.18 21.65-8.8 32.08-1.35 5.4-4.15 12.49-10.12 14.04m1222.65 8.56a16.2 16.2 0 0 0-16.2-16.2 16.2 16.2 0 0 0-16.2 16.2 16.2 16.2 0 0 0 16.2 16.2 16.2 16.2 0 0 0 16.2-16.2m-12.882 57.919a.38.38-50.645 0 0-.347-.411l-51.642-4.406a.38.38 48.374 0 1-.347-.411l3.766-44.272a.38.38 81.158 0 0-.346-.411l-22.193-1.896a.38.38 7.185 0 0-.411.347l-3.776 44.292a.38.38 20.139 0 1-.411.347l-29.012-2.476a.38.38 69.102 0 1-.347-.411l4.556-53.462a.38.38-25.908 0 0-.347-.411l-23.792-2.026a.38.38-83.983 0 0-.411.347l-6.856 80.512a.38.38 77.073 0 0 .347.411l128.912 10.976a.38.38-85.904 0 0 .411-.347zm-1236.009 44.523q.941 6.419 1.926 13.048a.272.268 81.702 0 0 .305.23l104.237-15.263a.665.657 81.368 0 1 .753.561l5.936 40.544a.572.565-8.201 0 0 .65.481l22.521-3.293a.37.363 81.747 0 0 .302-.413q-5.008-34.724-7.945-54.759-2.936-20.033-8.104-54.733a.37.363 81.575 0 0-.408-.309l-22.518 3.308a.572.565-8.477 0 0-.486.648l5.95 40.542a.665.657 81.954 0 1-.561.753l-104.232 15.295a.272.268 81.62 0 0-.225.308q.958 6.632 1.899 13.052m1082.007 78.883q-.053.318.176.477 51.678 35.858 119.878 83.078a.272.266 22.329 0 0 .42-.17l4.67-28.34a.851.837 20.836 0 0-.39-.85l-17.68-11.14a.722.714 21.429 0 1-.325-.733q.052-.308 3.968-24.149l3.965-24.141a.722.714-2.771 0 1 .542-.591l20.315-4.898a.851.837-2.178 0 0 .642-.681l4.641-28.344a.272.266-3.672 0 0-.343-.296q-79.722 22.92-140.156 40.361-.267.077-.323.417m-1062.61 47.124c2.577 15.129 9.71 30.006 24.105 37.323q8.159 4.148 15.639 4.588 9.17.54 13.23-.11 8.68-1.39 85.38-14.49a.424.414-9.573 0 0 .35-.48l-3.99-25.69a.681.679-9.599 0 0-.79-.56q-33.57 5.85-81.94 13.97c-8.75 1.47-18.95-1.09-24.117-8.864q-2.497-3.759-3.532-9.833t.077-10.448c2.301-9.046 11.078-14.839 19.821-16.35q48.33-8.355 81.943-13.951a.681.679-9.739 0 0 .56-.79l-4.742-25.562a.424.414-9.765 0 0-.489-.337q-76.711 13.037-85.362 14.6-4.046.731-12.52 4.277-6.912 2.892-13.237 9.508c-11.16 11.671-12.964 28.07-10.386 43.199M1175.39 1301.36l123.5 37.49a.534.525 16.542 0 0 .66-.35q4.73-15.18 12.7-41.99c9.47-31.83 1.62-64.47-30.3-79.46-16.68-7.83-36.47-11.29-53.63-5.11q-17.27 6.22-28.3 22.07-7.62 10.94-11.26 22.24-5.14 15.93-13.63 44.63a.386.386-39.019 0 0 .26.48m-1002.387-30.329a.386.386 51.161 0 0-.287.465q6.859 29.161 11.093 45.371 2.997 11.499 9.993 22.863 10.124 16.464 27.03 23.657c16.798 7.148 36.771 4.811 53.883-2.069 32.747-13.171 42.44-45.344 34.779-77.689q-6.446-27.243-10.313-42.68a.535.525-13.298 0 0-.64-.387zm1119.115 97.226a.34.34 4.224 0 0-.195-.439l-120.806-46.466a.34.34-60.771 0 0-.439.195l-9.426 24.506a.34.34 29.459 0 0 .195.439l120.806 46.456a.34.34 8.624 0 0 .439-.195zm-950.113-4.297a.26.26 0 0 0-.336-.15l-121.153 46.021a.26.26 0 0 0-.151.336l9.41 24.773a.26.26 0 0 0 .336.15l121.153-46.021a.26.26 0 0 0 .151-.336zm784.655 91.96q.33.55.55.66 6.32 3.04 12.55 6.27.5.26.94.07 2.74.51 4.65 2.31.38.63 1.15.99 10.32 4.98 20.52 10.18.81.4 1.5.25l23.12 11.38a4.714.184 26.785 0 0 3 1.37c1.63.55 3.51 2.04 5.71 2.64a2.207 2.097 69.075 0 1 .67.32q1.84 1.32 3.54 1.77a2.355 2.171-17.078 0 1 .71.34q2.02 1.49 3.56 1.75a.4.4-21.631 0 1 .15.05l7.62 3.76a1.693 1.669-7.534 0 1 .49.37q.44.5.68.54 1.89.35 3.47 1.64a.704.56-6.497 0 0 .16.1l10.12 4.94a.59.59-57.671 0 0 .79-.27l11.37-23.04a.604.604 83.198 0 0-.27-.81l-40.26-19.87a.367.367-8.48 0 1-.17-.49l7.49-15.19a.835.832 11.034 0 1 .67-.45l52.41-4.31a.682.678 10.666 0 0 .56-.38l13.44-27.22a.41.409-79.228 0 0-.4-.59l-57.1 4.7a.573.571-3.341 0 1-.62-.55q-.74-28.24-26.45-38.84-9.58-3.95-19.5-3.05-9.88.9-18.43 6.93-10.65 7.5-16.52 19.12-3.43 6.79-22.93 46.44a.719.718-66.515 0 0 .39.99l3.9 1.48a1.186.681 60.128 0 1 .12.07q1.55 1.18 3.61 1.83a1.686 1.441 63.512 0 1 .33.14zm-72.91-7.82q.38-.41 3.73-4.95.13-.18.18-.54.04-.28-.03-.57a.545.542 51.668 0 0-1-.12l-3.23 5.94a.215.212-10.13 0 0 .35.24m-663.841 7.121q-.163-.303-.441-.289-62.895 3.264-145.835 7.652a.272.266-15.397 0 0-.229.392l13.665 25.305a.852.838-16.891 0 0 .829.434l20.827-2.01a.723.715-16.297 0 1 .706.382l11.649 21.548 11.654 21.555a.723.715-40.498 0 1-.067.8l-13.087 16.325a.852.838-39.904 0 0-.091.932l13.69 25.291a.272.266-41.398 0 0 .453.024q49.092-66.994 86.267-117.832.164-.225.01-.509m687.141 83.539q2.05 1.17 2.83 1.81.89.73 1.51 1.17 7.07 5.04 18.34 13.01 16.67 11.79 39.65 28.11 13.68 9.72 13.97 9.81.34.12 3.65 2.84 1.95 1.6 4.07 2.58a1.693 1.558 73.947 0 1 .23.14l10.38 7.69a.624.622-53.941 0 0 .88-.14l48.81-68.93a.49.49-59.937 0 0-.12-.68l-19.22-13.62a.444.438-53.92 0 0-.61.1l-10.58 14.33a2.614 2.313 77.039 0 0-.31.57q-.04.34-.81 1.42-9.81 13.77-21.54 30.41a.644.638 35.283 0 1-.9.15l-23.47-16.61a.561.558-54.708 0 1-.13-.77l28.04-39.59a.4.394-54.54 0 0-.09-.56l-17.51-12.41a1.027 1.027 34.064 0 0-1.45.28q-2.77 4.28-5.32 7.53-1.1 1.4-1.89 2.69-1.01 1.67-1.82 2.79-9 12.6-11.75 16.24-.86 1.15-1.77 2.97a3.332 3.206 80.764 0 1-.56.81q-3.08 3.33-4.3 5.94a.65.643-59.827 0 1-.96.26l-21.83-15.46a.896.896 63.219 0 1-.21-1.25l32.19-45.46a.566.56 35.84 0 0-.13-.78l-19.08-13.51a.674.674 45 0 0-.94.16l-17.37 24.52a.297.297-3.924 0 1-.54-.16l-.92-27.34a.304.301-28.475 0 0-.55-.16l-17.01 24.02a1.542 1.528 58.203 0 0-.26 1.13l3.7 23.86a1.315 1.308 58.182 0 1-.22.95l-14.66 20.7a.629.626 33.214 0 0 .19.9q4.03 2.4 8.86 6.61.15.13 1.53.93m-708.2 40.61q.83-.3.8-.66l12.62-10.3a.215.211-17.303 0 1 .35.18l-9.08 106.57a.295.293-17.26 0 0 .48.25L476.01 1592a.57.57 47.772 0 0 .08-.8l-16.48-20.16a.533.525-39.171 0 0-.74-.07l-55.16 45.12a.266.266-16.848 0 1-.43-.23l9.05-106.14a.423.422 72.475 0 0-.69-.36l-101.84 83.29a.469.462 51.432 0 0-.07.66l16.62 20.31a.398.39-38.194 0 0 .55.06zm716.141 62.876c-.02.026-.141.122-.196.119q-39.925-1.515-111.635-4.285a.48.479-25.215 0 0-.31.86l104.35 80.08a.434.428 37.135 0 0 .61-.08l16.01-20.85a.314.314-49.918 0 0-.06-.44l-42.51-32.62a.256.256 65.315 0 1 .17-.46q35.65 2.25 65.83 4.2 1.314.085 1.726-.453.413-.537-.009-1.784-9.701-28.645-21.109-62.496a.256.256 9.672 0 1 .4-.283l42.518 32.61a.314.314-8.871 0 0 .441-.057l15.991-20.864a.434.428 37.853 0 0-.081-.61l-104.376-80.045a.48.479-79.797 0 0-.751.522q21.251 68.545 33.056 106.715c.017.053-.044.194-.065.221m-666.634 98.515q4.349 4.833 8.851 9.816a.272.269 48.061 0 0 .382.023l78.49-70.6a.666.659 47.728 0 1 .94.05l27.46 30.53a.573.566-41.842 0 0 .81.04l16.96-15.25a.371.364 48.107 0 0 .023-.512q-23.455-26.189-37.027-41.274-13.572-15.083-37.147-41.164a.371.364 47.934 0 0-.511-.031l-16.951 15.261a.573.566-42.117 0 0-.045.809l27.47 30.521a.666.659 48.313 0 1-.049.94l-78.469 70.624a.272.269 47.98 0 0-.017.382q4.481 5.002 8.83 9.835m473.503 41.269q.46.29 1.76 1.68 23.13 24.85 63.63 67.48a.304.297-42.922 0 0 .42.01l61.6-58.15a.523.523 39.704 0 0 .02-.74l-16.21-17.17a.502.495-43 0 0-.71-.02l-41.87 39.52a.403.396-43.447 0 1-.56-.01l-19.81-20.99a.651.643 46.584 0 1 .02-.91l35.21-33.23a.417.417 43.279 0 0 .01-.59l-15.03-15.93a.573.566-43.245 0 0-.81-.02l-35.2 33.22a.474.467 46.276 0 1-.67-.02l-18.55-19.65a.637.629 46.62 0 1 .02-.89l40.7-38.42a.495.495 47.833 0 0 .02-.7l-16.36-17.34a.29.283 45.716 0 0-.4-.01l-60.53 57.14a.714.714 43.84 0 0-.03 1.01l23.27 24.67zm-321.34-31.23q.08.48.86 1.31 4.59 4.87 8.98 7.86l30.12 28.42a.424.424-19.812 0 0 .6-.02l16.32-17.36a.474.467 43.724 0 0-.02-.67l-60.67-57.05a.425.418-46.465 0 0-.59.02l-88.48 94.1a.629.615-46.952 0 0 .02.88l61.54 57.86a.502.495 43 0 0 .71-.02l16.16-17.18a.524.517 43.075 0 0-.03-.74L514.35 1809a.68.679 43.246 0 1-.03-.97q9.2-9.71 19.17-20.54a1.172 1.156-37.114 0 1 1.9.25q.41.81 1.19.88a.337.306 66.199 0 1 .18.08l33.04 31.49a.637.637 0 0 0 .9-.02l14.92-15.87a.509.502-47.034 0 0-.02-.71l-35.05-32.95a.84.84 76.079 0 1-.03-1.19l18.16-19.32a.836.829-44.776 0 1 1.21 0zm202.748 85.364 86.23 96.148a.535.525 47.768 0 0 .746.043q11.922-10.536 32.651-29.342c24.615-22.324 34.831-54.326 15.294-83.712-10.211-15.354-25.351-28.581-43.24-32.195q-18.005-3.637-35.666 4.204-12.195 5.408-21.172 13.189-12.663 10.965-34.816 31.119a.386.386-45.272 0 0-.027.546M641.52 1904.56l-8.58.07q-5.63-1.49-10.62-4.92-17.38-11.97-22.34-32.55a.361.356 71.603 0 0-.49-.25l-23.72 10.05a.588.587-19.136 0 0-.34.7c5.64 19.86 20.49 35.9 38.51 45.52q12.41 6.62 22.78 7.08 12.77.57 22.95-5.93c7.48-4.78 13.47-12.59 16.72-21.14 3.79-9.98 1.48-19.85-3.74-28.64q-5.02-8.43-12.85-16.59-5.8-6.04-10.97-11.62c-1.99-2.15-3.48-4.84-5.28-7.47a2.455 2.416-67.371 0 1-.37-.92q-.9-5.18.27-7.35 6.61-12.16 19.61-6.18 7.79 3.59 13.88 10.21 6.79 7.4 10.85 19a.53.53 68.29 0 0 .72.31l23.07-10.4a.56.555-24.23 0 0 .28-.73q-1.08-2.56-2.17-4.9-1.6-3.43-2.67-5.16-12.32-19.87-33.52-30.52-9.67-4.86-20.3-4.84-19.56.05-31.29 16.51-12.57 17.66-2.47 36.99c5.58 10.7 12.55 17.4 22.41 27.75 3.68 3.86 9.05 11.1 7.91 16.59q-1.35 6.55-8.24 9.33"></path><path fill-rule="evenodd" d="M892.34 604.44A145.94 145.94 0 0 1 746.4 750.38a145.94 145.94 0 0 1-145.94-145.94A145.94 145.94 0 0 1 746.4 458.5a145.94 145.94 0 0 1 145.94 145.94M675.82 494.99q-.53.61-.8.79-12.86 8.48-23.6 19.93a1.053 1.035 62.546 0 0-.27.88l7.74 49.79a1.14 1.14 13.195 0 1-.33.99L616.93 609a1.096 1.095-23.716 0 0-.32.82q.76 20.27 7.72 39.45 1.36 3.75 2.4 5.37a.964.959-60.794 0 1 .14.5q-.02.44.07.66 2.71 6.41 8.18 15.86a.813.792 78.587 0 0 .6.41l48.96 6.21a1.558 1.542-13.283 0 1 1.08.66l32.84 47.33a.692.685 58.766 0 1-.24 1l-4.52 2.47a.384.384-52.233 0 0 .09.71q30.4 7.98 61.29 1.08a.352.35-35.422 0 0 .11-.64l-5.21-3.28a.48.48 33.536 0 1-.14-.69l33.17-46.85a1.435 1.424 14.654 0 1 1-.58l51.89-5.6a.86.827 11.96 0 0 .61-.38q17.95-28.73 19.66-62.71a.691.69-65.831 0 0-.19-.5l-41.47-43.94a.708.693-61.772 0 1-.18-.62l8.9-47.6a.84.84 22.097 0 0-.2-.72q-19.21-21.24-45.2-32.6a.407.404 89.629 0 0-.53.54l2.58 5.71a.826.821 63.946 0 1-.36 1.06l-52.44 28.55a1.784 1.765 44.695 0 1-1.71 0l-52.42-28.58a.575.573-65.233 0 1-.26-.71l2.4-6.22a.323.321 86.41 0 0-.45-.4l-18.22 9.63a2.634 2.419-81.128 0 0-.74.59"></path><path fill="#fff" fill-rule="evenodd" d="m676.56 494.4 18.22-9.63a.323.321 86.41 0 1 .45.4l-2.4 6.22a.575.573-65.233 0 0 .26.71l52.42 28.58a1.784 1.765 44.695 0 0 1.71 0l52.44-28.55a.826.821 63.946 0 0 .36-1.06l-2.58-5.71a.407.404 89.629 0 1 .53-.54q25.99 11.36 45.2 32.6a.84.84 59.316 0 1 .2.72l-8.9 47.6a.708.693-61.772 0 0 .18.62l41.47 43.94a.691.69-65.831 0 1 .19.5q-1.71 33.98-19.66 62.71a.86.827 11.96 0 1-.61.38l-51.89 5.6a1.435 1.424 14.654 0 0-1 .58l-33.17 46.85a.48.48 33.536 0 0 .14.69l5.21 3.28a.352.35-35.422 0 1-.11.64q-30.89 6.9-61.29-1.08a.384.384-52.233 0 1-.09-.71l4.52-2.47a.692.685 58.766 0 0 .24-1l-32.84-47.33a1.558 1.542-13.283 0 0-1.08-.66l-48.96-6.21a.813.792 78.587 0 1-.6-.41q-5.47-9.45-8.18-15.86-.09-.22-.07-.66a.964.959-60.794 0 0-.14-.5q-1.04-1.62-2.4-5.37-6.96-19.18-7.72-39.45a1.096 1.095-23.716 0 1 .32-.82l41.63-41.63a1.14 1.14-19.161 0 0 .33-.99l-7.74-49.79a1.053 1.035 62.546 0 1 .27-.88q10.74-11.45 23.6-19.93.27-.18.8-.79a2.634 2.419-81.128 0 1 .74-.59m26.267 89.773q-10.193 31.405-10.121 31.626.073.222 26.79 19.62 26.718 19.399 26.951 19.398.233 0 26.938-19.415 26.705-19.416 26.777-19.638t-10.141-31.619-10.402-31.535-33.205-.126-33.206.148-10.381 31.541"></path><path fill-rule="evenodd" d="M746.414 552.484q33.016-.011 33.205.126t10.402 31.535 10.141 31.619-26.777 19.638q-26.705 19.415-26.938 19.415-.233.001-26.951-19.398-26.717-19.398-26.79-19.62-.072-.221 10.121-31.626 10.192-31.404 10.381-31.541t33.206-.148"></path><path fill="#041760" fill-rule="evenodd" d="m212.066 770.163.084-.003 33.893.117a.714.714-59.881 0 1 .711.717l-.253 83.19a.29.283-.76 0 1-.283.283l-23.825-.079a.495.495 37.296 0 1-.493-.497l.17-55.936a.636.629.144 0 0-.631-.627l-27.006-.082a.474.467-.199 0 0-.476.472l-.153 48.372a.572.566-89.721 0 1-.572.573l-21.889-.073a.417.417-87.346 0 1-.42-.413l.153-48.385a.65.643.108 0 0-.646-.641l-28.844-.091a.403.396-89.923 0 0-.393.399l-.179 57.54a.502.495-89.476 0 1-.503.501l-23.599-.071a.523.523-90 0 1-.522-.523l.258-84.661a.304.297-89.397 0 1 .296-.297q58.766-.008 92.693.334 1.902.014 2.429-.119M1377.6 793.62a16.21 16.21 0 0 1-16.21 16.21 16.21 16.21 0 0 1-16.21-16.21 16.21 16.21 0 0 1 16.21-16.21 16.21 16.21 0 0 1 16.21 16.21M886.04 1599.72q-.66.31-.79.83-54.64 56.5-114.38 107.58-11.37 9.72-21.75 17.78a.675.672 44.177 0 1-.81.01q-18.1-13.27-35.84-27.88c-68.63-56.53-132.3-119.49-188.08-188.67q-26.22-32.53-46.89-63.6-17.51-26.3-33.82-59.47c-24.08-48.98-42.29-101.32-56.19-154.55q-11.67-44.71-19.88-90.57-11.04-61.73-16.87-125.44-8.49-92.89-7.56-187.12a.96.957-4.742 0 1 .79-.93q101.38-18.06 205.24-28.76 60.94-6.28 116.37-9.06 105.36-5.28 212.43 2.85 137.49 10.43 275.2 35.05a.536.527 5.237 0 1 .44.52c.3 42.74-1.65 84.65-4.83 128.13q-6.55 89.83-21.89 177.51-11.72 67-30.42 131.56-16.28 56.19-39.92 108.11-10.71 23.53-27.39 51.64-11.96 20.16-31.17 45.23-20.89 27.27-42.19 52.37-32.58 38.39-67.21 74.22c-.64.67-1.48 1.99-2.59 2.66m-483.38-439.46q-.19.32-.05.56.33-.07.05-.56 7.06 35.88 15.69 67.41.34 1.24.51 2.03.39 1.74.47 2.03 7 24.5 8.96 30.82 9.14 29.49 20.33 58.27a.514.513-28.514 0 0 .78.23l12.89-9.45a.555.472-6.716 0 0 .13-.14c.68-1.12 1.64-1.18 2.36-1.7q11.55-8.51 23.82-17.47a.983.915 87.957 0 0 .26-.3q.41-.69 1.26-.79a.85.85-80.395 0 0 .48-.24l1.28-1.37a.85.844-69.674 0 1 .56-.26q.74-.04 1.15-.55a3.762 1.574-67.294 0 1 .7-.69l583.05-427.43a.241.173-54.217 0 1 .12-.04q.35-.03.52-.21.39-.42.46-.47 1.97-1.65 12.09-8.86a.269.266 31.308 0 0-.12-.48q-10.65-1.6-18.87-2.69-70.96-9.47-131.04-16.05-58.72-6.43-106.19-9.9-37.97-2.78-66.57-3.35-33.88-.67-89.21 3.4-34.53 2.55-59.43 4.88-119.89 11.26-244.66 27.08a.546.543-4.096 0 0-.48.55q.28 78.86 7.29 156.23 6.83 75.51 20.83 147.79.22 1.1.58 1.72m553.02-170.85q-.62.24-.89.66l-18.1 13.34q-.6.25-.88.66l-143.16 105.66q-.57.16-.92.62l-37.02 27.36-1.03.57-60.03 44.45q-.75.14-.87.64l-229.76 169.55a1 .991-30.438 0 0-.32 1.21q13.33 29.83 30.06 57.94 13.94 23.41 35.29 51.64 21.32 28.2 39.11 48.9 81.49 94.83 180.49 174.1a.778.775-47.69 0 0 1.02-.05q2.04-1.96 3.96-3.48 2.47-1.94 3.98-3.4 2.81-2.71 5.87-5.1.23-.17 6.21-5.39 13.21-11.54 25.98-23.38 5.06-4.69 10.47-9.79 32.15-30.31 60.64-59.58.66-.67 1.02-1.43a2.134 2.02-8.207 0 1 .57-.72q1.3-1.05 6.41-6.4 56.06-58.73 104.26-122.23 8.91-11.74 15.51-21.7 12.33-18.6 23.33-39.87.89-1.72 1.31-2.79.48-1.26 1.44-2.72 1.57-2.39 8.07-16.46 17.59-38.08 31.05-79.98c21.51-67 35.63-135.47 45.64-205.81q14.75-103.68 18.07-209.57a.257.256-17.746 0 0-.41-.21zM1323.382 934.365c-33.731 3.593-64.751-16.144-72.308-49.35-4.914-21.595-2.164-41.795 12.646-58.735a.521.513 37.848 0 1 .68-.08l20.51 14.53a.191.188 39.597 0 1 .03.29c-6.44 6.6-11.11 16.2-11.35 25.45-.38 14.71 5.95 28.27 18.903 35.514 8.775 4.904 17.913 6.213 27.987 5.14 10.075-1.073 18.732-4.278 26.277-10.92 11.137-9.809 14.469-24.398 10.999-38.698-2.183-8.992-8.77-17.393-16.456-22.489a.191.188-51.757 0 1-.032-.29l16.99-18.524a.521.513-50.007 0 1 .682-.065c18.045 13.441 24.988 32.609 24.733 54.754-.393 34.053-26.561 59.881-60.291 63.473"></path><path fill="#fff" fill-rule="evenodd" d="M402.66 1160.26q-.36-.62-.58-1.72-14-72.28-20.83-147.79-7.01-77.37-7.29-156.23a.546.543-4.096 0 1 .48-.55q124.77-15.82 244.66-27.08 24.9-2.33 59.43-4.88 55.33-4.07 89.21-3.4 28.6.57 66.57 3.35 47.47 3.47 106.19 9.9 60.08 6.58 131.04 16.05 8.22 1.09 18.87 2.69a.269.266 31.308 0 1 .12.48q-10.12 7.21-12.09 8.86-.07.05-.46.47-.17.18-.52.21a.241.173-54.217 0 0-.12.04l-583.05 427.43a3.762 1.574-67.294 0 0-.7.69q-.41.51-1.15.55a.85.844-69.674 0 0-.56.26l-1.28 1.37a.85.85-33.751 0 1-.48.24q-.85.1-1.26.79a.983.915 87.957 0 1-.26.3q-12.27 8.96-23.82 17.47c-.72.52-1.68.58-2.36 1.7a.555.472-6.716 0 1-.13.14l-12.89 9.45a.514.513-28.514 0 1-.78-.23q-11.19-28.78-20.33-58.27-1.96-6.32-8.96-30.82-.08-.29-.47-2.03-.17-.79-.51-2.03-8.63-31.53-15.69-67.41m523.06-278.15q.09.46.67.27l6.56 4.29a.52.516-59.135 0 0 .74-.19l4.88-8.95a.538.535-47.36 0 1 .92-.04l25.68 38.96a.37.37-45 0 0 .51.11l10.98-7.24a.499.491-34.005 0 0 .14-.69l-38.65-58.65a.458.454 42.567 0 0-.78.03l-15.64 28.69a.683.673 31.535 0 0 .22.89zm-52.02 17.86q0-.23.04-.27a.112.108 50.369 0 1 .18.02q1.76 3.37 3.82 5.34a.1.097-29.595 0 1-.05.17l-.22.04a.115.111 62.412 0 0-.05.17q.49.65.86.4 17.03-11.52 23.05-15.4a.412.41 69.581 0 1 .63.29l8.31 62.01a.383.381 69.472 0 0 .59.27l11.8-7.78a.494.48-20.744 0 0 .22-.47l-10.21-76.18a.535.534 69.819 0 0-.82-.38l-40.39 26.63a.907.902-37.137 0 0-.19 1.35q1.67 1.91 2.34 3.8a.048.044 36.626 0 0 .09-.01m-7 53.22q.76-.25.74.31-.12 4.11.54 8.24l.49 18.8a.42.418 72.475 0 0 .65.34l12.18-8.22a.9.891-18.143 0 0 .4-.78q-.08-3.1-.86-34.94-.26-10.65-1.74-14.23c-8.03-19.37-33.7-19.72-43.63-2.09-7.73 13.7 0 30.59 15.1 34.33q6.17 1.53 11.51-.29 3.58-1.23 4.62-1.47m-46.3 10.57 22.62 33.84a.419.413 56.501 0 0 .57.12l10.87-7.17a.496.491 56.782 0 0 .14-.69l-38.61-58.59a.531.53 42.423 0 0-.91.04l-15.64 28.68a.744.742-59.804 0 0 .26.99l10.9 6.85a.61.604-59.722 0 0 .86-.23l4.91-9.01a.412.402 37.29 0 1 .65-.08q.97 1 1.81 2.15.63.88 1.19 2.07.25.51.29.8a.662.555 28.66 0 0 .09.23m-193.86-26.14c-6.6-5.34-15.88 1.27-12.19 8.94 2.98 6.22 11.2 5.88 14.2-.53a.581.572-61.314 0 1 .83-.25l1.37.86a.64.64 43.934 0 1 .02 1.07c-3.9 2.68-4.9 7.88-1.78 11.49 7.45 8.62 20.08-4.35 9.81-11.67a.492.492-90 0 1 0-.8c10.92-7.94-4.73-21.94-11.37-9.3a.592.591 32.909 0 1-.89.19m-111.423 10.624c-7.14 4.618-3.741 15.512 4.71 14.39 6.85-.897 9.089-8.828 3.922-13.682a.582.573 46.818 0 1 .021-.868l1.246-1.036a.642.642-27.934 0 1 1.024.315c1.336 4.548 5.974 7.12 10.383 5.276 10.527-4.405 2.118-20.47-8.051-12.976a.492.492 26.974 0 1-.762-.249c-4.154-12.87-22.358-2.337-12.396 7.924a.593.592-38.959 0 1-.097.906m51.373 127.606q-5.05-17.63-6.52-22.33-5.46-17.41-15.89-37.32-3.8-7.27-8.96-14.31c-1.01-1.38-5.83-7.36-6.85-2.6q-.88 4.09.1 9.68 2.64 15.09 8.94 32.71 4.56 12.76 18.32 45.34-9.75-15.88-18.93-31.96c-9.43-16.51-22.32-32.94-33.99-46.75-4.48-5.29-18.96-22.37-24.76-21.64a2.802 2.202-89.697 0 0-1.97 2.48q-.4 4.49 1.15 8.95 3.16 9.06 8.01 18.46 6.61 12.8 14.53 26.04 3.34 5.58 12.28 19.28-.1.08-.2.17l-8.9-7a.697.48 7.973 0 1-.12-.11q-.47-.61-1.3-.88a2.51 2.382-15.537 0 1-.81-.43q-10.11-7.96-21.06-13.38-1.46-.72-2.48-.93-1.72-.36-2.68-.46a1.469 1.468.163 0 0-1.61 1.6l.23 2.32a.701.671-62.19 0 0 .08.28q3.75 7.07 9.74 13.61 15.46 16.88 32.92 31.78c-13.29-7.36-27.95-16.38-39.9-22.14q-13-6.26-24.45-10.58-3.6-1.36-6.76-2.32c-4.48-1.35-16.36-5.1-19.1-.01-3.81 7.1 21.72 22.28 26.66 25.16q.86.5.97.5c.74 0 1.4.9 2.27 1.38q4.14 2.31 7.36 4.07 3.13 1.71 7.56 3.73 10.15 4.61 20.51 9.34-12.05-1.44-23.69-1.07c-1.78.06-4.19.57-5.57 1.26a1.844 1.84 55.222 0 0-.52 2.9q2.54 2.74 6.61 4.65 7.84 3.67 17.33 6.61 14.45 4.47 28.44 7.31 18.76 3.81 37.56 7.33c6.44.79 10.56 3.06 15.43 5.23 6.15 2.76 10.45 3.48 16.67 2.3q2.13-.4 8.33-3.62 6.04-3.13 12.1-5.31 21.33-3.69 42.11-8.03c6.26-1.31 54.54-12.5 52.91-20.78a1.009 1.003 6.152 0 0-.6-.74q-2.62-1.15-4.76-1.29c-11.97-.78-24.39.99-36.43 2.74l-.36-.41q11.62-5.85 18.94-10.32 18.24-11.14 38.84-26.88 6.75-5.16 12.12-10.36c2.53-2.45 9.7-9.2 3.39-10.92-4.74-1.3-11.79 1.35-16.52 3.29q-11.02 4.52-23.51 11.52-27.79 15.56-54.57 33.28 13.34-11.39 25.63-23.5 7.86-7.75 14.83-16.45 3.78-4.71 5.78-9.74a1.98 1.98-76.491 0 0-1.66-2.71q-2.18-.2-4.92 1.17-10.21 5.14-17.6 10.35-19.2 13.56-35.1 30.81 12.79-18.05 18.76-27.86 11.92-19.56 23.18-45.99 3.88-9.12 5.18-17.09.47-2.93-.41-5.54c-1.83-5.37-7-2.99-10.32-.47q-5.07 3.83-10.09 10.14-12.05 15.16-22.21 32.95-3.82 6.69-12.39 25.44-5.89 12.87-11.94 25.69 9.92-24.01 13.88-35.76 3.88-11.47 6.45-22.33c1.16-4.9 3.26-13.48 1.22-18.01a1.522 1.512 65.097 0 0-2.03-.75c-1.03.5-2.27 1.44-3.17 2.56q-4.54 5.67-8.13 12.13-9.85 17.74-16.44 36.57-1.75 4.97-6.76 22.54 1.24-13.92 2.16-27.9.91-13.79.49-24.03c-.64-15.37-1.9-31.74-5.37-46.9-.69-3.01-4.62-16.72-10.14-10.8-2.69 2.89-4.12 7.46-5.16 11.56q-1.87 7.4-3.11 16.65-2.38 17.77-2.94 39.75-.07 3.01.3 8.07.67 9.21 2 21.61.92 8.6 1.39 17.42m130.83-85.332c-5.663-6.344-15.904-1.306-13.493 6.872 1.942 6.63 10.124 7.62 14.124 1.767a.582.573-52.046 0 1 .86-.113l1.216 1.071a.642.642 53.202 0 1-.153 1.061c-4.288 2.02-6.115 7-3.613 11.072 5.975 9.724 20.553-1.061 11.581-9.955a.492.492 84.043 0 1 .129-.79c12.076-6.088-1.137-22.454-9.74-11.029a.593.592 42.177 0 1-.911.044m-264.982 14.851c-6.505 5.006-2.376 15.219 5.666 13.473 6.519-1.403 8.048-9.209 2.695-13.472a.562.553 42.135 0 1-.049-.836l1.117-1.095a.62.62-32.617 0 1 1.011.222c1.643 4.27 6.308 6.379 10.404 4.257 9.781-5.067.425-19.86-8.768-11.849a.475.475-85.862 0 1-.752-.18c-5.011-12.054-21.695-.486-11.302 8.601a.573.572-43.642 0 1-.022.879"></path><path fill="#041760" fill-rule="evenodd" d="M926.39 882.38q-.62-.33-.67-.27l-3.77-2.52a.683.673 31.535 0 1-.22-.89l15.64-28.69a.458.454 42.567 0 1 .78-.03l38.65 58.65a.499.491-34.005 0 1-.14.69l-10.98 7.24a.37.37-74.921 0 1-.51-.11l-25.68-38.96a.538.535-47.36 0 0-.92.04l-4.88 8.95a.52.516-59.135 0 1-.74.19z"></path><path fill="#fff" fill-rule="evenodd" d="M692.78 1183.37q.12.01.3 0a.576.533-63.93 0 0 .31-.12q.43-.32.26-.52l60.03-44.45q.55.75 1.03-.57l37.02-27.36q.09.33.47.06.56-.4.45-.68l143.16-105.66q.99-.08.88-.66l18.1-13.34q.93.01.89-.66l166.37-122.76a.257.256-17.746 0 1 .41.21q-3.32 105.89-18.07 209.57c-10.01 70.34-24.13 138.81-45.64 205.81q-13.46 41.9-31.05 79.98-6.5 14.07-8.07 16.46-.96 1.46-1.44 2.72-.42 1.07-1.31 2.79-11 21.27-23.33 39.87-6.6 9.96-15.51 21.7-48.2 63.5-104.26 122.23-5.11 5.35-6.41 6.4a2.134 2.02-8.207 0 0-.57.72q-.36.76-1.02 1.43-28.49 29.27-60.64 59.58-5.41 5.1-10.47 9.79-12.77 11.84-25.98 23.38-5.98 5.22-6.21 5.39-3.06 2.39-5.87 5.1-1.51 1.46-3.98 3.4-1.92 1.52-3.96 3.48a.778.775-47.69 0 1-1.02.05q-99-79.27-180.49-174.1-17.79-20.7-39.11-48.9-21.35-28.23-35.29-51.64-16.73-28.11-30.06-57.94a1 .991-30.438 0 1 .32-1.21zm348.96-243.46q-.17.39-.61.71-14.31 10.5-15.12 11.13a.41.4-35.209 0 0-.1.54l68.6 108.89a.295.293-57.286 0 0 .54-.12q7.03-52.38 11.08-104.23a2.056 1.996 33.536 0 0-.24-1.1l-24.11-44.29a.544.536 57.378 0 0-.79-.18l-39.1 28.47a.623.492-88.532 0 0-.15.18m5.97 339.21q3-8.87 6.06-19.12 10.1-33.82 18.14-69.07a1.576 1.536-55.813 0 0-.21-1.18l-118.62-183.28a.603.596 55.202 0 0-.86-.16l-56.69 41.56a.68.68-34.555 0 0-.17.92l151.85 230.39a.282.282 11.794 0 0 .5-.06m-74.41 153.96q22.45-30.72 39.18-65.54a.553.542-49.758 0 0-.04-.55l-182.12-270.16a.55.545 54.932 0 0-.78-.14q-46.81 34.55-49.42 36.45-.21.15-.55.21a.583.546 12.171 0 0-.35.21q-1.22 1.5-3.31 2.54a1.728 1.696 6.886 0 0-.52.4q-1.04 1.23-2.64 1.96a.499.492 60.765 0 0-.2.73l200.08 293.88a.411.409 45.729 0 0 .67.01m-321.55-205.39q-1.75 1.8-3.8 2.86a.471.466-30.281 0 0-.18.67l214.49 331.41a.48.479-39.628 0 0 .75.07q26.39-27.49 51.24-56.24a.712.707-41.111 0 0 .06-.84l-204.22-319.96a.539.532 55.634 0 0-.77-.15l-42.52 30.98a.856.721 89.505 0 0-.24.29q-.5 1-1.44 1.21a1.048 1.019 19.246 0 0-.43.2q-5.52 4.24-10.28 7.72-1.8 1.32-2.31 1.54a.998.957-78.222 0 0-.35.24m-122.18 90.13q-.08.25-.31.42-5.78 4.4-14.29 10.54a.389.386 54.823 0 0-.09.53q159.77 236.15 230.23 340.34.98 1.45 2.41 2.28a.745.739 39.327 0 0 .84-.08q28.03-24.15 54.99-49.77a.467.466 51.682 0 0 .07-.6l-226.41-338a.364.361-34.938 0 0-.52-.09l-45.87 33.85a1.296 1.179-68.28 0 1-.41.2l-.31.08a.509.501 2.287 0 0-.33.3"></path><path fill="#041760" fill-rule="evenodd" d="M873.61 899.98q-.67-1.89-2.34-3.8a.907.902-37.137 0 1 .19-1.35l40.39-26.63a.535.534 69.819 0 1 .82.38l10.21 76.18a.494.48-20.744 0 1-.22.47l-11.8 7.78a.383.381 69.472 0 1-.59-.27l-8.31-62.01a.412.41 69.581 0 0-.63-.29q-6.02 3.88-23.05 15.4-.37.25-.86-.4a.115.111 62.412 0 1 .05-.17l.22-.04a.1.097-29.595 0 0 .05-.17q-2.06-1.97-3.82-5.34a.112.108 50.369 0 0-.18-.02q-.04.04-.04.27a.048.044 36.626 0 1-.09.01M148.62 951.3q3.62 1.93 7.24.34c5.97-1.55 8.77-8.64 10.12-14.04 2.62-10.43 4.18-21.24 8.8-32.08 5.66-13.28 15.29-22.12 30.2-23.01 28.06-1.68 43.25 19.98 43.35 45.73.05 14.94-3.02 28.99-10.77 41.79q-1.05 1.74-2.17 3.02a.689.686-53.22 0 1-.89.13l-21.15-13.29a.517.517 33.546 0 1-.15-.74c8.96-12.23 12.89-25.87 9.04-40.44q-1.98-7.52-9.37-9.11c-2.03-.44-3.59-.03-6.03.04a2.652 2.583 31.717 0 0-.9.2c-4.23 1.79-6.3 5.55-7.69 9.67q-1.7 5.07-3.25 13.46-1.63 8.9-4.81 18.48c-4.08 12.28-11.61 23.23-24.76 26.33-9.54 2.25-21.3 1.16-30.1-3.78-13.59-7.64-20.1-22.32-21.38-37.51-1.71-20.33 3-40.86 16.04-56.66a.545.535 35.645 0 1 .71-.11l21.82 13.71a.47.469 37.164 0 1 .1.72q-16.33 17.9-13.96 42.43c.56 5.77 3.86 13.21 9.96 14.72"></path><path fill="#ddbb5e" fill-rule="evenodd" d="M926.39 882.38q-.58.19-.67-.27.05-.06.67.27"></path><path fill="#041760" fill-rule="evenodd" d="M867.98 961.74q-.11-4.15-.01-8.23.02-.78-.39-.79-.35-.01-.88.47-1.04.24-4.62 1.47-5.34 1.82-11.51.29c-15.1-3.74-22.83-20.63-15.1-34.33 9.93-17.63 35.6-17.28 43.63 2.09q1.48 3.58 1.74 14.23.78 31.84.86 34.94a.9.891-18.143 0 1-.4.78l-12.18 8.22a.42.418 72.475 0 1-.65-.34zm-18.01-39.234a11.32 9.89-125.6 0 0-1.452 14.961 11.32 9.89-125.6 0 0 14.632 3.447 11.32 9.89-125.6 0 0 1.452-14.961 11.32 9.89-125.6 0 0-14.632-3.447"></path><path fill="#ec0e08" fill-rule="evenodd" d="m1041.89 939.73 39.1-28.47a.544.536 57.378 0 1 .79.18l24.11 44.29a2.056 1.996 33.536 0 1 .24 1.1q-4.05 51.85-11.08 104.23a.295.293-57.286 0 1-.54.12l-68.6-108.89a.41.4-35.209 0 1 .1-.54q.81-.63 15.12-11.13.44-.32.61-.71a.623.492-88.532 0 1 .15-.18"></path><path fill="#fff" fill-rule="evenodd" d="M849.97 922.506a11.32 9.89-125.6 0 1 14.632 3.447 11.32 9.89-125.6 0 1-1.452 14.961 11.32 9.89-125.6 0 1-14.632-3.447 11.32 9.89-125.6 0 1 1.452-14.961"></path><path fill="#041760" fill-rule="evenodd" d="M820.31 963.53q-.04-.29-.29-.8-.56-1.19-1.19-2.07-.84-1.15-1.81-2.15a.412.402 37.29 0 0-.65.08l-4.91 9.01a.61.604-59.722 0 1-.86.23l-10.9-6.85a.744.742-59.804 0 1-.26-.99l15.64-28.68a.531.53 42.423 0 1 .91-.04l38.61 58.59a.496.491 56.782 0 1-.14.69l-10.87 7.17a.419.413 56.501 0 1-.57-.12l-22.62-33.84a.662.555 28.66 0 1-.09-.23"></path><path fill="#ddbb5e" fill-rule="evenodd" d="M627.43 937.43c6.64-12.64 22.29 1.36 11.37 9.3a.492.492 90 0 0 0 .8c10.27 7.32-2.36 20.29-9.81 11.67-3.12-3.61-2.12-8.81 1.78-11.49a.64.64 43.934 0 0-.02-1.07l-1.37-.86a.581.572-61.314 0 0-.83.25c-3 6.41-11.22 6.75-14.2.53-3.69-7.67 5.59-14.28 12.19-8.94a.592.591 32.909 0 0 .89-.19M515.117 948.244a.593.592-38.959 0 0 .097-.906c-9.962-10.261 8.242-20.794 12.396-7.924a.492.492-80.503 0 0 .762.249c10.169-7.494 18.578 8.571 8.051 12.976-4.409 1.844-9.047-.728-10.383-5.276a.642.642-27.934 0 0-1.024-.315l-1.246 1.036a.582.573 46.818 0 0-.021.868c5.167 4.854 2.928 12.785-3.922 13.682-8.451 1.122-11.85-9.772-4.71-14.39"></path><path fill="#041760" fill-rule="evenodd" d="M1378.51 960.2a16.2 16.2 0 0 1-16.2 16.2 16.2 16.2 0 0 1-16.2-16.2 16.2 16.2 0 0 1 16.2-16.2 16.2 16.2 0 0 1 16.2 16.2"></path><path fill="#ddbb5e" fill-rule="evenodd" d="M155.86 951.64q-3.62 1.59-7.24-.34z"></path><path fill="#041760" fill-rule="evenodd" d="m1365.628 1018.119-2.246 26.292a.38.38-57.02 0 1-.411.347l-128.912-10.976a.38.38-71.829 0 1-.347-.411l6.856-80.512a.38.38-47.741 0 1 .411-.347l23.792 2.026a.38.38-38.422 0 1 .347.411l-4.556 53.462a.38.38 65.212 0 0 .347.411l29.012 2.476a.38.38-6.712 0 0 .411-.347l3.776-44.292a.38.38 42.008 0 1 .411-.347l22.193 1.896a.38.38 73.352 0 1 .346.411l-3.766 44.272a.38.38-36.984 0 0 .347.411l51.642 4.406a.38.38 53.585 0 1 .347.411"></path><path fill="#ddbb5e" fill-rule="evenodd" d="M867.98 961.74q-.66-4.13-.54-8.24.02-.56-.74-.31.53-.48.88-.47.41.01.39.79-.1 4.08.01 8.23"></path><path fill="#008130" fill-rule="evenodd" d="M586.87 1070.42q-.83 12.83-1.88 25.93a2.558 2.466 11.005 0 0 1.81 2.58q2.93.88 4.47-2.44 2.7-5.83 5.31-11.39 1.2-2.55 2.55-5.85 1.22-2.99 2.72-5.78 6.05-12.82 11.94-25.69 8.57-18.75 12.39-25.44 10.16-17.79 22.21-32.95 5.02-6.31 10.09-10.14c3.32-2.52 8.49-4.9 10.32.47q.88 2.61.41 5.54-1.3 7.97-5.18 17.09-11.26 26.43-23.18 45.99-5.97 9.81-18.76 27.86l-20.37 30.03a.472.468-85.741 0 0 .59.69q3.54-1.73 5.6-3 13.89-8.6 27.22-17.65 26.78-17.72 54.57-33.28 12.49-7 23.51-11.52c4.73-1.94 11.78-4.59 16.52-3.29 6.31 1.72-.86 8.47-3.39 10.92q-5.37 5.2-12.12 10.36-20.6 15.74-38.84 26.88-7.32 4.47-18.94 10.32l-1.28.7q-22.7 11.88-45.44 23.79-.06.03-2.85 1.22-2.25.96-3.3 2.8-6.06 2.18-12.1 5.31-6.2 3.22-8.33 3.62c-6.22 1.18-10.52.46-16.67-2.3-4.87-2.17-8.99-4.44-15.43-5.23q.82.13.89.06a.966.964 36.187 0 0-.25-1.6l-60.8-27.45q-10.36-4.73-20.51-9.34-4.43-2.02-7.56-3.73-3.22-1.76-7.36-4.07c-.87-.48-1.53-1.38-2.27-1.38q-.11 0-.97-.5c-4.94-2.88-30.47-18.06-26.66-25.16 2.74-5.09 14.62-1.34 19.1.01q3.16.96 6.76 2.32 11.45 4.32 24.45 10.58c11.95 5.76 26.61 14.78 39.9 22.14q15.47 9.15 31.68 17.12 2.18 1.07 3.82 1.35a.402.402 80.469 0 0 .42-.59c-2.48-4.5-6.94-8.66-11.56-13.45q-14.32-14.85-27.83-30.41.38-.29-.34-.59-8.94-13.7-12.28-19.28-7.92-13.24-14.53-26.04-4.85-9.4-8.01-18.46-1.55-4.46-1.15-8.95a2.802 2.202-89.697 0 1 1.97-2.48c5.8-.73 20.28 16.35 24.76 21.64 11.67 13.81 24.56 30.24 33.99 46.75q9.18 16.08 18.93 31.96c1.65 3.06 6.03 11.76 9.54 12.53a2.173 1.775 13.619 0 0 2.46-1.18c.71-2.55.33-4.63.24-6.9q-.29-7.95-1.38-15.62-.47-8.82-1.39-17.42-1.33-12.4-2-21.61-.37-5.06-.3-8.07.56-21.98 2.94-39.75 1.24-9.25 3.11-16.65c1.04-4.1 2.47-8.67 5.16-11.56 5.52-5.92 9.45 7.79 10.14 10.8 3.47 15.16 4.73 31.53 5.37 46.9q.42 10.24-.49 24.03-.92 13.98-2.16 27.9"></path><path fill="#ddbb5e" fill-rule="evenodd" d="M697.32 990.518a.593.592 42.177 0 0 .911-.044c8.603-11.425 21.816 4.941 9.74 11.029a.492.492 56.287 0 0-.129.79c8.972 8.894-5.606 19.679-11.581 9.955-2.502-4.072-.675-9.052 3.613-11.072a.642.642 53.202 0 0 .153-1.061l-1.216-1.071a.582.573-52.046 0 0-.86.113c-4 5.853-12.182 4.863-14.124-1.767-2.411-8.178 7.83-13.216 13.493-6.872"></path><path fill="#041760" fill-rule="evenodd" d="M129.619 1062.642q-.941-6.42-1.899-13.052a.272.268 81.62 0 1 .225-.308l104.232-15.295a.665.657 81.954 0 0 .561-.753l-5.95-40.542a.572.565-8.477 0 1 .486-.648l22.518-3.308a.37.363 81.575 0 1 .408.309q5.168 34.7 8.104 54.733 2.937 20.035 7.945 54.759a.37.363 81.747 0 1-.302.413l-22.521 3.293a.572.565-8.201 0 1-.65-.481l-5.936-40.544a.665.657 81.368 0 0-.753-.561L131.85 1075.92a.272.268 81.702 0 1-.305-.23q-.985-6.629-1.926-13.048"></path><path fill="#ddbb5e" fill-rule="evenodd" d="M955.68 989.41q.04.67-.89.66.27-.42.89-.66M432.338 1005.369a.573.572-43.642 0 0 .022-.879c-10.393-9.087 6.291-20.655 11.302-8.601a.475.475 72.815 0 0 .752.18c9.193-8.011 18.549 6.782 8.768 11.849-4.096 2.122-8.761.013-10.404-4.257a.62.62-32.617 0 0-1.011-.222l-1.117 1.095a.562.553 42.135 0 0 .049.836c5.353 4.263 3.824 12.069-2.695 13.472-8.042 1.746-12.171-8.467-5.666-13.473"></path><path fill="#006032" fill-rule="evenodd" d="M601.85 1073.47q-1.5 2.79-2.72 5.78-1.35 3.3-2.55 5.85-2.61 5.56-5.31 11.39-1.54 3.32-4.47 2.44a2.558 2.466 11.005 0 1-1.81-2.58q1.05-13.1 1.88-25.93 5.01-17.57 6.76-22.54 6.59-18.83 16.44-36.57 3.59-6.46 8.13-12.13c.9-1.12 2.14-2.06 3.17-2.56a1.522 1.512 65.097 0 1 2.03.75c2.04 4.53-.06 13.11-1.22 18.01q-2.57 10.86-6.45 22.33-3.96 11.75-13.88 35.76M566.49 1075.85q1.09 7.67 1.38 15.62c.09 2.27.47 4.35-.24 6.9a2.173 1.775 13.619 0 1-2.46 1.18c-3.51-.77-7.89-9.47-9.54-12.53q-13.76-32.58-18.32-45.34-6.3-17.62-8.94-32.71-.98-5.59-.1-9.68c1.02-4.76 5.84 1.22 6.85 2.6q5.16 7.04 8.96 14.31 10.43 19.91 15.89 37.32 1.47 4.7 6.52 22.33"></path><path fill="#ddbb5e" fill-rule="evenodd" d="M936.69 1003.41q.11.58-.88.66.28-.41.88-.66"></path><path fill="#ec0e08" fill-rule="evenodd" d="M1047.71 1279.12a.282.282 76.538 0 1-.5.06l-151.85-230.39a.68.68-34.555 0 1 .17-.92l56.69-41.56a.603.596 55.202 0 1 .86.16l118.62 183.28a1.576 1.536-55.813 0 1 .21 1.18q-8.04 35.25-18.14 69.07-3.06 10.25-6.06 19.12"></path><path fill="#006032" fill-rule="evenodd" d="M635.13 1086.27q-13.33 9.05-27.22 17.65-2.06 1.27-5.6 3a.472.468-85.741 0 1-.59-.69l20.37-30.03q15.9-17.25 35.1-30.81 7.39-5.21 17.6-10.35 2.74-1.37 4.92-1.17a1.98 1.98-76.491 0 1 1.66 2.71q-2 5.03-5.78 9.74-6.97 8.7-14.83 16.45-12.29 12.11-25.63 23.5M511.75 1062.05l.54.42q13.51 15.56 27.83 30.41c4.62 4.79 9.08 8.95 11.56 13.45a.402.402 80.469 0 1-.42.59q-1.64-.28-3.82-1.35-16.21-7.97-31.68-17.12-17.46-14.9-32.92-31.78-5.99-6.54-9.74-13.61a.701.671-62.19 0 1-.08-.28l-.23-2.32a1.469 1.468.163 0 1 1.61-1.6q.96.1 2.68.46 1.02.21 2.48.93 10.95 5.42 21.06 13.38a2.51 2.382-15.537 0 0 .81.43q.83.27 1.3.88a.697.48 7.973 0 0 .12.11z"></path><path fill="#ddbb5e" fill-rule="evenodd" d="M511.95 1061.88q.72.3.34.59l-.54-.42q.1-.09.2-.17"></path><path fill="#006032" fill-rule="evenodd" d="M603.57 1125.17q1.05-1.84 3.3-2.8 2.79-1.19 2.85-1.22 22.74-11.91 45.44-23.79.42.46 1.64-.29c12.04-1.75 24.46-3.52 36.43-2.74q2.14.14 4.76 1.29a1.009 1.003 6.152 0 1 .6.74c1.63 8.28-46.65 19.47-52.91 20.78q-20.78 4.34-42.11 8.03M490.88 1097.58l60.8 27.45a.966.964 36.187 0 1 .25 1.6q-.07.07-.89-.06-18.8-3.52-37.56-7.33-13.99-2.84-28.44-7.31-9.49-2.94-17.33-6.61-4.07-1.91-6.61-4.65a1.844 1.84 55.222 0 1 .52-2.9c1.38-.69 3.79-1.2 5.57-1.26q11.64-.37 23.69 1.07" data-source="https://football-logos.cc"></path><path fill="#ec0e08" fill-rule="evenodd" d="M973.3 1433.08a.411.409 45.729 0 1-.67-.01l-200.08-293.88a.499.492 60.765 0 1 .2-.73q1.6-.73 2.64-1.96a1.728 1.696 6.886 0 1 .52-.4q2.09-1.04 3.31-2.54a.583.546 12.171 0 1 .35-.21q.34-.06.55-.21 2.61-1.9 49.42-36.45a.55.545 54.932 0 1 .78.14l182.12 270.16a.553.542-49.758 0 1 .04.55q-16.73 34.82-39.18 65.54"></path><path fill="#ddbb5e" fill-rule="evenodd" d="m656.44 1096.66.36.41q-1.22.75-1.64.29z"></path><path fill="#041760" fill-rule="evenodd" d="M1322.343 1159.698q-3.916 23.841-3.968 24.149a.722.714 21.429 0 0 .325.733l17.68 11.14a.851.837 20.836 0 1 .39.85l-4.67 28.34a.272.266 22.329 0 1-.42.17q-68.2-47.22-119.878-83.078-.229-.159-.176-.477.056-.34.323-.417 60.434-17.441 140.156-40.361a.272.266-3.672 0 1 .343.296l-4.641 28.344a.851.837-2.178 0 1-.642.681l-20.315 4.898a.722.714-2.771 0 0-.542.591zm-20.766-3.405q1.299-7.895 2.615-15.662a.388.382-1.866 0 0-.474-.437q-21.134 5.004-39.591 9.509-.513.126-.548.334-.036.219.41.502 16.042 10.18 34.459 21.691a.388.382 20.549 0 0 .589-.262q1.242-7.779 2.54-15.675"></path><path fill="#ddbb5e" fill-rule="evenodd" d="M792.65 1109.73q.11.28-.45.68-.38.27-.47-.06.35-.46.92-.62"></path><path fill="#041760" fill-rule="evenodd" d="M173.351 1184.503q1.035 6.074 3.532 9.833c5.167 7.774 15.367 10.334 24.117 8.864q48.37-8.12 81.94-13.97a.681.679-9.599 0 1 .79.56l3.99 25.69a.424.414-9.573 0 1-.35.48q-76.7 13.1-85.38 14.49-4.06.65-13.23.11-7.48-.44-15.639-4.588c-14.395-7.317-21.528-22.194-24.105-37.323s-.774-31.528 10.386-43.199q6.325-6.616 13.237-9.508 8.474-3.546 12.52-4.277 8.651-1.563 85.362-14.6a.424.414-9.765 0 1 .489.337l4.742 25.562a.681.679-9.739 0 1-.56.79q-33.613 5.596-81.943 13.951c-8.743 1.511-17.52 7.304-19.821 16.35q-1.112 4.374-.077 10.448"></path><path fill="#ddbb5e" fill-rule="evenodd" d="M754.71 1137.71q-.48 1.32-1.03.57z"></path><path fill="#fff" fill-rule="evenodd" d="M1301.577 1156.293q-1.298 7.896-2.54 15.675a.388.382 20.549 0 1-.589.262q-18.417-11.511-34.459-21.691-.446-.283-.41-.502.035-.208.548-.334 18.457-4.505 39.591-9.509a.388.382-1.866 0 1 .474.437q-1.316 7.767-2.615 15.662"></path><path fill="#ddbb5e" fill-rule="evenodd" d="M402.66 1160.26q.28.49-.05.56-.14-.24.05-.56M693.65 1182.73q.17.2-.26.52a.576.533-63.93 0 1-.31.12q-.18.01-.3 0 .12-.5.87-.64"></path><path fill="#ec0e08" fill-rule="evenodd" d="M652.1 1227.45q.51-.22 2.31-1.54 4.76-3.48 10.28-7.72a1.048 1.019 19.246 0 1 .43-.2q.94-.21 1.44-1.21a.856.721 89.505 0 1 .24-.29l42.52-30.98a.539.532 55.634 0 1 .77.15l204.22 319.96a.712.707-41.111 0 1-.06.84q-24.85 28.75-51.24 56.24a.48.479-39.628 0 1-.75-.07l-214.49-331.41a.471.466-30.281 0 1 .18-.67q2.05-1.06 3.8-2.86a.998.957-78.222 0 1 .35-.24"></path><path fill="#041760" fill-rule="evenodd" d="m1298.89 1338.85-123.5-37.49a.386.386-31.567 0 1-.26-.48q8.49-28.7 13.63-44.63 3.64-11.3 11.26-22.24 11.03-15.85 28.3-22.07c17.16-6.18 36.95-2.72 53.63 5.11 31.92 14.99 39.77 47.63 30.3 79.46q-7.97 26.81-12.7 41.99a.534.525 16.542 0 1-.66.35m-91.804-56.028 76.05 22.961a.48.48 10.149 0 0 .598-.321l5.538-18.342a38.34 36.28-73.2 0 0-23.65-47.19l-7.506-2.266a38.34 36.28-73.2 0 0-45.813 26.218l-5.537 18.342a.48.48-46.411 0 0 .32.598"></path><path fill="#fff" fill-rule="evenodd" d="M1207.086 1282.822a.48.48 66.873 0 1-.32-.598l5.537-18.342a38.34 36.28-73.2 0 1 45.813-26.218l7.506 2.266a38.34 36.28-73.2 0 1 23.65 47.19l-5.538 18.342a.48.48 51.855 0 1-.598.321z"></path><path fill="#041760" fill-rule="evenodd" d="m173.003 1271.031 125.538-30.469a.535.525-13.298 0 1 .64.387q3.867 15.437 10.313 42.68c7.661 32.345-2.032 64.518-34.779 77.689-17.112 6.88-37.085 9.217-53.883 2.069q-16.906-7.193-27.03-23.657-6.996-11.364-9.993-22.863-4.234-16.21-11.093-45.371a.386.386-61.732 0 1 .287-.465m67.307 11.609q-1.03-.23-1 .22l-36.01 8.74a.362.359-14.039 0 0-.26.43q2.05 8.96 3.95 16.07c5.56 20.86 19.28 34.23 41.76 31.83q8.56-.92 16.49-4.44c14.62-6.48 21.7-18.8 21.36-34.42-.2-9.5-2.72-18.37-5.22-27.99a.413.405-13.853 0 0-.49-.29z"></path><path fill="#fff" fill-rule="evenodd" d="m239.31 1282.86 1-.22 40.58-9.85a.413.405-13.853 0 1 .49.29c2.5 9.62 5.02 18.49 5.22 27.99.34 15.62-6.74 27.94-21.36 34.42q-7.93 3.52-16.49 4.44c-22.48 2.4-36.2-10.97-41.76-31.83q-1.9-7.11-3.95-16.07a.362.359-14.039 0 1 .26-.43z"></path><path fill="#ddbb5e" fill-rule="evenodd" d="m240.31 1282.64-1 .22q-.03-.45 1-.22"></path><path fill="#ec0e08" fill-rule="evenodd" d="m529.9 1317.52.31-.08a1.296 1.179-68.28 0 0 .41-.2l45.87-33.85a.364.361-34.938 0 1 .52.09l226.41 338a.467.466 51.682 0 1-.07.6q-26.96 25.62-54.99 49.77a.745.739 39.327 0 1-.84.08q-1.43-.83-2.41-2.28-70.46-104.19-230.23-340.34a.389.386 54.823 0 1 .09-.53q8.51-6.14 14.29-10.54.23-.17.31-.42a.509.501 2.287 0 1 .33-.3"></path><path fill="#041760" fill-rule="evenodd" d="m1292.118 1368.257-9.426 24.496a.34.34 50.716 0 1-.439.195l-120.806-46.456a.34.34 53.44 0 1-.195-.439l9.426-24.506a.34.34-29.843 0 1 .439-.195l120.806 46.466a.34.34 57.824 0 1 .195.439M351.415 1388.733a.26.26 0 0 1-.151.336l-121.153 46.021a.26.26 0 0 1-.336-.15l-9.41-24.773a.26.26 0 0 1 .151-.336l121.153-46.021a.26.26 0 0 1 .336.15zM1168.52 1476.65l-23.17-11.42q-1.91-1.8-4.65-2.31l-14.04-7-2.71-1.66a1.686 1.441 63.512 0 0-.33-.14q-2.06-.65-3.61-1.83a1.186.681 60.128 0 0-.12-.07l-3.9-1.48a.719.718-66.515 0 1-.39-.99q19.5-39.65 22.93-46.44 5.87-11.62 16.52-19.12 8.55-6.03 18.43-6.93 9.92-.9 19.5 3.05 25.71 10.6 26.45 38.84a.573.571-3.341 0 0 .62.55l57.1-4.7a.41.409-79.228 0 1 .4.59l-13.44 27.22a.682.678 10.666 0 1-.56.38l-52.41 4.31a.835.832 11.034 0 0-.67.45l-7.49 15.19a.367.367 41.836 0 0 .17.49l40.26 19.87a.604.604 73.583 0 1 .27.81l-11.37 23.04a.59.59-34.379 0 1-.79.27l-10.12-4.94a.704.56-6.497 0 1-.16-.1q-1.58-1.29-3.47-1.64-.24-.04-.68-.54a1.693 1.669-7.534 0 0-.49-.37l-7.62-3.76a.4.4-20.348 0 0-.15-.05q-1.54-.26-3.56-1.75a2.355 2.171-17.078 0 0-.71-.34q-1.7-.45-3.54-1.77a2.207 2.097 69.075 0 0-.67-.32c-2.2-.6-4.08-2.09-5.71-2.64a4.714.184 26.785 0 1-3-1.37zm-3.47-31.894q3.633 1.788 16.374 8.075a.487.482 25.808 0 0 .646-.221q7.92-15.93 9.733-19.829c4.843-10.444 3.147-21.156-7.794-26.541s-20.463-.197-25.786 10.011q-1.984 3.815-9.778 19.807a.487.482 26.608 0 0 .219.647q12.753 6.263 16.386 8.051"></path><path fill="#fff" fill-rule="evenodd" d="M1184.009 1406.24c10.941 5.385 12.637 16.097 7.794 26.541q-1.813 3.899-9.733 19.829a.487.482 25.808 0 1-.646.221q-12.741-6.287-16.374-8.075t-16.386-8.051a.487.482 26.608 0 1-.219-.647q7.794-15.992 9.778-19.807c5.323-10.208 14.846-15.396 25.786-10.011"></path><path fill="#ec0e08" fill-rule="evenodd" d="m1053.4 1447.86 3.23-5.94a.545.542 51.668 0 1 1 .12q.07.29.03.57-.05.36-.18.54-3.35 4.54-3.73 4.95a.215.212-10.13 0 1-.35-.24"></path><path fill="#041760" fill-rule="evenodd" d="M389.909 1455.221q.154.284-.01.509-37.175 50.838-86.267 117.832a.272.266-41.398 0 1-.453-.024l-13.69-25.291a.852.838-39.904 0 1 .091-.932l13.087-16.325a.723.715-40.498 0 0 .067-.8l-11.654-21.555-11.649-21.548a.723.715-16.297 0 0-.706-.382l-20.827 2.01a.852.838-16.891 0 1-.829-.434l-13.665-25.305a.272.266-15.397 0 1 .229-.392q82.94-4.388 145.835-7.652.278-.014.441.289m-80.289 43.398q3.8 7.028 7.509 13.965a.387.382-39.609 0 0 .641.056q13.63-16.87 25.451-31.71.328-.412.228-.598-.105-.195-.63-.146-18.89 1.767-40.47 3.936a.387.382-17.194 0 0-.304.566q3.774 6.902 7.575 13.931"></path><path fill="#ddbb5e" fill-rule="evenodd" d="M1140.7 1462.92q-.44.19-.94-.07-6.23-3.23-12.55-6.27-.22-.11-.55-.66z"></path><path fill="#041760" fill-rule="evenodd" d="M1077.05 1538.76q-1.38-.8-1.53-.93-4.83-4.21-8.86-6.61a.629.626 33.214 0 1-.19-.9l14.66-20.7a1.315 1.308 58.182 0 0 .22-.95l-3.7-23.86a1.542 1.528 58.203 0 1 .26-1.13l17.01-24.02a.304.301-28.475 0 1 .55.16l.92 27.34a.297.297.646 0 0 .54.16l17.37-24.52a.674.674-90 0 1 .94-.16l19.08 13.51a.566.56 35.84 0 1 .13.78l-32.19 45.46a.896.896 30.894 0 0 .21 1.25l21.83 15.46a.65.643-59.827 0 0 .96-.26q1.22-2.61 4.3-5.94a3.332 3.206 80.764 0 0 .56-.81q.91-1.82 1.77-2.97 2.75-3.64 11.75-16.24.81-1.12 1.82-2.79.79-1.29 1.89-2.69 2.55-3.25 5.32-7.53a1.027 1.027 34.064 0 1 1.45-.28l17.51 12.41a.4.394-54.54 0 1 .09.56l-28.04 39.59a.561.558-54.708 0 0 .13.77l23.47 16.61a.644.638 35.283 0 0 .9-.15q11.73-16.64 21.54-30.41.77-1.08.81-1.42a2.614 2.313 77.039 0 1 .31-.57l10.58-14.33a.444.438-53.92 0 1 .61-.1l19.22 13.62a.49.49-14.876 0 1 .12.68l-48.81 68.93a.624.622-53.941 0 1-.88.14l-10.38-7.69a1.693 1.558 73.947 0 0-.23-.14q-2.12-.98-4.07-2.58-3.31-2.72-3.65-2.84-.29-.09-13.97-9.81-22.98-16.32-39.65-28.11-11.27-7.97-18.34-13.01-.62-.44-1.51-1.17-.78-.64-2.83-1.81"></path><path fill="#ddbb5e" fill-rule="evenodd" d="M1168.52 1476.65q-.69.15-1.5-.25-10.2-5.2-20.52-10.18-.77-.36-1.15-.99z"></path><path fill="#fff" fill-rule="evenodd" d="M343.449 1480.332q.1.186-.228.598-11.821 14.84-25.451 31.71a.387.382-39.609 0 1-.641-.056q-3.709-6.937-7.509-13.965-3.801-7.029-7.575-13.931a.387.382-17.194 0 1 .304-.566q21.58-2.169 40.47-3.936.525-.049.63.146"></path><path fill="#041760" fill-rule="evenodd" d="M369.65 1578.71q-.63.17-.8.66l-41.95 34.31a.398.39-38.194 0 1-.55-.06l-16.62-20.31a.469.462 51.432 0 1 .07-.66l101.84-83.29a.423.422 72.475 0 1 .69.36l-9.05 106.14a.266.266-16.848 0 0 .43.23l55.16-45.12a.533.525-39.171 0 1 .74.07l16.48 20.16a.57.57 53.59 0 1-.08.8l-101.99 83.41a.295.293-17.26 0 1-.48-.25l9.08-106.57a.215.211-17.303 0 0-.35-.18zM1118.976 1668.317q-.412.538-1.726.453-30.18-1.95-65.83-4.2a.256.256 65.315 0 0-.17.46l42.51 32.62a.314.314-33.085 0 1 .06.44l-16.01 20.85a.434.428 37.135 0 1-.61.08l-104.35-80.08a.48.479-25.215 0 1 .31-.86q71.71 2.77 111.635 4.285c.055.003.176-.093.196-.119.021-.027.082-.168.065-.221q-11.805-38.17-33.056-106.715a.48.479-79.797 0 1 .751-.522l104.376 80.045a.434.428 37.853 0 1 .081.61l-15.991 20.864a.314.314-8.01 0 1-.441.057l-42.518-32.61a.256.256 9.672 0 0-.4.283q11.408 33.851 21.109 62.496.422 1.247.009 1.784"></path><path fill="#ddbb5e" fill-rule="evenodd" d="M369.65 1578.71q.03.36-.8.66.17-.49.8-.66M886.04 1599.72q-.22.54-.79.83.13-.52.79-.83"></path><path fill="#041760" fill-rule="evenodd" d="M515.246 1653.584q13.572 15.085 37.027 41.274a.371.364 48.107 0 1-.023.512l-16.96 15.25a.573.566-41.842 0 1-.81-.04l-27.46-30.53a.666.659 47.728 0 0-.94-.05l-78.49 70.6a.272.269 48.061 0 1-.382-.023q-4.502-4.983-8.851-9.816t-8.83-9.835a.272.269 47.98 0 1 .017-.382l78.469-70.624a.666.659 48.313 0 0 .049-.94l-27.47-30.521a.573.566-42.117 0 1 .045-.809l16.951-15.261a.371.364 47.934 0 1 .511.031q23.575 26.081 37.147 41.164M891.8 1781.97l-23.27-24.67a.714.714 82.178 0 1 .03-1.01l60.53-57.14a.29.283 45.716 0 1 .4.01l16.36 17.34a.495.495 84.67 0 1-.02.7l-40.7 38.42a.637.629 46.62 0 0-.02.89l18.55 19.65a.474.467 46.276 0 0 .67.02l35.2-33.22a.573.566-43.245 0 1 .81.02l15.03 15.93a.417.417 81.478 0 1-.01.59l-35.21 33.23a.651.643 46.584 0 0-.02.91l19.81 20.99a.403.396-43.447 0 0 .56.01l41.87-39.52a.502.495-43 0 1 .71.02l16.21 17.17a.523.523 76.652 0 1-.02.74l-61.6 58.15a.304.297-42.922 0 1-.42-.01q-40.5-42.63-63.63-67.48-1.3-1.39-1.76-1.68zM580.36 1759.97q-3.52-3.89-8.71-8.61-.64-.59-1.13-.56l-.63-.67a.836.829-44.776 0 0-1.21 0l-18.16 19.32a.84.84 47.125 0 0 .03 1.19l35.05 32.95a.509.502-47.034 0 1 .02.71l-14.92 15.87a.637.637 0 0 1-.9.02l-33.04-31.49a.337.306 66.199 0 0-.18-.08q-.78-.07-1.19-.88a1.172 1.156-37.114 0 0-1.9-.25q-9.97 10.83-19.17 20.54a.68.679 43.246 0 0 .03.97l41.69 39.21a.524.517 43.075 0 1 .03.74l-16.16 17.18a.502.495 43 0 1-.71.02l-61.54-57.86a.629.615-46.952 0 1-.02-.88l88.48-94.1a.425.418-46.465 0 1 .59-.02l60.67 57.05a.474.467 43.724 0 1 .02.67l-16.32 17.36a.424.424-86.948 0 1-.6.02z"></path><path fill="#ddbb5e" fill-rule="evenodd" d="M580.36 1759.97q-4.39-2.99-8.98-7.86-.78-.83-.86-1.31.49-.03 1.13.56 5.19 4.72 8.71 8.61"></path><path fill="#041760" fill-rule="evenodd" d="M773.268 1836.164a.386.386-7.245 0 1 .027-.546q22.153-20.154 34.816-31.119 8.977-7.781 21.172-13.189 17.661-7.841 35.666-4.204c17.889 3.614 33.029 16.841 43.24 32.195 19.537 29.386 9.321 61.388-15.294 83.712q-20.729 18.806-32.651 29.342a.535.525 47.768 0 1-.746-.043zm36.671.296 53.387 59.501a.25.25 80.936 0 0 .353.019l14.462-12.976a38.3 36.28-41.9 0 0 4.278-52.582l-5.263-5.865a38.3 36.28-41.9 0 0-52.736-1.426l-14.462 12.976a.25.25 24.057 0 0-.019.353M632.94 1904.63q4.35 1.84 8.58-.07 6.89-2.78 8.24-9.33c1.14-5.49-4.23-12.73-7.91-16.59-9.86-10.35-16.83-17.05-22.41-27.75q-10.1-19.33 2.47-36.99 11.73-16.46 31.29-16.51 10.63-.02 20.3 4.84 21.2 10.65 33.52 30.52 1.07 1.73 2.67 5.16 1.09 2.34 2.17 4.9a.56.555-24.23 0 1-.28.73l-23.07 10.4a.53.53 68.29 0 1-.72-.31q-4.06-11.6-10.85-19-6.09-6.62-13.88-10.21-13-5.98-19.61 6.18-1.17 2.17-.27 7.35a2.455 2.416-67.371 0 0 .37.92c1.8 2.63 3.29 5.32 5.28 7.47q5.17 5.58 10.97 11.62 7.83 8.16 12.85 16.59c5.22 8.79 7.53 18.66 3.74 28.64-3.25 8.55-9.24 16.36-16.72 21.14q-10.18 6.5-22.95 5.93-10.37-.46-22.78-7.08c-18.02-9.62-32.87-25.66-38.51-45.52a.588.587-19.136 0 1 .34-.7l23.72-10.05a.361.356 71.603 0 1 .49.25q4.96 20.58 22.34 32.55 4.99 3.43 10.62 4.92"></path><path fill="#fff" fill-rule="evenodd" d="M809.939 1836.46a.25.25 24.066 0 1 .019-.353l14.462-12.976a38.3 36.28-41.9 0 1 52.736 1.426l5.263 5.865a38.3 36.28-41.9 0 1-4.278 52.582l-14.462 12.976a.25.25 89.274 0 1-.353-.019z"></path><path fill="#ddbb5e" fill-rule="evenodd" d="M641.52 1904.56q-4.23 1.91-8.58.07z" data-source="https://football-logos.cc"></path><!-- source: https://football-logos.cc --></svg>