<svg xmlns="http://www.w3.org/2000/svg" xmlns:xlink="http://www.w3.org/1999/xlink" viewBox="-2.35 -1.01 37.06 35"><metadata xmlns:fl="https://football-logos.cc/switzerland/luzern">dl1_95786c8635f97cced9937e4e3947b303701bb1f6f49f39f4f7dac2f0d1e38b96</metadata><!-- Source: https://football-logos.cc --><defs data-source="https://football-logos.cc"><clipPath id="b"><use xlink:href="#a" width="100%" height="100%"></use></clipPath><path id="a" d="M281.189 373.293H116.531l-93.967-94.697-.02-165.885 93.998-94.694h164.64l94.013 94.694-.031 165.885z"></path></defs><path fill="#fff" stroke="#fd0" stroke-miterlimit="3.864" stroke-width=".20192003999999997" d="m32.459 24.02-8.617 8.682H8.745L.129 24.02.127 8.81 8.746.127H23.84l8.62 8.683z"></path><path fill="#00519e" d="M11.264 393.164V0h186.37v393.164z" clip-path="url(#b)" transform="matrix(.08903 0 0 .08903 -1.41 -1.004)"></path><g stroke-miterlimit="3.864" transform="matrix(.08903 0 0 .08903 -1.41 -1.004)"><path fill="#fff" stroke="#00519e" stroke-width="2.055" d="m1.027 311.227.003-133.7h393.156l-.006 133.7z" clip-path="url(#b)"></path><use xlink:href="#a" width="100%" height="100%" fill="none" stroke="#00519e" stroke-width="2.055"></use><path fill="#fff" stroke="#00519e" stroke-width="1.417" d="M163.216 138.79c-3.389-19.375 9.457-37.849 28.689-41.259 19.234-3.414 37.57 9.528 40.957 28.904 3.389 19.375-9.457 37.848-28.689 41.261-19.235 3.414-37.57-9.529-40.957-28.906z"></path><path fill="#00519e" stroke="#00519e" stroke-width=".427" d="M202.816 156.657c-2.23-6.162-1.32-13.604 1.269-19.523-8.079.525-16.403-3.029-22.048-8.829-1.001 5.651-4.807 11.019-8.062 15.588 3.319 5.537 7.51 10.336 11.276 15.526 3.422 1.794 13.501-2.26 17.565-2.762zM229.313 138.686c.631-2.985 4.299-6.067 3.876-10.944-2.18-6.042-4.549-13.358-8.87-17.161-2.9 1.526-7.121.53-10.201.094 3.394 4.663 4.081 10.775 4.58 16.374 2.101 4.075 8.261 7.152 10.615 11.637zM199.769 105.46c-1.03-1.078-4.491-4.09-3.396-5.597-2.543.01 9.824-2.28 7.277-2.318-9.647-2.078-23.787 2.206-27.865 8.523-2.504 2.019-3.708 4.422-5.063 6.651 2.563-.34 10.082-.328 11.112 2.895 3.978-6.395 10.638-9.514 17.935-10.154zM165.831 140.2c-1.416-4.545-1.673-12.187-.508-16.931-.376-.493-1.204 1.531-1.54 1.013-3.318 9.201-.248 20.191 4.569 27.524-1.345-3.306-3.515-8.022-2.521-11.606zM214.124 164.398c4.573-2.922 9.896-6.558 13.705-13.03.08-.132 1.458-3.555 1.528-3.693-1.338 1.465-3.395 4.373-5.016 3.598-2.306 4.388-8.513 6.394-12.947 7.578.783 2.754-3.501 6.653-4.877 7.579.395.35 4.561-1.826 5.134-1.944 1.029.057-1.028 1.89 2.473-.088z"></path><path fill="#00519e" stroke="#00519e" stroke-width=".427" d="M209.005 165.978c-.102-.037-10.629 1.292-12.729.917-2.781-.494-9.755-1.431-11.365-4.571-3.255 2.544-11.182-4.143-13.651-6.244.781 1.104 1.814 2.031 2.833 2.911 5.077 5.932 11.774 9.076 20.634 10.163 2.644.497 12.864-1.689 14.278-3.176z"></path><path fill="none" stroke="#00519e" stroke-width="1.858" d="M163.932 125.466c1.657-4.217 6.478-13.722 10.306-16.406"></path><path fill="none" stroke="#00519e" stroke-width="1.417" d="M182.124 133.439c-.212-4.358-.57-17.32-.304-21.677m-17.679 27.175c2.1 1.517 9.014 5.741 11.747 5.226m25.729-5.097c4.688-3.475 13.632-9.877 18.948-12.333m-19.322 29.272c2.774.789 9.074 2.874 11.724 4.026"></path><path fill="none" stroke="#00519e" stroke-width="1.858" d="M232.005 127.52c-.577 4.581-6.601 23.971-8.701 28.036"></path><path fill="none" stroke="#00519e" stroke-width="1.417" d="M192.025 103.268c4.889 1.384 26.739 9.011 31.344 11.172m-38.001 49.044c-.19-.935.37-5.404.453-6.35"></path><path fill="#00519e" stroke="#00519e" stroke-width=".09" d="M290.568 52.542c.525 1.323.963 2.885 1.418 3.406 3.041 2.285 4.254 5.925 5.842 9.876 5.135 8.716 10.238 14.18 9.193 17.7-2.236 5.754-11.859 12.054-15.604 14.723-.313.478-.414 20.386 5.355 26.102 2.25 1.889 4.82 4.042 8.322 3.195 1.516-.307 2.438-1.683 2.684-2.92-.309-4.164-4.818-6.564-7.951-9.216-3.926-2.492-6.324-6.342-5.621-10.883.328-2.323 1.658-4.336 2.84-6.391l19.648-13.907c3.455-3.009 5.01-9.06 2.654-14.999.506-.213.975.231 1.311.495 6.234 5.958 8.453 16.039 5.141 23.542-1.553 4.688-7.738 13.997-6.471 19.309 1.293 4.819-6.088 7.765-3.973 12.249 1.135 2.964.518 7.589-6.695 10.17-.117.145-.379.25-.33.45 4.707 3.414 10.992 8.178 13.826 12.828 1.244 2.65 3.801 13.763 3.801 13.763-4.715 4.231-13.391 13.141-13.584 15.659-.119.143-20.551.704-20.705.545-.83-.797-1.738-2.152-1.664-3.305.436-4.54 7.184-6.742 11.404-8.104 2.238-.819 5.172-2.245 5.299-4.713.07-1.847-1.359-3.419-3.234-4.122-2.461-.841-18.271-9.984-21.561-14.162-.408-.537-.627-.72-.627-.72l-20.635 13.261-12.795 13.247c-2.578.776-11.15 2.559-11.15 2.559-3.424.99-3.761 3.303-3.861 5.289-.329.463-18.791.798-18.98.529-4.908-3.193-1.521-7.271-.811-7.865 2.938-2.885 5.907-3.968 15.273-5.5 2.016-.349 6.969-1.826 8.939-4.166 2.964-2.759 2.203-6.641 2.332-10.27.158-1.946-.002-4.074.813-5.738l-.074-.059c.799-1.958 3.017-4 5.051-5.199l10.904-5.229 8.621-4.007c2.83-1.327 5.33-3.523 5.639-6.526-.23-2.143-2.133-3.599-4.053-4.698-6.625-3.495-13.074-6.064-20.457-7.879-2.864-.76-19.998-3.998-19.998-3.998-5.332-.564-12.268-2.96-15.612.639-.522.256-3.007-1.325-3.093-1.539-.227-.855-.18-2.528.239-3.34 3.528-5.324 6.637-6.048 13.327-6.664 2.182-.165 1.689-.017 3.803.189.348-.557-.769-3.274 2.322-5.933-4.26-3.667-7.113-7.619-10.541-11.696-1.857-1.924-4.393-2.518-7.194-2.259l-2.112.474c-.352-.154-2.321-8.225 2.77-10.107 3.826-1.373 9.139-2.093 12.717.261 3.797 2.356 5.453 5.714 8.769 8.498 2.577 2.603 6.089 5.037 9.599 6.852 1.324 1.281 2.479-.369 3.75-.615 3.523-1.39 8.322-.975 12.063-.767.889.221 12.709 4.056 22.969-3.082l-.148-.115c-2.523.818-5.854 2.155-8.445.837-1.479-1.182-.879-3.24-.332-4.568-.197-.594.336-1.827-.826-1.941-2.074-.041-4.197-.977-5.014-2.796-.766-1.465-.678-3.11-.705-4.796-.662-.945-1.207-2.034-.748-3.124 1.744-2.129 4.842-2.043 7.082-3.376 3.463-2.147 9.447-5.747 13.777-6.144 1.115-.393 2.734.295 4.023.096.549-.042 1.885.318 2.084.695z"></path><path fill="#fd0" stroke="#fd0" stroke-width=".09" d="M288.596 53.306c1.867 1.984-1.734 3.022-1.219 4.532 1.598 4.229.891 9.265-2.26 12.808-.609.539-1.301.945-2.154 1.032-1.371-.258-1.273-1.673-1.928-2.509-.502-1.309-2.234-2.604-3.797-2.791-2.355-.274-4.057 1.169-5.338 2.792-.645.543-1.639.654-2.537.556-.863-.126-1.303-.987-1.732-1.588-.764-1.216-.348-2.6-.297-3.949-.461-.566-.645-1.27-1.176-1.802-.09-.292.076-.516.172-.752.734-.53 1.766-.55 2.588-.93 4.518-2.337 8.941-4.872 14.779-4.795 1.571-.635 2.313-2.935 4.899-2.604z"></path><path fill="#00519e" stroke="#00519e" stroke-width=".09" d="M281.283 59.864c.109.35-.205.723-.596.772-1.002.218-1.918.787-3.031.641-1.012-.511-1.215-1.567-1.57-2.464.068-.345 3.937-.112 5.197 1.051z"></path><path fill="#fd0" stroke="#fd0" stroke-width=".09" d="M293.984 67.246c5.055 8.536 9.307 14.378 9.307 14.378-2.221 7.872-14.879 11.934-15.961 14.17-.959 2.848-3.963 5.193-6.855 6.974.75-4.428-.068-8.103-.068-8.103-1.834 8.013-14.766 14.204-22.281 14.131 6.516-2.482 9.906-10.247 9.906-10.247-4.807 6.098-17.488 6.771-21.221 6.007 1.602-.048 5.746-1.98 9.529-4.472.938-.772-16.516 4.417-24.901.082-1.127-.661-2.315-1.47-3.206-2.389 9.146 1.112 17.771-1.294 17.771-1.294-7.563-1.443-6.557-1.861-14.639-4.654 4.005-2.344 8.617-2.634 12.698-2.431 2.171.191 5.778-.231 7.688-.862l-.008-.125c-3.891-1.222-7.779-2.458-12.264-2.26 1.68-.932 6.479-1.513 8.504-1.934 7.635-1.915 11.412 3.578 18.643 1.171-.814 2.253-2.785 3.751-2.242 6.94 4.086-4.067 9.525-6.22 13.76-10.138 3.801-3.108 7.117-6.89 9.738-10.625 2.02-3.366 2.998-7.129 2.426-11.207.44-.638 2.544 4.97 3.676 6.888z"></path><path fill="#fd0" stroke="#fd0" stroke-width=".09" d="M277.975 69.315c.84.639 1.105 1.51 1.631 2.275l-.115.503c-1.764.963-4.039 2.346-6.207 1.223-.469-.41-.969-.415-1.34-.925.246-1.018 1.012-1.939 1.914-2.693.809-.563 1.654-1.054 2.639-1.303.706-.066.964.681 1.478.92zM231.096 78.127l.008.124c-1.822.274-3.498.896-4.809 1.964 4.672.303 8.123 1.904 12.154 3.754-.422.377-7.111 3.936-8.34 4.304-3.666-3.001-6.885-6.177-9.891-9.44 1.646-.853 3.433-2.423 3.978-4.09.312-1.056.639-2.186.303-3.362 2.132 2.285 3.931 4.753 6.597 6.746zM322.762 93.867l-6.459 11.837c-.842 2.428-1.684 5.162-.91 7.789.301 1.782-9.988 3.374-9.25 4.981-4.156-3.381-8.977-7.176-7.801-12.76.525-6.963 21.779-16.555 23.342-23.195.625-2.128.859-3.309 1.139-5.009 2.564 4.863 2.109 11.499-.061 16.357zM287.658 118.468c-2.146.242-4.131 2.178-4.131 2.178 4.314.523 9.816 4.546 13.059 7.258-1.953.45-3.461 2.645-3.461 2.645 5.43.326 20.328 13.938 23.277 16.152 1.879 1.643 2.631 10.1 1.973 12.314-.918 2.941-4.326 4.854-7.699 5.076l-1.139.056c.83-1.064 1.51-2.241 1.002-3.642-1.459-3.926-6.682-11.333-10.805-12.016-3.863-.808-7.902-1.235-11.379-2.985-7.707-5.006-5.848-12.351-10.826-21.081-3.83-6.709-13.756-11.146-22.307-14.005 7.111.806 15.379.889 21.174-2.873.471-.205 8.264 5.465 11.262 10.923z"></path><path fill="#fd0" stroke="#fd0" stroke-width=".09" d="M278.438 135.574c.135 1.385-13.039 10.287-15.672 14.131-.785-1.557-2.055-3.155-3.744-4.281l-.135.13c-.689 3.795-3.141 11.881-13.277 19.777-2.199.493-4.721.104-6.933-.226l-2.028-.462c1.721-.868 3.459-2.549 4.33-4.167 3.687-5.383-1.074-13.394 4.887-18.014 1.744-1.276 3.629-2.328 5.594-3.242l12.924-6.073c10.488-5.281 9.316-8.001 9.619-8.945 2.823 3.224 3.825 7.295 4.435 11.372z"></path><path fill="#00519e" stroke="#00519e" stroke-width=".09" d="M249.563 62.071c6.533.513 7.416 5.168 9.215 6.976 2.645 2.581 4.855 3.338 9.816 3.008.27.08-2.486 1.562-4.631 2.1-2.924.726-9.814-.746-11.369-4.86-1.574-4.777-8.565-6.125-10.682-7.387z"></path><path fill="#fd0" stroke="#fd0" stroke-width=".09" d="M105.932 52.542c-.521 1.323-.96 2.885-1.417 3.406-3.041 2.285-4.253 5.925-5.841 9.876-5.135 8.716-10.238 14.18-9.193 17.7 2.239 5.754 11.86 12.054 15.604 14.723.311.478.413 20.386-5.356 26.102-2.25 1.889-4.819 4.042-8.319 3.195-1.517-.307-2.438-1.683-2.688-2.92.311-4.164 4.821-6.564 7.954-9.216 3.926-2.492 6.325-6.342 5.623-10.883-.329-2.323-1.658-4.336-2.843-6.391l-19.65-13.907c-3.457-3.009-5.01-9.06-2.651-14.999-.506-.213-.977.231-1.313.495-6.23 5.958-8.453 16.039-5.137 23.542 1.548 4.688 7.736 13.997 6.469 19.309-1.295 4.819 6.086 7.765 3.975 12.249-1.136 2.964-.521 7.589 6.695 10.17.114.145.376.25.329.45-4.712 3.414-10.994 8.178-13.829 12.828-1.242 2.65-3.796 13.763-3.796 13.763 4.712 4.231 13.389 13.141 13.583 15.659.117.143 20.551.704 20.702.545.832-.797 1.742-2.152 1.664-3.305-.435-4.54-7.185-6.742-11.403-8.104-2.238-.819-5.17-2.245-5.295-4.713-.073-1.847 1.356-3.419 3.234-4.122 2.457-.841 18.272-9.984 21.563-14.162.406-.537.623-.72.623-.72l20.634 13.261 12.798 13.247c2.578.776 11.147 2.559 11.147 2.559 3.424.99 3.76 3.303 3.86 5.289.331.463 18.791.798 18.986.529 4.906-3.193 1.518-7.271.807-7.865-2.936-2.885-5.908-3.968-15.273-5.5-2.016-.349-6.968-1.826-8.937-4.166-2.966-2.759-2.208-6.641-2.337-10.27-.154-1.946.002-4.074-.811-5.738l.077-.059c-.799-1.958-3.017-4-5.055-5.199l-10.903-5.229-8.616-4.007c-2.833-1.327-5.333-3.523-5.645-6.526.234-2.143 2.138-3.599 4.056-4.698 6.623-3.495 13.074-6.064 20.458-7.879 2.862-.76 19.998-3.998 19.998-3.998 5.33-.564 12.269-2.96 15.612.639.52.256 3.006-1.325 3.089-1.539.228-.855.181-2.528-.235-3.34-3.528-5.324-6.635-6.048-13.327-6.664-2.185-.165-1.694-.017-3.81.189-.341-.557.775-3.274-2.319-5.933 4.261-3.667 7.115-7.619 10.544-11.696 1.86-1.924 4.39-2.518 7.195-2.259l2.113.474c.348-.154 2.319-8.225-2.772-10.107-3.83-1.373-9.138-2.093-12.718.261-3.792 2.356-5.448 5.714-8.767 8.498-2.578 2.603-6.09 5.037-9.601 6.852-1.326 1.281-2.476-.369-3.748-.615-3.522-1.39-8.325-.975-12.063-.767-.889.221-12.708 4.056-22.97-3.082l.151-.115c2.522.818 5.853 2.155 8.442.837 1.479-1.182.885-3.24.336-4.568.194-.594-.342-1.827.828-1.941 2.069-.041 4.193-.977 5.013-2.796.761-1.465.678-3.11.704-4.796.661-.945 1.206-2.034.751-3.124-1.75-2.129-4.842-2.043-7.086-3.376-3.462-2.147-9.446-5.747-13.778-6.144-1.119-.393-2.732.295-4.023.096-.557-.042-1.892.318-2.092.695z"></path><path fill="#00519e" stroke="#00519e" stroke-width=".09" d="M107.907 53.306c-1.867 1.984 1.731 3.022 1.219 4.532-1.602 4.229-.893 9.265 2.258 12.808.613.539 1.301.945 2.152 1.032 1.372-.258 1.275-1.673 1.928-2.509.504-1.309 2.238-2.604 3.801-2.791 2.354-.274 4.053 1.169 5.335 2.792.646.543 1.638.654 2.535.556.865-.126 1.308-.987 1.735-1.588.766-1.216.346-2.6.298-3.949.461-.566.644-1.27 1.173-1.802.087-.292-.076-.516-.172-.752-.734-.53-1.77-.55-2.586-.93-4.521-2.337-8.942-4.872-14.782-4.795-1.566-.635-2.305-2.935-4.894-2.604z"></path><path fill="#fd0" stroke="#fd0" stroke-width=".09" d="M115.217 59.864c-.111.35.208.723.597.772 1.004.218 1.918.787 3.033.641 1.011-.511 1.213-1.567 1.57-2.464-.071-.345-3.94-.112-5.2 1.051z"></path><path fill="#00519e" stroke="#00519e" stroke-width=".09" d="M102.517 67.246c-5.055 8.536-9.308 14.378-9.308 14.378 2.222 7.872 14.88 11.934 15.964 14.17.96 2.848 3.96 5.193 6.857 6.974-.751-4.428.063-8.103.063-8.103 1.835 8.013 14.767 14.204 22.282 14.131-6.511-2.482-9.905-10.247-9.905-10.247 4.808 6.098 17.487 6.771 21.225 6.007-1.605-.048-5.748-1.98-9.534-4.472-.938-.772 16.517 4.417 24.902.082 1.125-.661 2.313-1.47 3.206-2.389-9.146 1.112-17.771-1.294-17.771-1.294 7.561-1.443 6.553-1.861 14.636-4.654-4.002-2.344-8.618-2.634-12.697-2.431-2.171.191-5.777-.231-7.688-.862l.008-.125c3.888-1.222 7.777-2.458 12.262-2.26-1.675-.932-6.479-1.513-8.506-1.934-7.633-1.915-11.411 3.578-18.64 1.171.817 2.253 2.785 3.751 2.239 6.94-4.082-4.067-9.524-6.22-13.758-10.138-3.801-3.108-7.113-6.89-9.735-10.625-2.019-3.366-2.997-7.129-2.422-11.207-.446-.638-2.547 4.97-3.68 6.888z"></path><path fill="#00519e" stroke="#00519e" stroke-width=".09" d="M118.525 69.315c-.84.639-1.104 1.51-1.628 2.275l.112.503c1.767.963 4.041 2.346 6.212 1.223.468-.41.97-.415 1.335-.925-.242-1.018-1.01-1.939-1.914-2.693-.806-.563-1.65-1.054-2.637-1.303-.71-.066-.967.681-1.48.92zM165.404 78.127l-.007.124c1.822.274 3.498.896 4.81 1.964-4.674.303-8.123 1.904-12.155 3.754.426.377 7.112 3.936 8.337 4.304 3.673-3.001 6.887-6.177 9.892-9.44-1.644-.853-3.425-2.423-3.972-4.09-.314-1.056-.642-2.186-.308-3.362-2.13 2.285-3.93 4.753-6.597 6.746zM73.735 93.867l6.465 11.837c.842 2.428 1.685 5.162.908 7.789-.3 1.782 9.988 3.374 9.253 4.981 4.155-3.381 8.976-7.176 7.8-12.76-.527-6.963-21.781-16.554-23.344-23.194-.625-2.128-.861-3.309-1.138-5.009-2.564 4.862-2.108 11.498.056 16.356zM108.845 118.468c2.144.242 4.128 2.178 4.128 2.178-4.313.523-9.814 4.546-13.058 7.258 1.955.45 3.46 2.645 3.46 2.645-5.425.326-20.33 13.938-23.276 16.152-1.88 1.643-2.63 10.1-1.974 12.314.919 2.941 4.323 4.854 7.701 5.076l1.139.056c-.832-1.064-1.512-2.241-1.004-3.642 1.457-3.926 6.68-11.333 10.804-12.016 3.866-.808 7.904-1.235 11.377-2.985 7.711-5.006 5.851-12.351 10.826-21.081 3.833-6.709 13.759-11.146 22.308-14.005-7.112.806-15.375.889-21.172-2.873-.466-.205-8.26 5.465-11.259 10.923z"></path><path fill="#00519e" stroke="#00519e" stroke-width=".09" d="M118.064 135.574c-.134 1.385 13.038 10.287 15.671 14.131.787-1.557 2.056-3.155 3.745-4.281l.134.13c.69 3.795 3.142 11.881 13.276 19.777 2.204.493 4.723.104 6.936-.226l2.024-.462c-1.715-.868-3.457-2.549-4.326-4.167-3.688-5.383 1.073-13.394-4.885-18.014-1.749-1.276-3.631-2.328-5.596-3.242l-12.923-6.073c-10.49-5.281-9.318-8.001-9.618-8.945-2.828 3.224-3.83 7.295-4.438 11.372z"></path><path fill="#fd0" stroke="#fd0" stroke-width=".09" d="M146.941 62.071c-6.535.513-7.417 5.168-9.217 6.976-2.648 2.581-4.854 3.338-9.816 3.008-.272.08 2.489 1.562 4.634 2.1 2.917.726 9.812-.746 11.364-4.86 1.576-4.777 8.566-6.125 10.688-7.387z"></path></g><path fill="#fd0" d="m24.561 16.23-3.325 7.55h7.368l.827-1.907h-4.743l2.477-5.643zM7.034 23.794l1.188-2.74h3.661l.755-1.747H8.977l.528-1.167h3.884l.787-1.895H7.668l-3.259 7.55zM20.331 21.845c.012-.016-1.947.022-2.655.022-1.23 0-1.625-.664-1.129-1.77.506-1.126 1.71-1.741 2.918-1.872.69-.075 2.42-.038 2.444-.028l.815-1.948c-.022-.007-2.072.003-2.995.003-2.564 0-4.83 1.356-5.8 3.513-.758 1.69-.652 4.075 2.27 4.075.964 0 3.286 0 3.305-.022z"></path><path fill="#fff" d="m24.097 15.784-3.326 7.549h7.368l.827-1.906h-4.743l2.477-5.643zM6.57 23.348l1.187-2.74h3.661l.755-1.748H8.512l.529-1.166h3.883l.787-1.895H7.203l-3.258 7.55zM19.866 21.4c.011-.016-1.947.02-2.655.02-1.23 0-1.625-.663-1.129-1.768.507-1.127 1.71-1.742 2.919-1.873.689-.075 2.42-.038 2.444-.028l.814-1.948c-.022-.007-2.072.003-2.995.003-2.563 0-4.83 1.355-5.799 3.513-.759 1.69-.653 4.074 2.27 4.074.963 0 3.286 0 3.304-.02z"></path><path fill="#00519e" d="m23.98 15.674-3.325 7.55h7.367l.828-1.906h-4.743l2.477-5.644zM6.453 23.238l1.188-2.74h3.661l.755-1.747H8.396l.528-1.167h3.884l.787-1.895H7.087l-3.259 7.55zM19.75 21.29c.012-.017-1.947.02-2.655.02-1.23 0-1.625-.663-1.129-1.768.506-1.127 1.71-1.743 2.919-1.874.689-.074 2.42-.038 2.443-.027l.815-1.948c-.022-.007-2.072.003-2.995.003-2.563 0-4.83 1.355-5.799 3.512-.76 1.691-.653 4.075 2.27 4.075.963 0 3.286 0 3.304-.021zM5.266 24.482h-.738l-.552 1.398h.29l.243-.615h.42l.094-.238h-.42l.121-.308h.448zM5.307 25.319c-.135.34-.083.599.315.599.4 0 .655-.258.79-.6l.33-.836h-.29l-.31.783c-.067.172-.18.415-.426.415-.247 0-.166-.243-.098-.415l.309-.783h-.29zM7.94 24.6c-.054-.094-.213-.155-.346-.155a.69.69 0 0 0-.6.419c-.085.217.02.308.181.382.1.043.226.084.169.228-.043.108-.153.203-.271.203-.125 0-.191-.097-.188-.205l-.256.173c.04.161.145.273.35.273a.74.74 0 0 0 .678-.48c.186-.468-.443-.37-.35-.605.036-.091.151-.158.244-.158.096 0 .15.044.177.115zM9.18 24.6c-.054-.094-.213-.155-.345-.155a.69.69 0 0 0-.6.419c-.085.217.019.308.18.382.1.043.226.084.17.228-.043.108-.154.203-.272.203-.124 0-.19-.097-.188-.205l-.255.173c.039.161.145.273.35.273a.74.74 0 0 0 .678-.48c.185-.468-.443-.37-.35-.605.035-.091.15-.158.243-.158.097 0 .15.044.178.115z"></path><path fill="#00519e" fill-rule="evenodd" d="M9.608 25.272h.048c.146 0 .3.008.229.19-.072.18-.213.2-.37.2h-.06zm-.53.608h.456c.27 0 .524-.122.632-.397.061-.153.048-.32-.116-.35a.52.52 0 0 0 .237-.27c.11-.279-.02-.38-.296-.38h-.36zm.756-1.18h.037c.123 0 .195.038.138.18-.057.145-.141.184-.283.184H9.69zM11.31 25.586l-.003.294h.31l.002-1.435h-.225l-1.146 1.435h.305l.24-.294zm.006-.223h-.353l.364-.508h.004z" clip-rule="evenodd" data-source="https://football-logos.cc"></path><path fill="#00519e" d="m12.292 25.643.458-1.16h-.29l-.552 1.397h.7l.095-.237zM13.288 25.643l.458-1.16h-.29l-.552 1.397h.7l.094-.237zM16.201 24.527a.55.55 0 0 0-.299-.082c-.436 0-.872.35-1.03.747-.151.386.025.726.443.726.12 0 .243-.036.37-.084l.128-.324a.7.7 0 0 1-.388.148c-.27 0-.343-.236-.25-.471.095-.241.35-.483.628-.483.125 0 .225.056.27.15zM16.444 25.643l.458-1.16h-.29l-.552 1.397h.7l.095-.237zM17.27 25.319c-.135.34-.083.599.316.599s.654-.258.79-.6l.33-.836h-.29l-.31.783c-.068.172-.18.415-.427.415-.246 0-.166-.243-.098-.415l.31-.783h-.29z"></path><path fill="#00519e" fill-rule="evenodd" d="M19.091 25.272h.048c.146 0 .3.008.229.19-.072.18-.214.2-.37.2h-.06zm-.53.608h.456c.27 0 .524-.122.632-.397.06-.153.048-.32-.116-.35a.52.52 0 0 0 .237-.27c.11-.279-.02-.38-.296-.38h-.36zm.756-1.18h.037c.123 0 .195.038.138.18-.057.145-.141.184-.284.184h-.035z" clip-rule="evenodd"></path><path fill="#00519e" d="m21.011 25.643.458-1.16h-.29l-.552 1.397h.7l.095-.237zM21.837 25.319c-.135.34-.083.599.316.599s.654-.258.789-.6l.33-.836h-.29l-.309.783c-.068.172-.18.415-.427.415-.246 0-.166-.243-.098-.415l.31-.783h-.29zM23.59 24.72h.555l-1.114 1.16h1.08l.093-.237h-.617l1.111-1.16h-1.014zM25.214 24.72h.48l.093-.238h-.77l-.552 1.398h.77l.094-.237h-.48l.15-.378h.461l.094-.238h-.462z"></path><path fill="#00519e" fill-rule="evenodd" d="M26.45 25.29c.211-.031.386-.209.456-.387.118-.299-.037-.42-.33-.42h-.393l-.552 1.397h.29l.222-.563h.004l.139.563h.35zm-.065-.586h.04c.153 0 .256.034.188.206-.067.171-.197.215-.357.215h-.038z" clip-rule="evenodd"></path><path fill="#00519e" d="m27.5 24.445-.566 1.435h.29l.375-.95h.004l.397.978h.21l.563-1.426h-.29l-.372.94h-.004l-.397-.977z"></path><path fill="none" stroke="#00519e" stroke-miterlimit="3.864" stroke-width=".18295665" d="M.542 14.8H31.92" data-source="https://football-logos.cc"></path><!-- source: https://football-logos.cc --></svg>