<svg xmlns="http://www.w3.org/2000/svg" data-name="Calque 1" viewBox="5.28 0.67 75.25 97.86"><metadata xmlns:fl="https://football-logos.cc/switzerland/sion">dl1_bbe08d1a4540e3f8d3b4388b50548f38eb6286c69c78fdf3247e5107b4921a41</metadata><!-- Source: https://football-logos.cc --><defs data-source="https://football-logos.cc"><clipPath id="a"><path fill="none" d="M0 0h278v103H0z"></path></clipPath></defs><g clip-path="url(#a)" data-source="https://football-logos.cc"><path fill="#170d0a" d="M80.53 20.71c-.01 3.42.05 7.45-.15 11.48-.16 3.27-.44 6.52-.87 9.77-.58 4.35-1.45 8.63-2.67 12.84-2.52 8.76-6.74 16.66-12.22 23.95-3.93 5.23-8.61 9.74-13.62 13.93a80 80 0 0 1-7.72 5.73c-.26.17-.44.16-.7 0-4.45-2.75-8.49-6.02-12.31-9.58-6.52-6.08-11.83-13.07-16.01-20.91-3.03-5.68-5.13-11.7-6.54-17.96-.75-3.32-1.29-6.67-1.68-10.04-.55-4.82-.75-9.67-.75-14.52 0-6.45 0-12.9-.01-19.35 0-.46.16-.57.57-.62 3.25-.41 6.5-.84 9.76-1.26 3.19-.41 6.38-.81 9.56-1.22 2.89-.38 5.78-.77 8.67-1.15 2.83-.37 5.65-.75 8.48-1.09 1.2-.15 2.37.19 3.55.33 2.19.26 4.37.56 6.56.84 2.41.31 4.83.63 7.24.95 2.14.28 4.27.55 6.41.83 2.17.28 4.33.57 6.5.85s4.33.58 6.51.83c1.41.16 1.41.12 1.41 1.51v13.89ZM42.52 97.37v-.51c0-23.53 0-47.05.01-70.57 0-.45-.12-.53-.55-.53-11.78.01-23.55.01-35.33 0-.4 0-.52.08-.52.5.06 5.13.32 10.25.99 15.34a92 92 0 0 0 2.31 11.71c2.76 10.36 7.86 19.51 14.66 27.77 3.57 4.33 7.63 8.19 12.02 11.7 2.02 1.62 4.11 3.15 6.4 4.58Zm.81-.02c.18-.11.28-.17.37-.23 2.99-1.99 5.82-4.2 8.52-6.56 4.67-4.07 8.99-8.47 12.63-13.5 4.99-6.89 8.82-14.32 11.19-22.48 1.74-5.98 2.74-12.08 3.25-18.27.28-3.33.4-6.66.43-10 0-.47-.14-.56-.58-.55-11.73.01-23.46 0-35.18.01-.72 0-.63-.09-.63.64zM24.3 24.97c5.88 0 11.76 0 17.64.01.48 0 .6-.12.6-.59-.02-7.27-.01-14.54-.01-21.81 0-1.01 0-1.03-1.03-.91-2.66.33-5.32.66-7.98 1.01-2.89.38-5.77.78-8.66 1.15-3.18.41-6.37.8-9.55 1.21-2.9.38-5.81.79-8.71 1.15-.4.05-.44.19-.44.52 0 5.92.01 11.84 0 17.76 0 .42.12.51.52.5 5.88-.01 11.76-.01 17.64-.01Zm37.21 0c5.9 0 11.79 0 17.69.01.41 0 .52-.08.52-.5-.02-5.91-.01-11.81-.01-17.72v-.25c.02-.2-.06-.28-.27-.3-2.3-.29-4.6-.59-6.9-.89-2.1-.27-4.2-.55-6.31-.82-2.43-.32-4.86-.64-7.29-.95-2.38-.31-4.77-.61-7.15-.92-2.64-.35-5.29-.69-7.93-1.06-.43-.06-.54.03-.54.48.02 7.45.02 14.91 0 22.36 0 .5.15.57.6.57 5.86-.02 11.73-.01 17.59-.01"></path><path fill="#fff" d="M42.52 97.37c-2.29-1.43-4.38-2.96-6.4-4.58-4.39-3.51-8.45-7.37-12.02-11.7-6.8-8.26-11.9-17.41-14.66-27.77a92 92 0 0 1-2.31-11.71c-.67-5.09-.93-10.21-.99-15.34 0-.42.11-.5.52-.5 11.78.01 23.55.01 35.33 0 .43 0 .55.08.55.53-.01 23.53-.01 47.05-.01 70.57v.51Zm-4.27-61.58h-.65c-2.56 0-5.11 0-7.67.02-.37 0-.51-.11-.62-.45-.53-1.7-1.09-3.4-1.64-5.09-.29-.9-.59-1.79-.92-2.77-.88 2.69-1.73 5.26-2.55 7.85-.11.34-.25.46-.61.45-1.3-.03-2.59-.03-3.88-.04h-4.33c.08.21.25.27.38.36 2.09 1.51 4.18 3.02 6.28 4.5.29.2.31.37.21.67-.83 2.48-1.65 4.97-2.47 7.45-.03.1-.14.19 0 .31.08-.06.17-.11.24-.17 2.13-1.54 4.26-3.07 6.38-4.62.27-.2.44-.21.71 0 .71.54 1.44 1.05 2.16 1.57 1.5 1.08 2.99 2.17 4.57 3.31-.07-.23-.11-.36-.15-.5-.74-2.27-1.49-4.54-2.23-6.81q-.32-.98.52-1.57c2.06-1.46 4.11-2.93 6.28-4.48Zm.03 21.26h-.61c-2.57 0-5.15 0-7.72.01-.36 0-.49-.11-.6-.45-.82-2.58-1.67-5.16-2.51-7.73-.17.07-.15.22-.19.34-.8 2.46-1.61 4.91-2.4 7.37-.11.35-.25.48-.64.48-2.56-.03-5.11-.03-7.67-.03-.17 0-.35-.05-.53.07 2.24 1.61 4.44 3.21 6.67 4.78.3.21.31.38.21.68-.33.94-.64 1.89-.96 2.84-.54 1.64-1.08 3.28-1.65 5 .13-.09.2-.13.26-.17 2.16-1.55 4.32-3.1 6.46-4.67.3-.22.48-.21.77 0 .96.73 1.95 1.42 2.92 2.13 1.24.89 2.47 1.78 3.79 2.73-.05-.16-.06-.21-.08-.28-.83-2.51-1.65-5.03-2.5-7.54-.12-.35-.06-.53.25-.74 2.21-1.56 4.41-3.14 6.73-4.8Z"></path><path fill="#ed2424" d="M43.32 97.35V26.4c0-.72-.09-.64.63-.64 11.73 0 23.46 0 35.18-.01.44 0 .58.09.58.55-.03 3.34-.15 6.68-.43 10-.51 6.19-1.51 12.29-3.25 18.27-2.37 8.16-6.21 15.59-11.19 22.48-3.64 5.03-7.96 9.42-12.63 13.5-2.71 2.36-5.53 4.57-8.52 6.56-.09.06-.19.12-.37.23Zm10.86-26.48h4.88c.17 0 .34 0 .5-.02 2.34-.45 4.45-1.38 6.18-3.04 1.72-1.65 2.8-3.63 2.88-6.03.1-2.87-1-5.36-2.91-7.44-3.7-4.02-7.5-7.96-11.28-11.91-.76-.8-1.44-1.62-1.71-2.72-.18-.74-.26-1.48-.24-2.24.02-.93.38-1.7 1.11-2.27a4.6 4.6 0 0 1 2.8-1.02c2.47-.04 4.95-.04 7.42-.07.38 0 .54.11.53.51-.02.86 0 1.71-.01 2.57 0 .3.09.4.4.39q1.845-.03 3.69 0c.34 0 .42-.12.41-.44-.05-1.46-.07-2.93-.11-4.39-.04-1.62-1.18-2.73-2.83-2.73H54.73c-2.9 0-5.53 1.77-6.57 4.45a9.1 9.1 0 0 0-.56 4.54c.3 2.35 1.21 4.43 2.84 6.16 3.65 3.87 7.34 7.7 11.02 11.55.55.57 1.06 1.18 1.45 1.87 1.45 2.56.86 5.2-1.51 6.67-1.13.7-2.38 1.07-3.7 1.16-1.89.13-3.78 0-5.68.04-.42 0-.55-.17-.54-.56.02-.76-.01-1.51.01-2.27.01-.36-.07-.48-.46-.48-1.24.03-2.49.03-3.74 0-.4 0-.46.14-.46.48.02 1.61.01 3.22.01 4.84 0 1.39 1.01 2.4 2.4 2.4h4.93ZM24.3 24.97c-5.88 0-11.76 0-17.64.01-.41 0-.53-.09-.52-.5.02-5.92.01-11.84 0-17.76 0-.33.04-.47.44-.52 2.91-.36 5.81-.77 8.71-1.15 3.18-.41 6.37-.8 9.55-1.21 2.89-.37 5.77-.78 8.66-1.15 2.66-.35 5.32-.68 7.98-1.01 1.03-.13 1.03-.11 1.03.91 0 7.27 0 14.54.01 21.81 0 .47-.11.6-.6.59-5.88-.02-11.76-.01-17.64-.01Zm12.38-13.05c0-.48-.01-.95 0-1.43.01-.26-.08-.42-.31-.55-1.01-.59-2.1-.93-3.26-1.1-2.76-.4-5.33 1.03-6.32 3.61-.79 2.04-.78 4.14-.32 6.25.33 1.49 1.03 2.77 2.31 3.68 2.25 1.6 5.58 1.17 7.72-.12.14-.09.21-.19.21-.36v-3.11c0-.13.01-.3-.17-.31-.42-.02-.83-.03-1.24 0-.29.03-.3.36-.47.53-.21.21-.4.44-.63.63-1.27 1.03-2.81.76-3.54-.68-.96-1.93-.92-3.9.05-5.82.28-.56.73-.98 1.38-1.12 1.16-.25 2.03.28 2.65 1.15.36.51.75.67 1.31.61.1-.01.2 0 .3 0 .26.03.35-.08.35-.34-.01-.51 0-1.02 0-1.53Zm-23.46 4.12c0 2.27.01 4.54 0 6.81 0 .42.07.61.56.58.76-.05 1.53-.04 2.29-.01.38.02.47-.11.47-.47-.02-1.58.01-3.16-.02-4.73-.01-.49.08-.68.63-.65 1.11.05 2.22 0 3.34.02.33 0 .47-.06.46-.42-.03-.75-.03-1.51 0-2.27.01-.33-.11-.41-.43-.41-1.18.02-2.36 0-3.54.01-.33 0-.48-.06-.46-.43q.045-.885 0-1.77c-.02-.36.11-.44.45-.43 1.41.02 2.82 0 4.23.02.42 0 .59-.07.56-.53-.05-.69-.04-1.38 0-2.07.02-.38-.09-.5-.49-.49-2.51.02-5.01.02-7.52 0-.41 0-.53.09-.53.5.02 2.25.01 4.5.01 6.76Z"></path><path fill="#fff" d="M61.51 24.97c-5.86 0-11.73 0-17.59.01-.45 0-.6-.07-.6-.57.02-7.45.02-14.91 0-22.36 0-.45.11-.54.54-.48 2.64.36 5.29.71 7.93 1.06 2.38.31 4.77.61 7.15.92 2.43.32 4.86.64 7.29.95 2.1.28 4.2.55 6.31.82 2.3.3 4.6.6 6.9.89.22.03.3.1.27.3v.25c0 5.91 0 11.81.01 17.72 0 .42-.11.5-.52.5-5.9-.02-11.79-.01-17.69-.01m14.16-9.05a10 10 0 0 1-.17-.38c-.93-2.13-1.87-4.26-2.79-6.39-.12-.28-.26-.39-.58-.39q-1.62.03-3.24 0c-.28 0-.36.07-.36.35q.015 6.96 0 13.92c0 .33.12.37.4.36.76-.02 1.53-.04 2.29 0 .49.03.63-.1.62-.6-.03-2.45-.02-4.89-.02-7.38.19.16.22.36.3.53 1.03 2.36 2.06 4.71 3.08 7.07.12.28.25.4.57.39.91-.03 1.83-.02 2.74 0 .3 0 .4-.06.39-.38-.01-4.62-.01-9.25 0-13.87 0-.34-.11-.4-.42-.4-.76.02-1.53.03-2.29 0-.39-.02-.46.11-.46.47.02 2.06.01 4.11 0 6.17 0 .15.05.32-.08.52Zm-23.56-4.48V9.61c0-.17 0-.3-.24-.35-1.23-.27-2.47-.51-3.74-.48-1.89.04-3.29 1.1-3.79 2.84-.6 2.09.42 4.47 2.35 5.52.58.31 1.16.64 1.73.97.29.17.53.39.7.68.25.42.23.85 0 1.26-.21.4-.6.5-1.02.47-1.03-.08-1.81-.56-2.36-1.42-.17-.25-.06-.71-.38-.78-.27-.06-.59.16-.9.21-.18.03-.24.07-.24.26.01 1.2 0 2.4 0 3.6 0 .16.03.26.21.33 1.49.56 2.99.94 4.61.67 1.99-.33 3.47-1.83 3.75-3.81s-.69-3.8-2.48-4.67c-.52-.25-1.05-.48-1.56-.74-.44-.23-.85-.53-1.02-1.03-.16-.46-.26-.96.12-1.35.39-.4.88-.3 1.34-.11.58.23 1.07.62 1.27 1.18.22.6.59.69 1.12.62.07 0 .14-.01.2 0 .26.04.34-.07.34-.33-.02-.58 0-1.15 0-1.73Zm5.75 4.62c0 1.72.19 3.41 1.02 4.95.81 1.51 2.05 2.35 3.82 2.38 1.85.03 3.22-.74 4.1-2.35.68-1.23.92-2.59 1-3.97.12-1.87-.01-3.71-.76-5.45-.76-1.74-2.08-2.78-4.04-2.85-2-.07-3.41.85-4.26 2.64-.7 1.47-.88 3.04-.88 4.64Zm-4.44-.03v6.96c0 .32.07.43.41.42.91-.03 1.83-.02 2.74 0 .26 0 .33-.07.33-.33V9.11c0-.3-.11-.34-.37-.34q-1.32.03-2.64 0c-.36-.01-.47.07-.47.45.02 2.27.01 4.54.01 6.81Z"></path><path fill="#170d0a" d="M38.24 35.8c-2.17 1.55-4.22 3.02-6.28 4.48-.84.6-.84.59-.52 1.57.74 2.27 1.49 4.54 2.23 6.81l.15.5c-1.58-1.14-3.08-2.23-4.57-3.31-.72-.52-1.46-1.03-2.16-1.57-.27-.21-.44-.2-.71 0-2.12 1.55-4.25 3.08-6.38 4.62-.08.06-.16.11-.24.17-.13-.12-.02-.21 0-.31.82-2.48 1.63-4.97 2.47-7.45.1-.31.08-.47-.21-.67-2.1-1.49-4.19-3-6.28-4.5-.13-.09-.3-.14-.38-.36h4.33c1.3 0 2.59 0 3.88.04.37.01.51-.12.61-.45.83-2.59 1.68-5.16 2.55-7.85.32.98.62 1.87.92 2.77.55 1.7 1.1 3.39 1.64 5.09.1.34.25.45.62.45 2.56-.02 5.11-.02 7.67-.02h.65Zm-6.15 10.99c-.06-.22-.07-.28-.09-.34-.59-1.81-1.17-3.62-1.8-5.41-.15-.41-.04-.61.29-.83.87-.6 1.73-1.22 2.59-1.83.74-.53 1.48-1.07 2.34-1.68h-.64c-1.84 0-3.69 0-5.53.02-.34 0-.49-.1-.59-.42-.48-1.55-.99-3.09-1.5-4.63-.12-.38-.19-.78-.44-1.16-.64 1.96-1.27 3.87-1.88 5.79-.09.3-.22.43-.55.41-.55-.03-1.1-.01-1.64-.01h-4.52c.14.11.23.2.33.27 1.53 1.1 3.05 2.2 4.6 3.28.3.21.37.39.24.73-.18.44-.31.9-.46 1.35-.48 1.46-.96 2.91-1.47 4.45.13-.08.18-.11.23-.15 1.61-1.16 3.22-2.32 4.82-3.49.23-.17.39-.2.64 0 .57.45 1.17.86 1.76 1.29 1.06.76 2.11 1.53 3.28 2.37Z"></path><path fill="#170d0a" d="M38.28 57.05c-2.32 1.66-4.52 3.25-6.73 4.8-.31.22-.36.39-.25.74.85 2.51 1.67 5.03 2.5 7.54.02.06.04.12.08.28-1.31-.95-2.55-1.84-3.79-2.73-.98-.71-1.96-1.4-2.92-2.13-.29-.22-.47-.23-.77 0-2.14 1.57-4.31 3.12-6.46 4.67-.06.05-.13.09-.26.17.57-1.71 1.1-3.36 1.65-5 .31-.95.63-1.9.96-2.84.1-.3.09-.47-.21-.68-2.22-1.57-4.43-3.17-6.67-4.78.18-.11.36-.07.53-.07 2.56 0 5.11 0 7.67.03.39 0 .53-.13.64-.48.79-2.46 1.6-4.92 2.4-7.37.04-.12.02-.27.19-.34.84 2.58 1.69 5.15 2.51 7.73.11.34.23.45.6.45 2.57-.02 5.15-.01 7.72-.01h.61ZM21.5 67.91c.16.02.23-.09.33-.15 1.5-1.08 3.01-2.16 4.5-3.25.33-.24.55-.28.9-.02 1.27.95 2.56 1.88 3.85 2.8.31.22.59.49 1.02.66-.05-.17-.07-.28-.1-.39-.58-1.77-1.15-3.55-1.75-5.32-.1-.31-.09-.49.21-.68.7-.46 1.38-.97 2.06-1.46.96-.69 1.91-1.38 2.97-2.14-2.14 0-4.14-.01-6.15.01-.39 0-.54-.12-.65-.47-.6-1.9-1.22-3.79-1.83-5.69-.14.05-.14.15-.17.25-.59 1.82-1.2 3.64-1.78 5.47-.11.34-.25.45-.62.44-1.88-.02-3.75-.02-5.63-.01-.13 0-.29-.08-.41.09 1.63 1.17 3.25 2.34 4.89 3.49.28.2.33.38.22.69-.48 1.41-.95 2.82-1.41 4.24-.15.48-.37.94-.43 1.45ZM54.18 70.88h-4.93c-1.4 0-2.4-1.01-2.4-2.4 0-1.61 0-3.22-.01-4.84 0-.35.06-.49.46-.48 1.24.03 2.49.03 3.74 0 .39 0 .47.12.46.48-.03.75 0 1.51-.01 2.27-.01.39.12.57.54.56 1.89-.04 3.79.1 5.68-.04 1.32-.09 2.57-.46 3.7-1.16 2.37-1.47 2.96-4.12 1.51-6.67-.39-.69-.9-1.3-1.45-1.87-3.67-3.85-7.36-7.68-11.02-11.55-1.63-1.73-2.54-3.81-2.84-6.16-.2-1.57-.01-3.08.56-4.54 1.04-2.67 3.67-4.44 6.57-4.45H65.9c1.65 0 2.79 1.11 2.83 2.73.04 1.46.06 2.93.11 4.39.01.32-.07.44-.41.44q-1.845-.03-3.69 0c-.3 0-.4-.09-.4-.39.02-.86 0-1.71.01-2.57.01-.39-.15-.51-.53-.51-2.47.03-4.95.03-7.42.07-1.04.02-1.98.38-2.8 1.02-.73.57-1.1 1.33-1.11 2.27-.01.76.07 1.5.24 2.24.27 1.1.95 1.92 1.71 2.72 3.78 3.96 7.58 7.89 11.28 11.91 1.91 2.07 3 4.57 2.91 7.44-.08 2.4-1.16 4.39-2.88 6.03-1.73 1.66-3.84 2.59-6.18 3.04-.16.03-.33.02-.5.02zm6.1-40.18h-5.63c-2.54 0-4.97 1.59-5.84 3.95-1.35 3.67-.56 7.05 1.98 9.89 3.22 3.59 6.64 7 9.95 10.51 1 1.05 2.08 2.03 2.79 3.33 1.73 3.15.61 6.49-2.7 7.94a9.45 9.45 0 0 1-3.85.83c-1.68 0-3.36 0-5.03-.01-.78 0-1.15-.37-1.16-1.15 0-.61-.02-1.22 0-1.83.01-.29-.09-.36-.37-.35q-1.245.03-2.49 0c-.34-.01-.45.08-.44.43.02 1.37.05 2.73 0 4.1-.04 1.05.72 1.94 1.94 1.92 2.39-.06 4.78-.03 7.18-.04 1.01 0 2.05.1 3.03-.06 1.94-.32 3.7-1.12 5.19-2.41 2.05-1.77 3.26-3.96 3.1-6.73-.15-2.53-1.24-4.67-2.96-6.5-3.86-4.11-7.78-8.15-11.62-12.28-1.49-1.61-1.84-3.62-1.39-5.71.35-1.62 2.25-2.93 4.1-2.97 2.64-.06 5.28-.07 7.92-.1.65 0 .97.31.99.96q.03 1.035 0 2.07c0 .31.06.43.41.42q1.17-.045 2.34 0c.37.02.43-.12.42-.45-.05-1.23-.08-2.47-.09-3.7-.02-1.25-.83-2.07-2.08-2.07h-5.68ZM36.67 11.92c0 .51-.01 1.02 0 1.53 0 .26-.09.37-.35.34-.1-.01-.2-.02-.3 0-.56.06-.95-.1-1.31-.61-.62-.87-1.49-1.4-2.65-1.15-.65.14-1.09.56-1.38 1.12-.97 1.93-1.01 3.89-.05 5.82.72 1.45 2.27 1.72 3.54.68.23-.19.42-.42.63-.63.17-.17.18-.51.47-.53.41-.04.83-.02 1.24 0 .18 0 .17.18.17.31v3.11c0 .16-.07.27-.21.36-2.14 1.29-5.47 1.72-7.72.12-1.27-.91-1.98-2.18-2.31-3.68-.46-2.11-.47-4.21.32-6.25 1-2.58 3.57-4.01 6.32-3.61 1.16.17 2.25.5 3.26 1.1.23.14.32.29.31.55-.02.48 0 .95 0 1.43Zm-9.83 4.3c0 .63.05 1.45.24 2.26.4 1.63 1.15 3.02 2.76 3.74 2.06.92 4.06.57 6.02-.37.17-.08.17-.21.17-.36v-2.02c0-.11.09-.3-.12-.32-.15-.02-.33-.07-.46.1-.14.18-.28.37-.44.53-1.72 1.82-4.13 1.42-5.15-.85-.38-.85-.55-1.75-.55-2.68 0-1.35.2-2.65 1.01-3.78.78-1.1 2.03-1.45 3.29-.97.73.28 1.31.77 1.75 1.4.14.2.31.23.51.2.26-.04.14-.26.14-.4.02-.62-.01-1.25.02-1.87.01-.28-.1-.41-.33-.52-.8-.41-1.64-.7-2.53-.81-2.57-.32-4.84.72-5.8 3.25-.41 1.06-.53 2.16-.53 3.47M13.21 16.03c0-2.25.01-4.5-.01-6.76 0-.42.12-.51.53-.5 2.51.02 5.01.02 7.52 0 .4 0 .5.12.49.49-.03.69-.04 1.38 0 2.07.03.46-.15.54-.56.53-1.41-.02-2.82 0-4.23-.02-.34 0-.47.08-.45.43q.045.885 0 1.77c-.02.36.12.43.46.43 1.18-.02 2.36 0 3.54-.01.32 0 .44.07.43.41-.02.75-.03 1.51 0 2.27.02.37-.12.43-.46.42-1.11-.02-2.23.03-3.34-.02-.55-.02-.64.16-.63.65.03 1.58 0 3.16.02 4.73 0 .36-.09.48-.47.47-.76-.03-1.53-.04-2.29.01-.49.03-.56-.16-.56-.58.02-2.27 0-4.54 0-6.81Zm.64.07v5.18c0 .47-.16 1.1.08 1.38.28.34.93.05 1.42.11.36.04.48-.06.47-.45-.02-1.66 0-3.32-.02-4.98 0-.38.11-.47.47-.46.88.03 1.76.01 2.64 0 .43 0 1 .14 1.25-.07.29-.25.05-.84.1-1.27.04-.34-.08-.45-.43-.44-1.21.02-2.42 0-3.64.02-.29 0-.4-.05-.4-.37.02-1.05.02-2.11 0-3.16 0-.32.11-.38.4-.37 1.18.02 2.36.01 3.54 0 .43 0 .99.18 1.25-.07.29-.28.05-.84.1-1.27.04-.34-.08-.44-.43-.44-2.12.02-4.25.02-6.37 0-.36 0-.44.11-.44.45.02 2.07 0 4.14 0 6.22ZM75.66 15.92c.12-.2.08-.37.08-.52 0-2.06.01-4.11 0-6.17 0-.36.07-.48.46-.47.76.03 1.53.02 2.29 0 .31 0 .42.06.42.4-.01 4.62-.01 9.25 0 13.87 0 .32-.1.38-.39.38-.91-.02-1.83-.02-2.74 0-.32 0-.45-.11-.57-.39-1.01-2.36-2.05-4.72-3.08-7.07-.07-.17-.11-.36-.3-.53 0 2.49-.02 4.93.02 7.38 0 .51-.13.63-.62.6-.76-.05-1.53-.02-2.29 0-.28 0-.4-.03-.4-.36q.015-6.96 0-13.92c0-.28.08-.36.36-.35q1.62.03 3.24 0c.32 0 .46.11.58.39.92 2.13 1.86 4.26 2.79 6.39.05.11.1.22.17.38Zm-4.53-3.67.07-.02c.08.15.16.31.23.46l4.2 9.66c.12.29.27.45.62.42q.72-.06 1.44 0c.41.03.53-.1.53-.51-.02-3.85 0-7.7-.01-11.55 0-.41.18-.93-.08-1.19s-.79-.04-1.2-.09-.53.08-.53.5c.02 2.91.01 5.82.01 8.74v.45c-1.42-3.05-2.76-6.09-4.08-9.15-.18-.42-.39-.57-.84-.53-.56.04-1.13.04-1.69 0-.47-.03-.62.09-.61.58.03 2.55.02 5.1.02 7.65 0 1.53.02 3.06 0 4.59 0 .4.12.52.51.49.31-.03.63-.03.95 0 .41.04.49-.12.49-.5-.02-2.75 0-5.49 0-8.24v-1.75ZM52.1 11.45c0 .58-.01 1.15 0 1.73 0 .26-.08.37-.34.33-.06-.01-.13 0-.2 0-.53.07-.91-.03-1.12-.62-.2-.56-.7-.95-1.27-1.18-.46-.18-.96-.29-1.34.11-.37.39-.28.89-.12 1.35.17.5.58.79 1.02 1.03.51.27 1.04.49 1.56.74 1.8.87 2.76 2.68 2.48 4.67-.28 1.98-1.76 3.48-3.75 3.81-1.61.27-3.12-.11-4.61-.67-.18-.07-.21-.17-.21-.33v-3.6c0-.19.06-.23.24-.26.31-.05.63-.27.9-.21.33.07.22.52.38.78.56.86 1.34 1.34 2.36 1.42.42.03.8-.07 1.02-.47.22-.42.24-.84 0-1.26a1.9 1.9 0 0 0-.7-.68c-.57-.33-1.14-.65-1.73-.97-1.94-1.05-2.95-3.42-2.35-5.52.5-1.74 1.9-2.79 3.79-2.84 1.27-.03 2.5.21 3.74.48.23.05.24.18.24.35v1.83Zm-7.19 7.76v2.71c0 .25.11.33.33.41 1.04.36 2.11.55 3.22.49 1.85-.11 3.28-1.31 3.63-3.09.36-1.81-.46-3.42-2.14-4.23-.62-.3-1.28-.54-1.86-.93-.46-.31-.83-.7-1.02-1.23-.46-1.28.14-2.37 1.37-2.42.45-.02.88.1 1.29.32.61.32 1.04.8 1.37 1.39.06.1.09.22.24.2.17-.02.13-.17.13-.27v-2.42c0-.21-.11-.3-.29-.33-1.14-.22-2.29-.42-3.45-.31-.81.08-1.53.39-2.07 1.05-1.45 1.78-.86 4.74 1.18 5.92.44.25.91.48 1.35.73.52.29 1.03.61 1.39 1.09.87 1.15.22 2.74-1.2 2.92-.45.06-.89-.07-1.31-.22-.92-.34-1.6-.95-2.15-1.77ZM57.85 16.07c0-1.6.18-3.17.88-4.64.85-1.78 2.26-2.71 4.26-2.64 1.96.07 3.28 1.1 4.04 2.85.75 1.74.89 3.59.76 5.45-.09 1.38-.32 2.73-1 3.97-.89 1.6-2.25 2.38-4.1 2.35-1.77-.03-3.01-.87-3.82-2.38-.83-1.55-1.03-3.23-1.02-4.95Zm9.3.24c0-1.76-.16-3.3-.89-4.73-.77-1.5-2.01-2.2-3.71-2.12-1.54.07-2.55.88-3.2 2.21-.58 1.17-.77 2.43-.83 3.72-.08 1.8.07 3.58.88 5.23.68 1.37 1.79 2.14 3.35 2.15 1.58 0 2.77-.68 3.49-2.1.73-1.43.9-2.97.9-4.35ZM53.41 16.03c0-2.27.01-4.54-.01-6.81 0-.38.11-.46.47-.45.88.03 1.76.02 2.64 0 .26 0 .37.04.37.34-.01 4.66-.01 9.31 0 13.97 0 .26-.07.33-.33.33-.91-.02-1.83-.02-2.74 0-.34.01-.41-.1-.41-.42.01-2.32 0-4.64 0-6.96Zm.68.1v6.22c0 .32.07.44.41.42.41-.03.83-.03 1.24 0 .39.03.47-.12.47-.47-.02-2.62 0-5.23 0-7.85V9.86c0-.32-.09-.44-.42-.42-.41.03-.83.03-1.24 0-.39-.03-.46.11-.46.47.02 2.07 0 4.15 0 6.22"></path><path fill="#ed2424" d="M32.1 46.79c-1.17-.84-2.22-1.61-3.28-2.37-.59-.43-1.19-.83-1.76-1.28-.25-.2-.41-.16-.64 0-1.6 1.17-3.21 2.33-4.82 3.49-.05.04-.1.07-.23.15.51-1.53.99-2.99 1.47-4.45.15-.45.28-.91.46-1.35.14-.33.06-.52-.24-.73-1.54-1.08-3.07-2.19-4.6-3.28-.1-.07-.19-.16-.33-.27h4.52c.55 0 1.1-.02 1.64.01.33.02.46-.11.55-.41.61-1.92 1.24-3.83 1.88-5.79.25.38.31.78.44 1.16.52 1.54 1.02 3.08 1.5 4.63.1.32.24.43.59.42 1.84-.02 3.69-.01 5.53-.02h.64c-.85.61-1.59 1.15-2.34 1.68-.86.62-1.72 1.24-2.59 1.83-.32.22-.43.41-.29.83.63 1.79 1.2 3.61 1.8 5.41.02.06.03.12.09.34ZM21.5 67.9c.07-.51.28-.97.43-1.45.46-1.42.93-2.83 1.41-4.24.11-.31.06-.49-.22-.69-1.63-1.15-3.25-2.32-4.89-3.49.12-.17.28-.09.41-.09 1.88 0 3.75-.01 5.63.01.36 0 .51-.11.62-.44.58-1.83 1.19-3.64 1.78-5.47.03-.09.03-.2.17-.25.61 1.9 1.23 3.79 1.83 5.69.11.35.27.47.65.47 2-.02 4.01-.01 6.15-.01-1.06.76-2.01 1.45-2.97 2.14-.69.49-1.36 1-2.06 1.46-.3.2-.31.37-.21.68.6 1.77 1.17 3.54 1.75 5.32.03.11.06.21.1.39-.43-.17-.71-.44-1.02-.66-1.29-.92-2.58-1.85-3.85-2.8-.35-.26-.57-.22-.9.02-1.49 1.1-3 2.17-4.5 3.25-.09.07-.16.17-.33.15Z"></path><path fill="#fff" d="M60.28 30.7h5.68c1.25 0 2.07.82 2.08 2.07.02 1.23.05 2.47.09 3.7.01.33-.05.46-.42.45q-1.17-.045-2.34 0c-.35.01-.41-.12-.41-.42q.03-1.035 0-2.07-.015-.975-.99-.96c-2.64.03-5.28.04-7.92.1-1.85.04-3.75 1.35-4.1 2.97-.45 2.09-.1 4.1 1.39 5.71 3.84 4.12 7.76 8.17 11.62 12.28 1.72 1.83 2.81 3.97 2.96 6.5.16 2.77-1.05 4.96-3.1 6.73-1.49 1.29-3.25 2.09-5.19 2.41-.99.16-2.02.06-3.03.06-2.39.01-4.78-.02-7.18.04-1.22.03-1.98-.87-1.94-1.92.06-1.36.03-2.73 0-4.1 0-.35.1-.44.44-.43.83.03 1.66.02 2.49 0 .28 0 .38.07.37.35-.02.61-.01 1.22 0 1.83.01.78.38 1.15 1.16 1.15 1.68 0 3.36.01 5.03.01 1.34 0 2.63-.29 3.85-.83 3.31-1.45 4.43-4.79 2.7-7.94-.71-1.29-1.79-2.27-2.79-3.33-3.32-3.5-6.74-6.91-9.95-10.51-2.54-2.85-3.34-6.22-1.98-9.89.87-2.36 3.3-3.94 5.84-3.95h5.63ZM26.84 16.23c0-1.31.12-2.41.53-3.47.97-2.53 3.23-3.57 5.8-3.25.89.11 1.73.4 2.53.81.23.12.34.24.33.52-.03.62 0 1.25-.02 1.87 0 .14.12.36-.14.4-.2.03-.37 0-.51-.2-.44-.64-1.01-1.12-1.75-1.4-1.27-.49-2.51-.13-3.29.97-.81 1.13-1.02 2.43-1.01 3.78 0 .92.17 1.83.55 2.68 1.02 2.27 3.42 2.67 5.15.85.16-.17.3-.35.44-.53.13-.17.3-.11.46-.1.21.02.12.2.12.32v2.02c0 .15 0 .28-.17.36-1.96.94-3.96 1.29-6.02.37-1.62-.72-2.37-2.12-2.76-3.74-.19-.8-.23-1.62-.24-2.26M13.86 16.1V9.88c0-.33.08-.45.44-.45 2.12.02 4.25.02 6.37 0 .35 0 .47.09.43.44-.05.43.19 1-.1 1.27-.26.25-.82.07-1.25.07-1.18 0-2.36.01-3.54 0-.29 0-.41.05-.4.37.02 1.05.02 2.11 0 3.16 0 .32.11.37.4.37 1.21-.02 2.42 0 3.64-.02.36 0 .47.1.43.44-.05.44.19 1.02-.1 1.27-.25.22-.82.07-1.25.07-.88 0-1.76.02-2.64 0-.36-.01-.48.08-.47.46.02 1.66 0 3.32.02 4.98 0 .38-.11.49-.47.45-.49-.06-1.14.23-1.42-.11-.24-.29-.08-.91-.08-1.38v-5.18Z"></path><path fill="#ed2424" d="M71.14 12.26v9.99c0 .38-.08.54-.49.5-.31-.03-.63-.03-.95 0-.38.04-.52-.09-.51-.49.02-1.53 0-3.06 0-4.59 0-2.55.01-5.1-.02-7.65 0-.49.15-.62.61-.58.56.04 1.13.04 1.69 0 .45-.03.66.11.84.53 1.32 3.06 2.66 6.1 4.08 9.15v-.45c0-2.91.01-5.82-.01-8.74 0-.42.12-.55.53-.5s.94-.17 1.2.09.08.78.08 1.19c0 3.85 0 7.7.01 11.55 0 .41-.11.54-.53.51q-.72-.06-1.44 0c-.35.03-.49-.13-.62-.42q-2.085-4.83-4.2-9.66c-.07-.16-.15-.31-.23-.46l-.07.02ZM44.91 19.21c.55.82 1.24 1.43 2.15 1.77.42.15.86.28 1.31.22 1.43-.18 2.08-1.77 1.2-2.92-.37-.48-.87-.8-1.39-1.09-.45-.25-.91-.47-1.35-.73-2.04-1.18-2.62-4.14-1.18-5.92.53-.66 1.26-.97 2.07-1.05 1.17-.12 2.32.08 3.46.31.18.04.29.12.29.33v2.42c0 .1.05.25-.13.27-.15.02-.19-.1-.24-.2-.33-.59-.76-1.07-1.37-1.39-.41-.21-.83-.34-1.29-.32-1.22.06-1.83 1.14-1.37 2.42.19.53.56.92 1.03 1.23.58.39 1.24.63 1.86.93 1.68.81 2.49 2.42 2.14 4.23-.35 1.77-1.78 2.98-3.63 3.09-1.11.06-2.18-.13-3.22-.49-.21-.07-.33-.16-.33-.41.01-.9 0-1.81 0-2.71ZM67.15 16.32c0 1.38-.17 2.92-.9 4.35-.72 1.42-1.92 2.1-3.49 2.1-1.56 0-2.67-.78-3.35-2.15-.82-1.65-.97-3.43-.88-5.23.06-1.28.25-2.54.83-3.72.66-1.33 1.66-2.14 3.2-2.21 1.7-.08 2.94.62 3.71 2.12.73 1.43.89 2.97.89 4.73Zm-6.29-.13c0 .53-.02 1.05 0 1.58.05.85.1 1.71.49 2.49.27.53.69.87 1.32.9.64.03 1.12-.23 1.46-.76.2-.31.33-.64.4-1 .38-1.9.31-3.82.15-5.74-.05-.62-.19-1.23-.52-1.77-.33-.53-.79-.84-1.43-.82s-1.08.37-1.36.92c-.1.19-.17.39-.22.6-.34 1.18-.3 2.4-.29 3.62ZM54.09 16.13V9.91c0-.36.07-.5.46-.47.41.04.83.03 1.24 0 .33-.02.42.1.42.42-.02 1.53 0 3.06 0 4.59v7.85c0 .36-.08.51-.47.47-.41-.03-.83-.03-1.24 0-.34.02-.41-.11-.41-.42.01-2.07 0-4.15 0-6.22"></path><path fill="#170d0a" d="M60.87 16.19c0-1.21-.05-2.43.29-3.62.06-.2.13-.41.22-.6.28-.55.72-.9 1.36-.92.63-.02 1.1.29 1.43.82.33.55.47 1.16.52 1.77.17 1.92.23 3.83-.15 5.74-.07.35-.2.69-.4 1-.34.53-.82.79-1.46.76-.63-.03-1.05-.36-1.32-.9-.4-.78-.45-1.64-.49-2.49-.03-.53 0-1.05 0-1.58Zm.65 0v.79c.01.44.02.89.06 1.33.05.59.12 1.18.42 1.7.37.64 1.1.68 1.55.08.24-.32.35-.7.41-1.09.26-1.55.23-3.11.14-4.67-.04-.62-.1-1.24-.34-1.83-.18-.45-.44-.8-1.01-.78-.54.02-.72.39-.88.8-.05.12-.08.25-.11.38-.27 1.08-.18 2.19-.24 3.28Z"></path><path fill="#fff" d="M61.52 16.19c.06-1.1-.04-2.2.24-3.28.03-.13.06-.26.11-.38.16-.41.34-.79.88-.8.57-.02.83.33 1.01.78.24.59.3 1.21.34 1.83.1 1.56.12 3.12-.14 4.67-.07.39-.17.77-.41 1.09-.44.59-1.18.56-1.55-.08-.3-.53-.36-1.12-.42-1.7-.04-.44-.04-.89-.06-1.33v-.79Z"></path></g><!-- source: https://football-logos.cc --></svg>