<svg xmlns="http://www.w3.org/2000/svg" viewBox="1 1 209.02 250"><metadata xmlns:fl="https://football-logos.cc/slovakia/spartak-trnava">dl1_8bc43d764405311ad62d46ce67641753cf5adc1c6d5c7259b2effc28fadd0c56</metadata><!-- Source: https://football-logos.cc --><g style="fill:none;fill-rule:evenodd;stroke:none;stroke-width:1" data-source="https://football-logos.cc"><path d="M91.906 83.369c-4.171 8.266-9.9 15.411-16.788 21.508a85 85 0 0 1-16.501 11.413 74 74 0 0 1-5.464 2.63q-.879.375-1.56.64-.424.163-.599.224a2.58 2.58 0 0 1-1.715 0q-.175-.06-.598-.224a49 49 0 0 1-1.56-.64 74 74 0 0 1-5.465-2.63 85 85 0 0 1-16.501-11.412c-6.889-6.097-12.618-13.242-16.79-21.509-2.487-4.93-4.386-10.253-5.745-15.905C.773 59.782-.041 51.662.002 43.323c.033-6.49.58-12.755 1.47-18.576.323-2.109.67-4.012 1.016-5.679q.185-.883.34-1.549.096-.409.137-.569a2.577 2.577 0 0 1 3.614-1.687l.023.01.14.064q.258.113.617.254c.702.275 1.514.553 2.425.814A30.7 30.7 0 0 0 17.91 17.6c3.636.037 7.203-.606 10.62-2.062 3.444-1.466 6.88-3.537 10.233-6.057a69 69 0 0 0 6.89-5.941 60 60 0 0 0 1.897-1.946 37 37 0 0 0 .633-.7 2.577 2.577 0 0 1 3.903 0l.148.167q.204.229.485.532c.544.585 1.179 1.24 1.898 1.947a69.5 69.5 0 0 0 6.89 5.94c3.354 2.521 6.79 4.592 10.234 6.058 3.417 1.456 6.984 2.1 10.62 2.062a30.7 30.7 0 0 0 8.127-1.195c.91-.261 1.723-.539 2.424-.814a17 17 0 0 0 .758-.317l.022-.01a2.577 2.577 0 0 1 3.615 1.686q.04.16.137.57.155.665.34 1.548c.346 1.667.693 3.57 1.015 5.68.891 5.82 1.438 12.084 1.471 18.575.043 8.34-.771 16.459-2.618 24.14-1.359 5.653-3.259 10.975-5.746 15.906" style="fill:#fff;fill-rule:nonzero" transform="translate(1 1)scale(2.08453)"></path><path d="M29.54 17.91c-12.415 5.287-24.073-.322-24.078-.325-.003.011-9.176 36.122 5.204 64.623 13.025 25.816 39.47 35.146 39.47 35.146s26.444-9.33 39.47-35.146c14.382-28.505 5.204-64.623 5.204-64.623s-11.661 5.613-24.079.324C59.074 12.944 50.141 2.584 50.135 2.577c-.005.005-8.936 10.366-20.595 15.332" style="fill:#040506;fill-rule:nonzero" transform="translate(1 1)scale(2.08453)"></path><path d="M29.094 77.119c0-11.604 9.44-21.045 21.043-21.045S71.18 65.514 71.18 77.12c0 11.604-9.44 21.045-21.043 21.045s-21.043-9.44-21.043-21.045m1.444 0c0 10.808 8.792 19.6 19.6 19.6 10.806 0 19.599-8.792 19.599-19.6s-8.793-19.6-19.6-19.6-19.599 8.792-19.599 19.6M5.62 51.766a108 108 0 0 1-.287-7.937c0-1.531.03-2.998.084-4.385l.007-.182.035-.013c12.332-4.093 28.502-6.428 44.677-6.428 16.19 0 32.375 2.339 44.712 6.44l.007.183c.053 1.387.084 2.854.084 4.385 0 2.498-.083 5.17-.288 7.954l-.006.053a199 199 0 0 0-9.514-2.607c-10.23-2.52-22.547-4.099-34.995-4.099S25.37 46.71 15.14 49.23a199 199 0 0 0-9.509 2.605z" style="fill:#fff" transform="translate(1 1)scale(2.08453)"></path><path d="M83.065 50.403v37.5l.049-.08a62 62 0 0 0 4.033-6.855c4.502-8.922 6.56-18.67 7.36-27.443l.001-.037a198 198 0 0 0-9.764-2.686 119 119 0 0 0-1.554-.372zM83.158 22.923a36.3 36.3 0 0 0 9.631-1.64c.642 3.31 1.585 9.102 1.973 16.184l-.002.06c-3.56-1.156-7.452-2.18-11.597-3.05l-.098-.025V22.934zM56.534 31.17V12.397l.143.09c3.559 2.84 8.014 5.842 12.975 7.955.171.073.618.252.618.252v11.688l-.084-.01c-4.408-.523-8.979-.88-13.642-1.052ZM30.002 20.71v11.672l.087-.011a170 170 0 0 1 13.652-1.052l-.002-.126V12.374l-.14.11c-3.56 2.84-8.017 5.844-12.98 7.958zM17.086 22.923a36.3 36.3 0 0 1-9.603-1.64c-.645 3.32-1.59 9.137-1.977 16.248l.041-.015c3.54-1.148 7.407-2.166 11.523-3.03l.137-.034V22.95ZM17.08 50.43q-.782.182-1.552.372a197 197 0 0 0-9.708 2.669l-.059.015c.798 8.784 2.855 18.547 7.364 27.482a62 62 0 0 0 4.01 6.82l.072.115V50.418zM70.198 87.673A22.73 22.73 0 0 1 56.68 98.824l-.147.06v12.47l.125-.064a81 81 0 0 0 6.929-4.206 78 78 0 0 0 6.588-4.992l.094-.078v-14.51ZM43.54 98.808a22.73 22.73 0 0 1-13.386-10.99l-.152-.26v14.471l.099.067a78 78 0 0 0 6.584 4.988 81 81 0 0 0 6.952 4.218l.102.052v-12.5ZM43.74 55.223v-8.348l-.137.02c-4.512.2-9.047.6-13.48 1.187l-.121.02v18.604999999999997A22.73 22.73 0 0 1 43.741 55.37zM56.534 55.372v-8.481l.121.004c4.524.199 9.07.6 13.515 1.19l.1.018v18.611l-.04-.09a22.73 22.73 0 0 0-13.627-11.233Z" style="fill:#c00000" transform="translate(1 1)scale(2.08453)"></path><path d="m9.172 43.53 1.456-.395.404 1.488-1.456.395.902 3.327-1.584.43-2.173-8.015 3.2-.868.403 1.488-1.616.439zM15.592 40.099a2.4 2.4 0 0 0-.62.06c-1.402.34-1.702 1.763-1.4 3.004.29 1.199 1.26 2.527 2.651 2.189a2.1 2.1 0 0 0 .582-.266l.367 1.509a2 2 0 0 1-.705.319c-2.3.56-4.08-1.207-4.595-3.326-.486-2.002.341-4.38 2.514-4.907.278-.068.559-.08.85-.048zM22.985 38.966c-.377-.223-.82-.388-1.265-.307-.499.09-.758.45-.667.95.244 1.343 2.717.972 3.12 3.182.263 1.453-.373 2.699-1.89 2.974-.455.083-1.044.044-1.462-.16l-.28-1.538c.427.19.827.297 1.304.21.52-.094.869-.515.77-1.057-.114-.629-.655-.777-1.17-1.019-1.046-.46-1.73-.962-1.947-2.154-.234-1.29.311-2.541 1.698-2.793a2.8 2.8 0 0 1 1.503.14zM25.6 45.047l-1.197-8.218 1.69-.246c.348-.05 2.758-.624 3.143 2.024.224 1.536-.639 2.564-2.143 2.783l-.363.03.494 3.39zm.938-4.945c.79-.082 1.194-.441 1.071-1.28-.085-.589-.384-1.035-1.081-.933l-.306.044zM32.786 35.73l2.9 8.033-1.74.194-.461-1.356-1.653.184-.141 1.423-1.62.181.996-8.467zm-.347 3.453-.325-1.227-.022.002-.036 1.267-.105 2.24 1.149-.129zM36.397 43.707l-.614-8.282 1.647-.122c1.044-.077 2.92-.106 3.087 2.157.068.911-.237 1.718-1.016 2.229l1.718 3.66-1.725.128-1.722-3.715-.022.001.284 3.822zm1.286-4.844.287-.01c.747-.056 1.006-.583.955-1.264-.044-.593-.365-1.055-1.186-.95l-.22.016zM44.505 43.21l-1.639.07-.288-6.757-1.287.055-.066-1.54 4.226-.18.065 1.54-1.298.055zM49.072 34.803l2.094 8.28-1.751.02-.326-1.394-1.662.02-.28 1.402-1.63.02 1.826-8.327zm-.686 3.4-.203-1.253h-.022l-.16 1.258-.326 2.218 1.156-.014zM55.124 34.878l1.673.045-1.632 3.79 1.61 4.517-1.729-.046-1.396-4.268h-.022l-.112 4.227-1.64-.044.22-8.301 1.64.044-.098 3.71h.022zM62.867 43.635l-1.636-.126.522-6.742-1.285-.1.119-1.537 4.216.326-.118 1.537-1.296-.1zM65.106 43.808l.914-8.254 1.642.182c1.04.115 2.89.43 2.64 2.685-.101.909-.549 1.646-1.408 2.005l1.018 3.914-1.719-.19-1.012-3.969-.022-.002-.421 3.81zm2.153-4.527.283.043c.744.082 1.096-.389 1.171-1.068.065-.59-.166-1.104-.992-1.151l-.219-.024zM73.007 40.95l-.569 3.768-1.622-.244 1.239-8.212 1.557.235 1.278 5.261s.018-.855.082-1.28l.557-3.692 1.623.245-1.24 8.212-1.535-.232-1.256-5.258s-.027.517-.114 1.197M81.789 37.903l.372 8.532-1.719-.334-.036-1.432-1.632-.317-.559 1.316-1.6-.311 3.477-7.784zm-1.361 3.19.056-1.267-.022-.004-.412 1.199-.769 2.105 1.135.221zM85.407 38.674l.04 4.108c.03.494-.026.967-.04 1.45l.022.006c.198-.451.34-.904.58-1.345l1.894-3.625 1.672.398-4.164 7.545-1.307-.311-.411-8.635zM93.002 40.612l-.257 8.536-1.69-.46.07-1.43-1.605-.437-.654 1.272-1.573-.428 4.04-7.507zm-1.592 3.082.149-1.26-.022-.006-.5 1.165-.92 2.043 1.115.304z" style="fill:#040506" transform="translate(1 1)scale(2.08453)"></path><path d="m63.64 66.255-.002-.065-7.253-5.27-.037-.02-5.966 2.37-.002.047v5.756l.04.029 7.396 5.216.042-.008 5.32-1.672.054-.02zM65.84 87.852l-.652-1.033-.037-.042 2.805-8.634.044-.019 1.19-.475.054-.018a19 19 0 0 1-3.354 10.303zM63.318 73.104l.075-.022 4.062 4.899.03.042-2.784 8.566-.105.027-6.098 1.558-.024-.044-3.33-4.945.03-.148 2.755-8.237.087-.03zM44.715 95.45l.885-1.064.058-.003h9.014l.818.983.062.087a19 19 0 0 1-5.415.78 19 19 0 0 1-5.419-.781zM36.884 73.079l.066.022 5.33 1.676.063.019 2.798 8.361-.034.064-3.329 4.943-.073-.008-6.123-1.565-.028-.061-2.749-8.46-.016-.053zM34.351 87.885a19 19 0 0 1-3.32-10.274l.05.037 1.225.489.028.056 2.768 8.518.017.056-.735 1.166zM63.947 65.813l-7.288-5.295-.043-.038-.09-1.38.055.022a19.2 19.2 0 0 1 8.709 6.358l-.08.018-1.184.301zM36.633 66.231l-.004-.036 7.234-5.256.064-.039 5.974 2.373-.007.044v5.756l-.036.025-7.408 5.225-.073-.025-5.283-1.66-.052-.018zM36.257 65.801l-1.215-.308-.05-.02a19.2 19.2 0 0 1 8.694-6.348l.063-.019-.09 1.366-.024.032-7.31 5.312zM42.21 88.492l-.034-.05 3.303-4.904.041-.045h9.245000000000001l3.25 4.826.086.116-3.46 5.466-.072-.004h-8.887l-.053-.005z" style="fill:#fff" transform="translate(1 1)scale(2.08453)"></path></g><!-- source: https://football-logos.cc --></svg>