<svg xmlns="http://www.w3.org/2000/svg" fill="none" viewBox="0.62 0.55 322.76 359.06"><metadata xmlns:fl="https://football-logos.cc/switzerland/thun">dl1_de23ded2329ac293b8e88ded71c52f93de8d10d07f7d03f0e55a58930bac36d2</metadata><!-- Source: https://football-logos.cc --><path fill="#fff" d="M323.379 182.49V85.664c-6.86-3.096-14.779-6.473-23.576-9.105-.008-11.51-.015-47.516-.015-47.516C273.609 12.986 222.166.546 162.985.546c-59.773 0-111.646 12.21-137.58 28.524v47.51C16.13 79.356 7.716 83.04.62 86.322v96.707l24.778 16.113-.006 15.555c0 100.544 137.222 144.91 137.222 144.91s137.219-45.481 137.219-144.91v-15.555z" data-source="https://football-logos.cc"></path><path fill="#E2001A" d="M296.476 167.84c-.012-57.706-.031-136.833-.031-136.833-25.541-15.774-75.741-26.942-133.478-26.942-58.328 0-108.943 10.933-134.248 26.97l-.008 136.806-24.177 13.425 24.177 15.675-.006 17.157c0 98.781 133.888 142.366 133.888 142.366s133.893-44.686 133.893-142.366v-17.157l22.974-16.283z"></path><path fill="#fff" d="M289.253 35.776C264.657 21.858 217.582 11.85 162.94 11.85c-55.181 0-103.294 10.007-127.02 23.953L35.897 212.6c0 94.416 126.703 136.078 126.703 136.078S289.29 305.967 289.29 212.601c.001-41.772-.037-176.825-.037-176.825"></path><path stroke="#FABB00" stroke-width=".401" d="M289.253 35.776C264.657 21.858 217.582 11.85 162.94 11.85c-55.181 0-103.294 10.007-127.02 23.953L35.897 212.6c0 94.416 126.703 136.078 126.703 136.078S289.29 305.967 289.29 212.601c.001-41.772-.037-176.825-.037-176.825Z"></path><path fill="#E2001A" d="M283.028 39.368C259.542 27.261 214.882 18.5 162.929 18.5c-52.479 0-98.178 8.762-120.79 20.896l-.012 171.932c0 90.688 120.474 130.695 120.474 130.695s120.474-41.017 120.474-130.695c0-40.127-.047-171.96-.047-171.96"></path><path fill="#fff" d="M319.466 180.688V83.972c-33.1-15.014-90.975-24.958-156.84-24.958-66.7 0-125.208 10.206-158.087 25.53v96.721c32.88-15.329 91.386-25.533 158.087-25.533 65.866 0 123.741 9.953 156.84 24.956"></path><path fill="#E2001A" d="M319.466 173.929V90.977c-33.1-15.162-90.975-25.205-156.84-25.205-66.7 0-125.208 10.307-158.087 25.792v82.946c32.88-15.48 91.386-25.784 158.087-25.784 65.866 0 123.741 10.044 156.84 25.203"></path><path fill="#fff" fill-rule="evenodd" d="M42.13 168.602v.135c20.818 27.172 47.478 55.062 78.716 81.28 32.008 26.853 64.873 48.637 95.876 64.499 23.6-15.704 48.466-38.314 59.905-68.296-31.892-15.969-65.858-38.284-98.936-66.032a560 560 0 0 1-27.175-24.343c-41.219.77-78.786 5.441-108.386 12.757" clip-rule="evenodd"></path><path fill="#FABB00" d="m160.382 204.487-19.818 2.713 1.767 19.815-14.479-13.811-14.388 13.738 1.768-19.927-19.71-2.688 16.684-11.044-10.196-17.084 19.046 6.156 6.999-18.617 7.049 18.725 18.927-6.13-10.236 17.185z" data-source="https://football-logos.cc"></path><path stroke="#000" stroke-miterlimit="3.864" stroke-width=".22" d="m160.382 204.487-19.818 2.713 1.767 19.815-14.479-13.811-14.388 13.738 1.768-19.927-19.71-2.688 16.684-11.044-10.196-17.084 19.046 6.156 6.999-18.617 7.049 18.725 18.927-6.13-10.236 17.185z"></path><path fill="#E2001A" d="M233.266 263.04c-2.784 0-5.557 1.529-5.557 4.647 0 1.721 1.082 3.198 2.574 3.693v.046c-1.948.649-3.244 2.136-3.244 4.28 0 3.373 3.416 4.929 6.227 4.929s6.227-1.556 6.227-4.929c0-2.144-1.302-3.631-3.244-4.28v-.046c1.489-.495 2.574-1.972 2.574-3.693 0-3.118-2.765-4.647-5.557-4.647m0 10.089c1.084 0 1.95.909 1.95 2.037 0 1.103-.866 1.984-1.95 1.984-1.083 0-1.944-.881-1.944-1.984 0-1.127.861-2.037 1.944-2.037m0-7.151c.99 0 1.795.822 1.795 1.835 0 1.015-.805 1.837-1.795 1.837-.999 0-1.793-.822-1.793-1.837 0-1.013.794-1.835 1.793-1.835m-14.721.407a2.686 2.686 0 0 1 2.701 2.684c0 1.492-1.214 2.677-2.701 2.677-1.499 0-2.621-1.186-2.621-2.677 0-1.497 1.122-2.684 2.621-2.684m.712 13.602 3.483-4.565c1.401-1.858 2.614-4.128 2.614-6.487 0-1.701-.866-3.433-2.18-4.493-1.257-1.017-3.077-1.401-4.65-1.401-3.722 0-7.003 2.154-7.003 6.158 0 3 2.03 5.748 5.225 5.748.874 0 1.558-.173 2.296-.492l.045.038-4.648 5.495zm-15.654-16.947c-2.789 0-5.557 1.529-5.557 4.647 0 1.721 1.084 3.198 2.571 3.693v.046c-1.943.649-3.235 2.136-3.235 4.28 0 3.373 3.409 4.929 6.221 4.929s6.23-1.556 6.23-4.929c0-2.144-1.3-3.631-3.242-4.28v-.046c1.486-.495 2.571-1.972 2.571-3.693.001-3.118-2.774-4.647-5.559-4.647m0 10.089c1.086 0 1.943.909 1.943 2.037 0 1.103-.857 1.984-1.943 1.984-1.081 0-1.942-.881-1.942-1.984 0-1.127.861-2.037 1.942-2.037m0-7.151c.999 0 1.803.822 1.803 1.835 0 1.015-.804 1.837-1.803 1.837-.992 0-1.792-.822-1.792-1.837 0-1.013.8-1.835 1.792-1.835m-14.484 1.294v12.714h4.239v-16.301h-6.575v3.586z"></path><path fill="#000" d="M62.456 53.39V51l.404-.084c.77-.156 1.766-.42 2.453-.222-.312-1.306-2.017-.821-3.19-.573l-.404.078v3.345l.51-.102zm-.738-6.2.443-.095c.1-.02.201-.053.294-.078v-2.04l.287-.061c.52-.104 1.09-.2 1.52-.104-.189-1.045-1.284-.897-2.264-.694l-.28.058zm6.962-2.561c0-1.85-.745-3.105-1.957-3.653.773.477 1.227 1.39 1.227 2.854 0 1.408-.453 2.63-1.678 3.525v.045c.54-.038.996.006 1.395.139.716-.81 1.013-1.802 1.013-2.91m1.44 6.888c0-1.37-.377-2.397-1.207-2.925.314.547.463 1.268.463 2.123 0 3.26-2.727 4.9-5.51 5.485l-6.105 1.262.737.798 6.105-1.27c2.793-.573 5.518-2.217 5.518-5.473M76.57 42.539l4.74-.834V38.28l-.742-.803v3.428l-4.728.836v2.6l.728-.133v-1.67zm0 7.78v-1.748l4.5-.795v-3.428l-.742-.795v3.42l-4.487.794v2.68zm4.74 3.518v-3.425l-.742-.774v3.4l-8.713 1.543.737.795zM88.172 43.246v-2.964l.392-.052c.68-.1 1.4-.134 1.937.094-.347-1.05-1.562-1.057-2.675-.897l-.381.061v3.873l.382-.054c.112-.019.236-.04.344-.06m-.727 8.703-4.006.582.735.801 3.997-.579V46.96l-.69-1-.036.005zm5.24-5.69-.448-.548c2.187-.714 3.272-2.657 3.272-4.806 0-1.798-.787-3.148-1.977-3.957.764.67 1.236 1.684 1.236 3.154 0 2.15-1.183 4.181-3.368 4.89l4.834 5.67-4.956.727.045.044.672.757 5.138-.72-.666-.796zM101.753 49.975l-4.023.452.734.798 4.018-.447V41.27l-.689-.829-.039.007v9.527zm12.156-.46v-15.56l-.737-.798v15.557l-4.005.441.032.1.692.708zM120.982 36.79l4.795-.385v-3.428l-.744-.803v3.43l-4.785.393v2.6l.734-.062zm3.812 1.456v3.41l-4.546.364v2.676l.734-.058v-1.817l4.548-.374V39.03l-.73-.782h-.006m.983 10.292v-3.427l-.744-.84-.187.054.187-.016v3.427l-8.823.713.743.804zM131.979 47.303l-4.041.224.742.803 4.037-.228v-5.735l-.699-1.054-.039.006zm.738-8.641v-3.027l.39-.02c.673-.041 1.393-.012 1.935.248-.395-.998-1.581-1.108-2.67-1.048l-.393.019v3.88l.393-.02q.168-.012.345-.033m7.396-1.758c0-1.95-.853-3.396-2.166-4.236.891.738 1.431 1.852 1.431 3.434 0 2.146-1.193 4.073-3.403 4.588l4.882 6.098-5.028.287-.091-.134.086.14.741.797 5.031-.288-4.881-6.098c2.198-.517 3.398-2.447 3.398-4.587M154.874 42.013c-.536-.76-.856-1.701-.856-2.771 0-2.142 1.977-4.125 4.396-4.148a4.47 4.47 0 0 1 2.935 1.096 4.46 4.46 0 0 0-3.677-1.895c-2.414.026-4.399 2.002-4.399 4.145-.001 1.497.632 2.746 1.601 3.573m8.118-9.93c.156.116.321.212.47.34-.158-.116-.299-.239-.47-.34m4.025 7.02c0-2.674-1.357-4.982-3.32-6.507 1.557 1.405 2.577 3.375 2.577 5.707 0 5.035-3.609 8.616-8.603 8.66-3.074.035-5.611-1.297-7.123-3.486 1.435 2.705 4.335 4.32 7.865 4.29 4.988-.05 8.604-3.628 8.604-8.665M173.349 43.496V40.93l.41.014c.777.03 1.775 0 2.479.355-.426-1.204-2.074-1.115-3.215-1.153l-.409-.018v3.348l.513.013q.106.009.222.007m-.735-6.378.447.012c.098.008.189.008.288 0v-2.223l.288.006c.526.02 1.09.062 1.533.255-.282-.924-1.334-1.022-2.272-1.059l-.284-.004zm7.089-1.063c0-1.664-.667-2.892-1.723-3.672.613.662.977 1.582.977 2.874 0 1.402-.448 2.523-1.708 3.124v.04a4.5 4.5 0 0 1 1.162.36 3.47 3.47 0 0 0 1.292-2.726m1.458 7.226c0-1.446-.429-2.604-1.382-3.325.439.674.646 1.53.646 2.523 0 3.262-2.777 4.25-5.629 4.162l-6.228-.199.736.802 6.23.193c2.844.094 5.627-.896 5.627-4.156M187.716 35.836l4.802.281V32.69l-.735-.808h-.119l.119.005v3.43l-4.803-.28v2.603l.736.04zm0 7.955V41.86l4.553.268v-3.426l-.736-.74v3.363l-4.553-.259v2.677zm4.802 4.46v-3.428l-.735-.726v3.351l-8.835-.512.73.8zM199.449 39.461v-3.129l.394.033c.643.055 1.328.176 1.858.482-.432-.936-1.563-1.196-2.599-1.285l-.39-.033v3.881l.39.032q.169.011.347.02m-4.767 8.19v.01l.737.792 4.03.344V43.17l-.698-1.16h-.039v5.984zm12.151-9c0-1.885-.795-3.327-2.028-4.283.796.85 1.286 1.983 1.286 3.48 0 2.142-1.187 3.9-3.385 4.104l4.864 6.793-5.008-.426.045.074.687.728 5.019.426-4.87-6.792c2.189-.205 3.39-1.962 3.39-4.104M213.825 46.08V34.66l-.744-.765v12.097zm4.814 4.709v-3.427l-.731-.805v3.43l-8.838-1.04v.025l.73.776z"></path><path fill="#000" d="m218.24 49.987.729.801 4.247.614 1.063-2.552 5.034.722-.255-.733-5.511-.788-1.063 2.55zm6.411-4.877.964.141 1.187-3.386-.455-1.464-.047-.006zm-6.411 4.87-.008.007zm16.826 3.117-5.807-16.386-.729-.809h-.03l.03.007 5.792 16.39-4.266-.618-.014-.039.009.073.749.77zM236.032 52.597l.684.789 3.979.747v-9.28l-.703-1.045-.039-.007v9.53zm11.236-4.182-6.574-9.838-.703-.747 7.237 10.833.04.005zm4.716 7.847v-15.56l-.735-.775v15.535l-3.966-.75.013.02.717.784zM254.234 56.108v.052l.74.75 5.591 1.275c4.21.956 7.705-1.65 7.705-6.022 0-2.511-1.168-4.944-2.939-6.76 1.362 1.702 2.203 3.805 2.203 5.957 0 4.373-3.503 6.979-7.702 6.023zm4.683-2.358v-8.075l.928.207c.965.22 1.82.648 2.512 1.244-.772-1.018-1.898-1.73-3.257-2.037l-.924-.216v8.71z"></path><path fill="#fff" d="M65.38 51.132c0 1.718-1.984 2.063-3.152 2.305l-.51.106v-3.345l.404-.082c1.292-.267 3.257-.86 3.257 1.016m-1.072-5.991c0 1.324-1.096 1.738-2.14 1.956l-.45.089v-3.013l.29-.06c1.07-.221 2.3-.394 2.3 1.028m1.957 2.257v-.04c1.24-.893 1.675-2.123 1.675-3.525 0-2.974-1.81-3.665-4.526-3.105l-5.654 1.175v15.56l6.107-1.268c2.783-.583 5.51-2.216 5.51-5.484 0-2.162-.925-3.48-3.111-3.313M80.569 40.904v-3.423l-8.715 1.541v15.552l8.715-1.536v-3.423l-4.734.834v-2.684l4.485-.789v-3.428l-4.485.79V41.74zM90.598 40.96c0 1.694-1.466 2.155-2.772 2.352l-.391.051v-3.88l.391-.05c1.306-.195 2.772-.164 2.772 1.526m4.17-.855c0-3.319-2.303-4.447-5.35-4.007l-5.98.874v15.561l3.996-.587v-5.983h.047l3.778 5.43 4.975-.728-4.834-5.67c2.186-.716 3.367-2.748 3.367-4.89M97.729 50.427l4.025-.452v-9.527l.039-.008 7.363 8.721 4.016-.447V33.152l-4.016.451v9.51l-.048.007-7.354-8.698-4.026.443zM125.042 35.605v-3.427l-8.826.713v15.563l8.826-.715v-3.428l-4.802.388v-2.684l4.554-.368v-3.424l-4.554.373v-2.602zM135.176 36.59c0 1.696-1.488 2.033-2.81 2.104l-.389.02v-3.881l.389-.02c1.322-.07 2.81.089 2.81 1.777m4.201-.488c0-3.317-2.336-4.653-5.401-4.474l-6.032.349v15.556l4.035-.23V41.32l.039-.007 3.811 5.762 5.028-.287-4.883-6.098c2.201-.512 3.403-2.443 3.403-4.588M162.066 38.363c0 2.685-1.983 4.662-4.388 4.682-2.421.024-4.396-1.918-4.396-4.602 0-2.145 1.976-4.126 4.396-4.148 2.405-.02 4.388 1.923 4.388 4.067m4.211-.06c0-4.703-4.128-7.972-8.599-7.928-4.483.038-8.612 3.379-8.612 8.087 0 5.034 3.614 8.546 8.612 8.5 4.987-.044 8.599-3.625 8.599-8.66M176.342 41.938c0 1.72-2.02 1.591-3.222 1.55l-.507-.015v-3.345l.409.012c1.325.044 3.32-.077 3.32 1.798m-1.095-6.245c0 1.325-1.108 1.472-2.186 1.438l-.447-.012v-3.012l.284.004c1.089.04 2.349.16 2.349 1.582m2.002 2.726v-.039c1.26-.6 1.708-1.725 1.708-3.127 0-2.972-1.851-4.1-4.609-4.188l-5.779-.179v15.555l6.223.2c2.856.086 5.64-.9 5.64-4.163-.002-2.16-.96-3.697-3.183-4.059M191.783 35.316V31.89l-8.84-.515v15.556l8.84.522v-3.428l-4.803-.28v-2.684l4.553.267v-3.425l-4.553-.268v-2.6zM201.897 37.742c0 1.692-1.48 1.81-2.801 1.705l-.384-.036v-3.88l.384.035c1.321.107 2.801.48 2.801 2.176m4.193.107c0-3.32-2.321-4.984-5.387-5.24l-6.025-.517v15.562l4.034.34v-5.985h.039l3.801 6.311 5.024.43-4.879-6.794c2.197-.207 3.393-1.96 3.393-4.107M213.087 33.86l-4.017-.473v15.561l8.83 1.042v-3.425l-4.813-.567zM227.977 45.583l-3.333-.473 1.655-4.715.04.006zm6.352 6.715-5.805-16.389-4.37-.63-5.922 14.707 4.245.613 1.063-2.55 5.519.788 1.004 2.843zM235.98 52.581l3.972.75V43.8l.039.007 7.277 10.908 3.981.747V39.9l-3.981-.746v9.51l-.04-.007-7.276-10.887-3.972-.746zM263.422 50.42c0 3.032-2.007 3.9-4.356 3.361l-.89-.203v-8.707l.931.211c2.529.576 4.315 2.552 4.315 5.338m4.112.936c0-4.373-3.478-8.568-7.71-9.529l-5.59-1.275V56.11l5.59 1.27c4.206.96 7.71-1.649 7.71-6.024"></path><path fill="#000" d="m28.942 146.569 1.823 1.607s2.435-.746 5.938-1.708c3.508-.955 5.72-1.522 5.72-1.522v-18.373s1.343-.434 6.313-1.595c4.969-1.17 6.462-1.425 6.462-1.425v-10.217l-1.865-1.528v10.143s-1.494.255-6.459 1.422c-4.968 1.163-6.324 1.604-6.324 1.604v18.367s-2.21.566-5.712 1.526a212 212 0 0 0-5.896 1.699m-.04-.094-.008.046.008.005zm27.606-41.252V95.29l-1.852-1.6s-.008.005-.02.005v9.923s-1.8.338-7.227 1.604c-5.428 1.263-6.861 1.676-6.861 1.676v7.82s.67-.173 1.872-.468v-5.758s1.436-.406 6.855-1.669c5.428-1.26 7.233-1.6 7.233-1.6M75.626 123.237c-1.66-1.904-2.597-4.568-2.597-7.754 0-7.24 4.91-13.67 12.18-14.767 3.2-.488 6.29.243 8.659 1.99-2.435-2.952-6.361-4.147-10.404-3.539-7.263 1.104-12.173 7.533-12.173 14.766 0 4.182 1.6 7.456 4.335 9.304m18.26-20.519 1.74 1.56V89.743l-1.74-1.54zm1.742 31.62v-14.535l-1.741-1.528v1.682c.039.877.086 1.784 0 1.867v10.972000000000001c-3.938 1.831-6.783 3.186-10.488 3.747-6.352.951-12.417-.604-17.141-4.282-.03-.02-.05-.049-.078-.068q.845.853 1.82 1.616c4.73 3.674 10.789 5.237 17.15 4.275 3.694-.555 6.54-1.918 10.478-3.746M114.862 95.66l2.015 2.038 9.442-.635v-2.176zm36.99.433V85.834l-2.017-2.036h-.003.003v10.26l-11.514.325v36.103l-11.994.604 2.006 2.034 12.001-.6V96.417zM154.884 130.155l1.977 2.069 12.007.014v-18.799s1.659-.057 8.605.114c3.291.077 5.411.153 6.741.198v-1.982s-1.777-.122-8.727-.288c-6.944-.17-8.6-.121-8.6-.121v18.807zm13.984-28.307V85.834l-1.979-2.036v18.036c-.001.001.645.001 1.979.014m29.331 31.383V86.814l-1.982-2.07v46.416l-11.981-.581 1.964 2.072zM219.009 122.598c-1.439-2.645-1.572-6.202-1.572-9.585V88.305l-1.674-2.038v24.67c0 4.382.239 9.065 3.246 11.661m26.551-4.721V91.692l-1.675-2.09h-.11l.11.02v26.185c0 5.996-.243 11.909-4.809 15.903-3.834 3.398-9.859 4.079-15.221 3.473-5.276-.603-11.192-2.605-15.034-6.747.439.643.926 1.274 1.489 1.893 3.833 4.271 9.865 6.315 15.221 6.925 5.354.607 11.388-.07 15.224-3.466 4.566-4.002 4.805-9.915 4.805-15.911M251.25 137.163v.029l1.372 2.334 11.003 2.039v-28.123l.008-.247-1.276-2.097-.107-.021V139.2zm43.634 12.107v-46.341L293.5 100.6v46.306l-11.247-3.183.014.015 1.316 2.333z"></path><path fill="#fff" d="M54.643 103.622v-9.93s-4.117.74-12.867 2.944c-8.768 2.211-12.882 3.564-12.882 3.564v46.378s2.439-.749 5.943-1.712c3.502-.956 5.711-1.522 5.711-1.522V124.97s1.353-.433 6.322-1.594c4.968-1.171 6.462-1.421 6.462-1.421v-10.221s-2.562.529-6.495 1.451c-3.94.928-6.289 1.53-6.289 1.53v-7.823s1.435-.405 6.862-1.67c5.419-1.26 7.233-1.6 7.233-1.6M93.886 88.195c-3.517-.955-7.031-1.288-10.848-.715-6.422.97-12.906 4.798-17.392 10.173-4.36 5.236-6.726 11.712-6.726 18.083 0 6.934 2.304 12.643 7.332 16.524 4.728 3.678 10.785 5.233 17.145 4.282 3.7-.562 6.55-1.917 10.488-3.755v-14.533c-2.485 3.408-6.365 5.912-10.24 6.493-7.395 1.114-12.366-3.453-12.366-10.814 0-7.233 4.91-13.663 12.184-14.766 4.058-.605 7.996.587 10.423 3.561zM138.314 94.384l11.521-.329V83.8s-3.931-.042-17.438.58c-13.501.621-17.543 1.053-17.543 1.053V95.66l11.465-.775v36.207l11.995-.604zM166.888 101.835V83.763h-12.004v46.392l12.004.013v-18.807s1.655-.049 8.607.117c6.946.17 8.719.287 8.719.287v18.809l12.002.587V84.744l-12.002-.579v18.071s-2.6-.094-8.62-.254c-6.015-.154-8.706-.147-8.706-.147M231.956 87.98v24.799c0 6.062-.432 12.626-8.093 11.759-7.677-.868-8.101-7.54-8.101-13.595V86.238l-11.929-1.022v26.04c0 5.997.242 11.968 4.808 16.996 3.833 4.276 9.852 6.317 15.222 6.928 5.354.605 11.379-.07 15.213-3.467 4.565-4.001 4.813-9.911 4.813-15.912V89.616zM251.25 137.158l10.995 2.038v-28.122l.117.025 19.845 32.604 11.305 3.2v-46.336s-1.868-.58-5.435-1.6c-3.568-1.016-5.569-1.53-5.569-1.53v28.79l-.112-.02-20.224-33.428-10.922-2.035z" data-source="https://football-logos.cc"></path><!-- source: https://football-logos.cc --></svg>