<?xml version="1.0" encoding="UTF-8" standalone="no"?>
<!-- Created with Inkscape (http://www.inkscape.org/) -->
<svg
   xmlns:dc="http://purl.org/dc/elements/1.1/"
   xmlns:cc="http://creativecommons.org/ns#"
   xmlns:rdf="http://www.w3.org/1999/02/22-rdf-syntax-ns#"
   xmlns:svg="http://www.w3.org/2000/svg"
   xmlns="http://www.w3.org/2000/svg"
   xmlns:sodipodi="http://sodipodi.sourceforge.net/DTD/sodipodi-0.dtd"
   xmlns:inkscape="http://www.inkscape.org/namespaces/inkscape"
   width="818.6604"
   height="936.58032"
   id="svg2484"
   sodipodi:version="0.32"
   inkscape:version="0.46"
   sodipodi:docname="FC Vaduz Logo.svg"
   inkscape:output_extension="org.inkscape.output.svg.inkscape"
   version="1.0">
  <defs
     id="defs2486">
    <inkscape:perspective
       sodipodi:type="inkscape:persp3d"
       inkscape:vp_x="0 : 526.18109 : 1"
       inkscape:vp_y="0 : 1000 : 0"
       inkscape:vp_z="744.09448 : 526.18109 : 1"
       inkscape:persp3d-origin="372.04724 : 350.78739 : 1"
       id="perspective2492" />
  </defs>
  <sodipodi:namedview
     id="base"
     pagecolor="#ffffff"
     bordercolor="#666666"
     borderopacity="1.0"
     inkscape:pageopacity="0.0"
     inkscape:pageshadow="2"
     inkscape:zoom="0.60172533"
     inkscape:cx="409.3302"
     inkscape:cy="468.29016"
     inkscape:document-units="px"
     inkscape:current-layer="layer1"
     showgrid="false"
     inkscape:window-width="1280"
     inkscape:window-height="1005"
     inkscape:window-x="-4"
     inkscape:window-y="-4" />
  <metadata
     id="metadata2489">
    <rdf:RDF>
      <cc:Work
         rdf:about="">
        <dc:format>image/svg+xml</dc:format>
        <dc:type
           rdf:resource="http://purl.org/dc/dcmitype/StillImage" />
      </cc:Work>
    </rdf:RDF>
  </metadata>
  <g
     inkscape:label="Ebene 1"
     inkscape:groupmode="layer"
     id="layer1"
     transform="translate(34.041768,-59.786287)">
    <g
       id="g2533">
      <path
         id="path2521"
         d="M 375.1875,67.71875 C 323.89476,87.74639 270.28707,107.4998 214.31324,104.11059 C 162.8432,102.76438 111.74515,96.009013 60.53125,91.25 C 53.227397,107.42484 50.771421,125.22682 44.938391,141.91953 C 34.706512,177.27629 22.702431,212.37912 15.9375,248.5 C 19.031466,260.69277 29.342789,269.27758 33.25,281.21875 C 49.759691,314.81361 58.671753,354.83477 46.84375,391.3125 C 37.784013,412.69001 12.19479,422.28081 -9.625,418.46875 C -15.033254,417.98934 -20.58609,415.61515 -25.90625,417.59375 C -29.174374,443.50066 -23.835078,472.69416 -4.40625,491.34375 C -0.07145691,495.41623 5.0111186,498.79242 10.5625,501.0625 C 8.2325544,530.88375 -8.9015277,559.25895 -3.0732045,589.7778 C -1.0288262,612.52374 8.8961303,634.72068 25.4375,650.46875 C 31.108913,632.05603 39.501686,613.17105 55.21875,601.34375 C 47.366323,627.498 42.807285,658.13479 57.09375,682.9375 C 73.588309,710.94294 100.33984,730.69045 126.42353,749.21433 C 160.36537,772.24558 198.17415,789.95631 229.34375,816.78125 C 235.29813,825.24539 234.38333,840.94984 222.90625,844.09375 C 214.78998,846.35731 206.62168,842.35858 200.4375,837.375 C 198.66835,851.51506 202.12269,868.64217 215.6875,875.78125 C 228.93319,884.04417 246.44371,883.40712 260.1875,876.59375 C 262.33384,899.40953 280.82348,915.62349 298.05691,928.49688 C 323.02561,947.72777 349.41044,965.21074 374.40625,984.3125 C 388.09664,977.15005 398.98933,965.78077 412.07689,957.63565 C 438.13555,939.10456 466.87782,922.13643 484.84375,895.09375 C 487.66181,889.19208 489.16351,882.37509 490.84375,876.34375 C 508.12448,885.58454 533.59478,883.85275 544.8125,866.125 C 550.18004,857.68122 551.96332,846.74944 547.96875,837.34375 C 541.46037,845.56731 525.73327,848.65784 519.78125,838.34375 C 513.22295,827.93913 520.27595,814.86338 529.58387,808.73862 C 544.09422,797.43389 560.92798,789.65976 575.9604,779.1509 C 618.33083,753.46611 663.682,728.046 691.8125,685.96875 C 707.1816,660.52173 704.5356,628.14464 695,601.0625 C 712.0206,612.93247 718.69723,633.56118 726.65625,651.75 C 739.59499,634.29857 751.29264,615.09833 753.375,593 C 756.99019,567.23082 750.13912,541.6306 742.29094,517.31103 C 741.06433,512.09614 740.02747,506.63612 739.8125,501.15625 C 763.39392,491.05268 775.80723,465.16278 776.75,440.59375 C 778.00792,432.8686 779.48673,424.28823 775.375,417.125 C 763.91552,416.84658 752.66448,419.97806 741.16672,418.26194 C 724.01478,416.5975 708.47527,405.0087 702.90625,388.6875 C 696.05825,369.59152 697.97267,348.26484 700.96875,328.5 C 706.44857,299.50891 721.1699,273.48422 735.09375,247.9375 C 735.51926,236.90868 728.735,227.46119 727.39384,216.77189 C 715.40088,175.01448 703.68035,133.23932 690.78125,91.75 C 670.30316,91.413665 650.30883,96.156795 629.91973,97.251057 C 570.52159,103.65709 508.99905,110.62786 450.71875,93.78125 C 425.22124,86.877267 400.38469,77.424674 375.90625,67.4375 L 375.1875,67.71875 z M 88.96875,136.5 C 149.37932,139.81908 210.10832,143.72572 269.18637,157.37742 C 305.45154,166.66983 339.95921,182.36307 375.46875,193.84375 C 390.89319,190.77863 404.57886,182.40449 419.52072,177.61561 C 468.85556,158.36162 520.87868,146.45946 573.75,143.0625 C 603.47802,140.02052 633.27759,137.48508 663.15625,136.59375 C 680.67046,174.72049 699.41245,212.37368 715.78125,250.9375 C 691.27537,289.56942 666.25089,330.69054 664.5625,377.65625 C 663.25736,403.38782 675.49107,426.86568 686.0625,449.4375 C 690.03171,459.85784 692.78489,475.00695 682.4375,482.8125 C 672.44384,489.77295 654.37673,485.15371 653.25,471.59375 C 652.15747,462.47933 655.78275,453.86896 658.875,445.5 C 636.55588,449.5124 621.36063,472.84824 624.375,494.8125 C 626.50993,517.82418 646.76405,533.179 652.78125,554.625 C 654.47212,557.08062 653.11445,560.42926 650.0625,559.21875 C 618.99523,548.44794 581.26516,555.77091 559.09375,580.6875 C 543.70547,596.62903 533.274,618.6927 535.4375,641.28125 C 537.83449,645.43776 543.27923,643.38492 544.65625,639.5625 C 556.951,618.64263 582.93991,602.96232 607.21875,611.25 C 627.30729,617.96559 641.33122,642.80563 631.75,662.8125 C 625.58987,676.86721 605.78902,684.30806 593.5625,673.6875 C 584.44996,666.61128 582.38471,653.26985 587.34375,643.21875 C 589.02495,640.30746 588.04943,633.80517 583.5,636.125 C 566.86318,644.54991 553.00411,659.11303 547.90625,677.4375 C 543.34049,692.30584 546.66135,708.09087 548.875,723.09375 C 532.66748,713.62829 507.45379,716.76559 498.5625,734.78125 C 496.7306,738.60845 493.89788,746.22287 499.375,748.21875 C 503.72018,748.01097 505.48208,742.6014 510.15625,742.65625 C 519.2797,740.30683 528.42162,749.69546 525.3125,758.78125 C 522.43806,768.95826 511.19638,772.33464 504.375,779.4375 C 487.92662,793.1234 472.37853,809.71681 465.71875,830.4375 C 459.9737,834.50359 452.35092,829.83023 446.09375,832.625 C 438.63731,834.17344 431.40886,838.00104 427,844.40625 C 434.03215,849.65227 444.43589,852.56869 446.0625,862.53125 C 450.25011,876.9152 441.06177,891.13162 429.96875,899.84375 C 412.0662,917.19088 391.71999,932.26473 375.15625,950.9375 C 354.59624,926.78341 326.32756,909.89064 307.125,884.5 C 300.72327,873.06212 302.60718,854.77896 316.25,849.5 C 319.53828,848.07522 322.21685,845.63419 324.40625,842.84375 C 313.91221,832.64996 298.41401,831.02562 284.4375,831.75 C 277.5606,803.97225 253.96807,785.01142 232.375,768.4375 C 226.28828,763.55276 220.93029,753.4141 227.59375,746.875 C 233.52152,740.76078 243.83143,742.14965 249.5,747.6875 C 254.74541,749.08072 256.08984,742.34647 253.90625,738.8125 C 247.57766,719.53916 221.55856,711.56712 204.84375,722.65625 C 203.28965,723.38016 199.90942,724.55139 202,721.21875 C 208.56608,696.09321 205.04094,665.2651 183.92474,648.00956 C 177.81256,643.93591 172.19107,636.80006 164.375,636.65625 C 159.59044,638.36244 163.35702,643.77207 164.71875,646.59375 C 169.85897,659.3445 161.78134,674.53661 148.59375,677.8125 C 136.72279,681.69716 124.21346,674.38399 119.5,663.34375 C 111.28903,646.41815 118.81798,624.21948 135.53125,615.3125 C 155.22694,602.89063 182.69204,610.32356 196.58735,628.01344 C 202.81289,635.18897 208.61123,642.56046 215.71875,648.84375 C 218.57419,617.12635 203.08225,584.6214 176.03194,567.77468 C 156.24968,554.64485 130.95999,551.79298 108,556.90625 C 104.25944,557.33844 99.908107,559.1795 96.6875,559.3125 C 96.019227,550.74608 103.18432,543.96531 106.46875,536.65625 C 116.81602,520.41105 129.3139,502.33585 125.96875,482.0625 C 123.98193,462.65467 106.70802,448.45807 88.625,443.8125 C 95.922625,453.68593 102.15643,468.68923 93.5625,479.65625 C 85.115834,491.11817 63.617286,487.0068 61.46875,472.40625 C 58.454645,455.28982 69.814941,440.16459 76.0625,425.125 C 91.496311,391.38002 86.4212,351.91005 72.402027,318.63719 C 62.921384,295.47473 49.349273,273.72265 35.46875,252.96875 C 33.415097,246.56624 40.226314,241.59599 41.431561,235.6595 C 56.668152,202.52991 71.656309,168.99166 88,136.59375 C 88.320449,136.54195 88.645363,136.51798 88.96875,136.5 z M 201.65625,723.46875 L 201.53125,723.46875 L 201.65625,723.46875 z M 201.78125,723.46875 L 201.6875,723.46875 L 201.78125,723.46875 z"
         style="opacity:1;fill:#ffffff;fill-opacity:1;fill-rule:nonzero;stroke:none;stroke-width:10;stroke-linecap:butt;stroke-linejoin:miter;marker:none;marker-start:none;marker-mid:none;marker-end:none;stroke-miterlimit:4;stroke-dasharray:none;stroke-dashoffset:0;stroke-opacity:1;visibility:visible;display:inline;overflow:visible;enable-background:accumulate" />
      <path
         id="path2531"
         d="M 197.93558,284.71644 C 178.6622,285.22222 159.0954,284.00911 139.98915,286.2343 C 136.48052,291.63007 146.36201,293.23004 149.49808,295.6093 C 164.09524,305.34292 168.46561,323.84284 176.29651,338.64835 C 205.41795,406.87831 235.5784,474.9864 276.9088,536.81465 C 306.99514,583.0006 340.98815,626.57137 372.17665,671.81465 C 377.23535,677.89311 381.44194,667.6782 383.96237,664.0468 C 427.25257,602.02848 474.77858,542.28517 510.62858,475.29265 C 540.94458,422.1726 560.9373,363.70698 588.51601,309.31465 C 592.56872,299.60364 602.00444,295.20734 610.39087,290.16287 C 614.08301,284.69384 604.40415,285.32924 601.19458,285.34144 C 555.1473,284.24044 509.08058,284.90375 463.02487,284.76108 C 455.79941,295.07211 453.06111,308.94097 447.56982,320.62701 C 428.28884,368.26755 409.1359,416.7169 382.8463,460.74322 C 380.45924,462.98748 377.19405,472.34117 373.1588,467.12715 C 355.66077,445.723 345.68695,419.21108 333.7838,394.53787 C 317.73872,358.78531 303.47215,322.48277 289.27487,285.96644 C 277.54775,282.9598 264.08421,285.52405 251.68558,284.6718 C 233.7689,284.67917 215.85217,284.64572 197.93558,284.71644 z"
         style="opacity:1;fill:#ffffff;fill-opacity:1;fill-rule:nonzero;stroke:none;stroke-width:10;stroke-linecap:butt;stroke-linejoin:miter;marker:none;marker-start:none;marker-mid:none;marker-end:none;stroke-miterlimit:4;stroke-dasharray:none;stroke-dashoffset:0;stroke-opacity:1;visibility:visible;display:inline;overflow:visible;enable-background:accumulate" />
      <g
         transform="matrix(0.7940907,0,0,0.7940907,-1114.7986,295.23418)"
         id="g2480">
        <path
           style="fill:#d31b37;fill-opacity:1"
           d="M 1876.375,-296.5 L 1863.9062,-291.09375 C 1815.0912,-269.82929 1762.6484,-254.70583 1720.6875,-249.8125 C 1683.5143,-245.47748 1582.7565,-251.99482 1494.5312,-264.4375 C 1486.2083,-265.61131 1478.9926,-266.49669 1475.4688,-266.8125 C 1475.3071,-266.85015 1475.0077,-266.90632 1474.9062,-266.9375 C 1474.8491,-266.95508 1474.7619,-266.93167 1474.6875,-266.875 C 1473.779,-266.94479 1473.2139,-266.96389 1473.1562,-266.90625 C 1472.8981,-266.64809 1459.0349,-219.311 1442.375,-161.6875 C 1426.4955,-106.76372 1419.0267,-80.722983 1415.7188,-67.96875 L 1412.6875,-57.53125 L 1413.375,-56.53125 C 1413.3987,-55.638954 1413.6273,-55.245043 1413.9375,-54.90625 C 1417.4928,-51.02324 1428.87,-32.7548 1434.8125,-21.40625 C 1445.6361,-0.73573 1454.4581,23.591281 1459.125,45.59375 C 1462.1664,59.93233 1462.4734,92.864226 1459.6562,104.875 C 1456.9723,116.31816 1451.2068,127.11582 1444.2188,133.78125 C 1437.2645,140.41451 1432.3461,143.06611 1422.2188,145.65625 C 1407.9552,149.30424 1383.2123,147.48401 1367.875,141.65625 C 1364.5475,140.39191 1362.7589,140.1217 1362.3125,140.84375 C 1361.7043,141.82787 1361.3093,149.52323 1361.1875,158.46875 C 1361.084,160.66583 1361.0066,162.85263 1361,164.8125 C 1360.9886,168.18623 1361.1049,171.51026 1361.2812,174.8125 C 1361.2855,174.98271 1361.2768,175.17507 1361.2812,175.34375 C 1361.4037,179.94911 1361.6044,183.96623 1361.9062,186.5625 C 1364.1223,205.62413 1369.5399,222.52197 1377.7188,236 C 1379.9593,239.69218 1383.7483,244.27305 1387.9062,248.5625 C 1388.4665,249.14044 1389.0234,249.71721 1389.5938,250.28125 C 1389.9533,250.64138 1390.323,250.99514 1390.6875,251.34375 C 1391.3348,251.96688 1391.9775,252.5635 1392.625,253.15625 C 1392.6581,253.18537 1392.6856,253.22095 1392.7188,253.25 C 1396.1906,256.41984 1399.6207,259.08315 1402.3125,260.59375 C 1405.5228,262.39532 1408.3993,264.57395 1408.7188,265.40625 C 1409.6583,267.85464 1407.3117,277.23719 1401,296.3125 C 1391.7624,324.23066 1390.504,331.2768 1390.5312,355.09375 C 1390.5506,371.9572 1390.9082,376.70111 1392.7812,385.34375 C 1398.8338,413.27021 1410.9377,435.2706 1432.4688,457.46875 L 1438.9062,464.09375 L 1444.4688,469.875 L 1444.4688,469.8125 L 1444.5,469.1875 L 1445.125,457.46875 C 1445.643,447.43673 1446.3297,443.29985 1448.875,435.59375 C 1450.6008,430.36875 1452.8022,424.66684 1453.75,422.90625 C 1455.2015,420.21044 1455.4064,420.82714 1455.4688,432.53125 C 1455.4184,433.38768 1455.3871,434.2503 1455.3438,435.09375 C 1455.0831,440.16506 1455.195,445.22334 1455.6875,450.25 C 1455.6936,450.3119 1455.6813,450.37561 1455.6875,450.4375 C 1455.9284,457.5107 1456.5326,460.73029 1458.25,467.09375 C 1461.7063,479.90046 1470.9089,498.4119 1479.625,510.09375 C 1488.0174,521.34173 1508.1557,541.50867 1521.9688,552.5 C 1546.6848,572.16706 1572.0187,588.76693 1625.4375,620.34375 C 1675.3975,649.87604 1683.3373,655.48289 1687.9375,664.5 C 1690.4027,669.33219 1690.5264,673.61938 1688.3438,678.21875 C 1686.5014,682.10132 1684.0788,684.08165 1680.5625,684.5 C 1680.0602,684.55976 1679.5492,684.56479 1679,684.5625 C 1674.5543,684.54392 1671.2419,682.88762 1668.5625,679.28125 C 1667.9187,678.41476 1667.4495,677.53104 1667.0938,676.3125 C 1667.0768,676.25456 1667.0477,676.18449 1667.0312,676.125 C 1666.9353,675.75937 1666.8632,675.36215 1666.7812,674.96875 C 1666.406,673.03835 1666.1699,670.3154 1665.9688,666.15625 C 1665.9644,666.06706 1665.973,665.9968 1665.9688,665.90625 C 1665.966,665.61045 1665.9688,665.33549 1665.9688,665.03125 L 1665.9688,655.28125 L 1665.5,655.9375 L 1665.4688,655.375 L 1660.5312,662.25 C 1649.369,677.70693 1645.7244,689.54499 1647.7812,703.875 C 1650.8406,725.1887 1667.3207,741.88141 1689.5,746.125 C 1701.1267,748.3495 1710.1832,747.90941 1723.8125,744.4375 C 1724.6498,744.2242 1725.6406,745.61546 1726.4062,748.09375 C 1729.942,759.53766 1737.9567,771.05778 1752.125,785.125 C 1752.6328,785.62922 1753.1324,786.14538 1753.6562,786.65625 C 1771.0355,803.60595 1782.8036,812.61553 1827.4688,843.0625 C 1860.0412,865.2662 1868.7797,871.97983 1873.0938,878.25 C 1873.9655,879.51699 1874.7786,880.64376 1875.4062,881.4375 L 1876.3438,882.9375 L 1876.625,882.5 C 1877.0876,882.09445 1878.4099,880.33401 1879.8438,878.25 C 1884.1577,871.9798 1892.8963,865.26623 1925.4688,843.0625 C 1970.1339,812.6155 1981.9333,803.60598 1999.3125,786.65625 C 1999.8339,786.14771 2000.3069,785.62696 2000.8125,785.125 C 2014.9851,771.05463 2022.9949,759.53954 2026.5312,748.09375 C 2027.297,745.61545 2028.2877,744.22421 2029.125,744.4375 C 2042.7542,747.9094 2051.811,748.34951 2063.4375,746.125 C 2085.6169,741.8814 2102.0968,725.1887 2105.1562,703.875 C 2107.213,689.54499 2103.5997,677.70692 2092.4375,662.25 L 2087.4688,655.375 L 2087.4375,655.9375 L 2086.9688,655.28125 L 2086.9688,665.03125 C 2086.9688,665.33549 2086.9715,665.61045 2086.9688,665.90625 C 2086.968,665.99076 2086.9698,666.07242 2086.9688,666.15625 C 2086.7676,670.3154 2086.5315,673.03835 2086.1562,674.96875 C 2086.0743,675.36215 2086.0022,675.75937 2085.9062,676.125 C 2085.8898,676.18449 2085.8607,676.25456 2085.8438,676.3125 C 2085.488,677.53104 2085.0187,678.41477 2084.375,679.28125 C 2081.6956,682.88759 2078.3831,684.5439 2073.9375,684.5625 C 2073.3883,684.5648 2072.8773,684.55976 2072.375,684.5 C 2068.8587,684.08166 2066.4361,682.10132 2064.5938,678.21875 C 2062.4112,673.61937 2062.5349,669.33222 2065,664.5 C 2069.5456,655.58973 2077.7521,649.77585 2125.4688,621.59375 C 2180.037,589.36495 2204.974,573.04638 2229.9688,553.1875 C 2245.3565,540.9615 2264.3554,522.0798 2273.3125,510.09375 C 2282.0306,498.42766 2291.2267,479.91695 2294.6875,467.09375 C 2296.5676,460.12744 2297.1552,457.00817 2297.3438,448.375 C 2297.8889,442.20566 2297.9616,435.91648 2297.5,429.53125 C 2297.5891,420.51537 2297.8554,420.43201 2299.1875,422.90625 C 2300.1354,424.66685 2302.3367,430.36876 2304.0625,435.59375 C 2306.6078,443.29984 2307.3256,447.43672 2307.8438,457.46875 L 2308.4688,469.8125 L 2318.5312,459.4375 L 2320.4688,457.46875 C 2341.9997,435.2706 2354.1037,413.27021 2360.1562,385.34375 C 2361.8648,377.46027 2362.2958,372.70908 2362.375,359.15625 C 2362.3826,357.85114 2362.4046,356.57502 2362.4062,355.09375 C 2362.4334,331.27679 2361.175,324.23067 2351.9375,296.3125 C 2345.6258,277.23718 2343.2792,267.85463 2344.2188,265.40625 C 2344.5382,264.57396 2347.2777,262.49393 2350.3125,260.78125 C 2371.9798,248.55298 2387.0082,221.16762 2391.0312,186.5625 C 2391.3331,183.96623 2391.5338,179.94911 2391.6562,175.34375 C 2391.6584,175.26437 2391.6542,175.17347 2391.6562,175.09375 C 2391.843,171.7002 2391.9492,168.28195 2391.9375,164.8125 C 2391.9299,162.57376 2391.8499,160.04877 2391.7188,157.53125 C 2391.7149,157.45825 2391.7226,157.38552 2391.7188,157.3125 C 2391.58,148.88172 2391.2064,141.78452 2390.625,140.84375 C 2390.1787,140.1217 2388.39,140.39192 2385.0625,141.65625 C 2376.0978,145.06257 2360.8012,147.59375 2349.2188,147.59375 C 2324.1216,147.59375 2307.5724,138.39969 2298.5,119.46875 C 2292.6749,107.31376 2291.4721,99.958417 2291.5312,76.59375 C 2291.575,59.34232 2291.9383,54.429851 2293.8125,45.59375 C 2298.4795,23.59128 2307.3014,-0.73572975 2318.125,-21.40625 C 2324.0559,-32.73286 2335.4376,-51.004709 2339,-54.90625 C 2339.305,-55.240265 2339.504,-55.630211 2339.5312,-56.5 L 2340.25,-57.53125 L 2337.2812,-67.875 C 2333.9854,-80.599866 2326.4709,-106.64843 2310.5625,-161.6875 C 2293.9077,-219.30851 2280.0732,-266.64561 2279.8125,-266.90625 C 2279.7543,-266.96445 2279.159,-266.9443 2278.25,-266.875 C 2278.1756,-266.93167 2278.1197,-266.95508 2278.0625,-266.9375 C 2277.9682,-266.9085 2277.6777,-266.8471 2277.5312,-266.8125 C 2274.025,-266.50226 2266.7673,-265.6167 2258.4062,-264.4375 C 2170.3211,-252.01458 2069.3642,-245.48437 2032.25,-249.8125 C 1990.3482,-254.69895 1942.112,-268.54233 1890.8125,-290.375 L 1876.375,-296.5 z M 1876.4688,-285.40625 C 1876.71,-285.40625 1877.6779,-285.08083 1878.9062,-284.625 L 1887.1562,-281.03125 C 1937.9069,-258.93283 1991.755,-243.7947 2035.4688,-239.34375 C 2057.2248,-237.12853 2116.0863,-239.18738 2167.9688,-243.96875 C 2192.8751,-246.26407 2236.3707,-251.1853 2255.4688,-253.875 C 2260.1413,-254.53306 2264.4141,-255.10377 2267.5312,-255.5 C 2267.6361,-255.51333 2267.679,-255.51833 2267.7812,-255.53125 C 2270.3465,-255.75339 2272.1635,-255.83464 2272.75,-255.75 C 2273.1132,-254.76883 2285.4281,-212.34412 2300.4375,-160.375 C 2315.6024,-107.86716 2328.4063,-63.702209 2328.9062,-62.21875 C 2329.6566,-59.99219 2329.3433,-58.828478 2327,-55.59375 C 2311.8291,-34.650929 2298.75,-7.5047534 2290.4062,19.34375 C 2286.7822,31.005109 2284.0225,42.613473 2282.4062,53.625 C 2280.8759,64.051618 2280.7622,82.22071 2281.8125,95.1875 C 2281.834,95.453019 2281.8525,95.738972 2281.875,96 C 2281.9502,96.986406 2282.0487,97.908458 2282.1562,98.78125 C 2282.1685,98.880486 2282.1748,98.995501 2282.1875,99.09375 C 2282.1886,99.103628 2282.1864,99.115132 2282.1875,99.125 C 2282.5178,102.11508 2282.931,104.67729 2283.4062,106.59375 C 2290.0561,133.4083 2304.8364,149.45567 2328.6562,155.6875 C 2329.1866,155.82624 2329.777,155.93817 2330.3438,156.0625 C 2331.0966,156.24321 2331.8878,156.4123 2332.6875,156.53125 C 2345.7515,158.78419 2365.9531,157.77631 2379.7188,153.96875 C 2381.698,153.42128 2381.9401,153.8949 2381.9688,161.84375 L 2381.6875,170.9375 C 2381.604,173.67043 2381.4946,176.1418 2381.375,178.46875 C 2380.5531,188.74039 2378.9394,199.29243 2376.9375,206.59375 C 2375.8065,210.71875 2372.5948,218.79788 2369.8125,224.53125 C 2365.5173,233.38237 2363.5426,236.18059 2356.625,243.09375 C 2350.4312,249.28366 2346.7345,252.04575 2341.1875,254.65625 L 2333.875,258.09375 L 2333.9062,258.75 L 2333.7188,258.84375 L 2334.2188,266.96875 C 2334.2694,267.75987 2334.3478,268.54392 2334.4375,269.34375 C 2334.4387,269.35419 2334.4363,269.36456 2334.4375,269.375 C 2334.8993,275.72742 2336.1346,280.45813 2340.7812,294.59375 C 2347.4921,315.00891 2350.6885,326.86651 2352.0625,338.375 C 2352.0787,338.51036 2352.1093,338.64598 2352.125,338.78125 C 2352.3855,342.14428 2352.5496,345.80803 2352.6875,350.15625 C 2352.8333,354.75038 2352.8468,358.9179 2352.75,362.8125 C 2351.3362,389.60102 2342.3893,414.33003 2326.2188,435.8125 C 2322.1968,441.1557 2318.5196,445.7487 2318.0625,446.03125 C 2317.6053,446.31381 2316.4539,443.28826 2315.5,439.3125 C 2311.9531,424.53251 2303.1575,406.62962 2294.8125,397.15625 C 2290.7808,392.57943 2276.0646,380.14638 2275.4688,380.8125 C 2275.3238,380.97463 2277.3747,387.61876 2280.0312,395.59375 C 2285.9048,413.22583 2287.9644,424.55164 2287.9688,439.25 C 2287.9775,470.11915 2276.1227,495.27569 2248.4688,523.09375 C 2222.395,549.32223 2192.4112,570.41553 2121.9688,612.0625 C 2081.4868,635.99627 2070.0588,643.40984 2063.4375,650.03125 C 2051.6387,661.83021 2049.755,677.05418 2058.7812,687.78125 C 2066.385,696.81777 2082.6413,696.71027 2090.3125,687.59375 C 2091.8248,685.79642 2093.2652,684.54635 2093.5312,684.8125 C 2093.7975,685.07866 2094.5239,688.08781 2095.125,691.5 C 2095.9437,696.14758 2095.9069,699.26472 2095,703.875 C 2091.3128,722.61649 2076.7321,734.99023 2056.375,737.21875 C 2055.9892,737.25076 2055.6117,737.28661 2055.2188,737.3125 C 2052.2542,737.50781 2049.0956,737.51542 2045.6875,737.375 C 2044.5849,737.32957 2043.6253,737.29536 2042.7188,737.25 C 2042.6902,737.24857 2042.6534,737.25143 2042.625,737.25 C 2036.2779,736.5559 2030.969,734.7917 2025.4688,731.6875 C 2022.4612,729.9901 2019.8377,728.59376 2019.625,728.59375 C 2019.5862,728.59375 2019.5481,728.75035 2019.5,728.96875 L 2019.2188,728.8125 L 2019,733.1875 C 2018.9943,733.25793 2018.9744,733.30348 2018.9688,733.375 C 2018.895,734.31052 2018.8435,735.3301 2018.7812,736.40625 C 2017.3591,760.97125 1994.3214,784.23638 1924.4688,831.625 C 1911.2687,840.58 1896.4188,850.93643 1891.4688,854.65625 C 1886.5187,858.37605 1881.1286,862.54655 1879.4688,863.90625 L 1876.4375,866.375 L 1873.4688,863.90625 C 1865.9409,857.64385 1850.5422,846.59978 1828.4688,831.625 C 1758.6161,784.2364 1735.5782,760.97126 1734.1562,736.40625 C 1734.0939,735.3301 1734.0425,734.31052 1733.9688,733.375 C 1733.9631,733.30348 1733.9432,733.25793 1733.9375,733.1875 L 1733.7188,728.8125 L 1733.4375,728.96875 C 1733.3894,728.75035 1733.3513,728.59375 1733.3125,728.59375 C 1733.0998,728.59375 1730.4763,729.99013 1727.4688,731.6875 C 1721.9684,734.79168 1716.6596,736.5559 1710.3125,737.25 C 1710.2812,737.25342 1710.2501,737.24663 1710.2188,737.25 C 1709.3122,737.29536 1708.3526,737.32957 1707.25,737.375 C 1703.8769,737.51397 1700.7507,737.50227 1697.8125,737.3125 C 1697.7815,737.30981 1697.7497,737.31524 1697.7188,737.3125 C 1697.2616,737.28238 1696.8225,737.22591 1696.375,737.1875 C 1680.4186,735.41183 1668.0412,727.45049 1661.5938,714.5625 C 1657.6307,706.641 1656.3998,698.57902 1657.9375,690.65625 C 1658.5165,687.6732 1659.189,685.02979 1659.4375,684.78125 C 1659.6861,684.53274 1661.1126,685.79644 1662.625,687.59375 C 1670.2961,696.71025 1686.5525,696.81775 1694.1562,687.78125 C 1703.1825,677.0542 1701.33,661.83023 1689.5312,650.03125 C 1682.9099,643.40982 1671.4508,635.99629 1630.9688,612.0625 C 1560.5262,570.41551 1530.5426,549.3222 1504.4688,523.09375 C 1476.8148,495.27572 1464.9599,470.11914 1464.9688,439.25 C 1464.973,424.55165 1467.0328,413.22584 1472.9062,395.59375 C 1475.5628,387.61875 1477.6137,380.97462 1477.4688,380.8125 C 1476.8727,380.14639 1462.1567,392.57944 1458.125,397.15625 C 1449.7799,406.62961 1440.9843,424.53251 1437.4375,439.3125 C 1436.4835,443.28826 1435.3323,446.31382 1434.875,446.03125 C 1434.4178,445.74869 1430.772,441.15569 1426.75,435.8125 C 1410.7804,414.59699 1401.8319,390.21691 1400.25,363.8125 C 1400.2419,363.67742 1400.2265,363.54144 1400.2188,363.40625 C 1400.0989,359.36044 1400.13,355.02601 1400.2812,350.25 C 1400.4274,345.63628 1400.5889,341.80747 1400.875,338.28125 C 1402.2551,326.80147 1405.4632,314.95457 1412.1562,294.59375 C 1416.9869,279.89838 1418.1431,275.34972 1418.5625,268.59375 C 1418.6147,268.05109 1418.6841,267.51024 1418.7188,266.96875 L 1419.25,258.84375 L 1419.0312,258.71875 L 1419.0625,258.09375 L 1411.7812,254.65625 C 1406.2342,252.04575 1402.5063,249.28367 1396.3125,243.09375 C 1389.3949,236.18058 1387.4202,233.38237 1383.125,224.53125 C 1380.3427,218.79788 1377.1311,210.71875 1376,206.59375 C 1373.9995,199.29762 1372.385,188.76453 1371.5625,178.5 C 1371.4421,176.16444 1371.3652,173.68244 1371.2812,170.9375 L 1370.9688,160.875 L 1370.9688,153.375 L 1373.7188,154.0625 C 1389.5618,158.0803 1408.5711,158.94958 1421.4688,156.34375 C 1421.5297,156.33144 1421.5956,156.32497 1421.6562,156.3125 C 1421.6983,156.30404 1421.7394,156.2899 1421.7812,156.28125 C 1422.6414,156.10247 1423.4798,155.89765 1424.2812,155.6875 C 1448.1128,149.43852 1462.8819,133.4064 1469.5312,106.59375 C 1470.3991,103.09433 1471.0329,97.422853 1471.4062,90.9375 C 1471.8971,84.952626 1472.005,78.650752 1471.75,72.125 C 1471.6288,65.146449 1471.2502,58.52352 1470.5312,53.625 C 1468.915,42.613473 1466.1553,31.005109 1462.5312,19.34375 C 1454.1875,-7.504753 1441.1084,-34.650928 1425.9375,-55.59375 C 1423.5933,-58.82985 1423.2793,-59.991239 1424.0312,-62.21875 C 1424.5321,-63.70221 1437.3341,-107.86536 1452.5,-160.375 C 1467.5104,-212.34591 1479.8261,-254.77059 1480.1875,-255.75 C 1480.7763,-255.83497 1482.6059,-255.75531 1485.1875,-255.53125 C 1485.2781,-255.51976 1485.3135,-255.5118 1485.4062,-255.5 C 1488.5228,-255.10317 1492.7962,-254.53307 1497.4688,-253.875 C 1516.5667,-251.18529 1560.0624,-246.26407 1584.9688,-243.96875 C 1636.8511,-239.18738 1695.7127,-237.12853 1717.4688,-239.34375 C 1760.4095,-243.716 1807.6574,-256.75929 1861.125,-279.03125 L 1876.25,-285.34375 C 1876.3304,-285.3605 1876.4255,-285.40625 1876.4688,-285.40625 z M 1513.6562,-202.0625 C 1513.4761,-202.05798 1513.3622,-202.04967 1513.3438,-202.03125 C 1513.3404,-202.02786 1513.2885,-201.88676 1513.2812,-201.875 C 1513.1424,-201.84771 1513.035,-201.81833 1513,-201.78125 C 1512.5485,-201.30341 1496.9887,-168.17689 1478.4375,-128.15625 L 1444.7188,-55.375 L 1448.4688,-50.15625 C 1473.7764,-14.77623 1495.324,27.195788 1503,56.03125 C 1508.3507,76.1318 1510.2094,89.461477 1510.25,107.59375 C 1510.3079,133.46305 1507.166,144.95733 1491.3125,176.59375 C 1485.6624,187.86875 1480.3427,199.78444 1479.5,203.0625 C 1477.5363,210.70184 1477.5545,220.01092 1479.5312,225.8125 C 1484.4925,240.37324 1502.3787,247.39113 1515.8438,240.0625 C 1524.3287,235.44444 1528.4559,228.6756 1528.9062,218.46875 C 1528.9085,218.41798 1528.9042,218.36344 1528.9062,218.3125 C 1528.9092,218.27065 1528.9035,218.22936 1528.9062,218.1875 C 1528.9428,217.63217 1528.9688,217.08739 1528.9688,216.53125 C 1528.9688,216.1376 1528.9431,215.69555 1528.9062,215.25 C 1528.6578,207.92151 1526.2749,200.62784 1522.1562,194.84375 C 1520.9802,193.19207 1519.9963,191.57389 1519.9688,191.21875 C 1519.9683,191.21357 1519.9688,191.19214 1519.9688,191.1875 C 1519.9688,191.16732 1519.9776,191.16749 1520,191.15625 C 1520.336,190.98766 1523.1329,191.79514 1526.5,193.0625 C 1553.3533,203.17008 1567.2757,230.58337 1560,259.03125 C 1557.2659,269.72132 1552.0581,279.63749 1539.4375,298.21875 C 1527.3702,315.98532 1524.3672,321.8082 1523.5,329.09375 C 1523.043,332.93295 1523.0494,334.89857 1524.1875,335.5 C 1524.2001,335.50666 1524.2059,335.52493 1524.2188,335.53125 C 1524.2591,335.57027 1524.2952,335.59375 1524.3438,335.59375 C 1525.4208,335.99795 1527.3775,335.40548 1530.625,334.09375 C 1542.4262,329.32706 1549.3246,328.1724 1566.9688,328.125 C 1577.4461,328.09686 1585.4763,328.59129 1588.9688,329.4375 C 1612.1041,335.04312 1628.4064,344.03002 1643.7812,359.71875 C 1662.9106,379.23857 1672.3984,400.35329 1673.625,426.09375 C 1673.9395,432.69375 1673.7831,439.63972 1673.2812,441.53125 L 1672.4062,444.8125 C 1672.3205,444.73211 1672.2258,444.61039 1672.125,444.5 L 1669.2812,439.46875 C 1658.1245,419.70022 1641.4435,403.97604 1624.25,397.03125 C 1593.6961,384.69001 1557.4581,401.61178 1549.375,431.96875 C 1547.5684,438.75378 1547.6143,452.00545 1549.4688,458.25 C 1551.5248,465.17336 1557.8098,474.52719 1562.6562,477.875 C 1580.6157,490.28115 1602.0716,485.67442 1611.7188,467.3125 C 1614.1155,462.75058 1614.4652,460.96432 1614.4688,453.09375 C 1614.4732,443.71302 1613.2787,439.81762 1607.9375,431.8125 L 1605.75,428.53125 L 1611.0938,430.625 C 1614.0464,431.77634 1619.4261,434.46659 1623.0312,436.59375 C 1644.6925,449.37449 1656.4382,467.48598 1660,493.59375 C 1661.7166,506.17577 1659.5634,527.95681 1655.4688,539.5625 C 1653.8357,544.19092 1654.0722,544.37256 1658.0625,541.53125 C 1659.6635,540.39128 1663.6806,538.36736 1666.9688,537.03125 C 1694.303,525.92432 1721.7498,540.85514 1723.5625,567.8125 C 1724.0473,575.02105 1724.0437,575.06568 1722.2812,572.59375 C 1714.7562,562.03877 1703.9529,558.15408 1695,562.78125 C 1685.0022,567.94845 1681.6969,579.31101 1687.375,589 C 1690.2564,593.91675 1690.3166,593.95916 1708.9375,607.75 C 1736.4347,628.11481 1754.4109,650.84291 1759.5625,671.71875 L 1761.1875,678.34375 L 1764.8438,677.5 C 1770.6039,676.16117 1782.0095,676.45891 1788.4062,678.125 C 1795.3274,679.92775 1806.8377,685.76507 1809.9062,689.03125 L 1812.0625,691.34375 L 1806.9062,693.03125 C 1800.3076,695.18954 1795.2075,698.42143 1791.1875,703 C 1786.01,708.89687 1784.6673,712.41895 1784.1875,721.21875 C 1783.236,738.67175 1792.1064,753.33817 1813.9688,770.375 C 1840.0262,790.6809 1864.2299,812.84961 1872.0312,823.5625 C 1873.6472,825.78147 1875.1611,827.55775 1876.0938,828.375 L 1876.4062,828.84375 L 1876.5,828.6875 C 1876.7332,828.84324 1876.9296,828.90048 1877,828.8125 C 1877.3234,828.4082 1879.4905,825.54022 1881.8438,822.40625 C 1889.7595,811.86465 1913.6425,790.11107 1938.9688,770.375 C 1960.8311,753.3382 1969.7328,738.67175 1968.7812,721.21875 C 1968.3014,712.41895 1966.9275,708.89685 1961.75,703 C 1957.73,698.42145 1952.6298,695.18952 1946.0312,693.03125 L 1940.875,691.34375 L 1943.0312,689.03125 C 1946.0997,685.76506 1957.61,679.92777 1964.5312,678.125 C 1970.9279,676.45889 1982.3648,676.16115 1988.125,677.5 L 1991.75,678.34375 L 1993.375,671.71875 C 1998.5266,650.84289 2016.5028,628.1148 2044,607.75 C 2062.6208,593.95917 2062.7123,593.91675 2065.5938,589 C 2071.2719,579.31101 2067.9665,567.94847 2057.9688,562.78125 C 2049.0158,558.15406 2038.1812,562.03878 2030.6562,572.59375 C 2028.8938,575.06567 2028.8902,575.02103 2029.375,567.8125 C 2031.1877,540.85516 2058.6345,525.92433 2085.9688,537.03125 C 2089.2569,538.36735 2093.2742,540.39126 2094.875,541.53125 C 2098.8653,544.37258 2099.1018,544.1909 2097.4688,539.5625 C 2095.4008,533.70142 2093.2467,521.42915 2092.4688,511.09375 C 2090.4868,484.76261 2100.3785,459.43808 2118.5312,444.4375 C 2124.6026,439.42049 2134.859,433.34855 2141.8438,430.625 L 2147.2188,428.53125 L 2145.0312,431.8125 C 2139.6901,439.81761 2138.4957,443.71303 2138.5,453.09375 C 2138.5036,460.96431 2138.822,462.75058 2141.2188,467.3125 C 2150.8261,485.59897 2172.3682,490.30539 2190.125,478 C 2194.9619,474.64802 2201.4714,465.03795 2203.4688,458.3125 C 2205.3428,452.00197 2205.4086,438.78476 2203.5938,431.96875 C 2200.1056,418.86846 2190.3001,406.62191 2178.25,400.3125 C 2153.6958,387.45619 2127.6384,391.61077 2105.4062,411.90625 C 2098.4766,418.23222 2088.565,430.77105 2083.6562,439.46875 L 2080.5625,444.96875 L 2079.6562,441.53125 C 2079.1543,439.63972 2078.998,432.69376 2079.3125,426.09375 C 2080.5391,400.35328 2090.027,379.23858 2109.1562,359.71875 C 2118.4282,350.25747 2126.2284,344.4932 2136.9688,339.125 C 2154.207,330.50897 2165.033,328.06879 2185.9688,328.125 C 2203.613,328.17239 2210.5426,329.32706 2222.3438,334.09375 C 2225.5913,335.40548 2227.5167,335.99795 2228.5938,335.59375 C 2228.6423,335.59375 2228.6784,335.57027 2228.7188,335.53125 C 2228.7322,335.51824 2228.7374,335.51712 2228.75,335.5 C 2229.8881,334.89857 2229.9257,332.93296 2229.4688,329.09375 C 2228.6015,321.80819 2225.5674,315.98531 2213.5,298.21875 C 2200.8794,279.6375 2195.6715,269.72133 2192.9375,259.03125 C 2190.4237,249.20243 2190.4258,240.00815 2192.9375,230.1875 C 2196.3784,216.73381 2203.5745,206.38746 2214.4688,199.15625 C 2219.4805,195.82962 2231.9038,190.41368 2232.9062,191.0625 C 2232.916,191.06884 2232.9299,191.08625 2232.9375,191.09375 C 2232.9521,191.11835 2232.9577,191.16018 2232.9688,191.1875 C 2232.9688,191.51037 2232.0058,193.16799 2230.8125,194.84375 C 2226.6938,200.62783 2224.2796,207.92151 2224.0312,215.25 C 2223.9944,215.69555 2223.9687,216.1376 2223.9688,216.53125 C 2223.9688,217.08739 2223.9947,217.63217 2224.0312,218.1875 C 2224.034,218.22936 2224.0283,218.27065 2224.0312,218.3125 C 2224.0333,218.36344 2224.029,218.41798 2224.0312,218.46875 C 2224.4817,228.6756 2228.6088,235.44444 2237.0938,240.0625 C 2250.5588,247.39113 2268.445,240.37325 2273.4062,225.8125 C 2275.383,220.01091 2275.401,210.70184 2273.4375,203.0625 C 2272.5949,199.78444 2267.275,187.86875 2261.625,176.59375 C 2245.7714,144.95733 2242.6295,133.46305 2242.6875,107.59375 C 2242.7281,89.46148 2244.5867,76.131798 2249.9375,56.03125 C 2257.579,27.32494 2279.2617,-14.85192 2304.5,-50.15625 L 2308.25,-55.375 L 2274.5,-128.15625 C 2255.9489,-168.17689 2240.4202,-201.30341 2239.9688,-201.78125 C 2239.9327,-201.81935 2239.8202,-201.84613 2239.6875,-201.875 C 2239.6793,-201.88844 2239.5974,-202.02759 2239.5938,-202.03125 C 2239.5382,-202.08671 2238.5066,-202.06451 2237.0625,-202 C 2228.3125,-202.0254 2199.9453,-200.1412 2160.4688,-196.84375 C 2109.0069,-192.54519 2060.1038,-186.75212 2037.625,-182.3125 C 2001.5034,-175.17839 1948.1836,-157.50877 1892.9062,-134.34375 L 1876.3438,-127.40625 L 1866.9062,-131.5 C 1844.6988,-141.14381 1807.5862,-155.29515 1782.9688,-163.5 C 1733.0358,-180.14239 1710.1861,-184.84333 1645.4688,-191.84375 C 1603.5574,-196.37727 1532.9755,-201.8148 1516.5625,-201.96875 C 1515.1994,-202.03675 1514.1057,-202.07377 1513.6562,-202.0625 z M 1580.9688,-11.40625 L 1674.0625,-11.15625 L 1766.6562,-10.90625 L 1770.3438,-1.15625 C 1772.4669,4.48045 1780.1783,24.168751 1787.5,42.59375 C 1825.5196,138.27025 1855.3796,200.2647 1871.6875,217.40625 C 1876.5211,222.48692 1877.5035,222.29735 1883.4062,215.09375 C 1901.7488,192.70899 1936.9852,116.95065 1975.5938,16.84375 L 1986.2812,-10.90625 L 2078.875,-11.15625 L 2171.9688,-11.40625 L 2171.9688,-8.53125 C 2171.9688,-5.98177 2171.5283,-5.5427499 2168.2188,-4.9375 C 2159.4561,-3.33504 2148.5039,6.6395807 2140.5,20.3125 C 2138.0693,24.46489 2130.3851,41.629419 2123.4062,58.46875 C 2074.1933,177.21208 2041.3913,240.55427 1986.6562,322.59375 C 1969.5961,348.16421 1954.1233,369.69731 1923.0938,411.09375 C 1895.155,448.36661 1885.7434,462.05755 1880.375,473.21875 C 1878.4529,477.215 1876.734,480.51242 1876.5,480.59375 C 1876.4842,480.59375 1876.4552,480.56698 1876.4375,480.5625 C 1876.1691,480.40265 1874.4603,477.16441 1872.5625,473.21875 C 1867.1942,462.05756 1857.7825,448.36662 1829.8438,411.09375 C 1796.1962,366.20482 1782.1816,346.57489 1761.4375,315.1875 C 1709.1495,236.07233 1677.295,173.8156 1627.0312,52.46875 C 1615.5801,24.82313 1610.5904,15.53244 1602.3438,6.625 C 1596.0336,-0.19071 1590.357,-3.9064099 1584.7188,-4.9375 C 1581.4091,-5.54275 1580.9688,-5.9817703 1580.9688,-8.53125 L 1580.9688,-11.40625 z M 1838.4062,593.71875 C 1848.5448,593.65865 1858.5541,598.2475 1862.0312,605.90625 C 1864.4007,611.12511 1864.6271,622.77171 1862.4688,627.9375 C 1860.1526,633.48087 1855.4871,638.11708 1849.7188,640.625 C 1843.1227,643.49273 1831.585,644.17291 1824.4688,642.125 C 1821.7188,641.33361 1818.6721,640.92839 1817.6875,641.21875 C 1816.1267,641.67907 1817.5277,638.63225 1822.0938,631.5 C 1822.4921,631.16947 1822.8639,630.99314 1823.25,630.9375 C 1824.0488,631.12585 1825.381,631.54457 1826.9375,632.09375 C 1836.4903,635.46418 1846.639,633.14407 1850.3125,626.78125 C 1852.7137,622.62231 1852.0476,621.96466 1847.8125,624.25 C 1842.4827,627.12606 1830.7137,626.78697 1825.0312,623.59375 C 1819.5106,620.4915 1816.8125,616.06066 1816.8125,610.09375 C 1816.8125,604.03809 1819.5094,599.71764 1825.0938,596.84375 C 1829.1613,594.75049 1833.7978,593.74607 1838.4062,593.71875 z M 1892.125,593.75 C 1902.9695,593.77054 1911.6017,598.419 1912.6562,606.28125 C 1913.0895,609.51188 1912.7189,610.73806 1910.5,613.375 L 1907.8125,616.5625 L 1911.375,619.9375 C 1914.4486,622.83622 1914.9688,623.96396 1914.9688,627.8125 C 1914.9688,634.23564 1911.78,638.53287 1904.9375,641.3125 C 1896.5838,644.70601 1883.3485,644.05074 1872.625,639.71875 C 1871.0663,639.0891 1869.3788,638.84485 1868.875,639.15625 C 1867.5537,639.97282 1867.6968,639.44735 1870.4375,633.25 L 1872.8438,627.84375 C 1873.0509,627.88148 1873.3956,627.97138 1873.75,628.0625 L 1877.6875,629.8125 C 1881.9062,631.68939 1888.5128,632.65661 1893.5312,632.53125 C 1893.6842,632.52743 1893.8189,632.50589 1893.9688,632.5 C 1896.7701,632.38985 1899.0298,631.94048 1900,631.0625 C 1902.4644,628.83226 1902.5284,626.39673 1900.1562,624.25 C 1899.6842,623.82278 1898.8141,623.48916 1897.7812,623.21875 C 1897.7693,623.21561 1897.762,623.19061 1897.75,623.1875 C 1897.0886,622.98516 1896.2734,622.84853 1895.375,622.75 C 1895.282,622.7398 1895.1894,622.7279 1895.0938,622.71875 C 1894.8477,622.69088 1894.5938,622.6774 1894.3438,622.65625 C 1894.2666,622.65143 1894.1724,622.66051 1894.0938,622.65625 C 1892.3536,622.52503 1890.5791,622.54142 1889.1875,622.75 C 1888.7467,622.80538 1888.3693,622.839 1888.0625,622.9375 C 1888.0294,622.94813 1888.0004,622.95757 1887.9688,622.96875 C 1887.2583,623.17778 1886.7719,623.47962 1886.625,623.84375 C 1886.417,624.35938 1886.2331,622.90528 1886.1562,620.40625 C 1886.1306,619.57324 1886.125,618.625 1886.125,617.59375 C 1886.125,614.5 1886.2566,612.13184 1886.4375,611.4375 C 1886.4576,611.36035 1886.4787,611.34737 1886.5,611.3125 C 1886.5188,611.28425 1886.5423,611.27067 1886.5625,611.25 C 1886.5875,611.25473 1886.599,611.2793 1886.625,611.34375 C 1886.8479,611.89621 1888.15,612.25363 1889.8125,612.4375 C 1889.9862,612.45671 1890.1625,612.48484 1890.3438,612.5 C 1890.3948,612.5044 1890.4483,612.49629 1890.5,612.5 C 1890.7745,612.5197 1891.0541,612.56253 1891.3438,612.5625 C 1894.3653,612.68908 1897.8713,612.31621 1898.7812,611.40625 C 1900.7242,609.4633 1900.1541,606.74878 1897.4375,604.96875 C 1894.1785,602.8334 1885.8695,603.56939 1880.125,606.5 C 1877.8768,607.64698 1875.6884,608.59376 1875.25,608.59375 C 1874.5286,608.59375 1868.9688,600.15811 1868.9688,599.0625 C 1868.9688,598.95107 1869.0474,598.86203 1869.1562,598.8125 C 1869.1708,598.8059 1869.1715,598.7866 1869.1875,598.78125 L 1869.2188,598.78125 C 1869.3522,598.7439 1869.5252,598.75876 1869.7188,598.8125 C 1870.1312,598.92703 1873.1693,597.97675 1876.4688,596.71875 C 1881.8096,594.68233 1887.1957,593.74066 1892.125,593.75 z M 1942.9375,594.09375 C 1949.1361,594.09375 1951.2478,594.53826 1954.875,596.59375 C 1961.1174,600.1314 1963.4688,603.68266 1963.4688,609.59375 C 1963.4688,616.43037 1961.0141,619.19818 1949.5938,625.1875 C 1944.2648,627.98232 1939.3927,630.79483 1938.75,631.4375 C 1937.8587,632.32886 1940.5273,632.59376 1950.0625,632.59375 C 1958.4514,632.59375 1962.9759,632.2116 1963.7812,631.40625 C 1964.7145,630.47292 1964.9688,631.69516 1964.9688,636.90625 L 1964.9688,643.59375 L 1941.4688,643.59375 C 1941.4417,643.59375 1941.4332,643.59375 1941.4062,643.59375 C 1917.993,643.59375 1917.9688,643.58748 1917.9688,641.40625 C 1917.9688,637.56239 1922.0247,630.68407 1926.4062,627.09375 C 1928.7446,625.17767 1934.89,621.1583 1940.0625,618.1875 C 1947.4943,613.91903 1949.1473,612.70822 1949.625,610.5625 C 1949.7078,610.43967 1949.7956,610.33758 1949.8125,610.25 C 1949.9094,609.74689 1949.9112,609.29397 1949.8438,608.875 C 1949.8421,608.86484 1949.8455,608.85386 1949.8438,608.84375 C 1949.903,607.00526 1949.3717,606.26464 1947.625,605.46875 C 1943.7567,603.70624 1936.6657,605.26093 1931.0938,609.09375 L 1926.1875,612.46875 L 1922.5625,607.3125 L 1918.9688,602.1875 L 1927.1875,598.125 C 1934.5828,594.48792 1936.1514,594.09376 1942.9375,594.09375 z M 1801.6875,594.59375 L 1809.4688,594.59375 L 1809.1875,617.6875 C 1808.984,634.11101 1809.2387,641.19495 1810.0625,642.1875 C 1810.4954,642.70913 1810.421,643.04036 1809.5938,643.25 C 1807.7976,643.44924 1805.0909,643.57297 1801.7188,643.5625 C 1799.6388,643.55604 1798.0458,643.53634 1796.75,643.5 C 1796.665,643.49591 1796.5812,643.50442 1796.5,643.5 C 1796.2551,643.49254 1796.0934,643.47784 1795.875,643.46875 C 1793.6883,643.30772 1793.2011,642.98648 1793.7812,642.40625 C 1794.0522,642.1353 1794.2627,641.2953 1794.4375,639.96875 C 1794.4431,639.92601 1794.4632,639.88766 1794.4688,639.84375 C 1794.4973,639.69722 1794.5057,639.47808 1794.5312,639.3125 C 1794.7627,637.81265 1794.8546,635.29866 1794.9062,631.5625 C 1794.9516,629.33496 1794.9676,626.72151 1794.9688,623.71875 C 1794.9688,623.64131 1794.9688,623.57721 1794.9688,623.5 L 1794.9688,605.78125 L 1792.7188,606.34375 C 1791.4812,606.6467 1789.9063,607.30583 1789.2188,607.84375 C 1788.2511,608.60081 1787.9688,607.58236 1787.9688,603.25 C 1787.9688,598.06373 1788.2036,597.53878 1790.9375,596.125 C 1792.8417,595.1403 1796.6535,594.59432 1801.6875,594.59375 z M 1838.1562,603.46875 C 1835.7213,603.44564 1833.3086,603.99273 1831.4375,605.21875 C 1827.5963,607.73558 1828.1215,612.94107 1832.4688,615.40625 C 1838.3498,618.74122 1848.9688,615.3196 1848.9688,610.09375 C 1848.9688,606.24974 1843.5132,603.5196 1838.1562,603.46875 z"
           id="path2474" />
        <path
           id="path2470"
           d="M 1874.2162,879.50754 C 1869.4832,871.89364 1862.7551,866.65107 1823.2397,839.78667 C 1794.8305,820.47287 1786.6102,814.54747 1772.9425,803.53167 C 1747.4208,782.96167 1732.6563,765.49907 1727.3368,749.59187 C 1726.3253,746.56687 1725.429,743.95417 1725.3452,743.78587 C 1725.2614,743.61747 1722.3306,744.24427 1718.8322,745.17867 C 1711.0399,747.25997 1695.5467,747.50237 1687.9716,745.66157 C 1663.3791,739.68547 1647.9716,721.00637 1647.9716,697.16804 C 1647.9716,684.21511 1650.8365,676.38737 1660.5133,662.90074 L 1665.9716,655.29349 L 1665.9716,665.04155 C 1665.9716,679.82085 1669.2115,684.59187 1679.2476,684.59187 C 1683.7718,684.59187 1686.3167,682.81975 1688.8466,677.90761 C 1690.7818,674.15022 1690.1826,667.62765 1687.4783,663.01318 C 1682.4057,654.35746 1675.5428,649.72955 1609.6883,610.55708 C 1552.1269,576.3176 1521.7166,554.44805 1497.1423,529.61957 C 1467.8164,499.99036 1453.644,467.94792 1455.3326,435.09187 C 1455.6436,429.04187 1456.1614,422.29187 1456.4834,420.09187 L 1457.0688,416.09187 L 1454.5502,420.59187 C 1453.165,423.06687 1450.6043,429.36687 1448.8599,434.59187 C 1446.2077,442.53565 1445.5885,446.20243 1445.0799,456.97586 L 1444.4716,469.85985 L 1434.2823,459.27496 C 1410.2386,434.29764 1398.4914,412.41715 1392.3072,381.09187 C 1391.0013,374.47703 1390.5413,367.45405 1390.5712,354.59187 C 1390.6207,333.31611 1392.1065,325.42861 1401.566,296.22465 C 1405.1342,285.20868 1408.4097,273.59237 1408.8448,270.41064 L 1409.6359,264.62568 L 1403.7743,261.13392 C 1395.2283,256.04307 1389.4769,250.99097 1383.2975,243.14693 C 1369.0988,225.12302 1360.8982,196.30376 1361.0043,164.80265 C 1361.0354,155.58801 1362.3083,141.92188 1363.2204,141.00969 C 1363.4531,140.77704 1366.2544,141.48498 1369.4455,142.58289 C 1385.0982,147.96821 1409.074,149.64129 1421.9716,146.24827 C 1441.0157,141.23827 1453.3328,128.69741 1458.884,108.66555 C 1470.4904,66.78215 1454.9132,4.8584 1419.6693,-47.22326 L 1412.689,-57.53839 L 1443.0035,-162.48567 C 1468.1284,-249.46695 1473.5879,-267.34997 1474.8948,-266.9482 C 1479.659,-265.48356 1551.9979,-256.74044 1582.4716,-253.94612 C 1636.0667,-249.03166 1696.5859,-246.97584 1718.8959,-249.31183 C 1760.3765,-253.6551 1817.2618,-269.99072 1864.9889,-291.26505 L 1876.5062,-296.39888 L 1888.5416,-291.01991 C 1935.4837,-270.0402 1992.6914,-253.64204 2034.0472,-249.31183 C 2056.3572,-246.97584 2116.8764,-249.03166 2170.4716,-253.94612 C 2200.9452,-256.74044 2273.2842,-265.48356 2278.0484,-266.9482 C 2279.3552,-267.34997 2284.8147,-249.46695 2309.9397,-162.48567 L 2340.2542,-57.53839 L 2333.2843,-47.22326 C 2297.9529,5.06594 2282.4375,66.72733 2294.0592,108.66555 C 2299.623,128.74307 2311.8631,141.14813 2331.1782,146.28464 C 2343.8129,149.64461 2367.9326,147.93807 2383.4977,142.58289 C 2386.6888,141.48498 2389.4901,140.77704 2389.7228,141.00969 C 2390.6349,141.92188 2391.9078,155.58801 2391.9389,164.80265 C 2392.045,196.30376 2383.8444,225.12302 2369.6456,243.14693 C 2363.4656,250.99195 2357.7149,256.04307 2349.165,261.13621 L 2343.2996,264.63026 L 2344.2412,270.86106 C 2344.7591,274.28801 2348.0363,285.90328 2351.5238,296.67279 C 2360.8305,325.41169 2362.3226,333.37827 2362.372,354.59187 C 2362.4019,367.45405 2361.9419,374.47703 2360.636,381.09187 C 2354.4506,412.42329 2342.3933,434.85653 2318.5228,459.44575 L 2308.4716,469.79964 L 2307.8633,456.94575 C 2307.3551,446.20756 2306.733,442.52821 2304.0833,434.59187 C 2302.3389,429.36687 2299.7782,423.06687 2298.393,420.59187 L 2295.8743,416.09187 L 2296.4598,420.09187 C 2302.3609,460.41133 2289.0232,496.19632 2255.5616,529.82152 C 2230.5964,554.90872 2200.8128,576.3197 2143.2549,610.55708 C 2077.4004,649.72955 2070.5374,654.35746 2065.4648,663.01318 C 2062.7606,667.62765 2062.1614,674.15022 2064.0966,677.90761 C 2066.6265,682.81975 2069.1713,684.59187 2073.6956,684.59187 C 2083.7317,684.59187 2086.9716,679.82085 2086.9716,665.04155 L 2086.9716,655.29349 L 2092.4299,662.90074 C 2102.1067,676.38737 2104.9716,684.21511 2104.9716,697.16804 C 2104.9716,721.00637 2089.5641,739.68547 2064.9716,745.66157 C 2057.3965,747.50237 2041.9033,747.25997 2034.111,745.17867 C 2030.6126,744.24427 2027.6818,743.61747 2027.598,743.78587 C 2027.5141,743.95417 2026.6179,746.56687 2025.6063,749.59187 C 2020.2868,765.49907 2005.5223,782.96167 1980.0007,803.53167 C 1966.4408,814.46067 1958.1697,820.43057 1931.2452,838.72257 C 1891.0904,866.00307 1883.4058,872.02294 1877.9056,880.50754 L 1876.3396,882.92334 L 1874.2162,879.50754 z M 1892.0693,854.38597 C 1896.1406,851.39097 1910.9466,841.14477 1924.9716,831.61667 C 1972.5303,799.30697 1991.89,783.60987 2006.0503,765.87697 C 2014.8572,754.84817 2018.2466,747.18387 2018.7758,737.10097 L 2019.2114,728.80097 L 2027.0377,732.86947 C 2034.4918,736.74437 2035.3788,736.95907 2045.6865,737.38377 C 2063.8632,738.13267 2075.2607,734.26617 2084.8906,724.08397 C 2094.0886,714.35847 2097.6612,702.0478 2095.0025,689.24055 L 2093.7899,683.39945 L 2090.6307,686.84353 C 2082.8987,695.27295 2070.8919,696.81326 2061.9206,690.52666 C 2060.5175,689.54348 2058.0489,686.34344 2056.4347,683.41547 C 2052.2686,675.85838 2052.2753,667.31334 2056.4534,659.73401 C 2062.8311,648.16432 2069.9623,643.17983 2138.2549,602.55708 C 2197.6879,567.20434 2226.8937,546.00073 2251.7051,520.19163 C 2277.308,493.55927 2288.1255,469.49447 2288.161,439.09187 C 2288.1788,423.7747 2286.0789,412.20792 2280.0049,394.16603 C 2277.7967,387.60681 2276.142,382.08818 2276.3277,381.9024 C 2277.1885,381.04158 2292.1217,393.98528 2296.2025,399.12945 C 2304.3989,409.46146 2311.8591,425.78156 2316.07,442.59187 L 2317.1972,447.09187 L 2321.6542,442.09187 C 2331.9057,430.59155 2342.3796,411.71709 2347.3995,395.69807 C 2351.9002,381.33567 2353.2832,369.38863 2352.6727,350.14656 C 2352.0311,329.92448 2350.9075,324.45919 2341.4566,295.59079 C 2336.1641,279.42473 2334.6356,273.37344 2334.2252,266.96193 L 2333.7047,258.83199 L 2341.9357,254.5497 C 2360.6628,244.80681 2373.1864,226.04785 2378.9824,199.05802 C 2380.5162,191.91569 2381.2798,183.95107 2381.6773,170.94836 L 2382.2321,152.80486 L 2374.3518,154.84714 C 2368.0301,156.4855 2363.1094,156.90944 2349.4716,156.99064 C 2332.9133,157.08924 2332.2496,157.01237 2323.9274,154.03195 C 2302.7557,146.44973 2290.1751,131.72628 2283.819,107.09187 C 2281.7628,99.12258 2281.4988,95.8014 2281.5142,78.09187 C 2281.5333,56.08873 2283.0133,45.39445 2288.9656,24.24895 C 2296.2233,-1.53342 2311.289,-33.00309 2326.696,-54.56294 L 2330.0224,-59.21776 L 2301.8212,-157.06294 C 2286.3104,-210.8778 2273.3231,-255.26148 2272.9605,-255.69334 C 2272.5979,-256.12521 2262.2145,-255.1169 2249.8864,-253.45265 C 2168.2806,-242.4362 2073.6109,-236.11656 2038.4716,-239.33974 C 1994.7575,-243.34946 1937.6195,-259.17846 1887.0491,-281.28851 C 1881.8668,-283.5543 1877.1069,-285.40813 1876.4716,-285.40813 C 1875.8363,-285.40813 1871.0764,-283.5543 1865.894,-281.28851 C 1815.3237,-259.17846 1758.1857,-243.34946 1714.4716,-239.33974 C 1679.3323,-236.11656 1584.6626,-242.4362 1503.0568,-253.45265 C 1490.7287,-255.1169 1480.3453,-256.12521 1479.9827,-255.69334 C 1479.62,-255.26148 1466.6327,-210.8778 1451.122,-157.06294 L 1422.9207,-59.21776 L 1426.2471,-54.56294 C 1441.6564,-32.99992 1456.726,-1.52085 1463.9757,24.24895 C 1473.3688,57.63744 1474.4693,91.47831 1466.9135,114.59187 C 1460.4289,134.42866 1448.1909,147.16477 1429.0158,154.03195 C 1420.6936,157.01237 1420.0299,157.08924 1403.4716,156.99064 C 1389.8338,156.90944 1384.9131,156.4855 1378.5913,154.84714 L 1370.7111,152.80486 L 1371.2659,170.94836 C 1371.6634,183.95107 1372.427,191.91569 1373.9608,199.05802 C 1379.7568,226.04785 1392.2804,244.80681 1411.0074,254.5497 L 1419.2385,258.83199 L 1418.718,266.96193 C 1418.3075,273.37344 1416.779,279.42473 1411.4866,295.59079 C 1402.0237,324.4957 1400.9123,329.91151 1400.2676,350.2607 C 1399.6624,369.36477 1401.0838,381.41834 1405.6724,396.09187 C 1410.5533,411.7004 1421.1332,430.69894 1431.2889,442.09187 L 1435.746,447.09187 L 1436.8732,442.59187 C 1441.0841,425.78156 1448.5443,409.46146 1456.7407,399.12945 C 1460.8215,393.98528 1475.7546,381.04158 1476.6155,381.9024 C 1476.8012,382.08818 1475.1465,387.60681 1472.9383,394.16603 C 1466.8643,412.20792 1464.7644,423.7747 1464.7822,439.09187 C 1464.8176,469.49447 1475.6352,493.55927 1501.238,520.19163 C 1526.0494,546.00073 1555.2553,567.20434 1614.6883,602.55708 C 1682.9809,643.17983 1690.1121,648.16432 1696.4898,659.73401 C 1700.6679,667.31334 1700.6746,675.85838 1696.5085,683.41547 C 1694.8943,686.34344 1692.4257,689.54348 1691.0226,690.52666 C 1682.0512,696.81326 1670.0445,695.27295 1662.3125,686.84353 L 1659.1533,683.39945 L 1657.9407,689.24055 C 1655.282,702.0478 1658.8546,714.35847 1668.0526,724.08397 C 1677.6825,734.26617 1689.08,738.13267 1707.2567,737.38377 C 1717.5644,736.95907 1718.4514,736.74437 1725.9054,732.86947 L 1733.7318,728.80097 L 1734.1674,737.10097 C 1734.6966,747.18387 1738.0859,754.84817 1746.8928,765.87697 C 1761.0641,783.62357 1780.4873,799.36897 1827.9716,831.60337 C 1855.4854,850.28107 1870.066,860.87917 1873.8791,864.97197 L 1876.2867,867.55614 L 1880.4769,863.69377 C 1882.7815,861.56947 1887.9981,857.38087 1892.0693,854.38597 z"
           style="fill:#060606" />
      </g>
    </g>
  </g>
</svg>
