<svg xmlns="http://www.w3.org/2000/svg" viewBox="0 0 522.43 754.22"><metadata xmlns:fl="https://football-logos.cc/estonia/flora-tallinn">dl1_30862a41ab3fe23f47a60ba022e28797af18cf8cc6f4cd04876849fc4239ee6a</metadata><!-- Source: https://football-logos.cc --><path fill="#f79321" d="m356.383 0 9.642 29.673h31.2l-25.241 18.34 9.643 29.674-25.244-18.338-25.243 18.338 9.642-29.674-25.241-18.34h31.2zM166.044 0l9.642 29.673h31.2l-25.241 18.34 9.642 29.674-25.243-18.338L140.8 77.687l9.643-29.674-25.241-18.34h31.2zM261.214 0l9.642 29.673h31.199l-25.24 18.34 9.643 29.674-25.244-18.338-25.243 18.338 9.642-29.674-25.241-18.34h31.2z" data-source="https://football-logos.cc"></path><path fill="#fff" d="M518.929 117.026v-.183H3.493V594.55c0 13.745 70.818 69.245 122.962 100.088 58.63 34.686 134.759 55.951 134.759 55.951s76.119-21.265 134.753-55.951c52.144-30.843 122.962-86.343 122.962-100.088z"></path><path fill="#fff" d="m261.216 754.217-.941-.262c-.766-.215-77.244-21.789-135.597-56.308-25.248-14.936-56.456-36.677-81.444-56.74C14.546 617.87 0 602.274 0 594.547V113.342h522.428v481.206c0 7.727-14.546 23.323-43.235 46.358-24.988 20.064-56.196 41.805-81.445 56.741-58.351 34.52-134.826 56.093-135.592 56.308zM6.991 120.334v474.214c0 3.08 8.555 15.161 40.62 40.907 24.749 19.871 55.643 41.396 80.626 56.174 54.062 31.982 124.071 52.75 132.979 55.323 8.906-2.573 78.912-23.34 132.973-55.322 24.984-14.779 55.878-36.304 80.627-56.175 32.066-25.746 40.621-37.828 40.621-40.907V120.334z"></path><path fill="#039648" d="M518.927 117.026v-.184H3.493v157.554h.002V594.55c0 13.746 70.814 69.246 122.963 100.093 58.632 34.681 134.754 55.945 134.754 55.945s76.123-21.264 134.753-55.945c52.148-30.847 122.962-86.347 122.962-100.093zM380.83 669.053c-43.777 25.897-99.218 44.227-119.62 50.513-20.413-6.29-75.845-24.619-119.617-50.513-45.806-27.097-95.291-66.535-108.373-81.694V274.396h227.99v424.402c12.988-4.145 34.066-11.319 56.879-20.882v-403.52h56.876V644.67a688 688 0 0 0 56.88-38.845V274.396H489.2V587.36c-13.078 15.16-62.563 54.597-108.37 81.694"></path><g fill="#fff" data-source="https://football-logos.cc"><path d="M33.698 149.948H76.23v17.796H57.515v19.628h18.453v17.797H57.515v36.383H33.698zM93.058 162.77a23.3 23.3 0 0 1 2.744-4.187 31 31 0 0 1 5.105-4.714 29.8 29.8 0 0 1 8.64-4.315 37.1 37.1 0 0 1 11.774-1.702c6.94 0 12.697 1.31 17.142 3.928a30 30 0 0 1 9.945 8.77v26.82h-22.504v-16.49a4.33 4.33 0 0 0-4.583-3.135 4.795 4.795 0 0 0-4.708 3.135v49.733a4.79 4.79 0 0 0 4.708 3.14 4.324 4.324 0 0 0 4.583-3.14v-18.32h22.504v28.788q-8.828 12.562-27.087 12.567a37.1 37.1 0 0 1-11.774-1.704 29.6 29.6 0 0 1-8.64-4.322 30.7 30.7 0 0 1-5.105-4.707 23.3 23.3 0 0 1-2.744-4.186zM165.787 149.948h42.532v17.796h-18.715v19.628h18.454v17.797h-18.454v36.383h-23.817zM225.345 149.948h23.817v73.807h17.011v17.797h-40.828zM282.554 162.51a23 23 0 0 1 2.747-4.186 31 31 0 0 1 5.105-4.716 29.6 29.6 0 0 1 8.638-4.313 37 37 0 0 1 11.773-1.704 39.3 39.3 0 0 1 12.044 1.704 26.2 26.2 0 0 1 8.77 4.445 37.4 37.4 0 0 1 5.1 4.845 22 22 0 0 1 2.75 4.054v65.959a22 22 0 0 1-2.75 4.054 37.3 37.3 0 0 1-5.1 4.84 26.2 26.2 0 0 1-8.77 4.454 38.5 38.5 0 0 1-11.91 1.699 37.1 37.1 0 0 1-11.775-1.7 29.6 29.6 0 0 1-8.638-4.321 30.7 30.7 0 0 1-5.105-4.71 23 23 0 0 1-2.746-4.183zm32.98 8.11a4.912 4.912 0 0 0-9.163 0v49.732a4.912 4.912 0 0 0 9.162 0zM382.113 208.049h-1.438v33.502h-23.817v-91.602h33.238a26.8 26.8 0 0 1 12.692 3.403 21.8 21.8 0 0 1 9.42 9.418v30.495c-1.827 4.839-4.445 8.508-7.981 10.99l7.982 21.988v15.308h-19.497zm3.008-17.796a4.87 4.87 0 0 0 4.716-3.012v-16.49a5.17 5.17 0 0 0-4.846-3.006h-4.316v22.508zM463.859 219.699h-11.52l-2.488 21.854h-21.064V226.24l12.038-76.294h35.857l12.04 76.294v15.313h-22.643zm-9.553-17.798h7.85l-2.618-26.566h-2.093z"></path></g><path fill="#039648" d="M453.24 324.875h17.837v-6.51h-3.523V293.66h-8.963l-5.351 2.274v5.753h4.057v16.678h-4.057zM463.72 354.93a6.4 6.4 0 0 1-2.052.355 2.16 2.16 0 0 1-2.006-1.025v-5.173a2.635 2.635 0 0 1 4.101 0zm-13.29 14.225c2.364 2.898 6.065 4.325 11.103 4.325a15.35 15.35 0 0 0 8.161-1.873 10.34 10.34 0 0 0 4.148-4.325v-20.334a9.3 9.3 0 0 0-1.963-2.72 11.7 11.7 0 0 0-4.013-2.32 17.2 17.2 0 0 0-6.287-1.07q-7.626 0-11.104 4.281v12.977a8.66 8.66 0 0 0 7.358 3.745 10.23 10.23 0 0 0 5.841-1.694v5.084a2.2 2.2 0 0 1-2.05 1.025 2.17 2.17 0 0 1-2.009-1.025v-1.606h-9.05zM463.72 402.778a6.4 6.4 0 0 1-2.052.357 2.17 2.17 0 0 1-2.006-1.027v-5.17a2.632 2.632 0 0 1 4.101 0zm-13.29 14.225c2.364 2.898 6.065 4.325 11.103 4.325a15.34 15.34 0 0 0 8.161-1.873 10.34 10.34 0 0 0 4.148-4.325v-20.334a9.3 9.3 0 0 0-1.963-2.72 11.7 11.7 0 0 0-4.013-2.319 17.2 17.2 0 0 0-6.287-1.07q-7.626 0-11.104 4.281v12.977a8.66 8.66 0 0 0 7.358 3.744 10.23 10.23 0 0 0 5.841-1.694v5.084a2.2 2.2 0 0 1-2.05 1.026 2.17 2.17 0 0 1-2.009-1.026v-1.606h-9.05zM464.3 460.972a2.17 2.17 0 0 1-2.008 1.026 2.19 2.19 0 0 1-2.05-1.026v-16.144a2.637 2.637 0 0 1 4.103 0zm-14.404 2.007a10.34 10.34 0 0 0 4.147 4.325 18.71 18.71 0 0 0 16.32 0 10.5 10.5 0 0 0 4.148-4.28v-20.335a10.5 10.5 0 0 0-4.147-4.281 15.36 15.36 0 0 0-8.16-1.873 17.2 17.2 0 0 0-6.288 1.07 11.7 11.7 0 0 0-4.014 2.364 9.5 9.5 0 0 0-1.961 2.765zM154.969 345.986a5.8 5.8 0 0 0-1.078-2.204c-2.96-.913-3.482-2.725-5.145-4.937-3.08.007-3.161-.922-8.992-5.071-8.869-6.303-1.032-20.18-.794-22.22.453-3.924 4.141-1.648 4.194-1.794.041-.127.192-.173.393-.18 1.207-3.115 3.357-4.152 6.992-3.442a2.23 2.23 0 0 0 1.36-.394c1.582-.907 3.03-2.193 4.718-2.736a43 43 0 0 1 8.699-1.902 55 55 0 0 1 9.691-.006 8.88 8.88 0 0 1 6.242 3.027 2.74 2.74 0 0 0 1.435.685 6.02 6.02 0 0 1 3.747 1.95 16.8 16.8 0 0 1 3.156 7.969c.115.667.194 1.829-.234 2.284-.789.82-1.036.496-.862 1.402.17.859.61 2.83.716 3.694a2.5 2.5 0 0 1-.29 1.576c-.31.505-.769.958-.647 1.49.769 3.253 1.68 6.187 2.776 9.576.459 1.437-.099 2.082-1.435 2.178-1.631.136-1.663.145-1.45 1.77.206 1.559-1.058 1.199-.75 1.788.255.484.462 1.33.058 1.53-1.479.728-.878 1.709-.959 2.77-.569 7.247-10.432-.688-10.445 3.579-.001 1.234.178 3.429.201 3.425l-20.824 2.463c.531-.062-.192-5.283-.473-8.27"></path><path fill="#039648" d="M244.255 474.29a1.21 1.21 0 0 0 1.693-.15c.881-.79.004-1.94-.563-2.532a71 71 0 0 1-6.217-8.4c-.484-.816-1.789-1.82-1.954-2.268-.098-.27.205-.257 1.097.163a8.5 8.5 0 0 0 4.094.917c1.745-.252 3.034-1.958 1.095-2.56a21.5 21.5 0 0 1-5.336-3.145c-1.28-.917-2.305-2.128-3.615-3.019-2.638-1.795-5.161-2.22-6.996-5.003a167 167 0 0 1-12.622-23.447 130 130 0 0 0-9.348-17.065c-1.4-2.536-2.761-5.008-4.051-7.35-.158-1.037.563-11.559-.668-23.253a19.7 19.7 0 0 0-3.305-9.335 15.98 15.98 0 0 0-7.85-6.853c-3.545-2.02-5.929-3.438-8.978-5.019-.905-.467-1.691-.467-2.391-1.205-1.377-1.653-2.095-4.384-2.485-4.384l-20.457-.334c-.105 2.757-2.488 4.305-9.056 6.063-.424.114-8.116 1.388-8.373 1.507-8.756 4.028-10.947 11.55-12.951 14.66a54 54 0 0 0-2.783 6.103c-.21.475-.429.9-.64 1.385-.447.932-.923 1.83-1.356 2.766-5.529 11.965-13.226 22.097-23.989 29.834-3.725 2.675-7.229 5.66-10.855 8.477a21.5 21.5 0 0 1-2.86 1.91c-3.201 1.731-5.8 1.291-8.723-.834-1.474-1.078-5.218-4.012-6.247-5.392-2.271-3.052-3.047-1.145-3.089 1.008a71.4 71.4 0 0 1-.671-10.088 10.96 10.96 0 0 0 7.558-.303c4.835-2.343 6.517-9.373 6.517-9.373s-5.834-2.525-10.669-.184a10.6 10.6 0 0 0-3.079 2.3 57 57 0 0 1 3.096-13.179c-.195.52 5.469 2.688 6.053 2.845a15.6 15.6 0 0 0 6.816.332c4.484-.797 8.313-3.949 11.047-7.398q.565-.71 1.065-1.456c.281-.433-3.829-2.864-4.244-3.087a11.3 11.3 0 0 0-6.039-1.533c-6.918.323-9.963 4.69-14.661 8.941 1.713-4.85 6.882-12.835 10.215-16.659-.143.116 2.439-3.388 5.558-7.05.822-.705 3.072-1.728.952-2.438-1.06-.352-1.993 1.004-4.406 3.455a60 60 0 0 0-7.998 9.692c3.661-9.692 1.35-15.262-4.81-21.068a10 10 0 0 0-1.497-1.236c-3.235 6.768-4.901 16.028.387 22.244a17.2 17.2 0 0 0 3.589 3.045c-.496-.335-6.084 11.811-6.448 12.92-.261-2.19-.272-5.389-1.649-7.28-4.031-5.527-12.778-5.579-12.778-5.579s-.841 5.04 3.19 10.561c2.936 4.022 7.956 4.29 10.474 4.782a112.6 112.6 0 0 0-1.45 21.565c.085 1.59.247 3.176.442 4.765-2.247-.147-.788-1.102-3.184-.544-.975.221-3.362 3.246-3.428 4.2-.183 2.696-1.587 4.73.954 6.5a10.2 10.2 0 0 1 .953 2.478c.827 3.268 2.478 2.382 5.459 3.188.977.261 1.988.413 2.996.578.226.691.453 1.383.696 2.074 0 0 1.926 3.75 3.036 3.141 1.045-.578.058-4.208.043-4.327a13.4 13.4 0 0 0 4.273.48 33.7 33.7 0 0 0 7.604-.626c7.662-2.168 13.404-2.21 22.548-6.607 2.635-1.266 12.694-8.588 15.036-10.198 1.321 3.13-.784 16.818 3.697 22.791 1.243 1.653 3.641.556 5.968 1.097 1.793.412 1.968 1.58 4.602 1.023 0 0-5.067 29.981-5.295 40.446-.934 42.658 1.592 33.232 3.796 34.868a7 7 0 0 0 2.026-.052c7.937-1.259 5.153 24.116 7.489 26.807a.785.785 0 0 1-.161 1.166c-3.477 2.157-8.928 12.183-16.772 23.284-19.492 27.588-8.647 20.034-5.107 30.63 2.977 8.89 16.766 18.26 22.132 17.708.978-.103 1.302.642.479 1.27-5.976 4.512.078 10.268 3.188 13.763 4.12 4.616 12.461 16.905 17.096 17.02 2.884.072 3.424-1.692 3.422-3.03a.71.71 0 0 1 1.055-.639 75 75 0 0 0 10.186 4.611c9.535 3.725 13.076 0 9.261-3.436-3.362-3.03-6.724-15.636-7.476-18.572a.75.75 0 0 1 .408-.868c15.849-7.81 22.367-69.8 22.843-74.495.018-.189.205-.297.237-.479 3.663-19.986 1.904-22.466-3.028-60.272-2.55-19.528-3.764-23.406-3.846-25.08-.21-4.382-.707-5.636-.072-5.112 3.332 2.755 7.422 1.151 14.125-.132.417-.078 7.776.438 7.971-2.099.21-2.724 1.467-5.03 0-6.29a39 39 0 0 1 4.578 5.335c2.828 3.767 1.632 6.015 4.368 9.536.904 1.17 2.144 2.23 3.443 3.606 1.659 1.761 2.161 2.697 3.702 4.125 1.328 1.243 2.205 2.22 3.081 1.961 1.185-.352.975-1.186.308-2.115a26 26 0 0 1-2.261-3.505c.275.712 4.791 5.372 5.395 5.928 1.792 1.66 3.599.516 2.622-1.186a8 8 0 0 1-.516-1.185s2.398 2.22 2.93 2.063c1.385-.414 1.321-1.312.873-2.166-.365-.695-2.245-3.133-2.245-3.133a12 12 0 0 0 1.731 1.69"></path><path fill="#039648" fill-rule="evenodd" d="M79.134 364.637c.913-6.896 5.553-11.676 11.534-14.483 4.022-1.895 12.832-4.272 7.57 3.085-4.096 5.74-12.065 10.867-19.104 11.398" data-source="https://football-logos.cc"></path><!-- source: https://football-logos.cc --></svg>