<svg xmlns="http://www.w3.org/2000/svg" viewBox="0 0 301.73 331"><metadata xmlns:fl="https://football-logos.cc/sweden/gais">dl1_819bd7f0584cc94e6dff14672760983703c63f0fe97ee89a122db46979698ffb</metadata><!-- Source: https://football-logos.cc --><path d="M371.438 688.357c-8.692-10.507-22.885-19.714-39.295-27.126-14.595-6.572-33.316-11.386-48.58-17.25-15.053-5.789-26.667-12.074-35.665-21.052-6.992-6.992-12.417-15.607-16.524-27.05-4.68-13.028-4.547-29.037-2.98-42.734 1.834-15.855 6.762-26.916 10.01-43.555 1.7-8.615 2.923-18.55 3.056-31.826.192-19.16-4.852-34.691-13.525-50.337-2.197-3.992-4.66-7.087-7.373-11.003l40.517-52.362c9.284 5.77 27.49 16.047 52.381 16.085 22.332 1.796 43.86-8.348 57.978-22.79 14.098 14.442 35.627 24.586 57.959 22.81 24.891-.058 43.116-10.336 52.4-16.105l40.499 52.362c-2.694 3.916-5.158 7.03-7.374 11.023-8.673 15.626-13.697 31.157-13.525 50.317.133 13.277 1.375 23.21 3.056 31.826 3.267 16.639 8.195 27.7 10.01 43.555 1.586 13.697 1.72 29.706-2.96 42.734-4.108 11.462-9.533 20.077-16.525 27.05-8.997 8.997-20.612 15.263-35.685 21.052-15.263 5.864-33.984 10.678-48.579 17.269-16.41 7.393-30.603 16.6-39.276 27.107" style="clip-rule:nonzero;fill:#000;fill-opacity:1;fill-rule:nonzero;stroke:none;stroke-width:4.8904" transform="translate(-220.562 -357.357)" data-source="https://football-logos.cc"></path><path d="M371.438 681.423c-18.262-22.083-69.249-35.933-87.95-42.505-41.57-14.575-55.438-45.14-50.739-85.868 2.637-22.943 13.029-38.168 13.373-75.19.229-22.905-5.903-41.702-19.256-61.36l35.55-45.599c8.845 5.502 27.643 13.926 51.369 13.965 21.262 1.7 44.204-7.03 57.653-20.785 13.43 13.755 36.392 22.485 57.653 20.785 23.707-.038 42.524-8.463 51.369-13.965l35.55 45.6c-13.352 19.657-19.485 38.454-19.274 61.359.362 37.022 10.755 52.247 13.39 75.19 4.681 40.728-9.188 71.293-50.737 85.868-18.721 6.572-69.688 20.422-87.95 42.505" style="fill:#f3d32a;fill-opacity:1;fill-rule:nonzero;stroke:none;stroke-width:4.8904" transform="translate(-220.562 -357.357)"></path><path d="M245.587 583.042c-6.973-41.149 12.627-52.553 13.085-101.63.21-21.356-3.916-44.05-16.6-64.587l23.21-30.03c7.355 4.776 26.706 10.01 48.235 10.278 21.53.267 43.422-4.719 57.921-17.747 14.48 13.009 36.392 17.995 57.902 17.727 21.529-.286 40.9-5.501 48.235-10.296l23.21 30.03c-5.081 8.214-8.768 16.792-11.385 25.484zm0 0" style="fill:#cd3528;fill-opacity:1;fill-rule:nonzero;stroke:none;stroke-width:4.8904" transform="translate(-220.562 -357.357)"></path><path d="M371.438 666.541c-17.174-20.803-68.657-32.78-83.958-38.683-19.409-7.489-34.768-18.95-40.327-37.786l239.878-138.498c-2.12 9.99-2.942 20.039-2.846 29.82.478 49.668 20.555 60.748 12.837 103.157-4.03 22.16-20.402 35.073-41.626 43.287-15.301 5.903-66.803 17.881-83.958 38.703" style="fill:#308a4c;fill-opacity:1;fill-rule:nonzero;stroke:none;stroke-width:4.8904" transform="translate(-220.562 -357.357)" data-source="https://football-logos.cc"></path><path d="M329.85 486.36c5.502-12.951.593-28.368-11.9-35.57-13.487-7.794-30.852-3.132-38.646 10.354-7.794 13.506-3.152 30.871 10.354 38.665 12.493 7.202 28.291 3.764 36.754-7.488l24.739 14.289a20.4 20.4 0 0 0-1.147 4.298h-84.951v6.877h84.951q.345 2.235 1.147 4.298l-24.739 14.29c-8.463-11.252-24.261-14.71-36.754-7.489-13.506 7.794-18.148 25.159-10.354 38.665 7.794 13.487 25.159 18.148 38.645 10.335 12.494-7.202 17.403-22.618 11.902-35.57l24.757-14.29a22.2 22.2 0 0 0 3.133 3.153l-28.31 49.018-2.923-1.7-8.291 28.005 20.154-21.128-2.98-1.738 28.291-49.019c1.376.535 2.828.936 4.318 1.165v28.56c-13.984 1.719-24.873 13.677-24.873 28.1 0 15.57 12.723 28.292 28.311 28.292s28.292-12.723 28.292-28.292c0-14.423-10.889-26.381-24.872-28.1v-28.56c1.49-.229 2.903-.61 4.279-1.127l42.485 73.605 5.96-3.439-42.504-73.604a23 23 0 0 0 3.19-3.19l24.758 14.289c-5.521 12.952-.612 28.368 11.882 35.57 13.506 7.813 30.87 3.152 38.665-10.335 7.794-13.506 3.132-30.87-10.354-38.665-12.513-7.22-28.311-3.763-36.774 7.489l-24.738-14.29a20.4 20.4 0 0 0 1.165-4.298h56.564v3.458l28.387-6.896-28.387-6.82v3.381h-56.564c-.23-1.49-.63-2.923-1.165-4.298l24.738-14.29c8.463 11.253 24.261 14.691 36.774 7.49 13.486-7.795 18.148-25.16 10.354-38.666-7.795-13.486-25.16-18.148-38.665-10.353-12.494 7.201-17.403 22.618-11.882 35.57l-24.758 14.289a22.2 22.2 0 0 0-3.152-3.133l42.466-73.566-5.96-3.439-42.466 73.547a20 20 0 0 0-4.298-1.146v-28.56c13.983-1.718 24.872-13.677 24.872-28.1 0-15.588-12.704-28.31-28.292-28.31s-28.31 12.722-28.31 28.31c0 14.423 10.888 26.382 24.872 28.1v28.56c-1.51.248-2.961.63-4.356 1.165l-28.253-48.942 2.98-1.738-20.154-21.128 8.29 27.986 2.923-1.681 28.273 48.961a22.7 22.7 0 0 0-3.095 3.114zm0 0" style="fill:#f3d32a;fill-opacity:1;fill-rule:nonzero;stroke:none;stroke-width:4.8904" transform="translate(-220.562 -357.357)"></path><path d="M374.877 498.644c7.202 1.585 12.627 8.023 12.627 15.703s-5.425 14.117-12.627 15.702zM368 530.049c-7.221-1.585-12.647-8.023-12.647-15.702s5.426-14.118 12.647-15.703zm89.383-59.563-31.425 18.148-5.005-8.654 31.444-18.148zm-149.386 80.883-6.591 3.801-9.723-16.83.706-.42 1.127-.688c5.407-3.114 10.43-4.107 15.054-2.98 4.642 1.127 8.443 4.28 11.442 9.456a28 28 0 0 1 1.796 3.764c.458 1.26.803 2.483.994 3.706a17.5 17.5 0 0 1-.459 7.354 19 19 0 0 1-3.343 6.553 20.4 20.4 0 0 1-5.73 4.947c-2.37 1.357-4.757 2.216-7.183 2.541-2.407.344-4.853.172-7.317-.516a18.2 18.2 0 0 1-6.667-3.438c-1.987-1.605-3.649-3.573-5.005-5.922-1.757-3.057-2.713-6.113-2.885-9.189-.152-3.075.497-6.132 1.987-9.15l7.852 5.387c-.688 1.585-1.032 3.114-.975 4.565.04 1.452.459 2.847 1.261 4.241 1.471 2.541 3.477 4.07 6.075 4.566 1.26.23 2.598.191 3.954-.096 1.376-.305 2.808-.878 4.298-1.738 2.98-1.72 4.91-3.801 5.789-6.285.878-2.445.573-4.967-.917-7.546-1.242-2.177-2.828-3.686-4.719-4.527-1.89-.821-3.801-.86-5.73-.076zm.21-78.8-4.566 7.927-9.819-10.965zm18.836-5.483-38.168-6.534-5.35 9.304 24.777 29.667 4.93-8.52-4.414-5.368 6.438-11.157 6.858 1.128zm111.084 75.438c-2.158.44-3.973 1.07-5.406 1.91-1.452.84-2.521 1.853-3.228 3.076-.65 1.127-.879 2.254-.707 3.343.191 1.089.764 1.93 1.7 2.464 1.013.592 1.987.726 2.923.42.917-.286 2.35-1.394 4.279-3.285 2.598-2.598 4.929-4.146 7.03-4.662 2.082-.496 4.28-.076 6.571 1.242 3.019 1.739 4.89 4.184 5.617 7.278.726 3.114.172 6.266-1.681 9.457a19.5 19.5 0 0 1-3.534 4.508 18.2 18.2 0 0 1-4.68 3.21l-4.605-6.248c1.395-.496 2.598-1.127 3.61-1.91s1.816-1.662 2.389-2.674c.611-1.05.84-2.025.726-2.942-.115-.917-.573-1.605-1.357-2.044-.764-.459-1.547-.535-2.35-.249-.82.268-1.91 1.108-3.266 2.484l-.344.325c-2.96 2.96-5.33 4.642-7.087 5.1-1.165.287-2.426.306-3.744.077q-1.977-.345-3.955-1.49c-3.304-1.91-5.348-4.547-6.113-7.91-.783-3.361-.114-6.876 2.006-10.525 1.261-2.197 2.79-3.993 4.566-5.349 1.757-1.356 3.935-2.407 6.495-3.152zm-69.879-111.295 1.165-.955c.822-.688 1.452-1.357 1.91-2.063.42-.688.65-1.357.65-2.006 0-.86-.286-1.567-.84-2.12-.573-.555-1.318-.841-2.255-.841-1.07 0-1.872.306-2.464.879-.592.554-.879 1.318-.879 2.33 0 .401.115.898.382 1.51q.373.915.917 1.547zm2.56 13.678-5.865-6.4c-1.089.975-1.93 1.891-2.464 2.732-.554.86-.822 1.681-.822 2.503 0 1.05.363 1.948 1.108 2.655q1.118 1.089 2.751 1.089c.784 0 1.624-.21 2.503-.63s1.815-1.09 2.789-1.95m8.157 8.616-3.21-3.706c-1.738 1.605-3.572 2.79-5.482 3.554-1.91.745-4.03 1.127-6.38 1.127-3.21 0-5.846-.936-7.89-2.828-2.063-1.89-3.076-4.317-3.076-7.297 0-2.273.669-4.298 2.006-6.018q2.006-2.607 6.419-4.928-1.69-1.92-2.522-3.783c-.573-1.26-.84-2.483-.84-3.686q0-3.61 2.865-6.075c1.91-1.643 4.298-2.465 7.202-2.465 3.305 0 5.903.803 7.813 2.407.936.803 1.643 1.739 2.12 2.828.478 1.07.727 2.311.727 3.706 0 1.738-.516 3.362-1.548 4.89-1.031 1.528-2.598 2.942-4.66 4.26l4.26 4.451a31 31 0 0 0 2.578-2.292 48 48 0 0 0 2.503-2.732l5.196 5.33a45 45 0 0 1-2.541 2.846 26 26 0 0 1-2.445 2.292l7.89 8.12zm-7.412 115.86 5.253 16.391h17.27l-14.06 10.163 5.463 16.333-14.079-9.933-13.792 9.933 5.33-16.218-14.156-10.278 17.46-.038zm0 0" style="fill:#000;fill-opacity:1;fill-rule:nonzero;stroke:none;stroke-width:4.8904" transform="translate(-220.562 -357.357)" data-source="https://football-logos.cc"></path><!-- source: https://football-logos.cc --></svg>