<svg xmlns="http://www.w3.org/2000/svg" viewBox="0 0 163.8 225.96"><metadata xmlns:fl="https://football-logos.cc/switzerland/grasshoppers">dl1_1d13f1899565b8077fc9d541a187e40c4b60c1f5653ce5f8894edf399aed8a97</metadata><!-- Source: https://football-logos.cc --><defs data-source="https://football-logos.cc"><clipPath id="a"><path fill="none" d="M0 0h163.801v225.962H0z"></path></clipPath></defs><path fill="#af9862" d="m27.845.001-1 21.361-.012 1.139-22.215 5.816 20.247 7.743 1.044.417-.089 1.094-1.672 21.413 13.778-16.668.667-.81.978.378 20.179 7.772-11.899-17.855-.62-.907.715-.881 13.839-16.68-21.389 5.6-.554-.925Zm108.54 0-12 18.011-.555.925-21.389-5.6 13.84 16.678.715.881-.62.907-11.9 17.854 20.178-7.772.978-.378.667.81 13.779 16.668-1.671-21.414-.087-1.094 1.042-.417 20.249-7.743-22.21-5.816-.013-1.135Z" data-source="https://football-logos.cc"></path><g clip-path="url(#a)" transform="translate(0 .001)" data-source="https://football-logos.cc"><path fill="#fff" d="M160.549 117.841c2.162 6.732 2.937 13.912 3.183 21.373.337 10.215-.517 22.244-3.631 31.92-10.931 33.912-42.656 54.828-77.523 54.828C37.17 225.963 0 189.857 0 144.45a81.913 81.913 0 0 1 82.221-81.858c38.952 0 68.272 23.907 78.328 55.249"></path><path fill="#005791" d="M82.444 182.679a38.515 38.515 0 1 1 .172-77.026 40.24 40.24 0 0 1 33.685 19.08l12.357-10.4a55.323 55.323 0 0 0-84.992-8.847 54.165 54.165 0 0 0-.176 77.193 55.08 55.08 0 0 0 38.918 16.092 53.82 53.82 0 0 0 49.319-30.947l-13.911-7.557a38.8 38.8 0 0 1-35.377 22.412"></path><path fill="#005791" d="m59.163 119.309-.031 13.3s19.13-.021 24.957-.009c-.194.194-.428.4-.688.638-5.84 5.347-24.983 21.634-24.983 21.634l-.049 13.4h48.241l-.018-13.619c-19.388-.01-19.388-.01-25.423-.019 4.923-4.571 25.257-22.021 25.257-22.021V119.34Z"></path><path fill="#005791" d="M83.292 133.361c.441-.37.58-.488.937-.77l-.3.013-2.166 2.075s1.018-.9 1.528-1.318m-1.327 20.508c-.457.377-.585.491-.921.761l.283-.013 2.155-2.066s-1.007.905-1.516 1.318"></path><path fill="#005791" d="m158.036 140.776-.011-.38.014-5.309-38.654-.007.016 15.024h21.968c-.4 8.967-1.442 13-4.314 19.384-9.6 21.483-30.556 34.8-54.682 34.762-33.426-.071-60.562-27.081-60.491-60.208s27.321-60.033 60.75-59.959a60.77 60.77 0 0 1 30.441 8.193 63.8 63.8 0 0 1 19.748 18.555l12.577-10.593a79.1 79.1 0 0 0-24.079-21.9A77.39 77.39 0 0 0 28.26 90.162a75.634 75.634 0 0 0-.247 107.76 76.67 76.67 0 0 0 54.327 22.472c30.723.071 57.474-16.938 69.8-44.367 3.236-6.724 5.143-15.424 5.723-25.935h.02c.044-.661.083-1.658.124-2.753v-.845c.049-1.865.057-3.761.029-5.717"></path></g><!-- source: https://football-logos.cc --></svg>