<svg xmlns="http://www.w3.org/2000/svg" xml:space="preserve" style="shape-rendering:geometricPrecision;text-rendering:geometricPrecision;image-rendering:optimizeQuality;fill-rule:evenodd;clip-rule:evenodd" viewBox="0 0 141.7 243.2"><metadata xmlns:fl="https://football-logos.cc/bolivia/gv-san-jose">dl1_85032b2c9e96ce5dd23dcbe0e7e5bfa9fb422fc906a670c2eb4e220586ca744c</metadata><!-- Source: https://football-logos.cc --><defs data-source="https://football-logos.cc"><style>.fil0{fill:#1a3c58}.fil3{fill:#1ba591}.fil2{fill:#851525}.fil1{fill:#fff}</style></defs><g id="Layer_x0020_1" data-source="https://football-logos.cc"><g id="_750778176"><path d="M8.416 98.937c1.226.697 3.01 2.866 4.03 4.051.182.212.196.27.424.512.647.684 1.237 1.51 1.92 2.16.185.178.302.352.469.555.183.223.323.302.509.507.176.194.292.363.463.56.8.922 2.091 2.16 2.902 3.134.614.737 1.346 1.377 1.964 2.115.965 1.155 2.695 2.942 3.842 4.235.177.2.325.29.508.508.167.198.287.38.47.553.452.43.607.706.973 1.066l9.264 9.947c.232.228.307.268.511.508.164.193.292.378.472.55l5.315 5.818c.167.198.284.383.465.558.269.26.287.258.497.523l2.86 3.175c.22.222.31.273.507.511l10.264 10.989c.164.185.314.373.483.536l12.158 13.259c1.604 1.714 1.611.819 3.77-1.45.178-.186.296-.352.468-.553.322-.38.668-.66 1.006-1.033 1.731-1.915 4.297-4.298 5.849-6.222.2-.249.242-.275.497-.523.515-.5.915-1.135 1.432-1.632l5.753-6.4c.179-.219.322-.307.503-.514.964-1.1 1.957-2.092 2.896-3.227.198-.238.287-.29.507-.511l1.95-2.13c.166-.198.26-.318.426-.513l7.826-8.406c.176-.193.297-.353.47-.553.208-.24.237-.26.51-.51l3.403-3.65c.348-.356.598-.763.962-1.082l4.873-5.239c.157-.186.305-.378.477-.546l3.451-3.685c.173-.2.29-.348.469-.555l4.894-5.218c.178-.185.3-.353.47-.553l8.695-9.58c.619-.708 1.31-1.453 2.036-2.018.123 1.35-.794 7.208-1.055 8.86a192 192 0 0 1-3.366 16.526c-1.639 6.575-3.708 12.552-6.227 18.766-.94 2.32-2.003 4.589-3.122 6.823l-1.71 3.306c-.973 1.977-2.482 4.489-3.697 6.334-.667 1.013-1.291 1.989-1.955 2.975a105 105 0 0 1-2.073 2.944 75 75 0 0 1-4.126 5.225l-8.274 8.552c-.23.241-.459.351-.695.584l-1.357 1.191c-.813.775-1.848 1.524-2.71 2.221-3.875 3.128-10.454 7.7-15.04 9.955-1.131.557-2.217 1.102-3.347 1.664-.913.455-2.465 1.406-3.631 1.421-1.434.02-5.555-2.415-6.9-3.08-2.703-1.338-5.321-2.99-7.85-4.646l-5.822-4.126c-1.198-.884-2.405-1.808-3.477-2.814-.611-.572-1.399-1.113-2-1.74l-2.554-2.374a27 27 0 0 1-2.5-2.518c-.23-.268-.407-.371-.65-.623l-2.375-2.639c-.236-.232-.318-.404-.589-.686-.783-.815-1.532-1.804-2.231-2.702-1.828-2.347-3.596-4.734-5.263-7.23-.337-.505-.64-1.026-.998-1.556-1.36-2.01-2.46-4.144-3.688-6.254-1.214-2.087-2.225-4.417-3.355-6.678-3.03-6.061-6.075-15.516-7.74-22.179-.69-2.764-1.213-5.415-1.794-8.237-1.183-5.75-2.145-11.442-2.693-17.292zm4.796-42.782c.326 1.505 2.65 3.506 3.427 4.389l7.21 8.178c.178.206.325.306.494.522l2.7 2.998c.172.17.272.333.422.513l6.84 7.61c.61.584 2.009 2.37 2.723 3.059.185.178.25.312.422.514.582.686 1.256 1.3 1.813 2.008l1.799 2.028c1.125 1.156 2.05 2.481 3.184 3.616l6.714 7.655c.809.794 1.516 1.74 2.257 2.589.932 1.068 3.303 3.637 4.013 4.568l1.388 1.59c.198.214.267.25.447.484.399.52.96 1.004 1.365 1.526l6.698 7.584c.163.219.31.324.478.54.175.227.248.277.44.496.187.215.2.27.432.505l.916 1.037c.357.443.96 1.246 1.581 1.216.6-.03.833-.573 1.099-.854l3.623-4.114c.194-.218.27-.257.444-.49l9.454-10.692c.826-.835 1.534-1.74 2.341-2.585l1.32-1.486c.193-.192.277-.362.463-.561.198-.212.278-.257.452-.48.187-.24.198-.243.445-.489l4.497-5.113c.177-.202.289-.267.455-.478l1.801-2.021c.167-.176.257-.345.42-.52l3.645-4.088c.176-.227.235-.266.445-.488.187-.198.265-.366.46-.564.48-.492.832-1.015 1.318-1.486 1.007-.978 2.147-2.506 3.14-3.576.196-.21.273-.257.45-.486l2.738-3.125c.955-.97 1.743-2.005 2.687-3.006l13.606-15.21c.346-.325.543-.65.878-.993.43-.44 1.301-1.595 1.548-2.344l-7.063.211c-12.629.19-29.569-1.3-41.07-6.43-1.878-.837-3.53-1.675-5.15-2.672-1.569-.966-2.009-1.522-3.207-2.656-1.368-1.296-2.212-.247-3.235.592-.868.712-1.704 1.473-2.73 2.118-11.958 7.518-32 8.998-45.763 9.048-2.424.009-4.851-.132-7.274-.187m125.075-1.667c.056-3.206-2.838-2.028-5-2.04l-8.585-.154c-1.356-.023-2.452.146-3.74.186-1.238.04-3.188-.098-4.472-.157-10.426-.476-14.529-.716-25.353-3.286-5.3-1.258-12.442-3.384-16.63-6.92-.466-.393-1.45-1.688-2.775-2.327-1.55-.748-2.495.68-3.816 1.858-2.216 1.979-6.446 4.109-9.225 5.057-9.67 3.297-17.086 4.607-27.557 5.255-2.644.163-4.966.488-7.673.488-2.717-.001-5.443.032-8.16.032h-4.76c-1.883.071-4.849-.54-6.827.189-.347.97-.513 8.937-.513 10.574 0 5.888.15 10.125.463 16.067.506 9.614.603 13.227 2.125 22.86.572 3.618 1.097 7.22 1.616 10.882.247 1.745.699 3.483 1.116 5.17 1.29 5.217 2.334 9.525 3.953 14.745 1.93 6.229 4.142 12.51 7.025 17.967l2.248 4.041c1.036 2.08 1.048 2.097 2.233 4.062 1.76 2.916 5.38 8.254 7.723 11.06.65.78 1.453 1.84 2.127 2.547l1.813 2.1c.164.162.241.2.391.372l6.24 6.256c.817.814 2.597 2.185 3.374 2.917.25.235.56.459.837.694 2.286 1.938 5.578 4.307 8.019 6.006 2.02 1.407 5.53 3.657 7.671 4.825a81 81 0 0 0 4.167 2.121c4.306 2.044 4.188 2.573 8.924-.01 1.351-.736 2.6-1.326 3.976-2.056 1.857-.986 5.776-3.277 7.553-4.519 1.194-.834 2.435-1.625 3.575-2.461 2.231-1.638 4.998-3.81 7.14-5.698l2.004-1.82c.26-.23.44-.484.716-.726.905-.794 4.804-4.736 5.952-6.12.147-.176.224-.215.384-.38l1.412-1.648c.142-.188.216-.229.362-.401 2.873-3.377 5.944-7.545 8.311-11.24 13.607-21.235 19.48-49.826 21.12-75.425.242-3.758.701-7.607.701-11.392-.001-4.003-.084-7.79-.015-11.816.04-2.338-.097-4.454-.203-6.8z" class="fil0"></path><path d="M97.039 69.312c.705-.104 1.89-.018 2.671-.018 1.993 0 6.485-.257 7.637.508 2.172 1.44 2.092 6.14-1.229 6.636-.625.093-4.434.033-5.388.033-1.545 0-3.784.226-4.912-.495-2.275-1.454-1.867-6.209 1.22-6.664m-60.994-.063c1.692-.253 3.562-.058 5.266.025 1.776.086 3.475-.257 4.71.736 1.575 1.267 1.843 6.378-2.156 6.478-1.776.044-3.652-.017-5.443-.017-2.68 0-4.923.36-5.583-2.541a4.7 4.7 0 0 1 .102-2.398c.561-1.745 1.66-2.067 3.104-2.283m44.507 5.045c-.38-.318-.623-.267-.936-.73-.763-1.136-.368-2.83.676-3.641 1.047-.814 7.404-.354 9.727-.45.962-.039 2.5-.335 2.82.554.14.384.121 5.944.028 6.614l-1.283-.022-.002-5.64h-5.983c-1.327 0-4.662-.405-4.844 1.027-.216 1.71 3.27 1.323 4.59 1.323h5.916v1.305c-2.371 0-4.757.02-7.105-.052-1.547-.046-1.76.222-2.454 1.084-.648.805-1.075 1.08-2.52.965.042-.725 1.102-1.753 1.37-2.337M48.665 76.63c-.1-.701-.123-6.27.05-6.664.363-.828 1.93-.522 2.883-.49 2.322.076 8.672-.372 9.686.486.585.494 1.068 1.257 1.022 2.379-.06 1.454-1.016 1.686-1.326 1.952.269.587 1.325 1.607 1.37 2.337-.52.042-1.11.02-1.557-.145-1.476-.544-.688-1.986-3.417-1.904-2.348.07-4.734.052-7.105.052V73.33h6.002c1.31 0 4.718.375 4.503-1.323-.183-1.44-3.592-1.027-4.928-1.027H49.95l-.023 5.657zm27.384-7.15c1.957 0 1.454.765 1.517 2.433.09 2.337-.044 4.603-2.933 4.734-2.517.114-5.118-.064-7.65-.058-1.477.003-2.04-.292-2.604-1.222-.54-.888-.453-2.272-.407-3.39.059-1.464-.415-2.491 1.295-2.497.102.515-.076 2.014-.07 2.688.02 2.25.69 2.864 2.636 2.81l5.525-.005c2.731 0 2.691-.49 2.691-2.72zM13.212 56.156c.326 1.505 2.65 3.506 3.426 4.39l7.211 8.177c.178.206.325.306.494.522l2.699 2.998c.173.17.273.333.423.513l6.84 7.61c.61.584 2.008 2.37 2.723 3.059.185.178.25.312.422.514.581.686 1.256 1.3 1.813 2.008l1.798 2.028c1.126 1.156 2.052 2.481 3.185 3.616l6.713 7.655c.81.794 1.517 1.74 2.258 2.589.932 1.068 3.303 3.637 4.013 4.568l1.388 1.59c.197.214.267.25.447.484.398.52.959 1.004 1.364 1.527l6.7 7.583c.162.219.31.324.477.54.175.227.248.277.44.496.187.215.2.27.432.505l.916 1.037c.357.443.96 1.246 1.581 1.216.6-.03.833-.573 1.099-.854l3.623-4.114c.193-.218.27-.257.444-.49l9.454-10.692c.826-.835 1.534-1.739 2.34-2.585l1.32-1.486c.194-.192.278-.362.464-.561.198-.212.278-.257.452-.48.187-.24.198-.243.445-.489l4.497-5.113c.177-.202.288-.266.455-.478l1.801-2.021c.167-.176.257-.345.42-.52l3.645-4.088c.176-.227.235-.266.445-.488.187-.198.265-.366.46-.564.48-.491.832-1.014 1.318-1.486 1.007-.978 2.147-2.506 3.14-3.576.196-.21.273-.257.45-.486l2.738-3.125c.955-.97 1.743-2.005 2.687-3.006l13.606-15.21c.345-.325.543-.65.878-.993.43-.44 1.3-1.595 1.548-2.344l-7.063.212c-12.629.188-29.569-1.3-41.07-6.43-1.878-.838-3.53-1.676-5.15-2.673-1.569-.965-2.01-1.522-3.207-2.656-1.368-1.296-2.212-.247-3.235.592-.868.712-1.704 1.473-2.73 2.118-11.958 7.518-32 8.999-45.763 9.048-2.424.009-4.851-.132-7.274-.187" class="fil1"></path><path d="M41.504 156.238c-.072-.59.312-.827.572-1.108l4.594-4.16c.44-.439 1.249-1.501 2.195-.754.421.333 1.232 1.41 1.667 1.82l2.887 3.143c.9 1.17 3.078 3.422 4.18 4.661l9.642 10.42c2.121 2.336 2.278 4.886-.124 7.192-1.292 1.24-3.673 1.4-5.37.514-1.624-.846-3.237-2.829-4.536-4.135-.328-.33-.595-.535-.9-.883l-3.786-4.123c-.154-.18-.266-.245-.424-.421-.145-.162-.23-.303-.38-.475l-8.67-9.69c-.33-.34-1.481-1.46-1.547-2m34.64 18.04c.881.338 1.892-1.17 2.39-1.732.674-.76 1.464-1.458 2.074-2.26.183-.24.287-.308.481-.535l6.582-7.36c.807-.725 1.859-2.163 2.596-2.844l2.552-2.887c1.264-1.373 2.819-3.814 5.041-3.41 1.074.195 2.057 1.023 2.399 1.842.794 1.905-1.28 4.25-2.587 5.566-.192.193-.282.373-.46.564-.232.25-.323.315-.528.579-.72.922-2.29 2.44-3.099 3.445-.553.688-1.906 2.009-2.549 2.808l-2.032 2.212c-.716.698-1.822 2.133-2.553 2.892l-6.081 6.752c-.436.368-1.15.281-1.49-.123-.808-.963.635-2.273 1.059-2.772l1.529-1.704c.83-.85 1.715-2.069 2.514-2.838l3.057-3.403c.182-.215.295-.408.501-.605l1.035-1.088c.841-.889 1.69-1.96 2.593-2.847l1.018-1.108c.179-.197.293-.361.464-.56l3.696-3.952c.475-.55 1.678-1.778 1.826-2.519.208-1.042-.894-1.556-2.216.005l-1.005 1.121c-.214.243-.336.325-.527.578l-6.563 7.375c-.198.231-.242.332-.472.548l-2.591 2.849c-.198.22-.305.403-.51.595-.268.25-.32.319-.53.577-.326.4-.67.711-1.007 1.12-.19.232-.354.33-.548.553l-2.471 2.885c-.72.774-1.276 1.553-2.369 1.964-2.997 1.127-4.365-1.754-3.198-4.13.378-.768.847-1.166 1.34-1.807.177-.23.335-.38.501-.605l3.555-4.007c.859-.925 1.66-2.015 2.594-2.845.55-.488 2.444-2.781 3.05-3.326.554-.498 1.05-1.09 1.544-1.69l1.01-1.113c.878-.826 1.724-1.98 2.558-2.88l1.489-1.657c.692-.707 1.824-2.888 3.098-1.742 1.429 1.285-1.728 3.545-2.925 4.976l-7.648 8.502c-.278.274-.321.313-.528.577-.783 1.001-3.181 3.451-4.052 4.531l-2.05 2.288c-.394.392-.66.727-.994 1.132-.337.406-.818.814-.563 1.514zm-54.772-49.847c.891-.167 1.666.274 2.162.709l10.752 11.856c.337.299.468.484.734.8.243.288.5.484.751.777.238.278.407.513.688.756l3.61 3.956c.332.317.436.536.723.809.647.613 1.03 1.223 1.479 1.496.368.223.754.223 1.141-.003.305-.179.538-.412.422-.966-.124-.592-2.106-2.742-2.68-3.357l-7.219-7.826c-.13-.156-.212-.275-.347-.42-.14-.148-.261-.225-.392-.37l-1.393-1.585c-.141-.15-.258-.219-.392-.369l-4.988-5.556c-.148-.192-.2-.213-.37-.39-.998-1.027-2.371-2.862-4.89-2.629-1.805.168-2.99 1.176-3.609 2.372-1.992 3.856.881 6.517 2.574 8.218.527.53 1.038.96 1.55 1.511l3.227 3.571c.137.148.219.266.345.425.54.677 1.55 1.655 2.162 2.339l5.014 5.527c.263.264.437.567.711.82.364.335.458.456.739.793l1.442 1.53c.73.73 1.435 2.251 2.609 1.335.796-.621.304-1.502-.182-2.061-.441-.508-.914-1.148-1.402-1.57l-1.872-1.954c-.136-.152-.203-.269-.338-.432l-4.624-5.149c-.177-.168-.204-.165-.348-.331l-2.137-2.37c-.251-.302-.503-.492-.747-.782-1.302-1.545-3.033-3.212-4.308-4.703-.81-.947-2.143-1.906-2.73-3.306-.785-1.877.982-3.255 2.133-3.471m82.503 26.428c-1.194-.387-1.752-1.122-.844-2.182l1.477-1.58c.197-.23.286-.398.503-.603.259-.243.28-.29.482-.542l7.347-8.203c.36-.323.543-.647.98-1.062l4.91-5.463c.327-.412.64-.669.98-1.057.737-.843 2.495-2.625 2.654-3.636.152-.971-1.155-2.168-1.576-2.507-1.23-.99-1.824.032-2.418.81l-.972 1.064c-.86.794-2.386 3.21-3.4 2.71-1.207-.595-.028-1.987.576-2.558l2.426-2.677c.177-.198.338-.304.512-.505l1.028-1.095c.334-.346.472-.783 1.043-.996.592-.222 1.122.223 1.475.511.444.362.673.567 1.072.97 1.84 1.854 3.72 3.847 1.336 6.736l-2.972 3.228c-.186.192-.272.368-.463.561l-5.85 6.56c-.216.28-.246.303-.526.577l-.966 1.077c-.327.407-.66.731-.992 1.134zM8.415 98.937c.549 5.85 1.51 11.542 2.694 17.292.58 2.822 1.104 5.473 1.794 8.237 1.665 6.664 4.71 16.118 7.74 22.18 1.13 2.26 2.14 4.59 3.354 6.677 1.228 2.11 2.33 4.244 3.689 6.255.358.53.66 1.05.997 1.555 1.667 2.496 3.436 4.883 5.263 7.23.7.898 1.448 1.888 2.231 2.702.271.282.354.454.59.686l2.375 2.64c.242.25.42.354.649.622a27 27 0 0 0 2.5 2.519l2.555 2.374c.6.626 1.388 1.167 2 1.74 1.071 1.005 2.278 1.93 3.476 2.814l5.823 4.125c2.528 1.657 5.146 3.308 7.85 4.646 1.344.665 5.466 3.1 6.9 3.08 1.165-.015 2.717-.966 3.63-1.42 1.13-.563 2.216-1.108 3.348-1.664 4.586-2.255 11.164-6.828 15.039-9.956.863-.697 1.897-1.446 2.71-2.22l1.357-1.192c.237-.232.465-.342.695-.583l8.274-8.553a75 75 0 0 0 4.126-5.225c.702-.97 1.388-1.925 2.073-2.944.664-.986 1.289-1.961 1.956-2.975 1.214-1.845 2.723-4.357 3.697-6.334l1.71-3.306c1.118-2.234 2.18-4.502 3.122-6.823 2.518-6.214 4.588-12.191 6.227-18.765a191 191 0 0 0 3.366-16.528c.26-1.65 1.178-7.51 1.054-8.859-.725.565-1.417 1.31-2.035 2.019l-8.696 9.58c-.17.199-.292.367-.47.552l-4.894 5.219c-.179.206-.295.355-.468.554l-3.451 3.685c-.173.168-.321.36-.478.546l-4.872 5.239c-.364.32-.615.726-.963 1.082l-3.403 3.65c-.273.25-.301.27-.51.51-.172.2-.293.36-.47.553l-7.826 8.407c-.166.194-.26.314-.426.512l-1.95 2.13c-.22.222-.309.273-.506.511-.94 1.135-1.933 2.127-2.896 3.227-.182.207-.325.296-.504.514l-5.753 6.4c-.517.497-.916 1.132-1.431 1.632-.256.248-.297.275-.498.523-1.552 1.924-4.117 4.307-5.849 6.222-.337.373-.683.653-1.006 1.033-.171.201-.29.367-.468.554-2.158 2.268-2.166 3.163-3.77 1.449l-12.158-13.259c-.169-.163-.318-.35-.482-.536L46.78 140.483c-.197-.238-.286-.29-.506-.511l-2.86-3.175c-.21-.265-.229-.263-.498-.523-.18-.175-.298-.36-.465-.558l-5.314-5.819c-.18-.171-.309-.355-.472-.549-.204-.24-.28-.28-.512-.508l-9.263-9.947c-.367-.36-.522-.636-.974-1.066-.183-.174-.303-.355-.47-.552-.183-.218-.331-.31-.508-.509-1.147-1.293-2.877-3.08-3.842-4.234-.618-.74-1.35-1.38-1.964-2.116-.81-.974-2.102-2.212-2.902-3.133-.17-.198-.287-.367-.463-.56-.186-.206-.325-.285-.509-.508-.166-.203-.283-.377-.47-.554-.682-.651-1.272-1.477-1.919-2.161-.228-.242-.242-.3-.424-.512-1.02-1.184-2.803-3.354-4.03-4.05z" class="fil1"></path><path d="M138.253 55.423c.107 2.346.244 4.461.204 6.8-.07 4.025.014 7.812.015 11.816 0 3.785-.46 7.634-.7 11.392-1.64 25.6-7.514 54.19-21.12 75.425-2.368 3.694-5.44 7.862-8.312 11.24-.147.172-.22.213-.362.4l-1.412 1.65c-.16.164-.237.203-.384.38-1.148 1.383-5.047 5.325-5.952 6.119-.276.242-.455.495-.717.725l-2.004 1.821c-2.141 1.887-4.908 4.06-7.14 5.697-1.14.837-2.38 1.628-3.574 2.462-1.777 1.242-5.696 3.533-7.554 4.519-1.376.73-2.624 1.32-3.975 2.056-4.737 2.583-4.618 2.054-8.924.01a81 81 0 0 1-4.167-2.122c-2.141-1.167-5.65-3.418-7.671-4.824-2.441-1.7-5.733-4.068-8.02-6.006-.276-.235-.587-.46-.836-.694-.778-.733-2.557-2.103-3.374-2.917l-6.24-6.256c-.15-.172-.227-.21-.391-.373l-1.813-2.1c-.674-.706-1.478-1.767-2.128-2.546-2.341-2.806-5.963-8.144-7.722-11.06-1.185-1.965-1.197-1.982-2.233-4.062l-2.248-4.042c-2.883-5.456-5.094-11.737-7.025-17.966-1.619-5.22-2.663-9.529-3.953-14.744-.418-1.688-.869-3.426-1.116-5.171a686 686 0 0 0-1.616-10.882c-1.522-9.633-1.62-13.246-2.125-22.86-.313-5.942-.464-10.18-.464-16.067 0-1.637.167-9.605.514-10.574 1.978-.73 4.944-.118 6.826-.189h4.76c2.718 0 5.444-.033 8.161-.033 2.707.001 5.03-.324 7.673-.487 10.47-.648 17.886-1.958 27.557-5.256 2.779-.947 7.008-3.077 9.225-5.056 1.32-1.179 2.266-2.606 3.816-1.858 1.325.639 2.309 1.934 2.775 2.328 4.188 3.535 11.33 5.66 16.63 6.919 10.824 2.57 14.927 2.81 25.353 3.286 1.284.059 3.234.196 4.471.157 1.29-.04 2.384-.209 3.74-.186l8.586.154c2.162.012 5.056-1.166 5 2.04zm3.45 1.513c-.015-.291-.061-.29-.084-.58-.036-.446-.004-1.065-.001-1.529.003-.617-.09-.85-.087-1.443.01-2.153.53-4.252-1.869-4.252-1.18 0-2.163.03-3.317.083-.376.017-.347.083-.76.09l-2.808.082c-1.194 0-2.082-.17-3.23-.17q-.723.002-1.446 0c-.582-.004-.777.09-1.359.086-1.082-.006-1.842.084-2.89.084-1.62 0-5.207-.205-6.887-.338l-2.04-.086c-.47.005-.59-.057-.936-.084-.693-.054-1.347-.017-2.03-.096-.564-.065-1.258-.148-1.88-.16l-1.954-.17c-.319-.014-.537-.06-.931-.089l-2.809-.337c-3.134-.299-7.741-1.202-10.607-1.888a91 91 0 0 1-9.635-2.86c-.263-.094-.459-.184-.729-.292-1.724-.693-3.354-1.47-5.012-2.299-1.15-.574-2.232-1.186-3.235-1.95-.215-.163-.393-.259-.594-.426l-1.702-1.443c-.22-.217-.332-.248-.554-.466-1.983-1.948-3.474.73-4.932 1.825-1.643 1.233-3.702 2.524-5.622 3.304-.396.161-.618.267-1.01.434a70 70 0 0 1-5.49 2.077 73 73 0 0 1-4.602 1.348l-2.38.595c-2.444.606-4.92 1.025-7.479 1.446-.873.144-1.683.234-2.613.362-2.45.339-4.96.544-7.427.82l-9.002.687c-.455.036-.987-.033-1.443.003l-1.447.084c-.582.003-.777-.09-1.358-.087l-3.062.002c-.594.003-.827-.09-1.444-.086-1.983.01-3.968-.003-5.95 0-1.644.003-4.974-.563-6.21.336-1.053.765-.676 3.474-.676 4.594 0 1.032-.087 1.81-.083 2.893.001.532-.083.801-.087 1.376v6.442c0 2.204.172 4.107.17 6.29l.094 3.137c.058.504.076.917.074 1.54L.659 81.2c.043.283.006.55.019.831l.428 5.267c.016.38.024.517.063.787.075.509.071 1.08.108 1.592.029.392.137 1.058.166 1.45.037.516.04.986.122 1.493.08.494.1.973.138 1.477.311 4.123 1.858 14.762 2.64 18.612 1.262 6.218 2.53 12.338 4.4 18.38l1.594 4.951c1.769 5.126 3.773 10.2 6.21 15.04l4.517 8.49c.228.372.414.678.64 1.061.117.2.167.28.285.48.125.215.205.309.332.517l2.551 3.995c1.516 2.283 3.207 4.435 4.843 6.633.926 1.243 1.953 2.413 2.95 3.595l1.882 2.114c.144.191.247.276.41.438l.808.893c1.117 1.106 2.162 2.161 3.273 3.273l2.042 1.953c.205.171.263.177.467.383.662.664 1.447 1.225 2.125 1.87l4.088 3.308c.327.244.568.447.912.703 2.67 1.994 5.026 3.482 7.77 5.32.183.122.33.196.529.322l.967.647c.207.137.332.193.53.321.17.111.284.197.456.309 1.546 1 3.117 1.794 4.773 2.622 1.664.833 5.086 2.875 6.768 3.093 1.614.21 3.409-.768 4.82-1.478a18 18 0 0 0 1.051-.564l3.16-1.77c.353-.217.667-.38 1.02-.596 3.703-2.268 7.506-4.428 10.972-7.049l8.157-6.549c.186-.175.243-.173.427-.338l2.168-1.996c1.638-1.64 3.633-3.506 5.144-5.313l1.569-1.745c.952-.962 1.805-2.074 2.645-3.136l5.214-7.026c.145-.215.21-.273.359-.491 1.908-2.78 3.541-5.71 5.238-8.619.113-.195.187-.291.31-.54.203-.413.361-.636.566-1.048.63-1.271 1.347-2.493 1.9-3.795l1.81-3.885c1.365-3.064 2.64-6.196 3.71-9.38.147-.437.241-.787.406-1.21l.825-2.49a168.5 168.5 0 0 0 5.748-23.664l1.727-11.279c.121-.938.26-2.01.398-2.917l1.263-15.058c.158-.94-.002-2.229.155-3.16.09-.538.009-1.02.052-1.564l.253-6.291c0-.245-.013-.527-.002-.768.017-.375.082-.347.09-.759.03-1.401.06-2.812.082-4.226z" class="fil1"></path><path d="m61.328 39.357-.01-26.436c-.702-.384-2.641-1.773-3.43-2.295-.394-.262-.767-.508-1.174-.781L47.7 3.556c-.446-.334-4.209-3.048-4.519-3.131v43.522l3.383-.782c3.985-.958 8.33-2.263 12.377-3.264.528-.13 1.962-.536 2.386-.544" class="fil2"></path><path d="M80.329 12.9c.076.143.033.02.03.153l.002 25.888c0 .01-.013.063-.013.053s-.01.036-.02.052c.357.11.001.011.16-.024.284-.062.335.011.742.114 4.17 1.054 8.47 2.166 12.565 3.331l4.725 1.055V0l-6.29 4.42c-.195.136-.38.289-.582.44zM97.61 218.631l-5.541 9.277c-.66 1.1-1.315 2.652-2.22 2.626-.719-.02-.97-.664-1.28-1.187-.33-.555-.62-1.03-.927-1.537-.616-1.02-1.196-2.013-1.813-3.033l-3.655-6.146h2.405c.337.088 4.747 8.16 5.39 8.977l5.257-8.973zm-17.003-7.31-.019 27.286c.34.008.842.163 1.112.245l16.99 4.346V199.76l-8.824 5.967c-.38.248-.727.433-1.106.68l-6.39 3.894c-.298.2-1.487.994-1.763 1.02" class="fil3"></path><path d="M51.159 228.379c1.777-.005 3.703.028 5.539.028v-2.89c-.844 0-4.81.126-5.292-.085-.094-.327-.185-1.486.085-1.743l7.332.044v6.799c-1.969 0-7.321.227-8.832-.26-4.982-1.603-5.307-8.942-.645-11.005 1.714-.758 6.538-.466 8.746-.466v2.057c-1.257 0-6.502-.144-7.5.168-2.108.658-2.922 3.067-2.251 5.029.193.566.682 1.317.99 1.554.366.28 1.184.844 1.828.77m10.702 10.228c.225-.35.107-2.858.107-3.315v-23.886L46.022 201.34a67 67 0 0 0-2.245-1.58v43.437c1.502-.35 3.032-.677 4.557-1.054z" class="fil2"></path><path d="M61.968 211.406v23.886c0 .457.118 2.966-.108 3.315.617 0 1.905-.345 2.414-.5.387-.116.732-.187 1.126-.318.403-.134.704-.203 1.123-.321 1.985-.561 4.233-1.53 5.954-.954.383.128.727.227 1.119.326.76.193 1.476.405 2.263.627.788.222 1.456.45 2.242.648.626.159 1.736.493 2.487.493l.018-27.287-5.689 2.579c-.4.2-.752.345-1.161.539-.232.11-.365.14-.597.253-.219.106-.37.196-.566.284-.4.18-.758.33-1.31.395-.408.048-.95-.133-1.27-.28l-3.42-1.595c-.954-.388-3.775-1.892-4.625-2.09m-.64-172.049.08.047c.8.072 4.182-1.895 5.031-2.461 1.61-1.073 1.834-1.33 3.156-2.624 2.318-2.268 3.091.079 5.073 1.603l2.906 1.94c.436.263.813.463 1.298.657.449.18.892.4 1.457.527.009-.016.018-.063.018-.052 0 .01.013-.042.013-.053l-.002-25.888c.004-.134.047-.01-.03-.153-.44.154-.81.343-1.188.531-.203.102-.388.162-.596.255l-2.916 1.333c-.399.17-.792.368-1.165.536-.907.41-3.053 1.5-3.705 1.416-.477-.061-.922-.241-1.282-.423l-5.858-2.643c-.403-.163-.775-.377-1.14-.56-.196-.097-.345-.175-.565-.285l-.475-.18c-.203-.007-.024-.059-.12.04z" class="fil1"></path><path d="M76.144 174.279c-.255-.7.226-1.108.563-1.515.334-.404.6-.739.995-1.131l2.049-2.288c.87-1.08 3.269-3.53 4.052-4.531.207-.265.25-.303.528-.577l7.648-8.502c1.197-1.432 4.354-3.691 2.925-4.976-1.274-1.146-2.406 1.034-3.098 1.742l-1.49 1.657c-.833.9-1.68 2.054-2.558 2.88l-1.01 1.113c-.494.6-.989 1.192-1.543 1.69-.606.545-2.5 2.837-3.05 3.326-.934.83-1.735 1.92-2.594 2.845l-3.555 4.007c-.166.225-.324.374-.502.605-.492.64-.96 1.039-1.339 1.807-1.167 2.375.201 5.257 3.198 4.13 1.093-.411 1.648-1.19 2.369-1.964l2.47-2.886c.196-.222.359-.32.55-.553.335-.408.68-.72 1.006-1.12.21-.257.262-.326.53-.576.205-.192.312-.375.51-.596l2.59-2.849c.231-.215.275-.316.473-.547l6.563-7.375c.191-.253.313-.335.527-.578l1.005-1.121c1.322-1.561 2.424-1.047 2.216-.005-.148.74-1.35 1.969-1.826 2.519l-3.696 3.95c-.171.2-.285.365-.464.561l-1.018 1.108c-.902.888-1.751 1.959-2.593 2.847l-1.035 1.089c-.206.196-.32.39-.5.605l-3.058 3.402c-.799.77-1.684 1.988-2.514 2.839l-1.53 1.704c-.423.499-1.866 1.808-1.057 2.772.34.404 1.053.49 1.489.122l6.081-6.751c.731-.759 1.837-2.194 2.553-2.892l2.032-2.212c.643-.8 1.996-2.12 2.55-2.808.808-1.005 2.379-2.524 3.098-3.446.205-.263.296-.33.528-.578.178-.191.268-.371.46-.565 1.308-1.315 3.381-3.66 2.587-5.566-.342-.818-1.325-1.646-2.399-1.842-2.222-.403-3.776 2.038-5.04 3.41l-2.553 2.888c-.737.68-1.789 2.118-2.596 2.843l-6.582 7.36c-.194.228-.298.296-.481.536-.61.801-1.4 1.499-2.074 2.26-.498.562-1.509 2.07-2.39 1.732z" class="fil0"></path><path d="M47.348 194.759c-.207.27-.193 1.42-.203 1.856-.017.776.04 1.094.226 1.785.539 1.104 2.58 2.377 3.766 3.096l4.993 2.997c4.002 2.343 7.057 4.038 11.279 6.148 3.015 1.507 4.17 1.272 7.055-.17l4.619-2.267c.554-.277.978-.535 1.501-.793.278-.137.432-.251.708-.398.311-.165.473-.237.772-.417l2.203-1.283c.274-.162.492-.274.754-.435l4.303-2.668c.967-.625 4.747-3.287 5.21-4.065.121-.667.302-1.078.34-1.869.044-.912-.13-1.232-.466-1.786-.438.124-8.085 5.029-9.133 5.711-.259.17-.465.283-.73.46l-2.094 1.306c-.251.15-.494.28-.746.444-.487.318-.912.56-1.425.87l-3.606 2.09c-1.662.823-3.893 2.345-5.694 2.385-.702.016-1.355-.216-1.904-.398a12 12 0 0 1-.806-.299 17 17 0 0 1-.834-.356l-3-1.59c-1.696-.986-5.12-2.688-6.65-3.636-2.716-1.682-3.526-1.995-6.297-4.073l-1.931-1.47c-.12-.083-.226-.145-.354-.24l-1.49-.9c-.26-.126-.17-.137-.366-.035" class="fil1"></path><path d="M46.56 153.92c1.082-.83 1.366-1.657 2.657-.32.15.155.178.252.338.43l3.685 4.052c.32.317.439.417.705.741l7.466 8.26c.144.168.238.214.386.374.121.131.198.243.307.38 1.267 1.59 4.098 3.619 4.41 5.525.27 1.656-1.106 3.094-2.677 3.064-.938-.019-1.529-.525-1.98-.95l-1.355-1.452c-.131-.15-.214-.264-.351-.415-.131-.143-.206-.18-.352-.323l-2.698-3c-.799-.965-2.638-2.815-3.385-3.758-.228-.29-.463-.463-.693-.751l-3.47-3.667c-1.186-1.156-4.571-4.845-5.266-6.127zm-5.056 2.318c.066.541 1.216 1.66 1.547 2l8.67 9.69c.15.173.235.314.38.476.158.176.27.24.424.421l3.787 4.123c.305.348.571.553.899.883 1.3 1.306 2.912 3.289 4.536 4.135 1.697.885 4.078.726 5.37-.514 2.403-2.306 2.245-4.856.124-7.192l-9.642-10.42c-1.102-1.239-3.28-3.491-4.18-4.66l-2.887-3.144c-.435-.41-1.246-1.487-1.667-1.82-.946-.747-1.755.315-2.195.755l-4.594 4.16c-.26.28-.644.516-.572 1.107" class="fil0"></path><path d="M44.287 155.983c.695 1.282 4.08 4.97 5.266 6.127l3.47 3.667c.23.287.465.462.694.75.746.944 2.586 2.794 3.384 3.758l2.698 3c.146.144.22.18.352.324.137.151.22.266.35.415l1.357 1.451c.45.426 1.041.932 1.98.95 1.57.03 2.946-1.407 2.676-3.063-.311-1.906-3.142-3.934-4.41-5.526-.11-.136-.185-.248-.307-.379-.148-.16-.242-.206-.386-.374l-7.466-8.26c-.266-.324-.384-.424-.705-.741l-3.685-4.051c-.16-.179-.188-.276-.338-.431-1.29-1.338-1.574-.51-2.656.32z" class="fil1"></path><path d="M21.372 124.431c.891-.167 1.666.274 2.162.71l10.752 11.855c.337.299.468.484.734.8.243.288.5.484.751.777.238.278.407.513.688.756l3.61 3.957c.332.316.436.535.723.808.647.613 1.03 1.223 1.479 1.496.368.223.754.224 1.141-.003.305-.178.538-.412.422-.966-.124-.592-2.106-2.742-2.68-3.357l-7.219-7.826c-.13-.156-.212-.275-.347-.42-.14-.148-.261-.225-.392-.37l-1.393-1.584c-.141-.151-.258-.22-.392-.37l-4.988-5.556c-.148-.191-.2-.213-.37-.39-.998-1.027-2.371-2.862-4.89-2.629-1.805.168-2.99 1.176-3.609 2.372-1.992 3.856.881 6.518 2.574 8.218.527.53 1.038.96 1.55 1.511l3.227 3.571c.137.148.219.266.345.425.54.677 1.55 1.655 2.162 2.339l5.014 5.527c.263.264.437.567.711.82.364.335.458.456.739.794l1.442 1.53c.73.73 1.435 2.25 2.609 1.334.796-.621.304-1.502-.182-2.06-.441-.51-.914-1.15-1.402-1.57l-1.872-1.955c-.136-.152-.203-.269-.338-.432l-4.624-5.149c-.177-.168-.204-.164-.348-.331l-2.137-2.37c-.251-.302-.503-.492-.747-.782-1.302-1.545-3.033-3.212-4.308-4.703-.81-.947-2.143-1.906-2.73-3.306-.785-1.877.982-3.255 2.133-3.471m90.325 17.7c.332-.403.665-.727.992-1.134l.966-1.078c.28-.273.31-.297.526-.575l5.85-6.561c.191-.193.277-.369.463-.56l2.972-3.229c2.383-2.89.504-4.882-1.336-6.736-.4-.403-.628-.607-1.072-.97-.353-.288-.883-.733-1.475-.511-.57.213-.71.65-1.043.996l-1.028 1.095c-.174.201-.335.307-.512.505l-2.426 2.677c-.604.571-1.783 1.964-.576 2.558 1.014.5 2.54-1.916 3.4-2.71l.972-1.065c.594-.777 1.188-1.799 2.418-.809.421.34 1.728 1.536 1.576 2.507-.159 1.011-1.917 2.793-2.653 3.636-.34.388-.654.645-.981 1.057l-4.91 5.463c-.437.415-.62.739-.98 1.062l-7.347 8.203c-.201.252-.223.3-.482.543-.217.204-.306.372-.503.603l-1.477 1.58c-.908 1.059-.35 1.795.844 2.18z" class="fil0"></path><path d="M47.371 198.4c-.186-.691-.243-1.009-.226-1.785.01-.437-.004-1.586.202-1.856l-7.162-6.112-4.122-3.954-1.317-1.317c-.128-.128-.224-.208-.341-.34l-5.88-6.871c-1.264-1.695-1.893-1.141-4.044-1.141.464.876.31.725.993 1.898.199.341.364.53.587.857.217.318.42.537.63.815.129.17.178.2.316.364.16.188.154.23.343.423l2.68 3.1c.123.145.213.2.33.35l6.737 7.034c.463.35.703.672 1.09 1.035l2.297 2.038c.155.14.226.248.389.376 1.146.904 2.346 1.976 3.572 2.889.184.137.256.207.424.34l.8.646c.36.322 1.26 1.107 1.702 1.211" class="fil2"></path><path d="M94.408 194.49c.336.554.51.874.466 1.786-.038.791-.219 1.202-.34 1.87l4.921-3.74c.17-.13.2-.178.364-.317l1.966-1.689c.35-.263.452-.44.754-.692l7.604-7.526 4.72-5.396c.763-.83 2.281-2.958 2.528-4.017-3.755 0-2.685-.325-4.865 2.275l-2.125 2.55c-.258.271-.378.466-.639.722l-1.275 1.445c-.429.482-.922.833-1.297 1.339l-9.725 9.06c-.528.406-.944.766-1.47 1.164z" class="fil3"></path><path d="M51.49 223.69v1.741l5.292.017-.015 3.028c-1.032.075-3.653.012-5 .018-.803.004-.493-.037-.608-.115-.644.074-1.462-.49-1.827-.77-.31-.237-.798-.988-.991-1.554-.671-1.962.143-4.37 2.25-5.029.999-.311 6.244-.168 7.501-.168v-2.057c-2.208 0-7.032-.292-8.746.466-4.662 2.063-4.337 9.402.645 11.006 1.51.486 6.863.26 8.832.26v-6.8z" class="fil1"></path><path d="M45.6 73.529c-.389 1.188-1.214 1.3-2.588 1.291-1.105-.006-7.027.08-7.586-.084-.954-.28-1.513-1.43-1.075-2.643.382-1.058 1.25-1.221 2.563-1.153 1.238.064 2.556.023 3.803.023.923 0 2.824-.139 3.589.084.86.25 1.67 1.34 1.295 2.482zm-9.555-4.28c-1.444.216-2.543.538-3.104 2.283a4.7 4.7 0 0 0-.102 2.398c.66 2.9 2.903 2.541 5.583 2.541 1.79 0 3.667.062 5.444.017 3.998-.1 3.73-5.21 2.155-6.477-1.235-.994-2.934-.65-4.71-.737-1.704-.083-3.574-.278-5.266-.025m61.435 1.725c.86-.141 2.598-.01 3.59-.01 1.36 0 4.674-.249 5.47.324 1.228.885 1.054 3.239-.713 3.52l-7.647.03c-1.283.01-2.126-.384-2.289-1.572-.174-1.272.508-2.114 1.588-2.292zm-.441-1.662c-3.088.455-3.496 5.21-1.22 6.664 1.127.72 3.366.495 4.911.495.954 0 4.763.06 5.388-.033 3.32-.497 3.4-5.196 1.23-6.636-1.153-.765-5.645-.508-7.638-.508-.78 0-1.966-.086-2.671.018" class="fil0"></path><path d="m97.61 218.631-2.384.004-5.257 8.973c-.643-.818-5.053-8.889-5.39-8.977h-2.405l3.655 6.146c.617 1.02 1.197 2.013 1.813 3.033.306.508.596.982.926 1.537.312.523.562 1.167 1.282 1.187.904.026 1.559-1.527 2.219-2.626z" class="fil1"></path><path d="M80.552 74.294c-.268.584-1.328 1.611-1.37 2.337 1.446.116 1.873-.16 2.52-.965.694-.863.908-1.13 2.455-1.084 2.348.07 4.733.052 7.104.052V73.33h-5.917c-1.318 0-4.805.388-4.588-1.323.181-1.432 3.517-1.027 4.843-1.027h5.983l.002 5.64 1.283.022c.094-.67.112-6.23-.027-6.614-.321-.889-1.859-.593-2.82-.554-2.324.096-8.68-.364-9.728.45-1.044.811-1.44 2.504-.675 3.64.312.464.555.413.936.73zm-31.887 2.337 1.263.005.023-5.657h5.897c1.337 0 4.745-.413 4.928 1.027.215 1.698-3.193 1.323-4.503 1.323H50.27v1.305c2.372 0 4.757.019 7.105-.052 2.73-.082 1.94 1.36 3.417 1.904.447.164 1.037.187 1.557.145-.045-.73-1.1-1.75-1.37-2.337.31-.266 1.267-.499 1.326-1.952.046-1.122-.437-1.885-1.022-2.38-1.014-.857-7.364-.409-9.686-.485-.953-.032-2.52-.338-2.883.49-.173.395-.15 5.963-.05 6.664" class="fil0"></path><path d="M97.48 70.974c-1.08.178-1.763 1.02-1.589 2.292.163 1.188 1.006 1.582 2.289 1.573l7.647-.03c1.767-.282 1.941-2.636.712-3.52-.795-.574-4.11-.326-5.469-.326-.992 0-2.73-.13-3.59.011M45.6 73.529c.376-1.142-.434-2.232-1.294-2.482-.765-.222-2.666-.084-3.589-.084-1.247 0-2.565.041-3.803-.023-1.312-.068-2.181.095-2.563 1.153-.438 1.213.121 2.363 1.075 2.643.56.165 6.48.078 7.586.084 1.374.008 2.2-.103 2.589-1.291z" class="fil1"></path><path d="M76.05 69.482v2.772c0 2.23.04 2.72-2.691 2.72l-5.525.006c-1.947.053-2.617-.561-2.637-2.811-.006-.674.172-2.173.07-2.688-1.71.005-1.236 1.033-1.295 2.496-.046 1.12-.132 2.503.407 3.39.565.93 1.127 1.226 2.604 1.223 2.532-.006 5.133.171 7.65.057 2.889-.13 3.022-2.396 2.933-4.733-.063-1.668.44-2.432-1.517-2.432" class="fil0"></path><path d="M51.159 228.379c.115.078-.195.119.608.115 1.347-.006 3.968.057 5-.018l.015-3.028-5.291-.017v-1.742c-.27.257-.179 1.416-.085 1.743.483.211 4.448.085 5.292.085v2.89c-1.835 0-3.762-.033-5.539-.028" style="fill:#9d4b46"></path></g></g><!-- source: https://football-logos.cc --></svg>