<svg xmlns="http://www.w3.org/2000/svg" xml:space="preserve" id="svg29492" x="0" y="0" version="1.1" viewBox="-0.03 0 276.35 316.54"><metadata xmlns:fl="https://football-logos.cc/sweden/halmstad">dl1_6367191cc980789885f3bf16168d2e4a908e83e47c8e291b0bde209807db0077</metadata><!-- Source: https://football-logos.cc --><style id="style29428" type="text/css" data-source="https://football-logos.cc">.st2,.st3{fill-rule:evenodd;clip-rule:evenodd}.st2{fill:#0058a2;stroke:#d6b160;stroke-width:4.252;stroke-miterlimit:3.8637}.st3{fill:#d6b160}.st4,.st5{fill:#d6b160;stroke:#0058a2;stroke-width:2.8346;stroke-miterlimit:3.8637}.st5{fill-rule:evenodd;clip-rule:evenodd;fill:none}</style><g id="Förgrund" transform="translate(-36.91 -38.92)" data-source="https://football-logos.cc"><g id="g29489"><path id="path29433" d="M178 41.2c15.4-.7 21.6 10.9 34 20 10 7.4 13.9 13.7 24 21 17.7 12.8 31.1 13.7 50 25 10 6 15.1 11.3 20.4 20.7 8.5 15.2-.1 27.1-5.4 43.3-9.1 28-21.7 43.9-29 74-4 16.5-1.4 27-7 43-2.8 8.1-3.9 13.2-9 20-9.6 12.9-21.2 13.7-36 20-21.3 9.1-31.4 21.2-49 21-14.4-.1-22.4-14.7-41-22-12.2-4.8-16.2-6.2-25.1-12.4-5.8-4-9.6-5.9-13.7-11.6-13.9-18.9-8.8-36.1-15.1-59-7.7-27.7-13.1-42.9-21.3-70.4-5-17-16.5-26.3-12.7-43.6 2.7-12.2 6.3-20.7 17-27 21.1-12.4 37.4-11.7 59-24 12.7-7.2 20.3-12.5 31-21 11-8.9 15.8-16.4 28.9-17z" style="clip-rule:evenodd;fill:#fff;fill-rule:evenodd;stroke:#0058a2;stroke-miterlimit:3.86369991"></path><path id="path29435" d="M177 43.2c15.4-.7 21.6 10.9 34 20 10 7.4 13.9 13.7 24 21 17.7 12.8 31.1 13.7 50 25 10 6 15.1 11.3 20.4 20.7 8.5 15.2-.1 27.1-5.4 43.3-9.1 28-21.7 43.9-29 74-4 16.5-1.4 27-7 43-2.8 8.1-4 13.1-9 20-10.3 14.1-24.4 15.5-39.1 21.9-21.3 9.1-28.2 19.3-45.9 19.1-14.4-.1-21.3-14-39.9-21.3-12.2-4.8-16.9-6.6-26.3-13.1-5.7-4-9.6-5.9-13.7-11.6-13.9-18.9-8.8-36.1-15.1-59-7.7-27.7-13.5-42.8-21.3-70.4-4.8-16.9-15.7-26.4-11.7-43.6 2.7-11.6 5.3-19.7 16-26 21.1-12.4 37.4-12.5 59-25 12.6-7.3 20.3-12.5 31-21 11.1-8.9 15.9-16.4 29-17z" style="clip-rule:evenodd;fill:none;fill-rule:evenodd;stroke:#d6b160;stroke-width:8.50389957;stroke-miterlimit:3.86369991"></path><path id="path29437" d="M94.4 246.7c.2 2.5 4.8 1.4 6.5-.5l85.5-90.5c11.9-12.6 21.7-20.3 24-37.5 1-7.4.7-11.8-1-19-2.8-6.7-5.4-10.4-11-15-6.2-5.2-10.9-7.6-19-8.5-6.8-.8-11 .1-17.5 2.5-16.9 6.2-26.1 13.1-41.8 21.5 0 0-20.7 9.7-34.2 15.5-7.9 3.3-11.1 4.9-17 9.5-4.5 3.5-5.6 7.6-6.5 13.3-.7 4.4-.5 7.5 1 11.7l20.5 57.5c5.4 14.7 9.4 26.7 10.5 39.5z" class="st2" style="clip-rule:evenodd;fill:#0058a2;fill-rule:evenodd;stroke:#d6b160;stroke-width:4.25199986;stroke-miterlimit:3.86369991"></path><g id="g29451"><path id="path29439" d="M146.6 241.5c2.1-2.2 2.1-2.2 3.6-.8l7.6 7.1c4.9 4.6 5 5.2 3.2 8l-.9 1.3c-.1.7 1.1 1.8 1.8 1.7 2.3-2.6 4.6-5.3 7.1-7.9 2.3-2.4 4.7-5 7.3-7.5.1-.7-1.1-1.8-1.8-1.7l-1.4 1.1c-2.7 2-3.3 2-8.2-2.6L145.2 222c-4.9-4.6-5-5.2-3.2-8.1l.8-1.2c.1-.7-1.1-1.8-1.8-1.7-2.2 2.5-4.4 5-6.8 7.6-2.4 2.5-4.8 5.1-7.6 7.9-.1.7 1.1 1.8 1.8 1.7l1.5-1.2c2.7-2 3.3-2 8.2 2.6l6.1 5.7c1.5 1.4 1.6 1.5-.5 3.7l-10.2 11c-2 2.2-2.1 2.2-3.6.7l-6.1-5.7c-4.9-4.6-5-5.2-3.3-7.9l.9-1.3c.1-.7-1.1-1.8-1.8-1.7-2.1 2.4-4.5 5.1-6.7 7.5-2.4 2.5-5 5.2-7.5 7.7-.1.7 1.1 1.8 1.8 1.7l1.3-1.1c2.7-1.9 3.3-1.9 8.3 2.7l19.6 18.3c4.9 4.6 5 5.2 3.2 8l-1 1.4c-.1.7 1.1 1.8 1.8 1.7 2.4-2.8 4.8-5.5 7.2-8 2.2-2.4 4.7-5 7.6-7.9.1-.7-1.1-1.8-1.8-1.7l-1.8 1.5c-2.6 2-3.3 2-8.2-2.6l-7.6-7.1c-1.5-1.4-1.5-1.5.5-3.6z" class="st3" style="clip-rule:evenodd;fill:#d6b160;fill-rule:evenodd"></path><path id="path29441" d="M160.8 219.6c-1.2 1.3-1.2 3.4.2 4.6 1.4 1.3 3.4 1.2 4.6-.1s1.2-3.4-.2-4.6c-1.3-1.3-3.4-1.2-4.6.1" class="st3" style="clip-rule:evenodd;fill:#d6b160;fill-rule:evenodd"></path><path id="path29443" d="M181.7 222.1c4.7 4.4 4.8 5.1 3.1 7.9l-1.1 1.8c-.2.6 1.1 1.8 1.8 1.7 2.7-3.1 5.1-5.7 7.5-8.3 1.4-1.5 3.5-3.3 5.3-5.2 3-3.2 6.5-7.3 8.5-11.7 1.9-4.4 1.8-10-3.1-14.4-5.2-4.7-11.2-3.7-16-.4-.5.4-1 .5-1.1.3-.3-.2 0-1 .4-1.6 1.1-2 2.9-7.4-1.6-11.5-3.1-2.9-6.6-3.6-10.1-2.6s-7.3 3.9-12 8.9c-4.9 5.3-8.3 9.3-11.8 13.6-.7.8 1 2.2 1.7 2l1.5-1.2c2.3-2 3-1.5 8.3 3.4zm-15.4-27.9c-2.3-2.2-2.7-2.6-.4-5.1 3.4-3.6 8.3-4.4 12.9-.1 3.2 2.9 4.5 7.3.3 11.9-2.6 2.7-2.7 2.7-4.1 1.4zm14.6 13.6c-2.1-2-2.2-2 .5-4.9 4.7-5.1 10.4-4.7 15-.4 4.3 4 5.4 8.8 1.7 12.7-3.8 4.1-6.9 2.2-11-1.6z" class="st3" style="clip-rule:evenodd;fill:#d6b160;fill-rule:evenodd"></path><path id="path29445" d="M197.7 180.1c-1.2 1.3-1.2 3.4.2 4.6 1.4 1.3 3.4 1.2 4.6-.1s1.2-3.4-.2-4.6c-1.3-1.3-3.4-1.2-4.6.1" class="st3" style="clip-rule:evenodd;fill:#d6b160;fill-rule:evenodd"></path><path id="path29447" d="M205.9 156.8c-4.9-4.6-5-5.2-3.2-8l1.2-1.7c.1-.8-1.1-1.9-1.8-1.7-2.5 2.9-4.9 5.6-7.3 8.1l-7.5 7.8c-.2.9 1 2 1.8 1.7l1.6-1.3c2.6-2 3.3-2 8.2 2.6l19.6 18.3c4.9 4.6 5 5.2 3.2 8l-1.2 1.7c-.1.7 1.1 1.8 1.8 1.7 2.5-2.9 5-5.7 7.2-8.1 2.4-2.5 4.9-5.1 7.6-7.8.1-.7-1.1-1.8-1.8-1.7l-1.6 1.3c-2.6 2-3.3 2-8.2-2.6l-5.5-5.2c-2.8-2.7-3.5-3.4-2.4-4.6s3.2-.9 7.8-.1l6.9 1.2c1.3.2 6.8 1.2 7.5 1.3.8.1 1.2.4 1.4.6s.1.7-.3 1.4l-.9 1.6c-.2.9 1.1 1.6 1.9 1.1 2.6-3 4.6-5.9 6.5-8.8 1.9-2.7 3.5-5.5 5.4-8.6 1-1.6 1.5-5.2-.7-5.9l-2 3.5c-.9 1.1-1.9 3.7-5.1 3.4-9.2-.3-14.8-.5-21.5-1.3-4.1-.4-4.7-.8-5-1.1-.2-.2-.4-.5-.6-1.8-1-8.3-1.3-23.1-1.5-26 0-.5-.1-1.6-.5-2.3-.9-1.4-3.2-1.9-4.1.6s-2.4 9.3-5.4 12.7c-.4.9 1.1 1.9 2.2 1.6l2.8-1.6c.8-.3 1 1.9 1.2 3 0 .3.1.9.2 1.7.6 4.2 1.2 9.4 1.9 15.3.3 1.8.3 5.8-.7 6.9-.6.6-1.1.8-2.8-.9z" class="st3" style="clip-rule:evenodd;fill:#d6b160;fill-rule:evenodd"></path><path id="path29449" d="M235.9 139.2c-1.2 1.3-1.2 3.4.2 4.6 1.4 1.3 3.4 1.2 4.6-.1s1.2-3.4-.2-4.6c-1.3-1.3-3.4-1.3-4.6.1" class="st3" style="clip-rule:evenodd;fill:#d6b160;fill-rule:evenodd"></path></g><g id="g29467"><g id="g29455"><circle id="circle29453" cx="135.3" cy="144.7" r="27.2" class="st4" style="fill:#d6b160;stroke:#0058a2;stroke-width:2.83459997;stroke-miterlimit:3.86369991"></circle></g><g id="g29459"><ellipse id="ellipse29457" cx="135.6" cy="144.3" class="st4" rx="27.3" ry="15.9" style="fill:#d6b160;stroke:#0058a2;stroke-width:2.83459997;stroke-miterlimit:3.86369991" transform="scale(-1)rotate(49.998 309.46 -290.784)"></ellipse></g><path id="line29461" d="m116.7 124.4 36.8 40.5" class="st5" style="clip-rule:evenodd;fill:none;fill-rule:evenodd;stroke:#0058a2;stroke-width:2.83459997;stroke-miterlimit:3.86369991"></path><path id="path29463" d="M123.9 121c.5 3.4-.3 6-2.6 8.5-2.5 2.7-5.2 3.6-8.8 3.1 0 0-1.1-.2-1.7-.6" class="st5" style="clip-rule:evenodd;fill:none;fill-rule:evenodd;stroke:#0058a2;stroke-width:2.83459997;stroke-miterlimit:3.86369991"></path><path id="path29465" d="M158.2 158.8c-3.6-.7-6.3.1-9 2.5-2.5 2.4-3.5 4.8-3.2 8.3" class="st5" style="clip-rule:evenodd;fill:none;fill-rule:evenodd;stroke:#0058a2;stroke-width:2.83459997;stroke-miterlimit:3.86369991"></path></g><path id="path29469" d="M147.7 284.4c13-18 15.6-21.3 29.9-35.3 13.2-13 20.5-20.4 33.1-33.8 12.8-13.7 20.2-21.7 32.1-35.9 7.2-8.6 10.4-14.1 16.3-23.5 3.1-6.1 4.8-7.8 5.7-14.1.9-6.5-.6-17.3 6.5-17.2 1.9 0 3 .6 4.8 1.4 6 2.6 8.3 6.9 10.8 13 1.7 4.4 1.9 7.2 1.8 11.9-.1 7.5-2.7 11.4-5.5 18.3-6.8 17-12.7 26.4-19.4 43.9-3.8 9.8-5.7 15.4-8.9 25.4-3.1 13.1-4.7 20.6-7 33.9-1.4 8.1-1.3 13.8-3.3 20.8-3.1 10.7-10.6 14.2-20.3 18.8-8.7 4.1-13 6.8-22 9.4-11.3 3.3-17.5 4.6-29.9 4-7.2-.4-11.6-2-17.3-6.4-5.8-4.6-8.9-8.6-10.4-15.8-1.5-7.6 0-14.6 3-18.8z" class="st2" style="clip-rule:evenodd;fill:#0058a2;fill-rule:evenodd;stroke:#d6b160;stroke-width:4.25199986;stroke-miterlimit:3.86369991"></path><g id="g29475"><path id="path29471" d="M168.3 298h-4.7v-20.5h-3.2v-3.3c1.5-.1 2.6-.6 3.3-1.4q1.2-1.2 1.5-1.8h3.1z" class="st3" style="clip-rule:evenodd;fill:#d6b160;fill-rule:evenodd"></path><path id="path29473" d="M188.2 283.7c-.2 4.4-1.1 8-2.8 10.7-1.6 2.7-4 4-7.2 4-.8 0-1.5-.1-2.2-.2-.6-.1-1.2-.2-1.7-.4v-4.6c.7.2 1.4.4 2 .5s1.3.2 1.9.2c1.5 0 2.6-.6 3.4-1.7s1.2-2.6 1.3-4.5c-.3.6-.9 1.2-1.8 1.6-.9.5-1.8.7-2.5.7-2.4 0-4.2-.8-5.5-2.4s-2-3.9-2-6.9c0-3.1.7-5.5 2.2-7.3s3.5-2.7 6.2-2.7c2.8 0 4.9.9 6.3 2.6q2.1 2.55 2.4 8.1v2.3m-5.1-3.3q0-3-.9-4.2c-.6-.9-1.5-1.3-2.5-1.3-1.1 0-1.9.4-2.5 1.3-.6.8-.9 2.3-.9 4.3q0 2.85.9 4.2c.6.9 1.4 1.3 2.5 1.3.9 0 1.8-.4 2.4-1.3.7-1 1-2.4 1-4.3" class="st3" style="clip-rule:evenodd;fill:#d6b160;fill-rule:evenodd"></path></g><g id="g29481"><path id="path29477" d="M215.5 297.9H211v-19.7h-3V275c1.4-.1 2.4-.6 3.1-1.3s1.2-1.3 1.4-1.7h2.9v25.9z" class="st3" style="clip-rule:evenodd;fill:#d6b160;fill-rule:evenodd"></path><path id="path29479" d="M233.8 290.3h-1.5v7.5h-4.4v-7.5h-9.5l-.2-5 11.2-13.4h2.9v14.6h1.5zm-5.9-3.7v-7.9l-6.6 7.9z" class="st3" style="clip-rule:evenodd;fill:#d6b160;fill-rule:evenodd"></path></g><path id="path29483" d="M197.1 273.2c-1.2 0-2.1.4-2.9 1.2q-1.2 1.2-1.2 3c0 1.2.4 2.2 1.2 3.1.8.8 1.8 1.2 2.9 1.2s2.1-.4 2.8-1.2c.8-.8 1.1-1.8 1.1-3.1 0-1.2-.4-2.2-1.1-3-.8-.8-1.7-1.2-2.8-1.2m.4-7.4h2.1l-4 6.2c.4-.1.7-.1 1-.2.3 0 .6-.1.8-.1 1.5 0 2.8.5 3.8 1.6s1.5 2.4 1.5 4.1-.6 3.1-1.7 4.2-2.5 1.7-4.2 1.7-3-.5-4.1-1.6-1.6-2.4-1.6-4c0-1.4.7-3.2 2.2-5.5l.2-.3z" class="st3" style="clip-rule:evenodd;fill:#d6b160;fill-rule:evenodd"></path><path id="path29485" d="M199.7 295.6c.9.5 1.6 1.1 2.1 1.9s.7 1.7.7 2.8c0 1.6-.5 3-1.6 4-1 1-2.4 1.6-4 1.6s-2.9-.5-3.8-1.5c-1-1-1.4-2.3-1.5-4h1.7c0 1.2.3 2.2 1 3 .7.7 1.5 1.1 2.6 1.1s2.1-.4 2.8-1.1 1.1-1.7 1.1-2.8q0-1.95-1.2-3c-.8-.7-1.9-1-3.4-1h-.8v-1.4h.8c1.1 0 2-.2 2.5-.7.6-.5.8-1.2.8-2.1 0-.8-.2-1.5-.7-2s-1.1-.8-1.8-.8c-.8 0-1.5.3-2 .8s-.7 1.2-.8 2.1h-1.6c.1-1.3.5-2.4 1.3-3.2s1.8-1.2 3.1-1.2q1.8 0 3 1.2t1.2 3c0 .7-.1 1.3-.4 1.8-.2.6-.6 1-1.1 1.5" class="st3" style="clip-rule:evenodd;fill:#d6b160;fill-rule:evenodd"></path><path id="line29487" d="M192.1 285.6h10" style="clip-rule:evenodd;fill:none;fill-rule:evenodd;stroke:#d6b160;stroke-miterlimit:3.86369991"></path></g></g><!-- source: https://football-logos.cc --></svg>