<svg xmlns="http://www.w3.org/2000/svg" fill="none" viewBox="0.29 0.29 68.55 70.02"><metadata xmlns:fl="https://football-logos.cc/sweden/hammarby">dl1_9626a1f8de5ae176ea3dca97430a7c64e2f8e44569f7c6851d48d4c88256c385</metadata><!-- Source: https://football-logos.cc --><path fill="#000" d="M48.171 69.434c-.171.148-.43.517-.83.744a.93.93 0 0 1-.638.116c-.153-.033-.237-.271-.603-.711-.367-.439-.8-1.053-1.286-1.578-.435-.465-.996-.898-1.632-.982-.724-.1-1.236-.241-2.415-.49-1.02-.215-2.572-.752-3.43-1.23-.453-.254-.794-.728-1.156-1.074-.12.038-.134-.313-.46.087a1.56 1.56 0 0 1-.615.408c-1.125.36-2.283.102-2.896-.415a2.9 2.9 0 0 1-.768-.912c-.138-.241-.315-.717-.344-1.005-.497.07-.83.044-1.166.15-.348.113-.816.225-1.11.364-1.173.536-1.962 1.55-2.938 2.307-.35.266-.726.604-1.063.883-.31.245-.612.463-.91.728-.224.199-.571.6-.648.673-.54.467-.845 1.29-1.631 1.461-.834.178-2.875-.608-3.806-.68-.016-.224.135-.438.265-.58.532-.576 1.808-.86 2.546-1.288.905-.527 1.688-1.35 2.482-2.015.251-.218.445-.491.66-.745-2.237-.18-4.186-.399-5.87-1.11-.945-.397-1.965-.983-2.81-1.537-.301-.198-.711-.536-.91-.668-.168-.104-.293-.238-.496-.325a371 371 0 0 0-1.192 5.787c-.112.565-.212.97-.342 1.447-.038.136-.357.115-.615.09-.148-.015-.992-.149-1.071-.296-.112-.208.136-1.066.161-1.2.13-.688.711-3.79.796-4.156.102-.693.51-2.365.629-2.944 0 0-1.753-1.96-1.92-2.15-.577-.653-1.196-1.086-1.902-1.62-.057-.044-.305-.158-.351-.194a25 25 0 0 1 1.42-.3c0-.014-.42-.166-.408-.168-1.58-.82-2.847-2.456-3.72-3.966-.245-.425-.64-1.307-.694-1.289a25 25 0 0 1-.546-1.277c-.424-1.105-1.12-4.004-.863-2.963 0 0-.146-.584-.387-1.748-.24-1.162-.387-1.585-.568-2.397-.466-1.574-1.211-3.59-1.405-4.236-.05-.172-.258-.71-.258-.71s.591.324.668.367C.541 34.17.08 31.783.383 29.175c.416-3.635 2.095-6.193 3.307-9.012.255-.6.441-1.006.794-1.796.075-.171.352-.94.362-1.013.07-.452.116-.718.25-1.16.214-.715.622-1.648.991-2.314.576-1.034 1.339-2.205 1.712-2.617.374-.417 1.141-1.317 1.265-1.433 0 .004 2.798-2.523 4.216-3.308.54-.301 1.046-.428 1.57-.743 1.016-.618 2.024-1.354 3.142-1.9-.42.894-.936 1.466-1.24 2.478.046 0 .199-.029.247 0 2.004-2.964 4.824-5.343 9.875-6.03 1.708-.235 3.79.67 5.916.326l-.003.515a82 82 0 0 0-2.974 2.212c-1.27.98-2.505 1.925-3.67 3.055-.303.298-1.882 1.854-1.935 1.937.92-.46 2.258-.564 3.208-.61 2.225-.118 4.923.866 7.028.33-.478.607-.85.615-1.407 1.077-.909.745-1.464 1.92-2.396 2.645-1.173.903-2.484 1.572-3.969 2.15.01.001 0 .234 0 .246.432-.035.883.119.806.194-.51.485-1.25.785-1.798 1.227-.948.757-1.701 1.646-2.728 2.347.419.767.345 1.147.019 1.773 1.057-.216 2.498-.713 3.387-.947 2.707-.715 4.947-.893 8.004-1.12 1.159-.09 2.528-.15 3.884-.092.727.03 4.36.115 3.31.043 2.24.173 3.984.325 5.6.412-.173-.152-.425-.355-.625-.543-.163-.144-.344-.259-.513-.4a24 24 0 0 1-1.425-1.295c-.29-.295-.447-.635-.809-.854-.961-.586-1.845-.867-2.73-1.499-.932-.662-1.787-1.637-2.56-2.469-.711-.767-1.496-1.401-2.15-2.23 1.436.21 2.993.533 4.631.412.697-.053 1.517-.194 2.374-.276v-.106s-.582-.67-.715-.797c-.595-.57-1.168-1.304-1.679-1.94-.711-.885-1.274-1.766-1.966-2.67-.656-.852-1.396-1.532-1.983-2.48 1.127.453 2.164 1.246 3.555 1.407 2.08.236 3.852-.306 5.87 0 .525.077 1.594.482 1.9.661.309.18.543.613.745.66.617.142-.231-.77.33-.58.333.113.535.719.745.997.387.514.748 1.016 1.295 1.374.695.452 2.606 1.48 2.673 1.519 3.587 1.965 8.404 4.43 8.599 9.421-.08-.053.028.457.028.457l-.026 1.447c.005-.107-.156-2.423-.058-2.413.041.077.51 1.114.557 1.251.15.454.305 1.045.56 1.676.351.879.679 1.696 1.094 2.544.544 1.109 1.279 2.35 1.813 3.47.454.963.645 1.64.963 2.74.379 1.332.881 3.237 1.023 4.786a14.8 14.8 0 0 1-.416 4.842c.186-.04.579-.13.579-.13s-1.55 2.428-2.067 3.637c-.71 1.649-.539 3.018-1.099 5.126-.145.547-.453 1.686-.638 2.15-.691 1.712-1.494 3.246-2.85 4.526-.774.73-1.375 1.247-1.85 1.72l-.363.284c.705-.09 1.145-.154 1.841-.248 0 .01-.004.248 0 .25-.33.157-.828.28-1.158.494-.212.135-.39.5-.58.66-.477.403-.94.763-1.405 1.158-.749.632-1.444.988-2.148 1.662-.52.5-1 1.172-1.49 1.644-.447.429-1.603 1.267-1.668 1.324-1.356 1.169-8.532 3.58-10.281 3.568.012.01.294.134.294.152.389.112.816.201 1.24.285.558.1 1.06.18 1.57.376.609.236 3.662 2.3 2.48 3.144 0 0-.32.34-.492.493M19.99 20.653c-.164.217-1.528 1.452-2.291 2.144-.33.291-1.124.718-1.321 1.075-.13.22-.076.495-.166.743-.09.231-.431.675-.497.909-.251.874-.49 1.952-.577 2.81-.244 2.338.428 4.183.248 6.614-.153 2.022-.84 3.837-1.29 5.647.626.493 1.05 1.074 1.443 1.864l.099-.336c.64-2.813 1.134-4.974 1.682-7.59.643-3.08 1.359-6.181 2.033-9.422.197-.946.498-1.937.678-2.813.102-.495.336-1.577.397-2.15 0 0-.222.225-.438.504m1.843 2.804c-1.001 5.954-2.611 11.857-3.836 17.691a167 167 0 0 1-1.246 5.535l.492-1.118c.085-.26.309-.643.524-1.242.685-1.919 1.636-5.127 1.797-5.736.16-.603.416-1.441.568-2.066.15-.633.27-1.113.329-1.324.937-3.564 1.325-7.302 1.62-11.74-.025 0-.245.013-.248 0M38.73 59.95c-.04-.03-.112-.086-.192-.365-.158-.54-.215-2.08.547-3.389.7-1.202 1.605-1.993 2.25-2.38.646-.39 1.68-.931 1.25-.715-.432.216.725-.355 1.071-.54.35-.192 1.039-.709 1.62-1.258.868-.817 1.553-2.488 1.936-3.79.03 0 .233.02.248 0-.228 1.67.157 2.846.446 4.21 0 0 .259-.644.381-1.15.282-1.169.66-2.347 1.24-3.224.22-.337 1.201-1.435 1.242-1.686.033-.19.123-.178.164-.298-2.693 0-4.962.278-7.69.13-2.633-.139-5.94-.828-9.185-.803-4.73.035-10.721 1.045-15.156 2.208.04.037.818 1.184.948 1.38.215.321.516.73 1.14.989.066-.427.06-1.112.097-1.589.013.02.282.335.333.414.07.115.26.306.347.422.434.594.813.944 1.377 1.397 1.539 1.236 3.52 1.97 5.22 3.057.982.632 1.816 1.592 2.561 2.481.818.973 1.613 1.676 1.902 3.223l.117.325c.318-.226.503-.263 1.123-.266 1.522-.01 3.327.627 3.915 1.716 0 0 .616-.375.748-.5" data-source="https://football-logos.cc"></path><g fill="#ffe501"><path d="M21.315 49.379c-.066.479-.088 1.187-.23 1.612-.301.906-.465 1.996.433 3.47.129.213.05.471.248.58.39.212 1.164.254 1.645.373.83.2 1.492.424 2.224.701.263.1.804.528.934.561-1.159-1.143-2.342-2.74-3.345-3.92-.3-.352-.79-.88-1.042-1.271-.404-.621-.282-.866-.666-1.515-.03-.052-.186-.56-.202-.591M48.443 68.202c-.429-.561-.745-1.048-1.289-1.42-.15-.104-.31-.211-.834-.517-.522-.31-2.266-.46-3.673-.95-.146-.046-1.17-.366-1.299-.44-.335-.18-.668-.306-.992-.509-.833-.516-1.455-1.306-2.15-1.969-.031.037-.2-.026-.249 0 .042-.016-.17.235-.298.415-.321.426-.791.715-1.305.941.069.151.133.23.212.365.098.176.791.645.58.51 1.184.743 1.01.625 2.497 1.103.074.023 1.232.401 1.31.416 1.379.29 3.01.581 3.454.894.443.313 1.873 1.892 2.134 2.319.35.576.33.578.908.167.171-.122.58-.507.753-.701.17-.196.396-.404.241-.625M14.89 24.865c-.477.087-1.996 1.615-2.56 1.902h-.084c-.185.527.087 1.538 0 2.15.025 0 .225-.016.247 0 .716-1.55 1.646-2.66 2.647-3.886-.089-.049-.044-.21-.25-.166M62.138 21.15c-.282.84-.509 1.54-.774 2.395-.144.445-.514 1.455-.653 1.918-.342 1.107-.495 1.554-.86 2.714-.488 1.538-1.12 3.683-1.538 5.538-.481 2.14-.774 3.043-1.262 5.282.108.038.452 1.04.603 2.009.186.947.086 1.639.258 3.443.073-.052.717-.787.805-.817 0-.028 1.074-1.21 1.474-1.553.32-.28.714-.533 1.017-.817-1.762-5.788.45-13.743 1.57-18.874.142-.656.345-1.66.388-2.305.074-1.112-.172-1.94-.303-2.845 0 0-.314 2.674-.725 3.911M59.601 54.158a10 10 0 0 1 1.256-1.185c1.744-1.333 2.743-3.08 3.638-5.29.217-.543.465-1.29.614-1.9.21-.901.43-1.718.543-2.565.008-.069.153-.9.162-.993.031-.429.285-1.323.436-1.827a1.9 1.9 0 0 0-.35.307c-.137.159-.951 1.326-1.124 1.604-.44.706-.862 1.431-1.293 2.15-.535.882-1.003 1.76-1.62 2.562-1.835 2.377-3.99 4.102-6.1 6.04-.081.074-.539.486-.61.575-.285.328-.338.361-.594.716-.065.082-.363.51-.399.606-.038.086-.178.29-.228.372.694 0 1.46-.261 1.965-.325 1.34-.167 2.102-.256 3.348-.41zM44.057 8.842c.595-.034 1.096-.062 1.671.07 1.381.316 2.294.602 3.058 1.075.132.08.693.4 1.178.706.488.308.71.633.977.802.268.17.677.464.76.519-.632-1.207-1.11-3.057-1.304-4.594-.091-.708-.06-1.394-.274-2.066-.183-.574-.813-.808-1.183-1.23-.646-.742-.969-1.226-3.21-1.398-1.1-.084-2.268.084-3.31.085-.989 0-1.984.002-3.492-.557.08.079.452.385.764.59.242.162.468.277.746.431.671.363 1.46.759 2.149 1.092.711.35 1.407.564 2.15.892 1.056.46 2.088 1.058 3.057 1.622.63.37 1.273.804 1.82 1.269.111.099.141.417.248.512-.358-.222-.64-.324-.992-.544-.864-.534-1.673-1.111-2.646-1.57-.55-.26-1.121-.628-1.654-.86-.847-.374-1.592-.57-2.398-.955-.705-.345-1.063-.602-1.801-.992-.214-.118-.713-.488-.776-.523-.29-.152-.446-.36-.581-.405.31.459 1.004 1.308 1.34 1.718.506.612.896 1.213 1.393 1.813.52.627 1.15 1.247 1.666 1.906.057-.031.119.057.165.083zM58.711 17.598c-1.434.174-2.969.226-4.554.343-.756.055-1.56.094-2.314.149-.714.054-1.652 0-2.261.044-.295.018-1.143-.049-1.65-.049l-2.42-1.999c-.036-.094-.637-.562-.688-.641 1.162.256 2.457.43 3.383.321.673-.078 1.599-.35 2.257-.45 1.936-.296 3.868-.117 5.232.367 1.097.388 1.98 1.076 2.24 1.27.26.195.775.645.775.645"></path><path d="M59.158 17.54c1.113-.153 1.977-.42 2.913-.638l.282-.066s-.002-.522-.015-.65a4.7 4.7 0 0 0-.232-1.158 11.8 11.8 0 0 0-1.157-2.313c-1.54-2.35-4.325-4.057-6.878-5.376-.901-.467-1.64-.864-2.562-1.32.039.085.295.382.327.478.13.378.968 1.22 1.277 1.587.925 1.095 1.773 2.217 2.778 3.228 1.36 1.362 2.737 2.94 4.002 4.297.145.154.285.459.461.578.184.128-.246.242-.247.247-.559-.718-1.268-1.198-1.814-1.905-1.112-1.435-2.558-2.564-3.724-3.947-1.262-1.499-2.715-3.019-3.637-4.796-.027 0-.323-.417-.34-.432.268 1.2.49 3.28.859 4.633.357 1.31.903 2.302 1.552 3.347.245.395.685 1.38.71 1.385.474.13.896.264 1.378.368.603.127 1.01.278 1.636.577.581.283.842.516 1.056.672 1.096.795 1.375 1.203 1.375 1.203M11.14 65.612c-.04.258-.187.819-.187 1.172.274.065.553.105.924.164.324-1.443.645-3.32.992-4.96 2.118-10.037 4.552-19.502 6.647-29.513.18-.867.512-1.937.696-2.811.362-1.765.63-3.327 1.007-5.043.283-1.309.713-2.862.842-4.217-.5.213-.8.127-1.222 0-.21.819-.377 1.756-.579 2.644-1.34 5.888-2.525 11.9-3.93 17.827-.467 1.967-.864 4.021-1.342 5.985-.76 3.094-1.335 6.236-2.034 9.59-.344 1.633-.84 3.66-1.073 5.246-.13.603-.697 3.64-.741 3.916M27.525.741c-.962.086-2.03.258-2.796.518-3.324 1.108-5.34 2.668-7.278 5.21-.18.235-.384.553-.577.788-.29.34-.769.577-.993.99-.424.78-.629 2.043-.662 2.862.574-.546.97-1.03 1.488-1.637.255-.307.64-.698.91-.988.148-.162.173-.183.33-.337.71-.696 1.52-1.446 2.316-2.06 3.13-2.425 5.505-3.621 9.92-4.964l-.08-.15C29.286.904 28.426.658 27.525.74"></path><path d="M20.18 19.878c-.295-.257-.324-1.165-.205-1.478.097-.254.346-.66.642-.876.56-.408 1.736-.31 2.162.181.694-.662 1.923-1.624 2.776-2.437 0 0 .8-.464.8-.49-1.722 0-4.105-.138-6.008.081-2.356.268-5.891 1.512-7.44 2.644-.599.435-.89 1.374-1.323 1.985-.923 1.294-2.01 2.475-3.06 3.636-.453.5-.636.86-1.056 1.393-.19-.103-.53-.003-.679-.067.13-.64.425-.854.91-1.326.153-.152.254-.356.414-.494 1.624-1.476 2.87-3.199 4.05-5.127.684-1.125 1.47-2.235 1.9-3.636.573-1.864.693-3.991 1.324-5.87.12-.363.519-.746.677-1.074.278-.597.57-1.233.916-1.92-.049 0-.555.374-.6.346-.833.557-1.457.909-1.522.946-.881.484-1.567.725-2.365 1.287-.344.24-1.227 1.003-1.54 1.266-2.948 2.48-5.16 5.415-5.9 10.06-.101.63.044 1.48.082 1.985.148 1.992.354 3.57.827 5.124.32-.21.887-.648 1.36-1.078.682-.62 1-1.04 1.534-1.235.223-.086.294-.044.414-.084-.288.968-.139 2.396 0 3.39.024 0 .237-.214.246-.196 2.084-3.316 4.86-5.688 8.02-7.935 1.22-.867 2.346-1.574 3.803-2.252-.656.467-1.402 1.1-2.066 1.535-.403.263-.749.51-1.133.794-.207.146-.49.377-.687.532-.28.213-.481.305-.764.52-.159.116-.32.269-.475.39-2.085 1.608-3.832 3.3-5.373 5.457-.608.84-1.512 1.401-1.407 2.744.052-.045.539-.52.663-.663.213-.258.561-.55.824-.76.709-.573.433-.93.663-1.817.054.034.267 0 .329 0 .289.705.058.268.58.576.718-.452 1.478-.924 2.233-1.404.235-.153 1.357-.968 1.653-1.174.324-.234 1.2-.937 1.505-1.197.83-.721 1.08-.904 1.897-1.702.234-.258.457-.528.4-.58"></path><path d="M27.087 8.275c-.747.059-3.274.563-4.177 1.129-.544.34-1.034.894-1.571 1.24a40 40 0 0 1-3.968 2.232c-.892.435-1.362.909-2.812.909-.37 1.153-.983 1.867-1.338 2.975 1.772-.837 3.098-1.604 5.307-2.1.886-.202 1.852-.373 2.728-.438 1.28-.097 2.707.22 3.969-.024.372-.075.883-.452 1.239-.577 2.352-.856 4.245-2.148 5.62-3.968.216-.29.685-.6.902-.859-1.423-.216-4.781-.602-5.9-.519M37.459 9.27c.041.058.507.39.56.431.5.388 1.506.583 1.918.778.141.07.37.131.497.185.57.242.895.433 1.504.63.667.217 1.368.555 2.132.709.25.054 1.005.268 1.441.345.603.11.833.164 1.37.25.215.031.567.095.978.182.54.115.916.311 1.42.475.289.1.532.204.743.287.105.035.296 0 .414 0 0 0 .25.343-.33.33-.572-.017-1.592-.51-2.316-.664-1.894-.405-3.849-.644-5.704-1.403-1.022-.418-2.56-1.07-3.679-1.458.087.12.613.427.701.548.108.142.44.487.576.63 1.052 1.092 2.08 1.83 3.533 2.554.599.3 1.008.549 1.714.768.344.107.69.203 1.054.278.594.126 1.616.26 2.221.147 1.619-.29 3.03-.575 5.057-.575a2 2 0 0 1-.258-.531c-.128-.352-.39-.698-.547-.92-.244-.352-.46-.513-.782-.781-.498-.418-1.255-.825-1.814-1.3-.381-.322-.71-.372-1.12-.645-.615-.41-1.511-.89-2.455-1.117-1.04-.261-1.68-.263-2.455-.176-2.224.246-4.152.372-6.373.044M21.287 17.832c-1.168.23-1.422 2.568.632 2.24 1.308-.21 1.197-2.602-.632-2.24M4.466 19.873c-1.55 2.757-2.957 5.883-3.606 9.85-.128.774.07 1.926.175 2.908.098.956.292 2.312.609 3.201.325.92.393 1.19.526 1.38.343.489.581.661.734.793.74.64 1.36 1.333 2.206 2.018.976.79 2.329 1.07 3.414 1.704.692.403 1.446 1.046 2.067 1.57.135.112.949.849 1.036.888.387-.516.623-1.045.948-1.678 1.148-2.265 2.18-5.086 2.412-8.191.148-1.98-.624-3.94-.345-6.146.083-.67.32-1.239.412-2.07l-.165-.083c-1.077 1.073-1.43 2.11-2.148 3.556-.234.464-.69 1.035-.829 1.572-.197.765-.18 1.296-.329 2.066-.468 2.359-1.05 4.954-1.736 7.11-.15.462-.25.813-.414 1.238-.044.004-.314.113-.497.168 0 0-.103-.442-.08-.58.08-.619.513-1.55.743-2.232.56-1.686.848-3.386 1.24-5.371.37-1.883.937-4.276.661-6.12-.463.436-1.119.806-1.488 1.324-.137.184-.651.761-.743.909-.376.572-.312.867-.7 1.438-.156.229-.728.897-.789 1.208-.105.513.275 1.296.332 1.733.291 2.315.319 4.892.082 7.028a10 10 0 0 0-.579-.164c.141-2.016.282-4.038.066-5.928-.164-1.41-.789-3.156-1.029-4.207-.416-1.805-.867-3.089-1.095-3.887-.346-1.207-.69-3.792-.69-3.792s-.272-1.626-.394-2.03zM63.515 20.107c-.064 1.035-.29 2.763-.59 3.842-.048.171-.164.884-.216 1.082-.157.568-.227.812-.351 1.42-.098.473-.246 1.155-.344 1.639-.488 2.328-.79 4.426-.826 6.862-.03 1.985.088 4.03.52 5.966 1.66-.897 3.039-1.465 4.52-2.283.314-.174 1.133-.506 1.327-.79.26-.382.33-1.033.395-1.577.258-2.155.105-4.437-.313-6.357-.14-.65-.354-1.54-.505-2.168a18.5 18.5 0 0 0-1.062-3.102c-.503-1.135-1.55-3.214-2.155-4.333l.183 1.25c.307 1.533.666 3.374.876 4.961.405 3.084.58 6.814-.017 9.672-.161.76-.13.967-.462 1.158.196-.96.172-1.914.285-2.893.111-.979.156-2.203.096-3.04-.132-1.751-.24-3.223-.43-4.88-.204-1.785-.583-3.658-.758-5.309z"></path><path d="M8.356 24.535c-.167.156-.558.6-1.079 1.085-.54.499-1.207 1.03-1.207 1.03s.346 1.494.574 2.413c.23.918.524 1.751.863 2.642.007-.012.435-.474.435-.474.368-.562.71-.964.827-1.583.305-1.65-.129-3.782 0-5.408zM12.82 55.07s-.894.005-1.299-.009c-.683-.017-1.012-.341-2.841-.149.258.194.43.281.623.387.274.253.67.459.959.715.688.616.83 1.006 1.54 1.696.077.073.22.333.283.41.118-.484.256-.97.363-1.528.113-.603.219-.83.372-1.522M12.906 54.554c.463-2.076.805-4.055 1.247-5.875-.088-.04-.714-1.56-1.41-2.317-.558-.61-1.194-1.45-1.82-1.983-.926-.799-1.506-1.482-2.55-2.113-.36-.214-1.12-.502-1.5-.702-.67-.35-1.148-.562-1.772-.962-.224-.144-.98-.88-1.207-1.031-.564-.379-1.608-1.55-1.996-1.805-.058-.04-.468-.57-.529-.608.34.839.928 2.319 1.147 3.215.245.996.502 1.82.735 2.846.403 1.769 1.003 3.781 1.39 4.848.23.63.79 1.483 1.159 2.096 1.424 2.38 3.09 4.563 6.612 4.383zM66.403 39.173c-1.086.367-2.43 1.187-3.365 1.699-.77.42-1.46.832-2.1 1.353-.613.495-2.23 1.983-2.398 2.235-.094.129-.648.525-.648.525-.132 1.65-.51 3.067-.924 4.514-.288 1.01-.732 1.841-1.163 2.83a53 53 0 0 0 2.636-2.415c1.024-1.01 2.19-2.016 3.06-3.193 1.109-1.506 1.918-3.284 2.976-4.843.534-.787 1.934-2.248 2.565-2.941-.027-.022-.635.262-.639.236M19.656 48.731c-.39-.373-.683-1.619-1.212-1.709-.233-.04-.644.208-.827.248-.448.088-.86.02-1.06.331-.176.268-.136.643-.216.995-.238 1.046-.498 2.116-.741 3.303-.187.879-.464 1.92-.663 2.884.936.238 2.064.069 3.177.059 1.105-.009 2.174.214 3.057.179-1.315-2.658-.753-3.044-.373-5.32-.232-.198-.925-.759-1.142-.97M48.102 53.015c-.035.197.166 2.755.166 2.755.071-.052.115-.368.204-.4.117-.047.36-.549.446-.66.58-.768 1.3-1.563 1.785-2.397a57 57 0 0 0 2.364-4.552c.289-.637.526-1.16.793-1.816.035.008.217-.057.296-.082-.164.546-.277.916-.448 1.405-.348 1.009-.82 1.77-1.207 2.645a23 23 0 0 1-1.554 2.892c-.707 1.129-1.837 1.97-2.329 3.309.826-.126 1.516-.275 2.277-.387.679-.102 1.65-.032 2.195-.3.309-.156.771-1.053.99-1.38a19.1 19.1 0 0 0 3.228-10.37c.01-.928.039-1.823-.113-2.617a34 34 0 0 0-.286-1.292c-.256.76-.887 4.893-1.38 5.186-.484.278-1.498.167-2.115.246-.618.077-1.348.166-2.07.166-.575 1.237-1.505 2.047-2.065 3.39-.323.76-.56 1.523-.744 2.48-.09.575-.37 1.392-.433 1.779M38.58 60.572c4.283-2.56 6.927-3.39 11.029-4.045 1.483-.234 2.774-.255 4.298-.496 1.688-.27 4.034-.79 5.814-.877-.114.102-.728.693-.853.797-.96.762-1.947 1.35-2.794 2.222-1.3 1.33-1.754 1.913-2.828 2.62-1.194.781-2.428 1.344-3.885 1.883-1.372.506-2.883 1.011-4.382 1.376-.559.136-.909.253-1.488.36-.41.075-.96.198-1.49.137-.535-.067-1.477-.684-1.9-.996-.425-.308-1.636-1.285-1.817-1.736-.143-.338.005-.618-.114-.986z"></path><path d="M32.623 59.193c-.362.254-.485.465-.716.753-.4-.147-1.262-.055-1.78.028-1.87.568-1.903.762-3.415 1.676-.524.313-.999.68-1.521 1.051-.109.072-.414.399-.547.439-.834.231-2.208-.064-2.81-.167-3.442-.598-5.645-1.76-7.902-3.487.036-.027.04-.218.063-.317.147-.62.176-.82.234-1.075.21-.978.408-1.935.627-2.81 1.075.159 2.76.01 3.671.083 2.179.17 4.32.373 6.117.991.69.235 1.375.769 1.985 1.075.529.265.928.355 1.404.661.481.307 1.012.713 1.49 1.075.053.044.104.23.165.248.14.05.27-.05.415 0-.529-1.132-1.536-1.875-2.566-2.48-.177-.107-.574-.451-.66-.579-.269-.395-.52-.626-.83-.99-.217-.257-.44-.567-.644-.828-.989-1.282-2.378-2.302-3.14-3.803a15 15 0 0 1-.581-1.298c-.094-.244-.218-.502-.194-.517.383.542 1.158 1.177 1.668 1.604 1.566 1.312 3.65 1.901 5.292 3.159.984.756 1.647 1.463 2.438 2.425.067.084.673.774.735.85.31.38.58.886.795 1.3.038.075.023.276.083.328zM13.902 41.068c-.546 1.336-1.19 2.418-1.902 3.558.455.556.857 1.055 1.298 1.65.529.712.944 1.606.959 1.574.042-.102 1.109-4.682 1.102-4.716-.089-.527-1.055-1.75-1.457-2.066M47.024 49.613c-.327 1.068-.773 3.272-1.213 4.266-.035.082-.192.346-.233.429a66 66 0 0 1-1.007 1.804c-.235.4-.37.673-.565 1.157.075-.017.065.114.234.084.312-.059 2.862-.84 2.976-.993.795-1.092.093-4.555-.082-5.87-.054 0-.072-.845-.11-.877M46.377 50.734s-1.291 1.651-1.971 2c-.94.485-1.86.972-2.728 1.561-.323.218-.934.58-1.188.873-.904 1.052-1.84 2.325-1.526 4.253.014.09.114.166.148.25 1.18-.54 2.282-1.328 3.475-1.82.33-.139.447-.048.713-.248.28-.214.466-.736.624-1.076.096-.211.308-.45.432-.66.54-.94.982-2.035 1.372-3.06.155-.413.432-.932.496-1.323.015-.097.153-.75.153-.75M33.284 59.225c-.16.038-.526.34-.64.47-.174.192-.597.66-.714.946-.22.554-.558 1.167-.314 2.059.028.109.433 1.267 1.499 1.614.419.137.75.19 1.121.152.371-.035.697-.052 1.003-.264.306-.216.546-.46.717-.663.462-.804.53-1.497.926-2.463 0 0 .202.681.194.92.061.413-.28 1.164-.28 1.164s.59-.505.748-.76c.157-.25.216-.462.308-.664.15-.319-.043-.836-.043-.836s-.301-.614-.733-.927c-1.206-.887-2.811-.991-3.792-.749"></path><path d="M30.106 60.449c-.435.13-1.06.33-1.64.65-.78.42-1.624 1.079-2.331 1.583-1.042.738-1.893 1.181-2.88 2.198a16 16 0 0 1-1.549 1.404c-.925.708-2.046.966-2.778 1.489.068.025.498.217.76.28.501.128 1.176.51 1.76.403.785-.153 1.47-1.316 2.023-1.758.612-.494 1.13-.986 1.756-1.468.375-.293.612-.513.98-.8.181-.151.402-.382.59-.525.314-.239.752-.694 1.067-.94.462-.374 2.216-.938 3.223-.978.037-.134.152-.544.222-.8.067-.26.171-.46.372-.864-.137-.047-1.327.05-1.575.126M31.904 1.275s-1.586.185-1.64.206c-.46.173-.85.313-1.322.478-.367.123-.806.3-1.159.431-4.75 1.75-8.436 4.57-11.407 8.103-.401.472-1.17 1.132-1.407 1.716-.219.532-.194.91-.246 1.33.909-.172 2.252-.873 2.974-1.327.225-.14 1.095-.576 1.463-.75a13.3 13.3 0 0 0 1.807-1.033c1.531-1.07 1.701-1.567 3.013-2.596.913-.723 1.639-1.746 2.53-2.483a97 97 0 0 1 3.673-2.87c.188-.147 1.721-1.205 1.721-1.205"></path></g><path fill="#000" d="M35.683 61.791c-.002.884-.724 1.62-1.603 1.62-.888 0-1.607-.736-1.611-1.62a1.613 1.613 0 0 1 1.611-1.615c.884 0 1.603.73 1.603 1.615m-1.603 1.356c.73 0 1.326-.61 1.326-1.356 0-.733-.596-1.356-1.326-1.356-.733 0-1.338.623-1.338 1.356 0 .745.6 1.356 1.338 1.356m-.226-1.128v.723h-.36v-1.851h.655c.31 0 .564.117.564.576 0 .224-.127.398-.387.426.338.04.332.255.342.643 0 .076.015.163.027.206h-.35c-.015-.047-.033-.105-.033-.22v-.316c0-.128-.085-.187-.185-.187zm0-.872v.62h.273c.136 0 .18-.101.18-.296 0-.246-.08-.324-.184-.324zM31.174 9.238c.231-.053-.343.464-.412.494-.53.214-.972.3-1.572.432-.807.174-1.721.507-2.479.728-2.105.601-4.013 1.095-5.952 1.835-.972.367-1.893.84-2.894 1.224.05-.042.014-.28.081-.33.378-.295 1.377-.601 1.904-.795 1.413-.523 3.062-1.194 4.547-1.688.976-.328 1.79-.366 2.81-.661 1.008-.291 2.305-.53 3.39-.91.168-.06.343-.28.577-.329M9.926 13.29c.117-.25 2.854-4.288 4.381-5.707.207-.194.32-.523.578-.66.404-.217-.546.87-.578.91-1.211 1.34-2.258 2.773-3.31 4.298-.07.1-.73 1.067-.747 1.097-.15.258-.544 1.1-.537 1.118-.04.037-.865 1.257-.865 1.257-.055.012-.296.535-.514 1.075-.251.616-.595 1.093-.892 1.902-.296.805-.756 3.21-.905 5.125-.014 0-.245-.012-.248 0 0-.916.134-1.698.248-2.4.238-1.48.485-2.542.992-3.718.584-1.366 1.375-2.429 2.017-3.554.23-.395.27-.514.38-.743M4.19 34.748c-.144-.447-.33-1.762-.38-2.033-.245-1.235-.478-2.779-.414-4.219.008-.216-.033-.306 0-.495.068-.87.13-1.68.166-2.561h-.166c-.054 1.302-.4 3.025-.33 4.217.072 1.299.43 2.62.66 3.72.072.338.215 1.18.283 1.464.15.65.215 1.382.43 1.897.214.52.517 1.442.603 1.743s.11.576.173.599c.064.024.194-.124.235-.233.043-.107-.278-.838-.494-1.55-.216-.711-.692-2.325-.766-2.55M13.563 29.988c0 3.573-.721 6.387-1.406 9.422a18 18 0 0 1-.744 2.4c-.066-.003-.32.39-.248-.081.034-.225.16-.561.248-.91.434-1.766 1.08-3.688 1.406-5.54.242-1.395.234-3.891.743-5.29M60.11 32.714c.126-.042.098.39.083.495-.46 3.223-.218 6.094-.414 8.597l-.248-.08c0-2.885-.13-5.616.414-8.435.053-.286-.09-.499.166-.577M8.738 49.363c.843 1.074 2.178 2.086 3.34 2.7.123.067.244.214.411.251.487.097-.495-.58-.495-.58-.442-.269-.788-.451-1.157-.744-.41-.328-1.577-1.502-1.785-1.828-.344-.544-1.41-1.723-1.898-2.47-.489-.746-2.32-3.662-2.105-3.31.124.203-1.189-1.765-1.405-1.9-.08-.051-.158.081 0 .081.467.9.897 1.401 1.322 2.235.241.398.839 1.38 1.267 2.071.432.688.562 1.185.995 1.669.23.26 1.222 1.597 1.51 1.825M56.799 56.115c.927-.161-.745.58-.745.58-1.017.797-2.051 1.286-3.128 1.919-.401.231-.834.517-1.254.71a45 45 0 0 1-10.25 3.321l.083-.247c.83-.168 1.274-.342 2.723-.742 1.15-.318 1.82-.47 1.906-.497 1.514-.48 1.746-.61 3.303-1.21.635-.249 1.872-.76 2.318-1.022 1.11-.66 2.112-1.18 3.224-1.82.507-.298 1.187-.884 1.82-.992M15.962 58.751c1.089.374 2.618.824 3.868 1.062 2.672.505 5.621.509 8.45.509v.165c-3.996.313-8.227-.127-11.243-1.156-.383-.13-.726-.277-1.157-.41.026-.1-.067-.218.082-.17"></path><path fill="#fff" d="M62.295 17.404c-3.445.95-11.098 1.552-17.927.961-7.307-.634-14.87-.278-20.42 1.713-.465.164-.965.244-1.453.385-.05 1.65.033 2.965-.078 4.118-.114 1.206-.048 2.183-.45 5.34a45 45 0 0 1-1.323 6.602 42 42 0 0 0-.443 1.655c-.177.729-.89 3.342-1.581 5.234-.69 1.895-1.31 3.395-1.31 3.395s5.217-1.376 8.483-1.929a50 50 0 0 1 9.041-.691c1.756.027 3.829.276 5.57.52 4.65.658 9.236.216 11.3.1 2.07-.115 2.93-.285 3.218-.285.285 0 .335-.231.45-.46.049-.101.408-1.944.924-4.251.68-3.04 1.602-6.89 2.097-8.625 1.159-4.047 1.658-5.585 2.58-8.44.964-2.994.771-2.251 1.027-3.49.221-1.075.295-1.852.295-1.852"></path><path fill="#026536" d="M22.464 23.253s4.636-1.23 11.104-2.024c4.278-.527 8.847.153 11.08.309 2.236.157 5.743.346 7.005.29 1.263-.06 3.028-.081 3.889-.138.864-.057 2.382-.296 3-.437.64-.144 1.802-.454 2.147-.509.343-.06.91.1.91.1l-1.41 4.407s-.289-.15-.673.021c-.615.272-1.82.662-3.613.719-5.747.194-9.36.11-13.158-.334-2.792-.333-5.674-.435-9.347-.033-3.676.4-5.497.886-7.695 1.34-2.324.478-3.537 1.024-3.537 1.024zM21.702 31.558s6.33-1.962 10.376-2.392c4.048-.43 9.3.21 13.78.38 4.477.176 6.113.176 8.609-.085a41 41 0 0 0 4.663-.775l-1.303 4.65s-.775.065-1.98.26c-1.3.209-4.393.86-9.989.43-5.6-.43-9.732-.777-13.953-.345-5.26.536-7.06 1.38-8.782 1.893-1.722.52-2.48.923-2.48.923zM19.83 39.494l-1.648 5.008s.552-.222 1.378-.519c.825-.294 6.567-1.982 12.172-2.517 3.788-.36 7.29.043 11.766.559 4.48.515 6.202.294 8.613.18 2.412-.115 3.764-.458 3.764-.458l1.056-4.653s-2.811.118-7.059.747c-.868.132-5.667-.301-8.381-.58-2.714-.282-6.603-.66-10.049-.257-3.572.415-4.877.732-6.658 1.132-1.78.403-4.954 1.358-4.954 1.358"></path><path fill="#000" d="m27.169 20.595 1.418-.119.602-.052-.07.593-.288 2.478-.532-.543 1.898-.16-.44.425.29-2.476.045-.394.395-.03 1.417-.122.604-.048-.072.595-.75 6.45-.045.388-.395.035-1.416.12-.604.049.069-.593.323-2.784.534.544-1.902.16.442-.423-.323 2.784-.044.389-.397.035-1.418.117-.602.05.069-.592.75-6.454.046-.39z"></path><path fill="#ffe501" d="m27.215 21.08 1.417-.12-.289 2.477 1.9-.159.289-2.476 1.416-.118-.75 6.453-1.417.116.323-2.78-1.902.156-.322 2.786-1.415.117z" data-source="https://football-logos.cc"></path><path fill="#000" d="M38.338 27.701h2.018l-.088.59-.947 6.393-.058.387H36.85l.087-.588.948-6.395.058-.387z"></path><path fill="#ffe501" d="M38.367 28.191h1.415l-.947 6.394H37.42z"></path><path fill="#000" d="M47.458 36.123h5.156l-.109.596-.224 1.178-.073.387h-3.526l.465-.39-.271 1.626-.496-.59h2.31l-.107.591-.199 1.09-.07.389H48.22l.465-.389-.475 2.496-.072.389h-2.403l.106-.588 1.15-6.397.07-.388z"></path><path fill="#ffe501" d="M47.471 36.613h4.55l-.222 1.184h-3.135l-.271 1.62H50.1l-.2 1.097h-1.698l-.476 2.494H46.32z"></path><path fill="#000" d="M15.371 51.68s.115.661.144 1.438c.033.91-.202 1.806-.202 1.806l.402.09s.2-1.164.2-2.154c0-.992-.315-2.268-.315-2.268z" data-source="https://football-logos.cc"></path><!-- source: https://football-logos.cc --></svg>