<svg xmlns="http://www.w3.org/2000/svg" viewBox="0 0 73.62 95.25"><metadata xmlns:fl="https://football-logos.cc/sweden/brommapojkarna">dl1_3ca6f79cf268e77d2d6b04e1c8914bfcbc3764372f018c512a82ae5df7043dbe</metadata><!-- Source: https://football-logos.cc --><defs data-source="https://football-logos.cc"><linearGradient id="a" x1="15.82" x2="579.451" y1="420.945" y2="420.945" gradientTransform="matrix(.06971 0 0 -.06971 276.473 634.71)" gradientUnits="userSpaceOnUse"><stop offset="0" style="stop-color:#986325;stop-opacity:1"></stop><stop offset=".004" style="stop-color:#9b6625;stop-opacity:1"></stop><stop offset=".008" style="stop-color:#9c6826;stop-opacity:1"></stop><stop offset=".012" style="stop-color:#9e6b26;stop-opacity:1"></stop><stop offset=".016" style="stop-color:#a16e27;stop-opacity:1"></stop><stop offset=".02" style="stop-color:#a37127;stop-opacity:1"></stop><stop offset=".023" style="stop-color:#a47327;stop-opacity:1"></stop><stop offset=".027" style="stop-color:#a67627;stop-opacity:1"></stop><stop offset=".031" style="stop-color:#a97828;stop-opacity:1"></stop><stop offset=".035" style="stop-color:#aa7b28;stop-opacity:1"></stop><stop offset=".039" style="stop-color:#ad7d28;stop-opacity:1"></stop><stop offset=".043" style="stop-color:#ae7f2b;stop-opacity:1"></stop><stop offset=".047" style="stop-color:#b0822e;stop-opacity:1"></stop><stop offset=".051" style="stop-color:#b28432;stop-opacity:1"></stop><stop offset=".055" style="stop-color:#b48836;stop-opacity:1"></stop><stop offset=".059" style="stop-color:#b68a39;stop-opacity:1"></stop><stop offset=".063" style="stop-color:#b88d3d;stop-opacity:1"></stop><stop offset=".066" style="stop-color:#bb9042;stop-opacity:1"></stop><stop offset=".07" style="stop-color:#bc9247;stop-opacity:1"></stop><stop offset=".074" style="stop-color:#bd944a;stop-opacity:1"></stop><stop offset=".078" style="stop-color:#bf974f;stop-opacity:1"></stop><stop offset=".082" style="stop-color:#c29a53;stop-opacity:1"></stop><stop offset=".086" style="stop-color:#c49d57;stop-opacity:1"></stop><stop offset=".09" style="stop-color:#c6a05c;stop-opacity:1"></stop><stop offset=".094" style="stop-color:#c8a360;stop-opacity:1"></stop><stop offset=".098" style="stop-color:#caa664;stop-opacity:1"></stop><stop offset=".102" style="stop-color:#cca968;stop-opacity:1"></stop><stop offset=".105" style="stop-color:#ceab6c;stop-opacity:1"></stop><stop offset=".109" style="stop-color:#d0ae6f;stop-opacity:1"></stop><stop offset=".113" style="stop-color:#d1b072;stop-opacity:1"></stop><stop offset=".117" style="stop-color:#d3b276;stop-opacity:1"></stop><stop offset=".121" style="stop-color:#d4b57a;stop-opacity:1"></stop><stop offset=".125" style="stop-color:#d6b87f;stop-opacity:1"></stop><stop offset=".129" style="stop-color:#d9bb83;stop-opacity:1"></stop><stop offset=".133" style="stop-color:#dbbd86;stop-opacity:1"></stop><stop offset=".137" style="stop-color:#ddc08b;stop-opacity:1"></stop><stop offset=".141" style="stop-color:#dfc48f;stop-opacity:1"></stop><stop offset=".145" style="stop-color:#e1c693;stop-opacity:1"></stop><stop offset=".148" style="stop-color:#e3c997;stop-opacity:1"></stop><stop offset=".152" style="stop-color:#e5cb9c;stop-opacity:1"></stop><stop offset=".156" style="stop-color:#e7cf9f;stop-opacity:1"></stop><stop offset=".16" style="stop-color:#e6cc9b;stop-opacity:1"></stop><stop offset=".164" style="stop-color:#e5ca97;stop-opacity:1"></stop><stop offset=".168" style="stop-color:#e4c891;stop-opacity:1"></stop><stop offset=".172" style="stop-color:#e1c48b;stop-opacity:1"></stop><stop offset=".176" style="stop-color:#e0c185;stop-opacity:1"></stop><stop offset=".18" style="stop-color:#debe7f;stop-opacity:1"></stop><stop offset=".184" style="stop-color:#ddba7a;stop-opacity:1"></stop><stop offset=".188" style="stop-color:#dcb774;stop-opacity:1"></stop><stop offset=".191" style="stop-color:#d9b46e;stop-opacity:1"></stop><stop offset=".195" style="stop-color:#d8b168;stop-opacity:1"></stop><stop offset=".199" style="stop-color:#d8ae62;stop-opacity:1"></stop><stop offset=".203" style="stop-color:#d7ab5e;stop-opacity:1"></stop><stop offset=".207" style="stop-color:#d5a858;stop-opacity:1"></stop><stop offset=".211" style="stop-color:#d3a552;stop-opacity:1"></stop><stop offset=".215" style="stop-color:#d2a24d;stop-opacity:1"></stop><stop offset=".219" style="stop-color:#d19f46;stop-opacity:1"></stop><stop offset=".223" style="stop-color:#cf9b41;stop-opacity:1"></stop><stop offset=".227" style="stop-color:#ce993c;stop-opacity:1"></stop><stop offset=".23" style="stop-color:#cc9636;stop-opacity:1"></stop><stop offset=".234" style="stop-color:#ca9230;stop-opacity:1"></stop><stop offset=".238" style="stop-color:#c8902b;stop-opacity:1"></stop><stop offset=".242" style="stop-color:#c68c26;stop-opacity:1"></stop><stop offset=".246" style="stop-color:#c58926;stop-opacity:1"></stop><stop offset=".25" style="stop-color:#c48626;stop-opacity:1"></stop><stop offset=".254" style="stop-color:#c38427;stop-opacity:1"></stop><stop offset=".258" style="stop-color:#c28127;stop-opacity:1"></stop><stop offset=".262" style="stop-color:#bf7f27;stop-opacity:1"></stop><stop offset=".266" style="stop-color:#bd7c27;stop-opacity:1"></stop><stop offset=".27" style="stop-color:#be7d27;stop-opacity:1"></stop><stop offset=".273" style="stop-color:#be7d27;stop-opacity:1"></stop><stop offset=".277" style="stop-color:#c07f27;stop-opacity:1"></stop><stop offset=".281" style="stop-color:#c08027;stop-opacity:1"></stop><stop offset=".285" style="stop-color:#c28127;stop-opacity:1"></stop><stop offset=".289" style="stop-color:#c38327;stop-opacity:1"></stop><stop offset=".293" style="stop-color:#c48527;stop-opacity:1"></stop><stop offset=".297" style="stop-color:#c48526;stop-opacity:1"></stop><stop offset=".301" style="stop-color:#c58726;stop-opacity:1"></stop><stop offset=".305" style="stop-color:#c68826;stop-opacity:1"></stop><stop offset=".309" style="stop-color:#c78a26;stop-opacity:1"></stop><stop offset=".313" style="stop-color:#c88b26;stop-opacity:1"></stop><stop offset=".316" style="stop-color:#c98d26;stop-opacity:1"></stop><stop offset=".32" style="stop-color:#c98d25;stop-opacity:1"></stop><stop offset=".324" style="stop-color:#cb8f25;stop-opacity:1"></stop><stop offset=".328" style="stop-color:#cc9025;stop-opacity:1"></stop><stop offset=".332" style="stop-color:#cd9224;stop-opacity:1"></stop><stop offset=".336" style="stop-color:#ce9325;stop-opacity:1"></stop><stop offset=".34" style="stop-color:#ce9426;stop-opacity:1"></stop><stop offset=".344" style="stop-color:#ce9627;stop-opacity:1"></stop><stop offset=".348" style="stop-color:#d0972a;stop-opacity:1"></stop><stop offset=".352" style="stop-color:#d0992b;stop-opacity:1"></stop><stop offset=".355" style="stop-color:#d29b2d;stop-opacity:1"></stop><stop offset=".359" style="stop-color:#d29c30;stop-opacity:1"></stop><stop offset=".363" style="stop-color:#d49e33;stop-opacity:1"></stop><stop offset=".367" style="stop-color:#d5a035;stop-opacity:1"></stop><stop offset=".371" style="stop-color:#d6a237;stop-opacity:1"></stop><stop offset=".375" style="stop-color:#d7a33a;stop-opacity:1"></stop><stop offset=".379" style="stop-color:#d9a53d;stop-opacity:1"></stop><stop offset=".383" style="stop-color:#daa640;stop-opacity:1"></stop><stop offset=".387" style="stop-color:#dba841;stop-opacity:1"></stop><stop offset=".391" style="stop-color:#dcaa42;stop-opacity:1"></stop><stop offset=".395" style="stop-color:#dcaa44;stop-opacity:1"></stop><stop offset=".398" style="stop-color:#dcab46;stop-opacity:1"></stop><stop offset=".402" style="stop-color:#ddad49;stop-opacity:1"></stop><stop offset=".406" style="stop-color:#ddae4b;stop-opacity:1"></stop><stop offset=".41" style="stop-color:#deb04e;stop-opacity:1"></stop><stop offset=".414" style="stop-color:#e0b251;stop-opacity:1"></stop><stop offset=".418" style="stop-color:#e1b454;stop-opacity:1"></stop><stop offset=".422" style="stop-color:#e2b656;stop-opacity:1"></stop><stop offset=".426" style="stop-color:#e3b859;stop-opacity:1"></stop><stop offset=".43" style="stop-color:#e3b95c;stop-opacity:1"></stop><stop offset=".434" style="stop-color:#e5bb60;stop-opacity:1"></stop><stop offset=".438" style="stop-color:#e6bc62;stop-opacity:1"></stop><stop offset=".441" style="stop-color:#e7bf64;stop-opacity:1"></stop><stop offset=".445" style="stop-color:#e9c167;stop-opacity:1"></stop><stop offset=".449" style="stop-color:#eac369;stop-opacity:1"></stop><stop offset=".453" style="stop-color:#ebc56d;stop-opacity:1"></stop><stop offset=".457" style="stop-color:#ecc66f;stop-opacity:1"></stop><stop offset=".461" style="stop-color:#edc872;stop-opacity:1"></stop><stop offset=".465" style="stop-color:#eeca75;stop-opacity:1"></stop><stop offset=".469" style="stop-color:#f0cd77;stop-opacity:1"></stop><stop offset=".473" style="stop-color:#f0ce79;stop-opacity:1"></stop><stop offset=".477" style="stop-color:#f1cf7c;stop-opacity:1"></stop><stop offset=".48" style="stop-color:#f2d07d;stop-opacity:1"></stop><stop offset=".484" style="stop-color:#f2d280;stop-opacity:1"></stop><stop offset=".488" style="stop-color:#f3d483;stop-opacity:1"></stop><stop offset=".492" style="stop-color:#f4d686;stop-opacity:1"></stop><stop offset=".496" style="stop-color:#f6d888;stop-opacity:1"></stop><stop offset=".5" style="stop-color:#f7d98a;stop-opacity:1"></stop><stop offset=".504" style="stop-color:#f8db8d;stop-opacity:1"></stop><stop offset=".508" style="stop-color:#f9dd90;stop-opacity:1"></stop><stop offset=".512" style="stop-color:#fbdf93;stop-opacity:1"></stop><stop offset=".516" style="stop-color:#fce195;stop-opacity:1"></stop><stop offset=".52" style="stop-color:#fde398;stop-opacity:1"></stop><stop offset=".523" style="stop-color:#fee59b;stop-opacity:1"></stop><stop offset=".531" style="stop-color:#fee59b;stop-opacity:1"></stop><stop offset=".535" style="stop-color:#fde498;stop-opacity:1"></stop><stop offset=".539" style="stop-color:#fce195;stop-opacity:1"></stop><stop offset=".543" style="stop-color:#fbdf93;stop-opacity:1"></stop><stop offset=".547" style="stop-color:#f9de90;stop-opacity:1"></stop><stop offset=".551" style="stop-color:#f8db8d;stop-opacity:1"></stop><stop offset=".555" style="stop-color:#f7d98a;stop-opacity:1"></stop><stop offset=".559" style="stop-color:#f5d787;stop-opacity:1"></stop><stop offset=".563" style="stop-color:#f4d685;stop-opacity:1"></stop><stop offset=".566" style="stop-color:#f3d482;stop-opacity:1"></stop><stop offset=".57" style="stop-color:#f2d17e;stop-opacity:1"></stop><stop offset=".574" style="stop-color:#f2d07c;stop-opacity:1"></stop><stop offset=".578" style="stop-color:#f1ce7a;stop-opacity:1"></stop><stop offset=".582" style="stop-color:#f0cc78;stop-opacity:1"></stop><stop offset=".586" style="stop-color:#efca75;stop-opacity:1"></stop><stop offset=".59" style="stop-color:#edc973;stop-opacity:1"></stop><stop offset=".594" style="stop-color:#ecc770;stop-opacity:1"></stop><stop offset=".598" style="stop-color:#ebc56e;stop-opacity:1"></stop><stop offset=".602" style="stop-color:#e9c36b;stop-opacity:1"></stop><stop offset=".605" style="stop-color:#e8c068;stop-opacity:1"></stop><stop offset=".609" style="stop-color:#e8bf65;stop-opacity:1"></stop><stop offset=".613" style="stop-color:#e6bd62;stop-opacity:1"></stop><stop offset=".617" style="stop-color:#e4bb5f;stop-opacity:1"></stop><stop offset=".621" style="stop-color:#e3b95b;stop-opacity:1"></stop><stop offset=".625" style="stop-color:#e2b758;stop-opacity:1"></stop><stop offset=".629" style="stop-color:#e2b655;stop-opacity:1"></stop><stop offset=".633" style="stop-color:#e1b353;stop-opacity:1"></stop><stop offset=".637" style="stop-color:#e0b150;stop-opacity:1"></stop><stop offset=".641" style="stop-color:#deaf4c;stop-opacity:1"></stop><stop offset=".645" style="stop-color:#dcac49;stop-opacity:1"></stop><stop offset=".648" style="stop-color:#dbaa45;stop-opacity:1"></stop><stop offset=".652" style="stop-color:#daa740;stop-opacity:1"></stop><stop offset=".656" style="stop-color:#d8a43b;stop-opacity:1"></stop><stop offset=".66" style="stop-color:#d5a136;stop-opacity:1"></stop><stop offset=".664" style="stop-color:#d49e31;stop-opacity:1"></stop><stop offset=".668" style="stop-color:#d29b2c;stop-opacity:1"></stop><stop offset=".672" style="stop-color:#d09728;stop-opacity:1"></stop><stop offset=".676" style="stop-color:#cd9426;stop-opacity:1"></stop><stop offset=".68" style="stop-color:#cb9125;stop-opacity:1"></stop><stop offset=".684" style="stop-color:#ca8e25;stop-opacity:1"></stop><stop offset=".688" style="stop-color:#c88b26;stop-opacity:1"></stop><stop offset=".691" style="stop-color:#c68826;stop-opacity:1"></stop><stop offset=".695" style="stop-color:#c48526;stop-opacity:1"></stop><stop offset=".699" style="stop-color:#c28227;stop-opacity:1"></stop><stop offset=".703" style="stop-color:#c08027;stop-opacity:1"></stop><stop offset=".719" style="stop-color:#c08027;stop-opacity:1"></stop><stop offset=".723" style="stop-color:#c28227;stop-opacity:1"></stop><stop offset=".727" style="stop-color:#c38427;stop-opacity:1"></stop><stop offset=".73" style="stop-color:#c48527;stop-opacity:1"></stop><stop offset=".734" style="stop-color:#c48726;stop-opacity:1"></stop><stop offset=".738" style="stop-color:#c58926;stop-opacity:1"></stop><stop offset=".742" style="stop-color:#c58a26;stop-opacity:1"></stop><stop offset=".746" style="stop-color:#c68d27;stop-opacity:1"></stop><stop offset=".75" style="stop-color:#c88f29;stop-opacity:1"></stop><stop offset=".754" style="stop-color:#c9912d;stop-opacity:1"></stop><stop offset=".758" style="stop-color:#ca9331;stop-opacity:1"></stop><stop offset=".762" style="stop-color:#cc9636;stop-opacity:1"></stop><stop offset=".766" style="stop-color:#cc973a;stop-opacity:1"></stop><stop offset=".77" style="stop-color:#ce9a3d;stop-opacity:1"></stop><stop offset=".773" style="stop-color:#d09c42;stop-opacity:1"></stop><stop offset=".777" style="stop-color:#d09e46;stop-opacity:1"></stop><stop offset=".781" style="stop-color:#d1a049;stop-opacity:1"></stop><stop offset=".785" style="stop-color:#d3a34d;stop-opacity:1"></stop><stop offset=".789" style="stop-color:#d3a451;stop-opacity:1"></stop><stop offset=".793" style="stop-color:#d5a755;stop-opacity:1"></stop><stop offset=".797" style="stop-color:#d6a95a;stop-opacity:1"></stop><stop offset=".801" style="stop-color:#d7aa5d;stop-opacity:1"></stop><stop offset=".805" style="stop-color:#d7ac61;stop-opacity:1"></stop><stop offset=".809" style="stop-color:#d8af65;stop-opacity:1"></stop><stop offset=".813" style="stop-color:#d8b168;stop-opacity:1"></stop><stop offset=".816" style="stop-color:#d9b36c;stop-opacity:1"></stop><stop offset=".82" style="stop-color:#dbb671;stop-opacity:1"></stop><stop offset=".824" style="stop-color:#dcb875;stop-opacity:1"></stop><stop offset=".828" style="stop-color:#ddba79;stop-opacity:1"></stop><stop offset=".832" style="stop-color:#debd7d;stop-opacity:1"></stop><stop offset=".836" style="stop-color:#dfbf81;stop-opacity:1"></stop><stop offset=".84" style="stop-color:#e0c185;stop-opacity:1"></stop><stop offset=".844" style="stop-color:#e1c389;stop-opacity:1"></stop><stop offset=".848" style="stop-color:#e3c58d;stop-opacity:1"></stop><stop offset=".852" style="stop-color:#e4c891;stop-opacity:1"></stop><stop offset=".855" style="stop-color:#e5ca96;stop-opacity:1"></stop><stop offset=".859" style="stop-color:#e5cb99;stop-opacity:1"></stop><stop offset=".863" style="stop-color:#e6cd9d;stop-opacity:1"></stop><stop offset=".867" style="stop-color:#e7cf9f;stop-opacity:1"></stop><stop offset=".871" style="stop-color:#e4cb9b;stop-opacity:1"></stop><stop offset=".875" style="stop-color:#e2c896;stop-opacity:1"></stop><stop offset=".879" style="stop-color:#e0c591;stop-opacity:1"></stop><stop offset=".883" style="stop-color:#ddc18c;stop-opacity:1"></stop><stop offset=".887" style="stop-color:#dbbe87;stop-opacity:1"></stop><stop offset=".891" style="stop-color:#d8bb82;stop-opacity:1"></stop><stop offset=".895" style="stop-color:#d6b87d;stop-opacity:1"></stop><stop offset=".898" style="stop-color:#d4b478;stop-opacity:1"></stop><stop offset=".902" style="stop-color:#d2b174;stop-opacity:1"></stop><stop offset=".906" style="stop-color:#d0ae70;stop-opacity:1"></stop><stop offset=".91" style="stop-color:#ceab6c;stop-opacity:1"></stop><stop offset=".914" style="stop-color:#cba867;stop-opacity:1"></stop><stop offset=".918" style="stop-color:#c9a563;stop-opacity:1"></stop><stop offset=".922" style="stop-color:#c7a25e;stop-opacity:1"></stop><stop offset=".926" style="stop-color:#c49e58;stop-opacity:1"></stop><stop offset=".93" style="stop-color:#c29b53;stop-opacity:1"></stop><stop offset=".934" style="stop-color:#c0984f;stop-opacity:1"></stop><stop offset=".938" style="stop-color:#bd944a;stop-opacity:1"></stop><stop offset=".941" style="stop-color:#bc9244;stop-opacity:1"></stop><stop offset=".945" style="stop-color:#ba8f40;stop-opacity:1"></stop><stop offset=".949" style="stop-color:#b78b3b;stop-opacity:1"></stop><stop offset=".953" style="stop-color:#b48836;stop-opacity:1"></stop><stop offset=".957" style="stop-color:#b28432;stop-opacity:1"></stop><stop offset=".961" style="stop-color:#ae812e;stop-opacity:1"></stop><stop offset=".965" style="stop-color:#ad7e2b;stop-opacity:1"></stop><stop offset=".969" style="stop-color:#ac7c28;stop-opacity:1"></stop><stop offset=".973" style="stop-color:#a97828;stop-opacity:1"></stop><stop offset=".977" style="stop-color:#a77628;stop-opacity:1"></stop><stop offset=".98" style="stop-color:#a47327;stop-opacity:1"></stop><stop offset=".984" style="stop-color:#a27027;stop-opacity:1"></stop><stop offset=".988" style="stop-color:#a06d26;stop-opacity:1"></stop><stop offset=".992" style="stop-color:#9d6a26;stop-opacity:1"></stop><stop offset=".996" style="stop-color:#9b6725;stop-opacity:1"></stop><stop offset="1" style="stop-color:#986325;stop-opacity:1"></stop></linearGradient><clipPath id="b" clipPathUnits="userSpaceOnUse"><path d="M277.574 579.945v31.399c.086 3.234 1.172 6.27 3.239 9.023 1.644 2.196 3.914 4.219 6.738 6.012 4.8 3.047 9.62 4.39 9.668 4.402h.008c.047-.011 4.867-1.355 9.668-4.402 2.824-1.793 5.09-3.816 6.738-6.012 2.063-2.754 3.152-5.789 3.234-9.023v-31.399zm0 0" style="stroke-width:.999997"></path></clipPath></defs><path d="M277.574 630.781v-50.836h39.293v50.836zm0 0" clip-path="url(#b)" style="clip-rule:nonzero;fill:url(#a);fill-rule:nonzero;stroke:none" transform="matrix(1.87367 0 0 1.87367 -520.084 -1086.629)"></path><path d="M124.064 226.151v16.263c2.855-1.237 6.236-2.913 9.61-5.072a55 55 0 0 0 3.601-2.503v-16.556a28.3 28.3 0 0 1-13.21 7.868M129.656 170.534c.095.042.088-.351.293-.33 1.427.154 5.02 1.018 7.326 2.613v-17.55h-13.21v11.373c.285.042.578.11.87.198 3.206.922 4.487 3.593 4.721 3.696" style="fill:#de2323;fill-opacity:1;fill-rule:nonzero;stroke:none;stroke-width:1.87367" transform="translate(-80.004 -152.807)"></path><path d="M110.21 226.312v16.38c3.417 1.442 5.964 2.225 6.608 2.415.645-.19 3.192-.973 6.602-2.415v-16.38a28.4 28.4 0 0 1-6.602.783 28.5 28.5 0 0 1-6.609-.783M114.381 167.716c.227-.021.227.153.183.278-.358.908-1.464 3.572-2.832 4.706-.168.146-.044.264.051.279 1.676.307 3.528 1.383 4.897 2.349.08.053.124.058.16.005.484-.666 2.013-1.896 2.804-2.13.08-.026.08-.102-.015-.16-1.852-1.252-3.777-3.865-4.055-4.626-.066-.161.088-.25.227-.279 2.393-.695 4.838-1.859 7.62-1.588v-11.286h-13.212v12.025c1.39.256 2.81.564 4.172.425M137.912 155.266v18.042c1.383 1.17 1.72 2.81 2.042 4.479.102.132.22.102.344.053.117-.053.27-.227.666.016 4.252 2.576 6.448 6.953 4.992 11.688-.096.3.139.44.248.418.132-.021.264-.088.396-.117.153-.027.292-.005.395.205 1.654 4.874 2.84 11.835-3.47 17.91a28.3 28.3 0 0 1-5.613 9.631v16.761c3.03-2.371 5.57-4.926 7.582-7.626 3.587-4.83 5.482-10.152 5.629-15.802V155.27zM87.25 202.1c-1.991-3.278-.403-8.76-1.135-11.095-.11-.358.037-.351.351-.25.315.11.615.33.71.396.103.073.132.021.103-.095-.425-1.75-.608-4.45.337-6.236.841-1.88 2.627-3.403 3.432-5.284.205-.337.542.132.644-.271.63-2.064 2.196-4.018 4.033-5.453v-18.546h-13.21v55.64c.145 5.664 2.034 10.985 5.627 15.816 2.006 2.7 4.546 5.255 7.583 7.626v-16.76a28.2 28.2 0 0 1-6.002-10.877c-.373-1.244-1.668-3.279-2.473-4.61" style="fill:#000205;fill-opacity:1;fill-rule:nonzero;stroke:none;stroke-width:1.87367" transform="translate(-80.004 -152.807)" data-source="https://football-logos.cc"></path><path d="M96.362 218.283v16.556a60 60 0 0 0 3.593 2.503c3.382 2.159 6.763 3.835 9.618 5.072v-16.27a28.24 28.24 0 0 1-13.211-7.861M99.677 171.214c.505-.131.264 1.179.842.44 2.122-2.496 4.574-4.955 7.978-4.611.358.031.717.08 1.076.139v-11.916H96.362v18.071c.336-.227.673-.447 1.017-.637zm0 0" style="fill:#de2323;fill-opacity:1;fill-rule:nonzero;stroke:none;stroke-width:1.87367" transform="translate(-80.004 -152.807)"></path><path d="M106.491 178.929c-.3.944-.783 1.976-1.354 2.773-.578.791-1.88 2.094-2.064 2.196-.19.103-.373.053-.373-.19 0-.234.205-2.108.066-2.181-.227-.117-1.2.11-2.269.403-1.134.307-3.36 1.383-3.433 1.412-.08.027-.197.027-.168-.102.03-.132.864-1.332 1.515-1.991.651-.666 1.522-1.522 1.984-1.706.453-.182 2.173-.505 2.803-.585 1.5-.198 3.008-.176 3.162-.161.153.016.131.132.131.132m30.718 14.418c.871.966 2.518 2.115 3.104 4.128.622 2.137-.147 6.119-1.296 9.193-.102.27-.344.285-.505.08-1.566-1.96-4.201-8.087-1.669-13.305.08-.176.235-.198.366-.095m8.432-.242c1.698 5.453.754 12.296-5.87 14.587-.38.131-.351-.059-.234-.169 1.522-1.646 1.77-3.879 2.576-9.588.293-2.07 2.042-3.988 3.11-4.962.19-.168.337-.14.418.132m-4.501-12.75c6.462 5.592 3.066 11.615 1.068 14.484-.19.271-.315.088-.315.022-.3-2.708-1.215-6.72-1.595-8.198-.388-1.47-.842-2.093-.476-3.271.271-1.208.798-2.628.871-2.906s.293-.256.447-.132m-2.584 6.31c.527.585 1.888 7.077 2.262 8.621.036.337-.184.359-.3.205-.498-.673-2.92-3.791-3.587-4.099-.293-.139-.527.506-.864.337-1.193-.87-2.224-4.926-2.056-7.546 0-.168.205-.234.337-.168 1.2.344 3.264 1.588 4.208 2.65m-4.984-7.334c1.259 1.207 3.52 3.945 4.106 4.808.131.205-.096.176-.132.154-.169-.11-2.964-2.064-5.277-2.174a.86.86 0 0 1-.468-.11c-1.838-.959-4.077-2.298-4.736-3.894-.058-.153-.022-.256.117-.336.14-.081 1.603-.988 2.701-.966 1.244.02 2.547 1.441 3.689 2.517m3.637-4.142c1.925 1.844 2.094 5.086 1.669 7.985-.044.285-.293.27-.344.16-.746-1.536-4.099-5.496-5.775-6.484-.241-.14-.439-.395-.63-.783-.35-.717-1.075-2.708-1.214-3.47-.022-.124-.007-.197.132-.168 2.07.432 4.618 1.281 6.162 2.76m-7.538-1.735c.11.358.915 1.742 1.017 1.961.095.22-.044.308-.168.22-2.181-1.566-5.3-2.4-8.198-2.935-1.954-.41-3.696-2.27-4.164-3.03-.132-.213-.037-.25.08-.293 1.435-.556 3.009-1.493 6.207-.856 3.279.651 4.853 4.157 5.226 4.933m-2.496 2.305c.132.074.132.146 0 .242-.651.454-2.576 1.844-3.381 2.079-1.193.336-3.645-.125-5.475-2.079-.052-.058 0-.103 0-.103 1.208-.673 2.247-1.507 3.872-1.485 1.617.032 3.403.673 4.984 1.346m-12.062.271c.132.125.08.235-.022.388-.139.183-1.163 1.508-2.993 1.815-1.39.234-2.737.19-3.616-.08-.373-.198-.241-.806-.673-.798-1.471.016-3.3.058-4.882.087-.073-.026-.073-.131 0-.168 2.379-1.588 6.448-3.06 7.78-3.162 1.325-.11 4.275 1.793 4.406 1.918m-2.722-6.734c.029.037.168.066.131.169-.439.907-1.207 1.58-1.954 2.32-1.749 1.617-4.076 1.99-6.06 3.132-1.552.776-2.964 2.02-4.413 3.038-.103 0-.132-.074-.132-.14.703-2.063 1.376-4.354 2.452-5.73 1.251-1.61 3.645-3.052 6.001-3.126 2.108-.073 2.694.198 3.975.337m-13.138 4.59c-.007.212-.351 4.178-.937 5.225-.585 1.054-1.852 2.657-2.327 3.367-.483.717-1.874 2.993-1.932 3.052-.066.053-.161-.005-.169-.066-.066-.344-.139-1.427-.322-2.152-.175-.71-.49-1.186-.87-1.72-.038-.058-.089-.22-.074-.286.168-1.149.776-2.444 1.859-3.996 1.288-1.851 4.23-3.49 4.391-3.579.337-.205.388-.053.38.154m2.058 9.353c0 .169-.279 1.78-.447 2.423-.439 1.786-.9 3.103-1.61 4.787-.066.032-.132.066-.205.032-.234-.535-.33-1.61-.637-1.61-.38-.005-1.486 1.075-2.29 1.741-.798.666-1.582 1.56-2.797 2.738-.102.026-.168-.103-.168-.205.066-2.694.952-5.636 2.547-7.268s3.389-2.29 5.3-2.803c.138-.037.307 0 .307.168m-9.669-.842c.3.542.688 1.025.893 2.84.256 2.233-.322 3.572-.622 5.109-.278 1.413-.52 4.003-.549 4.23s-.22.22-.293.147c-.08-.066-1.544-1.515-2.02-1.984-.212-.57-.541-2.766-.71-4.215-.234-2.591 1.479-4.406 3.199-6.126zm-3.47 11.682c.71.344 2.804 1.83 3.25 3.396.491 1.712 1.245 7.128 1.245 7.311 0 .184-.234.308-1.04 0-1.697-.636-3.352-3.579-3.535-4.581-.278-1.471.257-4.04-.124-5.929-.03-.124.08-.263.205-.197m9.749-1.698c.05.578.373 3.337.03 6.294-.345 2.957-2.738 5.592-3.082 5.797-.249.153-.469-.005-.498-.213-.036-.205-1.112-4.991-1.032-6.653s.996-3.352 2.24-4.67c.541-.607 1.427-1.478 1.822-1.617.395-.132.469.476.52 1.061m39.962 17.01c-.146-.059-1.266-1.64-1.72-2.408-.146-.242-.205-.454-.44-.037-.065.124-.212.453-.277.578-3.301 6.924-10.467 11.893-18.627 11.893-9.04 0-16.732-5.87-19.462-14.001-.168-.498-.168-.827-.666-.366-.541.513-2.056 1.72-2.152 1.75-.087.037-2.43-.213-2.671-.293-.505-.184-.615-.235-.454.285 3.374 10.825 13.49 18.7 25.405 18.7 11.03 0 20.515-6.755 24.54-16.343.33-.776-.234-.454-.512-.366-.527.168-2.818.658-2.964.607m-2.92 1.164.505-.805 4.179.93-.483.775-.842-.22-.79 1.26.614.71-.527.717zm2.1 1.376.542-.871-1.61-.41zm-4.904 2.159.571-.666 3.177.63-2.13-1.838.512-.593 3.052 2.643-.541.63-3.301-.586 2.18 1.924-.504.586zm-.636.703a.93.93 0 0 1 .468-.022 1.3 1.3 0 0 1 .373.125q.175.098.33.285.188.22.256.527a.79.79 0 0 1-.117.6.8.8 0 0 1 .512-.005c.146.058.307.198.49.41l.176.212c.117.14.198.22.256.271.059.053.264.198.264.198l-.637.527a.7.7 0 0 1-.183-.11 2 2 0 0 1-.25-.242l-.248-.285c-.16-.198-.307-.3-.432-.308-.117-.005-.27.059-.453.213l-.637.534 1.017 1.208-.63.526-2.59-3.095 1.478-1.237c.212-.176.403-.286.556-.33m-.958 1.574.702.842.696-.593a1 1 0 0 0 .27-.308q.11-.24-.11-.505-.231-.283-.497-.227-.144.025-.344.19zm-2.98 1.09.813-.497 3.316 2.715-.732.505-.703-.607-1.273.776.22.914-.784.396zm1.252 2.174.886-.534-1.259-1.098zm-5.43-.336.79-.264.615 1.537.812-2.115 1.01-.454-.9 2.21 2.379 1.574-.952.425-1.742-1.208-.27.52.483 1.302-.776.315zm-3.148 4.567c-.278.336-.702.526-1.273.578-.571.053-1.025-.066-1.354-.359q-.66-.518-.747-1.595c-.065-.74.088-1.303.469-1.713q.405-.503 1.273-.578c.571-.043 1.018.073 1.354.358q.648.505.747 1.603c.058.718-.095 1.288-.469 1.706m-.57-.571c.168-.264.241-.615.204-1.062q-.064-.678-.38-1.017a.97.97 0 0 0-.827-.3.96.96 0 0 0-.761.44c-.176.255-.242.614-.205 1.06.036.447.168.791.38 1.01a.98.98 0 0 0 .827.3c.337-.031.586-.175.761-.431m-3.608-.527c-.249.176-.585.25-1.017.212l-.827-.065-.117 1.493-.835-.066.322-4.077 1.713.14c.395.036.703.16.922.387.212.227.308.563.271.995q-.057.716-.432.981m-.527-1.508q-.14-.144-.424-.168l-.74-.058-.102 1.185.746.059c.184.016.337-.022.447-.11q.165-.13.198-.447.02-.307-.125-.461m-4.128-1.456.93.212.475 4.26-.878-.14-.08-.936-1.45-.337-.46.812-.857-.27zm-.622 2.43 1.003.234-.132-1.662zm-1.727-3.199 1.12.424-1.581 3.784-.718-.263 1.032-2.576c.037-.074.081-.176.14-.3.058-.132.102-.227.139-.3l-2.101 2.847-.747-.337.71-3.47-.131.3a5 5 0 0 1-.132.3l-1.31 2.482-.696-.359 1.874-3.666 1.076.534-.644 3.198zm-3.791-1.947.98.644-2.283 3.433-.63-.454 1.508-2.313q.077-.098.198-.263l.197-.263-2.65 2.327-.665-.483 1.42-3.22c-.044.058-.11.153-.19.263-.081.118-.147.213-.19.271l-1.72 2.16-.63-.454 2.532-3.287.937.784-1.266 3zm-5.35.556c-.44.005-.857-.19-1.267-.592-.41-.403-.615-.827-.607-1.26q-.035-.842.732-1.61.78-.788 1.602-.753c.432-.005.857.19 1.267.592.41.403.607.828.607 1.26.03.548-.22 1.09-.74 1.61-.504.512-1.038.76-1.595.753m.059-.805c.315-.037.63-.22.944-.534q.472-.482.527-.951a.99.99 0 0 0-.307-.82.96.96 0 0 0-.828-.293c-.307.032-.622.205-.944.527-.314.322-.49.637-.52.952a.98.98 0 0 0 .308.82c.234.233.512.336.82.3m-.33-4.678a.9.9 0 0 1-.014.469c-.03.132-.08.249-.154.366-.073.11-.176.212-.3.307-.161.11-.344.184-.549.213a.77.77 0 0 1-.593-.161c.044.197.037.366-.03.512-.065.14-.219.293-.446.461l-.22.154q-.228.165-.292.242c-.073.073-.234.241-.234.241l-.483-.68c.058-.066.102-.125.146-.169.08-.08.168-.153.264-.227l.3-.219c.205-.153.314-.293.336-.41q.033-.184-.175-.468l-.483-.681-1.288.922-.476-.659 3.279-2.356 1.127 1.566q.231.339.285.578m-1.5-1.076-.886.637.535.74q.153.228.285.292c.154.087.33.066.512-.066q.308-.22.264-.483c-.007-.095-.066-.212-.168-.358zm-.52-1.354c-.102.183-.263.33-.475.44-.22.102-.425.139-.608.095a.9.9 0 0 1-.344-.169.88.88 0 0 1-.117.571q-.143.25-.461.403a1.2 1.2 0 0 1-.652.124 1 1 0 0 1-.417-.117 1.03 1.03 0 0 1-.38-.315 3 3 0 0 1-.308-.49l-.805-1.625 3.616-1.794.87 1.742c.213.447.235.82.081 1.135m-2.62-1.157-.966.476.44.893q.118.23.248.337.24.177.57.016c.191-.095.279-.234.272-.425a.9.9 0 0 0-.117-.395zm1.398-.695-.798.395.44.879q.111.238.278.336c.11.074.234.066.387-.005.169-.08.25-.205.242-.358a1.7 1.7 0 0 0-.154-.454zm25.485 14.5.022.087c.08.307.16.512.249.622.087.102.22.139.402.095q.266-.066.3-.286c.022-.095 0-.227-.044-.424l-.82-2.708.813-.198.82 2.7c.08.338.087.608.029.835q-.166.56-.915.747c-.49.117-.857.066-1.09-.161q-.354-.34-.52-1.032l-.022-.088zm0 0" style="fill:#0a5428;fill-opacity:1;fill-rule:nonzero;stroke:none;stroke-width:1.87367" transform="translate(-80.004 -152.807)"></path><path d="M120.851 206.931c-.534.959-1.998.952-2.964.476-.08-.042-.132-.102-.022-.22.125-.124 1.04-.958 1.105-1.024.066-.058.125-.066.198-.042.359.124 1.435.512 1.64.585.08.032.102.147.044.227m1.42-.285c-.96 0-2.299-.557-2.65-.718-.102-.053-.205-.116-.088-.241.125-.132.608-.564.717-.893.14-.271.03-.564-.329-.864-.351-.292-1.273-.41-1.888-.102-.19.095-.286.087-.388-.043-.242-.388-.637-.849-1.31-1.105-.966-.366-1.874-.016-2.686.432-.22.124-.337.168-.469 0-.307-.607-.944-1.076-1.515-1.317-1.383-.535-2.51.41-3.608 1.017-.483.263-1.237.805-1.647.637a304 304 0 0 1-3.169-1.413c-1.347-.644-2.657-1.317-4.004-1.917-.19.402-.87 1.859-1.031 2.21 1.617 8.797 9.346 15.487 18.612 15.487 8.805 0 16.226-6.046 18.327-14.199 0 0-.615-3-.747-3.264 0 0-2.415.863-2.613.944-.336.117-.63.197-.878-.08-2.518-2.306-5.84-5.446-7.56-6.727a3 3 0 0 0-.55-.322c-2.503-1.04-6.88-2.203-7.128-2.269-.278-.088-.527-.073-.688.066-.674.578-2.262 2.335-3.623 2.862-1.15.447-1.698-.263-1.479-.812.454-1.12 2.826-4.853 3.03-5.182.11-.169.381-.205.527-.227.154-.016 4.919-.403 5.094-.417.183-.005.44.073.542.102.915.308 7.15 3.22 10.913 4.414 1.112.234 1.954-.469 2.832-.974.469-.336.96-.636 1.376-1.083-1.5-2.371-2.188-6.448-2.21-7.194-2.203-.842-5.555-2.957-6.66-4.524-3.418 1.464-7.041-.102-8.783-1.8-1.376 1.427-4.319 2.898-8.446 2.81-1.31 2.086-3.133 4.245-5.219 5.724-.373 1.588-.798 3.484-1.537 4.933-.139.278-.175.483.044.637.205.153 1.222.9 2.232.797 1.515-.336 2.965-.878 4.414-1.412 1.112-.337 2.737-.886 3.491-.834.198.015.227.131.154.27 0 0-1.376 2.291-2.064 3.587-.637 1.2.454 2.159 1.947 1.515 1.5-.637 3.352-2.591 3.535-2.752.19-.169.388-.154.556-.11.154.037 5.116 1.434 6.99 2.18.183.074.563.345.629.389 2.489 1.946 7.422 6.594 7.648 6.894.235.3.103.703-.036.959-.14.256-1.15 1.31-1.53 1.427-.424.14-.71.08-1.149-.124-2.123-1.31-5.782-4.553-5.994-4.714-.213-.168-.44.059-.213.264.22.197 4.494 3.725 4.648 3.842.212.146.16.44.051.615-.11.183-.541.695-1.031.85-.323.094-.813.138-1.318-.088-.512-.22-3.513-2.028-3.77-2.138-.233-.11-.314.14-.116.256.197.125 3.176 1.83 2.964 1.72h-.007c.117.066.549.337.468.615-.11.366-.863 1.274-1.61 1.405m-2.847-1.332c-.227.213-3.191 2.92-4.238 3.316-.856.33-1.94-.073-2.357-.534-.19-.213-.153-.476-.036-.579.74-.651 5.013-3.227 5.504-3.462.578-.278 1.486.054 1.573.432.088.381-.22.622-.446.827m-2.174-1.412c.146.366-.468.585-.87.849l-4.21 2.635c-.54.41-.878.453-1.456.315-.578-.132-1.185-.674-1.259-.981-.073-.308-.015-.571.359-.82 1.42-.937 4.611-2.964 5.328-3.037.9-.081 1.86.446 2.108 1.039m-4.362-.57c.037.116-.08.182-.212.277-.14.095-3.308 2.013-3.755 2.284-.446.27-.74.27-1.068.132-.33-.14-.806-.732-1.113-1.069-.3-.337-.198-.703.242-1.025.497-.358 2.978-1.976 3.769-1.976.768.005 1.903.6 2.137 1.376m-6.953.285v.103c-.908.27-1.852.908-2.825.366-.3-.234-.776-.534-.878-.944a.6.6 0 0 1 .204-.535c.169-.131.337-.234.535-.27 1.017.402 1.99.841 2.964 1.28" style="fill:#000205;fill-opacity:1;fill-rule:evenodd;stroke:none;stroke-width:1.87367" transform="translate(-80.004 -152.807)" data-source="https://football-logos.cc"></path><!-- source: https://football-logos.cc --></svg>