<svg xmlns="http://www.w3.org/2000/svg" viewBox="0 0.02 120.77 101.2"><metadata xmlns:fl="https://football-logos.cc/sweden/elfsborg">dl1_08ecf1cac538f0b02fc537df5a7d70afc7e350fc1ea72488e8c7800228b13ec6</metadata><!-- Source: https://football-logos.cc --><g fill="none" fill-rule="evenodd" data-source="https://football-logos.cc"><path fill="#121313" d="M66.687 21.562c3.375.304 6.85.77 10.293 1.468-1.95-3.62-7.13-7.97-9.438-19.5 5.173 4.56 11.393 5.438 15.17 9.352.07-1.2.052-4.037.456-4.644 4.067 2.057 11.49 8.03 14.305 13.064 1.085-1.867 1.516-3.346 2.023-3.752 8.72 10.33 9.32 12.51 10.836 16.256 1.24-.846 2.45-3.6 3.26-4.41 2.132 6.682 3.94 14.894 2.826 20.16 1.93-.69 2.83-1.585 4.352-1.182.108 5.697-1.813 14.59-5.26 19.25 1.437.494 1.893.344 3.782 1.394-2.13 4.863-9.26 10.96-15.143 13.388 1.238.884 2.054 1.777 3.17 3.5-3.754-.307-12.465 6.722-20.085 5.483.1 1.217 2.65 2.937 1.436 4.05-4.358.506-9.467.39-10.886.493-.693-2.223-.3-4.288-.887-5.134-3.856 3.847-9.37 6.905-21.34 9.638 0-2.128 1.428-2.988 1.686-4.257-2.534 1.922-6.74 2.612-20.027 5.04.913-1.217 2.68-4.098 3.592-5.107-4.263.482-15.214.774-19.17-1.655 1.184-1.63 2.5-2.048 3.308-3.264-4.866-1.89-8.884-1.63-15.48-7.707 1.622-.908 2.325-1.277 3.806-1.927-5.785-3.542-8.835-8.41-11.28-14.35 4.13-.483 4.877.65 6.02.55C.243 59.18-.5 49.242.213 47.32c.91.284 1.622.51 2.536 1.015-2.92-11.908 5.21-22.79 6.025-22.993 1.68 1.25 1.585 3.022 2.646 4.43 1.682-7.04 11.55-14.935 12.927-18.194.788 1.304.925 2.778 1.574 4.664 2.337-1.62 8.468-9.725 9.276-11.75 2.313 2.004-.357 14.572-1.824 20.423a49 49 0 0 1 6.536-2.165 15 15 0 0 1-2.06-7.614c0-8.35 6.775-15.113 15.137-15.113 8.36 0 15.138 6.763 15.138 15.113 0 2.298-.516 4.475-1.436 6.426"></path><path fill="#FCD200" d="m46.743 10.348-3.904 4.584 1.63 4.598 5.91 1.31 3.444-3.73-2.336-5.92zm12.86 7.793 2.83-4.85-1.952-4.51-5.24-1.335-3.163 3.627 2.27 5.81 5.255 1.26zM46.5 10.004l-1.085-3.69-2.256-1.138 2.467.503 3-3.1 4.637.92 2.69-1.925-2.003 2.45 1.29 3 5.397 1.21L61.8 4.918l1.67.357A14.13 14.13 0 0 0 53.147.812c-7.29 0-13.286 5.498-14.068 12.567l.726-1.045 2.79 2.236zm20.77 4.006-.654 1.11-3.807-1.438-2.737 4.835 1.147 3.89 3.114.815-3.17-.13-3.367 3.523-5.167-.632-2.25 2.42c-.018 0 1.542-2.844 1.542-2.844l-1.735-4.248-5.627-1.3-2.123 2.924-1.085-.176a14.14 14.14 0 0 0 11.796 6.32c7.82 0 14.156-6.328 14.156-14.133a14 14 0 0 0-.035-.938z"></path><path fill="#FCD200" d="m80.236 85.923-.185.04c-.212 1.82-1.92 2.747-1.73 5.703.055.795.244 1.732.637 2.877 1.16-.06 5.334-.462 8.576-.462-.054-.908-.446-1.697-1.02-2.414-1.764-2.192-5.274-3.696-6.277-5.743m-10.455 5.7-.203.056.013.01c-2.405.83-5.018 1.746-6.408 3.294.714-1.596 2.01-2.545 3.698-3.318 2.16-.99 4.962-1.69 8-3.092-.277 1.376-2.55 2.174-5.1 3.05m-31.766 0-.12.01-.347.045.002.003c-1.8.214-3.408.334-4.452.334.28-.12.586-.236.906-.35h.005c3.79-1.325 9.923-2.044 14.097-2.418-2.023 1.055-6.39 1.907-10.093 2.373m22.443-3.704c-17.616 0-30.003-4.846-37.65-12.438h.002c-6.43-6.393-9.513-14.74-9.513-23.76q0-.278.007-.554h-.02v-.003h.02c.23-12.18 8.047-20.915 18.744-25.79 2.354-6.82 4.76-16.947 3.007-18.827-2.638 4.184-8.893 8.696-9.1 14.565-.337 4.186 6.196-7.87 6.196-5.1-1.758 2.497-7.37 8.978-9.06 12.283.813-2.36 2.76-11.554 1.38-15.052-3.515 4.52-16.254 14.987-10.37 21.4 1.485-3.375 5.002-9.856 5.608-8.64-5.947 10.73-6.083 11.61-5.543 15.12-1.622-2.97-1.78-9.64-5.145-14.722C6.655 27.75-2.805 47.4 8.42 51.044c.88-1.618-1.486-15.252.066-13.09.348 2.465.333 9.126 1.41 13.214H9.9c.395 1.496.938 2.65 1.698 3.116-1.09-.39-2.436-1.58-5.017-3.116h-.004a44 44 0 0 0-5.534-2.778c-.103.85-.096 1.783.007 2.778.71 6.802 6.016 16.224 12.035 18.64.2-2.63-4.87-6.683-5.68-11.674 1.96.672 6.56 13.5 11.02 15.117-4.395-.673-10.112-6.433-15.076-5.6 1.476 3.18 2.917 5.784 4.48 7.818 3.514 4.565 7.65 6.243 14.247 5.073.095-1.044-5.11-2.86-8.502-5.066l-.07-.06-.02-.003c-1.382-.91-2.445-1.886-2.7-2.9a478 478 0 0 0 4.793 2.958h.003c6.948 4.202 10.038 5.61 12.995 6.102-4.46.135-14.453-.44-17.545 1.93 6.423 4.992 12.805 8.18 21.12 4.13 0-1.756-10.208-1.823-10.546-2.837 3.852-.875 12.033 3.177 17.917 1.488-2.14 1.125-9.68 2.033-13.96 5.388h-.004c-.842.664-1.557 1.423-2.08 2.3 7.63 2.382 16.203 1.614 18.276.413.895-.52 2.582-1.605 4.39-2.712h.003c2.365-1.445 4.94-2.926 6.22-3.228-.724.445-2.744 1.64-5.003 3.226l-.183.13h.002c-3.18 2.248-6.77 5.24-7.823 7.97 2.837-.607 17.266-1.74 20.984-7.48.115-.294.007-.497-.28-.62-.492-.214-1.51-.194-2.78 0h-.01c-3.557.53-9.113 2.358-10.923 3.995.07-1.553 2.53-3.035 6.024-3.994h-.076.076c3.178-.876 7.216-1.32 11.08-1-.405.313-.812.643-1.22 1h-.002c-2.255 1.95-4.467 4.536-5.515 7.55 1.856-.285 11.145-3.606 16.926-7.548h.002c2.428-1.657 4.234-3.422 4.616-5.117l.06-.223c-5.286 1.035-11.244 1.592-17.863 1.592m45.69-12.452c-1.526 1.035-3.182 1.75-4.153 1.16.296-.274 1.025-.686 1.933-1.16h-.017l.004-.002h.013c1.78-.933 4.25-2.108 5.5-2.956-.522.72-1.843 1.98-3.28 2.958m-7.13 9.868c-2.03 1.215-11.02 0-12.98.606 1.62-2.16 8.583-.472 12.98-.606m7.017-15.522c-1.183 2.013-2.677 3.906-4.482 5.654-4.638 4.49-11.328 8.02-20.047 10.158.144.124.306.25.474.384 5.747 8.032 19.373.516 24.175-1.036-2.233-2.633-6.665-4.433-9.573-4.23 1.69-1.01 3.45-.336 6.425.538 1.87.15 6.116-2.723 9.695-5.814 2.88-2.49 5.33-5.12 5.76-6.42-3.7-1.716-10.33.306-12.428.766m9.488-18.65h-.004c-2.083 1.54-4.004 3.394-5.75 3.594.444-.795.812-2.08 1.13-3.59.783-3.766 1.244-8.94 1.774-11.397.377 3.123-.865 6.76-.684 11.398q.024.571.08 1.16c.99-.145 1.77-.552 2.373-1.16 3.546-3.578.933-14.14-1.09-19.967-4.26 4.93-4.395 12.354-5.68 13.57.407-4.322-4.868-13.772-5.676-17.618 3.92 4.05 3.647 10.664 6.15 12.485 4.327-6.41-3.45-15.187-8.246-21.058-1.218.402-2.37 7.22-1.556 12.69-2.366-3.172-9.94-11.004-9.67-13.03 1.42.742 2.774 5.2 8.316 9.518.947-6.006-2.027-11.272-13.115-18.36-.677 7.56 2.233 9.924 3.313 15.256-3.313-5.94-10.28-9.517-12.914-14.04 1.756.54 4.065 4.496 10.152 8.475-2.775-10.53-7.56-7.746-15.48-14.077.978 6.946 6.195 13.534 9.59 18.125 14.388 3.205 27.874 10.73 30.422 28.03.287 1.916.433 3.96.433 6.122 0 4.313-1.036 8.388-3.098 12.074 2.17-1.978 6.88-6.9 9.088-12.04 0 4.857-6.898 9.244-6.02 11.003 4.093-.26 9.088-.784 10.617-17.157.06-.673.118-1.37.165-2.097-1.614.086-3.16 1.008-4.62 2.092"></path><path fill="#FCD200" d="M92.455 53.624c-1.117 1.81-3.456 4.662-8.408 6.42-4.952 1.76-7.358.717-8.237-1.418-.76-1.848.156-4.923 5.32-7.896 4.87-2.802 13.114-2.477 13.114-2.477-.146 1.747-.612 3.467-1.79 5.37m2.022-13.396c-.77 1.34-2.172 1.98-3.13 1.433-.956-.55-1.107-2.08-.336-3.42s2.17-1.98 3.13-1.43c.956.547 1.107 2.078.336 3.417m-17.81 4.7c-.856 1.49-2.327 2.25-3.283 1.702-.958-.55-1.04-2.202-.182-3.69.857-1.49 2.328-2.253 3.286-1.703.957.548 1.038 2.2.18 3.69M51.683 66.52c.025 1.86-.196 3.615-.506 5.144q-.815.38-1.626.717l.29-14.564s1.75 1.773 1.842 8.702m-2.226 10.595.065-3.273a46 46 0 0 0 1.298-.64c-.626 2.38-1.362 3.913-1.362 3.913M37.03 51.652c.63-.187 1.72-.297 1.74.2.022.5-.908.958-1.952 1.294-.892.286-2.41.063-2.41.063.074-.043 1.613-1.262 2.622-1.558m7.254-6.694c.548-1.17.812-.685.968-.28.35.907-1.07 4.597-1.07 4.597-.792-1.844-.014-4.07.102-4.317m52.212 2.086c.056-.685 1.5-12.225 1.5-12.225l-2.553.5-.182.91c-.136-.364-1.595-1.547-3.827-.774s-2.87 4.504-3.28 5.415c-.41.91-1.55 1.64-1.55 1.64-3.07 1.837-1.687-5.098-1.687-5.098l-.91.046c.135.683-1.96 1.32-1.55-.364s1.23-3.913-.138-4.095-1.093 1.82-1.367 4.64c-.272 2.82-2.596 2.867-2.596 2.867 0-.137-.41-2.867-1.368-3.05-.957-.18-.91 2.185-.91 2.185-3.146-.227-4.832 3.14-5.106 3.867-.273.727-1.412 1.228-1.412 1.228-.958-5.642-3.1-3.048-3.418-2.093-.32.955 1.458 2.502 1.64 2.957.183.455.137 1.615-.82 4.117s-2.183 1.8-2.188 1c-.003-.682 1.322-15.127 1.504-16.765.183-1.638-.383-1.845-1.185-1.183-.917.758-1.822 8.69-2.095 12.694s-2.188 5.005-2.188 5.005c-.5-.637-1.982-.568-2.55-.318-.214.093-2.235.82-1.642-1.092.592-1.91 2.05-.546 2.05-.546l1.687-1.23c-4.574-3.263-6.358 2.982-6.446 4.244-.01.134-3.58 1.672-3.58 1.672-.046-.136.774-12.875 1.002-13.876s-.774-1.047-2.005 1.228-1.002 12.512-1.002 12.512-1.458-.956-1.913-.045c-.456.908 1.822 1.864 1.822 1.864.318 5.187-1.68 9.143-1.843 9.517-.483 1.116-1.804 4.406-2.624 1.63-.82-2.774 1.533-15.36 1.924-17.242.28-1.342 1.63-5.05-.374-5.96s-3.692 5.413-3.327 10.1c.364 4.686-.775 11.146-1.048 12.284-.274 1.137-3.373 8.008-3.373 8.008l1.686-1.41c.366-2.048 2.234-5.005 2.234-5.005 2.872 4.777 6.198-3.094 6.198-3.094 0 .17-.206 5.242-.31 9.503-7.014 2.43-13.418 2.274-16.643-1.267-7.752-8.513 1.944-17.472 1.944-17.472 4.618.79 9.236-2.91 7.17-4.003-2.066-1.09-6.927 2.306-6.927 2.306s-2.098-1.463-2.492-3.033c-1.458-5.824 4.68-14.317 12.64-15.712s11.302 4.49 11.302 4.49h3.342c-6.442-10.13-24.307-7.098-29.107 3.094-4.8 10.19 2.248 12.678 2.248 12.678-13.792 12.376-8.454 17.636-7.11 19.05 1.406 1.474 9.32 7.33 23.596 1.47-.036 1.925-.038 3.485.028 4.016.09.728 3.005 1.644 4.238-3.528.23-.97.416-1.904.57-2.812C69.32 63.1 70.59 52.473 70.59 52.473l-2.308.606C66.52 62.3 56.774 68.673 54.185 70.125q-.897.503-1.798.955c1.432-10.632-2.06-16.697-2.06-16.697.318-.09 3.88-1.68 3.88-1.68s0 .47.494.816c.767.534 3.236-.41 3.556-.365.318.045 1.367.864-.502 2.775-1.868 1.91-3.1-.318-3.1-.318l-1.867 1.683c2.187 2.32 4.706.784 6.517-.864 2.242-2.04 1.825-4.662 1.868-4.913.04-.224 1.276-1.5 1.276-1.5-.136 3.047.902 4.276 3.828 2.865 2.98-1.438 3.236-7.098 3.236-7.098.182.046 1.14-.728 1.14-.728-.1 1.837.822 3.64 2.187 3.868 6.307 1.052 5.56-7.735 5.56-7.735.364.18 1.96-.82 2.916-1.002.957-.182.957.82.957.82v.135c.09.774-1.12 2.718-.228 4.095 2.005 3.094 6.29-3.14 6.29-3.14 2.232 4.368 6.744-.18 6.744-.18.135.454-.64 5.05-.64 5.05-11.334.126-20.436 4.943-19.96 11.374.16 2.18 2.256 3.962 6.32 3.558 15.27-1.515 15.646-13.522 15.646-13.522 1.14.148 3.302.953 3.302.953l.232-1.42c-.97-.695-3.484-.866-3.484-.866"></path></g><!-- source: https://football-logos.cc --></svg>