<svg xmlns="http://www.w3.org/2000/svg" xml:space="preserve" id="header_logo_svg" x="0" y="0" class="c-site-nav__site-logo__img u-inline-block" version="1.1" viewBox="0.06 0.5 264.79 375.1"><metadata xmlns:fl="https://football-logos.cc/sweden/sirius">dl1_da73b5f01e67381522a8120dd69fc2cc1cf1dd3813186d9a58298ff347744fd2</metadata><!-- Source: https://football-logos.cc --><style data-source="https://football-logos.cc">#header_logo_svg .st0{fill:#dcdcda}</style><path d="M131.1.5c108 0 133.7 14 133.7 14v73.8s.9 9-5.4 15.8-6.8 10.4-6.8 17.6v120.6s4.9 133.2-120.1 133.3C7.2 375.4 12.3 242.2 12.3 242.2V121.6c0-7.2-.5-10.8-6.8-17.6S.1 82.8.1 82.8V9C.2 9 22.2.5 131.1.5" class="st0"></path><path d="M236.1 281.5c-6.5 26.6-22.5 61.1-61.3 75l-1.2.4v-253h.9c29.1.9 49.4 3.9 62.8 5.9l3.7.5v116.5c.1.2 2.2 26-4.9 54.7M89.2 103.6c-29.1.9-49.4 3.9-62.8 5.9l-3.7.5v116.4c0 .3-2.1 26 5 54.7 6.5 26.6 22.5 61.1 61.3 75l1.2.4v-253z" style="fill:#0d5d97"></path><path d="M164.9 103v257.4l-.7.2c-9.7 2.7-20.4 4.1-31.7 4.1-12 0-22.7-1.3-32.7-4.1l-.7-.2V103.1h.9c10-.2 20.7-.5 32.4-.5 11 0 21.7.1 31.6.3zm88.2-81.3c-13.1-2.6-47.8-9.5-120.1-9.5-59.7 0-100.1 2-119.9 5.9l-.7.1-.2 70.5c0 .4 0 9.4 3.8 14.1l.3.4.5-.1c27.4-4.8 65.9-7.3 114.4-7.3 62 0 98.4 4.2 118 7.6l.5.1.3-.4c3.8-4.7 3.8-14.1 3.8-14.5V21.8z" style="fill:#252012" data-source="https://football-logos.cc"></path><path d="m38.9 67.8.1 4.3c.1 4.1.1 5.8 4 5.7 2.9 0 3.9-1.1 3.8-3.6l-.1-6.4c-.1-4.1-.9-4.4-7.9-6-10.3-2.4-12.3-4.9-12.5-15.5l-.1-3.6c-.2-13.9 3.9-15.4 16.4-15.6 11.4-.2 15.2 3 15.4 11.4l.1 7.2-11.7.2-.1-2.9c-.1-5.3-.5-5.7-3.8-5.6-3.5.1-3.7 1.5-3.6 4.3l.1 4c.1 3.8 1 4.4 4.9 5.4C58 54.6 59.6 55.7 59.8 71 60 85.3 55 88 43.9 88.2 29.7 88.3 27 84.9 26.8 73l-.1-4.9zm29.3 17.8 13.4-.5-1-62.1-13.3.5zm24.4-.8 7.1-.1 7.4-.2-.2-21.3h2.5c4.9-.1 6.4 1 6.5 3.6l.5 17.7 7.4-.2 6.7.1-.1-16.9c-.1-7.7-3.6-8.8-10.1-10.2 6.1-1.1 9.8-3.4 9.7-12.9l-.1-7.6c-.2-11.8-4.6-14.9-20.2-14.7l-18 .3zm18.1-52.1c3.2-.1 4.5 1.4 4.6 4.6l.2 9.5c.1 4.1-.8 5.5-6 5.6h-2.8l-.3-19.6zm29.7 51.8 13.1-.1V21.8l-13.1-.1zM198.2 25l-13.4-.9-.9 47.7c0 2.4-1 3.9-3.8 3.8-2.8 0-3.7-1.6-3.7-4l.8-48.2-14.2-.7-.8 48.3c-.2 13.7 6.3 15.5 17.6 15.7s17.3-1.2 17.6-14.9zm20.6 42.3-12.2-.6-.3 5c-.6 12 1.8 15.6 16 16.3 11.1.6 16.3-1.7 17.1-16.2.8-15.5-.7-16.6-14.5-21.2-3.8-1.2-4.7-1.9-4.5-5.7l.2-4c.1-2.8.5-4.3 3.9-4.1 3.3.2 3.7.6 3.4 5.9l-.2 2.9 11.7.6.4-7.2c.4-8.4-3.2-11.9-14.6-12.5-12.5-.7-16.7.5-17.4 14.6l-.2 3.7c-.6 10.7 1.3 13.4 11.3 16.5 6.8 2.1 7.6 2.4 7.4 6.6l-.3 6.5c-.1 2.6-1.1 3.5-4.1 3.4-3.9-.2-3.8-1.9-3.6-6zm-31 75.7v-16.7c-.1-6.7 2.9-8.1 9-8.1 6.4 0 9 1.3 9 8.1V143c0 5.9-2.6 7.2-9 7.2s-9-1.3-9-7.2m7.2.7c0 1.1.5 1.4 1.8 1.4s1.8-.3 1.8-1.4v-19.2c0-.9-.5-1.2-1.8-1.2s-1.8.3-1.8 1.4zm14.8-19.8h8.8l-6.9 26h7.3l6.7-26v-5.3h-15.9zm-174.5 3.3 3.9 3.8 4.6-7.1h.1v26H51v-31.3h-9zm22.8 17.3v-4H65v3.1c0 1.1.2 1.6 1.9 1.6 1.3 0 2.1-.3 2.1-1.8v-8.3h-.2c-1 1.6-1.9 2.2-4.5 2.2-6.1 0-6.5-2.2-6.5-8.1 0-9.4.6-11 9.3-11 6.9 0 9.1 1.1 9.1 6.7v14.8c0 9.8-2.3 10.6-10.3 10.6-7.1-.1-7.8-1.8-7.8-5.8m7-13.7c0 1.3.4 1.7 2 1.7 1.3 0 2-.4 2-1.6v-6.1c0-1.2-.4-1.5-2-1.5s-2 .3-2 1.5z" class="st0"></path><path d="m143.4 288.7 7.1 21.9L132 297l-18.6 13.5 7.1-21.9-18.6-13.5h23l7.1-21.9 7.1 21.9h23z" style="fill:#ffdb00" data-source="https://football-logos.cc"></path><!-- source: https://football-logos.cc --></svg>