<svg xmlns="http://www.w3.org/2000/svg" viewBox="0 0 320 312.31"><metadata xmlns:fl="https://football-logos.cc/sweden/kalmar">dl1_17b1375f86aec890b9a7c4418ea18eca7d188941011d3271229a258c6cf620d7</metadata><!-- Source: https://football-logos.cc --><defs data-source="https://football-logos.cc"><clipPath id="a"><path d="M0 0h283.469v276.648H0Zm0 0"></path></clipPath></defs><g clip-path="url(#a)" transform="rotate(.113)scale(1.12889)"><path d="M164.207 230.688c-9.602 8.195-15.41 11.605-22.473 14.68-7.066-3.075-12.875-6.485-22.476-14.68a105 105 0 0 0 22.476 2.425c7.715 0 15.235-.84 22.473-2.425M283.465 128.68a7.46 7.46 0 0 0-6.297-7.371c6.973-24.676-4.89-46.711-4.89-46.711l-1.868 5.593c-3.73-22.379-16.781-37.296-16.781-37.296l-1.867 5.593C229.382 7.461 180.895 0 180.895 0c9.324 20.516 20.515 35.434 20.515 35.434-9.031-9.032-17.375-15.329-22.558-18.891a7.46 7.46 0 0 0-7.809-9.066c-3.68.253-6.66 3.234-6.914 6.914a7.46 7.46 0 0 0 11.547 6.757c9.094 6.84 17.066 13.739 24.027 20.653-16.586-11.09-36.523-17.559-57.969-17.559-21.449 0-41.386 6.469-57.972 17.559 6.96-6.914 14.937-13.813 24.027-20.653a7.46 7.46 0 0 0 4.457 1.223c3.754-.172 6.836-3.183 7.09-6.93a7.46 7.46 0 0 0-7.441-7.98 7.46 7.46 0 0 0-7.282 9.082c-5.183 3.562-13.527 9.86-22.558 18.89 0 0 11.191-14.917 20.515-35.433 0 0-48.488 7.46-70.867 48.488l-1.863-5.593S16.785 57.812 13.055 80.19l-1.864-5.593s-11.867 22.035-4.894 46.71a7.463 7.463 0 0 0-2.09 14.087c-.602 11.437 3.254 26.851 3.254 26.851l-3.73-1.863s3.73 20.512 18.648 33.566l-7.461-1.863s5.598 11.187 18.652 20.512h-5.597s16.226 25.957 41.109 32.476a7.463 7.463 0 0 0 7.379 8.555 7.45 7.45 0 0 0 4.25-1.332c13.016 10.285 28.23 6.98 36.844 5.383-7.485 6.238-11.465 13.203-12.7 15.597a148 148 0 0 0 17.711 3.371c2.352-4.656 8.047-13.39 19.168-17.617 11.118 4.227 16.813 12.961 19.164 17.617a148 148 0 0 0 17.711-3.37c-1.23-2.395-5.21-9.36-12.699-15.598 8.613 1.597 23.828 4.902 36.844-5.383a7.45 7.45 0 0 0 4.25 1.332 7.463 7.463 0 0 0 7.379-8.555c24.883-6.52 41.11-32.476 41.11-32.476h-5.595c13.051-9.325 18.649-20.512 18.649-20.512l-7.461 1.863c14.922-13.054 18.648-33.566 18.648-33.566l-3.726 1.863s3.851-15.414 3.25-26.851a7.47 7.47 0 0 0 4.207-6.715" style="fill:#bf9142;fill-opacity:1;fill-rule:nonzero;stroke:none"></path></g><path d="M221.922 61.543c27.976 33.566 24.246 70.863 24.246 70.863 3.73 3.73 7.46 11.192 7.46 11.192s0-26.11-5.597-41.028c5.598 7.457 7.461 14.918 7.461 14.918-3.73-33.566-33.57-55.945-33.57-55.945M227.52 188.355c-7.461 11.188-14.922 16.786-20.516 22.38s-5.594 9.324-5.594 13.054c0 0 1.863-3.73 11.188-11.191 7.28-5.825 9.324-9.325 9.324-9.325 0 7.461-1.863 11.192-1.863 11.192 5.593 0 11.187-1.867 11.187-1.867-5.594 5.597-27.973 14.922-27.973 14.922 33.57-3.73 54.082-27.977 54.082-27.977-14.918 7.46-29.835 7.46-29.835 7.46 1.863-11.187 0-18.648 0-18.648" style="fill:#fff;fill-opacity:1;fill-rule:nonzero;stroke:none" transform="rotate(.113)scale(1.12889)"></path><path d="M221.922 231.246c-7.457 5.598-24.242 3.73-24.242 3.73 22.379 14.922 48.488-18.648 48.488-18.648-22.379 14.918-42.895 14.918-42.895 14.918 9.325 1.867 18.649 0 18.649 0M205.14 20.516c16.782 11.187 29.837 44.754 29.837 44.754-1.864-16.782-9.325-29.836-9.325-29.836 13.055 11.187 24.246 39.164 24.246 39.164 0-50.356-59.68-67.137-59.68-67.137 13.055 24.242 29.84 44.758 29.84 44.758-1.863-16.785-14.917-31.703-14.917-31.703" style="fill:#fff;fill-opacity:1;fill-rule:nonzero;stroke:none" transform="rotate(.113)scale(1.12889)"></path><path d="M242.438 76.46c14.917 16.786 18.648 41.028 18.648 41.028 1.863-11.187 0-33.566 0-33.566 14.922 29.836-3.73 65.27-3.73 65.27 26.109-37.301 13.054-63.407 13.054-63.407l-1.863 5.594c-5.598-26.11-13.055-37.297-13.055-37.297-1.863 16.785 0 29.84 0 29.84-5.594-5.598-13.055-7.461-13.055-7.461M113 270.043c2.129.434 4.27.812 6.418 1.145a49.2 49.2 0 0 1 9.09-9.762s-9.153-2.203-15.508 8.617M27.973 117.488s1.867-7.46 7.46-14.918c-5.593 14.918-5.593 41.028-5.593 41.028s3.73-7.461 7.457-11.192c0 0-3.727-37.297 24.246-70.863 0 0-29.84 22.379-33.57 55.945M52.219 212.598s5.593 1.867 11.187 1.867c0 0-1.863-3.73-1.863-11.192 0 0 2.043 3.5 9.324 9.325 9.324 7.46 11.188 11.191 11.188 11.191 0-3.73 0-7.46-5.594-13.055-5.594-5.593-13.055-11.191-20.512-22.379 0 0-1.867 7.461 0 18.649 0 0-14.922 0-29.84-7.461 0 0 20.512 24.246 54.082 27.977 0 0-22.379-9.325-27.972-14.922" style="fill:#fff;fill-opacity:1;fill-rule:nonzero;stroke:none" transform="rotate(.113)scale(1.12889)"></path><path d="M85.785 234.977s-16.785 1.867-24.242-3.73c0 0 9.324 1.866 18.648 0 0 0-20.515 0-42.894-14.919 0 0 26.11 33.57 48.488 18.649M57.813 35.434s-7.461 13.054-9.325 29.836c0 0 13.055-33.567 29.836-44.754 0 0-13.05 14.918-14.918 31.703 0 0 16.785-20.516 29.84-44.758 0 0-59.676 16.781-59.676 67.137 0 0 11.188-27.977 24.243-39.164" style="fill:#fff;fill-opacity:1;fill-rule:nonzero;stroke:none" transform="rotate(.113)scale(1.12889)" data-source="https://football-logos.cc"></path><path d="M22.379 83.922s-1.863 22.379 0 33.566c0 0 3.73-24.242 18.648-41.027 0 0-7.457 1.863-13.054 7.46 0 0 1.867-13.054 0-29.839 0 0-7.457 11.188-13.055 37.297l-1.863-5.594S0 111.891 26.109 149.191c0 0-18.648-35.433-3.73-65.27M141.734 59.512c20.196 0 39.868-3.516 58.579-10.45-16.391-12.078-36.653-19.222-58.579-19.222-21.93 0-42.191 7.144-58.582 19.223 18.711 6.933 38.383 10.449 58.582 10.449M201.64 163.262c-10.105 17.504-16.902 36.304-20.25 55.972 34.848-15.273 59.184-50.074 59.184-90.554 0-3.688-.207-7.328-.601-10.91-15.356 12.714-28.235 27.988-38.332 45.492M102.074 219.234c-3.351-19.668-10.144-38.468-20.25-55.972-10.097-17.504-22.976-32.778-38.332-45.492a100 100 0 0 0-.597 10.91c0 40.48 24.332 75.28 59.18 90.554M171.57 18.234a3.32 3.32 0 0 0 3.317-3.316 3.314 3.314 0 1 0-3.316 3.316M276.008 125.363a3.32 3.32 0 0 0-3.317 3.317 3.314 3.314 0 1 0 3.316-3.316M207.004 242.852a3.32 3.32 0 0 0-3.316 3.316 3.32 3.32 0 0 0 3.316 3.316 3.32 3.32 0 0 0 3.316-3.316 3.32 3.32 0 0 0-3.316-3.316M111.895 18.234a3.32 3.32 0 0 0 3.316-3.316 3.318 3.318 0 0 0-6.633 0 3.32 3.32 0 0 0 3.317 3.316M10.773 128.68a3.32 3.32 0 0 0-3.312-3.317 3.32 3.32 0 0 0-3.316 3.317 3.314 3.314 0 0 0 6.629 0M76.46 242.852a3.32 3.32 0 0 0-3.315 3.316 3.32 3.32 0 0 0 3.316 3.316 3.32 3.32 0 0 0 3.316-3.316 3.32 3.32 0 0 0-3.316-3.316M244.3 179.031c-2.636 5.274-5.16 1.992-3.726-3.73 1.863-7.461 7.457-3.73 3.727 3.73m13.055-14.922c-3.726-14.918-11.187-22.375-11.187-22.375 1.863 11.188 4.86 22.375-1.867 22.375-5.594 0-7.457 7.461-9.324 18.653-1.227 7.355-1.864 16.781-1.864 16.781 18.649-13.055 18.649-33.566 18.649-33.566 1.867 3.73 1.867 9.324 1.867 9.324 5.594-3.73 9.32-9.324 9.32-9.324-3.726 18.648-24.242 35.433-24.242 35.433 26.11-11.191 33.57-33.57 33.57-33.57l-5.597 1.867c7.46-13.055 7.46-31.703 7.46-31.703-13.054 13.055-16.785 26.105-16.785 26.105M160.383 245.797c10.129-6.395 13.054-10.82 13.054-10.82l5.594 3.73c7.457-3.73 9.324-5.594 9.324-5.594s-.343 5.825-5.593 9.325c0 0 1.863 1.863 7.457 3.73-9.965 9.453-29.836-.371-29.836-.371m35.433-27.602c-7.46 11.188-16.785 14.918-16.785 14.918l-5.593-3.73s-8.985 10.199-22.36 16.797c0 0 35.129 19.316 48.469-1.88-7.461-1.863-9.328-3.726-9.328-3.726 7.46-11.191 5.597-22.379 5.597-22.379M110.027 249.898c-11.12 2.223-16.78-3.73-16.78-3.73 5.593-1.867 7.456-3.73 7.456-3.73-5.246-3.5-5.594-9.325-5.594-9.325s1.868 1.864 9.325 5.594l5.593-3.73s3.73 5.597 16.785 13.054c0 0-7.457 0-16.785 1.867m31.707 0c-18.648-5.597-31.707-20.515-31.707-20.515l-5.593 3.73s-9.325-3.73-16.782-14.918c0 0-1.867 11.188 5.594 22.38 0 0-1.867 1.863-9.324 3.726 0 0 5.594 13.054 27.973 9.328 11.19-1.867 20.511-1.867 27.972 0 9.828 2.457 18.461 9.45 24.18 17.559 2.152-.333 4.289-.711 6.418-1.145-2.567-4.469-10.184-14.582-28.73-20.145" style="fill:#fff;fill-opacity:1;fill-rule:nonzero;stroke:none" transform="rotate(.113)scale(1.12889)"></path><path d="M42.895 175.3c1.43 5.723-1.094 9.005-3.73 3.731-3.731-7.46 1.862-11.191 3.73-3.73m-22.38-9.323s3.727 5.593 9.325 9.324c0 0 0-5.594 1.863-9.324 0 0 0 20.511 18.649 33.566 0 0-.637-9.426-1.864-16.781-1.867-11.192-3.73-18.653-9.324-18.653-6.727 0-3.73-11.187-1.867-22.375 0 0-7.457 7.457-11.188 22.375 0 0-3.73-13.05-16.785-26.105 0 0 0 18.648 7.461 31.703l-5.594-1.867s7.457 22.379 33.567 33.57c0 0-20.516-16.785-24.242-35.433" style="fill:#fff;fill-opacity:1;fill-rule:nonzero;stroke:none" transform="rotate(.113)scale(1.12889)"></path><path d="M239.059 111.309c-17.047 13.554-31.254 30.074-42.262 49.156-11.012 19.078-18.227 39.648-21.461 61.195-10.742 3.89-22.02 5.86-33.602 5.86-11.586 0-22.863-1.97-33.601-5.86-3.238-21.547-10.453-42.117-21.461-61.195-11.012-19.082-25.219-35.602-42.266-49.156a98 98 0 0 1 6.25-21.102c4.98-11.77 12.106-22.34 21.188-31.418a99 99 0 0 1 6.187-5.691c20.278 7.968 41.692 12.007 63.703 12.007 22.008 0 43.422-4.039 63.7-12.007 2.132 1.8 4.199 3.699 6.187 5.691 9.082 9.078 16.207 19.648 21.188 31.418a98 98 0 0 1 6.25 21.102" style="fill:#d11935;fill-opacity:1;fill-rule:nonzero;stroke:none" transform="rotate(.113)scale(1.12889)"></path><path d="M79.285 93.297a296 296 0 0 0 3.73 19.855 215 215 0 0 1-7.308-2.183 332 332 0 0 1-1.812-18.125l-.16-.012c-1.864 5.191-3.727 10.387-5.59 15.574q-3.315-1.208-6.602-2.488c4.219-10.652 8.434-21.309 12.652-31.957q2.761 1.096 5.563 2.098-2.567 7.142-5.13 14.285c3.84-3.98 7.563-8.047 11.185-12.23 2.007.648 4.03 1.253 6.062 1.823a273 273 0 0 1-12.59 13.36M97.441 105.805a190 190 0 0 0 6.141 1.25c.012-3.723.047-7.446.113-11.168.047-2.219.18-4.453.383-6.664-.723 2.125-1.45 4.246-2.297 6.324a740 740 0 0 1-4.34 10.258m13.403 13.21a336 336 0 0 1-7.149-1.144 525 525 0 0 1-.07-6.082 210 210 0 0 1-8.074-1.64 473 473 0 0 1-2.492 5.558A209 209 0 0 1 86 113.965a474 474 0 0 0 16.152-31.442q3.232.72 6.493 1.313a502 502 0 0 0 2.199 35.18M130.387 120.926a261 261 0 0 1-15.715-1.395c1.426-11.367 2.851-22.738 4.273-34.105q2.907.368 5.825.636c-.907 9.711-1.81 19.426-2.711 29.137q4.287.404 8.593.625zM153.96 120.883c-2.245.125-3.37.172-5.616.238a567 567 0 0 1-5.63-24.7q-.93 12.411-2.085 24.798a307 307 0 0 1-6.832-.145 945 945 0 0 0 4.926-34.25c2.117.04 4.238.04 6.355-.004a563 563 0 0 0 5.824 24.72 536 536 0 0 0 3.918-25.153 168 168 0 0 0 6.246-.551 1061 1061 0 0 0 7.504 33.734q-3.396.4-6.8.735a1404 1404 0 0 1-4.176-24.532 555 555 0 0 1-3.633 25.11M179.434 107.152c2.054-.375 4.105-.789 6.144-1.23a786 786 0 0 1-4.226-10.336 97 97 0 0 1-2.23-6.293c.155 2.238.308 4.473.331 6.719.024 3.715.016 7.425-.02 11.14m17.507 6.973q-3.516.92-7.062 1.723a586 586 0 0 1-2.422-5.578 211 211 0 0 1-8.078 1.62 527 527 0 0 1-.14 6.087c-2.384.402-4.762.777-7.153 1.128a481 481 0 0 0 2.668-35.242c2.168-.39 4.336-.828 6.488-1.304a498 498 0 0 0 15.7 31.566M198.508 82.89c1.058 3.364 2.12 6.723 3.183 10.087.348-.114.524-.168.872-.282 1.292-.414 2.25-.91 2.863-1.468a2.89 2.89 0 0 0 .969-2.094q.046-1.243-.633-3.184-.73-2.061-1.621-2.933-.897-.867-2.075-.88-1.176-.009-3.007.579c-.223.07-.332.105-.551.176m23.5 23.028a227 227 0 0 1-7.078 2.66c-4.11-4-8.102-8.098-11.985-12.316l-.195.058q2.332 7.394 4.668 14.782a340 340 0 0 1-6.723 2.003l-9.293-33.09c2.227-.64 4.438-1.308 6.649-2.003 2.004-.551 4.035-1.14 6.14-.985 1.72.125 3.18.703 4.371 1.762 1.196 1.055 2.196 2.633 3.004 4.68.797 2.004 1.309 4.343.696 6.472-.504 1.735-2.235 3.48-3.848 4.211a282 282 0 0 0 13.594 11.766M127.152 151.938h17.946v-8.973H118.18v44.863h8.972v-17.945h11.215v-8.973h-11.215zM172.016 169.883v-8.973h-26.918v44.86h8.972v-17.942h11.215v-8.973H154.07v-8.972z" style="fill:#bf9142;fill-opacity:1;fill-rule:nonzero;stroke:none" transform="rotate(.113)scale(1.12889)" data-source="https://football-logos.cc"></path><!-- source: https://football-logos.cc --></svg>