<?xml version="1.0" encoding="UTF-8" standalone="no"?>
<svg
   xmlns:svg="http://www.w3.org/2000/svg"
   xmlns="http://www.w3.org/2000/svg"
   version="1.1"
   width="392.27927"
   height="483.47626"
   id="svg4234">
  <defs
     id="defs4236" />
  <g
     transform="translate(-153.86036,-290.62406)"
     id="layer1">
    <path
       d="m 541.13964,295.62406 -382.27928,0 c 0,0 0.45574,274.23985 0,304.44234 0.45078,150.2942 148.54555,45.71242 191.14211,169.03391 42.59162,-123.32149 190.68638,-18.73971 191.13717,-169.03391 -0.45574,-30.20249 0,-304.44234 0,-304.44234"
       id="path462"
       style="fill:#006eb8;fill-opacity:1;fill-rule:nonzero;stroke:none" />
    <path
       d="m 530.27675,306.46862 -360.55251,0 c 0.0793,51.85992 0.38639,266.85889 -0.0198,293.56409 0.21301,71.06529 33.3778,77.14342 79.27846,85.55475 34.44283,6.31592 76.17745,13.97429 101.01512,57.18511 24.84264,-43.21082 66.57726,-50.86919 101.0201,-57.18511 45.90065,-8.41133 79.06544,-14.48946 79.2735,-85.55475 -0.40125,-26.7052 -0.0941,-241.70417 -0.0149,-293.56409"
       id="path466"
       style="fill:#ffffff;fill-opacity:1;fill-rule:nonzero;stroke:none" />
    <path
       d="m 180.55096,317.31368 c 0,69.6733 0,283.01279 0,282.68584 0.18328,62.05456 25.12003,66.62185 70.38664,74.92419 31.21799,5.72149 71.3724,13.09254 99.06339,48.43694 27.69098,-35.3444 67.84045,-42.71545 99.0634,-48.43694 45.26658,-8.30234 70.19837,-12.86963 70.38166,-74.92419 0.005,0.32695 0.005,-213.01254 0.005,-282.68584 l -338.90005,0 z"
       id="path470"
       style="fill:#006eb8;fill-opacity:1;fill-rule:nonzero;stroke:none" />
    <path
       d="m 415.12682,374.74003 2.12017,0 0,-2.88303 1.283,0 0,-1.69415 -1.283,0 0,-6.66268 -1.45638,0 -4.63167,6.43976 0,1.91706 3.96788,0 0,2.88304 z m -2.99201,-4.57718 2.99201,-4.32455 0,4.32455 -2.99201,0 z m -5.75864,4.63117 c 2.11027,0 3.48738,-2.04586 3.48738,-5.79082 0,-3.63599 -1.44151,-5.67195 -3.50224,-5.67195 -2.04586,0 -3.50224,2.00623 -3.50224,5.54315 0,3.88862 1.31273,5.91962 3.5171,5.91962 m -0.0495,-10.39279 c 1.10467,0 1.33254,1.51583 1.33254,4.61683 0,3.13566 -0.24272,4.68121 -1.26814,4.68121 -1.08981,0 -1.33253,-1.49601 -1.33253,-4.61682 0,-3.13567 0.26255,-4.68122 1.26813,-4.68122 M 395.15612,374.797 c 1.72388,-0.15357 3.10099,-0.8124 4.28493,-2.02605 1.36225,-1.37217 2.07557,-3.10099 2.07557,-4.88432 0,-2.70965 -1.44646,-4.49792 -3.5171,-4.49792 -2.12512,0 -3.6558,1.65947 -3.6558,3.79451 0,1.9666 1.1542,3.25951 2.8434,3.25951 0.39134,0 0.8768,-0.109 1.49105,-0.35171 -0.43591,1.84276 -1.71891,3.15052 -3.91338,4.18584 l 0.39133,0.52013 z m 2.77405,-5.53324 c -0.80745,0 -1.24337,-0.81737 -1.24337,-2.41739 0,-1.59012 0.42106,-2.38767 1.24337,-2.38767 0.8124,0 1.29787,0.79755 1.29787,2.2886 0,1.63471 -0.48547,2.51646 -1.29787,2.51646 m -5.6125,4.43253 0.19815,0 0,0.90157 -5.80075,0 0,-0.90157 0.16348,0 c 1.38207,0 1.54554,-0.20804 1.54554,-1.35234 l 0,-6.81625 c 0,-0.50032 -0.25759,-0.59939 -0.87679,-0.59939 -0.24769,0 -0.50528,0 -0.81241,0.0199 l 0,-0.74305 c 0.89166,-0.0991 2.2242,-0.42106 4.00256,-0.8768 l 0,9.01567 c 0,1.15915 0.18329,1.35235 1.58022,1.35235 m -9.3233,-1.52629 c 0.71334,0 1.29787,0.55977 1.29787,1.283 0,0.72324 -0.58453,1.28795 -1.29787,1.28795 -0.73313,0 -1.29785,-0.56471 -1.29785,-1.28795 0,-0.72323 0.56472,-1.283 1.29785,-1.283 m -5.74673,-4.4043 c -1.32264,-0.88671 -1.97652,-1.65948 -1.97652,-2.41738 0,-0.68857 0.63903,-1.17403 1.58518,-1.17403 0.98082,0 1.74864,0.69351 1.74864,1.54555 0,0.69351 -0.44088,1.40189 -1.3573,2.04587 m -2.11522,1.30281 c -1.39198,1.06008 -2.12512,1.81798 -2.12512,2.86817 0,1.51087 1.46132,2.80378 3.49232,2.80378 2.13999,0 3.62609,-1.37218 3.62609,-3.12577 0,-1.22356 -0.70342,-2.20933 -2.08549,-3.28923 1.23347,-0.75297 1.85763,-1.65453 1.85763,-2.57095 0,-1.35732 -1.30778,-2.45207 -3.19016,-2.45207 -2.05578,0 -3.47253,1.30777 -3.47253,2.80377 0.0149,1.01551 0.64894,1.96166 1.89726,2.9623 m 0.77773,0.61425 c 1.51086,1.07495 2.35299,1.63966 2.35299,2.52637 0,0.83716 -0.69352,1.51581 -1.65453,1.51581 -1.08485,0 -1.84771,-0.77276 -1.84771,-1.95173 0,-0.77278 0.37152,-1.41675 1.14925,-2.09045 m -5.76706,2.48723 c 0.71332,0 1.29786,0.55977 1.29786,1.283 0,0.72324 -0.58454,1.28795 -1.29786,1.28795 -0.73314,0 -1.29787,-0.56471 -1.29787,-1.28795 0,-0.72323 0.56473,-1.283 1.29787,-1.283 m -6.11679,2.56997 2.12017,0 0,-2.88304 1.283,0 0,-1.69415 -1.283,0 0,-6.66268 -1.45638,0 -4.63168,6.43977 0,1.91706 3.96789,0 0,2.88304 z m -2.99201,-4.57719 2.99201,-4.32455 0,4.32455 -2.99201,0 z m -9.47884,3.68106 c 3.15549,-3.04155 4.62177,-5.58772 4.62177,-7.0342 0,-1.09476 -0.75296,-1.86752 -1.79323,-1.86752 -0.64893,0 -1.33253,0.32199 -2.13008,0.90156 l -0.52012,-0.57957 c 1.35235,-1.28797 2.53627,-1.96165 3.71028,-1.96165 1.70407,0 2.81864,1.07493 2.81864,2.76413 0,1.95175 -1.72882,3.69049 -4.46325,6.5537 l 2.53628,0 c 0.8124,0 1.26318,-0.17337 1.65452,-0.94615 l 0.66379,0.15852 -0.94119,2.7691 -6.15741,0 0,-0.75792 z m -13.81924,0.67915 4.28493,0 c 1.58021,0 2.74927,-0.30712 3.69542,-1.21365 1.08485,-1.04521 1.69416,-2.5759 1.69416,-4.2651 0,-3.27932 -2.06568,-5.38959 -5.54316,-5.38959 l -4.13135,0 0,0.89662 c 0.86689,0.109 1.00559,0.38639 1.00559,1.25823 l 0,2.62049 -1.47619,0 0,0.9511 1.47619,0 0,2.99202 c 0.01,0.86688 -0.12879,1.1443 -0.99568,1.25327 l -0.01,0.89661 z m 3.18025,-2.71956 0,-2.42234 2.13504,0 0,-0.9511 -2.13504,0 0,-3.14062 c 0,-0.535 0.16843,-0.7381 0.61921,-0.7381 2.17962,0 3.47748,1.73378 3.47748,4.8001 0,2.67002 -1.06504,4.21557 -2.79883,4.21557 -1.12943,0 -1.29786,-0.4607 -1.29786,-1.76351 m -12.56596,2.71956 2.60067,0 0,-0.89661 -0.0396,0 c -0.49538,0 -0.76286,-0.29226 -0.76286,-0.81735 0,-0.18329 0.0346,-0.38144 0.0891,-0.6093 l 0.3319,-1.49106 2.77405,0 0.37153,1.62976 c 0.0644,0.25759 0.0991,0.45574 0.0991,0.6093 0,0.43097 -0.25264,0.64397 -0.8025,0.67865 l 0,0.89661 3.95303,0 0,-0.89661 c -0.39629,-0.0644 -0.6737,-0.46069 -0.89167,-1.19879 l -2.55113,-8.77294 -2.27869,0 c 0.18825,0.22787 0.27741,0.43097 0.27741,0.64398 0,0.0891 -0.0248,0.19815 -0.0495,0.30712 l -2.17961,7.65342 c -0.21301,0.76782 -0.4062,1.21365 -0.9412,1.36721 l 0,0.89661 z m 2.49665,-4.76542 1.09476,-3.91339 1.06999,3.91339 -2.16475,0 z m -12.65464,3.86684 c 1.03533,-0.12388 1.12449,-0.64398 1.12449,-1.91708 l 0,-6.2961 c -0.38639,-0.56473 -0.70343,-0.85699 -1.09971,-0.85699 l -0.0248,0 0,-0.90157 2.4917,0 c 0.21796,0 0.2675,0.0149 0.46068,0.29722 l 4.66635,6.60819 0,-4.47316 c 0,-0.93624 -0.33188,-1.37712 -1.13933,-1.53068 l 0,-0.90157 3.08117,0 0,0.90157 c -0.85202,0.16843 -1.09476,0.56968 -1.09476,1.53068 l 0,6.85092 c 0,0.6093 0.0248,1.21365 0.0545,1.80809 l -0.90158,-0.005 -5.6769,-7.99523 0,4.96358 c 0,1.32262 0.2031,1.77836 1.35235,1.91707 l 0,0.89662 -3.29418,0 0,-0.89662 z m -8.46234,-7.965 c -0.24273,-0.69352 -0.44583,-1.06009 -0.93129,-1.10468 l -0.0149,-0.90156 3.90349,0 0,0.76286 c -0.44583,0 -0.68856,0.22788 -0.68856,0.62911 0,0.12388 0.0495,0.37153 0.15356,0.67866 l 1.75855,5.07255 c 1.06009,-3.12081 1.67434,-4.88927 1.67434,-5.39453 0,-0.52509 -0.34676,-0.8768 -1.01055,-1.00065 l 0,-0.748 2.98706,0 0,0.76286 c -0.77772,0.0744 -1.03531,1.21365 -1.65947,3.12081 -1.26319,3.82919 -2.14494,6.18218 -2.34804,7.21254 l -0.68856,0 -3.13567,-9.08998 z m -6.21536,9.09195 c 1.47123,0 2.68488,-0.66874 3.59636,-2.01119 0.65883,-0.9511 1.04027,-2.3084 1.04027,-3.78955 0,-1.63472 -0.45574,-3.00688 -1.33254,-4.04219 -0.83717,-0.97588 -1.91211,-1.48115 -3.12576,-1.48115 -1.38207,0 -2.59077,0.62416 -3.46757,1.82295 -0.76286,1.05017 -1.16906,2.38766 -1.16906,3.91835 0,1.55545 0.39629,2.86321 1.14429,3.85395 0.88671,1.14925 1.98147,1.72882 3.31401,1.72882 m -2.0855,-5.9543 c 0,-2.93257 0.75296,-4.40876 2.16475,-4.40876 1.37712,0 2.18457,1.70901 2.18457,4.97844 0,2.95734 -0.70342,4.42361 -2.14989,4.42361 -1.38207,0 -2.19943,-1.72387 -2.19943,-4.99329 m -6.58589,3.45419 c 0,0.43098 0.0149,0.75296 0.11393,0.93625 0.17834,0.3517 0.58949,0.52013 1.19879,0.52013 l 0.0793,0 0,0.81736 -5.00815,0 0,-0.81736 0.0793,0 c 0.6093,0 1.0155,-0.16843 1.19383,-0.52013 0.10403,-0.18329 0.11889,-0.50527 0.11889,-0.93625 l 0,-7.61377 -0.88175,0 c -1.04523,0 -1.53068,0.5548 -1.89726,1.9666 l -0.70342,0 0.2675,-2.94743 8.74322,0 0.2031,2.94743 -0.68856,0 c -0.28236,-1.42665 -0.81735,-1.9666 -1.99137,-1.9666 l -0.82726,0 0,7.1085 0,0.50527 z m -13.1287,-0.90751 0.69846,0 c 0.27246,1.50591 1.12449,2.36785 2.31337,2.36785 0.88175,0 1.50591,-0.66379 1.50591,-1.52573 0,-1.10466 -0.99569,-1.53563 -2.45206,-2.55113 -1.37217,-0.97092 -2.06568,-1.73874 -2.06568,-3.22979 0,-1.84276 1.16411,-3.06136 3.23474,-3.06136 0.96101,0 1.82295,0.32693 2.66507,1.00558 l 0,2.1499 -0.64893,0 c -0.2675,-1.39693 -1.12943,-2.22915 -2.14493,-2.22915 -0.83222,0 -1.38703,0.56967 -1.38703,1.33749 0,0.90651 0.65388,1.30776 1.81304,2.03595 0.56472,0.35171 1.17402,0.68856 1.73378,1.24338 0.6737,0.65883 1.03037,1.50591 1.03037,2.3629 0,2.031 -1.18393,3.44278 -3.20998,3.44278 -0.84212,0 -1.86258,-0.213 -3.08613,-0.64397 l 0,-2.7047 z m 214.79092,-19.5536 c -4.17099,0 -6.94505,-3.4428 -6.94505,-8.5203 0,-2.54124 0.7282,-4.70599 2.12512,-6.3506 1.33749,-1.57031 3.13568,-2.41244 5.12209,-2.41244 1.75856,0 3.47747,0.535 5.29052,1.6149 l 0,3.57159 -0.93625,0 c -0.99072,-2.5115 -2.41243,-3.82918 -4.01742,-3.82918 -2.39758,0 -4.14126,2.53628 -4.14126,6.7023 0,4.58214 1.83781,7.47013 4.23043,7.47013 0.50528,0 1.10467,-0.16346 1.7635,-0.51518 l 0,-3.19511 c 0,-1.43656 -0.15356,-1.81305 -1.48115,-1.90716 l 0,-1.24338 6.32088,0 0,1.24338 c -1.34739,0.11887 -1.73873,0.56471 -1.73873,1.88239 l 0,4.20566 c -2.31832,0.72324 -4.13136,1.283 -5.59268,1.283 m -20.22285,-0.31059 3.80937,0 0,-1.35731 -0.0545,0 c -0.72819,0 -1.11952,-0.44583 -1.11952,-1.24336 0,-0.28237 0.0545,-0.58949 0.1288,-0.9412 l 0.48546,-2.27869 4.07191,0 0.53994,2.4917 c 0.0941,0.40124 0.14861,0.70341 0.14861,0.94119 0,0.65388 -0.37152,0.98578 -1.17401,1.03036 l 0,1.35731 5.79084,0 0,-1.35731 c -0.57959,-0.0941 -0.99074,-0.70341 -1.31273,-1.83285 l -3.73011,-13.41453 -3.34373,0 c 0.28237,0.35667 0.41117,0.66379 0.41117,0.99073 0,0.13871 -0.0396,0.30714 -0.0743,0.4706 l -3.19507,11.69562 c -0.31703,1.17401 -0.59938,1.85761 -1.38207,2.09044 l 0,1.35731 z m 3.66076,-7.28189 1.60499,-5.96917 1.57031,5.96917 -3.1753,0 z m -10.76085,-7.9967 c -1.28795,0.18825 -1.45638,0.60931 -1.45638,1.9468 l 0,9.16922 c 0,2.22915 0.24273,2.83845 2.16475,2.83845 2.14989,0 3.2496,-0.79754 4.54252,-3.45765 l 1.02541,0 -0.8025,4.78029 -11.65598,0 0,-1.35235 c 1.2731,-0.16843 1.4762,-0.58949 1.4762,-1.92698 l 0,-10.04603 c 0,-1.34244 -0.18825,-1.7635 -1.4762,-1.95175 l 0,-1.32758 6.18218,0 0,1.32758 z m -18.5802,13.92376 c 1.26814,-0.16346 1.47619,-0.58949 1.47619,-1.92698 l 0,-10.04602 c 0,-1.33749 -0.20805,-1.75855 -1.47619,-1.92203 l 0,-1.35235 10.39774,0 0,3.41308 -1.01055,0 c -0.53499,-1.49105 -1.46133,-2.12018 -2.97715,-2.12018 -1.59508,0 -1.6892,0.18825 -1.6892,1.16412 l 0,4.57223 1.40683,0 c 1.2186,0 1.818,-0.58453 1.98148,-1.93688 l 1.07494,0 0,5.50847 -1.07494,0 c -0.109,-1.38702 -0.8025,-2.15979 -1.98148,-2.15979 l -1.40683,0 0,4.55737 c 0,1.5505 0.49041,1.99632 1.70406,1.99632 1.68425,0 3.07127,-0.98577 3.97284,-2.84835 l 1.04522,0 -0.78267,4.45334 -10.66029,0 0,-1.35235 z m -12.10478,0 c 1.27309,-0.16346 1.47619,-0.58949 1.47619,-1.92698 l 0,-10.04602 c 0,-1.33749 -0.2031,-1.75855 -1.47619,-1.92203 l 0,-1.35235 11.30427,0 0,3.67562 -0.90653,0 c -0.70342,-1.72388 -1.95175,-2.35299 -4.06696,-2.35299 -1.51581,0 -1.60994,0.18329 -1.60994,1.13935 l 0,4.56727 1.40684,0 c 1.2186,0 1.818,-0.58453 1.98147,-1.93192 l 1.07494,0 0,5.50847 -1.07494,0 c -0.109,-1.38702 -0.8025,-2.16475 -1.98147,-2.16475 l -1.40684,0 0,4.56728 c 0,1.76846 0.15356,2.21429 1.78333,2.28364 l 0,1.30776 -6.50417,0 0,-1.35235 z m -8.81406,-2.04784 0,-4.02237 0.57958,0 3.3784,7.14317 c 0.0941,0.21301 0.28236,0.28236 0.55976,0.28236 l 3.39822,0 0,-1.3573 c -0.76287,-0.28236 -1.28796,-0.96596 -1.84772,-2.04586 l -2.5016,-4.84469 c 1.73379,-0.52013 2.7047,-1.99137 2.7047,-3.93816 0,-1.37712 -0.48545,-2.5016 -1.43656,-3.34372 -1.0799,-0.96102 -2.35299,-1.07495 -3.97779,-1.07495 l -5.48866,0 0,1.35235 c 1.26813,0.16347 1.47618,0.58453 1.47618,1.92202 l 0,9.92715 c 0,1.41179 -0.13375,1.88239 -1.47618,2.04586 l 0,1.3573 6.10786,0 0,-1.3573 c -1.34739,-0.16347 -1.47619,-0.63407 -1.47619,-2.04586 m 0,-5.54811 0,-5.6125 c 0,-0.35171 0.14861,-0.49041 0.48546,-0.49041 1.6991,0 2.48179,0.93625 2.48179,2.96725 0,2.1053 -0.81736,3.18025 -2.38767,3.18025 -0.18824,0 -0.37153,-0.0248 -0.57958,-0.0446 m -18.28299,8.95131 3.80938,0 0,-1.35235 -0.0545,0 c -0.72819,0 -1.11953,-0.45079 -1.11953,-1.24833 0,-0.28235 0.0545,-0.58948 0.1288,-0.94118 l 0.48547,-2.27869 4.07191,0 0.53994,2.49169 c 0.0941,0.40125 0.14861,0.70342 0.14861,0.9412 0,0.65883 -0.37153,0.98577 -1.17401,1.03531 l 0,1.35235 5.79083,0 0,-1.35235 c -0.57958,-0.0991 -0.99073,-0.70838 -1.31272,-1.83781 l -3.73506,-13.41453 -3.33878,0 c 0.27741,0.35668 0.41115,0.6638 0.41115,0.99074 0,0.1387 -0.0396,0.30217 -0.0743,0.4706 l -3.19511,11.6956 c -0.31704,1.17402 -0.5994,1.85762 -1.38208,2.0954 l 0,1.35235 z m 3.66077,-7.28189 1.60498,-5.96916 1.57032,5.96916 -3.1753,0 z m -8.6169,3.80986 c 0,0.65884 0.0199,1.14925 0.16842,1.43162 0.26254,0.53995 0.85699,0.79753 1.7536,0.79753 l 0.11388,0 0,1.24338 -7.32152,0 0,-1.24338 0.11388,0 c 0.89661,0 1.49105,-0.25758 1.7536,-0.79753 0.1486,-0.28237 0.16841,-0.77278 0.16841,-1.43162 l 0,-11.63615 -1.28795,0 c -1.53067,0 -2.23905,0.84212 -2.78396,3.00192 l -1.0254,0 0.39134,-4.49793 12.79531,0 0.29722,4.49793 -1.01055,0 c -0.41115,-2.17962 -1.19383,-3.00192 -2.91275,-3.00192 l -1.21365,0 0,10.86339 0,0.77276 z m -14.47808,0 c 0,0.65884 0.0199,1.14925 0.16843,1.43162 0.26253,0.53995 0.85697,0.79753 1.75358,0.79753 l 0.11388,0 0,1.24338 -7.32151,0 0,-1.24338 0.11387,0 c 0.89661,0 1.496,-0.25758 1.75359,-0.79753 0.14861,-0.28237 0.16842,-0.77278 0.16842,-1.43162 l 0,-11.63615 -1.28795,0 c -1.53067,0 -2.23905,0.84212 -2.78396,3.00192 l -1.0254,0 0.39134,-4.49793 12.79531,0 0.29723,4.49793 -1.01055,0 c -0.41115,-2.17962 -1.19384,-3.00192 -2.91275,-3.00192 l -1.21365,0 0,10.86339 0,0.77276 z m -16.31341,3.81135 c 2.14494,0 3.9134,-1.0254 5.26079,-3.07127 0.97092,-1.45638 1.53068,-3.527 1.53068,-5.78093 0,-2.49663 -0.66875,-4.58708 -1.96165,-6.16235 -1.23346,-1.50096 -2.79882,-2.26878 -4.56728,-2.26878 -2.01119,0 -3.7846,0.95606 -5.07255,2.78396 -1.12448,1.60004 -1.71892,3.6459 -1.71892,5.97412 0,2.37775 0.57958,4.37409 1.67929,5.88 1.31273,1.75855 2.91275,2.64525 4.84964,2.64525 m -1.65453,-18.55147 0.81735,0 2.86323,-1.89725 c 0.55976,-0.37648 0.85699,-0.63408 0.85699,-1.22355 0,-0.60931 -0.3319,-1.03036 -0.81737,-1.03036 -0.39628,0 -0.76781,0.30712 -1.23346,0.91642 l -2.48674,3.23474 z m -1.37711,9.4615 c 0,-4.4682 1.09475,-6.72708 3.14558,-6.72708 2.01118,0 3.1852,2.61059 3.1852,7.59893 0,4.51774 -1.0254,6.74689 -3.13072,6.74689 -2.01118,0 -3.20006,-2.63039 -3.20006,-7.61874 m -12.30491,5.34749 0,-4.02238 0.57959,0 3.37838,7.14318 c 0.0941,0.21301 0.28237,0.28236 0.55978,0.28236 l 3.39821,0 0,-1.3573 c -0.76782,-0.28236 -1.28795,-0.96596 -1.84772,-2.04586 l -2.5016,-4.84469 c 1.73378,-0.52014 2.7047,-1.99138 2.7047,-3.93816 0,-1.37713 -0.48545,-2.5016 -1.43657,-3.34373 -1.08485,-0.96101 -2.35298,-1.07495 -3.97778,-1.07495 l -5.48867,0 0,1.35235 c 1.26814,0.16348 1.47124,0.58454 1.47124,1.92203 l 0,9.92715 c 0,1.41178 -0.12879,1.88238 -1.47124,2.04586 l 0,1.3573 6.10788,0 0,-1.3573 c -1.3474,-0.16348 -1.4762,-0.63408 -1.4762,-2.04586 m 0,-5.54812 0,-5.6125 c 0,-0.35171 0.14861,-0.49041 0.48546,-0.49041 1.69911,0 2.48179,0.93625 2.48179,2.96725 0,2.1053 -0.82231,3.18025 -2.38766,3.18025 -0.18825,0 -0.37649,-0.0247 -0.57959,-0.0446 m -10.80295,5.47929 c 0,0.65884 0.0199,1.14925 0.16842,1.43161 0.26255,0.53995 0.85699,0.79754 1.7536,0.79754 l 0.11388,0 0,1.24337 -7.32153,0 0,-1.24337 0.11388,0 c 0.89661,0 1.496,-0.25759 1.7536,-0.79754 0.1486,-0.28236 0.16842,-0.77277 0.16842,-1.43161 l 0,-11.63615 -1.28796,0 c -1.53067,0 -2.23905,0.84211 -2.78395,3.00191 l -1.02541,0 0.39134,-4.49792 12.79531,0 0.29722,4.49792 -1.01055,0 C 353.22867,337.1943 352.446,336.372 350.72707,336.372 l -1.21365,0 0,10.86339 0,0.77276 z m -15.63426,2.1167 c 1.27308,-0.16346 1.47618,-0.58949 1.47618,-1.92698 l 0,-10.04602 c 0,-1.33749 -0.2031,-1.75855 -1.47618,-1.92203 l 0,-1.3573 6.14255,0 0,1.3573 c -1.26814,0.16348 -1.4762,0.58454 -1.4762,1.92203 l 0,10.04602 c 0,1.33749 0.20806,1.76352 1.4762,1.92698 l 0,1.35235 -6.14255,0 0,-1.35235 z m 3.77468,-20.09206 c 0.46565,-0.6093 0.84213,-0.91643 1.23347,-0.91643 0.48546,0 0.82231,0.42106 0.82231,1.03036 0,0.58949 -0.29721,0.84708 -0.86194,1.22355 l -2.85826,1.89727 -0.82231,0 2.48673,-3.23475 z m -17.31305,18.04422 0,-4.02237 0.57958,0 3.3784,7.14317 c 0.0941,0.21301 0.2774,0.28236 0.55976,0.28236 l 3.39821,0 0,-1.3573 c -0.76286,-0.28236 -1.28795,-0.96596 -1.84771,-2.04586 l -2.5016,-4.84469 c 1.73378,-0.51517 2.7047,-1.99137 2.7047,-3.93816 0,-1.37712 -0.48546,-2.5016 -1.43656,-3.34372 -1.08485,-0.96102 -2.35299,-1.07495 -3.9778,-1.07495 l -5.48865,0 0,1.35235 c 1.26814,0.16347 1.47619,0.58453 1.47619,1.92202 l 0,9.92715 c 0,1.41179 -0.13375,1.88239 -1.47619,2.04586 l 0,1.3573 6.10786,0 0,-1.3573 c -1.3474,-0.16347 -1.47619,-0.63407 -1.47619,-2.04586 m 0,-5.54811 0,-5.6125 c 0,-0.35171 0.14862,-0.49041 0.48545,-0.49041 1.69912,0 2.48179,0.93625 2.48179,2.96725 0,2.1053 -0.8223,3.18025 -2.38766,3.18025 -0.18824,0 -0.37648,-0.0247 -0.57958,-0.0446 m -18.28596,8.95131 3.80937,0 0,-1.35235 -0.0545,0 c -0.72819,0 -1.12448,-0.45079 -1.12448,-1.24833 0,-0.28235 0.0594,-0.58948 0.13375,-0.94118 l 0.48546,-2.27869 4.07191,0 0.53995,2.49169 c 0.0941,0.40125 0.14861,0.70342 0.14861,0.9412 0,0.65883 -0.37153,0.98577 -1.17402,1.03531 l 0,1.35235 5.79084,0 0,-1.35235 c -0.57958,-0.0991 -0.99074,-0.70838 -1.31273,-1.83781 l -3.73011,-13.41453 -3.34372,0 c 0.27741,0.35668 0.41116,0.6638 0.41116,0.99074 0,0.1387 -0.0396,0.30217 -0.0743,0.4706 l -3.19512,11.6956 c -0.31703,1.17402 -0.59939,1.85762 -1.38207,2.0954 l 0,1.35235 z m 3.66076,-7.28189 1.60499,-5.96916 1.57031,5.96916 -3.1753,0 z m -17.02129,5.93103 c 1.26814,-0.16348 1.47619,-0.58454 1.47619,-1.92698 l 0,-10.05099 c 0,-1.33748 -0.18824,-1.7635 -1.47619,-1.95173 l 0,-1.32759 6.14255,0 0,1.32759 c -1.28796,0.18823 -1.4762,0.61425 -1.4762,1.95173 l 0,4.5326 3.66076,-4.23042 c 0.37648,-0.42106 0.55977,-0.77278 0.55977,-1.19384 0,-0.58949 -0.39134,-0.98577 -1.17402,-1.06007 l 0,-1.32759 5.58278,0 0,1.32759 c -1.40189,0.23777 -2.27869,1.06007 -3.24961,2.25391 l -2.5759,3.15052 c -0.0941,0.11888 -0.15357,0.23283 -0.15357,0.30714 0,0.0891 0.0941,0.20805 0.24769,0.39629 l 5.0032,6.32087 c 0.78763,0.98579 1.27309,1.52574 1.77341,1.52574 0.0793,0 0.13375,0 0.20806,-0.0248 l 0,1.35235 -3.82919,0 -6.05338,-7.64846 0,4.36914 c 0,1.34243 0.20806,1.7635 1.4762,1.92697 l 0,1.35235 -6.14255,0 0,-1.35235 z m -7.30467,-0.005 c 1.27309,-0.16347 1.47619,-0.58949 1.47619,-1.92698 l 0,-10.04602 c 0,-1.33749 -0.2031,-1.75855 -1.47619,-1.92203 l 0,-1.3573 6.14254,0 0,1.3573 c -1.26814,0.16348 -1.47619,0.58454 -1.47619,1.92203 l 0,10.04602 c 0,1.33749 0.20805,1.76351 1.47619,1.92698 l 0,1.35235 -6.14254,0 0,-1.35235 z m 3.77469,-20.09207 c 0.46565,-0.6093 0.84212,-0.91642 1.23346,-0.91642 0.48546,0 0.82231,0.42106 0.82231,1.03036 0,0.58949 -0.29722,0.84708 -0.86194,1.22355 l -2.85826,1.89726 -0.82231,0 2.48674,-3.23475 z m -16.16579,7.88626 c -0.35666,-1.05514 -0.65388,-1.61985 -1.36226,-1.6892 l -0.01,-1.35235 5.71653,0 0,1.17897 c -0.65389,0 -1.01055,0.35171 -1.01055,0.96101 0,0.18824 0.0743,0.56472 0.22787,1.03532 l 2.5759,7.73267 c 1.5505,-4.75552 2.44711,-7.45527 2.44711,-8.22804 0,-0.79755 -0.50527,-1.3375 -1.47619,-1.52573 l 0,-1.1542 4.36913,0 0,1.17897 c -1.13934,0.11888 -1.51086,1.85266 -2.42729,4.76046 -1.84772,5.83543 -3.13567,9.42188 -3.43784,11.0021 l -1.0056,0 -4.60691,-13.89998 z m -11.93585,8.70012 1.0155,0 c 0.39629,2.30345 1.64957,3.61618 3.3883,3.61618 1.29291,0 2.20934,-1.0056 2.20934,-2.32328 0,-1.69415 -1.46133,-2.34804 -3.56664,-3.87871 -2.0211,-1.48115 -3.0465,-2.65518 -3.0465,-4.93385 0,-2.81864 1.71892,-4.67626 4.74561,-4.67626 1.40188,0 2.65516,0.49536 3.89853,1.52572 l 0,3.28924 -0.96101,0 c -0.39629,-2.13504 -1.64462,-3.40318 -3.12081,-3.40318 -1.2186,0 -2.02109,0.8669 -2.02109,2.04092 0,1.38702 0.9511,1.99632 2.63039,3.08118 0.82231,0.53995 1.71892,1.05513 2.54123,1.9022 0.99569,1.01055 1.52078,2.30345 1.52078,3.62113 0,3.101 -1.74369,5.25585 -4.71589,5.25585 -1.23842,0 -2.73443,-0.32695 -4.51774,-0.98579 l 0,-4.13135 z m -15.4812,3.5107 c 1.27309,-0.16347 1.47619,-0.58454 1.47619,-1.92697 l 0,-10.05099 c 0,-1.33749 -0.18824,-1.7635 -1.47619,-1.95174 l 0,-1.32758 6.14255,0 0,1.32758 c -1.28796,0.18824 -1.4762,0.61425 -1.4762,1.95174 l 0,4.5326 3.66076,-4.23042 c 0.37648,-0.42107 0.55977,-0.77278 0.55977,-1.19384 0,-0.58949 -0.39134,-0.98578 -1.17402,-1.06008 l 0,-1.32758 5.58278,0 0,1.32758 c -1.39694,0.23778 -2.27869,1.06008 -3.24961,2.25392 l -2.5759,3.15052 c -0.0941,0.11888 -0.14861,0.23282 -0.14861,0.30714 0,0.0891 0.0892,0.20805 0.24273,0.39629 l 5.0032,6.32087 c 0.78763,0.98579 1.27309,1.52574 1.77837,1.52574 0.0743,0 0.12879,0 0.2031,-0.0248 l 0,1.35235 -3.82919,0 -6.05338,-7.64847 0,4.36914 c 0,1.34244 0.20806,1.7635 1.4762,1.92698 l 0,1.35235 -6.14255,0 0,-1.35235 z m -13.64982,1.35086 3.80937,0 0,-1.35234 -0.0545,0 c -0.72819,0 -1.12449,-0.45079 -1.12449,-1.24833 0,-0.28235 0.0594,-0.58949 0.13375,-0.94119 l 0.48546,-2.27868 4.07191,0 0.53995,2.49168 c 0.0941,0.40125 0.14861,0.70343 0.14861,0.9412 0,0.65884 -0.37152,0.98578 -1.17401,1.03532 l 0,1.35234 5.78588,0 0,-1.35234 c -0.57463,-0.0991 -0.98578,-0.70838 -1.30282,-1.83782 l -3.74002,-13.41452 -3.33877,0 c 0.27741,0.35667 0.41116,0.6638 0.41116,0.99074 0,0.1387 -0.0396,0.30217 -0.0743,0.4706 l -3.19511,11.6956 c -0.31704,1.17402 -0.5994,1.85762 -1.38208,2.0954 l 0,1.35235 z m 3.66076,-7.28188 1.60498,-5.96917 1.57032,5.96917 -3.1753,0 z m -10.77472,-7.9967 c -1.28795,0.18823 -1.45638,0.6093 -1.45638,1.94678 l 0,9.16924 c 0,2.22915 0.24273,2.83845 2.16475,2.83845 2.14989,0 3.24961,-0.79754 4.54251,-3.45766 l 1.02541,0 -0.80249,4.78029 -11.65597,0 0,-1.35235 c 1.27309,-0.16347 1.47619,-0.58949 1.47619,-1.92698 l 0,-10.05099 c 0,-1.33748 -0.18824,-1.75854 -1.47619,-1.94678 l 0,-1.32758 6.18217,0 0,1.32758 z m -21.13235,13.92772 c 1.26814,-0.16347 1.47619,-0.58454 1.47619,-1.92697 l 0,-10.05099 c 0,-1.33749 -0.18824,-1.7635 -1.47619,-1.95174 l 0,-1.32758 6.14254,0 0,1.32758 c -1.28795,0.18824 -1.47619,0.61425 -1.47619,1.95174 l 0,4.5326 3.66076,-4.23042 c 0.37648,-0.42107 0.55976,-0.77278 0.55976,-1.19384 0,-0.58949 -0.39133,-0.98578 -1.17401,-1.06008 l 0,-1.32758 5.58278,0 0,1.32758 c -1.40189,0.23778 -2.27869,1.06008 -3.24961,2.25392 l -2.5759,3.15052 c -0.0941,0.11888 -0.14861,0.23282 -0.14861,0.30714 0,0.0891 0.0892,0.20805 0.24273,0.39629 l 5.0032,6.32087 c 0.78763,0.98579 1.27309,1.52574 1.77838,1.52574 0.0743,0 0.12879,0 0.2031,-0.0248 l 0,1.35235 -3.8292,0 -6.05338,-7.64847 0,4.36914 c 0,1.34244 0.20806,1.7635 1.47619,1.92698 l 0,1.35235 -6.14254,0 0,-1.35235 z m 217.33018,52.8244 -36.4144,-0.41116 36.4144,-13.83558 0,14.24674 z m -85.99414,70.98404 0,34.3289 -39.76307,-39.75812 0,-79.80354 39.76307,0 0,45.01395 26.57642,-45.01395 25.33303,0 -46.05422,59.84522 35.36421,56.21419 -22.35589,22.34599 -18.86355,-53.17264 z m 49.58024,-66.83931 0,89.30962 36.38466,-36.3698 0.0297,-52.93982 -36.41438,0 z m -30.60126,197.2807 31.44091,-31.67374 0,110.81845 c -11.06649,5.66204 -21.7565,13.07271 -31.44091,23.03454 l 0,0 c -9.68443,-9.96183 -20.37443,-17.37746 -31.44091,-23.03454 l 0,-110.72432 31.44091,31.57961 z m 158.60495,-158.46725 -69.23241,68.96492 -0.005,150.81434 c 2.62545,-0.49537 5.21126,-0.97092 7.73762,-1.43656 61.34124,-11.23988 61.38583,-25.68476 61.49975,-64.28371 0,0.29721 0,-77.00473 0,-154.05899 M 350.0005,544.81075 191.39405,386.27364 l 0,37.76676 158.60645,158.70056 158.60644,-158.70056 0,-37.76676 L 350.0005,544.81075 z M 191.39453,445.91181 c 0,77.05426 0,154.35125 0,154.05404 0.11889,38.6039 0.15852,53.04878 61.49977,64.28866 2.52637,0.46564 5.11218,0.93624 7.73762,1.4316 l -0.005,-150.80937 -69.23244,-68.96493 z"
       id="path654"
       style="fill:#ffffff;fill-opacity:1;fill-rule:nonzero;stroke:none" />
  </g>
</svg>
