<svg xmlns="http://www.w3.org/2000/svg" xml:space="preserve" viewBox="0 0 735.92 735.91"><metadata xmlns:fl="https://football-logos.cc/northern-ireland/larne">dl1_41fc2a0b56fc6b487db80b82eb3a87d5de4c38d6b00ad66363d6e9000a7845c6</metadata><!-- Source: https://football-logos.cc --><path d="M572.58 401.068c0-152.417-123.557-275.96-275.969-275.96S20.641 248.65 20.641 401.067s123.558 275.97 275.97 275.97 275.97-123.554 275.97-275.97" style="fill:#d91920;fill-opacity:1;fill-rule:nonzero;stroke:none" transform="matrix(1.33333 0 0 -1.33333 -27.522 902.717)" data-source="https://football-logos.cc"></path><path d="M552.202 401.068c0-141.162-114.434-255.584-255.59-255.584-141.16 0-255.593 114.422-255.593 255.584S155.453 656.661 296.61 656.661c141.157 0 255.591-114.43 255.591-255.593" style="fill:#fff;fill-opacity:1;fill-rule:nonzero;stroke:none" transform="matrix(1.33333 0 0 -1.33333 -27.522 902.717)"></path><path d="m147.844 273.604-5.266-4.004-8.717 11.462-5.804-4.413 8.286-10.897-5.267-4.006-8.286 10.898-10.534-8.011-4.196 5.52 26.87 20.433zM150.787 229.795q-6.857-.398-11.865 4.333-5.009 4.73-5 11.599.007 6.868 5.115 12.274 5.107 5.408 11.964 5.806 6.857.4 11.866-4.331t5-11.6q-.008-6.869-5.116-12.275t-11.964-5.806m6.81 10.64q3.102 3.284 3.352 7.431.25 4.149-2.576 6.82-2.828 2.67-6.956 2.184-4.127-.485-7.229-3.768-3.1-3.282-3.333-7.415-.235-4.129 2.594-6.8 2.826-2.672 6.937-2.202 4.11.466 7.212 3.75M186.613 204.813q-6.653-1.71-12.478 1.968t-7.139 10.42 2.658 13.03q3.97 6.289 10.622 8 6.652 1.713 12.477-1.966t7.14-10.421-2.658-13.031q-3.97-6.288-10.622-8m4.635 11.752c1.607 2.544 2.227 5.193 1.858 7.938q-.553 4.119-3.84 6.195-3.29 2.077-7.246.805-3.957-1.27-6.369-5.089-2.412-3.818-1.844-7.916.565-4.099 3.855-6.176 3.286-2.076 7.231-.825 3.943 1.25 6.355 5.068M222.721 212.89l-10.397-25.176-6.408 2.647 10.396 25.176-8.134 3.359 2.488 6.026 22.677-9.365-2.489-6.026zM245.018 177.4l-13.201 3.275 8.131 32.765 11.734-2.913q3.062-.76 5.086-2.108t2.81-2.985q1.396-3.035.607-6.222-.955-3.843-3.705-5.151-.941-.465-1.284-.553a30 30 0 0 0-1.21-.27q2.638-1.353 3.783-3.851 1.143-2.499.376-5.591-.85-3.423-3.658-5.513-3.26-2.424-9.47-.884m-4.935 7.793 4.616-1.145q2.889-.719 4.527-.302 1.636.413 2.2 2.688.565 2.272-.786 3.379-1.352 1.108-4.716 1.943l-3.968.984zm3.304 13.312 3.192-.792q2.802-.697 4.325-.377 1.522.32 2.062 2.499.54 2.178-.535 3.193-1.076 1.013-4.053 1.753l-3.234.802zM291.469 171.624l-2.43 7.458-12.997.812-3.338-7.1-7.364.458 15.498 32.858 6.697-.418 11.298-34.527zm-7.885 24.251-4.513-9.542 7.763-.484zM311.222 172.048l-3.395 33.588 6.9.697 2.718-26.908 13.178 1.33.675-6.678zM341.275 175.932l-7.8 32.843 6.746 1.604 6.25-26.313 12.885 3.06 1.552-6.53zM399.022 203.324q4.557 2.317 5.457 7.706l6.216-2.419q-1.78-8.167-8.177-11.42-6.398-3.255-12.77-.97-6.374 2.284-9.778 8.977-3.406 6.693-1.465 13.318 1.94 6.624 8.04 9.727 6.815 3.465 14.28.164l-1.434-6.69q-4.947 2.469-9.304.253-3.488-1.775-4.702-5.51-1.218-3.734.917-7.93 2.135-4.197 5.765-5.548 3.628-1.352 6.955.342M423.526 209.847l-19.75 27.377 5.622 4.056 15.824-21.931 10.74 7.748 3.928-5.446zM447.46 240.04q2.875-.464 4.974 1.584 2.096 2.048 1.685 4.92t-3.248 5.776l-13.024 13.335 4.959 4.844L456 256.992q5.13-5.251 5.21-10.676c.053-3.618-1.31-6.78-4.088-9.494q-4.164-4.07-9.617-3.86-5.454.208-10.55 5.428l-13.195 13.506 4.96 4.845 13.025-13.336q2.837-2.902 5.714-3.366M482.219 266.352l-8.1-10.926L447 275.532l7.2 9.711q1.88 2.536 3.903 3.885 2.022 1.349 3.834 1.445 3.34.123 5.978-1.832 3.18-2.36 3.331-5.4c.043-.7.05-1.164.016-1.4-.035-.232-.104-.64-.215-1.221q2.264 1.918 5.01 2.011 2.746.096 5.304-1.802 2.834-2.1 3.682-5.496.986-3.941-2.825-9.081m-20.11 6.61 1.96 2.642q1.719 2.32 2.01 3.848t-1.513 2.863q-1.803 1.338-3.154.734-1.35-.6-3.176-3.067l-1.985-2.676zm11.018-8.169 2.832 3.82q1.774 2.393 2.021 4.062.246 1.673-1.635 3.065-1.882 1.395-3.422.574-1.542-.821-3.607-3.606l-2.435-3.285zM161.14 515.973l-46.833 49.31 10.885 10.338 37.52-39.505 20.796 19.752 9.312-9.806zM247.979 572.113l-11.39 11.19-26.064-10.766-.173-15.967-14.766-6.099.9 73.95 13.433 5.55 52.825-51.76zm-37.005 36.4-.288-21.49 15.565 6.43zM407.138 619.915l13.81-5.887-26.667-62.559-13.81 5.887-12.772 51.768-16.71-39.2-13.811 5.886 26.668 62.56 12.925-5.51 13.2-53.22zM479.606 564.553l-9.314-9.803-20.491 19.538-9.653-10.155 18.051-17.217-8.915-9.38-18.05 17.217-9.716-10.225 21.258-20.266-9.25-9.733-32.14 30.609 46.847 49.295zM133.365 359.45c4.66.978 9.722 1.571 15.398 1.566 31.286.033 43.885-18.165 73.924-18.283 30.038.118 42.637 18.316 73.923 18.283h.001c31.286.033 43.885-18.165 73.923-18.283 30.04.118 42.638 18.316 73.924 18.283 5.886.006 11.11-.633 15.912-1.676l.057.264a168 168 0 0 1 2.98 14.458l.036.257c-5.687 1.723-11.749 2.838-18.997 2.83-13.647.014-22.906-3.89-33.628-8.412-10.896-4.594-23.248-9.803-40.24-9.87h-.086c-16.993.067-29.344 5.276-40.241 9.87-10.72 4.522-19.98 8.426-33.652 8.411-13.648.015-22.907-3.89-33.628-8.41-10.897-4.595-23.248-9.804-40.242-9.87h-.085c-16.994.066-29.345 5.275-40.242 9.87-10.72 4.52-19.98 8.425-33.65 8.41-7.095.008-13.056-1.064-18.646-2.73l-.336-.07c.808-5.08 1.84-10.084 3.09-15.002z" style="fill:#d91920;fill-opacity:1;fill-rule:nonzero;stroke:none" transform="matrix(1.33333 0 0 -1.33333 -27.522 902.717)" data-source="https://football-logos.cc"></path><path d="M135.978 348.594c22.073-67.614 85.649-116.461 160.633-116.461 74.958 0 138.516 48.813 160.61 116.391l.168.358c-3.957.813-8.196 1.29-12.943 1.284-13.647.015-22.906-3.89-33.628-8.411-10.896-4.596-23.248-9.804-40.24-9.87h-.086c-16.993.066-29.344 5.274-40.241 9.87-10.72 4.52-19.98 8.426-33.652 8.411-13.648.015-22.907-3.89-33.628-8.411-10.897-4.596-23.248-9.804-40.241-9.87h-.085c-16.995.066-29.346 5.274-40.243 9.87-10.72 4.52-19.98 8.426-33.65 8.411-4.742.006-8.977-.473-12.934-1.286zM306.258 625.622c0 5.834-5.716 7.116-9.505 7.025l-11.261.031-.057-15.178 10.972-.032c6.015.013 9.85 2.321 9.85 8.154m2.976-19.4 19.895-28.635-18.478.052-18.274 26.706-6.977.02-.06-26.655-15.013.042.189 68.004 25.504-.07c10.458-.03 14.538-1.835 18.989-5.413 3.638-2.93 6.018-7.285 6.43-13.133.685-9.684-2.23-16.17-12.205-20.918M64.461 429.117h12.306V395.36h-6.522v27.335h-5.784zM86.136 427.247q3.022 2.658 7.545 2.657 4.52 0 7.523-2.657 3-2.657 3-6.545-.001-3.887-2.696-6.687 3.782-3.238 3.783-8.5 0-4.444-3.218-7.487t-8.392-3.043q-5.176 0-8.393 3.043t-3.216 7.487q0 5.262 3.782 8.5-2.74 2.847-2.74 6.713 0 3.862 3.022 6.519m4.24-24.848q1.521-1.135 3.305-1.135 1.782 0 3.303 1.135 1.524 1.134 1.523 3.308 0 2.174-1.479 3.333a5.3 5.3 0 0 1-3.347 1.16 5.3 5.3 0 0 1-3.348-1.16q-1.478-1.159-1.478-3.333t1.521-3.308m.414 14.754q1.238-1.16 2.89-1.159t2.892 1.16 1.24 2.872q0 1.715-1.219 2.875-1.217 1.159-2.912 1.16-1.696-.001-2.914-1.16-1.217-1.16-1.217-2.875 0-1.713 1.24-2.873M488.225 427.247q3.021 2.658 7.545 2.657 4.521 0 7.521-2.657 3.002-2.657 3.002-6.545-.001-3.887-2.695-6.687 3.781-3.238 3.782-8.5 0-4.444-3.219-7.487-3.215-3.043-8.391-3.043-5.178 0-8.393 3.043-3.218 3.043-3.218 7.487 0 5.262 3.783 8.5-2.739 2.847-2.739 6.713-.001 3.862 3.022 6.519m4.24-24.848q1.52-1.135 3.305-1.135 1.781 0 3.303 1.135 1.523 1.134 1.524 3.308 0 2.174-1.48 3.333a5.28 5.28 0 0 1-3.347 1.16 5.3 5.3 0 0 1-3.35-1.16q-1.476-1.159-1.477-3.333 0-2.175 1.523-3.308m.412 14.754q1.238-1.16 2.892-1.159 1.651 0 2.891 1.16 1.239 1.158 1.24 2.872 0 1.715-1.218 2.875-1.22 1.159-2.913 1.16-1.696-.001-2.914-1.16t-1.217-2.875q0-1.713 1.239-2.873M533.644 421.243c1.156-5.14-.707-7.816-4.014-14.35-3.306-6.533-6.138-11.432-6.138-11.432h-7.909l6.168 11.743q-4.313-.001-7.195 3.115t-2.882 8.234q0 5.119 3.101 8.235c2.069 2.077 4.671 3.136 7.81 3.116 4.565-.029 9.643-2.362 11.059-8.661m-11.252-7.615q2.062 0 3.435 1.305 1.375 1.303 1.376 3.427t-1.332 3.671q-1.33 1.546-3.325 1.546-1.997 0-3.26-1.376-1.264-1.378-1.263-3.502-.001-2.127 1.154-3.598 1.15-1.474 3.215-1.473M227.523 443.757h-19.6v-25.198h19.579l.192-.007v-5.504l.026-.322h-20.736l-8.632 9.566v23.564l14.252 11.764-.02-.243v-10.354h15.114l-.004-.212v-3.062zm77.189 4.432h34.094v-31.497h-33.962l-.336-.021v-3.623l.029-.321h67.4l-.002.32v2.345l.003.135h-28.234v24.264h28.234l-.003.12v4.78l-.116-.001h-24.383v23.564h24.404l.095.004v4.43H351.17v19.598h20.764999999999997v3.966h7.466v-3.966h20.767v-19.599H379.4v-4.44l.193.008h24.308V444.69h-24.501v-4.778l-.005-.121h28.239v-23.327l.088.087 11.574 11.575 4.199 10.731 7.7 2.567c1.166-16.798-1.4-31.496-1.4-31.496s-3.967-5.6-13.066-13.767c-9.1-8.165-24.498-20.063-24.498-20.063h-8.165l-8.224-6.169.433.037c26.046 2.194 38.965 18.064 68.182 18.031 7.771.01 14.39-1.107 20.41-2.792l-.023.284c.467 5.13.708 10.328.708 15.582 0 93.305-75.639 168.941-168.942 168.941s-168.943-75.636-168.943-168.941c0-5.334.247-10.61.731-15.816l.582.123c5.852 1.588 12.28 2.63 19.782 2.62 31.286.034 43.885-18.165 73.923-18.282 8.643.034 15.842 1.565 22.458 3.727l.436.13-3.366 2.525h-11.198l-84.46 68.592 66.027 24.731h15.115l-.004.27v2.994l-.455.002h-9.29v19.365h9.508l.237-.007v4.207h7.466v-4.186l.325-.014h9.422v-19.365h-9.554l-.193-.002v-3.081l-.004-.183h15.117v-22.398h-15.095l-.017-.19v-3.062l.303-.014h19.47v-25.198h-19.34l-.433.015v-5.497l-.003-.35h59.786l-.001.32v3.622l-.226.023h-34.07v31.497h34.29600000000001v3.98l-.204-.013h-25.926v29.863h25.947l.183-.014v4.659l-.248.022h-11.184v24.73h11.184l.248.008v2.792h9.565v-2.792l.205-.008h11.228v-24.73h-11.294l-.139-.022v-4.637l.183-.008h25.95v-29.863h-25.929l-.204-.008v-3.96zm74.689-32.83v-2.632H403.9l2.713 2.714.083.087h-27.298z" style="fill:#d91920;fill-opacity:1;fill-rule:nonzero;stroke:none" transform="matrix(1.33333 0 0 -1.33333 -27.522 902.717)"></path><path d="M339.525 291.354c0-23.703-19.213-42.914-42.914-42.914-23.7 0-42.914 19.211-42.914 42.914 0 23.7 19.213 42.913 42.914 42.913 23.7 0 42.914-19.213 42.914-42.913m-77.83 14.75 4.84 13.127c-5.398-5.822-9.127-13.211-10.426-21.41zm7.817-32.546 6.532 10.264-3.382 16.333-9.567 3.382-7.467-10.725q-.026-.727-.026-1.458c0-4.5.725-8.83 2.064-12.881zm27.1 58.802a40.85 40.85 0 0 1-26.75-9.923l13.649 3.265zm18.291-4.296a40.7 40.7 0 0 1-12.712 3.92l-16.464-8.381 3.033-8.75 16.333-5.483 12.482 5.95zm21.391-26.325c-2.65 10.146-9.085 18.761-17.707 24.244l2.255-11.48 9.681-12.716zm-3.914-30.46a40.8 40.8 0 0 1 5.241 20.075c0 2.645-.25 5.233-.73 7.74l-5.9-.107-5.134-12.714 2.333-14.816zm-49.205-18.68a41 41 0 0 1 13.437-2.251c5.27 0 10.31.994 14.937 2.804l-.157 4.424-14.116 3.266-14.114-3.382zm-23.665 21.263a41.17 41.17 0 0 1 20.402-19.972l-.017 4.152-12.132 12.481zm28.433 37.257-11.547-10.616 3.149-16.331 15.281-4.55 12.25 11.9-3.034 14.348zm25.081-50.396 12.016 9.798-2.1 14.583-13.53 3.15-12.6-11.666 1.4-12.248z" style="fill:#fff;fill-opacity:1;fill-rule:nonzero;stroke:none" transform="matrix(1.33333 0 0 -1.33333 -27.522 902.717)" data-source="https://football-logos.cc"></path><!-- source: https://football-logos.cc --></svg>