<svg xmlns="http://www.w3.org/2000/svg" viewBox="0 0 1697.07 1696.93"><metadata xmlns:fl="https://football-logos.cc/denmark/lyngby">dl1_f457e7a43831e7e36bebc9872ddba78ce464a221bcba826022a32a28076b3eb7</metadata><!-- Source: https://football-logos.cc --><defs data-source="https://football-logos.cc"><clipPath id="a" clipPathUnits="userSpaceOnUse"><path d="M-636.3 0H636.3v-1272.6H-636.3Z"></path></clipPath><clipPath id="b" clipPathUnits="userSpaceOnUse"><path d="M-636.3 25H636.3v-1272.6H-636.3Z"></path></clipPath><clipPath id="c" clipPathUnits="userSpaceOnUse"><path d="M-376.7 124.5H895.9v-1272.6H-376.7Z"></path></clipPath><clipPath id="d" clipPathUnits="userSpaceOnUse"><path d="M-484.6 168.1H788v-1272.6H-484.6Z"></path></clipPath><clipPath id="e" clipPathUnits="userSpaceOnUse"><path d="M-594 145.8H678.6v-1272.6H-594Z"></path></clipPath><clipPath id="f" clipPathUnits="userSpaceOnUse"><path d="M-682.9 93.5H589.7v-1272.6H-682.9Z"></path></clipPath><clipPath id="g" clipPathUnits="userSpaceOnUse"><path d="M-766.1 112.6H506.5V-1160H-766.1Z"></path></clipPath><clipPath id="h" clipPathUnits="userSpaceOnUse"><path d="M-826.8 182.7H445.8v-1272.6H-826.8Z"></path></clipPath><clipPath id="i" clipPathUnits="userSpaceOnUse"><path d="M-352.4 1079.6H920.2V-193H-352.4Z"></path></clipPath><clipPath id="j" clipPathUnits="userSpaceOnUse"><path d="M-419.6 1157.1H853V-115.5H-419.6Z"></path></clipPath><clipPath id="k" clipPathUnits="userSpaceOnUse"><path d="M-502.4 1111H770.2V-161.6H-502.4Z"></path></clipPath><clipPath id="l" clipPathUnits="userSpaceOnUse"><path d="M-595.6 1197.4H677V-75.2H-595.6Z"></path></clipPath><clipPath id="m" clipPathUnits="userSpaceOnUse"><path d="M-666.9 1210.2H605.7V-62.4H-666.9Z"></path></clipPath><clipPath id="n" clipPathUnits="userSpaceOnUse"><path d="M-742.4 1117.9H530.2V-154.7H-742.4Z"></path></clipPath><clipPath id="o" clipPathUnits="userSpaceOnUse"><path d="M-863.9 1152.2H408.7V-120.4H-863.9Z"></path></clipPath><clipPath id="p" clipPathUnits="userSpaceOnUse"><path d="M-949.5 1103.5H323.1V-169.1H-949.5Z"></path></clipPath><clipPath id="q" clipPathUnits="userSpaceOnUse"><path d="M-62.4 619.5h1272.6V-653.1H-62.4Z"></path></clipPath><clipPath id="r" clipPathUnits="userSpaceOnUse"><path d="M-124.4 635.8h1272.6V-636.8H-124.4Z"></path></clipPath><clipPath id="s" clipPathUnits="userSpaceOnUse"><path d="M-1130.6 665.4H142V-607.2h-1272.6Z"></path></clipPath><clipPath id="t" clipPathUnits="userSpaceOnUse"><path d="M-1180.9 619.5H91.7V-653.1h-1272.6Z"></path></clipPath><clipPath id="u" clipPathUnits="userSpaceOnUse"><path d="M-636.3 181.6H636.3V-1091H-636.3Z"></path></clipPath><clipPath id="v" clipPathUnits="userSpaceOnUse"><path d="M-444.4 675.4H828.2V-597.2H-444.4Z"></path></clipPath><clipPath id="w" clipPathUnits="userSpaceOnUse"><path d="M-499.3 336.9H773.3V-935.7H-499.3Z"></path></clipPath><clipPath id="x" clipPathUnits="userSpaceOnUse"><path d="M-581.7 332.7H690.9V-939.9H-581.7Z"></path></clipPath><clipPath id="y" clipPathUnits="userSpaceOnUse"><path d="M-609.2 809.9H663.4V-462.7H-609.2Z"></path></clipPath><clipPath id="z" clipPathUnits="userSpaceOnUse"><path d="M-444.4 544.6H828.2V-728H-444.4Z"></path></clipPath><clipPath id="A" clipPathUnits="userSpaceOnUse"><path d="M-774.1 936.5H498.5V-336.1H-774.1Z"></path></clipPath><clipPath id="B" clipPathUnits="userSpaceOnUse"><path d="M-774.1 336.9H498.5V-935.7H-774.1Z"></path></clipPath><clipPath id="C" clipPathUnits="userSpaceOnUse"><path d="M-746.6 364.4H526V-908.2H-746.6Z"></path></clipPath><clipPath id="D" clipPathUnits="userSpaceOnUse"><path d="M-664.3 517.1H608.3V-755.5H-664.3Z"></path></clipPath><clipPath id="E" clipPathUnits="userSpaceOnUse"><path d="M-581.7 734.5H690.9V-538.1H-581.7Z"></path></clipPath></defs><path d="M0 0c-85.9 0-169.2-16.8-247.7-50-37.7-15.9-74.1-35.7-108.1-58.7-33.7-22.8-65.4-48.9-94.2-77.7s-54.9-60.5-77.7-94.2c-23-34-42.7-70.4-58.7-108.1-33.1-78.4-49.9-161.7-49.9-247.6s16.8-169.2 50-247.7c15.9-37.7 35.7-74.1 58.7-108.1 22.8-33.7 48.9-65.4 77.7-94.2s60.5-54.9 94.2-77.7c34-23 70.4-42.7 108.1-58.7 78.5-33.2 161.8-50 247.7-50s169.2 16.8 247.7 50c37.7 15.9 74.1 35.7 108.1 58.7 33.7 22.8 65.4 48.9 94.2 77.7s54.9 60.5 77.7 94.2c23 34 42.7 70.4 58.7 108.1 33.2 78.5 50 161.8 50 247.7s-16.8 169.2-50 247.7c-15.9 37.7-35.7 74.1-58.7 108.1-22.8 33.7-48.9 65.4-77.7 94.2s-60.5 54.9-94.2 77.7c-34 23-70.4 42.7-108.1 58.7C169.2-16.8 85.9 0 0 0" clip-path="url(#a)" style="fill:#fff;fill-opacity:1;fill-rule:nonzero;stroke:none" transform="matrix(1.33333 0 0 -1.33333 848.4 0)"></path><path d="M0 0c337.6 0 611.3-273.7 611.3-611.3S337.6-1222.6 0-1222.6s-611.3 273.7-611.3 611.3S-337.6 0 0 0" clip-path="url(#b)" style="fill:#01376f;fill-opacity:1;fill-rule:nonzero;stroke:none" transform="matrix(1.33333 0 0 -1.33333 848.4 33.333)"></path><path d="m0 0 15.9 7.3 29.3-63.4 26 12L76-54.6 34.1-73.9z" clip-path="url(#c)" style="fill:#fff;fill-opacity:1;fill-rule:nonzero;stroke:none" transform="matrix(1.33333 0 0 -1.33333 502.267 166)"></path><path d="m0 0-7.6 24.9-37.9 46.4 17 5.2 24.2-32.2 2.1 40.2 16.8 5.1L9.1 30l7.6-24.9L-.1 0Z" clip-path="url(#d)" style="fill:#fff;fill-opacity:1;fill-rule:nonzero;stroke:none" transform="matrix(1.33333 0 0 -1.33333 646.133 224.133)"></path><path d="m0 0-36.5 46.2 6-49.8-14-1.7-9.7 80.8 11.3 1.4 36.6-46.2-6 49.8 13.9 1.7 9.7-80.8z" clip-path="url(#e)" style="fill:#fff;fill-opacity:1;fill-rule:nonzero;stroke:none" transform="matrix(1.33333 0 0 -1.33333 792 194.4)"></path><path d="m0 0 .2 5.6c.1 5.8-2.6 13.1-12.4 13.7s-14.4-6.9-15-17.4L-28.8-23c-.7-10.7 3.4-18 13.3-18.6 10.6-.7 14.5 6.5 14.9 14l.4 5.6-14.9.9.7 10.8 30.6-1.9-2.6-41.5-11.7.7.6 8.9c-3.9-5.6-10.4-9.7-21.2-9-18.8 1.2-28.5 14.7-26.9 40.7l.5 7.7c1.6 25.3 11.8 36.9 34.4 35.4 21.2-1.3 29-14.5 28.3-31.9L0-.1Z" clip-path="url(#f)" style="fill:#fff;fill-opacity:1;fill-rule:nonzero;stroke:none" transform="matrix(1.33333 0 0 -1.33333 910.533 124.667)"></path><path d="M0 0c6-1.5 11.7-.8 13.4 6.2l.8 3.4C16 16.7 11.3 20 5.3 21.5l-10.4 2.6-5.3-21.5Zm-8.1-35.2c6-1.5 11.8-.4 13.6 6.8l1.2 4.7c1.7 7-2.8 10.7-8.9 12.2l-11 2.7-5.9-23.7zm-11.2 74.7 30.6-7.6C26.9 28 35.2 21.3 31.4 5.7c-3-12-11.2-15.1-20.6-14.5 8.8-3.9 14.9-10.9 11.7-23.7C18.7-48 9.2-51.5-7-47.4l-31.8 7.9 19.6 79z" clip-path="url(#g)" style="fill:#fff;fill-opacity:1;fill-rule:nonzero;stroke:none" transform="matrix(1.33333 0 0 -1.33333 1021.467 150.133)"></path><path d="m0 0 10.5 23.8L12 83.7l16.2-7.1-2.6-40.2 27.9 29.1 16-7.1-43-41.6L16-7 0 .1Z" clip-path="url(#h)" style="fill:#fff;fill-opacity:1;fill-rule:nonzero;stroke:none" transform="matrix(1.33333 0 0 -1.33333 1102.4 243.6)"></path><path d="M0 0c5.2-3.4 10.8-4.5 14.7 1.6l1.9 2.9c4 6.2.6 10.8-4.6 14.1l-9 5.8L-9 5.8Zm-19.1-30.7c5.2-3.4 11-4.1 15 2l2.6 4.1c3.9 6.1.8 11.1-4.4 14.4l-9.5 6.1-13.2-20.5zm13.5 74.3 26.5-17C34.4 17.9 40.1 8.9 31.5-4.6 24.8-15 16.1-15.2 7.3-11.7c7.1-6.6 10.6-15.1 3.4-26.3C2.1-51.4-8-51.6-22.1-42.6l-27.6 17.7 44 68.5z" clip-path="url(#i)" style="fill:#fff;fill-opacity:1;fill-rule:nonzero;stroke:none" transform="matrix(1.33333 0 0 -1.33333 469.867 1439.467)"></path><path d="M0 0c7.9-3.3 15.1 1.3 19.2 11.2L29 34.8c4.1 9.9 2.3 18.3-5.6 21.6-8 3.3-15.1-1.3-19.2-11.2l-9.8-23.6C-9.7 11.7-8 3.4 0 0m-4.4-10.6c-19 7.9-23.7 23.9-13.7 47.9l2.4 5.8C-5.7 67.1 9 75 28 67c19-7.9 23.6-23.8 13.6-47.8l-2.4-5.8c-10-24-24.6-31.9-43.5-24z" clip-path="url(#j)" style="fill:#fff;fill-opacity:1;fill-rule:nonzero;stroke:none" transform="matrix(1.33333 0 0 -1.33333 559.467 1542.8)"></path><path d="m0 0 17.1-4-16-68 27.8-6.5-2.6-11.2-44.9 10.6L0 .1Z" clip-path="url(#k)" style="fill:#fff;fill-opacity:1;fill-rule:nonzero;stroke:none" transform="matrix(1.33333 0 0 -1.33333 669.867 1481.333)"></path><path d="M0 0c9.7-.7 13.8 5 14.7 16.8l1.6 22.8c.8 11.7-2.5 18-12.2 18.6l-10.9.8L-10.9.8Zm-29.3-9.5 5.7 81.2 29.8-2.1c19.2-1.4 29.1-9.6 27-40.2l-.3-5C30.7-6.8 19.7-13 .6-11.6l-29.8 2.1z" clip-path="url(#l)" style="fill:#fff;fill-opacity:1;fill-rule:nonzero;stroke:none" transform="matrix(1.33333 0 0 -1.33333 794.133 1596.533)"></path><path d="m0 0-8.1 81 17.4 1.8L13 46l18.7 39 18.6 1.9-20.5-42.7L58.1 5.9l-19.5-2-24.8 34.4 3.7-36.6L.1-.1Z" clip-path="url(#m)" style="fill:#fff;fill-opacity:1;fill-rule:nonzero;stroke:none" transform="matrix(1.33333 0 0 -1.33333 889.2 1613.6)"></path><path d="m0 0 16.9 4.5L34.8-63l27.6 7.3 3-11.1-44.6-11.8L-.1.1Z" clip-path="url(#n)" style="fill:#fff;fill-opacity:1;fill-rule:nonzero;stroke:none" transform="matrix(1.33333 0 0 -1.33333 989.867 1490.533)"></path><path d="M0 0c7.4 3.3 8.6 8.2 4.7 16.9l-23.3 52.7 16 7.1 21.8-49.2C28 7.7 22.8-2.5 4.7-10.6c-18.2-8.1-29.2-5-38 14.8l-21.8 49.2 16.1 7.1 23.3-52.7C-11.9-.9-7.5-3.4-.1-.1z" clip-path="url(#o)" style="fill:#fff;fill-opacity:1;fill-rule:nonzero;stroke:none" transform="matrix(1.33333 0 0 -1.33333 1151.867 1536.267)"></path><path d="M0 0c5.2 3.5 8.2 8.5 4.1 14.6l-2.7 4c-4 6-9.8 5.1-15 1.7L-23 14-9.4-6.3Zm-20.6 29.8c5.2 3.5 8.4 8.1 4.4 14.1l-2 2.9c-4.1 6.1-9.6 4.8-14.8 1.4l-8.9-6 12.3-18.4 8.9 6zM-62.9 42l26.2 17.6c13.3 8.9 23.9 10.6 32.9-2.7 6.9-10.2 3.6-18.4-3.1-25 8.8 3.9 18.1 3.7 25.4-7.3C27.4 11.4 23.6 2 9.7-7.3l-27.2-18.3L-62.8 42Z" clip-path="url(#p)" style="fill:#fff;fill-opacity:1;fill-rule:nonzero;stroke:none" transform="matrix(1.33333 0 0 -1.33333 1266 1471.333)" data-source="https://football-logos.cc"></path><path d="m0 0 19.6 13.3h8.8v-59.2H15.7V-.2L0-11.5V-.1z" clip-path="url(#q)" style="fill:#fff;fill-opacity:1;fill-rule:nonzero;stroke:none" transform="matrix(1.33333 0 0 -1.33333 83.2 826)"></path><path d="M0 0c5.6 0 7.1 4.4 7.1 11.1S5.6 22.3 0 22.3s-7.2-4.4-7.2-11.2S-5.6 0 0 0m-20-12.3h12.7c0-4.5.7-9.9 7-9.9s7.6 5.8 7.7 13.8v7.2C5.1-4.7 1.2-7.4-4.8-7.4c-8.5 0-15.3 5.8-15.3 18.4S-13 30.6-.8 30.6s20.9-9 20.9-30.6S13.7-30.6-.8-30.6s-18.7 7.1-19.3 18.2z" clip-path="url(#r)" style="fill:#fff;fill-opacity:1;fill-rule:nonzero;stroke:none" transform="matrix(1.33333 0 0 -1.33333 165.867 847.733)"></path><path d="M0 0v8.4l12.3 11.1c6.7 6 13.9 12.7 13.9 21.4s-.9 10.9-7.5 10.9-7.3-5.1-7.4-10.2v-2.5H-1.5c.3 15.1 9.7 21 20.8 21s19.6-6.5 19.6-17.9-10.8-22-23.4-32.9h23.8V-.1H-.1Z" clip-path="url(#s)" style="fill:#fff;fill-opacity:1;fill-rule:nonzero;stroke:none" transform="matrix(1.33333 0 0 -1.33333 1507.467 887.2)"></path><path d="m0 0 19.6 13.3h8.8v-59.2H15.7V-.2L0-11.5V-.1z" clip-path="url(#t)" style="fill:#fff;fill-opacity:1;fill-rule:nonzero;stroke:none" transform="matrix(1.33333 0 0 -1.33333 1574.533 826)"></path><path d="M0 0c-61.4 0-121-12-177.1-35.8-54.2-22.9-102.8-55.7-144.6-97.5s-74.6-90.4-97.5-144.6C-442.9-334-455-393.6-455-455s12-121 35.8-177.1c22.9-54.2 55.7-102.8 97.5-144.6s90.4-74.6 144.6-97.5C-121-897.9-61.4-910 0-910s121 12 177.1 35.8c54.2 22.9 102.8 55.7 144.6 97.5s74.6 90.4 97.5 144.6C442.9-576 455-516.4 455-455s-12 121-35.8 177.1c-22.9 54.2-55.7 102.8-97.5 144.6s-90.4 74.6-144.6 97.5C121-12.1 61.4 0 0 0m0-25c237.5 0 430-192.5 430-430S237.5-885 0-885s-430 192.5-430 430S-237.5-25 0-25" clip-path="url(#u)" style="fill:#fff;fill-opacity:1;fill-rule:nonzero;stroke:none" transform="matrix(1.33333 0 0 -1.33333 848.4 242.133)"></path><path d="M0 0v-229.4l54.9-31.7v229.4z" clip-path="url(#v)" style="fill:#fff;fill-opacity:1;fill-rule:nonzero;stroke:none" transform="matrix(1.33333 0 0 -1.33333 592.533 900.533)"></path><path d="m0 0-54.9 31.6v-211.9H0Z" clip-path="url(#w)" style="fill:#fff;fill-opacity:1;fill-rule:nonzero;stroke:none" transform="matrix(1.33333 0 0 -1.33333 665.733 449.2)"></path><path d="m0 0-54.9-31.7v-152.8H0Z" clip-path="url(#x)" style="fill:#fff;fill-opacity:1;fill-rule:nonzero;stroke:none" transform="matrix(1.33333 0 0 -1.33333 775.6 443.6)"></path><path d="M0 0v-190l27.5-15.9L55.1-190V0Z" clip-path="url(#y)" style="fill:#fff;fill-opacity:1;fill-rule:nonzero;stroke:none" transform="matrix(1.33333 0 0 -1.33333 812.267 1079.867)"></path><path d="M0 0v-48h164.8v-114.5h55.1V-48h164.7V0Z" clip-path="url(#z)" style="fill:#fff;fill-opacity:1;fill-rule:nonzero;stroke:none" transform="matrix(1.33333 0 0 -1.33333 592.533 726.133)"></path><path d="m0 0 54.9 31.7v229.4L0 229.4Z" clip-path="url(#A)" style="fill:#fff;fill-opacity:1;fill-rule:nonzero;stroke:none" transform="matrix(1.33333 0 0 -1.33333 1032.133 1248.667)"></path><path d="M0 0v-180.3h54.9V31.6Z" clip-path="url(#B)" style="fill:#fff;fill-opacity:1;fill-rule:nonzero;stroke:none" transform="matrix(1.33333 0 0 -1.33333 1032.133 449.2)"></path><path d="m0 0-54.9 31.7v-184.5H0Z" clip-path="url(#C)" style="fill:#fff;fill-opacity:1;fill-rule:nonzero;stroke:none" transform="matrix(1.33333 0 0 -1.33333 995.467 485.867)"></path><path d="M0 0v243.6l-27.6 15.9-27.5-15.9V0Z" clip-path="url(#D)" style="fill:#fff;fill-opacity:1;fill-rule:nonzero;stroke:none" transform="matrix(1.33333 0 0 -1.33333 885.733 689.467)"></path><path d="m0 0-54.9-31.6v-186.3L0-249.6V-48h110v-201.6l54.9 31.7v186.3L110 0Z" clip-path="url(#E)" style="fill:#fff;fill-opacity:1;fill-rule:nonzero;stroke:none" transform="matrix(1.33333 0 0 -1.33333 775.6 979.333)" data-source="https://football-logos.cc"></path><!-- source: https://football-logos.cc --></svg>