<?xml version="1.0" encoding="utf-8"?>
<!-- Generator: Adobe Illustrator 13.0.0, SVG Export Plug-In . SVG Version: 6.00 Build 14948)  -->
<!DOCTYPE svg PUBLIC "-//W3C//DTD SVG 1.0//EN" "http://www.w3.org/TR/2001/REC-SVG-20010904/DTD/svg10.dtd">
<svg version="1.0" id="Ebene_1" xmlns="http://www.w3.org/2000/svg" xmlns:xlink="http://www.w3.org/1999/xlink" x="0px" y="0px"
	 width="320.481px" height="320.481px" viewBox="0 0 320.481 320.481" enable-background="new 0 0 320.481 320.481"
	 xml:space="preserve">
<path fill-rule="evenodd" clip-rule="evenodd" fill="#009EE0" d="M160.203,0c88.251,0,160.278,72.027,160.278,160.279
	c0,88.175-72.027,160.202-160.278,160.202C72.027,320.481,0,248.454,0,160.279C0,72.027,72.027,0,160.203,0L160.203,0z"/>
<path fill-rule="evenodd" clip-rule="evenodd" fill="#172983" d="M160.203,5.99c84.991,0,154.29,69.297,154.29,154.289
	c0,84.915-69.299,154.214-154.29,154.214c-84.916,0-154.213-69.299-154.213-154.214C5.99,75.287,75.287,5.99,160.203,5.99
	L160.203,5.99z"/>
<path fill-rule="evenodd" clip-rule="evenodd" fill="#009EE0" d="M160.203,40.26c66.112,0,120.019,53.905,120.019,120.02
	c0,66.036-53.906,119.942-120.019,119.942c-66.037,0-119.943-53.906-119.943-119.942C40.26,94.165,94.166,40.26,160.203,40.26
	L160.203,40.26z"/>
<path fill-rule="evenodd" clip-rule="evenodd" fill="#FFFFFF" d="M160.203,46.249c62.778,0,114.03,51.253,114.03,114.03
	c0,62.7-51.252,113.952-114.03,113.952c-62.701,0-113.954-51.252-113.954-113.952C46.249,97.502,97.502,46.249,160.203,46.249
	L160.203,46.249z"/>
<path fill-rule="evenodd" clip-rule="evenodd" fill="#FFFFFF" d="M290.685,167.86c-0.074,0.91-0.455,1.668-1.137,2.275
	c-0.682,0.531-1.439,0.834-2.35,0.758s-1.67-0.455-2.275-1.137c-0.605-0.684-0.834-1.441-0.758-2.352
	c0-0.91,0.379-1.668,1.061-2.273c0.684-0.605,1.518-0.834,2.428-0.758c0.908,0.076,1.592,0.379,2.197,1.061
	C290.458,166.116,290.761,166.952,290.685,167.86L290.685,167.86z"/>
<path fill-rule="evenodd" clip-rule="evenodd" fill="#FFFFFF" d="M286.212,125.631c0.227,0.909,0.152,1.668-0.303,2.502
	c-0.455,0.758-1.063,1.289-1.973,1.517c-0.832,0.303-1.668,0.151-2.502-0.228c-0.756-0.455-1.287-1.138-1.516-1.972
	c-0.227-0.91-0.152-1.744,0.303-2.502c0.379-0.759,1.063-1.289,1.896-1.593c0.91-0.227,1.742-0.151,2.502,0.304
	C285.454,124.114,285.985,124.72,286.212,125.631L286.212,125.631z"/>
<path fill-rule="evenodd" clip-rule="evenodd" fill="#FFFFFF" d="M281.739,73.013l-6.066,5.384l-0.531-0.684
	c1.289-1.592,1.896-3.411,1.82-5.458c-0.076-1.971-0.682-3.716-1.895-5.08c-0.91-1.138-1.895-1.743-2.881-1.972
	c-1.063-0.228-1.896-0.075-2.578,0.531c-0.379,0.303-0.684,0.758-0.758,1.214c-0.229,0.683-0.229,1.516-0.076,2.577
	c0.15,0.759,0.605,2.35,1.365,4.853c1.061,3.411,1.439,5.989,1.213,7.657c-0.229,1.668-0.91,3.033-2.123,4.019
	c-1.592,1.365-3.488,1.743-5.838,1.289c-2.275-0.455-4.322-1.82-6.219-3.942c-0.529-0.683-0.984-1.44-1.439-2.123
	c-0.379-0.683-0.758-1.668-1.213-2.881c-0.229-0.607-0.531-1.138-0.758-1.441c-0.305-0.303-0.607-0.53-1.063-0.682
	c-0.455-0.152-0.91-0.152-1.439-0.077l-0.531-0.529l7.051-5.914l0.531,0.606c-1.592,2.122-2.35,4.246-2.275,6.444
	c0.076,2.274,0.758,4.095,2.047,5.687c0.986,1.213,2.123,1.896,3.262,2.123c1.137,0.227,2.121,0.075,2.805-0.531
	c0.455-0.379,0.758-0.91,0.984-1.516c0.152-0.606,0.229-1.365,0.152-2.199c-0.152-0.909-0.455-2.274-1.063-4.171
	c-0.832-2.653-1.287-4.699-1.439-6.064s0-2.578,0.303-3.64c0.305-1.061,0.91-1.972,1.82-2.729c1.441-1.214,3.26-1.669,5.383-1.214
	c2.123,0.38,3.943,1.517,5.611,3.487c0.529,0.683,1.061,1.441,1.439,2.198c0.379,0.607,0.684,1.365,0.986,2.352
	s0.531,1.592,0.834,1.895c0.229,0.305,0.455,0.456,0.758,0.456c0.229,0.075,0.76-0.076,1.441-0.456L281.739,73.013L281.739,73.013z"
	/>
<path fill-rule="evenodd" clip-rule="evenodd" fill="#FFFFFF" d="M251.563,44.732l-6.141,7.81l0.455,0.303
	c1.439,1.138,2.729,1.517,3.941,1.289c1.289-0.303,2.578-1.061,3.867-2.426l0.605,0.455l-7.809,10.084l-0.605-0.531
	c0.682-1.137,1.137-2.274,1.287-3.335c0.076-0.987-0.074-1.821-0.379-2.503c-0.379-0.683-1.137-1.439-2.197-2.273l-4.17,5.383
	c-0.834,1.061-1.289,1.742-1.365,2.046s-0.076,0.683,0.076,1.062c0.15,0.38,0.605,0.759,1.213,1.289l1.365,1.062
	c2.047,1.592,4.094,2.503,5.988,2.654c1.896,0.151,3.791-0.38,5.688-1.668l0.605,0.454l-5.762,5.307l-19.334-15.087l0.379-0.455
	l0.758,0.531c0.684,0.53,1.289,0.834,1.82,0.909c0.381,0.151,0.758,0.076,1.213-0.151c0.229-0.151,0.758-0.683,1.516-1.592
	l9.857-12.661c0.682-0.834,1.061-1.441,1.213-1.669c0.152-0.379,0.152-0.833-0.074-1.214c-0.152-0.605-0.607-1.137-1.365-1.743
	l-0.76-0.606L243.905,37l18.652,14.557l-4.398,5.686l-0.682-0.53c0.758-1.592,1.137-2.957,0.984-4.019
	c-0.074-1.062-0.531-2.122-1.363-3.184c-0.455-0.683-1.594-1.669-3.262-2.957L251.563,44.732L251.563,44.732z"/>
<path fill-rule="evenodd" clip-rule="evenodd" fill="#FFFFFF" d="M35.786,116.077L23.504,103.34l3.942-10.842l0.683,0.228
	l-0.38,0.91c-0.227,0.758-0.379,1.44-0.303,1.971c0.076,0.378,0.227,0.759,0.53,1.061c0.228,0.304,0.91,0.607,1.972,0.986
	l15.012,5.46c1.138,0.454,1.896,0.605,2.274,0.605c0.379-0.076,0.683-0.228,1.062-0.605c0.379-0.38,0.682-0.987,0.986-1.669
	l0.455-0.834l0.605,0.228l-5.307,13.8l-0.606-0.229l0.303-0.834c0.304-0.834,0.379-1.517,0.304-2.047
	c0-0.379-0.228-0.759-0.531-1.062c-0.228-0.228-0.91-0.606-2.047-0.985l-16.68-6.066l16.983,17.742l-0.152,0.53l-23.883,2.957
	l15.467,5.687c1.138,0.455,1.82,0.682,2.123,0.682c0.607,0.077,1.214-0.151,1.744-0.606c0.606-0.454,1.062-1.288,1.517-2.502
	l0.606,0.229l-3.185,9.173l-0.605-0.227l0.075-0.303c0.228-0.607,0.379-1.138,0.379-1.745c0-0.53-0.076-1.062-0.303-1.364
	c-0.151-0.379-0.531-0.758-0.986-1.062c-0.151-0.076-0.682-0.303-1.743-0.682l-13.951-5.156c-1.138-0.379-1.895-0.606-2.199-0.531
	c-0.379,0-0.682,0.229-1.061,0.607c-0.455,0.379-0.759,0.91-0.985,1.667l-0.303,0.834l-0.683-0.227l3.336-11.069L35.786,116.077
	L35.786,116.077z"/>
<path fill-rule="evenodd" clip-rule="evenodd" fill="#FFFFFF" d="M55.119,82.263l-5.762,8.188l1.289,2.351
	c0.379,0.758,0.834,1.288,1.289,1.592c0.53,0.454,1.138,0.454,1.744,0.075c0.379-0.151,1.062-0.833,1.971-1.971l0.531,0.38
	l-5.384,7.657l-0.53-0.38c0.455-0.909,0.606-1.743,0.53-2.653c-0.151-0.835-0.683-2.199-1.667-4.095L39.047,73.999l0.227-0.304
	l22.215,3.033c2.123,0.302,3.563,0.302,4.322,0.075c0.606-0.151,1.137-0.607,1.668-1.289l0.53,0.379L60.2,87.115l-0.607-0.379
	l0.379-0.456c0.606-0.834,0.91-1.592,0.986-2.123c0-0.303-0.152-0.605-0.38-0.833c-0.227-0.152-0.454-0.228-0.682-0.304
	c-0.076,0-0.531-0.075-1.44-0.228L55.119,82.263L55.119,82.263z"/>
<polygon fill-rule="evenodd" clip-rule="evenodd" fill="#172983" points="53.603,82.111 44.354,80.747 48.675,89.162 53.603,82.111 
	"/>
<path fill-rule="evenodd" clip-rule="evenodd" fill="#FFFFFF" d="M72.634,40.107l5.459,6.521l-0.606,0.53
	c-2.199-1.214-4.397-1.668-6.597-1.44c-2.275,0.303-4.17,1.137-5.913,2.578c-1.593,1.364-2.653,2.88-3.033,4.548
	c-0.455,1.669-0.304,3.412,0.455,5.231c0.758,1.744,1.744,3.412,2.957,4.854c1.516,1.819,3.032,3.107,4.7,4.094
	c1.593,0.91,3.185,1.212,4.852,0.985c1.593-0.304,3.186-1.061,4.702-2.35c0.53-0.456,0.985-0.91,1.439-1.517
	c0.455-0.53,0.911-1.138,1.365-1.819l-3.26-3.867c-0.607-0.758-1.062-1.137-1.365-1.289c-0.303-0.076-0.683-0.076-1.213,0.075
	c-0.53,0.077-1.062,0.38-1.592,0.834l-0.531,0.456l-0.454-0.531l10.538-8.795l0.454,0.455c-0.758,0.758-1.212,1.288-1.439,1.743
	c-0.152,0.38-0.228,0.834-0.152,1.289c0.076,0.227,0.38,0.683,0.986,1.365l3.26,3.942c-0.986,1.668-2.047,3.261-3.336,4.776
	c-1.289,1.517-2.729,3.032-4.321,4.322c-2.047,1.743-4.019,2.956-5.763,3.639c-1.744,0.606-3.487,0.986-5.155,1.062
	c-1.744,0.151-3.26-0.075-4.701-0.531c-1.819-0.682-3.335-1.743-4.7-3.335c-2.351-2.806-3.185-6.142-2.502-10.009
	c0.683-3.866,2.729-7.202,6.217-10.159c1.062-0.91,2.123-1.668,3.109-2.199c0.53-0.379,1.439-0.758,2.805-1.289
	c1.364-0.53,2.123-0.909,2.274-1.062c0.303-0.227,0.53-0.606,0.606-0.985c0.076-0.378,0.076-0.985-0.151-1.667L72.634,40.107
	L72.634,40.107z"/>
<path fill-rule="evenodd" clip-rule="evenodd" fill="#FFFFFF" d="M103.491,42.533l-8.946,4.55v2.654
	c0.076,0.909,0.151,1.516,0.379,1.971c0.304,0.606,0.834,0.91,1.593,0.91c0.379,0,1.289-0.304,2.653-0.834l0.304,0.606l-8.416,4.246
	l-0.304-0.606c0.835-0.531,1.44-1.289,1.744-2.124c0.304-0.758,0.455-2.274,0.455-4.321l0.227-21.911l0.38-0.151l18.196,13.116
	c1.668,1.214,2.957,1.895,3.715,2.048c0.606,0.151,1.289,0,2.123-0.305l0.303,0.607l-12.206,6.217l-0.303-0.606l0.454-0.228
	c0.985-0.531,1.592-0.985,1.896-1.44c0.228-0.303,0.228-0.606,0.075-0.91c-0.151-0.227-0.303-0.378-0.454-0.53
	c-0.076-0.076-0.455-0.38-1.138-0.91L103.491,42.533L103.491,42.533z"/>
<polygon fill-rule="evenodd" clip-rule="evenodd" fill="#172983" points="102.202,41.7 94.696,36.09 94.621,45.566 102.202,41.7 "/>
<path fill-rule="evenodd" clip-rule="evenodd" fill="#FFFFFF" d="M142.234,27.598l1.213,8.492l-24.337,6.52l-0.152-0.605l0.91-0.229
	c0.834-0.227,1.44-0.53,1.819-0.909c0.303-0.228,0.531-0.606,0.606-1.063c0.076-0.302-0.075-1.061-0.379-2.273l-4.17-15.392
	c-0.303-1.212-0.606-1.972-0.834-2.198c-0.229-0.304-0.53-0.455-1.061-0.606c-0.531-0.075-1.138,0-1.896,0.151l-0.91,0.303
	l-0.227-0.682l14.632-3.866l0.152,0.605l-1.213,0.304c-0.759,0.228-1.364,0.53-1.82,0.91c-0.303,0.227-0.455,0.605-0.606,1.062
	c-0.075,0.303,0.076,1.061,0.38,2.198l4.019,15.013c0.303,1.213,0.606,1.971,0.834,2.198c0.303,0.304,0.682,0.455,1.137,0.53
	c0.38,0,1.213-0.151,2.502-0.53l2.274-0.607c1.44-0.378,2.653-0.909,3.487-1.668c0.835-0.682,1.517-1.591,1.972-2.729
	s0.758-2.73,0.833-4.701L142.234,27.598L142.234,27.598z"/>
<path fill-rule="evenodd" clip-rule="evenodd" fill="#FFFFFF" d="M171.802,26.916l-0.832,8.567l-25.096,0.606v-0.606l0.833-0.076
	c0.834,0,1.517-0.152,1.972-0.379c0.379-0.228,0.606-0.455,0.833-0.91c0.152-0.303,0.229-1.062,0.152-2.274l-0.379-15.998
	c-0.076-1.213-0.151-1.971-0.303-2.273c-0.151-0.38-0.531-0.606-0.986-0.834c-0.455-0.229-1.062-0.304-1.819-0.304h-0.91v-0.607
	l15.013-0.454v0.683l-1.214,0.075c-0.834,0-1.516,0.152-1.972,0.379c-0.379,0.229-0.682,0.531-0.833,0.91
	c-0.152,0.304-0.229,1.062-0.229,2.275l0.455,15.466c0,1.289,0.152,2.048,0.304,2.351c0.151,0.379,0.53,0.606,0.986,0.759
	c0.378,0.15,1.213,0.15,2.502,0.075h2.425c1.441-0.075,2.73-0.303,3.717-0.834c0.984-0.455,1.818-1.214,2.502-2.198
	c0.758-0.986,1.363-2.427,1.971-4.397H171.802L171.802,26.916z"/>
<path fill-rule="evenodd" clip-rule="evenodd" fill="#FFFFFF" d="M191.438,32.754l-9.703-2.274l-1.744,2.047
	c-0.531,0.683-0.834,1.289-0.986,1.819c-0.15,0.683,0.078,1.213,0.607,1.668c0.303,0.304,1.213,0.606,2.578,1.062l-0.152,0.607
	l-9.174-2.124l0.152-0.606c1.061,0.076,1.895-0.075,2.729-0.531c0.758-0.378,1.82-1.439,3.186-3.032l14.178-16.604l0.455,0.076
	l5.457,21.76c0.531,2.047,0.986,3.412,1.518,4.019c0.379,0.454,0.986,0.834,1.82,1.062l-0.152,0.682l-13.344-3.108l0.152-0.683
	l0.529,0.152c1.063,0.228,1.82,0.303,2.352,0.152c0.303-0.152,0.529-0.38,0.605-0.683c0.076-0.228,0.076-0.455,0.076-0.683
	c0-0.151-0.152-0.607-0.303-1.44L191.438,32.754L191.438,32.754z"/>
<polygon fill-rule="evenodd" clip-rule="evenodd" fill="#172983" points="191.062,31.313 188.862,22.216 182.722,29.417 
	191.062,31.313 "/>
<path fill-rule="evenodd" clip-rule="evenodd" fill="#FFFFFF" d="M222.677,25.323l5.611,19.788l4.699-9.325
	c0.684-1.289,0.91-2.274,0.684-2.957c-0.229-0.909-1.063-1.668-2.502-2.426l0.303-0.53l8.34,4.245l-0.303,0.531
	c-1.139-0.379-1.895-0.606-2.426-0.606c-0.457,0-0.91,0.151-1.289,0.454c-0.455,0.304-0.91,0.986-1.441,2.048l-9.174,18.044
	l-0.605-0.303l-7.887-26.764l-7.051,13.799c-0.605,1.212-0.682,2.199-0.303,3.033c0.455,0.757,1.137,1.364,1.971,1.818l0.607,0.304
	l-0.305,0.531l-8.945-4.55l0.303-0.605c1.365,0.757,2.502,0.985,3.26,0.757c0.834-0.151,1.518-0.834,2.047-2.046l7.811-15.24
	l-0.229-0.909c-0.227-0.835-0.529-1.441-0.834-1.82c-0.303-0.378-0.834-0.834-1.592-1.213l0.303-0.606L222.677,25.323
	L222.677,25.323z"/>
<path fill-rule="evenodd" clip-rule="evenodd" fill="#FFFFFF" d="M300.618,108.95l-7.432,3.412l-0.303-0.834
	c1.744-1.138,2.805-2.729,3.336-4.625c0.531-1.972,0.455-3.79-0.303-5.459c-0.531-1.289-1.289-2.198-2.199-2.729
	c-0.91-0.53-1.744-0.606-2.576-0.303c-0.457,0.227-0.836,0.53-1.139,0.985c-0.379,0.606-0.607,1.44-0.758,2.427
	c-0.076,0.758-0.152,2.426-0.152,5.004c0,3.639-0.379,6.216-1.061,7.733c-0.684,1.516-1.744,2.653-3.26,3.26
	c-1.82,0.758-3.791,0.606-5.914-0.53c-2.047-1.138-3.641-2.958-4.777-5.61c-0.305-0.834-0.607-1.593-0.758-2.427
	c-0.15-0.758-0.303-1.82-0.379-3.109c0-0.682-0.152-1.213-0.303-1.592c-0.152-0.378-0.381-0.682-0.76-0.91
	c-0.377-0.303-0.834-0.454-1.363-0.529l-0.305-0.684l8.416-3.563l0.303,0.682c-2.121,1.592-3.486,3.412-4.018,5.534
	c-0.605,2.199-0.455,4.171,0.303,5.99c0.607,1.441,1.441,2.502,2.502,3.032c0.986,0.607,1.973,0.683,2.881,0.304
	c0.531-0.227,0.986-0.606,1.291-1.137c0.377-0.531,0.605-1.214,0.758-2.123c0.227-0.834,0.303-2.275,0.303-4.246
	c0-2.805,0.076-4.853,0.379-6.217c0.227-1.365,0.682-2.502,1.289-3.412c0.682-0.909,1.516-1.592,2.578-2.047
	c1.744-0.759,3.639-0.606,5.535,0.379c1.895,0.985,3.334,2.653,4.32,4.929c0.303,0.834,0.607,1.743,0.758,2.578
	c0.152,0.681,0.229,1.515,0.229,2.501c0,1.062,0.076,1.744,0.227,2.048c0.152,0.379,0.303,0.606,0.607,0.683
	c0.227,0.151,0.758,0.151,1.439,0L300.618,108.95L300.618,108.95z"/>
<path fill-rule="evenodd" clip-rule="evenodd" fill="#FFFFFF" d="M290.989,149.134l-0.986-9.933l-2.502-0.985
	c-0.834-0.303-1.516-0.379-2.047-0.379c-0.682,0.076-1.137,0.455-1.365,1.137c-0.152,0.38-0.229,1.365-0.152,2.806l-0.682,0.076
	l-0.986-9.326l0.684-0.075c0.227,0.986,0.682,1.744,1.365,2.351c0.682,0.606,1.971,1.289,3.865,2.047l20.396,8.037l0.074,0.379
	l-18.803,12.282c-1.818,1.138-2.881,2.047-3.336,2.729c-0.303,0.53-0.455,1.214-0.379,2.046l-0.682,0.076l-1.441-13.646l0.684-0.076
	l0.076,0.606c0.074,1.062,0.303,1.82,0.605,2.275c0.227,0.228,0.531,0.379,0.834,0.379c0.227-0.076,0.455-0.076,0.682-0.228
	c0.076,0,0.531-0.303,1.289-0.759L290.989,149.134L290.989,149.134z"/>
<polygon fill-rule="evenodd" clip-rule="evenodd" fill="#172983" points="292.278,148.3 300.163,143.22 291.368,139.809 
	292.278,148.3 "/>
<path fill-rule="evenodd" clip-rule="evenodd" fill="#009EE0" d="M242.161,232.761c-20.092,22.668-49.434,37-81.958,37
	c-32.602,0-62.02-14.406-82.11-37.227C126.768,202.812,183.327,251.563,242.161,232.761L242.161,232.761z"/>
<path fill-rule="evenodd" clip-rule="evenodd" fill="#172983" d="M174.456,258.388l4.322-13.572h-3.336
	c-1.289,0-2.275,0.15-2.881,0.531c-0.455,0.227-0.834,0.682-1.137,1.365h-0.455l1.137-5.08h9.553l-5.383,16.756H174.456
	L174.456,258.388z"/>
<path fill-rule="evenodd" clip-rule="evenodd" fill="#172983" d="M158.231,258.388v-0.379c1.289-0.305,2.427-0.76,3.336-1.365
	c0.91-0.607,1.592-1.289,2.123-2.199c0.531-0.834,0.91-1.895,1.137-3.033c-0.529,0.229-0.91,0.455-1.289,0.531
	c-0.303,0.076-0.682,0.152-1.061,0.152c-1.213,0-2.198-0.455-3.033-1.365c-0.758-0.834-1.213-2.047-1.213-3.639
	c0-1.063,0.228-2.047,0.683-2.957s1.062-1.592,1.896-2.123c0.758-0.455,1.592-0.76,2.502-0.76s1.82,0.305,2.654,0.834
	c0.834,0.531,1.516,1.365,1.971,2.428c0.531,0.986,0.758,2.199,0.758,3.563c0,1.668-0.379,3.336-1.213,4.928
	c-0.834,1.594-1.971,2.883-3.564,3.791C162.326,257.78,160.431,258.312,158.231,258.388L158.231,258.388z"/>
<path fill-rule="evenodd" clip-rule="evenodd" fill="#009EE0" d="M164.979,250.427c0.076-0.91,0.152-1.744,0.152-2.426
	c0-1.441-0.152-2.807-0.531-4.096c-0.152-0.682-0.455-1.213-0.834-1.516c-0.152-0.227-0.455-0.305-0.758-0.305
	c-0.379,0-0.683,0.229-0.91,0.531c-0.304,0.455-0.455,1.365-0.455,2.73c0,2.197,0.227,3.791,0.758,4.625
	c0.379,0.531,0.834,0.834,1.365,0.834C164.069,250.806,164.524,250.653,164.979,250.427L164.979,250.427z"/>
<path fill-rule="evenodd" clip-rule="evenodd" fill="#172983" d="M153.076,248.759c1.062,0.834,1.896,1.668,2.274,2.35
	c0.455,0.758,0.682,1.592,0.682,2.502c0,1.365-0.454,2.426-1.44,3.412c-0.985,0.908-2.274,1.365-3.941,1.365
	c-1.593,0-2.807-0.457-3.64-1.213c-0.834-0.834-1.289-1.82-1.289-2.959c0-0.832,0.304-1.59,0.759-2.273
	c0.454-0.682,1.288-1.289,2.426-1.818c-1.289-0.986-2.048-1.82-2.351-2.428c-0.379-0.605-0.53-1.363-0.53-2.197
	c0-1.139,0.455-2.049,1.289-2.883c0.909-0.834,2.122-1.287,3.715-1.287c1.516,0,2.729,0.379,3.487,1.135
	c0.834,0.76,1.289,1.594,1.289,2.654c0,0.758-0.228,1.441-0.682,2.049C154.668,247.772,153.986,248.304,153.076,248.759
	L153.076,248.759z"/>
<path fill-rule="evenodd" clip-rule="evenodd" fill="#009EE0" d="M149.816,250.729c-0.229,0.152-0.456,0.379-0.531,0.605
	c-0.151,0.229-0.303,0.684-0.454,1.215c-0.077,0.529-0.152,1.061-0.152,1.666c0,0.76,0.075,1.441,0.304,1.896
	c0.151,0.531,0.454,0.91,0.758,1.137c0.379,0.229,0.758,0.305,1.062,0.305c0.606,0,1.061-0.152,1.516-0.607
	c0.38-0.455,0.531-1.061,0.531-1.744C152.849,253.61,151.862,252.095,149.816,250.729L149.816,250.729z"/>
<path fill-rule="evenodd" clip-rule="evenodd" fill="#009EE0" d="M152.166,248.151c0.304-0.379,0.531-0.834,0.607-1.365
	c0.151-0.531,0.227-1.061,0.227-1.668c0-1.061-0.227-1.818-0.683-2.35c-0.303-0.455-0.758-0.684-1.364-0.684
	c-0.455,0-0.91,0.229-1.289,0.607s-0.606,0.834-0.606,1.441c0,0.605,0.228,1.213,0.683,1.818
	C150.119,246.636,150.953,247.317,152.166,248.151L152.166,248.151z"/>
<path fill-rule="evenodd" clip-rule="evenodd" fill="#172983" d="M140.111,241.251v13.422c0,1.061,0,1.668,0.151,1.971
	c0.076,0.227,0.228,0.455,0.531,0.682c0.228,0.152,0.683,0.229,1.289,0.229h0.379v0.455h-8.416v-0.455h0.456
	c0.682,0,1.137-0.076,1.439-0.229c0.304-0.15,0.455-0.379,0.606-0.682c0.075-0.229,0.151-0.91,0.151-1.971v-8.492
	c0-0.758-0.076-1.215-0.151-1.441c-0.076-0.15-0.151-0.303-0.379-0.455c-0.151-0.15-0.379-0.227-0.682-0.227
	c-0.38,0-0.834,0.15-1.441,0.455l-0.228-0.455l5.914-2.807H140.111L140.111,241.251z"/>
<path fill-rule="evenodd" clip-rule="evenodd" fill="#FFFFFF" d="M175.063,291.368v4.549h0.152c0.303,0,0.529,0,0.758-0.152
	c0.227-0.076,0.379-0.227,0.529-0.455c0.152-0.227,0.229-0.531,0.381-0.834c0.074-0.379,0.15-0.758,0.15-1.213v-0.076h0.455v6.293
	h-0.455v-0.074c0-0.379-0.076-0.684-0.15-0.91c0-0.303-0.076-0.531-0.229-0.758c-0.076-0.152-0.152-0.379-0.303-0.455
	c-0.076-0.152-0.152-0.305-0.303-0.305c-0.152-0.074-0.229-0.15-0.457-0.15c-0.15-0.076-0.303-0.076-0.529-0.076v3.184
	c0,0.305,0,0.607,0,0.76c0.076,0.227,0.076,0.301,0.076,0.377s0.076,0.152,0.076,0.152c0.074,0.076,0.074,0.152,0.15,0.152
	c0.076,0.076,0.152,0.076,0.227,0.152c0.076,0,0.229,0,0.381,0h0.605c0.91,0,1.592-0.229,2.199-0.76
	c0.227-0.227,0.455-0.529,0.682-0.908c0.229-0.381,0.381-0.834,0.455-1.365h0.455v0.076l-0.455,3.715v0.074h-8.795v-0.531h0.379
	c0.152,0,0.303,0,0.379,0c0.076-0.074,0.229-0.074,0.305-0.15c0.076,0,0.076-0.076,0.15-0.15c0-0.076,0.076-0.152,0.076-0.229
	c0.076-0.076,0.076-0.152,0.076-0.379c0-0.152,0-0.379,0-0.682v-7.658c0-0.229,0-0.455,0-0.607c0-0.15,0-0.303,0-0.303
	c0-0.076-0.076-0.229-0.076-0.229c-0.076-0.074-0.15-0.15-0.15-0.227c-0.152-0.076-0.229-0.15-0.305-0.15
	c-0.152,0-0.303-0.076-0.455-0.076h-0.379v-0.455h8.492v3.563h-0.379c-0.076-0.455-0.15-0.834-0.303-1.137
	c-0.076-0.227-0.229-0.531-0.305-0.682c-0.15-0.152-0.303-0.305-0.455-0.455c-0.15-0.152-0.379-0.229-0.605-0.305
	c-0.15-0.076-0.303-0.076-0.607-0.15c-0.227,0-0.529,0-0.908,0H175.063L175.063,291.368z"/>
<path fill-rule="evenodd" clip-rule="evenodd" fill="#FFFFFF" d="M170.894,298.116v0.076l-0.379,4.094v0.074h-9.022v-0.531h0.378
	c0.152,0,0.304,0,0.38,0c0.076-0.074,0.228-0.074,0.304-0.15c0.076,0,0.076-0.076,0.15-0.15c0-0.076,0.076-0.152,0.076-0.229
	c0.076-0.076,0.076-0.152,0.076-0.379c0-0.152,0-0.379,0-0.682v-7.658c0-0.303,0-0.531,0-0.682c0-0.229,0-0.305-0.076-0.381
	c0-0.076,0-0.15-0.076-0.227c-0.074,0-0.15-0.076-0.227-0.152c-0.076,0-0.151-0.074-0.228-0.074
	c-0.076-0.076-0.228-0.076-0.38-0.076h-0.378v-0.455h5.458v0.455h-0.529c-0.078,0-0.229,0-0.305,0.076
	c-0.15,0-0.227,0.074-0.303,0.074c-0.076,0.076-0.152,0.152-0.152,0.152c-0.074,0.076-0.074,0.15-0.15,0.227
	c0,0.076,0,0.229-0.076,0.381c0,0.15,0,0.453,0,0.682v7.43c0,0.303,0,0.531,0,0.758c0.076,0.152,0.076,0.303,0.076,0.379
	c0.076,0.076,0.076,0.076,0.15,0.152c0,0.076,0.076,0.076,0.152,0.152c0.076,0,0.152,0,0.303,0.076c0.152,0,0.379,0,0.607,0h0.834
	c0.455,0,0.91-0.152,1.289-0.305c0.15-0.152,0.303-0.229,0.455-0.455c0.15-0.15,0.303-0.303,0.379-0.605
	c0.15-0.229,0.303-0.455,0.379-0.836c0.15-0.301,0.303-0.756,0.379-1.211H170.894L170.894,298.116z"/>
<path fill-rule="evenodd" clip-rule="evenodd" fill="#FFFFFF" d="M161.112,301.829v0.531h-5.383v-0.531h0.379
	c0.152,0,0.304,0,0.379,0c0.152-0.074,0.228-0.074,0.304-0.15c0.076,0,0.076-0.076,0.151-0.15c0.076-0.076,0.076-0.152,0.076-0.229
	c0.075-0.076,0.075-0.152,0.075-0.379c0-0.152,0-0.379,0-0.682v-7.658c0-0.531,0-0.91-0.075-1.063c0-0.076,0-0.15-0.076-0.227
	c-0.075,0-0.075-0.076-0.151-0.152c-0.076,0-0.228-0.074-0.304-0.074c-0.075-0.076-0.227-0.076-0.379-0.076h-0.379v-0.455h5.383
	v0.455h-0.379c-0.15,0-0.303,0-0.379,0.076c-0.151,0-0.228,0.074-0.304,0.074c-0.075,0.076-0.151,0.152-0.151,0.152
	c-0.076,0.076-0.076,0.15-0.151,0.227c0,0.076,0,0.229,0,0.381c-0.076,0.15-0.076,0.453-0.076,0.682v7.658
	c0,0.605,0.076,0.984,0.076,1.137c0.075,0,0.075,0.076,0.151,0.152c0.076,0.074,0.076,0.15,0.151,0.15
	c0.076,0.076,0.229,0.076,0.304,0.15c0.076,0,0.229,0,0.379,0H161.112L161.112,301.829z"/>
<path fill-rule="evenodd" clip-rule="evenodd" fill="#FFFFFF" d="M148.071,296.751v3.488c0,0.605,0,0.984,0.077,1.137
	c0,0,0.075,0.076,0.075,0.152c0.076,0.074,0.151,0.15,0.228,0.15c0.075,0.076,0.152,0.076,0.228,0.15c0.152,0,0.228,0,0.379,0h0.454
	v0.531h-5.382v-0.531h0.455c0.151,0,0.228,0,0.379,0c0.075-0.074,0.15-0.074,0.228-0.15c0.075,0,0.151-0.076,0.151-0.15
	c0.075-0.076,0.151-0.152,0.151-0.229s0.075-0.152,0.075-0.379c0-0.152,0-0.379,0-0.682v-7.658c0-0.303,0-0.531,0-0.682
	c0-0.229-0.075-0.305-0.075-0.381s-0.076-0.15-0.076-0.227c-0.075,0-0.151-0.076-0.227-0.152c-0.077,0-0.152-0.074-0.228-0.074
	c-0.151-0.076-0.228-0.076-0.379-0.076h-0.455v-0.455h5.382v0.455h-0.454c-0.151,0-0.227,0-0.379,0.076
	c-0.075,0-0.228,0.074-0.304,0.074c0,0.076-0.075,0.152-0.151,0.152c0,0.076-0.075,0.15-0.075,0.227
	c-0.077,0.076-0.077,0.229-0.077,0.381c0,0.15,0,0.453,0,0.682v3.26h3.337v-3.26c0-0.303,0-0.531,0-0.682
	c0-0.229,0-0.305-0.076-0.381c0-0.076,0-0.15-0.075-0.227c-0.076,0-0.151-0.076-0.228-0.152c-0.076,0-0.152-0.074-0.228-0.074
	c-0.151-0.076-0.228-0.076-0.38-0.076h-0.379v-0.455h5.384v0.455h-0.379c-0.152,0-0.304,0-0.38,0.076
	c-0.151,0-0.227,0.074-0.303,0.074c-0.076,0.076-0.152,0.152-0.152,0.152c-0.075,0.076-0.075,0.15-0.151,0.227
	c0,0.076,0,0.229,0,0.381c-0.075,0.15-0.075,0.453-0.075,0.682v7.658c0,0.303,0,0.529,0.075,0.756c0,0.152,0,0.305,0,0.381
	c0.076,0,0.076,0.076,0.151,0.152c0,0.074,0.076,0.15,0.152,0.15c0.076,0.076,0.151,0.076,0.303,0.15c0.076,0,0.228,0,0.38,0h0.379
	v0.531h-5.384v-0.531h0.379c0.152,0,0.304,0,0.38,0c0.151-0.074,0.228-0.074,0.304-0.15c0.075,0,0.075-0.076,0.151-0.15
	c0-0.076,0.075-0.152,0.075-0.229c0.076-0.076,0.076-0.152,0.076-0.379c0-0.152,0-0.379,0-0.682v-3.488H148.071L148.071,296.751z"/>
<path fill-rule="evenodd" clip-rule="evenodd" fill="#FFFFFF" d="M143.296,290.306v4.17h-0.455v-0.076
	c-0.076-0.529-0.228-0.984-0.455-1.363c-0.227-0.379-0.455-0.758-0.758-0.986c-0.229-0.303-0.606-0.531-0.91-0.682
	c-0.303-0.076-0.683-0.152-0.985-0.152s-0.606,0-0.91,0.152c-0.303,0.074-0.53,0.227-0.834,0.455
	c-0.228,0.15-0.455,0.455-0.606,0.682c-0.228,0.303-0.379,0.605-0.454,0.91c-0.152,0.455-0.305,0.91-0.38,1.363
	c-0.076,0.457-0.076,0.986-0.076,1.518c0,0.455,0,0.986,0.076,1.441c0,0.455,0.151,0.908,0.228,1.363
	c0.152,0.379,0.228,0.76,0.455,1.063c0.151,0.379,0.379,0.605,0.606,0.832c0.228,0.229,0.455,0.381,0.758,0.457
	c0.304,0.15,0.683,0.15,1.063,0.15c0.303,0,0.605,0,0.909-0.074c0.228-0.076,0.53-0.229,0.758-0.381
	c0.304-0.152,0.531-0.379,0.835-0.605c0.227-0.303,0.53-0.607,0.833-0.986h0.152v0.986l-0.077,0.076
	c-0.227,0.377-0.529,0.682-0.833,0.91c-0.304,0.227-0.606,0.453-0.91,0.605c-0.303,0.152-0.682,0.227-0.985,0.379
	c-0.379,0.076-0.758,0.076-1.213,0.076c-1.062,0-2.047-0.229-2.881-0.76c-0.379-0.227-0.758-0.529-1.138-0.908
	c-0.303-0.379-0.53-0.758-0.834-1.289c-0.228-0.455-0.379-0.91-0.455-1.439c-0.151-0.531-0.228-0.986-0.228-1.518
	c0-0.607,0.076-1.137,0.228-1.668s0.304-1.061,0.531-1.592c0.304-0.455,0.606-0.91,0.909-1.289c0.38-0.379,0.759-0.758,1.213-0.986
	c0.38-0.303,0.835-0.531,1.289-0.682c0.455-0.152,0.91-0.152,1.44-0.152c0.38,0,0.683,0,1.062,0.076
	c0.38,0.076,0.759,0.227,1.214,0.455c0.227,0.076,0.379,0.152,0.53,0.229c0.152,0,0.228,0.074,0.304,0.074
	c0.075,0,0.075-0.074,0.151-0.074s0.151-0.076,0.151-0.152c0.076,0,0.076-0.152,0.151-0.229c0-0.076,0.076-0.227,0.076-0.379
	H143.296L143.296,290.306z"/>
<path fill-rule="evenodd" clip-rule="evenodd" d="M189.849,192.122l6.672-7.051l11.523,9.932
	C201.901,194.245,195.837,193.259,189.849,192.122L189.849,192.122z"/>
<path fill-rule="evenodd" clip-rule="evenodd" d="M94.545,147.921l48.447,13.344l5.687,7.885l23.957,0.076l12.283-18.045
	l12.889-3.942l35.18-19.637v12.132l-4.396,3.563l-6.141,23.049c-1.744,6.369-6.9,13.723-13.496,14.633l-15.467,2.199l-7.43,8.262
	c-25.021-4.852-49.435-11.295-72.482-13.039l-5.838-15.088l-4.776-2.122L94.545,147.921L94.545,147.921z"/>
<path fill-rule="evenodd" clip-rule="evenodd" d="M102.506,97.729l0.303-0.379l0.531,0.075l59.593,9.856l1.213,0.228l-0.607,1.062
	c-4.928,9.022-8.946,17.817-10.689,26.385c-1.819,8.566-1.517,16.907,2.047,25.247l0.758,1.669l-1.819-0.456l-51.632-14.102
	l-0.53-0.379c-5.459-9.099-7.733-17.817-7.582-25.702C94.241,112.136,97.426,104.099,102.506,97.729L102.506,97.729z"/>
<path fill-rule="evenodd" clip-rule="evenodd" fill="#009EE0" d="M135.79,154.593l16.832,4.625
	c-3.11-8.112-3.337-16.301-1.593-24.641c1.819-8.416,5.61-16.983,10.311-25.703l-21.38-3.563c-5.231,5.459-8.72,14.027-9.477,23.428
	C129.724,137.306,131.24,146.48,135.79,154.593L135.79,154.593z"/>
<path fill-rule="evenodd" clip-rule="evenodd" fill="#FFFFFF" d="M118.958,150.044l14.481,3.942
	c-4.094-8.113-5.459-17.059-4.776-25.399c0.834-9.326,4.17-17.817,9.249-23.655l-20.243-3.335c-4.7,5.837-7.733,13.116-7.506,21.834
	C110.314,131.165,112.893,140.035,118.958,150.044L118.958,150.044z"/>
<path fill-rule="evenodd" clip-rule="evenodd" fill="#009EE0" d="M103.567,99.246c-4.625,6.064-7.507,13.571-7.658,21.987
	c-0.151,7.505,1.972,15.846,7.052,24.488l13.495,3.639c-5.534-9.627-7.961-18.271-8.112-25.93
	c-0.151-8.793,2.653-16.148,7.278-22.139L103.567,99.246L103.567,99.246z"/>
<path fill-rule="evenodd" clip-rule="evenodd" d="M148.224,74.075l0.53-0.229l68.237,3.791l1.742,0.075l-1.061,1.365
	c-7.506,9.705-13.42,19.864-15.998,32.45s-1.744,27.673,4.322,47.234l0.379,1.289l-1.289-0.151l-49.585-3.867l-0.683-0.076
	l-0.151-0.605c-1.668-8.72-0.758-17.287,1.972-25.628c2.502-7.884,6.52-15.618,11.221-23.199l-35.634-5.914l-0.91-0.152l0.152-0.909
	c1.137-5.459,2.881-10.159,5.61-14.329C139.732,81.05,143.447,77.41,148.224,74.075L148.224,74.075z"/>
<path fill-rule="evenodd" clip-rule="evenodd" fill="#009EE0" d="M150.271,101.748c0.53-4.853,2.273-10.008,4.548-14.633
	c2.123-4.246,4.853-8.037,7.507-10.69l-13.344-0.758c-4.474,3.184-7.886,6.596-10.463,10.538c-2.427,3.715-4.018,7.96-5.08,12.737
	L150.271,101.748L150.271,101.748z"/>
<path fill-rule="evenodd" clip-rule="evenodd" fill="#FFFFFF" d="M178.854,156.108c-3.564-17.21-3.867-32.525-1.971-45.339
	c2.047-14.178,6.822-25.398,12.965-32.828l-24.945-1.365c-3.033,2.427-6.065,6.521-8.491,11.372
	c-2.199,4.398-3.867,9.402-4.397,14.103l17.438,2.881l1.365,0.228l-0.758,1.137c-4.928,7.887-9.174,15.847-11.752,23.96
	c-2.502,7.885-3.488,15.922-1.972,24.033L178.854,156.108L178.854,156.108z"/>
<path fill-rule="evenodd" clip-rule="evenodd" fill="#009EE0" d="M192.046,78.017c-6.293,7.203-11.297,18.5-13.42,32.981
	c-1.895,12.813-1.516,28.128,2.047,45.187l23.277,1.819c-5.838-19.182-6.598-34.192-4.02-46.854
	c2.502-12.282,8.113-22.366,15.316-31.844L192.046,78.017L192.046,78.017z"/>
<path fill-rule="evenodd" clip-rule="evenodd" d="M158.231,45.264l0.228-0.531h0.531h14.101l0.305-13.95l0.227-0.53
	c2.123-2.275,4.701-2.806,7.43-2.427c3.641,0.531,7.355,2.881,9.326,4.55c1.744,1.516,3.26,2.122,5.08,2.35s4.02,0,6.975-0.379
	l0.682,1.517c-2.805,2.653-6.063,4.094-9.4,4.776c-3.184,0.683-6.369,0.683-9.098,0.379c-1.289-0.151-2.881,0.152-4.246,0.683
	c-1.668,0.53-3.033,1.364-3.639,2.047c-0.076,0.151-0.229,0.53-0.379,0.985l14.709,0.076h1.289l-0.381,1.137
	c-1.818,5.231-2.881,10.16-2.652,14.784c0.227,4.551,1.744,8.796,5.08,12.662l1.439,1.668l-2.123-0.151l-28.432-1.971l-0.607-0.228
	c-4.32-4.246-6.897-8.871-7.96-13.345C155.502,54.361,156.185,49.434,158.231,45.264L158.231,45.264z"/>
<path fill-rule="evenodd" clip-rule="evenodd" fill="#009EE0" d="M183.782,72.406l7.961,0.531c-2.729-3.715-3.941-7.81-4.17-12.131
	c-0.229-4.474,0.682-9.25,2.275-14.254h-10.16c-2.352,3.261-3.26,7.733-2.502,12.435c0.682,4.473,2.881,9.173,6.748,13.191
	L183.782,72.406L183.782,72.406z"/>
<path fill-rule="evenodd" clip-rule="evenodd" fill="#FFFFFF" d="M174.304,71.725l7.279,0.53c-3.486-4.095-5.533-8.567-6.217-12.965
	c-0.682-4.701,0.076-9.175,2.199-12.737h-10.463c-1.896,3.336-2.35,7.506-1.137,11.979
	C167.103,62.701,169.831,67.251,174.304,71.725L174.304,71.725z"/>
<path fill-rule="evenodd" clip-rule="evenodd" fill="#009EE0" d="M159.597,46.553c-1.744,3.715-2.199,8.036-1.138,12.435
	c0.985,4.094,3.26,8.264,7.278,12.205l5.914,0.381c-3.867-4.247-6.293-8.568-7.43-12.586c-1.213-4.549-0.834-8.872,0.834-12.435
	H159.597L159.597,46.553z"/>
<path fill-rule="evenodd" clip-rule="evenodd" fill="#009EE0" d="M264.376,194.019c-2.578,7.883-5.988,15.391-10.234,22.441v-20.697
	C257.554,195.308,260.964,194.776,264.376,194.019L264.376,194.019z M239.888,230.714c-4.854,0.379-9.553,0.605-14.254,0.531
	v-34.574c4.775,0.305,9.477,0.379,14.254,0.229V230.714L239.888,230.714z M211.38,230.562c-4.777-0.455-9.553-1.061-14.254-1.818
	v-35.332c4.775,0.758,9.477,1.516,14.254,2.047V230.562L211.38,230.562z M182.872,225.937c-4.775-1.061-9.477-2.197-14.254-3.412
	v-34.648c4.777,0.986,9.479,1.971,14.254,2.881V225.937L182.872,225.937z M154.365,218.735c-4.701-1.289-9.401-2.428-14.178-3.488
	v-33.133c4.776,0.834,9.4,1.82,14.178,2.805V218.735L154.365,218.735z M126.01,212.593c-4.853-0.758-9.554-1.289-14.254-1.592
	v-32.678c4.625,0.303,9.401,0.758,14.254,1.441V212.593L126.01,212.593z M97.502,210.849c-4.853,0.229-9.629,0.834-14.254,1.744
	v-33.057c4.625-0.832,9.401-1.289,14.254-1.439V210.849L97.502,210.849z M68.994,216.839c-0.683,0.303-1.289,0.529-1.896,0.834
	c-5.23-8.416-9.325-17.666-12.131-27.371c4.55-2.881,9.25-5.154,14.026-6.822V216.839L68.994,216.839z"/>
<path fill-rule="evenodd" clip-rule="evenodd" fill="#009EE0" d="M175.216,31.161l-0.305,12.207
	c0.152-0.304,0.305-0.606,0.531-0.835c0.758-0.833,2.426-1.895,4.322-2.577c1.592-0.53,3.41-0.834,5.078-0.683
	c2.502,0.229,5.535,0.304,8.568-0.378c2.047-0.456,4.17-1.213,6.066-2.427c-1.594,0.151-2.957,0.228-4.248,0.076
	c-2.121-0.304-3.941-1.062-5.988-2.806c-1.82-1.517-5.156-3.64-8.492-4.17C178.778,29.266,176.731,29.646,175.216,31.161
	L175.216,31.161z"/>
</svg>
