<svg xmlns="http://www.w3.org/2000/svg" xmlns:xlink="http://www.w3.org/1999/xlink" xml:space="preserve" id="Lager_1" x="0" y="0" version="1.1" viewBox="-0.41 -0.11 176.52 141.46"><metadata xmlns:fl="https://football-logos.cc/sweden/mjallby">dl1_675b4706d634aa777cba1fbf075e7434e5444853477040b9d061cd71fcf50df1</metadata><!-- Source: https://football-logos.cc --><style id="style3217" type="text/css" data-source="https://football-logos.cc">.st2,.st5{fill-rule:evenodd;clip-rule:evenodd;fill:#ffd400}.st5{fill:#231f20}</style><g id="g3227" transform="translate(-7.1 -24.3)"><defs id="defs3220"><path id="SVGID_1_" d="M7.1 24.3h175.7v141.3H7.1z"></path></defs><clipPath id="SVGID_2_"><use xlink:href="#SVGID_1_" id="use3222" width="100%" height="100%" x="0" y="0" style="overflow:visible"></use></clipPath><path id="path3225" d="M153.8 67.1c1.8 2.6 3.4 5.3 4.9 8.6 0 4-.2 8.2-1 12-1.3 2.5-2.6 5-3.8 7.5v27c.2 1.7-.1 3.7.8 4.6.8 1 2.2 1.2 4.2 1.4-.5.5-2.8 1.7-5.1 2.7v12.4c6.5-4.6 11.6-11.8 15.4-18.7l-4.7 1.8c-.7-1.2 8.2-6.7 12-14.6 3.3-6.9 4.3-14.7 6.6-22-1.5.2-3 .8-4.4 1.6 2.8-5.7 3.8-11.5 3.5-17.4-.3-7.2-2.6-14.1-5.3-20.9-.1 3.8-.4 7.1-2 9.8-2.3-10.9-8.3-20.7-14.9-29.5 0 1.7.3 3.4-.1 5.2-2-1.5-4.2-3.3-6.2-4.8zm-24.2-36.9c-1.1-.1-2.2-.3-3.3-.4V39c2.3 2.4 4.6 4.6 7.2 6.7 2.4 2 5.9 2.4 8.8 3.5 2.6 4.4 4.9 8.8 7.9 13 1.2 1.7 2.5 3.3 3.6 4.9l-.1-33.3c-1.5-1.2-3.1-2.4-4.7-3.3-4.2-2.5-9.3-5.8-13.4-6.2 3.2 3.7 6.9 7.3 7.8 10.7-1.2.1-8.9-4.4-13.8-4.8m24.3 65c-3.9 7.8-7.7 15.6-11.8 23.4-1.4 3.3-3.6 6.1-4.9 10-3.6 1.2-7.2 2.1-10.9 3.3l-.1 10.4c2.3-2.4 5-5.3 7.3-8.9.4 1.6.2 2.7-.2 4.4-.9 1.9-2.4 3.2-3.5 4.9 0 .1-.6 2.6-.7 2.7-.5 1.4-2.1 1.9-2.8 2.1l-.1 14.3c.4-.1-.4.1 0 0 8.1-1.8 17.8-4.3 24-10.6-3.9.9-7.9 1.6-11.9 1.5-2.9-.1-6.7-.3-8.6-2 7.2-1.9 15.2-2.1 21.6-5.8.9-.5 1.7-1 2.5-1.6v-12.4c-1.7.7-3.5 1.5-5 2.1 2.1-4.6 4.1-11.1 4.9-11.1 0 .1.2.2.2.3zm-27.6-65.5c-3.6-.6-7.1-1.7-10.7-2.2 3.6 3.8 7.1 7.7 10.7 11.4zm0 102.2c-1.5.5-2.9.9-4.4 1.5-8.2 3.5-16.1 9.2-21.6 16.1-.2 3.9-.2 7.7-.4 11.6 2.1 1.5 4 3.4 6.4 4.1 1.8.6 3.8.4 5.4-.5.5-2.6-4.4-2.7-3.9-4.4 6.1 1.4 12.4 2.5 18.4 1.5l.1-14.3c-.3.1 0 0 0 0-.9.4-2.9 1.4-3.5 2.1-1.8-.1-4.5.3-3.9-.6.4-.3 3.5-2.6 7.3-6.7z" style="clip-path:url(#SVGID_2_);clip-rule:evenodd;fill:#231f20;fill-rule:evenodd"></path></g><path id="path3229" d="M126.9 18.5c-4-2.7-6.9-6.9-10.3-10.4 4.5 0 9.4 1.1 13.8 2.6 3 1 5.6 2.4 8.2 4.8.8 1.9 1.7 3.9 2.5 5.8-4.2-2.8-8.4-5.6-13.4-8.1 0 .6-.1 1.1-.1 1.7 3.3 2.5 8.2 5.2 10.3 7.7-4.6-.1-7.8-2-11-4.1" style="clip-rule:evenodd;fill:#fcd109;fill-rule:evenodd"></path><path id="path3231" d="M144.8 10.9c-2.4-1.7-4.9-3.3-7.7-4.2 2.4 4.9 4.6 9.6 7.1 13.9 1.5 2.9 5 5.8 4.8 8.4 1.9 2 3.5 4.1 5.1 6.1.2-1.1.2-2.1.1-3.2-3.2-4.8-6.3-9.5-9.1-14.4 0-.7.4-1.4.7-1.9 2.4 3.2 4.6 6.8 7.1 9.7v-7.6c-2.7-2.3-5.2-4.8-8.1-6.8" class="st2" style="clip-rule:evenodd;fill:#ffd400;fill-rule:evenodd"></path><path id="path3233" d="M147.6 31.1c-2.6-2.2-6-4.6-9.1-4.9.9 4.8 5.3 8.1 7.9 12.1 2.1 3.2 4.3 5.8 6.2 9.5.6-.5 1.1-1.3 1.3-2.2-3.1-3.7-5.7-7.3-8.1-11.2-.1-.6.1-1.2.5-1.6 2.8 3.5 5 7.1 8.3 10.5.1-1.2.1-2.5-.2-3.8-2-3.2-4-6.1-6.8-8.4" class="st2" style="clip-rule:evenodd;fill:#ffd400;fill-rule:evenodd"></path><path id="path3235" d="M163.4 32.8c-1.3-4.6-4.9-11.8-6.9-12.5-.1 6.3 0 12.1 1.2 18.1.9 4.4 2.2 11.6 4.8 12.7-.3-5.9-2.9-12.3-4-18.4.4-.4 1.1-.3 1.8.3 1.8 4.9 2.8 9.6 4 14.6 2.2-.4.5-10-.9-14.8" class="st2" style="clip-rule:evenodd;fill:#ffd400;fill-rule:evenodd"></path><path id="path3237" d="M172.1 51.6c0-3.1-.9-6.3-1.7-9.1-1.6 3.8-3.9 7.4-4.7 11.4-.7 3.7-.6 10.2.4 11.4 2.2-3 1.7-6.9 2.6-10.4.2-.5.6-.3.9-.1.6 2.1.5 4.3.8 6.4 1.7-.2 1.8-6.4 1.7-9.6" class="st2" style="clip-rule:evenodd;fill:#ffd400;fill-rule:evenodd"></path><path id="path3239" d="M159.8 51.4c-1-1.6-2.1-3.4-3.6-4.4-.7 4.8-1.7 9.6-1.1 14.4.5 4 2.8 7.6 4.2 11.4 1.3.8.5-8.4 0-12.6.6-.2 1.1 0 1.5.4 1.5 5.4 1 15.8 1.4 16 1.1-.8 1.9-1.8 2.8-3.1-.7-2.7-1.5-5.2-1.8-7.9-.4-2.6-.2-5.3-.3-8-1-2.1-1.8-4.2-3.1-6.2" class="st2" style="clip-rule:evenodd;fill:#ffd400;fill-rule:evenodd"></path><path id="path3241" d="M166.7 86.1c1.9-3.8 3-8 3.8-12.2-3.7 3.2-7.9 7.5-11 11.9-2.7 3.9-6 9-6.2 12.7 3.7-3.4 6.6-9.4 10.1-13.9.3.1.9.4 1 .9-1 3.1-3.1 5.9-4.3 8.9 2.2-.5 5-5.2 6.6-8.3" class="st2" style="clip-rule:evenodd;fill:#ffd400;fill-rule:evenodd"></path><path id="path3243" d="M157 78.3c.4-4.5-1.3-8.8-3-11.6-1.2 5.3-3.4 10.3-4.5 15.6-.9 4.1-1.3 8.8 0 12.6 1.7-4.8 2.6-10.2 3.7-15.2.4-.3.8-.1.9.4 0 3.7-.7 7.3-.8 11 2.4-1 3.2-8.3 3.7-12.8" class="st2" style="clip-rule:evenodd;fill:#ffd400;fill-rule:evenodd"></path><path id="path3245" d="M140.1 104.6c2.8-5.2 4-10.9 5.2-16.9-3.1 3.1-6.8 5.8-9.3 9.4-2.6 3.8-5.1 9.1-5.8 12.7 1.4 0 5.5-7 8.4-10.3.6.3.8.2.7 1.1-2.6 5.8-9.2 13-9.1 15 2.9-1.1 7.6-6.6 9.9-11" class="st2" style="clip-rule:evenodd;fill:#ffd400;fill-rule:evenodd"></path><path id="path3247" d="M146.2 116.3c3.2-2.8 6.2-5.1 8.8-9.5-4.4.6-9.1 2.5-13.2 4.7-4.4 2.3-8.6 5.1-12.1 8.5 1.4 2 11.2-5.6 16.9-8.4.7.2 1.1.8.9 1.3-4.4 3.2-8.8 5.6-13.4 8.2 3.3.6 8.7-1.9 12.1-4.8" class="st2" style="clip-rule:evenodd;fill:#ffd400;fill-rule:evenodd"></path><path id="path3249" d="M113.9 119.5c3.3-2.7 6.3-5.5 8.1-9.9-4.4.7-9.1 2.5-13.1 4.9-3.7 2.2-10.4 7.6-9.4 8.6.7 1.3 13.7-9.6 14.6-8.4 1.4.8-11.5 8.8-11.4 10.5 3.1-.1 7.9-3.1 11.2-5.7" class="st2" style="clip-rule:evenodd;fill:#ffd400;fill-rule:evenodd"></path><path id="path3251" d="M114.6 135.6c5.7-.3 11.5-2.1 16.6-4.6-5.9-1.3-11.7-2.5-17.6-2.6-3.9-.1-12.2.5-11.4 1.7-.2 1.6 23.2-.6 21.7 1.5.7 2.1-15.4 1.2-23.3 1.2-.2 1.9 9.2 3.1 14 2.8" class="st2" style="clip-rule:evenodd;fill:#ffd400;fill-rule:evenodd"></path><g id="g3261" transform="translate(-7.1 -24.3)"><defs id="defs3254"><path id="SVGID_3_" d="M7.1 24.3h175.7v141.3H7.1z"></path></defs><clipPath id="SVGID_4_"><use xlink:href="#SVGID_3_" id="use3256" width="100%" height="100%" x="0" y="0" style="overflow:visible"></use></clipPath><path id="path3259" d="M63.6 29.7c3.6-.6 7.1-1.7 10.7-2.2-3.6 3.8-7.1 7.7-10.7 11.4zM68 133.4c8.2 3.5 16.1 9.2 21.6 16.1.2 3.9.2 7.7.4 11.6-2.1 1.5-4 3.4-6.4 4.1-1.8.6-3.8.4-5.4-.5-.5-2.6 4.4-2.7 3.9-4.4-6.1 1.4-12.5 2.8-18.5 1.8v-14.6c.3.1 0 0 0 0s2.9 1.4 3.5 2.1c1.8-.1 4.5.3 3.9-.6-.4-.3-3.6-2.4-7.4-6.5v-10.6s3.273 1.05 4.4 1.5M60.3 30.2c1.1-.1 2.2-.3 3.3-.4V39c-2.3 2.4-4.6 4.6-7.2 6.7-2.4 2-5.9 2.4-8.8 3.5-2.6 4.4-4.9 8.8-7.9 13-1.2 1.7-2.4 3.3-3.5 4.9V33.8c1.5-1.2 3.1-2.4 4.7-3.3 4.2-2.5 9.3-5.8 13.4-6.2C51 28 47.4 31.5 46.4 35c1.3.1 9-4.4 13.9-4.8m-24.2 65c3.9 7.8 7.6 15.6 11.7 23.4 1.4 3.3 3.6 6.1 4.9 10 3.6 1.2 7.2 2.1 10.9 3.3v10.6c-2.3-2.4-4.9-5.5-7.2-9.1-.4 1.6-.2 2.7.2 4.4.9 1.9 2.4 3.2 3.5 4.9 0 .1.6 2.6.7 2.7.5 1.4 2.1 1.9 2.8 2.1v14.6c-.4-.1-.9-.1-1.3-.2-8.1-1.8-16.4-4.4-22.6-10.7 4 .9 7.9 1.6 11.9 1.5 2.9-.1 6.7-.3 8.6-2-7.2-1.9-15.2-2.1-21.6-5.8-.8-.5-1.7-1-2.5-1.6v-12.4c1.7.7 3.5 1.5 5 2.1-2.1-4.6-4.1-11.1-4.9-11.1 0 .1-.2.2-.2.3zm0-28.1c-1.8 2.6-3.4 5.3-4.9 8.6 0 4 .2 8.2 1 12 1.3 2.5 2.7 5 3.9 7.5l-.1 27c-.2 1.7.1 3.7-.8 4.6-.8 1-2.2 1.2-4.2 1.4.5.5 2.8 1.7 5.1 2.7v12.4c-6.4-4.6-11.6-11.8-15.4-18.7l4.7 1.8c.7-1.2-8.2-6.7-12-14.6-3.3-6.9-4.3-14.7-6.6-22 1.5.2 3 .8 4.4 1.6C8.7 85.6 7.7 79.8 8 73.9c.3-7.2 2.6-14.1 5.3-20.9.1 3.8.4 7.1 2 9.8 2.3-10.9 8.3-20.7 14.9-29.5 0 1.7-.3 3.4.1 5.2 2-1.5 3.9-3.2 5.9-4.7v33.3z" style="clip-path:url(#SVGID_4_);clip-rule:evenodd;fill:#231f20;fill-rule:evenodd"></path></g><path id="path3263" d="M87.7 109.6c-30.5-.4-60.9-17.6-61.3-44.4-.4-30.1 30.7-45.9 60.8-45.4 29.8.4 63.6 14.4 62.8 46.2-.8 30.4-34.4 44-62.3 43.6" class="st2" style="clip-rule:evenodd;fill:#ffd400;fill-rule:evenodd"></path><path id="path3265" d="M87.7 109.6c-30.5-.4-60.9-17.6-61.3-44.4-.4-30.1 30.7-45.9 60.8-45.4 29.8.4 63.6 14.4 62.8 46.2-.8 30.4-34.4 44-62.3 43.6z" style="fill:none;stroke:#231f20;stroke-width:4.63000011;stroke-miterlimit:2.61299992"></path><path id="path3267" d="M26.7 60.2c.9-3.9 2.6-8.4 3.5-12.2 8.3 7.2 38.4 16.6 59 17 19.8.4 39.4-5.5 57.7-14.1l2.8 14.4c-.6 3.8-1.2 7.6-1.8 11.3-15.4 6.9-38.6 12.3-58.5 11.9-20.9-.4-43.7-5.2-61.3-14.5z" class="st5" style="clip-rule:evenodd;fill:#231f20;fill-rule:evenodd"></path><g id="g3291" transform="translate(-7.1 -24.3)"><path id="path3269" d="M98.5 80.6c1.4.2 2.8.6 4.1 1 .2-.5.5-1.1.7-1.6.1-.4.3-.8.4-1.2 0-.1.1-.2.1-.3.3-.9.6-1.9.9-2.8q.9-3.6.9-6.9c-.1-2.1-.4-4.1-.9-6.1-.2-.9-.5-1.9-.9-2.8 0-.1-.1-.2-.1-.2-.1-.4-.3-.8-.4-1.2-.4-1.1-.9-2.1-1.5-3.2-1.1.4-2.2.8-3.3 1-.2.1-.5.1-.7.1h-.2s0 .1.1.1c0 0 0 .1.1.1.2.5.5 1.1.7 1.7 1.2 3.3 1.9 7.9 2 10.4 0 3.3-.8 6.7-2 9.9-.2.6-.5 1.2-.7 1.8v.1c.2 0 .4 0 .7.1" class="st5" style="clip-rule:evenodd;fill:#231f20;fill-rule:evenodd"></path><path id="path3271" d="M91.3 78.6c-.1-.2-.1-.3-.2-.5-.1-.4-.3-.8-.4-1.2-1-2.8-1.7-5.6-1.7-8.5-.1-2.9.6-6.8 1.7-10.1.1-.4.3-.8.4-1.2.1-.1.1-.3.2-.4s.1-.2.2-.4h-.4c-.1 0-.3-.1-.4-.1-.7-.2-1.4-.3-2.1-.6-.3-.1-.7-.3-1.1-.4-.6 1.3-1.1 2.6-1.6 3.9-.2.6-.4 1.1-.5 1.7-.2.8-.4 1.5-.5 2.2-.4 1.8-.6 3.6-.5 5.4 0 1.5.2 3 .5 4.6.1.7.3 1.4.5 2.1.1.6.3 1.2.5 1.7.5 1.6 1.1 3.1 1.7 4.6.3-.1.7-.2 1-.3.7-.2 1.4-.4 2.1-.5.1 0 .3-.1.4-.1h.5c.1 0 .3-.1.5-.1-.2-.4-.3-.7-.5-1.1-.1-.2-.2-.5-.3-.7" class="st5" style="clip-rule:evenodd;fill:#231f20;fill-rule:evenodd"></path><path id="path3273" d="M95.1 80.2c.5 0 1 0 1.6.1.4-1 .7-2.1 1-3.2 0-.1 0-.1.1-.2.3-.9.5-1.7.7-2.6.4-1.9.7-3.8.7-5.6 0-2.1-.2-4.2-.7-6.3-.2-.9-.4-1.8-.7-2.7 0-.1 0-.1-.1-.2-.3-1-.7-2-1.1-3-.6.1-1 .1-1.5.1-.8 0-1.6 0-2.6-.1-.3 1-.6 2-.9 2.9-.1.4-.2.7-.3 1-.1.2-.1.4-.2.7-.2.7-.3 1.4-.4 2.1-.3 1.8-.5 3.5-.4 5.2 0 1.3.2 2.5.4 3.7.1.6.3 1.3.4 1.9.1.2.1.4.2.6l.3.9c.5 1.6 1 3.2 1.6 4.8.7 0 1.3-.1 1.9-.1" class="st5" style="clip-rule:evenodd;fill:#231f20;fill-rule:evenodd"></path><path id="path3275" d="M103.8 54.3s-.1 0 0 0c-.2.1-.4.2-.5.3-.2.1-.3.1-.5.2.2.4.4.7.5 1.1.1.3.3.6.4.9 0 .1.1.1.1.2.3.6.6 1.3.9 1.9.6 1.4 1.1 2.9 1.4 4.6l1.5-1 1.4-.8 1.7-1.1.9-.6.1-.1c-.3-.6-.7-1.2-1.1-1.8-.5-.8-1.1-1.5-1.7-2.2-.4-.5-.9-.9-1.4-1.4s-1.1-.9-1.7-1.4c-.4.2-.8.5-1.2.7-.2.2-.5.4-.8.5" class="st5" style="clip-rule:evenodd;fill:#231f20;fill-rule:evenodd"></path><path id="path3277" d="M85.9 52.9c.8.5 1.7.9 2.7 1.3.7.3 1.4.5 2.1.7.1.1.3.1.4.1h.2c.1 0 .2.1.3.1 1.1.3 2.2.4 3.2.4h.3c.9 0 1.8-.1 2.6-.3h.1c.2-.1.5-.1.7-.2 1.6-.4 3.1-1.1 4.8-1.9.1-.1.3-.1.4-.2 0 0 .1 0 .1-.1.3-.1.6-.3.9-.4.1 0 .1-.1.2-.1-.1 0-.1-.1-.2-.1-.3-.2-.6-.3-.9-.5h-.1c-.1-.1-.3-.1-.4-.2-1.5-.7-3.1-1.3-4.8-1.6-.2 0-.5-.1-.7-.1h-.1c-.9-.1-1.7-.2-2.6-.2h-.2c-1.1 0-2.3.1-3.3.3-.1 0-.2 0-.3.1h-.2c-.1 0-.3.1-.4.1l-2.1.6q-1.35.45-2.7 1.2c-.2.1-.4.2-.5.3s-.1.1-.2.1c.1.1.1.1.2.1.1.3.3.4.5.5" class="st5" style="clip-rule:evenodd;fill:#231f20;fill-rule:evenodd"></path><path id="path3279" d="M112 60.7c-.5.3-.9.6-1.4.9-.6.4-1.1.7-1.7 1.1-.5.3-.9.5-1.4.8-.4.3-.8.5-1.3.8l-.1.1c.4 2.5.5 5.1.2 7.6h.1l1 .4 1.4.6 1.7.7 2 .9c.6-1.8 1-3.6 1-5.5v-1.4c.1-2.3-.5-4.7-1.5-7" class="st5" style="clip-rule:evenodd;fill:#231f20;fill-rule:evenodd"></path><path id="path3281" d="M108.9 74.1c-.5-.2-.9-.4-1.4-.6l-1.2-.6c-.3 2.3-.9 4.6-1.7 6.8-.3.6-.5 1.3-.9 1.9 0 .1-.1.1-.1.2s-.1.1-.1.1h.1s.1 0 .1.1c.3.1.6.2.9.4.6.3 1.2.6 1.9.9.4-.3.7-.6 1.1-.9.5-.4.9-.9 1.4-1.4.6-.7 1.2-1.4 1.7-2.2.7-1 1.2-2.1 1.7-3.2-.5-.2-1.1-.4-1.7-.6-.6-.4-1.2-.6-1.8-.9" class="st5" style="clip-rule:evenodd;fill:#231f20;fill-rule:evenodd"></path><path id="path3283" d="M80.4 61.3c.5.2 1 .5 1.4.7.5.3 1.1.5 1.6.8.3-1.7.8-3.4 1.4-5 .2-.4.3-.9.5-1.3s.3-.7.5-1.1c.1-.3.3-.6.5-.9-.2-.1-.3-.2-.5-.3s-.4-.2-.5-.3c-.2-.1-.4-.2-.5-.4-.3-.2-.5-.3-.7-.5-.8.6-1.6 1.2-2.3 1.9-.5.5-1 1-1.4 1.6-.4.5-.8 1-1.1 1.6-.4.6-.8 1.3-1.2 2 .4.2.8.4 1.2.5.3.3.7.5 1.1.7" class="st5" style="clip-rule:evenodd;fill:#231f20;fill-rule:evenodd"></path><path id="path3285" d="M103.8 83.2s-.1 0 0 0c-.2-.1-.4-.1-.5-.2-1.6-.6-3.2-1-4.8-1.3-.2 0-.5-.1-.7-.1h-.1c-.9-.1-1.7-.1-2.6-.2-1.2 0-2.4.1-3.5.3h-.5c-.1 0-.3.1-.4.1-.7.1-1.4.3-2.1.5q-1.35.3-2.7.9c-.2.1-.4.1-.5.2-.2.1-.4.1-.5.2s-.3.1-.4.2c.1.1.3.2.4.3.2.1.4.2.5.4.2.1.4.2.5.3.9.5 1.8.9 2.7 1.3.7.2 1.4.5 2.1.6.1 0 .3.1.4.1h.2c.1 0 .2 0 .3.1 1.1.2 2.3.3 3.5.3.9 0 1.8-.1 2.6-.2h.1c.2 0 .5-.1.7-.1 1.6-.3 3.3-.9 4.8-1.6.1-.1.3-.1.4-.2h.1c.3-.1.6-.3.9-.5l.9-.6c-.3-.1-.6-.3-.9-.4s-.6-.3-.9-.4" class="st5" style="clip-rule:evenodd;fill:#231f20;fill-rule:evenodd"></path><path id="path3287" d="M85.3 82.2c.2-.1.3-.1.5-.2s.4-.1.5-.2c-.2-.4-.4-.8-.5-1.2-.2-.4-.4-.8-.5-1.3-.2-.4-.4-.9-.5-1.4q-.9-2.4-1.5-5.1l-1.5.7-1.4.6-1.1.5-1.7.8c.5 1.1 1 2.2 1.7 3.3.4.5.7 1.1 1.1 1.6s.9 1 1.4 1.5c.5.4.9.9 1.4 1.3.4-.2.9-.4 1.6-.7.2 0 .4-.1.5-.2" class="st5" style="clip-rule:evenodd;fill:#231f20;fill-rule:evenodd"></path><path id="path3289" d="m80.4 73.2 1.4-.7L83 72h.2c-.4-2.6-.4-5.5.1-8.3h-.1l-1.4-.7-1.4-.7-1.1-.6-1.6-.7c-.9 2.2-1.5 4.6-1.6 6.9v1.2c.1 1.9.4 3.8 1.1 5.6l2-.9z" class="st5" style="clip-rule:evenodd;fill:#231f20;fill-rule:evenodd"></path></g><path id="polyline3293" d="m56 102.3-2.4-1L55 93l-5.9 6.8-.9-.3.1-9.1-4.5 7.2-2.5-1 8.5-13.3 1.3.5-.6 10.9 6.8-8.5 1.3.5z" class="st2" style="clip-rule:evenodd;fill:#ffd400;fill-rule:evenodd" transform="translate(-7.1 -24.3)"></path><path id="path3295" d="m53 75.5 2.4.6c0 .9.6 1.6 1.8 1.9.9.2 1.6.1 2.1-.4q.75-.75 1.2-2.4l2.5-9.3 2.6.7-2.5 9.3c-.5 2-1.4 3.4-2.4 4.1-1.1.7-2.6.9-4.4.4q-1.8-.45-2.7-1.8c-.7-.9-.8-1.9-.6-3.1" class="st2" style="clip-rule:evenodd;fill:#ffd400;fill-rule:evenodd"></path><path id="path3297" d="m76.1 84.1-.7-3.3-2.3-.3-1.8-2.2 3.6.4-1-6-.8-3.3.9-1.5 1.2.2 4 16.4zm-3-18.8v-.6q.15.3 0 .6m5.2-.8c.4.1.7.3 1 .6.2.3.3.7.3 1.1-.1.4-.2.7-.6 1-.3.2-.7.3-1.1.3-.4-.1-.7-.2-1-.6-.2-.3-.4-.7-.3-1.1s.3-.7.6-1 .7-.4 1.1-.3m-5.2 16-2.9-.4-1.5 3-3-.4 7.4-13.3.8 3.3-2.6 5.6zm0-15.7v.6q-.15.6-.6.9c-.3.3-.7.4-1.1.3s-.7-.3-1-.6-.4-.7-.3-1.1.2-.7.6-1c.3-.3.7-.4 1.1-.3s.7.3 1 .6c.2.1.3.4.3.6" class="st2" style="clip-rule:evenodd;fill:#ffd400;fill-rule:evenodd" data-source="https://football-logos.cc"></path><path id="polyline3299" d="m90.9 109.1.2-15.5 2.8.1-.3 13 7 .1v2.5z" class="st2" style="clip-rule:evenodd;fill:#ffd400;fill-rule:evenodd" transform="translate(-7.1 -24.3)"></path><path id="polyline3301" d="M105.6 109.1 104 93.7l2.8-.2 1.3 12.9 7-.7.2 2.4z" class="st2" style="clip-rule:evenodd;fill:#ffd400;fill-rule:evenodd" transform="translate(-7.1 -24.3)"></path><path id="path3303" d="m117.7 81.7-2.299.462v-2.368c.6-.1.899-.094 1.199-.194 1.2-.3 2-.6 2.5-1.2.4-.5.6-1.3.4-2.2s-.6-1.4-1.1-1.7c-.6-.3-1.5-.3-2.8 0-.1 0 .2 0 0 0l-.3-1.9c1.7-.4 2.3-1.3 2-2.6-.2-1-.9-1.4-2.1-1.3v-2.3c1.1-.1 2.1 0 2.8.4 1 .5 1.7 1.3 1.9 2.6.3 1.2-.2 2.3-1.3 3.2 2 .2 3.2 1.4 3.7 3.4q.45 2.1-.9 3.6c-.8 1.1-2 1.8-3.7 2.1m-2.299.462-2.301.538-3.2-15.1c2-.5 3.4-.9 4.3-1 .4-.1.6-.1 1-.2v2.3c-.2 0-.3 0-.5.1-.4.1-.9.2-1.5.4l.8 3.6c.4-.1.9-.1 1.3-.2l.3 1.9c-.3.1-.8.3-1.2.4l1 4.894z" class="st2" style="clip-rule:evenodd;fill:#ffd400;fill-rule:evenodd"></path><path id="polyline3305" d="m139.9 95.4 1.7 6-2.6.8-1.7-6.1-7.6-7.3 2.8-.8 5.4 5.3 1.7-7.3 2.8-.8z" class="st2" style="clip-rule:evenodd;fill:#ffd400;fill-rule:evenodd" transform="translate(-7.1 -24.3)"></path><path id="path3307" d="m67 102.6-.3-3.1-1.9-.5v-2.1l1.7.5-.3-5.7-1.4 2.2V90l2-2.7 1.1.3 1.9 15.9zm-2.2-3.7-2.9-.8-1.8 2.6-2.8-.7 7.5-10.2v3.9l-1.7 2.6 1.7.5z" class="st5" style="clip-rule:evenodd;fill:#231f20;fill-rule:evenodd"></path><path id="polyline3309" d="m92.2 129.7 1.2-14.6 2.6.2-1.2 14.6z" class="st5" style="clip-rule:evenodd;fill:#231f20;fill-rule:evenodd" transform="translate(-7.1 -24.3)"></path><path id="polyline3311" d="m109 116.6.6 3.4 5.1-1 .4 2.2-5.1 1 1.3 6.6-2.5.5-2.8-14.4 9.5-1.9.4 2.3z" class="st5" style="clip-rule:evenodd;fill:#231f20;fill-rule:evenodd" transform="translate(-7.1 -24.3)"></path><path id="path3313" d="M48.8 18.5c4-2.7 6.9-6.9 10.3-10.4-4.5 0-9.4 1.1-13.8 2.6-3 1-5.6 2.4-8.2 4.8-.8 1.9-1.7 3.9-2.5 5.8 4.2-2.8 8.4-5.6 13.4-8.1 0 .6 0 1.1.1 1.7-3.3 2.5-8.2 5.2-10.3 7.7 4.6-.1 7.8-2 11-4.1" class="st2" style="clip-rule:evenodd;fill:#ffd400;fill-rule:evenodd"></path><path id="path3315" d="M30.9 10.9c2.4-1.7 4.9-3.3 7.7-4.2-2.4 4.9-4.6 9.6-7.1 13.9-1.5 2.9-5 5.8-4.8 8.4-1.9 2-3.5 4.1-5.1 6.1-.2-1.1-.2-2.1-.1-3.2 3.2-4.8 6.3-9.5 9.1-14.4 0-.7-.4-1.4-.7-1.9-2.4 3.2-4.6 6.8-7.1 9.7v-7.6c2.6-2.3 5.2-4.8 8.1-6.8" class="st2" style="clip-rule:evenodd;fill:#ffd400;fill-rule:evenodd"></path><path id="path3317" d="M28.1 31.1c2.6-2.2 6-4.6 9.1-4.9-.9 4.8-5.3 8.1-7.9 12.1-2.1 3.2-4.3 5.8-6.2 9.5-.6-.5-1.1-1.3-1.3-2.2 3.1-3.7 5.7-7.3 8.1-11.2.1-.6-.1-1.2-.5-1.6-2.8 3.5-5 7.1-8.3 10.5-.1-1.2-.1-2.5.2-3.8 2-3.2 3.9-6.1 6.8-8.4" class="st2" style="clip-rule:evenodd;fill:#ffd400;fill-rule:evenodd"></path><path id="path3319" d="M12.2 32.8c1.3-4.6 4.9-11.8 6.9-12.5.1 6.3-.1 12.1-1.2 18.1-.9 4.4-2.2 11.6-4.8 12.7.4-5.9 2.9-12.3 4-18.4-.4-.4-1.1-.3-1.8.3-1.8 4.9-2.8 9.6-4 14.6-2.1-.4-.4-10 .9-14.8" class="st2" style="clip-rule:evenodd;fill:#ffd400;fill-rule:evenodd"></path><path id="path3321" d="M3.5 51.6c0-3.1.9-6.3 1.7-9.1 1.6 3.8 3.9 7.4 4.7 11.4.7 3.7.6 10.2-.4 11.4-2.2-3-1.7-6.9-2.6-10.4-.2-.5-.6-.3-.9-.1-.6 2.1-.5 4.3-.8 6.4-1.6-.2-1.7-6.4-1.7-9.6" class="st2" style="clip-rule:evenodd;fill:#ffd400;fill-rule:evenodd"></path><path id="path3323" d="M15.8 51.4c1-1.6 2.1-3.4 3.6-4.4.7 4.8 1.7 9.6 1.1 14.4-.5 4-2.8 7.6-4.2 11.4-1.3.8-.5-8.4 0-12.6-.6-.2-1.1 0-1.5.4-1.5 5.4-1 15.8-1.4 16-1.1-.8-1.9-1.8-2.8-3.1.7-2.7 1.5-5.2 1.8-7.9.4-2.6.2-5.3.3-8 1.1-2.1 1.9-4.2 3.1-6.2" class="st2" style="clip-rule:evenodd;fill:#ffd400;fill-rule:evenodd"></path><path id="path3325" d="M9 86.1c-1.9-3.8-3-8-3.8-12.2 3.7 3.2 7.9 7.5 11 11.9 2.7 3.9 6 9 6.2 12.7-3.7-3.4-6.6-9.4-10.1-13.9-.3.1-.9.4-1 .9 1 3.1 3.1 5.9 4.3 8.9-2.2-.5-5-5.2-6.6-8.3" class="st2" style="clip-rule:evenodd;fill:#ffd400;fill-rule:evenodd"></path><path id="path3327" d="M18.7 78.3c-.4-4.5 1.3-8.8 3-11.6 1.2 5.3 3.4 10.3 4.5 15.6.9 4.1 1.3 8.8 0 12.6-1.7-4.8-2.6-10.2-3.7-15.2-.4-.3-.8-.1-.9.4 0 3.7.7 7.3.8 11-2.4-1-3.3-8.3-3.7-12.8" class="st2" style="clip-rule:evenodd;fill:#ffd400;fill-rule:evenodd"></path><path id="path3329" d="M35.5 104.6c-2.8-5.2-4-10.9-5.1-16.9 3.1 3.1 6.8 5.8 9.3 9.4 2.6 3.8 5.1 9.1 5.8 12.7-1.4 0-5.5-7-8.4-10.3-.5.3-.8.2-.7 1.1 2.6 5.8 9.2 13 9.1 15-2.9-1.1-7.6-6.6-10-11" class="st2" style="clip-rule:evenodd;fill:#ffd400;fill-rule:evenodd"></path><path id="path3331" d="M29.5 116.3c-3.2-2.8-6.2-5.1-8.8-9.5 4.4.6 9.1 2.5 13.2 4.7 4.4 2.3 8.6 5.1 12.1 8.5-1.4 2-11.3-5.6-16.9-8.4-.7.2-1.1.8-.9 1.3 4.4 3.2 8.9 5.6 13.4 8.2-3.3.6-8.8-1.9-12.1-4.8" class="st2" style="clip-rule:evenodd;fill:#ffd400;fill-rule:evenodd"></path><path id="path3333" d="M61.8 119.5c-3.3-2.7-6.3-5.5-8.1-9.9 4.4.7 9.1 2.5 13.1 4.9 3.7 2.2 10.4 7.6 9.4 8.6-.7 1.3-13.7-9.6-14.6-8.4-1.4.8 11.5 8.8 11.4 10.5-3.2-.1-7.9-3.1-11.2-5.7" class="st2" style="clip-rule:evenodd;fill:#ffd400;fill-rule:evenodd"></path><path id="path3335" d="M61.1 135.6c-5.7-.3-11.5-2.1-16.6-4.6 5.9-1.3 11.7-2.5 17.6-2.6 3.8-.1 12.2.5 11.4 1.7.2 1.6-23.2-.6-21.7 1.5-.7 2.1 15.4 1.2 23.3 1.2.2 1.9-9.2 3.1-14 2.8" class="st2" style="clip-rule:evenodd;fill:#ffd400;fill-rule:evenodd"></path><path id="path3337" d="M87.9 139.2c3.3 0 6-3.7 6-8.2s-2.7-8.2-6-8.2-6 3.7-6 8.2c0 4.6 2.7 8.2 6 8.2" class="st2" style="clip-rule:evenodd;fill:#ffd400;fill-rule:evenodd"></path><path id="path3339" d="M87.9 139.2c3.3 0 6-3.7 6-8.2s-2.7-8.2-6-8.2-6 3.7-6 8.2c0 4.6 2.7 8.2 6 8.2z" style="fill:none;stroke:#231f20;stroke-width:3.08699989;stroke-miterlimit:2.61299992" data-source="https://football-logos.cc"></path><!-- source: https://football-logos.cc --></svg>