<svg xmlns="http://www.w3.org/2000/svg" viewBox="45.53 137.48 504.21 566.93"><metadata xmlns:fl="https://football-logos.cc/slovenia/mura">dl1_fe0b813ab531ee17363f87e04314417c8f46b830927ed275b52089c74f2f9b87</metadata><!-- Source: https://football-logos.cc --><path d="M45.532 261.9 87.61 137.655c59.77 25.811 126.76 39.113 193.773 40.349 72.748 1.342 152.642-8.243 226.41-40.523l41.95 124.291c-20.69 19.457-26.412 42.173-26.157 63.073.224 18.44 7.876 39.949 23.18 55.393C501.146 516.232 408.66 632.414 297.703 704.41 173.193 622.688 90.08 502.81 48.447 380.206c16.176-15.715 23.213-37.497 23.213-56.53 0-21.165-6.903-45.043-26.128-61.775" style="fill:#000200;fill-rule:evenodd" data-source="https://football-logos.cc"></path><path d="M538.605 257.23 502.31 149.69c-69.71 28.612-146.084 38.796-221.094 37.412-63.916-1.178-128.747-13.144-188.117-37.28L56.72 257.24c38.973 15.106 79.033 26.393 120.251 33.582 39.993 6.976 80.31 9.966 120.881 10.135 82.964.347 163.392-13.439 240.753-43.727M58.856 382.478a629.5 629.5 0 0 0 50.399 109.298v-28.985c-20.546-15.568-33.82-40.204-33.82-67.932s13.274-52.365 33.82-67.932v-42.382a652 652 0 0 1-44.329-14.484c10.72 15.526 15.835 34.381 15.835 53.615 0 21.338-7.705 42.81-21.904 58.802m125.398 212.313c23.134 25.768 48.44 49.611 75.695 71.163V309.052c-25.344-1.267-50.581-3.77-75.695-7.786v11.605c35.765 10.167 61.962 43.03 61.962 81.988s-26.197 71.82-61.962 81.988zm151.052 71.467c26.967-21.273 52.144-45.013 75.22-70.723V301.476c-24.82 3.992-49.898 6.56-75.22 7.772zM485.882 492.11c20.42-34.97 37.433-71.797 50.524-109.684-13.512-15.69-21.67-36.891-21.921-57.472-.25-20.557 4.944-39.01 16.071-54.923a633 633 0 0 1-44.674 14.65z" style="fill:#fff;fill-rule:evenodd"></path><path d="m150.52 314.293-.238 2.711 21.408 15.275 21.818-8.618.578-2.881c-13.729-6.147-28.757-8.384-43.566-6.487M115.536 359.045l-23.285 8.929-4.969 25.625 23.421 18.424 22.867-10.05 3.054-24.21zM114.662 355.13l4.602-25.294-2.4-3.267c-12.972 8.337-23.24 20.146-29.763 34.238l3.641 3.495zM108.295 415.18l-23.646-18.602-4.986 3.077a81 81 0 0 0 5.527 25.214 81.1 81.1 0 0 0 11.862 20.584l7.098-2.304zM105.817 446.783l-5.98 1.94c7.151 8.112 15.719 14.616 25.505 19.364l.428-4.88zM168.969 365.405l19.88 16.56 24.962-10.195 3.106-25.453-22.115-18.9-21.55 8.512zM166.342 368.382l-25.778 9.85-3.17 25.146 21.439 17.948 23.989-9.474 3.857-26.53zM146.329 316.666l.154-1.757a81.5 81.5 0 0 0-15.505 4.392 82 82 0 0 0-10.715 5.19l1.214 1.653zM237.492 390.37l4.494-1.56a81 81 0 0 0-5.44-23.72 81.2 81.2 0 0 0-10.8-19.178l-4.964 1.498-3.057 25.049zM154.466 454.406l-24.768 9.45-.527 6.01c13.834 5.857 28.916 7.776 43.713 5.566l.895-6.046zM242.173 392.946l-3.4 1.183-3.24 25.962 2.162 1.461a81 81 0 0 0 4.478-28.606M184.523 415.448l-24.238 9.573L157 451.35l18.742 14.534 24.52-8.99 4.353-23.43zM208.598 433.75l-4.553 24.516 3.547 3.295c12.866-9.025 22.76-21.507 28.68-36.18l-3.01-2.033z" style="fill:#fff;fill-rule:evenodd" data-source="https://football-logos.cc"></path><path d="m122.955 189.19-17.729 67.162 12.417 3.277 12.415-47.032.188.05 4.14 51.402 15.427 4.072 17.729-67.163-12.417-3.277-12.142 45.998-.188-.05-4.225-50.318zM167.157 249.475l-.44 2.787c-.686 4.241-.533 7.959.47 11.17 1.006 3.196 2.986 5.839 5.944 7.898 2.971 2.078 7.044 3.524 12.247 4.362 5.013.79 9.406.728 13.196-.2 3.777-.947 6.864-2.824 9.228-5.636 2.38-2.809 3.952-6.632 4.729-11.45.344-2.08.452-4.016.327-5.825a14.5 14.5 0 0 0-1.31-5.115c-.747-1.611-1.862-3.183-3.363-4.7-1.497-1.533-3.457-3.057-5.858-4.585l-9.94-6.295c-1.807-1.139-3.146-2.22-4.043-3.297-.883-1.06-1.432-2.163-1.642-3.329-.212-1.15-.191-2.427.045-3.818.2-1.38.61-2.628 1.265-3.756.64-1.146 1.596-1.997 2.868-2.568s2.936-.719 5.005-.408c2.624.43 4.389 1.627 5.312 3.578.907 1.95 1.106 4.541.576 7.79l13.262 2.093.303-1.923c.502-3.285.419-6.188-.254-8.69q-1.007-3.754-3.518-6.416c-1.671-1.79-3.744-3.217-6.211-4.328-2.47-1.096-5.252-1.88-8.343-2.367-4.373-.69-8.272-.533-11.664.475-3.41 1.005-6.2 2.88-8.402 5.601-2.184 2.709-3.638 6.304-4.356 10.754-.447 2.835-.49 5.39-.104 7.633.382 2.26 1.191 4.308 2.412 6.142s2.872 3.54 4.936 5.129c2.061 1.606 4.54 3.162 7.451 4.689 2.151 1.143 3.954 2.2 5.422 3.202 1.45 1 2.59 2 3.414 3.017s1.356 2.119 1.61 3.324c.252 1.205.267 2.57.005 4.121q-.48 2.88-1.952 4.568c-.981 1.125-2.137 1.895-3.482 2.306a9.1 9.1 0 0 1-4.164.279c-2.416-.398-4.206-1.123-5.399-2.197q-1.79-1.614-2.21-4.092c-.263-1.667-.21-3.562.147-5.722l.318-2.018zm24.033-48.704 13.838 2.183 9.679-12.656-9.61-1.516-5.902 7.441-3.132-8.866-10.186-1.607zM251.847 282.289l12.839.277 1.2-55.44.194.003 11.153 55.709 10.894.235 13.552-55.173.195.004-1.2 55.44 12.839.279 1.502-69.447-20.717-.448-11.079 48.804-.194-.004-8.86-49.236-20.815-.45zM324.636 213.965l3.624 48.313c.293 3.685.934 6.808 1.92 9.352.987 2.527 2.248 4.595 3.781 6.171 1.55 1.575 3.28 2.762 5.21 3.56 1.946.798 4.001 1.31 6.18 1.52a36.3 36.3 0 0 0 6.702.051c2.864-.199 5.588-.728 8.171-1.621 2.584-.893 4.856-2.25 6.8-4.071q2.944-2.71 4.435-7.21c.996-2.986 1.337-6.67 1.04-11.07l-3.625-48.314-13.97 1.048 3.625 48.313c.19 2.311.134 4.397-.2 6.226-.333 1.847-1.051 3.331-2.17 4.456-1.103 1.123-2.728 1.782-4.877 1.96-2.152.144-3.857-.264-5.115-1.21-1.275-.945-2.206-2.306-2.81-4.082-.588-1.761-.97-3.814-1.127-6.127l-3.624-48.313zM393.618 217.04l6.53-1.055c3.138-.507 5.634-.106 7.522 1.215 1.89 1.32 3.107 3.571 3.62 6.74.395 2.45.3 4.502-.255 6.152a7.36 7.36 0 0 1-2.988 3.866c-1.426.937-3.258 1.594-5.47 1.935l-5.762.932zm-4.393 60.628 13.83-2.235-4.688-29.004 7.395-1.195q4.159-.648 6.471 1.32 2.31 1.942 3.09 6.004l2.51 13.096c.252 1.355.59 2.63 1.029 3.824a8.75 8.75 0 0 0 1.864 3.1l14.982-2.422-.093-.576c-.92-.311-1.677-.928-2.275-1.883-.595-.938-1.116-2.234-1.545-3.873-.414-1.641-.836-3.642-1.24-6.04q-.924-5.419-1.97-9.143c-.697-2.482-1.559-4.462-2.59-5.97-1.03-1.493-2.337-2.563-3.917-3.195-1.583-.647-3.565-.918-5.951-.845l-.03-.192c2.501-.979 4.48-2.35 5.92-4.11 1.455-1.78 2.393-3.902 2.848-6.373.457-2.456.422-5.21-.072-8.267q-.97-5.855-3.792-9.44c-1.878-2.373-4.293-4.003-7.23-4.892-2.932-.873-6.288-1.004-10.081-.39l-25.547 4.128zM445.09 268.189l14.091-3.792-.717-15.02 17.85-4.804 6.917 13.352 14.092-3.792-35.805-62.299-16.722 4.5zm11.107-62.43.188-.05 14.597 28.411-13.152 3.54z" style="fill:#000200;fill-rule:evenodd" data-source="https://football-logos.cc"></path><!-- source: https://football-logos.cc --></svg>