<svg xmlns="http://www.w3.org/2000/svg" viewBox="19.17 8.74 1386.81 2195.26"><metadata xmlns:fl="https://football-logos.cc/bolivia/oriente-petrolero">dl1_cfa2d4add861742fa14361894e53e0735c66f149b1b38647530e9a6855ee9076</metadata><!-- Source: https://football-logos.cc --><path fill="#ebbf16" fill-rule="evenodd" d="m830.447 53.475 46.332 1.047a.4.4-34.13 0 1 .228.722l-37.353 27.432a.4.4-25.638 0 0-.147.438l13.323 44.388a.4.4-25.222 0 1-.617.44l-37.632-27.048a.4.4-46.327 0 0-.462-.004l-38.099 26.387a.4.4-65.866 0 1-.609-.45l14.096-44.15a.4.4-69.716 0 0-.139-.44l-36.869-28.08a.4.4-83.549 0 1 .24-.718l46.344-.237a.4.4-77.103 0 0 .376-.268l15.312-43.742a.4.4-9.661 0 1 .758.007l14.547 44.002a.4.4-16.569 0 0 .371.274m-203.514-.087 46.568.013a.46.46-29.334 0 1 .277.828l-37.183 28.036a.46.46-9.19 0 0-.161.509l14.378 44.294a.46.46-48.654 0 1-.702.518l-38.154-26.699a.46.46 42.941 0 0-.534.005l-37.682 27.361a.46.46-61.079 0 1-.71-.507l13.602-44.537a.46.46 80.167 0 0-.17-.507l-37.666-27.383a.46.46 11.653 0 1 .262-.832l46.561-.826a.46.46-73.121 0 0 .429-.317l14.404-44.285a.46.46 83.158 0 1 .872-.008l15.174 44.027a.46.46-12.362 0 0 .435.31M421.27 68.26l45.471-5.592a.48.48-38.271 0 1 .398.816l-32.401 32.389a.48.48-40.671 0 0-.096.542l19.369 41.517a.48.48-52.778 0 1-.653.631l-40.815-20.806a.48.48-51.54 0 0-.546.076l-33.5 31.251a.48.48-73.982 0 1-.801-.426l7.175-45.248a.48.48 14.94 0 0-.241-.495l-40.073-22.203a.48.48-87.793 0 1 .157-.894l45.25-7.158a.48.48-45.116 0 0 .397-.383l8.733-44.973a.48.48-17.749 0 1 .899-.126l20.791 40.823a.48.48-70.658 0 0 .486.259m614.803 4.276 45.649 7.04a.48.48-43.51 0 1 .158.895l-40.489 22.229a.48.48-11.299 0 0-.242.497l7.411 45.591a.48.48 55.776 0 1-.803.426l-33.652-31.637a.48.48 47.881 0 0-.548-.077l-41.069 21.136a.48.48 32.335 0 1-.654-.631l19.69-41.782a.48.48-52.52 0 0-.096-.545l-32.793-32.527a.48.48 18.905 0 1 .399-.817l45.821 5.815a.48.48-67.928 0 0 .489-.26l20.802-41.239a.48.48.603 0 1 .9.126l8.629 45.375a.48.48 85.821 0 0 .398.385m-822.474 42.751 44.158-13.179a.45.45-45.424 0 1 .494.693l-26.838 37.461a.45.45-16.985 0 0-.004.518l26.18 37.923a.45.45 27.701 0 1-.507.685l-43.921-13.948a.45.45-67.722 0 0-.494.156l-27.977 36.617a.45.45-82.798 0 1-.808-.27l-.307-46.081a.45.45-66.772 0 0-.3-.422l-43.471-15.293a.45.45 79.888 0 1 .007-.851l43.731-14.532a.45.45-48.399 0 0 .308-.416l1.111-46.069a.45.45 63.328 0 1 .813-.257l27.334 37.101a.45.45-42.843 0 0 .491.164m1030.396 11.929 41.87 18.386a.64.64-84.232 0 1-.103 1.207l-44.39 10.991a.64.64-88.025 0 0-.483.558l-4.547 45.503a.64.64-22.189 0 1-1.18.275l-24.171-38.82a.64.64-25.911 0 0-.679-.287l-44.682 9.736a.64.64 45.551 0 1-.625-1.038l29.451-34.983a.64.64-66.273 0 0 .063-.735l-23.067-39.486a.64.64-59.381 0 1 .793-.916l42.372 17.199a.64.64 35.339 0 0 .719-.167l30.425-34.14a.64.64-75.92 0 1 1.116.472l-3.264 45.613a.64.64-58.709 0 0 .382.632m-535.57 96.496 45.851.621a.65.65 34.678 0 1 .378 1.172l-36.825 27.325a.65.65-53.306 0 0-.233.715l13.578 43.799a.65.65 45.79 0 1-.998.722l-37.366-26.579a.65.65 69.085 0 0-.752-.001l-37.46 26.448a.65.65-63.809 0 1-.995-.726l13.731-43.751a.65.65 4.444 0 0-.231-.715l-36.729-27.454a.65.65 6.86 0 1 .382-1.17l45.853-.461a.65.65 10.226 0 0 .609-.441l14.76-43.415a.65.65 78.759 0 1 1.231.002l14.608 43.466a.65.65 58.449 0 0 .608.443m178.387 8.596 45.629 7.032a.56.56 67.634 0 1 .186 1.044l-40.395 22.355a.56.56-40.849 0 0-.281.58l7.412 45.568a.56.56-30.044 0 1-.935.5l-33.744-31.51a.56.56 67.057 0 0-.638-.088l-41.048 21.131a.56.56-59.377 0 1-.764-.735l19.54-41.829a.56.56-4.942 0 0-.113-.635l-32.781-32.509a.56.56-73 0 1 .463-.953l45.819 5.658a.56.56 24.894 0 0 .569-.304l20.788-41.223a.56.56 88.767 0 1 1.05.146l8.778 45.325a.56.56 56.211 0 0 .465.447m-369.827 1.973 46.225-5.883a.35.35 53.088 0 1 .292.594l-32.865 33.034a.35.35 27.61 0 0-.068.396l19.879 42.145a.35.35-57.384 0 1-.475.462L508.4 283.981a.35.35 54.261 0 0-.398.057l-33.939 31.93a.35.35 19.848 0 1-.585-.309l7.171-46.043a.35.35-71.715 0 0-.178-.361l-40.854-22.411a.35.35-1.451 0 1 .112-.652l46.006-7.408a.35.35 86.271 0 0 .288-.28l8.689-45.781a.35.35 75.128 0 1 .656-.094l21.261 41.464a.35.35-52.014 0 0 .356.188m555.726 30.642 44.523 12.353a.49.49-1.69 0 1 .055.926l-42.748 17.538a.49.49 2.978 0 0-.303.474l2.01 46.162a.49.49 59.286 0 1-.863.338l-29.89-35.236a.49.49 76.509 0 0-.545-.142l-43.281 16.177a.49.49 41.357 0 1-.588-.717l24.275-39.314a.49.49 18.455 0 0-.034-.563l-28.759-36.164a.49.49 24.572 0 1 .5-.781l44.891 10.938a.49.49 23.694 0 0 .525-.206l25.507-38.526a.49.49 3.108 0 1 .897.233l3.47 46.075a.49.49 80.106 0 0 .358.435m-726.152 2.265 44.66-12.944a.5.5 43.006 0 1 .543.775l-27.438 37.54a.5.5 52.01 0 0-.01.576l26.111 38.474a.5.5-60.206 0 1-.569.756l-44.182-14.495a.5.5 32.424 0 0-.551.169l-28.522 36.722a.5.5-80.768 0 1-.895-.308l.133-46.498a.5.5 11.923 0 0-.331-.472l-43.739-15.778a.5.5 80.281 0 1 .016-.947l44.264-14.242a.5.5 36.073 0 0 .347-.46l1.49-46.475a.5.5-24.152 0 1 .905-.276L346.014 267a.5.5-77.638 0 0 .545.188" data-source="https://football-logos.cc"></path><path fill="#0e7c2d" fill-rule="evenodd" d="M718.53 2204h-1.74q-19.99-26.38-36.58-43.47-28.76-29.6-64.69-51.3c-22.07-13.32-46.4-23.02-70.54-29.34q-26.17-6.86-57.47-6.87-132.4-.07-220.5.04-26.47.03-55.4-6.2-23.18-5-40.53-11.61c-25.82-9.84-48.79-21.12-71.14-37.71-28.67-21.28-50.5-48.37-63.32-81.12-10.85-27.73-14.92-58.9-16.59-89.48q-.69-12.63-.69-42.9-.18-870.5-.17-1228.54 0-145.69.07-171.68a.69.69-55.847 0 1 .69-.69h1385.3a.66.65-90 0 1 .65.66q.23 750.42-.09 1392.46-.02 26.01-.11 35.02-.23 22.91-1.57 34.95c-3.97 35.56-13.61 70.94-32 100.34q-15.72 25.13-39.08 44.75-19.48 16.36-37.97 26.75-51.98 29.22-109.97 34.12-9.86.84-56.2.79-108.08-.1-197.14-.03-29.79.02-56.73 7.82-59.13 17.12-103.78 58.52c-16.23 15.05-30.77 32.77-43.74 51.69q-4.47 6.53-8.97 13.03m626.55-1739.93a.31.31-8.423 0 0-.31-.31H80.34a.31.31 0 0 0-.31.31v931.758a.31.31 75.41 0 0 .483.258l1264.43-849.634a.31.31-13.219 0 0 .137-.257zm-52.6 518.18c7.16-5.11 12.89-8.68 18.4-12.87 8.99-6.85 13.1-17.26 15.49-28.27 3.84-17.68 4.21-34.24 4.27-54.11q.25-74.45 0-183.64-.01-7.77-.4-16.67c-.63-14.56-1.5-29.03-7.46-42.17-2.65-5.85-8.52-8.76-14.46-5.71q-5.69 2.92-15.16 9.07-13.96 9.09-19.26 24.46-4.89 14.14-5.94 32.92-1.07 19.24-1.01 51.99.06 32.2.05 147 0 18.79.5 40.74.37 16.3 4.69 29.79c2.21 6.92 8.57 12.26 16.23 9.34q3.09-1.17 4.06-1.87m-57.56 38.84 23.03-15.48a2.894 2.89-16.974 0 0 1.28-2.4v-44.74a.592.585-15.324 0 0-.89-.5l-3.77 2.25a1.216 1.205-29.749 0 1-1.68-.45q-.02-.02-.17-1.02c-.55-3.49-.7-11.01-.68-15.15q.26-36.57.07-49.85-.2-13.64-1.19-24.96c-.74-8.35-3.52-14.68-10.71-18.96a.551.547-60.324 0 1-.2-.74c9.44-17.3 11.06-37.58 11.01-57.09q-.04-19.74-.18-43.25c-.09-14.33-.79-28.22-4.85-41.48q-1.36-4.43-4.17-8.4c-5.74-8.12-13.56-3.72-19.69.51q-18.76 12.93-37.18 25.01a2.306 2.293 73.372 0 0-1.03 1.92v43.99a.373.372 73.071 0 0 .58.31l5.35-3.6a.814.81 73.226 0 1 1.26.68v234.63a3.758 3.732 73.145 0 1-1.65 3.11l-4.37 2.94a1.209 1.198-2.232 0 0-.42.45q-.71 1.33-.71 3.43 0 13.49.13 34.76.03 4.53-.31 7.46a.348.347 76.303 0 0 .54.33l23.54-15.81a2.76 2.76 73.047 0 0 1.22-2.29q.2-107.46.1-136.93-.01-1.78 1.67-3.14 5.9-4.78 12.79-8.98c2.13-1.3 4.36-2.41 6.48-1.05q2.28 1.48 2.89 4.44 1.38 6.6 1.39 11.97.16 89.75.04 117.82a.311.309 73.258 0 0 .48.26m-127.31 84.56a.273.27 73.352 0 0 .42.23l65.1-43.75a3.098 3.075-17.061 0 0 1.37-2.56V955.82a.353.351-17.049 0 0-.55-.29l-15.82 10.63a1.278 1.263-17.275 0 0-.56 1.05q-.03 39.8.1 57.04.02 1.98-2.18 3.44-20.2 13.37-21.06 14a.904.901 71.927 0 1-1.43-.73l-.33-96.26a3.179 3.156 72.989 0 1 1.38-2.62l27.02-18.34a1.3 1.3-8.738 0 0 .35-.35q.9-1.33.88-3.89-.14-31.21-.08-43.21a.395.391 73.178 0 0-.61-.33l-27.82 18.7a.696.695 73.184 0 1-1.08-.58v-88.65a1.253 1.241 72.952 0 1 .54-1.03l22.33-15.16a.739.737-16.958 0 1 1.15.61v48.73a.423.422 72.886 0 0 .66.35l15.18-10.2a2.144 2.122 73.392 0 0 .95-1.78v-93.71a.516.513 73.086 0 0-.8-.43l-65.09 43.74a1.993 1.989 73.268 0 0-.89 1.66v43.54a.444.444 73.172 0 0 .69.37l6.18-4.15a.88.879-16.944 0 1 1.37.73v234.81a3.646 3.628 72.987 0 1-1.59 3.01l-4.7 3.19a2.468 2.453 73.067 0 0-1.08 2.04zm-63.1-240.17v234.55a3.463 3.449-17.126 0 1-1.52 2.86l-4.33 2.94a2.749 2.722 73.153 0 0-1.2 2.27v44.83a.361.358 73.013 0 0 .56.3l58.71-39.85a1.665 1.644 73.083 0 0 .72-1.37V999.23a.282.282 74.017 0 0-.43-.24q-7.18 4.38-14.16 9.11-1.39.94-2.02 2.17a1.779 1.739-32.082 0 0-.21.87q.05 8.45.54 60.45c.03 2.81-.66 4.19-2.84 5.74q-6.14 4.35-14.22 10.04a.738.735-17.531 0 1-1.16-.6q0-121.38-.28-230.76c0-2.38-.21-4.2 1.9-5.73q2.27-1.65 4.46-3.1a1.046 1.04-16.806 0 0 .47-.87v-43.3a.687.684 72.919 0 0-1.07-.57l-30.4 20.42a2.118 2.111-17.114 0 0-.93 1.75v44.06a.227.223 73.039 0 0 .35.19l5.89-4a.75.749-17.038 0 1 1.17.62m-65 326.17q2.72-.21 3.17-.43 7.63-3.82 16.46-9.82c8.64-5.87 14.38-10.1 18.17-18.85q3.34-7.71 4.83-14.42 3.84-17.25 4.85-34.29.29-4.71.34-34.67.18-105.74-.12-163.4c-.1-19.62-.47-34.39-3.43-51.51-1.26-7.21-3.72-19.6-12.53-20.89-3.6-.52-7.02 1.5-10.37 3.51q-8.07 4.86-15.47 10.28c-9.96 7.31-15.55 19.98-17.72 32.08-4.64 25.88-3.83 50.52-3.81 79.01q.06 82.65 0 165-.01 15.74 1.36 32.49.59 7.27 2.89 15.1c1.5 5.13 5.8 11.24 11.38 10.81m-98.77 68.11a.067.056-18.097 0 0 .1.04l24.62-16.54a.717.699-18.405 0 0 .31-.6l-.46-135.17a3.374 3.356-21.708 0 1 1.08-2.49q5.06-4.72 12.14-9.97c2.1-1.56 6.16-3.76 8.45-1.75 3 2.63 3.8 9.57 3.88 13.22.79 35.55-.31 82 .51 119.11a.399.399-18.063 0 0 .63.32q.33-.23 21.45-14.5 1.96-1.32 2.27-2.03a2.515 2.473 56.787 0 0 .21-1.05l-.37-44.12a.394.388 76.626 0 0-.56-.35l-3.28 1.63a1.54 1.54-22.407 0 1-2.14-.89q-.33-.98-.48-2.68-.52-6.08-.31-11.69.53-14.41-.68-66.73c-.22-9.34-1.87-24.08-11.36-28.43a.913.906 28.748 0 1-.39-1.32c4.92-7.66 6.64-15.53 8.18-25.5q2.33-15.15 2.49-31.27.2-20.77 0-42c-.08-8.91-1.14-68.46-24.9-52.87q-24.78 16.28-41.22 27.74a.687.669 73.132 0 0-.29.56l.16 45.45a.56.556-16.948 0 0 .87.46l4.62-3.11a.528.525-17.207 0 1 .82.43l.8 233.71a3.379 3.365-17.116 0 1-1.5 2.82l-4.96 3.33a1.926 1.915 73.013 0 0-.84 1.59zm-52.88-248.74q.06 32.11.27 224.73 0 4.13-.12 8.17c-.06 2.1-.55 3.28-2.02 4.58q-2.63 2.35-5.28 4.39a2.808 2.782-19.214 0 0-1.09 2.23l.15 45.08a.339.339-17.114 0 0 .53.28q17.67-11.89 32.16-21.77 1.89-1.28 1.9-2.97.17-22.52-.18-44.22a.605.6-17.232 0 0-.94-.49l-5.48 3.68a.822.821-16.974 0 1-1.28-.68q-.08-94.95-.42-233.27 0-2.2.63-3.48a2.383 2.377-3.747 0 1 .8-.91l9.33-6.26a.621.619-17.17 0 1 .97.51v47.23a.317.314-16.742 0 0 .49.26q4.8-3.06 11.92-7.89c2.26-1.53 2.35-2.33 2.38-4.97q.47-46.47-.03-89.19a.445.442-17.223 0 0-.69-.36l-70.31 47.25a1.483 1.476-16.923 0 0-.66 1.23l.32 92.83a.624.622-17.155 0 0 .97.51q4.95-3.29 11.73-7.85 2.49-1.68 2.48-3.2-.15-26.46.01-42.86c.05-4.09-.33-6.13 3.15-8.29q2.85-1.76 7.47-4.75a.546.54-16.527 0 1 .84.45m-101.31 67.79 5.51-4.16a.898.894 68.65 0 1 1.43.63q.25 2.45.27 5.76.29 61.59.41 224.71c0 2.52.3 6.08-2.3 7.87q-4.23 2.91-5.05 3.53a1.271 1.266 71.451 0 0-.5 1.01l.15 44.46a.43.426 72.343 0 0 .67.35l65.57-44.51a1.728 1.707-17.513 0 0 .76-1.44q-.25-36.49 0-103.4a.873.867-2.932 0 0-.97-.87q-.3.04-.83.42-4.57 3.26-14.3 9.16a1.541 1.528-16.193 0 0-.75 1.35q.55 35.29.14 56.59-.04 2.12-1.68 3.33-11.23 8.27-22.03 15.02a.794.791 73.857 0 1-1.21-.67l-.33-96.34a1.987 1.986 73.089 0 1 .88-1.65l28-18.82a.487.47 73.722 0 0 .21-.4l-.16-46.44a.389.389-17.29 0 0-.61-.32l-26.96 18.11a.752.75-17.369 0 1-1.17-.61q-.57-42.45-.23-85.73.03-3.41.41-4.11a1.905 1.89 88.039 0 1 .63-.68l21.55-14.1a.68.678 73.398 0 1 1.05.57l.17 48.84a.398.392-84.763 0 0 .32.39q.3.06.64-.16 4.65-2.96 13.66-8.76a3.388 3.356-16.561 0 0 1.55-2.83v-94.56a.373.37 72.856 0 0-.58-.31q-30.4 21.01-61.86 41.87c-2.28 1.51-3.35 1.82-3.34 4.58q.06 21.49.21 41.99a.419.418 71.134 0 0 .67.33m617.97-56.8L91.92 1872.3a1.385 1.381-25.427 0 0-.55 1.54q11.32 38.85 36.09 69.95c24.3 30.53 59.44 48.23 96.88 57.8q22.69 5.8 39.68 5.8 145.45-.06 250.72.12 54.71.1 102.76 25.51c20.98 11.1 40.92 24.26 57.95 40.54q21.55 20.59 38.85 45.36a.648.647-45.45 0 0 1.07-.01c14.13-20.94 31.55-40.73 51.48-56.29 45.89-35.83 105.08-55.5 163.41-55.33q42.25.12 220.39.18 25.2.01 36.02-1.4 29.91-3.9 55.44-14.7 36.44-15.41 60.64-46.83 20.53-26.66 30.09-58.71 8.71-29.16 11.41-57.65.98-10.31.93-55.8-.28-273.31-.13-643.63.02-58.49-.1-96.25-.02-6.15.3-10.07a.469.465-14.868 0 0-.73-.42m-692.67 391.72a.27.267-17.027 0 0 .42.22l33.22-22.55a1.353 1.341 72.856 0 0 .58-1.11v-44.84a.516.513 73.086 0 0-.8-.43l-6.75 4.54a.836.833-16.948 0 1-1.3-.69v-88.7a3.946 3.942-16.748 0 1 1.77-3.29q6.48-4.24 9.78-6.41c8.05-5.29 13.9-8.87 18.43-16.5q5.97-10.04 8.34-22.18 3.99-20.42 4.03-41.54.05-33.49-.15-66.97-.1-16.67-3.58-32.8-1.19-5.52-3.7-10.04c-2.87-5.17-9.46-9.68-15.27-6.08q-11.24 6.96-22.63 14.89c-7.24 5.03-15.6 10.06-21.5 14.34a2.517 2.502 72.066 0 0-1.03 2.03v44.5a.507.505 72.886 0 0 .79.42l5.56-3.77a.953.952-17.334 0 1 1.49.78l.46 232.98a1.62 1.479-34.801 0 1-.15.66c-1.1 2.47-6.4 5.23-7.6 6.12a1.406 1.401 71.867 0 0-.57 1.13zm-40.43-79.3-16.37 11.11a.788.761-18.06 0 0-.35.66l.2 58a2.116 2.104-17.29 0 1-.92 1.74l-22.52 15.28a.513.511 72.587 0 1-.8-.42l-.33-96.72a1.559 1.542 72.939 0 1 .67-1.28l27.45-18.63a1.547 1.545-17.062 0 0 .68-1.28l-.16-45.71a.482.482-16.874 0 0-.75-.4l-26.86 18.05a.7.7 72.594 0 1-1.09-.57q-.59-44.52-.52-86.51 0-3.11 2.65-4.85 6.86-4.5 20.11-13.34a.562.562-16.618 0 1 .87.47l.17 49.09a.483.476-17.088 0 0 .75.39l15.45-10.38a2.187 2.166-17.208 0 0 .96-1.8l-.33-95.02a.205.204 72.83 0 0-.32-.17l-64.88 43.59a.978.975 73.052 0 0-.43.81l.15 44.4a.331.331 71.127 0 0 .53.26l5.66-4.28a.743.738-18.823 0 1 1.19.58l.8 235.25a2.497 2.494-17.378 0 1-1.09 2.08l-5.92 4.02a2.171 2.165 72.881 0 0-.96 1.82l.15 44.82a.174.171-17.112 0 0 .27.14l65.91-44.74a1.983 1.981-17.094 0 0 .87-1.64l-.36-104.54a.339.339-17.114 0 0-.53-.28m-76.527-171.35a.46.46 79.309 0 0-.717-.381l-72.812 48.924a.46.46 59.212 0 0-.203.383l.326 93.194a.46.46-62.959 0 0 .716.381l15.324-10.294a.46.46 13.118 0 0 .203-.382v-49.001a.46.46-63.743 0 1 .202-.381l10.67-7.245a.46.46 20.194 0 1 .718.38v235.25a.46.46-71.419 0 1-.162.35l-7.896 6.724a.46.46 67.444 0 0-.161.351l.156 47.022a.46.46 70.242 0 0 .718.379l34.272-23.257a.46.46-46.845 0 0 .202-.382l-.166-47.346a.46.46-86.977 0 0-.665-.41l-6.953 3.451a.46.46-74.566 0 1-.665-.412v-235.163a.46.46-73.18 0 1 .203-.382l11.12-7.481a.46.46-39.192 0 1 .717.382v47.948a.46.46-19.858 0 0 .718.38l14.25-9.675a.46.46 60.172 0 0 .201-.382zm-163.713 156.3 5.15-3.49a.877.876 72.673 0 1 1.37.72l.8 233.31a3.743 3.723-18.74 0 1-1.49 3l-4.56 3.45a3.043 3.023-18.81 0 0-1.21 2.44l.15 43.52a.403.401-17.228 0 0 .63.33l21.23-14.41a2.286 2.265-17.258 0 0 1-1.88v-218.16a.364.362 26.114 0 1 .65-.22q.5.62.71 1.68 5.11 25.37 7.51 40.6 7.08 45.01 25.2 153.3a.377.373 67.991 0 0 .58.25l16.51-11.21a1.314 1.312 73.071 0 0 .58-1.09v-281.68a3.075 3.072 69.809 0 1 1.08-2.34l4.74-4.04a2.391 2.374 69.741 0 0 .84-1.84l-.14-43.3a.404.404 72.591 0 0-.63-.33l-21.73 14.75a1.759 1.752-17.463 0 0-.77 1.47l.35 213.53a.07.06 90 0 1-.06.07h-.45a.419.413 84.421 0 1-.42-.35l-33.23-190.6a.585.579-21.805 0 0-.9-.38l-23.22 15.6a1.885 1.86-17.222 0 0-.83 1.55v45.45a.361.358 73.013 0 0 .56.3m-27.93 19.79.16 47.44a.403.401-17.228 0 0 .63.33l15.23-10.33a2.754 2.746-17.219 0 0 1.2-2.27v-94a.37.367-17.424 0 0-.58-.3l-64.19 43.57a1.11 1.081-17.681 0 0-.48.9l.15 44.29a.681.678-20.402 0 0 1.12.51l4.54-3.87a.801.8 69.751 0 1 1.32.61l.81 233.87a3.225 3.21-17.802 0 1-1.37 2.65l-5.09 3.58a1.447 1.438 72.509 0 0-.61 1.18l.16 45.26a.339.339-17.114 0 0 .53.28l64.45-43.75a1.72 1.713 72.957 0 0 .75-1.42v-106a.339.339-17.114 0 0-.53-.28l-15.99 10.86a1.047 1.039 72.847 0 0-.45.86l.19 57.4a3.492 3.485-17.774 0 1-1.48 2.87l-22.26 15.64a.57.567-17.789 0 1-.9-.46l-.34-96.02a2.954 2.946-17.296 0 1 1.28-2.43q13.68-9.34 24.42-16.21 2.3-1.47 2.9-2.41a2.034 1.944 62.666 0 0 .32-1.09l-.25-45.36a.622.619 72.585 0 0-.97-.51l-26.35 17.88a.88.877 72.964 0 1-1.37-.73q-.24-71.42-.37-85.71-.02-2.61 1.81-3.87 10.35-7.13 20.24-13.69a.883.882-16.932 0 1 1.37.73m-90.4 344.41 32.38-22.42a.412.403 73.476 0 0 .18-.34l-.16-45.53a.879.872 72.973 0 0-1.36-.73l-5.35 3.6a.96.957 73.126 0 1-1.49-.8v-232.48a3.833 3.803 69.953 0 1 1.34-2.91l5.28-4.5a3.128 3.101 70.054 0 0 1.1-2.38v-43.4a.457.455 73.037 0 0-.71-.38l-31.18 20.95a2.68 2.658 73.233 0 0-1.18 2.22v44.21a.528.524 72.973 0 0 .82.44l4.83-3.24a.916.911 73.315 0 1 1.42.77q-.4 69.25.37 228.13.01 1.07-.12 3.97c-.14 3.5-3.56 5.29-6.19 7.27a2.3 2.3-21.494 0 0-.92 1.84l.16 45.3a.498.497 72.68 0 0 .78.41m-85.69 56.37a.572.572 72.82 0 0 .89.47l22.88-15.37a2.077 2.048 73.162 0 0 .9-1.71v-137.22a3.468 3.443-19.678 0 1 1.28-2.68q8.81-7.15 15.67-11.67 2.02-1.33 3.6-.1c5.76 4.48 4.9 14.02 4.92 20.75q.27 73.73.28 98.88.01 6.74.35 13.68a.883.881-17.005 0 0 1.34.71q10.79-6.56 21.78-15a2.03 2.03-19.018 0 0 .78-1.6v-44.18a.779.777 76.948 0 0-1.12-.7l-3.98 1.97a.801.796 76.889 0 1-1.15-.72q.04-42-.15-69.21-.1-14.56-.97-23.19-1.21-12.06-10.95-18.24a.489.486-58.832 0 1-.16-.66c2.98-5.16 4.61-9.44 6.35-15.7q3.83-13.79 4.05-35.7.2-19.63-.27-44.75c-.33-18.39-.61-33.11-6.61-48.12-3.87-9.68-10.76-12.38-19.78-6.31q-18.04 12.16-39.78 26.75a1.353 1.341 72.856 0 0-.58 1.11v44.89a.382.378 73.127 0 0 .59.32l5.4-3.62a.805.8 73 0 1 1.25.67v236.37a2.994 2.977 72.479 0 1-1.26 2.44l-5.14 3.61a1.306 1.295-17.798 0 0-.55 1.06zm-61.43 35.56q5.29 2.24 10.82-.98 2.11-1.23 14.4-9.58 8.52-5.79 9.2-6.38c6.2-5.37 9.72-13.69 11.77-21.17 5.27-19.13 6.07-36.7 6.03-58.75q-.14-95.77-.08-195.34.01-23.15-4.92-45.28c-1.06-4.76-4.3-10.98-9.34-12.19q-3.84-.92-6.12.39-13.12 7.54-18.43 11.45c-8.25 6.08-13.19 11.47-16.83 20.3q-3.44 8.33-4.67 14.88-4.41 23.45-4.32 48.64.17 42.81.32 207 .01 9.42 1.16 21.01c.77 7.77 3.87 22.97 11.01 26"></path><path fill="#fff" fill-rule="evenodd" d="M1345.08 464.07v82.125a.31.31 19.209 0 1-.137.257L80.513 1396.086a.31.31-79.309 0 1-.483-.258V464.07a.31.31 0 0 1 .31-.31h1264.43a.31.31 36.563 0 1 .31.31M367.6 542.8v120.55a.62.62 33.731 0 1-.62.62h-37.79a1.36 1.36-53.16 0 1-1.36-1.36v-34.67a1 1-45 0 1 1-1h28.45a.42.41 0 0 0 .42-.41v-45.12a.65.64 0 0 0-.65-.64H253.37a.84.84 81.064 0 0-.84.84v44.51a.81.8 0 0 0 .81.8h27.8a.59.58 90 0 1 .58.59v36.01a.47.46-90 0 1-.46.47h-36.09a1.06 1.06 45 0 1-1.06-1.06v-27.08a.99.99 45 0 0-.99-.99h-44.51a.86.86-15.137 0 0-.86.86v102.69a.88.88-78.754 0 0 .88.88h44.82a.74.74 45 0 0 .74-.74v-27.17a.8.8.219 0 1 .8-.8h36.25a.49.49 45 0 1 .49.49v37.86a.9.9 45 0 1-.9.9H158.8a.37.37-53.159 0 1-.37-.37v-27.85a1.01 1.01 45 0 0-1.01-1.01h-44.54a.83.83 1.956 0 0-.83.83v103.34a.98.98 81.572 0 0 .98.98h44.27a.99.99-84.081 0 0 .99-.99v-28.02a.56.55 0 0 1 .56-.55h122.29a.64.63 0 0 1 .64.63v121.46a.31.31-64.801 0 1-.31.31h-27.84a.97.97 68.034 0 0-.97.97v44.79a.56.56 0 0 0 .56.56H356.8a.61.61-15.165 0 0 .61-.61v-45.06a.54.54-8.186 0 0-.54-.54H328.3a.52.51 90 0 1-.51-.52V796.72a.54.53-90 0 1 .53-.54h38.76a.62.62-53.158 0 1 .62.62v36.13a.43.42-90 0 1-.42.43h-28.22a1.09 1.09-45 0 0-1.09 1.09v44.39a.88.88-78.754 0 0 .88.88h103.72a.39.39-15.162 0 0 .39-.39v-44.97a1.04 1.04 0 0 0-1.04-1.04h-27.38a.5.5 45 0 1-.5-.5V796.8a.64.63-90 0 1 .63-.64h35.89a.38.37 90 0 1 .37.38v28.34a.83.82 90 0 0 .82.83h44.98a.86.85 90 0 0 .85-.86V721.28a.55.54 90 0 0-.54-.55h-45.45a.69.68 90 0 0-.68.69v27.92a.49.48 0 0 1-.49.48h-35.77a.64.64-89.947 0 1-.64-.64V711.2a.66.65 90 0 1 .65-.66h120.5a.56.56 45 0 1 .56.56v27.13a.98.98 0 0 0 .98.98h45.19a.87.87-45 0 0 .87-.87v-102.9a.54.53-90 0 0-.53-.54h-45.47a1.01 1 0 0 0-1.01 1v27.5a.6.6-45 0 1-.6.6H414.9a.91.91 36.85 0 1-.91-.91v-120.3a.68.67 0 0 1 .68-.67h27.95a.38.38-15.217 0 0 .38-.38v-45.43a.63.63-45 0 0-.63-.63H338.7a.64.64-45 0 0-.64.64v44.82a.99.98 0 0 0 .99.98h27.88a.68.67-90 0 1 .67.68m727.646 81.488q.726.001 1.583.603 19.131 13.439 38.371 27.259a.566.564 22.305 0 0 .89-.37q.07-.48-.11-1.03-13.23-41.35-14.33-44.78a2.68 2.68-27.45 0 1 .94-2.97q1.36-1.02 36.43-27.19.78-.58 1.08-1.24a.495.491 12.514 0 0-.45-.7h-47.06a1.625 1.611-11.047 0 1-1.5-1q-.9-2.19-1.43-3.95-5.58-18.46-14.021-43.073-.073-.215-.303-.215t-.304.214q-8.485 24.598-14.099 43.048-.533 1.759-1.437 3.947a1.625 1.611 11.151 0 1-1.502.998l-47.06-.086a.495.491-12.41 0 0-.451.699q.299.661 1.078 1.242 35.022 26.234 36.38 27.256a2.68 2.68 27.554 0 1 .935 2.972q-1.107 3.428-14.412 44.754-.181.55-.112 1.03a.566.564-22.201 0 0 .89.371q19.265-13.785 38.42-27.189.858-.6 1.584-.6M924.03 795.92q.38-.94.13-1.71-7.69-23.99-14.84-45.86a1.19 1.19 62.675 0 1 .42-1.32l38.4-29a.851.848-63.509 0 0-.51-1.53l-46.66.16a2.438 2.421-9.105 0 1-2.31-1.66q-6.85-20.68-15.31-45.12-.17-.5-.49-.65a.536.503-71.647 0 0-.72.39q-.45 2.12-.91 3.64-4.81 15.82-13.91 42.13a1.725 1.721 9.489 0 1-1.63 1.16l-47.27.17a.485.47 20.892 0 0-.35.15q-.57.68.41 1.45 16.07 12.54 37.89 28.59a1.124 1.121-62.802 0 1 .4 1.25l-15.14 47.12a.469.469 81.738 0 0 .71.53c7.03-4.8 17.3-12.22 36.83-26.26 2.33-1.68 3.66-3 6.04-1.28 10.82 7.82 20.27 14.32 29.88 21.62q3.51 2.66 8.65 6.12a.197.197 27.656 0 0 .29-.09m-239.796 61.246a.48.48 18.128 0 1-.451-.328l-15.818-47.219a.48.48-74.018 0 0-.91 0l-15.818 47.219a.48.48-44.817 0 1-.451.328l-49.796.452a.48.48 85.656 0 0-.281.865l40.02 29.636a.48.48-29.457 0 1 .172.53l-14.958 47.499a.48.48-51.555 0 0 .737.535l40.551-28.904a.48.48 86.748 0 1 .558 0l40.551 28.904a.48.48 71.305 0 0 .737-.535l-14.958-47.499a.48.48 5.744 0 1 .172-.53l40.02-29.636a.48.48-8.725 0 0-.281-.865zm-215.31 144.491a.34.34 26.444 0 1-.319-.232l-15.969-47.883a.34.34-21.085 0 0-.645-.001l-16.136 47.826a.34.34 48.194 0 1-.32.232l-50.474.391a.34.34-52.867 0 0-.2.613l40.5 30.125a.34.34-34.338 0 1 .121.376l-15.226 48.124a.34.34 67.433 0 0 .521.38l41.167-29.208a.34.34 3.501 0 1 .394.001l41.064 29.351a.34.34 66.114 0 0 .523-.377l-15.058-48.178a.34.34 11.974 0 1 .123-.375l40.604-29.984a.34.34 10.349 0 0-.198-.614zm-228.118 196.477q.823-.001 1.543.512 17.441 12.394 39.281 28.184a.753.75-61.045 0 0 1.14-.33q.06-.15-.12-.78-2.29-8.12-7.52-23.21c-2.65-7.62-4.69-15.28-7.49-22.95a1.742 1.735 61.516 0 1 .58-1.97q27.54-20.95 37.97-28.61.63-.46.65-.91a.872.871-89.065 0 0-.88-.91q-32.02.03-47.08 0a1.778 1.763-9.342 0 1-1.66-1.18q-8.27-23.55-15.731-46.389-.177-.542-.723-.542-.547 0-.724.543-7.442 22.845-15.692 46.401a1.778 1.763 9.295 0 1-1.659 1.182q-15.06.042-47.08.038a.872.871 89.018 0 0-.88.911q.021.45.651.909 10.436 7.652 37.993 28.579a1.742 1.735-61.563 0 1 .582 1.97c-2.794 7.672-4.827 15.334-7.471 22.956q-5.218 15.094-7.501 23.216-.18.63-.12.78a.753.75 60.998 0 0 1.141.329q21.827-15.807 39.257-28.216.721-.513 1.543-.513"></path><path fill="#d81017" fill-rule="evenodd" d="M366.93 542.12h-27.88a.99.98 0 0 1-.99-.98v-44.82a.64.64 45 0 1 .64-.64h103.67a.63.63-45 0 1 .63.63v45.43a.38.38 33.746 0 1-.38.38h-27.95a.68.67 0 0 0-.68.67v120.3a.91.91 11.277 0 0 .91.91h120.25a.6.6-45 0 0 .6-.6v-27.5a1.01 1 0 0 1 1.01-1h45.47a.54.53-90 0 1 .53.54v102.9a.87.87-45 0 1-.87.87H536.7a.98.98 45 0 1-.98-.98V711.1a.56.56 45 0 0-.56-.56h-120.5a.66.65 90 0 0-.65.66v37.98a.64.64 89.947 0 0 .64.64h35.77a.49.48 0 0 0 .49-.48v-27.92a.69.68-90 0 1 .68-.69h45.45a.55.54-90 0 1 .54.55v103.57a.86.85-90 0 1-.85.86h-44.98a.83.82 90 0 1-.82-.83v-28.34a.38.37 90 0 0-.37-.38h-35.89a.64.63 90 0 0-.63.64v36.02a.5.5-45 0 0 .5.5h27.38a1.04 1.04 0 0 1 1.04 1.04v44.97a.39.39 33.746 0 1-.39.39H338.85a.88.88-53.169 0 1-.88-.88v-44.39a1.09 1.09 45.026 0 1 1.09-1.09h28.22a.43.42-90 0 0 .42-.43V796.8a.62.62-78.782 0 0-.62-.62h-38.76a.54.53 90 0 0-.53.54v121.46a.52.51 90 0 0 .51.52h28.57a.54.54 25.2 0 1 .54.54v45.06a.61.61 33.746 0 1-.61.61H253.22a.56.56-.159 0 1-.56-.56v-44.79a.97.97-49.346 0 1 .97-.97h27.84a.31.31 81.828 0 0 .31-.31V796.82a.64.63 0 0 0-.64-.63H158.85a.56.55 0 0 0-.56.55v28.02a.99.99-60.231 0 1-.99.99h-44.27a.98.98-64.858 0 1-.98-.98V721.43a.83.83 14.714 0 1 .83-.83h44.54a1.01 1.01-45 0 1 1.01 1.01v27.85a.37.37-78.747 0 0 .37.37h122.03a.9.9 45 0 0 .9-.9v-37.86a.49.49 0 0 0-.49-.49h-36.25a.8.8-.055 0 0-.8.8v27.17a.74.74 45 0 1-.74.74h-44.82a.88.88-53.169 0 1-.88-.88V635.72a.86.86 33.753 0 1 .86-.86h44.51a.99.99 45 0 1 .99.99v27.08a1.06 1.06 44.97 0 0 1.06 1.06h36.09a.47.46-90 0 0 .46-.47v-36.01a.59.58 90 0 0-.58-.59h-27.8a.81.8 0 0 1-.81-.8v-44.51a.84.84-57.322 0 1 .84-.84h103.68a.65.64 0 0 1 .65.64v45.12a.42.41 0 0 1-.42.41h-28.45a1 1 45 0 0-1 1v34.67a1.36 1.36-78.738 0 0 1.36 1.36h37.79a.62.62-15.164 0 0 .62-.62V542.8a.68.67-90 0 0-.67-.68m.687 169.055a.64.64 0 0 0-.641-.639l-38.56.068a.64.64 0 0 0-.639.641l.066 37.96a.64.64 0 0 0 .641.639l38.56-.068a.64.64 0 0 0 .639-.641z"></path><path fill="#ebbf16" fill-rule="evenodd" d="M1095.336 525.632q.23 0 .303.215 8.441 24.613 14.021 43.073.53 1.76 1.43 3.95a1.625 1.611-11.047 0 0 1.5 1h47.06a.495.491 12.514 0 1 .45.7q-.3.66-1.08 1.24-35.07 26.17-36.43 27.19a2.68 2.68-27.45 0 0-.94 2.97q1.1 3.43 14.33 44.78.18.55.11 1.03a.566.564 22.305 0 1-.89.37q-19.24-13.82-38.371-27.259-.857-.602-1.583-.603-.726 0-1.584.6-19.155 13.404-38.42 27.189a.566.564-22.201 0 1-.89-.371q-.069-.48.112-1.03 13.305-41.326 14.412-44.754a2.68 2.68 27.554 0 0-.935-2.972q-1.358-1.022-36.38-27.256-.779-.581-1.078-1.242a.495.491-12.41 0 1 .451-.699l47.06.086a1.625 1.611 11.151 0 0 1.502-.998q.904-2.188 1.437-3.947 5.614-18.45 14.099-43.048.074-.214.304-.214"></path><path fill="#fff" fill-rule="evenodd" d="M1310.88 969.38c-5.51 4.19-11.24 7.76-18.4 12.87q-.97.7-4.06 1.87c-7.66 2.92-14.02-2.42-16.23-9.34q-4.32-13.49-4.69-29.79-.5-21.95-.5-40.74.01-114.8-.05-147-.06-32.75 1.01-51.99 1.05-18.78 5.94-32.92 5.3-15.37 19.26-24.46 9.47-6.15 15.16-9.07c5.94-3.05 11.81-.14 14.46 5.71 5.96 13.14 6.83 27.61 7.46 42.17q.39 8.9.4 16.67.25 109.19 0 183.64c-.06 19.87-.43 36.43-4.27 54.11-2.39 11.01-6.5 21.42-15.49 28.27M1284.954 810q-.102 71.982.275 102.999c.071 5.561.311 25.071 10.191 19.681 7.41-4.04 13.44-9.42 15.24-17.54q2.2-9.9 2.15-20.141-.104-20.956-.014-84.784.101-71.982-.276-102.999c-.071-5.561-.311-25.071-10.191-19.681-7.41 4.04-13.44 9.42-15.24 17.54q-2.2 9.9-2.15 20.141.105 20.956.015 84.784"></path><path fill="#ebbf16" fill-rule="evenodd" d="M924.03 795.92a.197.197 27.656 0 1-.29.09q-5.14-3.46-8.65-6.12c-9.61-7.3-19.06-13.8-29.88-21.62-2.38-1.72-3.71-.4-6.04 1.28-19.53 14.04-29.8 21.46-36.83 26.26a.469.469 81.738 0 1-.71-.53l15.14-47.12a1.124 1.121-62.802 0 0-.4-1.25q-21.82-16.05-37.89-28.59-.98-.77-.41-1.45a.485.47 20.892 0 1 .35-.15l47.27-.17a1.725 1.721 9.489 0 0 1.63-1.16q9.1-26.31 13.91-42.13.46-1.52.91-3.64a.536.503-71.647 0 1 .72-.39q.32.15.49.65 8.46 24.44 15.31 45.12a2.438 2.421-9.105 0 0 2.31 1.66l46.66-.16a.851.848-63.509 0 1 .51 1.53l-38.4 29a1.19 1.19 62.675 0 0-.42 1.32q7.15 21.87 14.84 45.86.25.77-.13 1.71"></path><path fill="#0e7c2d" fill-rule="evenodd" d="M1284.954 810q.09-63.828-.015-84.784-.05-10.241 2.15-20.141c1.8-8.12 7.83-13.5 15.24-17.54 9.88-5.39 10.12 14.12 10.191 19.681q.377 31.017.276 102.999-.09 63.828.014 84.784.05 10.241-2.15 20.141c-1.8 8.12-7.83 13.5-15.24 17.54-9.88 5.39-10.12-14.12-10.191-19.681q-.377-31.017-.275-102.999"></path><path fill="#fff" fill-rule="evenodd" d="M1234.92 1021.09a.311.309 73.258 0 1-.48-.26q.12-28.07-.04-117.82-.01-5.37-1.39-11.97-.61-2.96-2.89-4.44c-2.12-1.36-4.35-.25-6.48 1.05q-6.89 4.2-12.79 8.98-1.68 1.36-1.67 3.14.1 29.47-.1 136.93a2.76 2.76 73.047 0 1-1.22 2.29l-23.54 15.81a.348.347 76.303 0 1-.54-.33q.34-2.93.31-7.46-.13-21.27-.13-34.76 0-2.1.71-3.43a1.209 1.198-2.232 0 1 .42-.45l4.37-2.94a3.758 3.732 73.145 0 0 1.65-3.11V767.69a.814.81 73.226 0 0-1.26-.68l-5.35 3.6a.373.372 73.071 0 1-.58-.31v-43.99a2.306 2.293 73.372 0 1 1.03-1.92q18.42-12.08 37.18-25.01c6.13-4.23 13.95-8.63 19.69-.51q2.81 3.97 4.17 8.4c4.06 13.26 4.76 27.15 4.85 41.48q.14 23.51.18 43.25c.05 19.51-1.57 39.79-11.01 57.09a.551.547-60.324 0 0 .2.74c7.19 4.28 9.97 10.61 10.71 18.96q.99 11.32 1.19 24.96.19 13.28-.07 49.85c-.02 4.14.13 11.66.68 15.15q.15 1 .17 1.02a1.216 1.205-29.749 0 0 1.68.45l3.77-2.25a.592.585-15.324 0 1 .89.5v44.74a2.894 2.89-16.974 0 1-1.28 2.4zm-26.437-172.245a.674.67-14.58 0 0 1 .584q3.99-2.208 7.415-4.644c6.355-4.486 10.77-7.596 12.789-14.655q3.849-13.446 3.846-28.96-.013-19.88-.126-41.552c-.02-4.079-.231-21.474-9.131-15.701q-6.355 4.13-14.354 10.17a3.68 3.66 71.556 0 0-1.455 2.931zm-840.8-99.71a.64.64 0 0 1-.639.641l-38.56.068a.64.64 0 0 1-.641-.639l-.066-37.96a.64.64 0 0 1 .639-.641l38.56-.068a.64.64 0 0 1 .641.639zm739.927 356.515v-43.9a2.468 2.453 73.067 0 1 1.08-2.04l4.7-3.19a3.646 3.628 72.987 0 0 1.59-3.01V818.7a.88.879-16.944 0 0-1.37-.73l-6.18 4.15a.444.444 73.172 0 1-.69-.37v-43.54a1.993 1.989 73.268 0 1 .89-1.66l65.09-43.74a.516.513 73.086 0 1 .8.43v93.71a2.144 2.122 73.392 0 1-.95 1.78l-15.18 10.2a.423.422 72.886 0 1-.66-.35v-48.73a.739.737-16.958 0 0-1.15-.61l-22.33 15.16a1.253 1.241 72.952 0 0-.54 1.03v88.65a.696.695 73.184 0 0 1.08.58l27.82-18.7a.395.391 73.178 0 1 .61.33q-.06 12 .08 43.21.02 2.56-.88 3.89a1.3 1.3 42.813 0 1-.35.35l-27.02 18.34a3.179 3.156 72.989 0 0-1.38 2.62l.33 96.26a.904.901 71.927 0 0 1.43.73q.86-.63 21.06-14 2.2-1.46 2.18-3.44-.13-17.24-.1-57.04a1.278 1.263-17.275 0 1 .56-1.05l15.82-10.63a.353.351-17.049 0 1 .55.29v103.75a3.098 3.075-17.061 0 1-1.37 2.56l-65.1 43.75a.273.27 73.352 0 1-.42-.23"></path><path fill="#0e7c2d" fill-rule="evenodd" d="m1208.483 848.845-.016-91.827a3.68 3.66 71.556 0 1 1.455-2.931q7.999-6.04 14.354-10.17c8.9-5.773 9.111 11.622 9.131 15.701q.113 21.672.126 41.552.003 15.514-3.846 28.96c-2.019 7.059-6.434 10.169-12.789 14.655q-3.425 2.436-7.415 4.644a.674.67-14.58 0 1-1-.584"></path><path fill="#fff" fill-rule="evenodd" d="M1044.51 865.48a.75.749-17.038 0 0-1.17-.62l-5.89 4a.227.223 73.039 0 1-.35-.19v-44.06a2.118 2.111-17.114 0 1 .93-1.75l30.4-20.42a.687.684 72.919 0 1 1.07.57v43.3a1.046 1.04-16.806 0 1-.47.87q-2.19 1.45-4.46 3.1c-2.11 1.53-1.9 3.35-1.9 5.73q.28 109.38.28 230.76a.738.735-17.531 0 0 1.16.6q8.08-5.69 14.22-10.04c2.18-1.55 2.87-2.93 2.84-5.74q-.49-52-.54-60.45a1.779 1.739-32.082 0 1 .21-.87q.63-1.23 2.02-2.17 6.98-4.73 14.16-9.11a.282.282 74.017 0 1 .43.24v112.78a1.665 1.644 73.083 0 1-.72 1.37l-58.71 39.85a.361.358 73.013 0 1-.56-.3v-44.83a2.749 2.722 73.153 0 1 1.2-2.27l4.33-2.94a3.463 3.449-17.126 0 0 1.52-2.86z"></path><path fill="#ebbf16" fill-rule="evenodd" d="m684.234 857.166 49.796.452a.48.48 67.29 0 1 .281.865l-40.02 29.636a.48.48-52.347 0 0-.172.53l14.958 47.499a.48.48-43.373 0 1-.737.535l-40.551-28.904a.48.48 15.5 0 0-.558 0l-40.551 28.904a.48.48-52.206 0 1-.737-.535l14.958-47.499a.48.48-60.302 0 0-.172-.53l-40.02-29.636a.48.48-80.649 0 1 .281-.865l49.796-.452a.48.48-78.536 0 0 .451-.328l15.818-47.219a.48.48-11.027 0 1 .91 0l15.818 47.219a.48.48 5.351 0 0 .451.328"></path><path fill="#fff" fill-rule="evenodd" d="M979.51 1191.65c-5.58.43-9.88-5.68-11.38-10.81q-2.3-7.83-2.89-15.1-1.37-16.75-1.36-32.49.06-82.35 0-165c-.02-28.49-.83-53.13 3.81-79.01 2.17-12.1 7.76-24.77 17.72-32.08q7.4-5.42 15.47-10.28c3.35-2.01 6.77-4.03 10.37-3.51 8.81 1.29 11.27 13.68 12.53 20.89 2.96 17.12 3.33 31.89 3.43 51.51q.3 57.66.12 163.4-.05 29.96-.34 34.67-1.01 17.04-4.85 34.29-1.49 6.71-4.83 14.42c-3.79 8.75-9.53 12.98-18.17 18.85q-8.83 6-16.46 9.82-.45.22-3.17.43m22.35-298.73c-5.79.74-13.09 7.6-15.88 12.29-3.88 6.52-4.24 18.1-4.24 25.79q0 156.48.01 167.5.01 21.98.65 31.86c.28 4.24 1.9 12.06 7.74 9.08 8.22-4.18 15.19-9.1 17.04-18.75q1.65-8.58 1.7-14.69.68-83.57.22-188.5-.05-9.96-1.52-17.33-.65-3.24-2.25-5.65a3.668 3.604 69.247 0 0-3.47-1.6"></path><path fill="#0e7c2d" fill-rule="evenodd" d="M1001.86 892.92a3.668 3.604 69.247 0 1 3.47 1.6q1.6 2.41 2.25 5.65 1.47 7.37 1.52 17.33.46 104.93-.22 188.5-.05 6.11-1.7 14.69c-1.85 9.65-8.82 14.57-17.04 18.75-5.84 2.98-7.46-4.84-7.74-9.08q-.64-9.88-.65-31.86-.01-11.02-.01-167.5c0-7.69.36-19.27 4.24-25.79 2.79-4.69 10.09-11.55 15.88-12.29"></path><path fill="#fff" fill-rule="evenodd" d="m880.74 1259.76-.15-44.65a1.926 1.915 73.013 0 1 .84-1.59l4.96-3.33a3.379 3.365-17.116 0 0 1.5-2.82l-.8-233.71a.528.525-17.207 0 0-.82-.43l-4.62 3.11a.56.556-16.948 0 1-.87-.46l-.16-45.45a.687.669 73.132 0 1 .29-.56q16.44-11.46 41.22-27.74c23.76-15.59 24.82 43.96 24.9 52.87q.2 21.23 0 42-.16 16.12-2.49 31.27c-1.54 9.97-3.26 17.84-8.18 25.5a.913.906 28.748 0 0 .39 1.32c9.49 4.35 11.14 19.09 11.36 28.43q1.21 52.32.68 66.73-.21 5.61.31 11.69.15 1.7.48 2.68a1.54 1.54-22.407 0 0 2.14.89l3.28-1.63a.394.388 76.626 0 1 .56.35l.37 44.12a2.515 2.473 56.787 0 1-.21 1.05q-.31.71-2.27 2.03-21.12 14.27-21.45 14.5a.399.399-18.063 0 1-.63-.32c-.82-37.11.28-83.56-.51-119.11-.08-3.65-.88-10.59-3.88-13.22-2.29-2.01-6.35.19-8.45 1.75q-7.08 5.25-12.14 9.97a3.374 3.356-21.708 0 0-1.08 2.49l.46 135.17a.717.699-18.405 0 1-.31.6l-24.62 16.54a.067.056-18.097 0 1-.1-.04m24.11-204.89a.68.677-14.57 0 0 1.01.59q4.03-2.23 7.49-4.69c6.42-4.53 10.88-7.67 12.92-14.8q3.89-13.58 3.89-29.25-.01-20.08-.12-41.97c-.02-4.12-.23-21.69-9.22-15.86q-6.42 4.17-14.5 10.27a3.717 3.697 71.565 0 0-1.47 2.96zm-76.99-43.85a.546.54-16.527 0 0-.84-.45q-4.62 2.99-7.47 4.75c-3.48 2.16-3.1 4.2-3.15 8.29q-.16 16.4-.01 42.86.01 1.52-2.48 3.2-6.78 4.56-11.73 7.85a.624.622-17.155 0 1-.97-.51l-.32-92.83a1.483 1.476-16.923 0 1 .66-1.23l70.31-47.25a.445.442-17.223 0 1 .69.36q.5 42.72.03 89.19c-.03 2.64-.12 3.44-2.38 4.97q-7.12 4.83-11.92 7.89a.317.314-16.742 0 1-.49-.26v-47.23a.621.619-17.17 0 0-.97-.51l-9.33 6.26a2.383 2.377-3.747 0 0-.8.91q-.63 1.28-.63 3.48.34 138.32.42 233.27a.822.821-16.974 0 0 1.28.68l5.48-3.68a.605.6-17.232 0 1 .94.49q.35 21.7.18 44.22-.01 1.69-1.9 2.97-14.49 9.88-32.16 21.77a.339.339-17.114 0 1-.53-.28l-.15-45.08a2.808 2.782-19.214 0 1 1.09-2.23q2.65-2.04 5.28-4.39c1.47-1.3 1.96-2.48 2.02-4.58q.12-4.04.12-8.17-.21-192.62-.27-224.73"></path><path fill="#0e7c2d" fill-rule="evenodd" d="M904.85 1054.87v-92.75a3.717 3.697 71.565 0 1 1.47-2.96q8.08-6.1 14.5-10.27c8.99-5.83 9.2 11.74 9.22 15.86q.11 21.89.12 41.97 0 15.67-3.89 29.25c-2.04 7.13-6.5 10.27-12.92 14.8q-3.46 2.46-7.49 4.69a.68.677-14.57 0 1-1.01-.59"></path><path fill="#ebbf16" fill-rule="evenodd" d="m468.924 1001.657 50.472.567a.34.34 61.97 0 1 .198.614l-40.604 29.984a.34.34-11.985 0 0-.123.375l15.058 48.178a.34.34-49.194 0 1-.523.377l-41.064-29.351a.34.34 2.735 0 0-.394-.001l-41.167 29.208a.34.34-61.795 0 1-.521-.38l15.226-48.124a.34.34-64.609 0 0-.121-.376l-40.5-30.125a.34.34 7.066 0 1 .2-.613l50.474-.391a.34.34-31.004 0 0 .32-.232l16.136-47.826a.34.34-8.047 0 1 .645.001l15.969 47.883a.34.34.081 0 0 .319.232"></path><path fill="#fff" fill-rule="evenodd" d="M726.55 1078.81a.419.418 71.134 0 1-.67-.33q-.15-20.5-.21-41.99c-.01-2.76 1.06-3.07 3.34-4.58q31.46-20.86 61.86-41.87a.373.37 72.856 0 1 .58.31v94.56a3.388 3.356-16.561 0 1-1.55 2.83q-9.01 5.8-13.66 8.76-.34.22-.64.16a.398.392-84.763 0 1-.32-.39l-.17-48.84a.68.678 73.398 0 0-1.05-.57l-21.55 14.1a1.905 1.89 88.039 0 0-.63.68q-.38.7-.41 4.11-.34 43.28.23 85.73a.752.75-17.369 0 0 1.17.61l26.96-18.11a.389.389-17.29 0 1 .61.32l.16 46.44a.487.47 73.722 0 1-.21.4l-28 18.82a1.987 1.986 73.089 0 0-.88 1.65l.33 96.34a.794.791 73.857 0 0 1.21.67q10.8-6.75 22.03-15.02 1.64-1.21 1.68-3.33.41-21.3-.14-56.59a1.541 1.528-16.193 0 1 .75-1.35q9.73-5.9 14.3-9.16.53-.38.83-.42a.873.867-2.932 0 1 .97.87q-.25 66.91 0 103.4a1.728 1.707-17.513 0 1-.76 1.44l-65.57 44.51a.43.426 72.343 0 1-.67-.35l-.15-44.46a1.271 1.266 71.451 0 1 .5-1.01q.82-.62 5.05-3.53c2.6-1.79 2.3-5.35 2.3-7.87q-.12-163.12-.41-224.71-.02-3.31-.27-5.76a.898.894 68.65 0 0-1.43-.63zm617.97-56.8a.469.465-14.868 0 1 .73.42q-.32 3.92-.3 10.07.12 37.76.1 96.25-.15 370.32.13 643.63.05 45.49-.93 55.8-2.7 28.49-11.41 57.65-9.56 32.05-30.09 58.71-24.2 31.42-60.64 46.83-25.53 10.8-55.44 14.7-10.82 1.41-36.02 1.4-178.14-.06-220.39-.18c-58.33-.17-117.52 19.5-163.41 55.33-19.93 15.56-37.35 35.35-51.48 56.29a.648.647-45.45 0 1-1.07.01q-17.3-24.77-38.85-45.36c-17.03-16.28-36.97-29.44-57.95-40.54q-48.05-25.41-102.76-25.51-105.27-.18-250.72-.12-16.99 0-39.68-5.8c-37.44-9.57-72.58-27.27-96.88-57.8q-24.77-31.1-36.09-69.95a1.385 1.381-25.427 0 1 .55-1.54zm-226.24 385.82q-7.53 5.99-14.23 14.37l4.56-77.48a.384.382-12.059 0 0-.56-.36q-27.49 14.18-42.79 40.67c-4.73 8.19-8.77 18.18-9.73 27.68q-.31 2.99-.6 6.19-7.18-18.62-14.46-36.66-3.38-8.37-6.84-15.43a.728.728-40.421 0 0-1.25-.1c-12.74 18.07-18.49 43.38-14.47 65.06q1.19 6.38 5.06 15.36l-43.25-32.28a.481.478-66.351 0 0-.76.3c-1.62 8.9-2.88 18.13-1.81 26.86q3.52 28.79 30.24 43.1c-24.29 9.38-37.3 33.91-32.81 59.39a.44.435 75.062 0 0 .58.34q4.6-1.69 7.92-3.27 8.86-4.23 45.73-22.18 1.81-.89 3.55-2.13 1.71-1.23 3.35-2.48c-9.37 11.29-15.07 26.07-13.51 40.65 1.41 13.07 5.78 23.3 12.92 34.15a.638.637 42.836 0 0 1.09-.04l36.07-64.81q-.42.38.08.09a.91.891 44.403 0 1 .87 0q4.29 2.32 6.99 4.71 8.65 7.64 15.9 18.6-.94 1.38-.94 3.87-.04 16.62.06 33.25c.01 3.11 2.86 3.19 5.12 4.05q-1.19 7.92-3.76 14.56-2.5 6.47-4.04 11.4-4.57 11.72-6.16 24.98-.8 6.68-1.53 12.41c-2.21 9.12-2.36 19.25-2.53 28.53l.04 17.58a.389.388 19.822 0 1-.64.3l-20.68-17.46c-10.03-9.64-20.83-18.76-33.69-24.56q-3.57-1.58-7.83-2.56-13.2-3.06-26.67-4.54-4.49-.49-10.01-2.78l-33.66-9.36q-.91-.96-.33-1.78.54-.76 1.48-.65c10.96 1.38 26.88 1.15 40.56.69q1.19-.04 48.63-1.78a.333.329-11.012 0 0 .3-.44q-.62-1.73-1.87-3.51-8.08-11.47-19.2-19.54c-10.55-7.66-26.27-10.53-38.72-9.25-12.71 1.3-26.48 9.53-36.64 17.71q-.64.51-1.16.55-.78.07-.96-.68 1.87-1.99 2.59-2.5c10.82-7.7 22.9-15.86 33.48-23.92q23.31-17.77 36.81-28.2a.669.668 38.989 0 0-.12-1.13c-10.98-5.34-22.49-8.64-34.88-6.7-25.92 4.08-41.33 22.77-48.51 46.91q-1.25 4.21-2.45 8.39l-.26.07a.613.61-9.539 0 1-.79-.56c-.26-5.97-.24-11.75-.56-17.91q-1.43-27.73-2.71-54.82-.63-13.53-1.91-27.73a.949.945 73.904 0 0-1.37-.76q-25.37 12.81-29.77 41.3c-2.26 14.65.28 29.56 7.95 42.19q2.1 3.47 4.46 7.08l-58.54-59.41a.489.483 32.127 0 0-.81.18q-4.2 12.62-3.25 26.01 1.66 23.59 18.98 39.78 7.97 7.46 20.57 10.65 14 3.55 22.13 4.87.43 1.18-.27 2.3a.863.852-72.389 0 1-.78.41q-3.02-.2-4.56-.58c-13.83-3.4-33.5-9.44-48.21-12.91q-6.56-1.54-40.41-10.4a.39.387-.829 0 0-.47.48c4.22 14.94 12.46 29.55 25.97 38q16.73 10.46 35.35 8.03 14.24-1.85 29.49-6.62a.705.704 67.831 0 1 .83.35q.68 1.37.72 2.83-5.3 1.93-7.62 2.52c-15.73 4-32.53 8.21-49.76 13.16q-14.24 4.1-26.03 7.08a.835.834 61.567 0 0-.41 1.38q13.01 13.97 32.07 19.34c14.14 3.98 31.9 3.01 45.13-4.42q13.48-7.56 22-22.03 8.03 1.51 15.35-.57 4-1.14 6.8-3.34 8.25 4.05 11.99 5.32 8.89 3.02 26.2 7.72l41.56 12.6q9.35 5.1 17.73 11.45 5.62 4.25 10.81 7.77 17.91 16.35 35.34 35.58l2.33 43.61q.9 8.06 1.75 15.29 1.62 13.69 1.2 25.78-.02 22.39-4.78 44.28-4.1-3.13-6.75-7.23c-4.69-7.24-2.55-14.26.37-21.52 1.38-3.43 1.61-5.16 2.5-9.09a.331.325 88.021 0 0-.41-.39c-2.57.74-4.5 2.15-6.77 3.54q-16.7 10.21-24.7 28.29a.349.346-38.728 0 1-.66-.07c-2-10.25-6.48-18.66-16.23-23.47a.471.465-79.137 0 0-.67.46q.92 11.76-4.84 21.59c-2.78 4.76-6.44 7.66-11.48 9.7a.498.494 67.65 0 1-.64-.27l-.94-2.33a7.789 7.709-61.096 0 1-.45-1.59c-1.87-11.19-4.82-21-14.68-27.61a.806.804-70.557 0 0-1.25.6c-.92 11.27-9.09 31-23.88 28.07a2.554 2.524 85.089 0 1-1.89-1.61q-7-18.87-24.85-27.13a.406.404 12.318 0 0-.58.37c.17 10-3.35 24.84-14.53 28.02-17.64 5.02-27.09-18.2-31.97-30.65a.784.776 70.31 0 0-.96-.46l-1.88.61q-.84-54.39-29.11-99.38c-10.96-17.44-24.11-31.74-39.53-44.14-29.35-23.58-63.51-38.06-101.42-40.74q-73.17-5.17-129.61 40.46-10.94 8.85-24.62 24.64c-7.55 8.71-14.1 19.14-19.88 29.33q-11.19 19.73-17.05 41.74-8.45 31.75-6.5 63.86-18.54-5.85-37.3 1.96a.935.929-18.617 0 1-1.26-.62c-1.32-4.98-3.32-10.4-6.33-14.61q-10.4-14.54-28.8-15.94a.64.638 85.386 0 0-.67.79q.55 2.3.08 5.03-1.9 10.97-6.75 20.05-3.21 6.02-9.63 8.54a.639.636 75.544 0 1-.86-.51q-1.51-11.52-6.93-21.39c-3.95-7.18-9.7-9.73-16.89-12.71a.661.657-87.481 0 0-.88.81c3.14 9.78 2.07 23.06-5.72 29.98-4.48 3.98-13.55 3.11-14.36-4.13q-.83-7.42 1-15.18a.471.468-89.163 0 0-.55-.57c-15.31 3.3-29.42 8.72-39.82 20.45-4.27 4.82-6.03 10.82-7.58 16.59a.894.893 17.214 0 1-1.16.61q-10.45-3.65-12.65-14.84-2.4-12.16-.26-19.94c.2-.72.91-2.41.91-2.46a.54.538 64.495 0 0-.87-.31q-4.57 3.79-6.99 6.24-10.51 10.6-10.01 24.68c.26 7.55 3.97 14.03 7.88 20.82a.269.266 78.357 0 1-.26.4q-8.21-.98-12.89-4.43-7.74-5.7-9.59-7.04a.384.381 17.159 0 0-.61.32c.64 13.09.92 24.02 8.4 34.25 6.11 8.36 14.79 8.9 23.71 5.19 8.33-3.46 15.37-9.42 21.99-12.73q21.66-10.8 43.9-1.47 14.11 5.91 23.19 8.76c10.37 3.24 24.55 3.54 34.97-.82q4.29-1.8 14.52-6 19.46-8 39.04-3.19 6.39 1.57 16.33 5.58 9.68 3.91 15.8 6.97 1.07.54 2.25.76l11.04 20.22q-.95-.02-1.42-.27-14.81-7.71-20.63-10.08-30.61-12.46-64.65-1.67-13.73 4.35-14.61 4.58-17.05 4.39-32.94-2.28-5.54-2.32-10.95-5.02c-17.83-8.9-39.07-9.39-55.44 2.53q-6.02 4.37-10.2 6.53c-7.39 3.83-15.49 3.38-24.68 3.03-6.36-.25-9.49.99-14.45 4.81-8.68 6.71-15.24 15.47-17.04 26.2a.67.669-85.264 0 0 .66.78l287.69.05q10.42 10.75 13.75 13.75c28.72 25.8 64.7 42.67 103.05 46.53 40.88 4.12 80.76-4.27 115.45-26.5q18.89-12.09 28.59-21.9 6.54-6.61 12.32-12.36l415.94.34a.35.35-45 0 0 .35-.35v-62.83a.572.571 69.296 0 0-.95-.43q-6.35 5.53-12.96 10.84c-10.47 8.42-25.5 15.11-38.68 10.8q-9.83-3.22-12.1-3.69-15.31-3.15-31.84 2.03-4.04 1.27-14.43 6.5c-9.85 4.96-24.16 4.5-34.17.24q-4.67-1.99-15.82-7.38-8.16-3.94-19.27-3.48c-9.86.42-19.36 5.58-28.54 10.97a8.39 8.024-68.079 0 1-1.48.67q-11.02 3.71-22.33.14c-5.81-1.84-11.45-5.71-16.77-8.21-11.22-5.25-25.65-4.16-36.14 1.85q-.37.21-10.49 6.2c-12.42 7.34-29.16 6.49-41.46.55-4.14-2-8.04-4.59-12.6-5.71q-8.18-2.01-15.21-.9-14.66 2.33-28.8 11.04l12.82-26.27q2.45-.81 7.57-2.82 5.42-2.14 12.43-3.13 7.86-1.12 15.38 3.19 5.38 3.07 14.67 8.02c10.81 5.76 23.41 4.01 33.61-2.53q2.05-1.31 7.7-5.28c11.23-7.9 26.29-7.35 38.8-1q2.19 1.11 11.31 6.87c10.65 6.71 25.76 6.48 35.93-.8q.52-.37 8.29-6.22c7.5-5.65 16.26-6.18 25.43-5.25q5.1.51 9.43 2.47c3.42 1.54 7.28 5.04 10.39 6.89 4.31 2.55 8.79 4 13.91 4.44q19.86 1.72 35.56-7.18 7.22-4.1 9.03-4.46 6.4-1.31 11.08-.91c6.08.51 9.53 1.79 16.85 4.01 15.66 4.75 27.63-.43 40.46-9.49 5.78-4.09 12.6-7.17 18.67-9.49a.623.612-13.515 0 0 .4-.64q-1.25-12.37-9.68-20.91l-20.07-269.23a.602.601 88.208 0 1 .6-.64c3.03.01 10.27 1.33 10.27-3.58q.03-31.96-.05-33.97-.15-4.15-4.21-4.37-3.11-.16-8.46-.02a.872.863-2.769 0 1-.89-.8l-4.38-58.18q-.26-.06.24-.28a.405.343-49.731 0 1 .12-.02l5.75.24a.904.903 80.632 0 0 .88-1.23q-1.54-3.91-4.8-7.84-1.72-2.07-3-3.85l-10.54-142.78a.542.535-1.906 0 1 .55-.58q2.21.04 11.54 0c3.36-.02 5.34-1.01 5.38-4.42q.07-6.8-.18-30.89c-.04-4.05-2.66-5.35-6.51-5.22q-1.83.06-13.7 0a1.011 1.006 87.447 0 1-.99-.91q-1.03-10.55-2.33-26.35-.25-3.06-1.33-4.76a3.71 3.703 73.94 0 0-3.14-1.74l-65.18-.01a1.406 1.398 28.221 0 0-.77.23q-1.78 1.16-1.98 2.92-1.53 13.79-2.91 30.07a.473.472-88.665 0 1-.46.44q-8.89.18-14.2-.03c-3.82-.15-5.6 1.83-5.59 5.5q.02 16.47-.07 29.23c-.02 2.8 1.06 5.61 3.83 5.76q5.26.29 12.03.16a.745.743-88.229 0 1 .75.8zm-466.43 5.9-.16-45.29a1.406 1.401 71.867 0 1 .57-1.13c1.2-.89 6.5-3.65 7.6-6.12a1.62 1.479-34.801 0 0 .15-.66l-.46-232.98a.953.952-17.334 0 0-1.49-.78l-5.56 3.77a.507.505 72.886 0 1-.79-.42v-44.5a2.517 2.502 72.066 0 1 1.03-2.03c5.9-4.28 14.26-9.31 21.5-14.34q11.39-7.93 22.63-14.89c5.81-3.6 12.4.91 15.27 6.08q2.51 4.52 3.7 10.04 3.48 16.13 3.58 32.8.2 33.48.15 66.97-.04 21.12-4.03 41.54-2.37 12.14-8.34 22.18c-4.53 7.63-10.38 11.21-18.43 16.5q-3.3 2.17-9.78 6.41a3.946 3.942-16.748 0 0-1.77 3.29v88.7a.836.833-16.948 0 0 1.3.69l6.75-4.54a.516.513 73.086 0 1 .8.43v44.84a1.353 1.341 72.856 0 1-.58 1.11l-33.22 22.55a.27.267-17.027 0 1-.42-.22m25.16-205.48a.416.412-15.684 0 0 .63.35q1.64-1 11.71-7.25c9.67-6.01 12.03-15.96 12.02-27.15q-.03-51.87-.29-60.19c-.13-4.22-.79-8.92-3.65-11.86a2.256 2.252 52.023 0 0-2.82-.35q-8.06 5.03-16.53 10.8-1.13.77-1.14 3.14-.15 49.45.07 92.51"></path><path fill="#ebbf16" fill-rule="evenodd" d="M240.766 1099.049q.546 0 .723.542 7.461 22.839 15.731 46.389a1.778 1.763-9.342 0 0 1.66 1.18q15.06.03 47.08 0a.872.871-89.065 0 1 .88.91q-.02.45-.65.91-10.43 7.66-37.97 28.61a1.742 1.735 61.516 0 0-.58 1.97c2.8 7.67 4.84 15.33 7.49 22.95q5.23 15.09 7.52 23.21.18.63.12.78a.753.75-61.045 0 1-1.14.33q-21.84-15.79-39.281-28.184-.72-.513-1.543-.512-.822 0-1.543.513-17.43 12.409-39.257 28.216a.753.75 60.998 0 1-1.141-.329q-.06-.15.12-.78 2.283-8.122 7.501-23.216c2.644-7.622 4.677-15.284 7.471-22.956a1.742 1.735-61.563 0 0-.582-1.97q-27.557-20.927-37.993-28.579-.63-.459-.651-.909a.872.871 89.018 0 1 .88-.911q32.02.004 47.08-.038a1.778 1.763 9.295 0 0 1.659-1.182q8.25-23.556 15.692-46.401.177-.543.724-.543"></path><path fill="#0e7c2d" fill-rule="evenodd" d="M677.01 1208.25q-.22-43.06-.07-92.51.01-2.37 1.14-3.14 8.47-5.77 16.53-10.8a2.256 2.252 52.023 0 1 2.82.35c2.86 2.94 3.52 7.64 3.65 11.86q.26 8.32.29 60.19c.01 11.19-2.35 21.14-12.02 27.15q-10.07 6.25-11.71 7.25a.416.412-15.684 0 1-.63-.35"></path><path fill="#fff" fill-rule="evenodd" d="M611.42 1334.43a.339.339-17.114 0 1 .53.28l.36 104.54a1.983 1.981-17.094 0 1-.87 1.64l-65.91 44.74a.174.171-17.112 0 1-.27-.14l-.15-44.82a2.171 2.165 72.881 0 1 .96-1.82l5.92-4.02a2.497 2.494-17.378 0 0 1.09-2.08l-.8-235.25a.743.738-18.823 0 0-1.19-.58l-5.66 4.28a.331.331 71.127 0 1-.53-.26l-.15-44.4a.978.975 73.052 0 1 .43-.81l64.88-43.59a.205.204 72.83 0 1 .32.17l.33 95.02a2.187 2.166-17.208 0 1-.96 1.8l-15.45 10.38a.483.476-17.088 0 1-.75-.39l-.17-49.09a.562.562-16.618 0 0-.87-.47q-13.25 8.84-20.11 13.34-2.65 1.74-2.65 4.85-.07 41.99.52 86.51a.7.7 72.594 0 0 1.09.57l26.86-18.05a.482.482-16.874 0 1 .75.4l.16 45.71a1.547 1.545-17.062 0 1-.68 1.28L571 1322.8a1.559 1.542 72.939 0 0-.67 1.28l.33 96.72a.513.511 72.587 0 0 .8.42l22.52-15.28a2.116 2.104-17.29 0 0 .92-1.74l-.2-58a.788.761-18.06 0 1 .35-.66zm-76.527-171.35.316 92.925a.46.46-68.498 0 1-.201.382l-14.25 9.675a.46.46 12.542 0 1-.718-.38v-47.948a.46.46-42.916 0 0-.717-.382l-11.12 7.481a.46.46 64.793 0 0-.203.382v235.163a.46.46 73.183 0 0 .665.412l6.953-3.451a.46.46-76.209 0 1 .665.41l.166 47.346a.46.46-44.89 0 1-.202.382l-34.272 23.257a.46.46-84.745 0 1-.718-.379l-.156-47.022a.46.46-71.562 0 1 .161-.351l7.896-6.724a.46.46 74.714 0 0 .162-.35v-235.25a.46.46.083 0 0-.718-.38l-10.67 7.245a.46.46-26.325 0 0-.202.381v49.001a.46.46 26.613 0 1-.203.382l-15.324 10.294a.46.46 28.098 0 1-.716-.381l-.326-93.194a.46.46-66.423 0 1 .203-.383l72.812-48.924a.46.46-84.572 0 1 .717.381m-164.273 156v-45.45a1.885 1.86-17.222 0 1 .83-1.55l23.22-15.6a.585.579-21.805 0 1 .9.38l33.23 190.6a.419.413 84.421 0 0 .42.35h.45a.07.06-90 0 0 .06-.07l-.35-213.53a1.759 1.752-17.463 0 1 .77-1.47l21.73-14.75a.404.404 72.591 0 1 .63.33l.14 43.3a2.391 2.374 69.741 0 1-.84 1.84l-4.74 4.04a3.075 3.072 69.809 0 0-1.08 2.34v281.68a1.314 1.312 73.071 0 1-.58 1.09l-16.51 11.21a.377.373 67.991 0 1-.58-.25q-18.12-108.29-25.2-153.3-2.4-15.23-7.51-40.6-.21-1.06-.71-1.68a.364.362 26.114 0 0-.65.22v218.16a2.286 2.265-17.258 0 1-1 1.88l-21.23 14.41a.403.401-17.228 0 1-.63-.33l-.15-43.52a3.043 3.023-18.81 0 1 1.21-2.44l4.56-3.45a3.743 3.723-18.74 0 0 1.49-3l-.8-233.31a.877.876 72.673 0 0-1.37-.72l-5.15 3.49a.361.358 73.013 0 1-.56-.3"></path><path fill="#010101" fill-rule="evenodd" d="m1219.97 1474.67-9.51-8.84-2.06-28.86a.416.412-15.221 0 0-.6-.34l-28.71 14.48q-12.24-2.32-26.04-1.22l-11.59-6.34.15-.67a1.796 1.733-21.362 0 1 .28-.61l10.55-15.33q1.16.38 1.81.39 15.58.21 32.08 0a.261.257 55.558 0 0 .09-.5l-18.65-7.54a1.127 1.101-45.666 0 0-.86.02l-13.36 5.85 11.79-16.91q2.15.64 2.94.29 8.06-3.61 16.07-6.96a.253.248 33.701 0 0-.1-.48l-13.97-.31q-.33-.15.18-1.1 2.09-3.86 4.6-7.97l10.59.26a.164.164-30.549 0 0 .08-.31l-17.22-8.94a2.76 2.75-44.195 0 0-2.48-.03l-18.74 9.28a.28.278-59.045 0 0 .13.53l3.25-.13q.37.38.04.73a.3.3-29.862 0 1-.15.09q-2.53.68-4.98 1.53-13.91 4.83-27.3 13.1l5.89-75.74a.745.743-88.229 0 0-.75-.8q-6.77.13-12.03-.16c-2.77-.15-3.85-2.96-3.83-5.76q.09-12.76.07-29.23c-.01-3.67 1.77-5.65 5.59-5.5q5.31.21 14.2.03a.473.472-88.665 0 0 .46-.44q1.38-16.28 2.91-30.07.2-1.76 1.98-2.92a1.406 1.398 28.221 0 1 .77-.23l65.18.01a3.71 3.703 73.94 0 1 3.14 1.74q1.08 1.7 1.33 4.76 1.3 15.8 2.33 26.35a1.011 1.006 87.447 0 0 .99.91q11.87.06 13.7 0c3.85-.13 6.47 1.17 6.51 5.22q.25 24.09.18 30.89c-.04 3.41-2.02 4.4-5.38 4.42q-9.33.04-11.54 0a.542.535-1.906 0 0-.55.58zm-25.137-208.535a.32.32 89.602 0 0-.319-.295h-55.419a.32.32 38.127 0 0-.319.294l-1.968 24.36a.32.32-11.277 0 0 .319.346h59.297a.32.32 31.318 0 0 .319-.345zm23.407 34.135a.61.61 0 0 0-.61-.61h-100.72a.61.61 0 0 0-.61.61v21.46a.61.61 0 0 0 .61.61h100.72a.61.61 0 0 0 .61-.61zm-36.653 31.82a.35.35-84.59 0 0-.138-.672l-28.55-.05a.35.35-24.384 0 0-.14.672l14.264 6.183a.35.35-32.668 0 0 .278.001zm-25.637 11.121a.31.31 21.567 0 0 .002-.568l-22.523-9.976a.31.31 87.65 0 0-.434.259l-1.644 20.42a.31.31-24.81 0 0 .432.309zm22.01-.187a.34.34 33.748 0 0 .006.62l23.803 10.545a.34.34-8.158 0 0 .477-.337l-1.628-20.834a.34.34-71.54 0 0-.482-.282zm-10.837 4.577a.35.35 11.917 0 0-.284.005l-13.53 6.276a.35.35-88.617 0 0 .147.668h28.215a.35.35 25.311 0 0 .137-.672zm-.95 24.768a.31.31 43.362 0 0 .277.004l17.382-8.344a.31.31 69.653 0 0-.134-.589h-33.458a.31.31 31.994 0 0-.143.585zm-10.103 5.344a.3.3-59.679 0 0 .005-.536l-25.173-13.063a.3.3-64.412 0 0-.437.25l-1.427 26.233a.3.3 70.112 0 0 .433.285zm20.989-.525a.3.3-51.536 0 0 .002.539l27.388 13.294a.3.3 4.957 0 0 .43-.293l-2.024-25.846a.3.3-17.18 0 0-.433-.245zm1.721 36.624a.31.31-63.103 0 0 .005.565l28.47 12.613a.31.31 5.849 0 0 .434-.308l-1.954-24.917a.31.31 68.369 0 0-.44-.257zm-11.951 32.9a.34.34 79.447 0 0 .304.004l20.21-9.704a.34.34-14.922 0 0-.148-.647l-38.643.13a.34.34 50.243 0 0-.156.642z"></path><path fill="#fff" fill-rule="evenodd" d="m1194.833 1266.135 1.91 24.36a.32.32 36.995 0 1-.319.345h-59.297a.32.32 31.854 0 1-.319-.346l1.968-24.36a.32.32 42.554 0 1 .319-.294h55.419a.32.32-52.892 0 1 .319.295M343.25 1339.17a.883.882-16.932 0 0-1.37-.73q-9.89 6.56-20.24 13.69-1.83 1.26-1.81 3.87.13 14.29.37 85.71a.88.877 72.964 0 0 1.37.73l26.35-17.88a.622.619 72.585 0 1 .97.51l.25 45.36a2.034 1.944 62.666 0 1-.32 1.09q-.6.94-2.9 2.41-10.74 6.87-24.42 16.21a2.954 2.946-17.296 0 0-1.28 2.43l.34 96.02a.57.567-17.789 0 0 .9.46l22.26-15.64a3.492 3.485-17.774 0 0 1.48-2.87l-.19-57.4a1.047 1.039 72.847 0 1 .45-.86l15.99-10.86a.339.339-17.114 0 1 .53.28v106a1.72 1.713 72.957 0 1-.75 1.42l-64.45 43.75a.339.339-17.114 0 1-.53-.28l-.16-45.26a1.447 1.438 72.509 0 1 .61-1.18l5.09-3.58a3.225 3.21-17.802 0 0 1.37-2.65l-.81-233.87a.801.8 69.751 0 0-1.32-.61l-4.54 3.87a.681.678-20.402 0 1-1.12-.51l-.15-44.29a1.11 1.081-17.681 0 1 .48-.9l64.19-43.57a.37.367-17.424 0 1 .58.3v94a2.754 2.746-17.219 0 1-1.2 2.27l-15.23 10.33a.403.401-17.228 0 1-.63-.33zm874.99-17.44a.61.61 0 0 1-.61.61h-100.72a.61.61 0 0 1-.61-.61v-21.46a.61.61 0 0 1 .61-.61h100.72a.61.61 0 0 1 .61.61zm-966.17 361.44-.16-45.3a2.3 2.3 16.007 0 1 .92-1.84c2.63-1.98 6.05-3.77 6.19-7.27q.13-2.9.12-3.97-.77-158.88-.37-228.13a.916.911 73.315 0 0-1.42-.77l-4.83 3.24a.528.524 72.973 0 1-.82-.44v-44.21a2.68 2.658 73.233 0 1 1.18-2.22l31.18-20.95a.457.455 73.037 0 1 .71.38v43.4a3.128 3.101 70.054 0 1-1.1 2.38l-5.28 4.5a3.833 3.803 69.953 0 0-1.34 2.91v232.48a.96.957 73.126 0 0 1.49.8l5.35-3.6a.879.872 72.973 0 1 1.36.73l.16 45.53a.412.403 73.476 0 1-.18.34l-32.38 22.42a.498.497 72.68 0 1-.78-.41m929.517-351.08-14.286 6.134a.35.35-3.726 0 1-.278-.001l-14.264-6.183a.35.35 5.887 0 1 .14-.672l28.55.05a.35.35-21.788 0 1 .138.672m-25.637 11.121-24.167 10.444a.31.31 28.462 0 1-.432-.309l1.644-20.42a.31.31-45.311 0 1 .434-.259l22.523 9.976a.31.31 77.813 0 1-.002.568m22.01-.187 22.176-10.288a.34.34-74.939 0 1 .482.282l1.628 20.834a.34.34 44.148 0 1-.477.337l-23.803-10.545a.34.34 32.77 0 1-.006-.62"></path><path fill="#0e7c2d" fill-rule="evenodd" d="M1104.05 1422.2q-9.26 13.22-14.52 28.51-2.99 8.7-6.65 21.46-.71 2.51-1.48 3.63a.982.974-44.066 0 1-1.63-.02q-.97-1.51-1.63-2.88-11.36-23.29-20.17-44.86-2.27-5.56-3.04-9.14.29-3.2.6-6.19c.96-9.5 5-19.49 9.73-27.68q15.3-26.49 42.79-40.67a.384.382-12.059 0 1 .56.36z"></path><path fill="#fff" fill-rule="evenodd" d="m1167.123 1347.601 14.685 6.277a.35.35-86.143 0 1-.137.672h-28.215a.35.35-22.217 0 1-.147-.668l13.53-6.276a.35.35 3.228 0 1 .284-.005m-.95 24.768-16.076-8.344a.31.31-83.472 0 1 .143-.585h33.458a.31.31 74.939 0 1 .134.589l-17.382 8.344a.31.31 86.267 0 1-.277-.004m-10.103 5.344-26.599 13.169a.3.3-68.771 0 1-.433-.285l1.427-26.233a.3.3-40.321 0 1 .437-.25l25.173 13.063a.3.3 83.298 0 1-.005.536m20.989-.525 25.363-12.551a.3.3 21.275 0 1 .433.245l2.024 25.846a.3.3 45.416 0 1-.43.293l-27.388-13.294a.3.3-14.848 0 1-.002-.539"></path><path fill="#4da031" fill-rule="evenodd" d="M1054.93 1418.9q.77 3.58 3.04 9.14 8.81 21.57 20.17 44.86.66 1.37 1.63 2.88a.982.974-44.066 0 0 1.63.02q.77-1.12 1.48-3.63 3.66-12.76 6.65-21.46 5.26-15.29 14.52-28.51 6.7-8.38 14.23-14.37 13.39-8.27 27.3-13.1 2.45-.85 4.98-1.53a.3.3 53.881 0 0 .15-.09q.33-.35-.04-.73 12.15-1.92 24.39-.66-2.51 4.11-4.6 7.97-.51.95-.18 1.1l-4.94 7.46-11.79 16.91q-1.13.47-1.11 1.78l-10.55 15.33a1.796 1.733-21.362 0 0-.28.61l-.15.67-7.03 9.18q-3.92 1.56-8.24 3.45-16.72 7.31-29.41 20.69a.659.656-67.646 0 0 .46 1.11q7.17.18 16.26-.15c17.29-.62 33.41 5.05 48.6 13.03a2.058 2.001-29.86 0 0 .9.23l3.08.04q-1.88-.07-2.06.83a.399.39-69.304 0 0 .18.41l7.7 4.78 8.35 9.1 3.79 4.85q1.76 3.79 4.3 7.3.13.18.75.29-.45-.01-.4.64a.8.8 30.691 0 0 .1.3q2.8 4.49 3.65 6.94 1.12 3.21 2.32 5.77 2.91 6.23 3.23 12.11-4.2-.51-9.1-2.12-14.9-4.89-27.13-10.01c-.39-.16-.7-.08-1.11-.23l-.01-.28a.439.42-80.965 0 0-.27-.39l-10.25-4.01-30.17-12.69-8.69-3.54-9.64-3.73a.385.383-86.894 0 0-.51.46q1.01 3.73 2.82 7.38 1 2 6.51 7.6 1.74 2.57 3.59 5.42 1 1.55 2.33 4.4.99 2.12 2.36 4.41l1.47 5.29 2.74 12.99q.53 11.86.57 23.68.01.26.12.39.13.15.34.22-1.53.56-.51.28l-20.94.99q1.86-8.5-1.12-18.39-2.79-9.26-5.27-14.44-7.25-10.96-15.9-18.6-2.7-2.39-6.99-4.71a.91.891 44.403 0 0-.87 0q-.5.29-.08-.09-3.6-.54-6.46-1.82c-7.72-3.44-13.79-7.13-17.27-14.75a.973.972 61.79 0 0-1.39-.42l-11.45 7.04q-1.64 1.25-3.35 2.48-1.74 1.24-3.55 2.13-36.87 17.95-45.73 22.18-3.32 1.58-7.92 3.27a.44.435 75.062 0 1-.58-.34c-4.49-25.48 8.52-50.01 32.81-59.39q8.28 2.38 16.85 4.56c7.33 1.87 14.56 2.29 21.36 3.41a1.498 1.496 16.177 0 0 1.62-.89l3.4-7.97a1.137 1.134 32.917 0 0-.28-1.3q-17.09-15.38-27.37-35.79-3.87-8.98-5.06-15.36c-4.02-21.68 1.73-46.99 14.47-65.06a.728.728-40.421 0 1 1.25.1q3.46 7.06 6.84 15.43 7.28 18.04 14.46 36.66"></path><path fill="#fff" fill-rule="evenodd" d="m167.16 1739.95-.14-42.77a1.306 1.295-17.798 0 1 .55-1.06l5.14-3.61a2.994 2.977 72.479 0 0 1.26-2.44V1453.7a.805.8 73 0 0-1.25-.67l-5.4 3.62a.382.378 73.127 0 1-.59-.32v-44.89a1.353 1.341 72.856 0 1 .58-1.11q21.74-14.59 39.78-26.75c9.02-6.07 15.91-3.37 19.78 6.31 6 15.01 6.28 29.73 6.61 48.12q.47 25.12.27 44.75-.22 21.91-4.05 35.7c-1.74 6.26-3.37 10.54-6.35 15.7a.489.486-58.832 0 0 .16.66q9.74 6.18 10.95 18.24.87 8.63.97 23.19.19 27.21.15 69.21a.801.796 76.889 0 0 1.15.72l3.98-1.97a.779.777 76.948 0 1 1.12.7v44.18a2.03 2.03-19.018 0 1-.78 1.6q-10.99 8.44-21.78 15a.883.881-17.005 0 1-1.34-.71q-.34-6.94-.35-13.68-.01-25.15-.28-98.88c-.02-6.73.84-16.27-4.92-20.75q-1.58-1.23-3.6.1-6.86 4.52-15.67 11.67a3.468 3.443-19.678 0 0-1.28 2.68v137.22a2.077 2.048 73.162 0 1-.9 1.71l-22.88 15.37a.572.572 72.82 0 1-.89-.47m24.49-204.15a.624.623 73.411 0 0 .96.52q3.89-2.53 11.68-7.82 6.25-4.24 8.44-11.24 3.33-10.66 4-26.48.07-1.62-.33-42.17c-.08-7.86-.06-13.82-4.25-19.59q-1.57-2.17-3.97-.59-5.05 3.32-14.27 9.68c-1.14.79-2.57 1.57-2.57 3.04q-.1 49.68.31 94.65m983.41-144.08q-12.24-1.26-24.39.66l-3.25.13a.28.278-59.045 0 1-.13-.53l18.74-9.28a2.76 2.75-44.195 0 1 2.48.03l17.22 8.94a.164.164-30.549 0 1-.08.31zm-9.72 16.53 4.94-7.46 13.97.31a.253.248 33.701 0 1 .1.48q-8.01 3.35-16.07 6.96-.79.35-2.94-.29m13.44 5.562 26.515-12.304a.31.31-70.84 0 1 .44.257l1.954 24.917a.31.31 38.65 0 1-.434.308l-28.47-12.613a.31.31-11.071 0 1-.005-.565"></path><path fill="#0e7c2d" fill-rule="evenodd" d="M1022.97 1447.13q10.28 20.41 27.37 35.79a1.137 1.134 32.917 0 1 .28 1.3l-3.4 7.97a1.498 1.496 16.177 0 1-1.62.89c-6.8-1.12-14.03-1.54-21.36-3.41q-8.57-2.18-16.85-4.56-26.72-14.31-30.24-43.1c-1.07-8.73.19-17.96 1.81-26.86a.481.478-66.351 0 1 .76-.3z"></path><path fill="#fff" fill-rule="evenodd" d="M1152.44 1426.94q-.02-1.31 1.11-1.78l13.36-5.85a1.127 1.101-45.666 0 1 .86-.02l18.65 7.54a.261.257 55.558 0 1-.09.5q-16.5.21-32.08 0-.65-.01-1.81-.39M105.73 1775.51c-7.14-3.03-10.24-18.23-11.01-26q-1.15-11.59-1.16-21.01-.15-164.19-.32-207-.09-25.19 4.32-48.64 1.23-6.55 4.67-14.88c3.64-8.83 8.58-14.22 16.83-20.3q5.31-3.91 18.43-11.45 2.28-1.31 6.12-.39c5.04 1.21 8.28 7.43 9.34 12.19q4.93 22.13 4.92 45.28-.06 99.57.08 195.34c.04 22.05-.76 39.62-6.03 58.75-2.05 7.48-5.57 15.8-11.77 21.17q-.68.59-9.2 6.38-12.29 8.35-14.4 9.58-5.53 3.22-10.82.98m5.888-174.76q.073 94.489.175 112.004c.027 4.306 1.087 11.986 6.557 12.286a2.655 2.597 35.142 0 0 1.17-.19c6.16-2.52 13.12-7.48 15.92-13.49 3.76-8.07 4.09-19.14 3.961-27.86q-.13-9.115-.187-82.894-.074-94.489-.176-112.004c-.027-4.306-1.087-11.986-6.557-12.286a2.655 2.597 35.142 0 0-1.17.19c-6.16 2.52-13.12 7.48-15.92 13.49-3.76 8.07-4.09 19.14-3.961 27.86q.13 9.114.188 82.894"></path><path fill="#0e7c2d" fill-rule="evenodd" d="M191.65 1535.8q-.41-44.97-.31-94.65c0-1.47 1.43-2.25 2.57-3.04q9.22-6.36 14.27-9.68 2.4-1.58 3.97.59c4.19 5.77 4.17 11.73 4.25 19.59q.4 40.55.33 42.17-.67 15.82-4 26.48-2.19 7-8.44 11.24-7.79 5.29-11.68 7.82a.624.623 73.411 0 1-.96-.52"></path><path fill="#fff" fill-rule="evenodd" d="m1166.829 1446.712-18.433-9.575a.34.34-83.215 0 1 .156-.642l38.643-.13a.34.34-17.66 0 1 .148.647l-20.21 9.704a.34.34-13.586 0 1-.304-.004m43.631 19.118q-3.29-2.75-6.59-4.7-11.14-6.61-24.78-10.02l28.71-14.48a.416.412-15.221 0 1 .6.34zm-57.41-15.94q-9.28.65-18.62 2.84l7.03-9.18z"></path><path fill="#0e7c2d" fill-rule="evenodd" d="M1179.09 1451.11q13.64 3.41 24.78 10.02 3.3 1.95 6.59 4.7l9.51 8.84q1.28 1.78 3 3.85 3.26 3.93 4.8 7.84a.904.903 80.632 0 1-.88 1.23l-5.75-.24a.405.343-49.731 0 0-.12.02q-.5.22-.24.28l-8.85.67-21.9 1.5-19.8.47a.513.443 30.779 0 0-.17.03q-.99.27-.5.62l-3.48.19-3.08-.04a2.058 2.001-29.86 0 1-.9-.23c-15.19-7.98-31.31-13.65-48.6-13.03q-9.09.33-16.26.15a.659.656-67.646 0 1-.46-1.11q12.69-13.38 29.41-20.69 4.32-1.89 8.24-3.45 9.34-2.19 18.62-2.84 13.8-1.1 26.04 1.22M111.618 1600.75q-.058-73.78-.188-82.894c-.129-8.72.201-19.79 3.961-27.86 2.8-6.01 9.76-10.97 15.92-13.49a2.655 2.597 35.142 0 1 1.17-.19c5.47.3 6.53 7.98 6.557 12.286q.102 17.515.176 112.004.057 73.779.187 82.894c.129 8.72-.201 19.79-3.961 27.86-2.8 6.01-9.76 10.97-15.92 13.49a2.655 2.597 35.142 0 1-1.17.19c-5.47-.3-6.53-7.98-6.557-12.286q-.102-17.515-.175-112.004"></path><path fill="#010101" fill-rule="evenodd" d="m1220.78 1487.65 4.38 58.18a.872.863-2.769 0 0 .89.8q5.35-.14 8.46.02 4.06.22 4.21 4.37.08 2.01.05 33.97c0 4.91-7.24 3.59-10.27 3.58a.602.601 88.208 0 0-.6.64l20.07 269.23q-4.38-3.82-9.92-4.5l-.51-13.09a.794.779-83.92 0 0-.57-.72q-33.96-9.77-67.95-18.66-2.27-.6-4.1-.11-20.25 5.43-40.48 10.86-.29.03-.27-.47.16-4.56-1.3-7.81-.19-.89.2-1.35 1.11.37 1.92.13 11.43-3.27 23.54-6.1a.623.619-44.708 0 0 .01-1.21q-12.14-2.88-26.52-6.5-.4-.1-.76-.61l-2.54-21.49 37.3-18.16a.233.233 0 0 0 0-.42l-41.23-19.82q-.59-6.7-1.31-13.41-.14-1.25-.77-2.5l.4-.62 42.86-20.9a.288.288-52.652 0 0 0-.52l-44.81-21.33.26-5.41.09-6.34q2.54-.38 3.87-.99 19.78-9.06 39.59-17.77a.328.328 35.806 0 0 0-.6l-41.31-18 1.66-11.13 40.74-19.17a.276.276 0 0 0 0-.5l-32.43-15.65-.18-13.6q-1.02.28.51-.28l105.47.06a.43.43 81.842 0 0 .43-.43l-.08-23.34a.51.51 45 0 0-.51-.51l-106.34-.07-2.74-12.99c2.29-.99 4.5-1.69 6.58-2.84q10.9-6.02 23.35-12.16l10.25 4.01a.439.42-80.965 0 1 .27.39l.01.28-27.92 13.45a.443.437 46.88 0 0-.02.78q.04.02.31.02 45.36.03 66.54.17a.396.396-20.585 0 0 .3-.66q-.68-.78-1.87-1.4-.32-5.88-3.23-12.11 10.31 7.01 20.84 12.36a.326.326-79.204 0 0 .47-.32l-2.9-37.04a.543.538 74.157 0 0-.78-.44l-23.3 11.79q-.62-.11-.75-.29-2.54-3.51-4.3-7.3l9.59-4.49a.332.33 31.721 0 0-.15-.63l-13.23.27-8.35-9.1 11.16.04a.318.316 56.273 0 0 .12-.61l-13.62-5.64q-.49-.35.5-.62a.513.443 30.779 0 1 .17-.03l19.8-.47q10.97 4.72 22 7.77a.38.374 6.172 0 0 .48-.38l-.58-8.89zm-53.345 117.008q.178 0 .338-.072 15.097-6.886 33.177-15.696a.16.158-57.479 0 0-.065-.303q-9.618-.001-33.464.02-23.846.02-33.464.038a.16.158 57.38 0 0-.065.303q18.096 8.779 33.205 15.638.159.073.338.072m11.027 4.407a.31.31-50.531 0 0-.004.56l43.025 20.889a.31.31-63.328 0 0 .445-.303l-3.093-39.416a.31.31 77.029 0 0-.44-.257zm-11.19 21.212q13.355.013 33.726.094a.302.3-34.252 0 0 .112-.581q-4.32-1.64-6.34-2.6-13.56-6.49-27.085-12.674-.149-.068-.398-.069-.248 0-.398.068-13.537 6.157-27.109 12.62-2.022.956-6.346 2.588a.302.3 34.365 0 0 .112.581q20.37-.04 33.726-.027m11.366 27.699a.39.39-59.987 0 0-.003.715l46.427 20.574a.39.39-16.76 0 0 .547-.387l-3.086-39.314a.39.39-1.325 0 0-.544-.327zm19.287-18.085a.31.31 3.416 0 0-.123-.594h-62.884a.31.31 32.424 0 0-.123.594l31.442 13.642a.3.3-26.908 0 0 .246 0zm-65.855 38.889h70.33a.11.108 56.322 0 0 .04-.21l-34.91-14.92a1.98 1.968-45.181 0 0-1.58.01l-33.97 14.68a.23.229-56.616 0 0 .09.44m34.69 27.117a.3.3 82.535 0 0 .261 0l36.841-17.687a.3.3 21.565 0 0-.13-.57h-73.277a.3.3-57.034 0 0-.131.57zm10.941 4.36a.33.33 6.24 0 0-.006.597l51.667 25.075a.33.33-43.721 0 0 .473-.323l-3.708-47.332a.33.33 10.481 0 0-.468-.274zm-49.71 24.029a.33.33-81.832 0 0 .144.627h77.39a.33.33 33.393 0 0 .144-.627l-38.695-18.783a.33.33 38.062 0 0-.288 0zm38.727 29.46a.35.35-40.593 0 0 .304.001l40.482-19.431a.35.35-16.114 0 0-.152-.666h-80.51a.35.35-62.614 0 0-.152.665zm11.202 4.462a.34.34-75.916 0 0-.005.615l56.001 27.178a.34.34 40.706 0 0 .488-.333l-4.026-51.29a.34.34.555 0 0-.482-.282zm34.48 27.802a.254.249 58.442 0 0 .11-.48l-44.61-21.65a3.029 3.018 44.266 0 0-2.72.03q-14.98 7.71-30.64 15.14-8.1 3.84-12.77 5.71a.516.512 33.814 0 0 .2.99q26.89-.16 68.78-.16 9.24 0 21.65.42m-18.16 8.44h-52.38a.175.172-37.049 0 0-.05.34q13.05 3.54 22.11 6.08 3.18.89 6.7 0 23.3-5.92 23.67-6.01a.208.208 38.096 0 0-.05-.41m-8.593 11.359a.34.34 19.835 0 0-.014.658l50.917 14.39a.34.34-28.682 0 0 .432-.353l-2.031-25.919a.34.34 56.998 0 0-.417-.304z" data-source="https://football-logos.cc"></path><path fill="#fff" fill-rule="evenodd" d="m1211.93 1488.32.58 8.89a.38.374 6.172 0 1-.48.38q-11.03-3.05-22-7.77zm-42.37 2.62 13.62 5.64a.318.316 56.273 0 1-.12.61l-11.16-.04-7.7-4.78a.399.39-69.304 0 1-.18-.41q.18-.9 2.06-.83zm14.48 20.16-3.79-4.85 13.23-.27a.332.33 31.721 0 1 .15.63zm10.72 21.24q-1.2-2.56-2.32-5.77-.85-2.45-3.65-6.94a.8.8 69.081 0 1-.1-.3q-.05-.65.4-.64l23.3-11.79a.543.538 74.157 0 1 .78.44l2.9 37.04a.326.326-79.204 0 1-.47.32q-10.53-5.35-20.84-12.36"></path><path fill="#0e7c2d" fill-rule="evenodd" d="m1072.28 1524.73-36.07 64.81a.638.637 42.836 0 1-1.09.04c-7.14-10.85-11.51-21.08-12.92-34.15-1.56-14.58 4.14-29.36 13.51-40.65l11.45-7.04a.973.972 61.79 0 1 1.39.42c3.48 7.62 9.55 11.31 17.27 14.75q2.86 1.28 6.46 1.82"></path><path fill="#fff" fill-rule="evenodd" d="m1111.26 1511.18-.82 11.71q-5.51-5.6-6.51-7.6-1.81-3.65-2.82-7.38a.385.383-86.894 0 1 .51-.46z"></path><path fill="#4da031" fill-rule="evenodd" d="m928.21 1611.97.1.38a.793.792-6.387 0 0 .74.59c4.24.12 8.03 3.28 11.28 6.01q.28.22.96.17.18.75.96.68.52-.04 1.16-.55c10.16-8.18 23.93-16.41 36.64-17.71 12.45-1.28 28.17 1.59 38.72 9.25q11.12 8.07 19.2 19.54 1.25 1.78 1.87 3.51a.333.329-11.012 0 1-.3.44q-47.44 1.74-48.63 1.78c-13.68.46-29.6.69-40.56-.69q-.94-.11-1.48.65-.58.82.33 1.78-.5-.17-.62.44c-.9 4.61-1.6 8.82-4.09 12.52q-2.68 3.99-6.97 7.16-2.8 2.2-6.8 3.34-7.32 2.08-15.35.57-6.43-4.02-11.37-9.82a3.25 2.992-82.433 0 1-.4-.57l-3.61-6.64q-.04-1.46-.72-2.83a.705.704 67.831 0 0-.83-.35q-15.25 4.77-29.49 6.62-18.62 2.43-35.35-8.03c-13.51-8.45-21.75-23.06-25.97-38a.39.387-.829 0 1 .47-.48q33.85 8.86 40.41 10.4c14.71 3.47 34.38 9.51 48.21 12.91q1.54.38 4.56.58a.863.852-72.389 0 0 .78-.41q.7-1.12.27-2.3 4.7-5.74 10.83-9.87a.722.722-37.631 0 0 .14-1.08l-10.05-11.13q-2.36-3.61-4.46-7.08c-7.67-12.63-10.21-27.54-7.95-42.19q4.4-28.49 29.77-41.3a.949.945 73.904 0 1 1.37.76q1.28 14.2 1.91 27.73 1.28 27.09 2.71 54.82c.32 6.16.3 11.94.56 17.91a.613.61-9.539 0 0 .79.56z"></path><path fill="#010101" fill-rule="evenodd" d="m1119.95 1514.72-1.23 22.4q-1.37-2.29-2.36-4.41-1.33-2.85-2.33-4.4-1.85-2.85-3.59-5.42l.82-11.71z"></path><path fill="#fff" fill-rule="evenodd" d="M1150.12 1527.41q-12.45 6.14-23.35 12.16c-2.08 1.15-4.29 1.85-6.58 2.84l-1.47-5.29 1.23-22.4zm10.53 4.68c.41.15.72.07 1.11.23q12.23 5.12 27.13 10.01 4.9 1.61 9.1 2.12 1.19.62 1.87 1.4a.396.396-20.585 0 1-.3.66q-21.18-.14-66.54-.17-.27 0-.31-.02a.443.437 46.88 0 1 .02-.78z"></path><path fill="#0e7c2d" fill-rule="evenodd" d="m903.25 1600.83 10.05 11.13a.722.722-37.631 0 1-.14 1.08q-6.13 4.13-10.83 9.87-8.13-1.32-22.13-4.87-12.6-3.19-20.57-10.65-17.32-16.19-18.98-39.78-.95-13.39 3.25-26.01a.489.483 32.127 0 1 .81-.18z"></path><path fill="#010101" fill-rule="evenodd" d="m1102.51 1580.96-2.15 8.34c-2.26-.86-5.11-.94-5.12-4.05q-.1-16.63-.06-33.25 0-2.49.94-3.87 2.48 5.18 5.27 14.44 2.98 9.89 1.12 18.39"></path><path fill="#fff" fill-rule="evenodd" d="M1123.96 1579.69q-.21-.07-.34-.22-.11-.13-.12-.39-.04-11.82-.57-23.68l106.34.07a.51.51 45 0 1 .51.51l.08 23.34a.43.43-64.82 0 1-.43.43z"></path><path fill="#0e7c2d" fill-rule="evenodd" d="M941.29 1619.12q-.68.05-.96-.17c-3.25-2.73-7.04-5.89-11.28-6.01a.793.792-6.387 0 1-.74-.59l-.1-.38q1.2-4.18 2.45-8.39c7.18-24.14 22.59-42.83 48.51-46.91 12.39-1.94 23.9 1.36 34.88 6.7a.669.668 38.989 0 1 .12 1.13q-13.5 10.43-36.81 28.2c-10.58 8.06-22.66 16.22-33.48 23.92q-.72.51-2.59 2.5m182.16-39.15.18 13.6q-2.19 13.11-6.18 25.44l-18.71-3.5a10.082 9.847-38.55 0 0-1.78-.18l-4.4-.07q1.54-4.93 4.04-11.4 2.57-6.64 3.76-14.56l2.15-8.34z"></path><path fill="#fff" fill-rule="evenodd" d="M1167.421 1588.607q23.846-.021 33.464-.02a.16.158-57.479 0 1 .065.303q-18.08 8.81-33.177 15.696-.16.072-.338.072-.179.001-.338-.072-15.109-6.859-33.205-15.638a.16.158 57.38 0 1 .065-.303q9.618-.018 33.464-.038m11.041 20.458 39.933-18.527a.31.31-66.95 0 1 .44.257l3.093 39.416a.31.31-39.63 0 1-.445.303l-43.025-20.889a.31.31-7.832 0 1 .004-.56m-63.142 19.825 2.13-9.88q3.99-12.33 6.18-25.44l32.43 15.65a.276.276 0 0 1 0 .5zm51.967-14.443q.249.001.398.069 13.525 6.184 27.085 12.674 2.02.96 6.34 2.6a.302.3-34.252 0 1-.112.581q-20.371-.081-33.726-.094t-33.726.027a.302.3 34.365 0 1-.112-.581q4.324-1.632 6.346-2.588 13.572-6.463 27.109-12.62.15-.068.398-.068"></path><path fill="#4da031" fill-rule="evenodd" d="m1092.56 1615.26 4.4.07a10.082 9.847-38.55 0 1 1.78.18l18.71 3.5-2.13 9.88-1.66 11.13-1.86 16.64q-11.59.28-22.99-1.73-1.61-.28-3.94-2.28.73-5.73 1.53-12.41 1.59-13.26 6.16-24.98"></path><path fill="#0e7c2d" fill-rule="evenodd" d="m949.2 1637.8 33.66 9.36q-.31 12.97-7.15 23.8-17.31-4.7-26.2-7.72-3.74-1.27-11.99-5.32 4.29-3.17 6.97-7.16c2.49-3.7 3.19-7.91 4.09-12.52q.12-.61.62-.44"></path><path fill="#fff" fill-rule="evenodd" d="m1178.638 1657.976 43.341-18.739a.39.39 24.941 0 1 .544.327l3.086 39.314a.39.39 48.271 0 1-.547.387l-46.427-20.574a.39.39-8.826 0 1 .003-.715m19.287-18.085-31.442 13.642a.3.3-6.437 0 1-.246 0l-31.442-13.642a.31.31-86.552 0 1 .123-.594h62.884a.31.31-18.055 0 1 .123.594m-86.415 37.489.29-20.72 1.86-16.64 41.31 18a.328.328 80.225 0 1 0 .6q-19.81 8.71-39.59 17.77-1.33.61-3.87.99"></path><path fill="#0e7c2d" fill-rule="evenodd" d="m899.99 1644.8 3.61 6.64a3.25 2.992-82.433 0 0 .4.57q4.94 5.8 11.37 9.82-8.52 14.47-22 22.03c-13.23 7.43-30.99 8.4-45.13 4.42q-19.06-5.37-32.07-19.34a.835.834 61.567 0 1 .41-1.38q11.79-2.98 26.03-7.08c17.23-4.95 34.03-9.16 49.76-13.16q2.32-.59 7.62-2.52"></path><path fill="#4da031" fill-rule="evenodd" d="m1027.37 1657.04-10.1 26.52-41.56-12.6q6.84-10.83 7.15-23.8 5.52 2.29 10.01 2.78 13.47 1.48 26.67 4.54 4.26.98 7.83 2.56"></path><path fill="#010101" fill-rule="evenodd" d="M893.51 1835.15q-.87 35.1-12.76 67.51l-12.82 26.27q-3.95 5.46-5.63 8.37-6.85 11.79-16.62 22.44-5.78 5.75-12.32 12.36-9.7 9.81-28.59 21.9c-34.69 22.23-74.57 30.62-115.45 26.5-38.35-3.86-74.33-20.73-103.05-46.53q-3.33-3-13.75-13.75l-21.34-29.19-11.04-20.22-.02-1.11a2.38 2.293-57.962 0 0-.2-.95q-6.65-15.61-10.46-32.11c-1.82-7.86-2.62-17.07-3.67-25.72q-1.95-32.11 6.5-63.86 5.86-22.01 17.05-41.74c5.78-10.19 12.33-20.62 19.88-29.33q13.68-15.79 24.62-24.64 56.44-45.63 129.61-40.46c37.91 2.68 72.07 17.16 101.42 40.74 15.42 12.4 28.57 26.7 39.53 44.14q28.27 44.99 29.11 99.38m-68.45-130.99q-28.4-25.76-65.52-37.4-8.87-2.78-21.53-5.02-3.2-.56-4.42-.12-4.31 1.56-22.26 8.94a.84.84-10.809 0 0-.53.78v44.82a1.1 1.1-65.653 0 0 .44.88q28.93 21.84 55.25 44.06a2.646 2.636-29.614 0 0 2.16.59q27.37-4.76 45.49-8.04 3.29-.59 3.98-1.06a1.485 1.48 76.796 0 0 .63-1.02l6.47-46.95a.532.525 26.193 0 0-.16-.46m-124.03-33.93q-11.8-4.4-24.3-7.59-1.58-.41-3.72.11c-33 7.94-62.96 23.73-86.81 47.99a1.519 1.503-29.25 0 0-.4 1.39l8.97 40.79a1.403 1.397 87.604 0 0 1.18 1.09l48.84 6.56a2.034 2.025 29.423 0 0 1.52-.42q28.92-23.07 52.94-40.9c1.75-1.29 2.15-2.12 2.14-4.25q-.12-25.45.03-44.2a.601.591 11.127 0 0-.39-.57m118.34 91.7q-3 .6-49.08 8.63-2.55.44-3.48 2.53-12.08 27-24.78 53.98a2.224 2.208-50.103 0 0 .19 2.22l45.17 64.26a1.456 1.448 65.973 0 0 1.5.58l39.12-8.6a.961.926-75.417 0 0 .49-.3q5.04-6.02 9.63-13.64 15.98-26.56 19.48-58.23a2.879 2.862-52.957 0 0-.19-1.39q-.81-1.99-2.36-4.13c-11.76-16.34-22.82-31.61-34.89-45.64a.834.832-26.275 0 0-.8-.27m-193.55 132.76q1.76-2.09 3.49-4.64 18.12-26.71 38.54-57.71 2.89-4.38 3.05-5.34a1.989 1.906-54.49 0 0-.17-1.17l-27.38-55.32a2.187 2.18 80.383 0 0-1.67-1.19l-47.35-6.36a3.035 3.028 21.664 0 0-2.86 1.23q-19.71 27.27-31.73 43.56-1.31 1.77-1.97 3.35a2.748 2.736 55.767 0 0-.22 1.17c.75 22.05 4.99 44.34 15.06 63.35q2.88 5.43 6.5 9.65a2.773 2.761-14.934 0 0 1.58.91l44.55 8.72a.624.623 25.057 0 0 .58-.21m255.09-91.07a.294.294 67.392 0 0-.46-.19l-13.33 9.37a1.053 1.029 76.05 0 0-.44.75q-2.92 29.33-15.93 55.2-1.77 3.53-12.1 18.47a1.978 1.954 60.761 0 0-.35 1.27l3.29 41.95a.542.528 9.998 0 0 .31.43l10.2 4.35a.78.776-61.657 0 0 .96-.29q8.43-12.92 11.92-19.99 25.98-52.7 15.93-111.32m-343.76 5.87q-6.86 42.16 6.38 82.25c4.83 14.64 11.77 28.58 20.37 41.36q1.6 2.37 2.67 3.16a1.197 1.176-30.76 0 0 .9.22q2.18-.38 3.13-1.86a1.76 1.736 63.043 0 0 .28-.88l2.18-39.77a2.203 2.163 28.829 0 0-.42-1.4c-16.57-22.23-22.48-48.65-24.02-75.9a1.302 1.301 13.132 0 0-.66-1.06l-10.69-6.17a.081.077 21.09 0 0-.12.05m243.11 90.1a.366.362 42.581 0 0-.02-.41q-23.98-33.79-44.13-62.77-1.31-1.9-3.36-1.88-29.67.22-54.82-.08a.37.36-72.319 0 0-.3.16l-44.41 66.01a.904.888-39.402 0 0-.09.84q1.11 2.69 1.99 3.9 18.97 26.07 33.39 47.05a1.665 1.644-16.917 0 0 1.37.72h72.36a2.852 2.832 18.235 0 0 2.28-1.14q19.05-25.6 35.74-52.4m3.65 94.8a.619.618-13.992 0 0 .95.57q2.91-1.85 10.76-6.35c19.97-11.45 36.57-27.02 50.91-45.11a.285.28 31.176 0 0-.11-.43l-6.15-2.72a.52.512 37.308 0 0-.55.07l-55.89 47.61a1.565 1.557 60.282 0 0-.46 1.7q.73 2.13.54 4.66m-155.53-4.34-.04-.26a6.123 6.107-76.144 0 0-2.41-4q-7.21-5.38-12.66-10.06c-14.44-12.38-29.04-24-35.76-29.39q-2.13-1.71-4.3-2.17a.708.707-12.683 0 0-.71 1.12c14.6 19.26 33.26 34.16 54.01 46.04a1.26 1.258 10.569 0 0 1.87-1.28m8.18-1.01 1.21 6.96a1.622 1.62 6.964 0 0 .94 1.2q10.44 4.67 20.97 8.02c17.22 5.47 34.86 7.15 53.83 6.99q30.94-.25 59.91-12.15a1.818 1.803-8.78 0 0 1.13-1.53l.5-6.21a2.42 2.4-67.538 0 0-.82-2q-15.8-13.61-30.2-26.68c-1.31-1.19-2.58-1.65-4.28-1.64q-37.29.11-68.7.04a4.449 4.446 24.295 0 0-2.94 1.11q-14.99 13.22-31.3 25.27a.629.625 67.133 0 0-.25.62"></path><path fill="#0e7c2d" fill-rule="evenodd" d="m1111.8 1656.66-.29 20.72-.09 6.34-.05-.56a.684.682 85.161 0 0-.72-.61q-14.21.96-28.31-1.37c.17-9.28.32-19.41 2.53-28.53q2.33 2 3.94 2.28 11.4 2.01 22.99 1.73m-84.43.38c12.86 5.8 23.66 14.92 33.69 24.56q-1.82.83-2.57 2.95-1.22 3.5-1.37 3.77-4.43 8.08-11.31 14.46-5.19-3.52-10.81-7.77-8.38-6.35-17.73-11.45z"></path><path fill="#fff" fill-rule="evenodd" d="M825.06 1704.16a.532.525 26.193 0 1 .16.46l-6.47 46.95a1.485 1.48 76.796 0 1-.63 1.02q-.69.47-3.98 1.06-18.12 3.28-45.49 8.04a2.646 2.636-29.614 0 1-2.16-.59q-26.32-22.22-55.25-44.06a1.1 1.1-32.05 0 1-.44-.88v-44.82a.84.84-10.809 0 1 .53-.78q17.95-7.38 22.26-8.94 1.22-.44 4.42.12 12.66 2.24 21.53 5.02 37.12 11.64 65.52 37.4m-124.03-33.93a.601.591 11.127 0 1 .39.57q-.15 18.75-.03 44.2c.01 2.13-.39 2.96-2.14 4.25q-24.02 17.83-52.94 40.9a2.034 2.025 29.423 0 1-1.52.42l-48.84-6.56a1.403 1.397 87.604 0 1-1.18-1.09l-8.97-40.79a1.519 1.503-29.25 0 1 .4-1.39c23.85-24.26 53.81-40.05 86.81-47.99q2.14-.52 3.72-.11 12.5 3.19 24.3 7.59m431.04 8.55a.23.229-56.616 0 1-.09-.44l33.97-14.68a1.98 1.968-45.181 0 1 1.58-.01l34.91 14.92a.11.108 56.322 0 1-.04.21z"></path><path fill="#4da031" fill-rule="evenodd" d="m1111.42 1683.72-.26 5.41 1.95 42.75-.4.62c-10.94 2.32-19.07-.31-29.15-1.95a1.252 1.245-81.392 0 0-1.43 1.06l-.98 6.75q-17.43-19.23-35.34-35.58 6.88-6.38 11.31-14.46.15-.27 1.37-3.77.75-2.12 2.57-2.95l20.68 17.46a.389.388 19.822 0 0 .64-.3l-.04-17.58q14.1 2.33 28.31 1.37a.684.682 85.161 0 1 .72.61z"></path><path fill="#fff" fill-rule="evenodd" d="m1166.76 1705.897-36.436-17.687a.3.3 4.299 0 1 .131-.57h73.277a.3.3 74.289 0 1 .13.57l-36.841 17.687a.3.3 83.116 0 1-.261 0m10.941 4.36 47.958-22.257a.33.33 21.699 0 1 .468.274l3.708 47.332a.33.33-40.222 0 1-.473.323l-51.667-25.075a.33.33 85.511 0 1 .006-.597m-66.541-21.127 44.81 21.33a.288.288-9.867 0 1 0 .52l-42.86 20.9zm16.831 45.156 38.695-18.783a.33.33 88.802 0 1 .288 0l38.695 18.783a.33.33-85.74 0 1-.144.627h-77.39a.33.33-18.956 0 1-.144-.627"></path><path fill="#0e7c2d" fill-rule="evenodd" d="M1112.71 1732.5q.63 1.25.77 2.5.72 6.71 1.31 13.41l3.07 28.28-.23 1.64a.672.669 10.554 0 1-.82.56l-.51-.12a1.364 1.351 36.75 0 0-1 .14c-2.99 1.66-5.13 1.85-9.26 2.67q-2.89.57-6.5.63-7.92.11-16.06-.24l-2.33-43.61.98-6.75a1.252 1.245-81.392 0 1 1.43-1.06c10.08 1.64 18.21 4.27 29.15 1.95"></path><path fill="#fff" fill-rule="evenodd" d="m1166.718 1763.746-40.028-19.431a.35.35 4.816 0 1 .152-.665h80.51a.35.35 69.063 0 1 .152.666l-40.482 19.431a.35.35-8.573 0 1-.304-.001m11.202 4.462 51.976-24.112a.34.34 24.938 0 1 .482.282l4.026 51.29a.34.34 45.544 0 1-.488.333l-56.001-27.178a.34.34-11.959 0 1 .005-.615m-63.13-19.798 41.23 19.82a.233.233 0 0 1 0 .42l-37.3 18.16-.86-10.12zm-295.42 13.52a.834.832-26.275 0 1 .8.27c12.07 14.03 23.13 29.3 34.89 45.64q1.55 2.14 2.36 4.13a2.879 2.862-52.957 0 1 .19 1.39q-3.5 31.67-19.48 58.23-4.59 7.62-9.63 13.64a.961.926-75.417 0 1-.49.3l-39.12 8.6a1.456 1.448 65.973 0 1-1.5-.58l-45.17-64.26a2.224 2.208-50.103 0 1-.19-2.22q12.7-26.98 24.78-53.98.93-2.09 3.48-2.53 46.08-8.03 49.08-8.63m-193.55 132.76a.624.623 25.057 0 1-.58.21l-44.55-8.72a2.773 2.761-14.934 0 1-1.58-.91q-3.62-4.22-6.5-9.65c-10.07-19.01-14.31-41.3-15.06-63.35a2.748 2.736 55.767 0 1 .22-1.17q.66-1.58 1.97-3.35 12.02-16.29 31.73-43.56a3.035 3.028 21.664 0 1 2.86-1.23l47.35 6.36a2.187 2.18 80.383 0 1 1.67 1.19l27.38 55.32a1.989 1.906-54.49 0 1 .17 1.17q-.16.96-3.05 5.34-20.42 31-38.54 57.71-1.73 2.55-3.49 4.64m586.58-98.68q-12.41-.42-21.65-.42-41.89 0-68.78.16a.516.512 33.814 0 1-.2-.99q4.67-1.87 12.77-5.71 15.66-7.43 30.64-15.14a3.029 3.018 44.266 0 1 2.72-.03l44.61 21.65a.254.249 58.442 0 1-.11.48"></path><path fill="#4da031" fill-rule="evenodd" d="m1118.72 1786.81 2.54 21.49q-.12.02-.26.05a.133.123 82.672 0 0-.1.14l2.17 14.1q-.39.46-.2 1.35-18.28 1.29-36.44-.9.42-12.09-1.2-25.78-.85-7.23-1.75-15.29 8.14.35 16.06.24 3.61-.06 6.5-.63c4.13-.82 6.27-1.01 9.26-2.67a1.364 1.351 36.75 0 1 1-.14l.51.12a.672.669 10.554 0 0 .82-.56l.23-1.64z"></path><path fill="#fff" fill-rule="evenodd" d="M880.91 1803.62q10.05 58.62-15.93 111.32-3.49 7.07-11.92 19.99a.78.776-61.657 0 1-.96.29l-10.2-4.35a.542.528 9.998 0 1-.31-.43l-3.29-41.95a1.978 1.954 60.761 0 1 .35-1.27q10.33-14.94 12.1-18.47 13.01-25.87 15.93-55.2a1.053 1.029 76.05 0 1 .44-.75l13.33-9.37a.294.294 67.392 0 1 .46.19m313.33.83a.208.208 38.096 0 1 .05.41q-.37.09-23.67 6.01-3.52.89-6.7 0-9.06-2.54-22.11-6.08a.175.172-37.049 0 1 .05-.34zm-8.593 11.359 48.887-11.528a.34.34 66.895 0 1 .417.304l2.031 25.919a.34.34 14.118 0 1-.432.353l-50.917-14.39a.34.34 84.476 0 1 .014-.658m-64.387-7.509q.36.51.76.61 14.38 3.62 26.52 6.5a.623.619-44.708 0 1-.01 1.21q-12.11 2.83-23.54 6.1-.81.24-1.92-.13l-2.17-14.1a.133.123 82.672 0 1 .1-.14q.14-.03.26-.05m-584.11 1.19a.081.077 21.09 0 1 .12-.05l10.69 6.17a1.302 1.301 13.132 0 1 .66 1.06c1.54 27.25 7.45 53.67 24.02 75.9a2.203 2.163 28.829 0 1 .42 1.4l-2.18 39.77a1.76 1.736 63.043 0 1-.28.88q-.95 1.48-3.13 1.86a1.197 1.176-30.76 0 1-.9-.22q-1.07-.79-2.67-3.16c-8.6-12.78-15.54-26.72-20.37-41.36q-13.24-40.09-6.38-82.25m700.9 44.45c-7.65 4.84-15.72 10.43-22.82 9.99-7.52-.46-13.47-10.21-16.25-16.34-.87-1.94-2.49-4.62-3.4-5.98a.582.58-44.295 0 0-.96-.01c-2.47 3.52-4.21 5.69-5.53 8.72q-2.13 4.85-3.9 8.63-2.94 6.24-9.93 5.67c-12.05-1-18.15-9.1-18.27-20.73q-.08-7.87.65-14.55a1.369 1.367-2.353 0 0-1.62-1.49q-7.88 1.53-13.45 6.21-10.35 8.69-13.48 20.64-.91 3.48-1.69 6.78-.39 1.66-1.03.96-.42-14.83-2.34-28.94-.09-.68.41-1.28 20.23-5.43 40.48-10.86 1.83-.49 4.1.11 33.99 8.89 67.95 18.66a.794.779-83.92 0 1 .57.72z"></path><path fill="#4da031" fill-rule="evenodd" d="M525.79 1850.92c1.05 8.65 1.85 17.86 3.67 25.72q3.81 16.5 10.46 32.11a2.38 2.293-57.962 0 1 .2.95l.02 1.11q-1.18-.22-2.25-.76-6.12-3.06-15.8-6.97-9.94-4.01-16.33-5.58-19.58-4.81-39.04 3.19-10.23 4.2-14.52 6c-10.42 4.36-24.6 4.06-34.97.82q-9.08-2.85-23.19-8.76-22.24-9.33-43.9 1.47c-6.62 3.31-13.66 9.27-21.99 12.73-8.92 3.71-17.6 3.17-23.71-5.19-7.48-10.23-7.76-21.16-8.4-34.25a.384.381 17.159 0 1 .61-.32q1.85 1.34 9.59 7.04 4.68 3.45 12.89 4.43a.269.266 78.357 0 0 .26-.4c-3.91-6.79-7.62-13.27-7.88-20.82q-.5-14.08 10.01-24.68 2.42-2.45 6.99-6.24a.54.538 64.495 0 1 .87.31c0 .05-.71 1.74-.91 2.46q-2.14 7.78.26 19.94 2.2 11.19 12.65 14.84a.894.893 17.214 0 0 1.16-.61c1.55-5.77 3.31-11.77 7.58-16.59 10.4-11.73 24.51-17.15 39.82-20.45a.471.468-89.163 0 1 .55.57q-1.83 7.76-1 15.18c.81 7.24 9.88 8.11 14.36 4.13 7.79-6.92 8.86-20.2 5.72-29.98a.661.657-87.481 0 1 .88-.81c7.19 2.98 12.94 5.53 16.89 12.71q5.42 9.87 6.93 21.39a.639.636 75.544 0 0 .86.51q6.42-2.52 9.63-8.54 4.85-9.08 6.75-20.05.47-2.73-.08-5.03a.64.638 85.386 0 1 .67-.79q18.4 1.4 28.8 15.94c3.01 4.21 5.01 9.63 6.33 14.61a.935.929-18.617 0 0 1.26.62q18.76-7.81 37.3-1.96"></path><path fill="#0e7c2d" fill-rule="evenodd" d="M1122.87 1823.94q1.46 3.25 1.3 7.81-.02.5.27.47-.5.6-.41 1.28 1.92 14.11 2.34 28.94-.66 2.56-3.63 4.11-.71.37-5.23 2.17-9.91 3.95-21.53 3.05-8.86-.68-14.33-4.45 4.76-21.89 4.78-44.28 18.16 2.19 36.44.9"></path><path fill="#4da031" fill-rule="evenodd" d="M1238.05 1853.94q5.54.68 9.92 4.5 8.43 8.54 9.68 20.91a.623.612-13.515 0 1-.4.64c-6.07 2.32-12.89 5.4-18.67 9.49-12.83 9.06-24.8 14.24-40.46 9.49-7.32-2.22-10.77-3.5-16.85-4.01q-4.68-.4-11.08.91-1.81.36-9.03 4.46-15.7 8.9-35.56 7.18c-5.12-.44-9.6-1.89-13.91-4.44-3.11-1.85-6.97-5.35-10.39-6.89q-4.33-1.96-9.43-2.47c-9.17-.93-17.93-.4-25.43 5.25q-7.77 5.85-8.29 6.22c-10.17 7.28-25.28 7.51-35.93.8q-9.12-5.76-11.31-6.87c-12.51-6.35-27.57-6.9-38.8 1q-5.65 3.97-7.7 5.28c-10.2 6.54-22.8 8.29-33.61 2.53q-9.29-4.95-14.67-8.02-7.52-4.31-15.38-3.19-7.01.99-12.43 3.13-5.12 2.01-7.57 2.82 11.89-32.41 12.76-67.51l1.88-.61a.784.776 70.31 0 1 .96.46c4.88 12.45 14.33 35.67 31.97 30.65 11.18-3.18 14.7-18.02 14.53-28.02a.406.404 12.318 0 1 .58-.37q17.85 8.26 24.85 27.13a2.554 2.524 85.089 0 0 1.89 1.61c14.79 2.93 22.96-16.8 23.88-28.07a.806.804-70.557 0 1 1.25-.6c9.86 6.61 12.81 16.42 14.68 27.61a7.789 7.709-61.096 0 0 .45 1.59l.94 2.33a.498.494 67.65 0 0 .64.27c5.04-2.04 8.7-4.94 11.48-9.7q5.76-9.83 4.84-21.59a.471.465-79.137 0 1 .67-.46c9.75 4.81 14.23 13.22 16.23 23.47a.349.346-38.728 0 0 .66.07q8-18.08 24.7-28.29c2.27-1.39 4.2-2.8 6.77-3.54a.331.325 88.021 0 1 .41.39c-.89 3.93-1.12 5.66-2.5 9.09-2.92 7.26-5.06 14.28-.37 21.52q2.65 4.1 6.75 7.23 5.47 3.77 14.33 4.45 11.62.9 21.53-3.05 4.52-1.8 5.23-2.17 2.97-1.55 3.63-4.11.64.7 1.03-.96.78-3.3 1.69-6.78 3.13-11.95 13.48-20.64 5.57-4.68 13.45-6.21a1.369 1.367-2.353 0 1 1.62 1.49q-.73 6.68-.65 14.55c.12 11.63 6.22 19.73 18.27 20.73q6.99.57 9.93-5.67 1.77-3.78 3.9-8.63c1.32-3.03 3.06-5.2 5.53-8.72a.582.58-44.295 0 1 .96.01c.91 1.36 2.53 4.04 3.4 5.98 2.78 6.13 8.73 15.88 16.25 16.34 7.1.44 15.17-5.15 22.82-9.99"></path><path fill="#fff" fill-rule="evenodd" d="M780.26 1899.59q-16.69 26.8-35.74 52.4a2.852 2.832 18.235 0 1-2.28 1.14h-72.36a1.665 1.644-16.917 0 1-1.37-.72q-14.42-20.98-33.39-47.05-.88-1.21-1.99-3.9a.904.888-39.402 0 1 .09-.84l44.41-66.01a.37.36-72.319 0 1 .3-.16q25.15.3 54.82.08 2.05-.02 3.36 1.88 20.15 28.98 44.13 62.77a.366.362 42.581 0 1 .02.41"></path><path fill="#0e7c2d" fill-rule="evenodd" d="M845.68 1959.74q9.77-10.65 16.62-22.44 1.68-2.91 5.63-8.37 14.14-8.71 28.8-11.04 7.03-1.11 15.21.9c4.56 1.12 8.46 3.71 12.6 5.71 12.3 5.94 29.04 6.79 41.46-.55q10.12-5.99 10.49-6.2c10.49-6.01 24.92-7.1 36.14-1.85 5.32 2.5 10.96 6.37 16.77 8.21q11.31 3.57 22.33-.14a8.39 8.024-68.079 0 0 1.48-.67c9.18-5.39 18.68-10.55 28.54-10.97q11.11-.46 19.27 3.48 11.15 5.39 15.82 7.38c10.01 4.26 24.32 4.72 34.17-.24q10.39-5.23 14.43-6.5 16.53-5.18 31.84-2.03 2.27.47 12.1 3.69c13.18 4.31 28.21-2.38 38.68-10.8q6.61-5.31 12.96-10.84a.572.571 69.296 0 1 .95.43v62.83a.35.35-45.001 0 1-.35.35zm-294.5-28.71 21.34 29.19-287.69-.05a.67.669-85.264 0 1-.66-.78c1.8-10.73 8.36-19.49 17.04-26.2 4.96-3.82 8.09-5.06 14.45-4.81 9.19.35 17.29.8 24.68-3.03q4.18-2.16 10.2-6.53c16.37-11.92 37.61-11.43 55.44-2.53q5.41 2.7 10.95 5.02 15.89 6.67 32.94 2.28.88-.23 14.61-4.58 34.04-10.79 64.65 1.67 5.82 2.37 20.63 10.08.47.25 1.42.27"></path><path fill="#fff" fill-rule="evenodd" d="M783.91 1994.39q.19-2.53-.54-4.66a1.565 1.557 60.282 0 1 .46-1.7l55.89-47.61a.52.512 37.308 0 1 .55-.07l6.15 2.72a.285.28 31.176 0 1 .11.43c-14.34 18.09-30.94 33.66-50.91 45.11q-7.85 4.5-10.76 6.35a.619.618-13.992 0 1-.95-.57m-155.53-4.34a1.26 1.258 10.569 0 1-1.87 1.28c-20.75-11.88-39.41-26.78-54.01-46.04a.708.707-12.683 0 1 .71-1.12q2.17.46 4.3 2.17c6.72 5.39 21.32 17.01 35.76 29.39q5.45 4.68 12.66 10.06a6.123 6.107-76.144 0 1 2.41 4zm8.18-1.01a.629.625 67.133 0 1 .25-.62q16.31-12.05 31.3-25.27a4.449 4.446 24.295 0 1 2.94-1.11q31.41.07 68.7-.04c1.7-.01 2.97.45 4.28 1.64q14.4 13.07 30.2 26.68a2.42 2.4-67.538 0 1 .82 2l-.5 6.21a1.818 1.803-8.78 0 1-1.13 1.53q-28.97 11.9-59.91 12.15c-18.97.16-36.61-1.52-53.83-6.99q-10.53-3.35-20.97-8.02a1.622 1.62 6.964 0 1-.94-1.2z" data-source="https://football-logos.cc"></path><!-- source: https://football-logos.cc --></svg>