<svg height="320.097454" viewBox="0 0 193.37512 198.2103" width="312.404859" xmlns="http://www.w3.org/2000/svg" xmlns:xlink="http://www.w3.org/1999/xlink"><clipPath id="a"><path d="m330.395 239.737h58.991v70.866h-58.991z" transform="translate(-358.83781 -275.39121)"/></clipPath><clipPath id="b"><path d="m332.483 243.48h54.815v56.187h-54.815z" transform="translate(-332.47961 -252.1936)"/></clipPath><clipPath id="c"><path d="m330.395 239.737h58.991v70.866h-58.991z" transform="translate(-358.87161 -276.9814)"/></clipPath><clipPath id="d"><path d="m330.395 239.737h58.991v70.866h-58.991z" transform="translate(-379.10041 -265.6573)"/></clipPath><clipPath id="e"><path d="m330.395 239.737h58.991v70.866h-58.991z" transform="translate(-348.96511 -256.12741)"/></clipPath><clipPath id="f"><path d="m330.395 239.737h58.991v70.866h-58.991z" transform="translate(-348.83011 -279.31891)"/></clipPath><clipPath id="g"><path d="m330.395 239.737h58.991v70.866h-58.991z" transform="translate(-361.36941 -275.1064)"/></clipPath><clipPath id="h"><path d="m330.395 239.737h58.991v70.866h-58.991z" transform="translate(-373.73821 -249.69931)"/></clipPath><clipPath id="i"><path d="m330.395 239.737h58.991v70.866h-58.991z" transform="translate(-350.65361 -284.45181)"/></clipPath><g fill-rule="evenodd" transform="matrix(10 0 0 10 -29.10418 -751.41668)"><path clip-path="url(#a)" d="m0 0c-.12-.238-.062-.774-.158-.897-.429-.078-.325.747.158.897m.034 1.59c-.164-.158-.519-.017-.5.123.02.152.495.127.5-.123m1.527-1.555c-.591-.128-.681-.226-1.148-.387.001.142-.01.39.056.493.212.179 1.007.04 1.308.005.049-.008.126-.016.212-.023-.097-.049-.276-.055-.428-.088m.085-.3c-.239-.08-.408-.163-.62-.276-.132-.07-.447-.277-.598-.26l-.008.123c.382.171.756.37 1.226.413m3.694 1.734c-.141.005-.251.155-.245.335.007.181.126.323.268.318.141-.005.25-.155.244-.335-.006-.181-.126-.323-.267-.318m-.387-2.865.077 2.08-.912 1.682.751.059.552 1.392.456-1.401.745-.113-1.027-1.612-.07-1.881 1.882-1.186-1.596-1.237 1.501-1.245-1.67-1.045c-.121-.122-.043-.307.089-.28.186.04.451.274.656.266l-.187-.534c.251.051.507.359.591.532.721-.037 1.23-.455 1.31-1.145.105-.905-.48-1.357-1.026-1.642-.087.252.123.64.013.683-.244.097-.5-.342-.644-.487-.237-.24-.579-.152-.762-.209l1.665-1.187-1.729-1.184 1.481-1.452-2.04-1.415-.06-1.389c-.026-.238-.557-.214-.564.019l.441 11.875c-.523.002-.949-.819-1.156-1.225-.118-.23-.306-.575-.457-.734-.163-.173-.607-.267-.906-.292-.125-.981-.257-1.941-.529-2.957-.133-.498-.127-.469 0-.97.322-1.266.688-1.354-.103-2.624-.116-.185-.394-.573-.458-.755.801.055 1.934.04 1.953-1.291l-2.147-.02c-.068.015-.297.331-.616.532-.286.18-.513.206-.886.279-.033.417.446.157.217 1.659-.106-.065-.543-.717-1.416-1.254-.238-.147-.261-.149-.256-.621.436.009 1.038.345 1.933-.092.507-.248.889-.809.929-1.358h-4.576c-.052.983.389 1.724.387 1.839-.448.025-.514.006-.482.219.2 1.311 1.686 1.098 2.024 2.737.054.266.141 1.373.185 1.479.038.063.346.187.418.223.417.209.863.509 1.207.75.106-.35.523-.982.726-1.348.096-.172.205-.309.094-.543-.195-.411-.492-.971-.726-1.35-.092-.149-.203-.296-.269-.426.254.21 1.238 1.423 1.261 1.968.011.254-.562 1.288-.748 1.686-.08.171-.147.399-.241.567-.254-.095-1.043-1.145-2.23-1.106-.491.015-.861.332-1.051.611-.236.349-.334.846-.342 1.356-.017 1.066.198 2.077.212 3.14.005.356.054 1.362-.426 1.229-.327-.09-.517-.686-.606-1.093-.375-1.718.318-4.813-.492-5.303-.227-.137-.484-.106-.696.018-.319.186-.531.559-.666 1.004-.189.622-.154 2.467-.152 3.208 0 .31.003.551-.148.696-.301.291-.514.739-.538 1.04.42.011.735-.048.987-.464.297-.487.215-1.089.214-1.651 0-.653-.138-3.251.688-3.062.26.06.196.469.196.757.002 1.542-.445 3.64.42 5.009.198.313.672.829 1.235.51.761-.431.637-2.09.532-3.063-.092-.844-.459-2.835.391-3.079.611-.175.887.411.905.952.043 1.235-.806 2.015-.928 2.852-.073.493-.07 1.34-.047 1.859.165.015.953.06 1.056.126-.461.697-1.05.126-1.523.527.115.069.324.3.371.41-.16.023-.493.118-.591.167.171.161.39.465.448.595-.2.037-.395.065-.57.116.139.096.352.293.446.417-.161.023-.343.08-.48.176.246.282.471.573.711.847.333.38.155.162.234.554.05.189.171.423.338.446l.204-.353c.471-.078 1.169.317 1.643.229.265-.045.259-.416.506-.441.165-.016 1.685.04 1.834.074.402.091.428-.012.511-.359.123-.512.062-1.261-.33-1.456.611-.065 1.578-.409 2.252.004-.039-.448-.447-.864-1.423-.613-.387.1-.482.162-.801.203.146-.082.175-.084.169-.302-.015-.449-.274-.419-.351-.642-.047-.134-.018-.305-.056-.458-.138-.56-1.123-.22-1.618-.274-.001-.292.402-.481.714-.614.446-.19.922-.943.99-1.312-.495.004-1.044.02-1.535-.001-.963-.039-.767-1.525-.017-1.78.205-.07 1.238-.055 1.514-.039.016.285.055.552.066.84.043 1.077-.149.812.338 1.189.69.536.562.357.818 1.082.145.41.242.5.555.709.219.147.639.363.834.491m-20.844-15.759h33.886l-16.943 29.343z" fill="#005625" transform="matrix(.35277776 0 0 -.35277776 12.20781 83.705134)"/><path d="m5.3129087 90.500976h14.5319753l-7.266165-12.583583zm13.2429253-.743657h-11.9542272l5.9771122-10.35191z" fill="#e40521"/><path clip-path="url(#b)" d="m0 0 8.655-.001c4.501-5.329 11.233-8.714 18.755-8.714s14.254 3.385 18.755 8.714l8.654.001-4.323 7.488c.941 2.602 1.453 5.41 1.453 8.337 0 9.357-5.238 17.489-12.941 21.629l-4.241-2.724-7.357 12.742-7.358-12.742-4.241 2.724c-7.703-4.14-12.94-12.272-12.94-21.629 0-2.927.512-5.734 1.452-8.337zm15.851 3.276h-10.175l5.085 8.807c-.27 1.204-.412 2.456-.412 3.742 0 1.564.211 3.079.605 4.518.697 2.545 1.969 4.852 3.668 6.774 2.039 2.308 4.693 4.059 7.706 4.998l5.082 8.801 5.082-8.801c3.013-.939 5.667-2.69 7.706-4.998 1.699-1.922 2.97-4.229 3.668-6.774.734-2.679.802-5.538.193-8.26l5.085-8.807h-10.176c-2.355-2.171-5.324-3.687-8.616-4.259-.956-.166-1.939-.253-2.942-.253-1.563 0-3.076.21-4.513.603-2.666.729-5.071 2.089-7.046 3.909" fill="#3c447f" transform="matrix(.35277776 0 0 -.35277776 2.909222 91.888734)"/><path clip-path="url(#c)" d="m0 0c-.164-.158-.519-.017-.5.123.02.152.495.127.5-.123m-.192-2.488c-.429-.077-.325.748.158.898-.12-.238-.062-.774-.158-.898m5.498 2.367c-.141.004-.251.155-.244.335.006.181.126.323.267.318s.251-.155.244-.336c-.006-.18-.125-.322-.267-.317m-4.379-11.289c.112.235.002.371-.094.544-.202.366-.62.998-.726 1.348-.344-.241-.79-.541-1.207-.75-.072-.036-.38-.16-.417-.223-.045-.106-.131-1.213-.186-1.479-.337-1.639-1.824-1.426-2.024-2.737-.032-.214.034-.194.482-.219.003-.116-.439-.856-.387-1.839h4.576c-.04.549-.422 1.11-.929 1.358-.895.437-1.496.1-1.933.092-.005.471.018.474.256.62.873.538 1.31 1.19 1.416 1.255.229-1.502-.249-1.242-.217-1.66.373-.073.6-.098.886-.278.319-.201.548-.517.616-.533l2.147.021c-.019 1.331-1.152 1.346-1.953 1.291.064.181.342.57.458.755.791 1.27.426 1.358.104 2.624-.128.501-.133.472 0 .97.271 1.016.404 1.976.528 2.957.3.025.743.119.907.291.15.16.338.505.456.734.207.406.633 1.228 1.156 1.226l-.441-11.875c.007-.234.538-.257.564-.019l.06 1.389 2.04 1.415-1.481 1.452 1.729 1.184-1.664 1.187c.183.057.524-.031.762.209.143.145.399.584.643.487.11-.043-.1-.431-.013-.683.546.284 1.131.737 1.026 1.642-.079.69-.589 1.108-1.31 1.145-.084-.173-.34-.481-.591-.532l.187.534c-.205.007-.47-.226-.656-.266-.132-.028-.209.157-.088.28l1.669 1.045-1.501 1.245 1.596 1.236-1.881 1.187.07 1.88 1.026 1.612-.745.114-.455 1.401-.552-1.392-.752-.059.912-1.683-.077-2.079c-.195-.128-.615-.345-.834-.491-.313-.21-.41-.3-.555-.71-.255-.724-.127-.545-.818-1.081-.486-.377-.295-.112-.338-1.189-.011-.288-.05-.555-.066-.84-.276-.016-1.308-.031-1.514.039-.75.255-.946 1.74.017 1.78.491.021 1.04.005 1.535 0-.068.37-.543 1.122-.99 1.313-.312.133-.715.322-.714.614.495.054 1.481-.286 1.619.274.037.153.008.324.055.457.077.224.336.194.351.643.007.218-.023.22-.169.302-.277.074-.674.079-.886.02-.239-.08-.408-.163-.619-.276-.133-.071-.448-.278-.599-.261l-.008.124c-.003.134-.005.242-.006.326 0 .142-.011.389.055.493.212.179 1.007.04 1.308.005.049-.009.126-.017.212-.023.123-.006.313-.016.515-.002.392.195.453.944.33 1.455-.083.347-.109.451-.51.359-.149-.033-1.67-.089-1.835-.073-.247.025-.241.396-.505.441-.474.088-1.173-.307-1.644-.229l-.204.353c-.167-.023-.288-.257-.338-.447-.079-.391.1-.173-.234-.553-.24-.274-.465-.565-.711-.848.138-.095.319-.152.481-.175-.095-.124-.308-.321-.447-.417.175-.051.37-.079.57-.117-.057-.13-.277-.433-.448-.594.098-.049.431-.144.591-.167-.047-.11-.255-.342-.371-.41.473-.401 1.062.17 1.523-.527-.102-.066-.89-.111-1.055-.127-.024-.518-.026-1.366.046-1.858.123-.838.971-1.618.929-2.853-.019-.541-.295-1.126-.906-.951-.849.243-.483 2.235-.391 3.079.105.973.229 2.631-.532 3.063-.563.319-1.037-.197-1.234-.51-.866-1.37-.419-3.467-.42-5.009-.001-.288.063-.698-.197-.757-.826-.189-.688 2.409-.687 3.061 0 .563.082 1.165-.214 1.652-.253.416-.568.474-.988.464.025-.301.237-.749.538-1.04.151-.145.148-.387.148-.696-.002-.741-.037-2.586.152-3.208.135-.446.347-.818.666-1.005.212-.123.47-.154.696-.018.811.491.117 3.585.492 5.304.089.407.28 1.003.606 1.093.481.133.431-.874.427-1.229-.015-1.063-.23-2.074-.213-3.14.008-.51.106-1.008.342-1.356.19-.28.56-.596 1.051-.612 1.187-.038 1.976 1.012 2.23 1.106.094-.167.162-.395.241-.566.186-.398.759-1.433.748-1.686-.023-.545-1.007-1.758-1.261-1.968.066.13.177.277.269.426.234.379.531.939.726 1.349" fill="#fcea10" transform="matrix(.35277776 0 0 -.35277776 12.219735 83.144149)"/><path clip-path="url(#d)" d="m0 0 .041.321 1.138-.144-.041-.322c-.042-.334-.314-.446-.63-.406-.36.046-.55.217-.508.551m1.659-.185.038.296 1.065-.135-.038-.297c-.042-.334-.282-.418-.592-.379s-.515.181-.473.515m-2.2.074c-.087-.686.299-1.03.89-1.105.457-.058.901.148 1.006.525.056-.366.314-.635.787-.695.541-.069.997.187 1.081.842l.14 1.109-3.757.478zm.085 2.99c.016-.597.364-1.103 1.141-1.084l2.742.07-.016.66-2.771-.07c-.414-.01-.566.17-.573.437-.007.273.136.454.55.465l2.771.07-.017.66-2.742-.069c-.778-.02-1.1-.543-1.085-1.139m-.25 2.605c.113-.632.636-.784 1.075-.822l.079.563c-.325.007-.585.076-.634.351-.072.401.501.651 1.311.796.811.145 1.435.108 1.506-.293.044-.243-.116-.382-.384-.526l.267-.495c.357.199.747.501.637 1.114-.153.857-1.044 1.066-2.145.869-1.096-.196-1.865-.701-1.712-1.557m-.203 2.991c-.131.385.432.723 1.18.976.759.257 1.401.327 1.531-.059.132-.391-.42-.725-1.179-.982-.747-.253-1.4-.326-1.532.065m-.501-.169c.281-.831 1.208-.893 2.251-.54 1.039.352 1.742.965 1.461 1.796-.281.83-1.21.884-2.249.533-1.043-.353-1.744-.959-1.463-1.789m.685 3.602c.15-.294.466-.325.805-.151.343.176.497.447.347.741l-.136.266-1.153-.59zm-1.198-1.984-.325.634 1.06 1.106-.139.272-1.288-.66-.302.588 3.372 1.726.48-.938c.287-.56.086-1.177-.53-1.493-.582-.297-.984-.147-1.188.027zm-1.612 2.889 2.661 1.892.379-.533.426.303-1.141 1.604-.426-.302.379-.534-2.661-1.892zm-.981 1.345-1.135 1.31 2.863 2.48 1.135-1.311-.395-.342-.703.812-.811-.703.674-.778-.395-.342-.674.778-.867-.751.703-.812zm-1.098 3.945-.226.196.848.978.226-.195c.249-.216.208-.526-.045-.818-.249-.287-.553-.377-.803-.161m-1.516-1.294.948 1.095.274-.237c.586-.508 1.202-.32 1.611.152s.507 1.109-.079 1.616l-.773.67-2.48-2.863z" fill="#fcea10" transform="matrix(.35277776 0 0 -.35277776 19.356005 87.13904)"/><path clip-path="url(#e)" d="m0 0c.382-.378.717-.441 1.351-.658.882-.218 2.029-.493 2.102-.541.506-.416 1.234-.897 1.748-1.172.413-.221.443-.15.505-.362.072-.204.628-1.812.706-1.834 1.437-.393 2.95-.603 4.512-.603 1.004 0 1.987.087 2.943.253.087.063.703 1.289.8 1.488.123.25.138.374.283.429 1.325.507 1.742.695 2.837 1.486.368.264 2.522.594 3.218.734.786.157.458-.069 1.319.78h-4.174c-.048-.245-.279-1.26-.415-1.369-.748-.604-1.717-1.068-2.7-1.32-.272-.07-.263-.041-.502.056-.725.291-3.356 1.308-3.656 1.975-.106.257-.116.352-.12.658h-.52c.006-.338-.168-.632-.282-.735-.889-.803-2.704-1.336-3.863-1.527-.27-.044-.303-.081-.542.03-.311.143-.561.259-.847.418-.342.189-.668.391-.978.615-.166.133-.114.161-.025 1.199zm23.157 0c-.219-.226-.444-.445-.676-.658h.002 10.176l-5.086 8.807c-.069-.307-.146-.612-.231-.912l4.179-7.237zm1.9 11.194 1.661-2.876c.117.438.257 1 .335 1.348.06.294.099.265-.009.546-.185.481-.391.924-.605 1.385-.293.631-.267.426-.209 1.038.161.913.171 2.472.299 2.717l.851 1.057c-.697 2.545-1.969 4.852-3.667 6.774-.337-.011-.842-.107-1.111-.128-.329-.027-.584.106-1.085.419-.625.389-1.202.637-1.921.97-.092.043-.207.115-.274.177-.053.049-.098.122-.165.194l-1.414 1.655c-.311.359-.346.367-.681.394-.364.028-.711.034-1.075.039l1.934-3.35c.682.403.455.275 1.086.668.085.054.167.112.253.158.104.056.156.044.268-.011.785-.388 1.516-.818 2.142-1.38.317-.283.286-.25.371-.725.125-.702.215-1.844.231-2.167.012-.242.066-1.393-.005-1.534-.082-.162-.138-.313-1.01-.786l.055-.096c.854.39 1.016.365 1.411.377.225.007 1.174-.762 1.372-.941.373-.362.852-.776 1.186-1.162.543-.629.652-.867.737-1.395.137-.853.125-2.257.011-2.413-.027-.037-.868-.851-.972-.952m-21.119 12.377 1.951 3.378c-.38-.03-.729-.057-1.102-.085-.335-.027-.37-.035-.681-.394-.443-.518-1.114-1.421-1.579-1.849-.068-.062-.163-.101-.254-.144-.794-.368-1.684-.789-2.408-1.286-.272-.186-.151-.178-.555-.13-.268.031-.837.111-1.174.122-1.698-1.922-2.97-4.229-3.667-6.774.008-.068.776-.966.872-1.192.12-.279.166-1.131.175-1.326.019-.435.053-.863.094-1.29.058-.611.093-.373-.2-1.004-.214-.461-.421-.904-.605-1.385-.108-.281-.069-.252-.009-.546.104-.462.194-.925.314-1.384l1.68 2.909c-.045.045-.982.943-1.012.986-.131.184.026 2.88.149 3.044.603.698 1.165 1.252 1.827 1.895.197.179 1.147.948 1.371.941.289-.009.369.098 1.379-.433l.076.131c-.244.153-.904.619-.998.807-.071.141-.017 1.292-.005 1.534.022.452.162 2.357.367 2.563.863.863 1.223 1.161 2.379 1.726.113.053.162.05.266-.006.435-.232.898-.553 1.349-.808m1.904 4.61c.299.093.601.178.906.255l4.176 7.234 4.177-7.234c.305-.077.607-.162.905-.255l-5.082 8.801zm-6.475-28.839c-.231.213-.456.433-.676.658h-8.363l4.179 7.237c-.086.302-.163.606-.232.912l-5.085-8.807z" fill="#050008" transform="matrix(.35277776 0 0 -.35277776 8.724941 90.500976)"/><path clip-path="url(#f)" d="m0 0c-.272-.186-.151-.178-.555-.131-.268.032-.837.112-1.174.122 2.039 2.308 4.694 4.06 7.706 4.999.299.093.601.178.906.255l-.859-1.488c-.38-.03-.729-.056-1.102-.084-.335-.027-.37-.035-.681-.394-.443-.518-1.113-1.422-1.579-1.849-.068-.062-.163-.102-.254-.144-.794-.368-1.684-.79-2.408-1.286m17.878 3.279c-.311.359-.346.367-.681.394-.364.027-.711.034-1.075.038l-.886 1.534c.305-.077.607-.162.905-.255 3.013-.939 5.668-2.691 7.707-4.999-.337-.01-.842-.106-1.111-.128-.329-.027-.584.106-1.085.419-.625.39-1.202.637-1.921.97-.092.043-.207.116-.274.178-.053.049-.098.121-.165.193zm1.517-2.091c-.086-.046-.168-.105-.253-.158-.631-.393-.404-.265-1.086-.669l3.336-5.777c.872.473.928.625 1.01.787.071.14.017 1.291.005 1.534-.016.323-.106 1.465-.231 2.166-.085.475-.054.442-.371.726-.626.561-1.357.991-2.142 1.379-.112.055-.164.067-.268.012m3.463-6.322c.225.007 1.174-.763 1.372-.942.373-.362.852-.775 1.186-1.161.543-.629.652-.867.737-1.395.137-.854.126-2.257.011-2.414-.027-.036-.868-.851-.972-.951l-3.745 6.485c.854.39 1.016.365 1.411.378m3.806-2.705c-.128-.246-.138-1.805-.299-2.718-.058-.612-.084-.407.209-1.037.214-.462.42-.905.605-1.385.108-.282.069-.252.009-.546-.078-.348-.218-.911-.335-1.348l.624-1.082c.085.301.162.605.231.912.61 2.722.541 5.581-.193 8.26zm-8.379-15.352c-.048-.245-.279-1.26-.415-1.37-.748-.604-1.717-1.068-2.7-1.32-.272-.07-.263-.041-.502.057-.725.291-3.355 1.307-3.656 1.975-.106.257-.116.351-.12.658zm2.855-.781c-.696-.139-2.85-.469-3.218-.734-1.095-.79-1.512-.978-2.837-1.486-.145-.055-.16-.178-.283-.428-.097-.2-.713-1.426-.8-1.489 3.292.572 6.26 2.089 8.616 4.26h-.002c.232.213.457.432.676.658h-.833c-.861-.85-.533-.623-1.319-.781m-11.05.046c-.889-.804-2.704-1.337-3.863-1.527-.27-.044-.303-.082-.542.029-.311.144-.561.26-.847.419-.342.189-.668.39-.978.614-.166.134-.114.162-.025 1.2h6.537c.006-.339-.168-.632-.282-.735m-4.754-1.637c-.514.275-1.242.757-1.748 1.172-.073.048-1.22.323-2.102.542-.634.216-.969.279-1.351.658h-1.309c.22-.226.445-.445.676-.658h-.001c1.975-1.82 4.38-3.18 7.046-3.909-.078.022-.634 1.629-.706 1.834-.062.211-.092.141-.505.361m-10.396 12.584c.184.48.391.923.605 1.385.293.63.258.392.2 1.004-.041.427-.075.855-.094 1.289-.009.195-.055 1.047-.175 1.327-.096.225-.864 1.124-.872 1.192-.395-1.439-.605-2.954-.605-4.519 0-1.285.142-2.538.411-3.742.069-.306.146-.61.232-.912l.603 1.046c-.12.458-.21.922-.314 1.384-.06.294-.099.264.009.546m1.122 5.009c.603.698 1.165 1.252 1.827 1.894.197.179 1.147.949 1.371.942.289-.01.369.098 1.379-.434l-3.714-6.432c-.045.044-.982.943-1.012.986-.131.183.026 2.88.149 3.044m4.653 2.533 3.358 5.816c-.451.256-.914.577-1.349.809-.104.055-.153.058-.266.006-1.156-.566-1.516-.863-2.379-1.727-.205-.205-.345-2.11-.367-2.562-.012-.243-.066-1.394.005-1.534.094-.188.754-.654.998-.808" fill="#fff" transform="matrix(.35277776 0 0 -.35277776 8.677316 82.31953)"/><path clip-path="url(#g)" d="m0 0c.32-.042.415-.103.802-.203.975-.251 1.384.165 1.422.613-.674-.413-1.641-.069-2.252-.004-.202-.014-.392-.004-.515.002-.096-.05-.276-.055-.428-.088-.591-.128-.681-.226-1.147-.387.002-.084.004-.192.006-.326.383.171.756.37 1.226.413.212.059.609.054.886-.02" fill="#e40521" transform="matrix(.35277776 0 0 -.35277776 13.100903 83.805607)"/><path clip-path="url(#h)" d="m0 0-.721-.513-2.41 3.388.722.513zm-2.553-1.686-1.54 3.007 1.076.551-.355.693-2.951-1.511.355-.694 1.081.554 1.54-3.007zm-4.03-1.847c-.756-.255-1.385-.185-1.877.063l.239.791c.376-.195.889-.291 1.432-.108.46.156.613.445.537.669-.236.697-2.341-.549-2.843.933-.221.656.162 1.391 1.089 1.704.625.212 1.209.199 1.72-.029l-.258-.772c-.419.187-.89.179-1.291.043-.361-.122-.507-.349-.428-.585.212-.626 2.332.558 2.829-.912.244-.72-.086-1.437-1.149-1.797m.588-.405c-.104.307-.362.411-.581.337-.201-.068-.304-.287-.234-.494.066-.195.248-.285.425-.225.035.012.074.032.084.042.023-.183-.084-.45-.214-.592l.33-.119c.219.305.312.691.19 1.051m-3.078-.265-.098.773-2.04-.259-.119.933 1.997.254-.098.773-1.997-.254-.111.872 2.041.259-.099.773-2.918-.371.524-4.124zm-5.588-.478c-1.246.031-2.19.928-2.157 2.205.032 1.278 1.02 2.126 2.266 2.094.916-.023 1.433-.535 1.713-1.06l-.77-.354c-.166.341-.533.618-.963.629-.754.019-1.317-.547-1.337-1.332s.514-1.378 1.268-1.397c.43-.011.81.241.994.58l.75-.387c-.312-.51-.848-1.001-1.764-.978m-3.239.304 1.136 3.999-.851.242-.714-2.512-1.139 3.038-.876.249-1.135-4 .851-.241.741 2.608 1.166-3.15zm-4.711 1.486-.806.364 1.712 3.789.807-.365zm2.305 3.903-.164 1.059-.647.293-.893-.582.443-.2.632.323.186-.693zm-4.243-3.072 2.244 3.5-.751.481-.881-1.375-1.653 1.06.882 1.375-.746.477-2.243-3.499.745-.478.942 1.469 1.653-1.06-.942-1.469z" fill="#fff" transform="matrix(.35277776 0 0 -.35277776 17.46434 92.768667)"/><path clip-path="url(#i)" d="m0 0-.648-.402-2.731 2.763.578.359 2.073-2.269-1.112 2.865.577.358zm-1.606-1.018-2.296 3.012-.526-.401 2.297-3.012zm-1.324-1.042-2.102 2.5.501.421-.336.4-1.508-1.268.337-.4.5.421 2.102-2.499zm-3.413-.589c.22.247.135.553-.149.806-.288.257-.597.303-.817.056l-.199-.222.966-.862zm2.282-.402-.474-.53-1.414.589-.203-.227 1.08-.964-.44-.493-2.826 2.522.702.786c.419.47 1.067.505 1.584.043.487-.434.492-.864.403-1.117zm-2.821-2.778c.228.344-.23.815-.888 1.25-.668.443-1.271.674-1.499.33-.224-.339.224-.804.892-1.246.658-.436 1.27-.673 1.495-.334m.44-.292c.484.731-.035 1.501-.953 2.109-.914.605-1.83.785-2.314.054s.043-1.499.957-2.104c.918-.608 1.826-.79 2.31-.059m-3.152-1.461c.141.299-.028.568-.372.73-.35.164-.659.12-.8-.179l-.127-.271 1.172-.55zm1.657-1.108-.281-.598-3.428 1.611.435.925c.329.702.969.78 1.534.515.565-.266.913-.808.583-1.51l-.154-.327zm-.722-2.08c.194.645-.105 1.193-.687 1.367-1.082.325-1.569-.922-2.194-.734-.262.078-.375.311-.304.548.062.207.182.37.369.48l-.359.386c-.241-.153-.427-.416-.522-.732-.193-.645.116-1.176.649-1.335 1.072-.322 1.477.949 2.2.732.278-.083.41-.335.331-.596-.069-.232-.249-.456-.481-.559l.36-.42c.299.169.516.456.638.863m-1.331-3.385-.046-.321-1.135.161.045.321c.048.333.321.442.636.397.36-.051.547-.225.5-.558m-1.657.209-.042-.295-1.062.151.042.295c.047.334.288.415.597.371s.513-.188.465-.522m2.199-.107c.098.686-.283 1.035-.873 1.119-.456.065-.903-.135-1.014-.511-.051.367-.304.64-.777.708-.539.076-.999-.173-1.092-.827l-.158-1.107 3.751-.533zm-.075-2.885c-.006.597-.346 1.108-1.124 1.1l-2.743-.029.007-.66 2.771.029c.415.004.564-.178.567-.445.003-.273-.143-.453-.557-.457l-2.771-.029.006-.661 2.743.029c.778.008 1.108.526 1.101 1.123m-.018-1.376-.515-.085.173-1.059-3.223-.527.107-.652 3.738.611zm.673-3.068c-.166.62-.7.727-1.141.727l-.031-.567c.324.021.589-.026.662-.296.105-.393-.444-.692-1.239-.905-.796-.213-1.42-.229-1.526.163-.064.24.084.391.339.558l-.308.47c-.339-.229-.702-.563-.541-1.164.226-.841 1.131-.973 2.212-.683 1.075.288 1.798.857 1.573 1.697" fill="#fcea10" transform="matrix(.35277776 0 0 -.35277776 9.320605 80.508756)"/></g></svg>