<svg xmlns="http://www.w3.org/2000/svg" viewBox="71.24 50.67 788.02 1062.23"><metadata xmlns:fl="https://football-logos.cc/venezuela/portuguesa">dl1_fcb25636326d944d828629c43b378e21b9cb9546ff2c499decac3068f8de4c0d</metadata><!-- Source: https://football-logos.cc --><path fill="#d2ae58" fill-rule="evenodd" d="M309.472 145.586q-.153 0-.256.078-20.285 15.229-38.546 28.917a.224.223-10.396 0 1-.351-.24l14.695-46.819a.449.434 27.583 0 0-.161-.481l-38.67-28.752a.206.204 63.276 0 1 .121-.371l47.909-.003a.338.324 8.119 0 0 .32-.231l14.695-46.829a.258.185-13.897 0 1 .125-.146q.076-.041.162-.041.024 0 .1.041a.258.185 13.878 0 1 .125.146l14.71 46.824a.338.324-8.137 0 0 .321.231l47.909-.012a.206.204-63.294 0 1 .12.37l-38.661 28.765a.449.434-27.602 0 0-.16.481l14.71 46.814a.224.223 10.377 0 1-.35.24q-18.266-13.682-38.556-28.904-.103-.078-.311-.078M156.674 50.753q.025 0 .101.041a.258.184 13.892 0 1 .125.146l14.68 46.77a.338.324-8.123 0 0 .32.23h47.85a.206.204-63.28 0 1 .12.37l-38.62 28.72a.449.433-27.588 0 0-.16.48l14.68 46.76a.224.222 10.392 0 1-.35.24q-18.24-13.67-38.501-28.879-.103-.077-.31-.077-.153 0-.257.077-20.263 15.205-38.505 28.872a.224.222-10.382 0 1-.35-.24l14.688-46.757a.449.433 27.598 0 0-.16-.48L93.41 98.299a.206.204 63.29 0 1 .12-.37l47.85.008a.338.324 8.133 0 0 .32-.23l14.688-46.767a.258.184-13.883 0 1 .125-.146q.076-.041.161-.041M469.645 145.539q-.153 0-.256.078-20.25 15.196-38.48 28.854a.223.222-10.383 0 1-.35-.24l14.677-46.727a.448.433 27.596 0 0-.159-.48l-38.591-28.707a.206.204 63.288 0 1 .119-.37l47.82.007a.337.324 8.131 0 0 .319-.23l14.678-46.738a.257.184-13.884 0 1 .125-.146q.075-.04.161-.04.025 0 .101.04a.257.184 13.891 0 1 .124.147l14.672 46.739a.337.324-8.125 0 0 .32.23l47.819-.002a.206.204-63.282 0 1 .12.37l-38.594 28.703a.448.433-27.589 0 0-.16.479l14.672 46.73a.223.222 10.39 0 1-.35.24q-18.228-13.661-38.477-28.859-.103-.078-.31-.078M622.501 145.537q-.153 0-.256.077-20.257 15.2-38.493 28.862a.224.222-10.381 0 1-.35-.24l14.684-46.741a.449.433 27.598 0 0-.16-.48l-38.602-28.717a.206.204 63.291 0 1 .12-.37l47.834.009a.337.324 8.134 0 0 .32-.23l14.683-46.751a.257.184-13.882 0 1 .125-.146q.076-.041.162-.041.024 0 .1.041a.257.184 13.893 0 1 .125.146l14.674 46.754a.337.324-8.122 0 0 .32.23h47.834a.206.204-63.279 0 1 .12.37l-38.607 28.71a.449.433-27.587 0 0-.16.48l14.674 46.744a.224.222 10.392 0 1-.35.239q-18.233-13.665-38.487-28.869-.103-.077-.31-.077M775.388 145.561q-.153 0-.256.078-20.266 15.212-38.51 28.885a.224.222-10.391 0 1-.35-.24l14.684-46.771a.449.433 27.588 0 0-.161-.48l-38.628-28.727a.206.204 63.281 0 1 .12-.37h47.861a.338.324 8.124 0 0 .32-.23l14.684-46.781a.258.184-13.892 0 1 .125-.146q.076-.04.162-.04.024 0 .1.04a.258.184 13.883 0 1 .125.146l14.691 46.779a.338.324-8.132 0 0 .32.23l47.862-.008a.206.204-63.289 0 1 .12.37l-38.625 28.733a.449.433-27.597 0 0-.16.48l14.691 46.769a.224.222 10.382 0 1-.35.24q-18.246-13.67-38.514-28.879-.104-.078-.311-.078" data-source="https://football-logos.cc"></path><path fill-rule="evenodd" d="M858.84 209.25a.41.41-61.289 0 1 .41.41q-.02 179.74.01 369.3 0 8.4-1.04 16c-12.57 92.01-41.1 181.77-89.32 261.1q-46.23 76.04-113.97 136.11c-56.18 49.83-121.2 89.59-190.41 120.52a2.339 2.312 44.667 0 1-1.91 0c-65.29-29.59-127.32-66.51-180.35-110.92q-52.11-43.63-92.21-96.04c-51.56-67.4-86.67-146.28-104.87-229.64Q76.4 635.9 72.31 596.9q-1.08-10.25-1.07-22.35.03-184.24.01-364.9a.4.4 33.794 0 1 .4-.4zm-30.87 29.54a.52.52 0 0 0-.52-.52H106.77a.52.52 0 0 0-.52.52v140.18a.52.52 0 0 0 .52.52h720.68a.52.52 0 0 0 .52-.52zM406.52 552.06q-38.34 18.24-59.25 52.96c-25.85 42.91-26.37 96.4-.97 139.69q21.02 35.85 60.19 54.76-.48.87-.48 2.53.07 113.81 0 258.59a3.265 3.263-75.596 0 0 1.69 2.86q21.24 11.67 54.13 27.31 3.03 1.44 4.97.55 22.35-10.17 44.99-22.01 3.42-1.78 3.42-4.36-.05-196.81-.05-261.43 0-.79-.39-1.42c81.83-34.17 111.16-134.22 59.05-206.3q-22.2-30.7-58.87-46.3l.26-148.26a2.374 2.368-84.559 0 0-1.92-2.33q-2.6-.51-5.43-.36l-5.23.26q-1.91.16-94.13-.19-2.49-.01-2.49 2.64.07 73.01 0 149.75 0 .43.51 1.06M306.27 995.99a.511.506 26.291 0 0 .81-.27c.48-1.92.11-3.58.11-5.77q.01-437.43.22-510.45l.01-5.75q.03-65.42.03-69.47-.01-3.29-3.63-3.29-83.75.09-99.97-.01c-2.29-.01-3.31.71-3.31 3.02q.02 232.04.01 478.32c0 2.13.56 4.68 1.69 6.2q45.11 60.69 104.03 107.47m311.33 4.45q.17-.04.66-.43 56.28-44.76 99.7-100.78c3.02-3.89 5.04-6.09 5.04-9.98q-.09-455.84.03-483.5.01-2.21-.44-3.51a1.828 1.819-9.735 0 0-1.72-1.21q-89.29-.01-99.33-.02c-2.81 0-5.26-.31-5.26 2.99v595.43a1.051 1.046-7.456 0 0 1.32 1.01"></path><path fill="#ce0809" fill-rule="evenodd" d="M827.97 378.97a.52.52 0 0 1-.52.52H106.77a.52.52 0 0 1-.52-.52V238.79a.52.52 0 0 1 .52-.52h720.68a.52.52 0 0 1 .52.52zM227.1 287.54a21.93 21.93 0 0 0-21.93-21.93h-6.2a21.93 21.93 0 0 0-21.93 21.93v42.9a21.93 21.93 0 0 0 21.93 21.93h6.2a21.93 21.93 0 0 0 21.93-21.93zm194.6 18.8v11.83a.6.6 5.906 0 0 .6.6h3.18a.634.632 87.527 0 1 .63.58q.58 7.83-.48 16.04a2.954 2.951 9.328 0 1-3.5 2.51l-.29-.05a3.687 3.684-84.968 0 1-3.04-3.63l.01-50.81a3.35 3.346-3.603 0 1 2.93-3.32l.28-.04a2.918 2.915 85.316 0 1 3.39 2.88v14.74a.61.61-2.46 0 0 .61.61h20.61a.563.551-87.751 0 0 .55-.52q.59-8.54-.91-16.28c-3.06-15.71-25.39-19.1-37.4-13.38q-11.46 5.46-11.71 18.9-.46 24.77.03 44.01.44 16.81 16.34 20.87 10.88 2.79 17.76-6.09a.384.384-34.83 0 1 .67.12l1.36 4.33a.768.763-8.836 0 0 .73.53h12.65a.58.58-45 0 0 .58-.58V306.3a.59.59 81.847 0 0-.59-.59h-24.36a.63.63 45 0 0-.63.63m133.79 15.02q-.3 10.73 1.12 16.77c3.01 12.8 18.7 15.7 29.96 13.78 6.73-1.14 15.1-4.81 16.7-11.43q1.65-6.85 1.21-14.12c-.4-6.49-1.22-12.74-5.63-17.19-5.12-5.17-11.04-8.59-18.59-13.24-1.17-.72-3.38-2.6-3.79-3.63-1.17-2.9-2.53-11.66 2.15-12.26q3.63-.47 3.6 3.82-.04 5.82.02 8.29a.63.63 89.538 0 0 .63.62h19.21a.644.642-87.569 0 0 .64-.59q.28-3.21-.36-10.04c-.63-6.75-2.42-10.05-8.28-13.32q-4.46-2.49-12.52-3.17c-10-.85-22.29 1.79-25.56 12.47q-.92 3.01-1.14 9.28c-.31 8.81 1.51 16.69 9.11 21.88q12.32 8.4 14.63 10.11 3.22 2.37 3.94 4.05c.96 2.23 2.79 13.01-1.72 14.33-4.01 1.18-4.78-1.64-4.94-5.04q-.19-4.25-.07-11.54a.47.47-89.403 0 0-.47-.48h-19.18a.671.67-89.118 0 0-.67.65m233.11-4.37h-20.63a.61.61 88.657 0 0-.61.64q.48 10.63-.48 17.81a2.963 2.956 11.062 0 1-3.68 2.47l-.24-.05a3.952 3.948-84.177 0 1-3.15-3.87v-50.01a3.923 3.921-5.093 0 1 3.23-3.86l.46-.08a3.311 3.305 84.909 0 1 3.89 3.26v19.71a.77.77 0 0 0 .77.77h20.45a.69.68-90 0 0 .68-.69q.13-15.03-.93-20.78-2.06-11.15-13.54-14.97c-12.04-4-28.6-2.02-34.72 10.64-1.84 3.79-1.99 8.31-2.06 12.52q-.25 15.21.06 36.75.09 6.39 1.53 11.37c3.59 12.47 18.73 15.01 29.65 13.45 8.67-1.25 17.56-7.08 18.97-16.34q1.33-8.8.99-18.12a.641.64 89.076 0 0-.64-.62m-641.13.27c5.49.1 10.92.08 15.62-1.65 6.5-2.38 8.16-7.45 8.41-13.86q.13-3.21-.04-16.74c-.09-6.91-2.28-13.38-9.27-15.67q-6.52-2.12-14.95-2.12-17.76.02-22.12-.01a.4.4.699 0 0-.41.4v82.73a.44.43 0 0 0 .44.43h21.07a.55.55.042 0 0 .55-.55v-32.27a.69.69.409 0 1 .7-.69m125.92-9.55a.311.308-42.409 0 1 .03-.61c9.38-1.19 9.92-7.92 10.12-16.24.18-7.51-.84-15.63-7.48-20.35-3.29-2.33-8.48-2.73-12.38-2.91q-12.33-.57-28.21-.34a.48.48-.61 0 0-.47.48v82.45a.58.58 1.772 0 0 .58.58h20.85a.35.35-45 0 0 .35-.35v-36.46a.684.682-2.276 0 1 .63-.68q2.31-.18 4.26 1.08a1.905 1.888-80.054 0 1 .82 1.18q.65 2.99.69 6.21.07 7.46.03 28.67a.35.35 5.862 0 0 .35.35h19.63a.35.34 0 0 0 .35-.34q-.01-27.21 0-27.37c.04-1.34-.24-2.6-.26-4.17-.1-5.85-4.27-10.01-9.89-11.18m38.23 43.062q9.559.002 10.579-.056a.358.357-1.387 0 0 .341-.356v-65.52a.56.55 90 0 1 .55-.56h11.75a.43.43 5.879 0 0 .43-.43v-16.26a.342.338-89.836 0 0-.336-.342q-1.445-.022-23.298-.026t-23.298.017a.342.338 89.858 0 0-.337.342l-.006 16.26a.43.43-1.196 0 0 .43.43l11.75.005a.56.55-89.978 0 1 .55.56l-.025 65.52a.358.357 1.408 0 0 .341.356q1.02.059 10.579.06m52.985 1.799c10.114-.006 19.95-3.843 23.651-13.993 1.104-3.038 1.194-9.158 1.194-11.578q-.01-22.63-.03-59.47a.34.34-45 0 0-.34-.34h-21.14a.41.4-90 0 0-.4.41q.06 35.55.005 65.157-.011 5.278-2.955 5.28-2.933.002-2.95-5.276-.09-29.607-.074-65.157a.41.4 89.931 0 0-.4-.41l-21.14.026a.34.34 0 0 0-.34.34q.025 36.84.042 59.47c.003 2.42.101 8.54 1.208 11.577 3.714 10.146 13.554 13.97 23.669 13.964m115.455-.057c10.102-.011 19.922-3.848 23.614-13.987 1.1-3.035 1.187-9.147 1.186-11.563q-.022-22.601-.061-59.393a.34.34-5.527 0 0-.339-.339l-21.113.01a.409.399 89.97 0 0-.399.41q.078 35.504.038 65.072-.007 5.272-2.948 5.275-2.929.003-2.949-5.268-.105-29.568-.107-65.072a.409.399 89.901 0 0-.4-.409l-21.112.036a.34.34 71.393 0 0-.339.341q.043 36.792.072 59.392c.004 2.417.105 8.529 1.212 11.561 3.715 10.131 13.544 13.946 23.645 13.934m67.81-36.744a.41.41-78.743 0 0 .41-.41v-15.23a.41.41 74.789 0 0-.41-.41h-12.69a.41.41-57.935 0 1-.41-.41v-14.62a.41.41-56.701 0 1 .41-.41h13.69a.41.41-78.743 0 0 .41-.41v-16.24a.41.41-45 0 0-.41-.41h-35.46a.41.41-88.251 0 0-.41.41v82.73a.41.41 84.639 0 0 .41.41h36.95a.41.41-78.743 0 0 .41-.41v-16.23a.41.41 74.789 0 0-.41-.41h-15.18a.41.41-57.935 0 1-.41-.41v-17.13a.41.41-89.848 0 1 .41-.41zm82.117 20.374a.4.4 41.879 0 1 .399-.364h6.694a.4.4 38.004 0 1 .399.369l1.102 14.262a.4.4 55.498 0 0 .399.369h21.586a.4.4-52.731 0 0 .396-.459l-12.301-82.76a.4.4 88.91 0 0-.396-.341H617.48a.4.4-68.853 0 0-.396.347l-10.984 82.75a.4.4-6.694 0 0 .397.453h21.817a.4.4 7.875 0 0 .399-.364zm74.353 14.626a.43.43 44.97 0 0 .43-.43V316.2a.43.43-64.851 0 1 .43-.43h12.37a.43.43-78.802 0 0 .43-.43v-15.19a.43.43 84.653 0 0-.43-.43H705.2a.43.43-56.25 0 1-.43-.43v-14.58a.43.43-56.71 0 1 .43-.43h14.14a.43.43-88.286 0 0 .43-.43v-16.2a.43.43-44.957 0 0-.43-.43h-35.91a.43.43 44.97 0 0-.43.43v82.69a.43.43 84.653 0 0 .43.43zm28.19-16.91a.39.39 0 0 0-.39-.39H717.1a.39.39 0 0 0-.39.39v16.52a.39.39 0 0 0 .39.39h15.04a.39.39 0 0 0 .39-.39zm77.764.034a.41.41 0 0 0-.409-.411l-15.24-.026a.41.41 0 0 0-.411.409l-.028 16.48a.41.41 0 0 0 .409.411l15.24.026a.41.41 0 0 0 .411-.409z"></path><path fill="#fdfdfd" fill-rule="evenodd" d="M227.1 330.44a21.93 21.93 0 0 1-21.93 21.93h-6.2a21.93 21.93 0 0 1-21.93-21.93v-42.9a21.93 21.93 0 0 1 21.93-21.93h6.2a21.93 21.93 0 0 1 21.93 21.93zm-21.9-47.25a3.13 3.13 0 0 0-3.13-3.13h-.12a3.13 3.13 0 0 0-3.13 3.13v51.7a3.13 3.13 0 0 0 3.13 3.13h.12a3.13 3.13 0 0 0 3.13-3.13zM422.33 305.71h24.36a.59.59-64.834 0 1 .59.59v43.89a.58.58-45 0 1-.58.58h-12.65a.768.763-8.836 0 1-.73-.53l-1.36-4.33a.384.384-34.83 0 0-.67-.12q-6.88 8.88-17.76 6.09-15.9-4.06-16.34-20.87-.49-19.24-.03-44.01.25-13.44 11.71-18.9c12.01-5.72 34.34-2.33 37.4 13.38q1.5 7.74.91 16.28a.563.551-87.751 0 1-.55.52h-20.61a.61.61 35.541 0 1-.61-.61v-14.74a2.918 2.915 85.316 0 0-3.39-2.88l-.28.04a3.35 3.346-3.603 0 0-2.93 3.32l-.01 50.81a3.687 3.684-84.968 0 0 3.04 3.63l.29.05a2.954 2.951 9.328 0 0 3.5-2.51q1.06-8.21.48-16.04a.634.632 87.527 0 0-.63-.58h-3.18a.6.6 29.816 0 1-.6-.6v-11.83a.63.63 45 0 1 .63-.63M556.16 320.71h19.18a.47.47-89.403 0 1 .47.48q-.12 7.29.07 11.54c.16 3.4.93 6.22 4.94 5.04 4.51-1.32 2.68-12.1 1.72-14.33q-.72-1.68-3.94-4.05-2.31-1.71-14.63-10.11c-7.6-5.19-9.42-13.07-9.11-21.88q.22-6.27 1.14-9.28c3.27-10.68 15.56-13.32 25.56-12.47q8.06.68 12.52 3.17c5.86 3.27 7.65 6.57 8.28 13.32q.64 6.83.36 10.04a.644.642-87.569 0 1-.64.59h-19.21a.63.63 89.538 0 1-.63-.62q-.06-2.47-.02-8.29.03-4.29-3.6-3.82c-4.68.6-3.32 9.36-2.15 12.26.41 1.03 2.62 2.91 3.79 3.63 7.55 4.65 13.47 8.07 18.59 13.24 4.41 4.45 5.23 10.7 5.63 17.19q.44 7.27-1.21 14.12c-1.6 6.62-9.97 10.29-16.7 11.43-11.26 1.92-26.95-.98-29.96-13.78q-1.42-6.04-1.12-16.77a.671.67-89.118 0 1 .67-.65M789.24 317.61q.34 9.32-.99 18.12c-1.41 9.26-10.3 15.09-18.97 16.34-10.92 1.56-26.06-.98-29.65-13.45q-1.44-4.98-1.53-11.37-.31-21.54-.06-36.75c.07-4.21.22-8.73 2.06-12.52 6.12-12.66 22.68-14.64 34.72-10.64q11.48 3.82 13.54 14.97 1.06 5.75.93 20.78a.69.68-90 0 1-.68.69h-20.45a.77.77 45 0 1-.77-.77V283.3a3.311 3.305 84.909 0 0-3.89-3.26l-.46.08a3.923 3.921-5.093 0 0-3.23 3.86v50.01a3.952 3.948-84.177 0 0 3.15 3.87l.24.05a2.963 2.956 11.062 0 0 3.68-2.47q.96-7.18.48-17.81a.61.61 88.657 0 1 .61-.64h20.63a.641.64 89.076 0 1 .64.62M146.77 317.95v32.27a.55.55.126 0 1-.55.55h-21.07a.44.43 0 0 1-.44-.43v-82.73a.4.4.699 0 1 .41-.4q4.36.03 22.12.01 8.43 0 14.95 2.12c6.99 2.29 9.18 8.76 9.27 15.67q.17 13.53.04 16.74c-.25 6.41-1.91 11.48-8.41 13.86-4.7 1.73-10.13 1.75-15.62 1.65a.69.69.409 0 0-.7.69m-.018-35.874.036 20.44a.28.28-45 0 0 .28.279l1.31-.002a4.98 4.87 89.9 0 0 4.862-4.989l-.02-11.04a4.98 4.87 89.9 0 0-4.878-4.971l-1.31.002a.28.28 45.012 0 0-.28.281M273.39 307.71c5.62 1.17 9.79 5.33 9.89 11.18.02 1.57.3 2.83.26 4.17q-.01.16 0 27.37a.35.34 0 0 1-.35.34h-19.63a.35.35 29.804 0 1-.35-.35q.04-21.21-.03-28.67-.04-3.22-.69-6.21a1.905 1.888-80.054 0 0-.82-1.18q-1.95-1.26-4.26-1.08a.684.682-2.276 0 0-.63.68v36.46a.35.35-45 0 1-.35.35h-20.85a.58.58 33.306 0 1-.58-.58v-82.45a.48.48-.61 0 1 .47-.48q15.88-.23 28.21.34c3.9.18 9.09.58 12.38 2.91 6.64 4.72 7.66 12.84 7.48 20.35-.2 8.32-.74 15.05-10.12 16.24a.311.308-42.409 0 0-.03.61m-16.574-25.557-.092 17.56a.34.34 87.76 0 0 .338.342l1.2.006a5.13 4.9-89.7 0 0 4.927-5.104l.042-7.98a5.13 4.9-89.7 0 0-4.873-5.156l-1.2-.006a.34.34-2.24 0 0-.342.338M311.636 267.222q21.853.004 23.298.026a.342.338-89.836 0 1 .336.342v16.26a.43.43 29.828 0 1-.43.43h-11.75a.56.55-90 0 0-.55.56v65.52a.358.357-1.387 0 1-.341.356q-1.02.058-10.579.056-9.559-.001-10.579-.06a.358.357 1.408 0 1-.341-.356l.025-65.52a.56.55-89.978 0 0-.55-.56l-11.75-.005a.43.43 27.803 0 1-.43-.43l.006-16.26a.342.338 89.858 0 1 .337-.342q1.445-.021 23.298-.017M364.59 338.037q2.944-.002 2.955-5.28.055-29.607-.005-65.157a.41.4 90 0 1 .4-.41h21.14a.34.34-45 0 1 .34.34q.02 36.84.03 59.47c0 2.42-.09 8.54-1.194 11.578-3.701 10.15-13.537 13.987-23.651 13.993-10.115.006-19.955-3.818-23.669-13.964-1.107-3.037-1.205-9.157-1.208-11.577q-.017-22.63-.042-59.47a.34.34.021 0 1 .34-.34l21.14-.026a.41.4 89.931 0 1 .4.41q-.016 35.55.074 65.157.017 5.278 2.95 5.276M480.06 352.514c-10.101.012-19.93-3.803-23.645-13.934-1.107-3.032-1.208-9.144-1.212-11.561q-.029-22.6-.072-59.392a.34.34-48.561 0 1 .339-.341l21.112-.036a.409.399 89.901 0 1 .4.409q.002 35.504.107 65.072.02 5.271 2.949 5.268 2.941-.003 2.948-5.275.04-29.568-.038-65.072a.409.399 89.97 0 1 .399-.41l21.113-.01a.34.34 19.42 0 1 .339.339q.039 36.792.061 59.393c.001 2.416-.086 8.528-1.186 11.563-3.692 10.139-13.512 13.976-23.614 13.987M547.87 315.77h-12.69a.41.41-89.975 0 0-.41.41v17.13a.41.41 84.639 0 0 .41.41h15.18a.41.41-56.247 0 1 .41.41v16.23a.41.41-53.154 0 1-.41.41h-36.95a.41.41-57.935 0 1-.41-.41v-82.73a.41.41-56.701 0 1 .41-.41h35.46a.41.41-45 0 1 .41.41v16.24a.41.41-53.154 0 1-.41.41h-13.69a.41.41-88.251 0 0-.41.41v14.62a.41.41 84.639 0 0 .41.41h12.69a.41.41-56.247 0 1 .41.41v15.23a.41.41-53.154 0 1-.41.41M629.987 336.144l-1.274 14.262a.4.4 33.891 0 1-.399.364h-21.817a.4.4 35.751 0 1-.397-.453l10.984-82.75a.4.4-52.079 0 1 .396-.347h30.785a.4.4 79.696 0 1 .396.341l12.301 82.76a.4.4-74.632 0 1-.396.459H638.98a.4.4 44.282 0 1-.399-.369l-1.102-14.262a.4.4-13.007 0 0-.399-.369h-6.694a.4.4 15.636 0 0-.399.364m3.19-15.42q1.642.019 3.259-.039a.255.253 86.616 0 0 .247-.279q-2.805-31.395-3.14-31.399t-3.864 31.318a.255.253-85.291 0 0 .24.285q1.615.095 3.258.114M704.34 350.77h-20.91a.43.43-57.939 0 1-.43-.43v-82.69a.43.43-44.985 0 1 .43-.43h35.91a.43.43-44.995 0 1 .43.43v16.2a.43.43-56.71 0 1-.43.43H705.2a.43.43-88.286 0 0-.43.43v14.58a.43.43 74.862 0 0 .43.43h12.37a.43.43-57.939 0 1 .43.43v15.19a.43.43-53.172 0 1-.43.43H705.2a.43.43 81.831 0 0-.43.43v34.14a.43.43-44.985 0 1-.43.43"></path><path fill="#ce0809" fill-rule="evenodd" d="M205.2 334.89a3.13 3.13 0 0 1-3.13 3.13h-.12a3.13 3.13 0 0 1-3.13-3.13v-51.7a3.13 3.13 0 0 1 3.13-3.13h.12a3.13 3.13 0 0 1 3.13 3.13zM146.752 282.076a.28.28-45.207 0 1 .28-.281l1.31-.002a4.98 4.87 89.9 0 1 4.878 4.971l.02 11.04a4.98 4.87 89.9 0 1-4.862 4.989l-1.31.002a.28.28 44.878 0 1-.28-.279zM256.816 282.153a.34.34 35.818 0 1 .342-.338l1.2.006a5.13 4.9-89.7 0 1 4.873 5.156l-.042 7.98a5.13 4.9-89.7 0 1-4.927 5.104l-1.2-.006a.34.34-54.182 0 1-.338-.342zM633.543 289.007q.335.004 3.14 31.399a.255.253 86.616 0 1-.247.279q-1.617.058-3.259.039-1.643-.019-3.258-.114a.255.253-85.291 0 1-.24-.285q3.53-31.322 3.864-31.318"></path><path fill="#fdfdfd" fill-rule="evenodd" d="M732.53 350.38a.39.39 0 0 1-.39.39H717.1a.39.39 0 0 1-.39-.39v-16.52a.39.39 0 0 1 .39-.39h15.04a.39.39 0 0 1 .39.39zM810.266 350.374a.41.41 0 0 1-.411.409l-15.24-.026a.41.41 0 0 1-.409-.411l.028-16.48a.41.41 0 0 1 .411-.409l15.24.026a.41.41 0 0 1 .409.411z" data-source="https://football-logos.cc"></path><path fill="#ce0809" fill-rule="evenodd" d="M514.95 549.49q-54.88-21.04-108.43 2.57-.51-.63-.51-1.06.07-76.74 0-149.75 0-2.65 2.49-2.64 92.22.35 94.13.19l5.23-.26q2.83-.15 5.43.36a2.374 2.368-84.559 0 1 1.92 2.33zM306.27 995.99q-58.92-46.78-104.03-107.47c-1.13-1.52-1.69-4.07-1.69-6.2q.01-246.28-.01-478.32c0-2.31 1.02-3.03 3.31-3.02q16.22.1 99.97.01 3.62 0 3.63 3.29 0 4.05-.03 69.47l-.01 5.75q-.21 73.02-.22 510.45c0 2.19.37 3.85-.11 5.77a.511.506 26.291 0 1-.81.27M617.6 1000.44a1.051 1.046-7.456 0 1-1.32-1.01V404c0-3.3 2.45-2.99 5.26-2.99q10.04.01 99.33.02a1.828 1.819-9.735 0 1 1.72 1.21q.45 1.3.44 3.51-.12 27.66-.03 483.5c0 3.89-2.02 6.09-5.04 9.98q-43.42 56.02-99.7 100.78-.49.39-.66.43"></path><path fill="#fdfdfd" fill-rule="evenodd" d="M514.95 549.49q36.67 15.6 58.87 46.3c52.11 72.08 22.78 172.13-59.05 206.3q-54.74 20.94-108.28-2.62-39.17-18.91-60.19-54.76c-25.4-43.29-24.88-96.78.97-139.69q20.91-34.72 59.25-52.96 53.55-23.61 108.43-2.57m-3.82 1.89q.96.18 1.26-.04a.398.392 37.152 0 0-.1-.69q-45.89-17.01-92.19-1.75c-1.38.45-3.47 1-3.94 2.3q-2.72 7.56-6.36 18.47a.628.625-75.761 0 0 .48.81q21.03 3.98 42.13 8.55 10.88 2.35 18.74.72 18.09-3.76 46.24-9.28a.671.667-16.854 0 0 .49-.91l-7.17-17.66a.383.378 84.307 0 1 .42-.52m67.42 142.93a.822.818-34.922 0 0 1.2.21q3.97-3.14 6.76-4.54 5.54-2.79 6.89-4.23c4.19-4.45 4.85-9 4.53-14.93q-2.38-44.3-29.26-78.72-1.4-1.8-3.31-1.04-6.64 2.63-11.64 4.32c-2.61.88-3.77 1.83-3.69 4.64q.61 21 .49 41-.05 9.28 5.12 16.75 2.76 3.99 3.48 5.16 10.04 16.41 19.43 31.38m-232.19.69 25.68-43.75a3.847 3.775-27.106 0 0 .5-1.5q.31-2.98.37-6.27.38-21.86.35-44.49 0-2.48-2.04-3.5-4.11-2.06-9.25-3.44-2.65-.71-4.48 1.71-29.3 38.72-27.85 86.22.09 2.74.21 3.39a4.402 4.38-79.204 0 0 1.92 2.84l13.88 8.96a.511.508-58.287 0 0 .71-.17m171.15-35.65a1.252 1.238 30.188 0 0-.4-1.48l-50.8-38.55a2.957 2.948 45.08 0 0-3.56-.01q-23.77 17.85-48.62 36.32-1.97 1.48-1.15 3.64 10.56 27.9 21.84 58.1a2.872 2.86 79.648 0 0 2.68 1.86H490a2.856 2.843 11.59 0 0 2.62-1.72zm-76.06 132.91-34.03-36.04a6.594 6.576-10.615 0 0-2.33-1.59l-42.88-17.25a3.15 3.15 32.849 0 0-3.44.74q-2.28 2.36-4.75 6.35c-1.56 2.5-2.89 4.62-1.46 6.7q26.79 39.05 71.88 53.1a4.351 4.338-55.559 0 0 3.99-.75l12.95-10.3a.653.651 49.264 0 0 .07-.96m44.08-.28a1.105 1.098-48.889 0 0 .1 1.55l11.86 10.63a3.434 3.43-32.062 0 0 3.23.74q45.59-13.24 73.17-52.4a3.004 2.998 47.73 0 0 .15-3.22l-6.17-10.67a.745.744-23.812 0 0-.88-.34q-20.78 6.95-47.48 16.01-2.03.68-4.12 3.1-17.15 19.79-29.86 34.6"></path><path fill-rule="evenodd" d="M511.13 551.38a.383.378 84.307 0 0-.42.52l7.17 17.66a.671.667-16.854 0 1-.49.91q-28.15 5.52-46.24 9.28-7.86 1.63-18.74-.72-21.1-4.57-42.13-8.55a.628.625-75.761 0 1-.48-.81q3.64-10.91 6.36-18.47c.47-1.3 2.56-1.85 3.94-2.3q46.3-15.26 92.19 1.75a.398.392 37.152 0 1 .1.69q-.3.22-1.26.04M578.55 694.31q-9.39-14.97-19.43-31.38-.72-1.17-3.48-5.16-5.17-7.47-5.12-16.75.12-20-.49-41c-.08-2.81 1.08-3.76 3.69-4.64q5-1.69 11.64-4.32 1.91-.76 3.31 1.04 26.88 34.42 29.26 78.72c.32 5.93-.34 10.48-4.53 14.93q-1.35 1.44-6.89 4.23-2.79 1.4-6.76 4.54a.822.818-34.922 0 1-1.2-.21M346.36 695a.511.508-58.287 0 1-.71.17l-13.88-8.96a4.402 4.38-79.204 0 1-1.92-2.84q-.12-.65-.21-3.39-1.45-47.5 27.85-86.22 1.83-2.42 4.48-1.71 5.14 1.38 9.25 3.44 2.04 1.02 2.04 3.5.03 22.63-.35 44.49-.06 3.29-.37 6.27a3.847 3.775-27.106 0 1-.5 1.5zM517.51 659.35l-24.89 58.16a2.856 2.843 11.59 0 1-2.62 1.72h-52.5a2.872 2.86 79.648 0 1-2.68-1.86q-11.28-30.2-21.84-58.1-.82-2.16 1.15-3.64 24.85-18.47 48.62-36.32a2.957 2.948 45.08 0 1 3.56.01l50.8 38.55a1.252 1.238 30.188 0 1 .4 1.48M441.38 793.22l-12.95 10.3a4.351 4.338-55.559 0 1-3.99.75q-45.09-14.05-71.88-53.1c-1.43-2.08-.1-4.2 1.46-6.7q2.47-3.99 4.75-6.35a3.15 3.15 32.849 0 1 3.44-.74l42.88 17.25a6.594 6.576-10.615 0 1 2.33 1.59l34.03 36.04a.653.651 49.264 0 1-.07.96M485.53 791.98q12.71-14.81 29.86-34.6 2.09-2.42 4.12-3.1 26.7-9.06 47.48-16.01a.745.744-23.812 0 1 .88.34l6.17 10.67a3.004 2.998 47.73 0 1-.15 3.22q-27.58 39.16-73.17 52.4a3.434 3.43-32.062 0 1-3.23-.74l-11.86-10.63a1.105 1.098-48.889 0 1-.1-1.55"></path><path fill="#ce0809" fill-rule="evenodd" d="M406.49 799.47q53.54 23.56 108.28 2.62.39.63.39 1.42 0 64.62.05 261.43 0 2.58-3.42 4.36-22.64 11.84-44.99 22.01-1.94.89-4.97-.55-32.89-15.64-54.13-27.31a3.265 3.263-75.596 0 1-1.69-2.86q.07-144.78 0-258.59 0-1.66.48-2.53" data-source="https://football-logos.cc"></path><!-- source: https://football-logos.cc --></svg>