<svg xmlns="http://www.w3.org/2000/svg" viewBox="42.3 20.44 1385.47 1985.08"><metadata xmlns:fl="https://football-logos.cc/venezuela/rayo-zuliano">dl1_399af2dca3170eaddc8f2a93ac805051936e98b88f955881f5212002f2add25c</metadata><!-- Source: https://football-logos.cc --><path fill="#fccc04" fill-rule="evenodd" d="M734.849 20.694q374.531-.082 683.901-.222 3.83-.002 7.27-.032a1.37 1.37-.208 0 1 1.38 1.37q-.17 288.3-.01 478.19c.19 226.92-.25 487.8.35 678.75.13 38.62-.02 70.2-3.94 104.23q-5.29 45.99-13.16 83.06-4.55 21.44-14.25 57.92-2.68 10.07-5.33 17.93-.58 1.7-5.81 17.79-15.7 48.33-39.37 98.52-8.82 18.7-15.61 31.87-28.02 54.42-61.94 103.03-19.29 27.64-44.23 58.03-18 21.92-36.3 40.91-5.94 6.16-19.46 19.88c-18.71 18.98-38.22 36-59.56 53.35q-21.24 17.28-36.19 27.55c-23.92 16.44-48.44 32.59-75.18 46.25q-24.06 12.29-45.99 21.66c-63.38 27.07-131.9 42.38-200.922 44.463q-10.646.321-15.216.322t-15.215-.316c-69.023-2.052-137.55-17.332-200.942-44.375q-21.934-9.36-45.999-21.64c-26.746-13.648-51.273-29.787-75.2-46.217q-14.955-10.263-36.202-27.534c-21.348-17.341-40.865-34.352-59.584-53.324q-13.526-13.714-19.468-19.871-18.309-18.983-36.318-40.895-24.953-30.379-44.256-58.01-33.941-48.595-61.984-103.003-6.796-13.167-15.624-31.863-23.692-50.18-39.413-98.503-5.237-16.088-5.818-17.788-2.654-7.858-5.338-17.927-9.716-36.476-14.275-57.914-7.886-37.067-13.197-83.054c-3.934-34.029-4.098-65.609-3.985-104.229.517-190.95-.037-451.83.054-678.75q.077-189.89-.219-478.19a1.37 1.37.183 0 1 1.379-1.37q3.44.028 7.271.029 309.37.005 683.9-.077M1401.62 45.61H68.41a.99.99-88.382 0 0-.99.99q.01 21.12 0 53.15-.27 484.05.04 1103.26.02 32.05.47 40.96c1.69 33.46 5.85 64.28 11.41 98.92q2.43 15.11 6.2 29.77 7.9 30.67 17.86 64.58 3.11 10.57 6.99 21.96 5.29 15.54 7.71 21.73 11.45 29.35 24.27 57.95 13.17 29.37 26.26 53.01 3.11 5.62 15.49 27.64 7.39 13.16 13.47 22.9 11.53 18.46 14.32 22.4 5.73 8.08 25.86 36.41 13.57 19.1 32.5 40.74 21.29 24.33 30.56 34.19c15.7 16.71 32.28 31.88 54.47 52.03q18.24 16.57 37.64 30.6 23.89 17.27 26.31 19.22c5.55 4.46 12.95 8.43 17.73 11.92q4.99 3.65 13.65 8.34 3.15 1.71 21.24 12.09 17.69 10.16 36.49 19.04 7.57 3.58 38.15 16.18 2.74 1.13 32.09 11.06 10.36 3.51 22.31 6.55 18.36 4.68 22.59 5.53c13.52 2.75 31.2 6.62 46.09 8.45q24.24 2.97 48.91 4.22 16.37.84 33-.12c10.03-.57 21.97-.98 32.29-2.33 10.12-1.33 20.24-1.92 30.9-3.91q13.75-2.56 15.37-2.98 6.03-1.56 6.8-1.35a1.478 1.459 41.437 0 0 .9-.05c2.73-1.05 6.11-1.29 8.19-1.74q30.09-6.61 49.03-13.22c14.44-5.04 26.61-9.05 39.8-14.42q15.32-6.24 18.82-7.92c17.27-8.31 32.7-16.06 48.23-24.96q13.51-7.74 19.43-10.9c6.02-3.21 10.66-6.75 16.74-10.51q5.53-3.42 12.3-8.27 11.84-8.47 33.38-24.56 8.72-6.52 18.78-15.29 10.03-8.73 18.3-15.86 14.74-12.69 37.55-35.55c8.24-8.25 15.4-16.4 23.06-24.5q5.42-5.71 16.65-18.97c10.31-12.18 19.41-22.61 28.42-34.78q16.37-22.13 30.82-43.12 5.92-8.59 10.45-16.09c9.24-15.3 16.37-26.01 24.7-41.2q19.02-34.73 21.37-39.52 9.4-19.17 27.75-61.73c9.83-22.79 17.87-46.34 24.12-66.12q.21-.64 7.99-26.56 4.3-14.36 7.2-26.79 6.15-26.37 10.64-50.59 6.98-37.61 9.79-77.61 1.48-20.96 1.52-78.25.3-440.46.27-639.63 0-1.89-.12-203.25-.13-227.52-.05-256.75.05-17.13-.25-35.39a1.02 1.02 89.427 0 0-1.02-1" data-source="https://football-logos.cc"></path><path fill="#fff" fill-rule="evenodd" d="M1401.62 45.61a1.02 1.02 89.427 0 1 1.02 1q.3 18.26.25 35.39-.08 29.23.05 256.75.12 201.36.12 203.25.03 199.17-.27 639.63-.04 57.29-1.52 78.25-2.81 40-9.79 77.61-4.49 24.22-10.64 50.59-2.9 12.43-7.2 26.79-7.78 25.92-7.99 26.56c-6.25 19.78-14.29 43.33-24.12 66.12q-18.35 42.56-27.75 61.73-2.35 4.79-21.37 39.52c-8.33 15.19-15.46 25.9-24.7 41.2q-4.53 7.5-10.45 16.09-14.45 20.99-30.82 43.12c-9.01 12.17-18.11 22.6-28.42 34.78q-11.23 13.26-16.65 18.97c-7.66 8.1-14.82 16.25-23.06 24.5q-22.81 22.86-37.55 35.55-8.27 7.13-18.3 15.86-10.06 8.77-18.78 15.29-21.54 16.09-33.38 24.56-6.77 4.85-12.3 8.27c-6.08 3.76-10.72 7.3-16.74 10.51q-5.92 3.16-19.43 10.9c-15.53 8.9-30.96 16.65-48.23 24.96q-3.5 1.68-18.82 7.92c-13.19 5.37-25.36 9.38-39.8 14.42q-18.94 6.61-49.03 13.22c-2.08.45-5.46.69-8.19 1.74a1.478 1.459 41.437 0 1-.9.05q-.77-.21-6.8 1.35-1.62.42-15.37 2.98c-10.66 1.99-20.78 2.58-30.9 3.91-10.32 1.35-22.26 1.76-32.29 2.33q-16.63.96-33 .12-24.67-1.25-48.91-4.22c-14.89-1.83-32.57-5.7-46.09-8.45q-4.23-.85-22.59-5.53-11.95-3.04-22.31-6.55-29.35-9.93-32.09-11.06-30.58-12.6-38.15-16.18-18.8-8.88-36.49-19.04-18.09-10.38-21.24-12.09-8.66-4.69-13.65-8.34c-4.78-3.49-12.18-7.46-17.73-11.92q-2.42-1.95-26.31-19.22-19.4-14.03-37.64-30.6c-22.19-20.15-38.77-35.32-54.47-52.03q-9.27-9.86-30.56-34.19-18.93-21.64-32.5-40.74-20.13-28.33-25.86-36.41-2.79-3.94-14.32-22.4-6.08-9.74-13.47-22.9-12.38-22.02-15.49-27.64-13.09-23.64-26.26-53.01-12.82-28.6-24.27-57.95-2.42-6.19-7.71-21.73-3.88-11.39-6.99-21.96-9.96-33.91-17.86-64.58-3.77-14.66-6.2-29.77c-5.56-34.64-9.72-65.46-11.41-98.92q-.45-8.91-.47-40.96-.31-619.21-.04-1103.26.01-32.03 0-53.15a.99.99-56.78 0 1 .99-.99zM735.154 1965.375q16.708.001 30.348-.777c34.348-1.958 69.458-8.298 101.678-16.878 35.67-9.49 73.1-24.76 107.69-42.2q22.66-11.42 42.02-23.81c19.99-12.81 38.41-24.89 57.27-39.87q16.78-13.32 24.97-20.22 19.88-16.74 39.05-35.69c20.66-20.42 40.78-41.8 58.02-63.46q19.21-24.11 27.16-34.86c22.98-31.03 43.72-64.17 62.11-98.05 21.53-39.65 40.64-81.41 55.55-123.87q8.75-24.91 16.62-51.55 7.03-23.78 11.23-43.13c5.9-27.16 11.91-58.2 14.56-86.52q3.97-42.41 3.97-65.49.01-835.98-.04-1103-.01-33.19.23-54.54a.73.73-.387 0 0-.74-.73q-26.88.24-53.6.209-78.205-.078-598.056-.089t-598.057.065q-26.72.029-53.6-.212a.73.73.39 0 0-.74.73q.239 21.35.228 54.54-.061 267.02-.086 1103-.001 23.08 3.968 65.49c2.648 28.32 8.657 59.361 14.556 86.521q4.199 19.35 11.228 43.13 7.869 26.641 16.618 51.551c14.908 42.461 34.017 84.221 55.545 123.872 18.389 33.881 39.127 67.022 62.106 98.053q7.95 10.75 27.159 34.861c17.239 21.661 37.358 43.042 58.017 63.462q19.169 18.951 39.048 35.692 8.19 6.9 24.97 20.221c18.859 14.981 37.278 27.062 57.268 39.872q19.359 12.391 42.019 23.812c34.589 17.442 72.019 32.713 107.688 42.205 32.22 8.581 67.33 14.922 101.677 16.882q13.64.778 30.348.778"></path><path fill="#0535a0" fill-rule="evenodd" d="M735.194 60.85q519.851.011 598.056.089 26.72.031 53.6-.209a.73.73-.387 0 1 .74.73q-.24 21.35-.23 54.54.05 267.02.04 1103 0 23.08-3.97 65.49c-2.65 28.32-8.66 59.36-14.56 86.52q-4.2 19.35-11.23 43.13-7.87 26.64-16.62 51.55c-14.91 42.46-34.02 84.22-55.55 123.87-18.39 33.88-39.13 67.02-62.11 98.05q-7.95 10.75-27.16 34.86c-17.24 21.66-37.36 43.04-58.02 63.46q-19.17 18.95-39.05 35.69-8.19 6.9-24.97 20.22c-18.86 14.98-37.28 27.06-57.27 39.87q-19.36 12.39-42.02 23.81c-34.59 17.44-72.02 32.71-107.69 42.2-32.22 8.58-67.33 14.92-101.678 16.878q-13.64.778-30.348.777-16.708 0-30.348-.778c-34.347-1.96-69.457-8.301-101.677-16.882-35.669-9.492-73.099-24.763-107.688-42.205q-22.66-11.421-42.019-23.812c-19.99-12.81-38.409-24.891-57.268-39.872q-16.78-13.321-24.97-20.221-19.879-16.741-39.048-35.692c-20.659-20.42-40.778-41.801-58.017-63.462q-19.209-24.111-27.159-34.861c-22.979-31.031-43.717-64.172-62.106-98.053-21.528-39.651-40.637-81.411-55.545-123.872q-8.749-24.91-16.618-51.551-7.029-23.78-11.228-43.13c-5.899-27.16-11.908-58.201-14.556-86.521q-3.969-42.41-3.968-65.49.025-835.98.086-1103 .011-33.19-.228-54.54a.73.73.39 0 1 .74-.73q26.88.241 53.6.212 78.205-.076 598.057-.065m.036 1873.72c38.42-.006 77.457-4.512 115.002-14.267q23.688-6.153 29.278-8.073c28.89-9.93 57.27-21.49 82.96-35.24 21.99-11.77 43.58-24 64.67-39.11q24.98-17.89 33.51-24.76 19.5-15.7 44.07-38.15 19.98-18.25 40.96-41.49 23.28-25.77 39.24-46.5c25.86-33.6 50.27-69.38 70.43-106.81 13.17-24.45 24.12-45.42 34.14-68.42 20.01-45.94 37.12-94.29 47.97-142.75q8.27-36.9 10.62-52.66 4.87-32.57 7.09-65.27 1.29-19.04 1.27-53.18-.2-365.05-.24-920.39-.01-173.6.06-185.22a.48.48 74.75 0 0-.47-.49q-5.44-.07-12.04-.071l-608.815.098-608.814.097q-6.6.003-12.04.075a.48.48 77.139 0 0-.47.49q.074 11.62.119 185.22.138 555.34.055 920.39-.009 34.14 1.287 53.18 2.231 32.699 7.111 65.267 2.355 15.76 10.637 52.657c10.865 48.457 27.991 96.801 48.016 142.735 10.027 22.996 20.984 43.963 34.161 68.409 20.172 37.423 44.594 73.195 70.465 106.787q15.966 20.725 39.255 46.487 20.987 23.234 40.973 41.477 24.577 22.443 44.082 38.136 8.532 6.868 33.518 24.75c21.095 15.103 42.689 27.326 64.683 39.089 25.694 13.742 54.078 25.292 82.971 35.213q5.59 1.918 29.28 8.063c37.548 9.744 76.587 14.237 115.006 14.231"></path><path fill="#fff" fill-rule="evenodd" d="m734.935 91.817 608.815-.098q6.6.001 12.04.071a.48.48-54.487 0 1 .47.49q-.07 11.62-.06 185.22.04 555.34.24 920.39.02 34.14-1.27 53.18-2.22 32.7-7.09 65.27-2.35 15.76-10.62 52.66c-10.85 48.46-27.96 96.81-47.97 142.75-10.02 23-20.97 43.97-34.14 68.42-20.16 37.43-44.57 73.21-70.43 106.81q-15.96 20.73-39.24 46.5-20.98 23.24-40.96 41.49-24.57 22.45-44.07 38.15-8.53 6.87-33.51 24.76c-21.09 15.11-42.68 27.34-64.67 39.11-25.69 13.75-54.07 25.31-82.96 35.24q-5.59 1.92-29.278 8.073c-37.545 9.755-76.582 14.261-115.002 14.267-38.419.006-77.458-4.487-115.006-14.231q-23.69-6.145-29.28-8.063c-28.893-9.921-57.277-21.471-82.971-35.213-21.994-11.763-43.588-23.986-64.683-39.089q-24.986-17.882-33.518-24.75-19.505-15.693-44.082-38.136-19.986-18.243-40.973-41.477-23.289-25.762-39.255-46.487c-25.871-33.592-50.293-69.364-70.465-106.787-13.177-24.446-24.134-45.413-34.161-68.409-20.025-45.934-37.151-94.278-48.016-142.735q-8.282-36.897-10.637-52.657-4.88-32.568-7.111-65.267-1.296-19.04-1.287-53.18.083-365.05-.055-920.39-.045-173.6-.119-185.22a.48.48 49.425 0 1 .47-.49q5.44-.072 12.04-.075zm-157.72 90.375c-.344 18.11 13.014 24.597 29.076 24.903s29.657-5.669 30.001-23.779-13.013-24.597-29.076-24.903c-16.061-.305-29.656 5.669-30.001 23.779m572.455-23.222h-11.52a1.395 1.385-75.204 0 0-1.21.71q-9.57 17-16.71 34.55a1.371 1.371 44.06 0 1-2.52.04q-8.12-18.14-16.86-34.31a1.864 1.854 75.598 0 0-1.63-.97h-11.62a.47.469 84.437 0 0-.46.56q.18.98.8 2.25 11.57 23.64 21.72 42.99a2.912 2.905 76.029 0 0 2.57 1.55h13.87a1.967 1.964 12.544 0 0 1.78-1.13q3.06-6.42 9.76-19.04 7.28-13.72 12.73-26.12a.768.767-77.999 0 0-.7-1.08m67.6 23.48c-.208 18.066 13.164 24.436 29.186 24.62s29.536-5.876 29.744-23.941-13.164-24.435-29.186-24.619-29.536 5.876-29.744 23.94m-219.81-22.89a.68.68 0 0 0-.68-.68h-12.02a.68.68 0 0 0-.68.68v45.94a.68.68 0 0 0 .68.68h12.02a.68.68 0 0 0 .68-.68zm-802.51.6v45.3a.88.88 44.868 0 0 .88.88h32.78a23 21.7 0 0 0 23-21.7v-3.66a23 21.7 0 0 0-23-21.7h-32.78a.88.88-44.813 0 0-.88.88m131.218 22.505q.004 8.683-.356 22.914a.629.628-89.471 0 0 .628.641h48.68a.59.58 90 0 0 .58-.59v-9.04a.72.71 90 0 0-.71-.72h-35.26a1.25 1.25-45 0 1-1.25-1.25v-5.79a1.17 1.17-89.86 0 1 1.17-1.17H374a.588.587-86.519 0 0 .583-.516q.255-1.933.254-4.501t-.258-4.501a.588.587 86.466 0 0-.584-.515l-34.35.031a1.17 1.17 44.973 0 1-1.171-1.169l-.005-5.79a1.25 1.25-.046 0 1 1.249-1.251l35.26-.032a.72.71 89.947 0 0 .709-.721l-.008-9.04a.59.58 89.947 0 0-.581-.59l-48.68.045a.629.628 89.418 0 0-.627.642q.373 14.231.377 22.913M464.19 193.59q4.33-.04 23.07.01c7.36.02 13.69-1.47 17.15-8.46 3.56-7.2 2.38-17.14-4.73-22.23-5.35-3.84-10.99-3.77-18.53-3.82q-12.74-.09-29.2-.01a.64.64-45 0 0-.64.64v45.69a.8.79-90 0 0 .79.8h11.17a.59.58-90 0 0 .58-.59v-11.68a.35.35-.843 0 1 .34-.35m255.86-.24h16.06a3.042 3.018-16.101 0 1 2.56 1.4l6.65 10.44a2.646 2.628 73.602 0 0 2.22 1.22h13.21a.845.841 71.523 0 0 .67-1.35l-9.06-12.17a.586.584-30.473 0 1 .23-.88q8.22-3.7 9.49-12.57c1.26-8.88-2.14-15.27-10.1-18.51q-4-1.62-6.19-1.68-16.63-.49-37.99.07a.821.82-.716 0 0-.8.82v45.47a.45.45.038 0 0 .45.45h11.45a.55.55 7.695 0 0 .55-.55v-11.56a.6.6 64.882 0 1 .6-.6m142.932 12.983q4.841-.011 5.572-.014a.889.885-89.96 0 0 .886-.889v-34.76a.83.83 89.609 0 1 .83-.83h20.41a1.1 1.09 90 0 0 1.09-1.1v-9.19a.583.578-.116 0 0-.585-.578q-10.631.114-28.312.155-17.68.041-28.312-.024a.583.578-.149 0 0-.582.581l.042 9.19a1.1 1.09 89.735 0 0 1.095 1.095l20.41-.095a.83.83-71.182 0 1 .834.826l.161 34.76a.889.885 89.695 0 0 .89.885zM129.35 270.64q.11 469.05.27 938.11.03 80.37 18.58 157.59 11.5 47.89 28.26 93.41c7.26 19.71 15.12 37.25 24.09 57.25 12.16 27.11 26.55 53.82 40.42 77.26q38.09 64.4 89.76 122.75 21.79 24.61 49.06 49.96 22.98 21.37 52.8 43.83 15.07 11.36 27.92 19.66c19.69 12.72 39.79 25.31 61.61 35.97q18.36 8.97 33.84 15.52 41.84 17.72 88.56 27.63 41.62 8.84 85.2 9.03c28.23.12 54.19-1.39 80.83-6.11q50.86-9.02 98.41-28.31c11.86-4.81 26.87-11.73 37.6-16.95 24.13-11.75 46.45-25.81 69.57-41.06q12.73-8.39 29.13-21.23c22.82-17.86 42.02-34.18 58.52-50.67q20.96-20.93 27.57-28.17 50.93-55.84 90.52-119.61 6.62-10.67 17.02-29.13 11.17-19.8 16.08-29.64 11.97-24 25.36-54.69c15.15-34.73 27.51-72.3 37.28-109.15q16.98-64.08 21.65-130.45 1.42-20.05 1.41-76.45-.03-453.09-.01-906.18l-.54-14.73a.591.59 88.995 0 0-.59-.57H130.5a.581.58-88.977 0 0-.58.56z"></path><path fill="#0535a0" fill-rule="evenodd" d="M607.216 158.413c16.063.306 29.42 6.793 29.076 24.903s-13.939 24.085-30.001 23.779-29.42-6.793-29.076-24.903 13.94-24.084 30.001-23.779m16.292 23.073a12.02 12.02 0 0 0-11.936-12.103l-9.3-.065a12.02 12.02 0 0 0-12.103 11.936l-.017 2.36a12.02 12.02 0 0 0 11.936 12.103l9.3.065a12.02 12.02 0 0 0 12.103-11.936zM1149.67 158.97a.768.767-77.999 0 1 .7 1.08q-5.45 12.4-12.73 26.12-6.7 12.62-9.76 19.04a1.967 1.964 12.544 0 1-1.78 1.13h-13.87a2.912 2.905 76.029 0 1-2.57-1.55q-10.15-19.35-21.72-42.99-.62-1.27-.8-2.25a.47.469 84.437 0 1 .46-.56h11.62a1.864 1.854 75.598 0 1 1.63.97q8.74 16.17 16.86 34.31a1.371 1.371 44.06 0 0 2.52-.04q7.14-17.55 16.71-34.55a1.395 1.385-75.204 0 1 1.21-.71zM1217.27 182.45c.208-18.064 13.722-24.125 29.744-23.94s29.394 6.554 29.186 24.619-13.722 24.126-29.744 23.941c-16.022-.184-29.394-6.554-29.186-24.62m46.05-1.1a12.09 12.09 0 0 0-12.09-12.09h-8.84a12.09 12.09 0 0 0-12.09 12.09v2.32a12.09 12.09 0 0 0 12.09 12.09h8.84a12.09 12.09 0 0 0 12.09-12.09zM997.46 205.5a.68.68 0 0 1-.68.68h-12.02a.68.68 0 0 1-.68-.68v-45.94a.68.68 0 0 1 .68-.68h12.02a.68.68 0 0 1 .68.68zM194.95 160.16a.88.88-44.978 0 1 .88-.88h32.78a23 21.7 0 0 1 23 21.7v3.66a23 21.7 0 0 1-23 21.7h-32.78a.88.88-44.969 0 1-.88-.88zm12.82 10.33v24.12a.84.84 45 0 0 .84.84h17.64a12.6 11.99 0 0 0 12.6-11.99v-1.82a12.6 11.99 0 0 0-12.6-11.99h-17.64a.84.84-45 0 0-.84.84M374.837 182.643q.001 2.568-.254 4.501a.588.587-86.519 0 1-.583.516h-34.35a1.17 1.17-89.93 0 0-1.17 1.17v5.79a1.25 1.25-45 0 0 1.25 1.25h35.26a.72.71-90 0 1 .71.72v9.04a.59.58 90 0 1-.58.59h-48.68a.629.628-89.471 0 1-.628-.641q.36-14.231.356-22.914-.004-8.682-.377-22.913a.629.628 89.418 0 1 .627-.642l48.68-.045a.59.58 89.947 0 1 .581.59l.008 9.04a.72.71 89.947 0 1-.709.721l-35.26.032a1.25 1.25 0 0 0-1.249 1.251l.005 5.79a1.17 1.17 45 0 0 1.171 1.169l34.35-.031a.588.587 86.466 0 1 .584.515q.257 1.933.258 4.501M464.19 193.59a.35.35-.843 0 0-.34.35v11.68a.59.58 90 0 1-.58.59H452.1a.8.79 90 0 1-.79-.8v-45.69a.64.64 45 0 1 .64-.64q16.46-.08 29.2.01c7.54.05 13.18-.02 18.53 3.82 7.11 5.09 8.29 15.03 4.73 22.23-3.46 6.99-9.79 8.48-17.15 8.46q-18.74-.05-23.07-.01m-.44-21.843.101 9.66a1.68 1.68-44.332 0 0 1.698 1.662l21.039-.22a7.26 6.42-.6 0 0 7.192-6.496l-.002-.18a7.26 6.42-.6 0 0-7.327-6.344l-21.038.221a1.68 1.68-43.87 0 0-1.663 1.697M720.05 193.35a.6.6-81.817 0 0-.6.6v11.56a.55.55 33.136 0 1-.55.55h-11.45a.45.45.038 0 1-.45-.45v-45.47a.821.82-.716 0 1 .8-.82q21.36-.56 37.99-.07 2.19.06 6.19 1.68c7.96 3.24 11.36 9.63 10.1 18.51q-1.27 8.87-9.49 12.57a.586.584-30.473 0 0-.23.88l9.06 12.17a.845.841 71.523 0 1-.67 1.35h-13.21a2.646 2.628 73.602 0 1-2.22-1.22l-6.65-10.44a3.042 3.018-16.101 0 0-2.56-1.4zm-.45-21.244.061 8.8a2.21 2.21-15.538 0 0 2.225 2.194l20.96-.146a7.15 6.52-.4 0 0 7.104-6.57l-.001-.18a7.15 6.52-.4 0 0-7.195-6.47l-20.96.147a2.21 2.21-79.329 0 0-2.194 2.225M862.873 159.127q17.681-.041 28.312-.155a.583.578-.116 0 1 .585.578v9.19a1.1 1.09 90 0 1-1.09 1.1h-20.41a.83.83 89.902 0 0-.83.83v34.76a.889.885-89.96 0 1-.886.889q-.731.003-5.572.014l-5.571.012a.889.885 89.695 0 1-.89-.885l-.161-34.76a.83.83 78.106 0 0-.834-.826l-20.41.095a1.1 1.09 89.735 0 1-1.095-1.095l-.042-9.19a.583.578-.149 0 1 .582-.581q10.632.065 28.312.024"></path><path fill="#fff" fill-rule="evenodd" d="M623.491 183.846a12.02 12.02 0 0 1-12.103 11.936l-9.3-.065a12.02 12.02 0 0 1-11.936-12.103l.017-2.36a12.02 12.02 0 0 1 12.103-11.936l9.3.065a12.02 12.02 0 0 1 11.936 12.103zM1263.32 183.67a12.09 12.09 0 0 1-12.09 12.09h-8.84a12.09 12.09 0 0 1-12.09-12.09v-2.32a12.09 12.09 0 0 1 12.09-12.09h8.84a12.09 12.09 0 0 1 12.09 12.09zM207.77 170.49a.84.84-45 0 1 .84-.84h17.64a12.6 11.99 0 0 1 12.6 11.99v1.82a12.6 11.99 0 0 1-12.6 11.99h-17.64a.84.84 45 0 1-.84-.84zM463.75 171.747a1.68 1.68 44.026 0 1 1.663-1.697l21.038-.221a7.26 6.42-.6 0 1 7.327 6.344l.002.18a7.26 6.42-.6 0 1-7.192 6.496l-21.039.22a1.68 1.68 44.137 0 1-1.698-1.662zM719.6 172.106a2.21 2.21-53.524 0 1 2.194-2.225l20.96-.147a7.15 6.52-.4 0 1 7.195 6.47l.001.18a7.15 6.52-.4 0 1-7.104 6.57l-20.96.146a2.21 2.21 33.451 0 1-2.225-2.194z"></path><path fill="#fccc04" fill-rule="evenodd" d="m1340.66 270.81-1211.31-.17.57-14.57a.581.58-88.977 0 1 .58-.56h1209.03a.591.59 88.995 0 1 .59.57z"></path><path fill="#0535a0" fill-rule="evenodd" d="M1340.66 270.81q-.02 453.09.01 906.18.01 56.4-1.41 76.45-4.67 66.37-21.65 130.45c-9.77 36.85-22.13 74.42-37.28 109.15q-13.39 30.69-25.36 54.69-4.91 9.84-16.08 29.64-10.4 18.46-17.02 29.13-39.59 63.77-90.52 119.61-6.61 7.24-27.57 28.17c-16.5 16.49-35.7 32.81-58.52 50.67q-16.4 12.84-29.13 21.23c-23.12 15.25-45.44 29.31-69.57 41.06-10.73 5.22-25.74 12.14-37.6 16.95q-47.55 19.29-98.41 28.31c-26.64 4.72-52.6 6.23-80.83 6.11q-43.58-.19-85.2-9.03-46.72-9.91-88.56-27.63-15.48-6.55-33.84-15.52c-21.82-10.66-41.92-23.25-61.61-35.97q-12.85-8.3-27.92-19.66-29.82-22.46-52.8-43.83-27.27-25.35-49.06-49.96-51.67-58.35-89.76-122.75c-13.87-23.44-28.26-50.15-40.42-77.26-8.97-20-16.83-37.54-24.09-57.25q-16.76-45.52-28.26-93.41-18.55-77.22-18.58-157.59-.16-469.06-.27-938.11zm-965.82 630.9 58.57-43.63a2.676 2.666 71.672 0 0 1.07-2.14q-.1-190.83-.01-424.32.01-18.19-1.52-25.11-6.09-27.52-33.42-39.73-7.48-3.35-15.25-3.61c-13-.43-23.47.01-37.95-.04q-28-.08-150.75.05a.29.29 74.805 0 0-.29.29v809.06a.75.74-90 0 0 .74.75h86.33a.59.58-90 0 0 .58-.59V934.26a1.05 1.05-.275 0 1 1.04-1.05q35.94-.2 58.79-.07c4.14.02 3.51 2.69 3.52 6.25q.17 124.89.02 233.12a.78.77 90 0 0 .77.78h86.94a.5.5 45 0 0 .5-.5V947.17a1.711 1.702-72.056 0 0-.7-1.38l-58.98-43.71a.232.228-45.573 0 1 0-.37m251.69 32.1v238.91a.54.53 0 0 0 .54.53h86.84a.5.49-.562 0 0 .5-.5q-.25-16.71-.24-23.48.23-223.66.07-488.27-.09-140.65.12-228.72.04-14.72-.26-17.56c-1.32-12.8-5.73-24.77-14.7-34.34q-16.36-17.47-40.39-17.39-86.85.3-129.5.01-22.94-.16-38.46 16.51c-11.95 12.84-16.09 26.8-16.09 44q.07 741.22.01 749.14a.59.59-89.523 0 0 .59.6h87.37a.27.26 90 0 0 .26-.27V934.3a1.29 1.29 45 0 1 1.29-1.29h61.25a.8.8-45 0 1 .8.8m204.99 239.44h87.16a.8.8 45 0 0 .8-.8V966.16a1.88 1.84 59.646 0 1 .22-.88q.65-1.22 2.39-2.94 27.68-27.35 65.83-65.57c2.49-2.49 7.31-5.4 7.31-9.27q-.05-261.96-.13-523.94a.61.6-90 0 0-.6-.61c-11.05-.1-22.85.45-33.21.37q-31-.24-54.18-.31a.43.43 44.97 0 0-.43.43v523.82a4.833 4.803 67.727 0 1-1.42 3.42l-29.95 29.96a.474.461-42.568 0 1-.68-.02c-5.66-6.47-12.81-12.78-19.54-19.74q-2.43-2.5-8.95-9.02c-1.69-1.69-2.53-3.09-2.53-5.36q-.01-86.32-.18-515 0-2.11-.16-7.92a.42.42 89.301 0 0-.42-.41h-87.06a.32.32 81.841 0 0-.32.32v525.33a2.979 2.968 22.744 0 0 .86 2.09q25.68 25.82 39.16 38.93c9.7 9.43 20.1 20.69 30.72 30.62 2.06 1.93 4.75 4.31 4.75 7.05q.19 118.44.15 205.33a.41.41 3.465 0 0 .41.41m263.65-273.35a.489.487-44.375 0 1-.01.79q-7.2 5.04-16.85 12.39-20.29 15.46-41.64 29.96a2.883 2.878 72.559 0 0-1.26 2.42q.05 3.3.06 7.04l.14 140.3q.03 22.96 1.09 28.55c4.91 25.91 25.66 45 51.22 50.56q7.81 1.7 26.34 1.54 32.94-.27 89.29-.05c10.52.05 19.49-.81 28.31-4.3 11.78-4.66 23.12-12.01 30.51-22.21q12.57-17.36 12.56-39.64-.01-108.86-.01-673.28 0-11.76-.81-16.2c-2.43-13.17-9.25-25.98-18.4-35.27q-15.31-15.54-37.25-19.09c-2.81-.46-5.51-.3-8.96-.3q-92.94-.02-101.81-.15-13.39-.2-19.79 1.16c-9.79 2.09-18.87 6.21-26.68 12.48-6.69 5.38-11.32 9.87-15.35 16.54-5.55 9.21-9.71 20.2-9.95 30.86q-.22 9.42-.23 21.25-.07 393.27-.04 409.23a2.637 2.607 18.543 0 0 1.06 2.1zm-360.024 503.911q86.26.004 175.604 0 318.08-.021 320.75.079 1.66.07 2.98-.15a1.667 1.639 5.148 0 0 1.28-1.05q4.77-12.77 11-32.56 22.4-71.21 27.35-145.07a1.055 1.053-88.477 0 0-1.06-1.12q-26.31.26-52.55.22-33.961-.052-485.346-.073t-485.347.029q-26.24.038-52.55-.225a1.055 1.053 88.483 0 0-1.06 1.12q4.944 73.86 27.337 145.072 6.228 19.791 10.997 32.562a1.667 1.639-5.143 0 0 1.28 1.05q1.32.22 2.98.15 2.67-.1 320.75-.05 89.344.012 175.605.016M627.44 1505.28q-9.56 10.26-14.56 16.62-12.97 16.51-22.17 39.58c-12.63 31.67-14.49 67.43-4.5 99.91q6.87 22.32 20.28 41.93c5.09 7.45 12.49 15.85 18.43 22.77q1.36 1.58 2 4.18l.17 66.47a.301.299 82.439 0 1-.22.29l-.63.16c-22.65-6.69-45.2-14.68-66.13-25.03q-21.77-10.78-30.94-15.61c-10.08-5.31-20.43-12.32-29.16-17.72-7.1-4.4-14.7-10.21-22.1-14.93q-5.23-3.33-16.71-12.36-19.64-15.44-46.34-39.83c-2.95-2.7-3.19-3.85-3.19-7.71q-.18-163.43-.08-246.76a.7.69 0 0 0-.7-.69H240.92a.704.702 77.979 0 0-.64.99c.9 1.96 2 4.16 2.77 6.14 8.79 22.76 18.42 45.15 29.94 66.56 10.36 19.26 18.4 34.99 28.71 51.6q35.35 56.94 80.34 106.12c8.72 9.53 18.57 19.05 27.78 28.21q16.31 16.23 46.67 40.37c30.03 23.87 62.99 44.17 97.56 60.9q35 16.94 72.44 27.47 5.26 1.69 18.5 4.8 49.44 11.6 97.57 10.83 48.35-.76 98-14.68 14.85-4.25 23.89-7.39 12.02-4.18 35.04-13.45 8.97-3.61 19.72-9.08 19.16-9.73 21.42-11.06c11.63-6.86 22.43-12.65 33.13-19.67 31.6-20.72 61.99-44.52 88.89-71.08 27.84-27.49 51.68-53.84 73.37-83.84q7.2-9.95 16.96-24.05c17.91-25.89 34.62-55.79 48.4-83.33q16.13-32.24 28.81-65.85a.469.464 10.333 0 0-.44-.63h-170.54a.57.57 45 0 0-.57.57q.02 89.59 0 231.5 0 8.02-.02 17.49 0 2.67-1.31 3.84-9.73 8.75-20.07 18.15-12.58 11.44-34.28 28.2c-8.73 6.74-15.54 10.85-25.82 18.03q-8.81 6.15-18.26 11.98-14.05 8.67-18.81 11.12-7.38 3.8-32.19 15.82-23.55 11.4-47.39 18.81-8.52 2.64-17.41 5.29l-.25-67.68q5.16-6.2 10.48-12.48 6.92-8.19 10.1-12.78 27.2-39.36 27.14-87.37c-.02-15.52-2.76-32.54-7.57-46.93q-5.35-16.03-15.61-33.39-7-11.84-14.57-20.14-6.45-7.07-9.91-11.97l-.26-87.12a.94.93 0 0 0-.94-.93H627.78a.53.53-15.212 0 0-.53.53q.05 36.26.12 74.05 0 .09-.31 6.45-.18 3.65.38 7.81"></path><path fill="#fff" fill-rule="evenodd" d="M374.84 901.71a.232.228-45.573 0 0 0 .37l58.98 43.71a1.711 1.702-72.056 0 1 .7 1.38v225.62a.5.5-45 0 1-.5.5h-86.94a.78.77 90 0 1-.77-.78q.15-108.23-.02-233.12c-.01-3.56.62-6.23-3.52-6.25q-22.85-.13-58.79.07a1.05 1.05-.275 0 0-1.04 1.05v238.43a.59.58 90 0 1-.58.59h-86.33a.75.74-90 0 1-.74-.75V363.47a.29.29-56.233 0 1 .29-.29q122.75-.13 150.75-.05c14.48.05 24.95-.39 37.95.04q7.77.26 15.25 3.61 27.33 12.21 33.42 39.73 1.53 6.92 1.52 25.11-.09 233.49.01 424.32a2.676 2.666 71.672 0 1-1.07 2.14zm-90.81-31.69h61.44a.9.9-89.962 0 0 .9-.9V429.3a3.22 3.02 90 0 0-3.02-3.22h-57.2a3.22 3.02-90 0 0-3.02 3.22v439.82a.9.9 89.962 0 0 .9.9M626.53 933.81a.8.8-45 0 0-.8-.8h-61.25a1.29 1.29-45 0 0-1.29 1.29v238.68a.27.26 90 0 1-.26.27h-87.37a.59.59-89.523 0 1-.59-.6q.06-7.92-.01-749.14c0-17.2 4.14-31.16 16.09-44q15.52-16.67 38.46-16.51 42.65.29 129.5-.01 24.03-.08 40.39 17.39c8.97 9.57 13.38 21.54 14.7 34.34q.3 2.84.26 17.56-.21 88.07-.12 228.72.16 264.61-.07 488.27-.01 6.77.24 23.48a.5.49-.562 0 1-.5.5h-86.84a.54.53 0 0 1-.54-.53zm-31.682-63.742c4.966 0 19.605.318 31.255.157a.332.325-.48 0 0 .327-.325V428.65a2.467 2.46 9.448 0 0-1.67-2.33q-1.26-.42-3.474-.364-9.148.234-26.484.236t-26.484-.231q-2.213-.055-3.473.365a2.467 2.46-9.46 0 0-1.67 2.33l.091 441.25a.332.325.468 0 0 .326.326c11.651.158 26.29-.163 31.256-.164M831.52 1173.25a.41.41 38.897 0 1-.41-.41q.04-86.89-.15-205.33c0-2.74-2.69-5.12-4.75-7.05-10.62-9.93-21.02-21.19-30.72-30.62q-13.48-13.11-39.16-38.93a2.979 2.968 22.744 0 1-.86-2.09V363.49a.32.32-64.829 0 1 .32-.32h87.06a.42.42 89.301 0 1 .42.41q.16 5.81.16 7.92.17 428.68.18 515c0 2.27.84 3.67 2.53 5.36q6.52 6.52 8.95 9.02c6.73 6.96 13.88 13.27 19.54 19.74a.474.461-42.568 0 0 .68.02l29.95-29.96a4.833 4.803 67.727 0 0 1.42-3.42V363.44a.43.43-44.985 0 1 .43-.43q23.18.07 54.18.31c10.36.08 22.16-.47 33.21-.37a.61.6 90 0 1 .6.61q.08 261.98.13 523.94c0 3.87-4.82 6.78-7.31 9.27q-38.15 38.22-65.83 65.57-1.74 1.72-2.39 2.94a1.88 1.84 59.646 0 0-.22.88v206.29a.8.8-44.99 0 1-.8.8zM1095.17 899.9l-58.46-43.32a2.637 2.607 18.543 0 1-1.06-2.1q-.03-15.96.04-409.23.01-11.83.23-21.25c.24-10.66 4.4-21.65 9.95-30.86 4.03-6.67 8.66-11.16 15.35-16.54 7.81-6.27 16.89-10.39 26.68-12.48q6.4-1.36 19.79-1.16 8.87.13 101.81.15c3.45 0 6.15-.16 8.96.3q21.94 3.55 37.25 19.09c9.15 9.29 15.97 22.1 18.4 35.27q.81 4.44.81 16.2 0 564.42.01 673.28.01 22.28-12.56 39.64c-7.39 10.2-18.73 17.55-30.51 22.21-8.82 3.49-17.79 4.35-28.31 4.3q-56.35-.22-89.29.05-18.53.16-26.34-1.54c-25.56-5.56-46.31-24.65-51.22-50.56q-1.06-5.59-1.09-28.55l-.14-140.3q-.01-3.74-.06-7.04a2.883 2.878 72.559 0 1 1.26-2.42q21.35-14.5 41.64-29.96 9.65-7.35 16.85-12.39a.489.487-44.375 0 0 .01-.79m90.75 211.03a1.16 1.16 81.83 0 0 1.16-1.16V427.25a1.16 1.16 84.055 0 0-1.16-1.16h-60.85a1.16 1.16 7.709 0 0-1.16 1.16v682.52a1.16 1.16-84.14 0 0 1.16 1.16z" data-source="https://football-logos.cc"></path><path fill="#0535a0" fill-rule="evenodd" d="M1185.92 1110.93h-60.85a1.16 1.16-60.164 0 1-1.16-1.16V427.25a1.16 1.16 33.156 0 1 1.16-1.16h60.85a1.16 1.16 60.173 0 1 1.16 1.16v682.52a1.16 1.16-64.804 0 1-1.16 1.16M284.03 870.02a.9.9 89.962 0 1-.9-.9V429.3a3.22 3.02-90 0 1 3.02-3.22h57.2a3.22 3.02 90 0 1 3.02 3.22v439.82a.9.9-89.962 0 1-.9.9zM594.802 426.192q17.336-.002 26.484-.236 2.214-.056 3.474.364a2.467 2.46 9.448 0 1 1.67 2.33V869.9a.332.325-.48 0 1-.327.325c-11.65.161-26.289-.157-31.255-.157-4.966.001-19.605.322-31.256.164a.332.325.468 0 1-.326-.326l-.091-441.25a2.467 2.46-9.46 0 1 1.67-2.33q1.26-.42 3.473-.365 9.148.233 26.484.231"></path><path fill="#fccc04" fill-rule="evenodd" d="M735.154 1224.087q451.385.021 485.346.073 26.24.04 52.55-.22a1.055 1.053-88.477 0 1 1.06 1.12q-4.95 73.86-27.35 145.07-6.23 19.79-11 32.56a1.667 1.639 5.148 0 1-1.28 1.05q-1.32.22-2.98.15-2.67-.1-320.75-.079-89.344.004-175.604 0t-175.605-.016q-318.08-.05-320.75.05-1.66.07-2.98-.15a1.667 1.639-5.143 0 1-1.28-1.05q-4.769-12.771-10.997-32.562-22.393-71.212-27.337-145.072a1.055 1.053 88.483 0 1 1.06-1.12q26.31.263 52.55.225 33.962-.049 485.347-.029m302.03 93.682c.106 15.46 6.239 28.695 20.028 36.195 9.722 5.287 22.148 6.41 33.31 6.333s23.571-1.371 33.219-6.792c13.685-7.69 19.634-21.009 19.527-36.469s-6.239-28.695-20.029-36.195c-9.722-5.287-22.147-6.41-33.309-6.333s-23.572 1.372-33.22 6.793c-13.684 7.689-19.633 21.008-19.526 36.468M567.27 1276.44a.721.72 89.181 0 0-.72-.7H537.2a.9.9 89.377 0 0-.9.92q.45 19.06.02 37.37-.01.38-.02 2.89c-.01 7.2-2.57 13.43-10 15.62q-8.22 2.42-17.64 1.06c-10.05-1.45-14.89-6.58-14.78-17.1q.2-21.61-.06-37.24-.04-2.39-.82-3.01a1.632 1.623-25.182 0 0-.98-.35l-29.27-.18a.67.66 0 0 0-.67.66q.03 27.23.05 40.87.01 9.56 1.66 15.17c4.46 15.08 18.1 24.64 33.47 26.59q16.91 2.14 33.02.32c20.06-2.28 35.73-15.24 36.8-36.38q1.09-21.5.19-46.51m413.16 46.16-32.76-45.09a3.68 3.68 71.866 0 0-3-1.52q-10.83.02-37.69-.25-2.05-.02-2.07 2.26-.29 38.02-.17 76.25.01 2.55.15 4.27a.944.936-2.307 0 0 .94.86h29.22a.87.861-.955 0 0 .87-.89c-.45-14.74.56-30.53-.23-45.91a.515.513-69.577 0 1 .87-.4q2.26 2.19 3.57 3.95 12.41 16.73 29.75 39.24 2.03 2.64 2.52 3.07a2.827 2.824 67.65 0 0 2.01.84l35.71.09a1.54 1.53.377 0 0 1.54-1.51c.16-10.45.4-19.58.33-28.44q-.22-24.36-.13-41.92.02-3.21-.3-10.66a1.082 1.081 88.609 0 0-1.08-1.03h-28.37a.78.78-15.162 0 0-.78.78v45.72a.498.496 27.07 0 1-.9.29m-592.65-20.39a.373.373 41.513 0 1 .04.65l-45.27 28.83a4.038 4.034 73.711 0 0-1.86 3.4v23.18a1.07 1.06 0 0 0 1.07 1.06h91.94a1.01 1.01 74.798 0 0 1.01-1.01v-24.44a.97.97 24.138 0 0-.97-.97c-20.83-.01-46.57.24-47.03-.31a.871.854-36.66 0 1 .2-1.28q23.19-15.31 46.97-30a1.853 1.84 74.191 0 0 .87-1.57v-22.74a1.12 1.12 0 0 0-1.12-1.12h-91.47a1.18 1.18 2.951 0 0-1.18 1.18v23.79a.77.76-90 0 0 .76.77q26-.11 44.26.14.94.01 1.78.44m292.61 57.2a1.03 1.03 74.815 0 0 1.03-1.03v-24.67a1.03 1.03-78.762 0 0-1.03-1.03h-52.54a1.03 1.03-53.158 0 1-1.03-1.03v-54.86a1.03 1.03-78.762 0 0-1.03-1.03h-29.35a1.03 1.03 74.815 0 0-1.03 1.03v81.59a1.03 1.03-78.762 0 0 1.03 1.03zm58.319-82.557a1.04 1.04 0 0 0-1.042-1.038l-28.84.05a1.04 1.04 0 0 0-1.038 1.042l.142 81.5a1.04 1.04 0 0 0 1.042 1.038l28.84-.05a1.04 1.04 0 0 0 1.038-1.042zm61.733-.913a1.15 1.15-55.982 0 0-1.059.701l-34.366 81.11a1.15 1.15-73.988 0 0 1.059 1.599h31.584a1.15 1.15-85.904 0 0 1.092-.787l4.556-13.706a1.15 1.15 50.899 0 1 1.092-.787h33.667a1.15 1.15-52.465 0 1 1.065.716l5.656 13.859a1.15 1.15 3.908 0 0 1.065.715h31.635a1.15 1.15 68.206 0 0 1.065-1.585l-33.121-81.12a1.15 1.15 38.248 0 0-1.065-.715zm-492.262 89.59a.127.122-75.733 0 0 .21-.13l-13.62-33.36a.684.681 78.95 0 1 .63-.94h11.77a.42.419-9.04 0 0 .4-.55q-2.97-9.11-3.56-10.56-7.96-19.51-14.53-37.25a2.249 2.243-10.059 0 0-2.11-1.47h-29.81a.315.313-21.782 0 0-.23.53q2.23 2.3 3.55 3.89 6.95 8.38 19.23 24.36 1.14 1.48 1.43 2.64a.306.306 81.427 0 1-.28.38l-10.97.51a2.044 1.903 47.043 0 1-.28-.02l-1.44-.22a.509.508-12.865 0 0-.51.81q20.35 25.77 35.79 46.41c1.45 1.94 2.93 3.15 4.33 4.97m867.12-.46a.347.344 77.308 0 0 .58.37l39.44-51.35a.363.361 18.533 0 0-.29-.58h-11.86a.98.979 18.177 0 1-.79-1.56l22.13-29.86a.53.527 18.095 0 0-.43-.84h-27.2a2.199 2.192-79.169 0 0-2.04 1.39l-18.73 47.29a.834.824 10.729 0 0 .78 1.13h10.42a.93.926-82.153 0 1 .89 1.18q-1.96 6.89-5.27 14.39c-2.91 6.56-4.7 12.67-7.63 18.44"></path><path fill="#0535a0" fill-rule="evenodd" d="M1089.93 1274.508c11.162-.077 23.587 1.046 33.309 6.333 13.79 7.5 19.922 20.735 20.029 36.195s-5.842 28.779-19.527 36.469c-9.648 5.421-22.057 6.715-33.219 6.792s-23.588-1.046-33.31-6.333c-13.789-7.5-19.922-20.735-20.028-36.195-.107-15.46 5.842-28.779 19.526-36.468 9.648-5.421 22.058-6.716 33.22-6.793m-20.776 42.877c.013 6.998 1.965 12.68 9.06 15.119q5.458 1.876 12.039 1.864t12.032-1.908c7.086-2.465 9.018-8.154 9.005-15.151-.013-6.998-1.965-12.68-9.059-15.119q-5.458-1.876-12.039-1.864-6.582.012-12.033 1.908c-7.086 2.465-9.017 8.154-9.005 15.151M567.27 1276.44q.9 25.01-.19 46.51c-1.07 21.14-16.74 34.1-36.8 36.38q-16.11 1.82-33.02-.32c-15.37-1.95-29.01-11.51-33.47-26.59q-1.65-5.61-1.66-15.17-.02-13.64-.05-40.87a.67.66 0 0 1 .67-.66l29.27.18a1.632 1.623-25.182 0 1 .98.35q.78.62.82 3.01.26 15.63.06 37.24c-.11 10.52 4.73 15.65 14.78 17.1q9.42 1.36 17.64-1.06c7.43-2.19 9.99-8.42 10-15.62q.01-2.51.02-2.89.43-18.31-.02-37.37a.9.9 89.377 0 1 .9-.92h29.35a.721.72 89.181 0 1 .72.7M980.43 1322.6a.498.496 27.07 0 0 .9-.29v-45.72a.78.78 33.746 0 1 .78-.78h28.37a1.082 1.081 88.609 0 1 1.08 1.03q.32 7.45.3 10.66-.09 17.56.13 41.92c.07 8.86-.17 17.99-.33 28.44a1.54 1.53.377 0 1-1.54 1.51l-35.71-.09a2.827 2.824 67.65 0 1-2.01-.84q-.49-.43-2.52-3.07-17.34-22.51-29.75-39.24-1.31-1.76-3.57-3.95a.515.513-69.577 0 0-.87.4c.79 15.38-.22 31.17.23 45.91a.87.861-.955 0 1-.87.89h-29.22a.944.936-2.307 0 1-.94-.86q-.14-1.72-.15-4.27-.12-38.23.17-76.25.02-2.28 2.07-2.26 26.86.27 37.69.25a3.68 3.68 71.866 0 1 3 1.52zM387.78 1302.21q-.84-.43-1.78-.44-18.26-.25-44.26-.14a.77.76-90 0 1-.76-.77v-23.79a1.18 1.18 20.221 0 1 1.18-1.18h91.47a1.12 1.12-.159 0 1 1.12 1.12v22.74a1.853 1.84 74.191 0 1-.87 1.57q-23.78 14.69-46.97 30a.871.854-36.66 0 0-.2 1.28c.46.55 26.2.3 47.03.31a.97.97 39.95 0 1 .97.97v24.44a1.01 1.01-56.262 0 1-1.01 1.01h-91.94a1.07 1.06 0 0 1-1.07-1.06v-23.18a4.038 4.034 73.711 0 1 1.86-3.4l45.27-28.83a.373.373 41.513 0 0-.04-.65M680.39 1359.41h-83.95a1.03 1.03-53.158 0 1-1.03-1.03v-81.59a1.03 1.03-56.252 0 1 1.03-1.03h29.35a1.03 1.03-53.158 0 1 1.03 1.03v54.86a1.03 1.03-78.762 0 0 1.03 1.03h52.54a1.03 1.03-53.158 0 1 1.03 1.03v24.67a1.03 1.03-56.252 0 1-1.03 1.03M738.851 1358.353a1.04 1.04 0 0 1-1.038 1.042l-28.84.05a1.04 1.04 0 0 1-1.042-1.038l-.142-81.5a1.04 1.04 0 0 1 1.038-1.042l28.84-.05a1.04 1.04 0 0 1 1.042 1.038zM800.442 1275.94h43.925a1.15 1.15-56.479 0 1 1.065.715l33.121 81.12a1.15 1.15-69.517 0 1-1.065 1.585h-31.635a1.15 1.15-61.78 0 1-1.065-.715l-5.656-13.859a1.15 1.15 78.383 0 0-1.065-.716H804.4a1.15 1.15-9.012 0 0-1.092.787l-4.556 13.706a1.15 1.15-51.056 0 1-1.092.787h-31.584a1.15 1.15-42.109 0 1-1.059-1.599l34.366-81.11a1.15 1.15-37.579 0 1 1.059-.701m12.663 45.029a1.44 1.44-11.172 0 0 1.35 1.941h15.53a1.44 1.44-24.19 0 0 1.35-1.941l-7.765-20.938a1.44 1.44 90 0 0-2.7 0zM308.18 1365.53c-1.4-1.82-2.88-3.03-4.33-4.97q-15.44-20.64-35.79-46.41a.509.508-12.865 0 1 .51-.81l1.44.22a2.044 1.903 47.043 0 0 .28.02l10.97-.51a.306.306 81.427 0 0 .28-.38q-.29-1.16-1.43-2.64-12.28-15.98-19.23-24.36-1.32-1.59-3.55-3.89a.315.313-21.782 0 1 .23-.53h29.81a2.249 2.243-10.059 0 1 2.11 1.47q6.57 17.74 14.53 37.25.59 1.45 3.56 10.56a.42.419-9.04 0 1-.4.55H295.4a.684.681 78.95 0 0-.63.94l13.62 33.36a.127.122-75.733 0 1-.21.13M1175.3 1365.07c2.93-5.77 4.72-11.88 7.63-18.44q3.31-7.5 5.27-14.39a.93.926-82.153 0 0-.89-1.18h-10.42a.834.824 10.729 0 1-.78-1.13l18.73-47.29a2.199 2.192-79.169 0 1 2.04-1.39h27.2a.53.527 18.095 0 1 .43.84l-22.13 29.86a.98.979 18.177 0 0 .79 1.56h11.86a.363.361 18.533 0 1 .29.58l-39.44 51.35a.347.344 77.308 0 1-.58-.37"></path><path fill="#fccc04" fill-rule="evenodd" d="m813.105 1320.969 7.765-20.938a1.44 1.44-90 0 1 2.7 0l7.765 20.938a1.44 1.44 27.099 0 1-1.35 1.941h-15.53a1.44 1.44 47.19 0 1-1.35-1.941M1090.192 1300.326q6.581-.012 12.039 1.864c7.094 2.439 9.046 8.121 9.059 15.119s-1.919 12.686-9.005 15.151q-5.451 1.896-12.032 1.908t-12.039-1.864c-7.095-2.439-9.047-8.121-9.06-15.119s1.919-12.686 9.005-15.151q5.451-1.896 12.033-1.908M842.89 1504.49q-1.55-.96-3.03-1.9-1.81-1.15-2.72-1.94-12.63-10.9-19.13-14.89-24.73-15.18-54.27-21.29c-30.54-6.31-63.4-1.46-91.98 10.53q-9.54 4-15.73 8.04-14.17 9.25-28.59 22.24-.56-4.16-.38-7.81.31-6.36.31-6.45-.07-37.79-.12-74.05a.53.53 33.748 0 1 .53-.53h213.91a.94.93 0 0 1 .94.93z"></path><path fill="#fff" fill-rule="evenodd" d="m840.56 1805.86 2.21-2.85a1.37 1.323-26.75 0 0 .29-.83l.02-4.95q8.89-2.65 17.41-5.29 23.84-7.41 47.39-18.81 24.81-12.02 32.19-15.82 4.76-2.45 18.81-11.12 9.45-5.83 18.26-11.98c10.28-7.18 17.09-11.29 25.82-18.03q21.7-16.76 34.28-28.2 10.34-9.4 20.07-18.15 1.31-1.17 1.31-3.84.02-9.47.02-17.49.02-141.91 0-231.5a.57.57 45 0 1 .57-.57h170.54a.469.464 10.333 0 1 .44.63q-12.68 33.61-28.81 65.85c-13.78 27.54-30.49 57.44-48.4 83.33q-9.76 14.1-16.96 24.05c-21.69 30-45.53 56.35-73.37 83.84-26.9 26.56-57.29 50.36-88.89 71.08-10.7 7.02-21.5 12.81-33.13 19.67q-2.26 1.33-21.42 11.06-10.75 5.47-19.72 9.08-23.02 9.27-35.04 13.45-9.04 3.14-23.89 7.39M626.24 1797.19q1.04-.23 1.12.17.2 1-.33 1.85-1.86 2.93-.09 3.9a.89.876-78.967 0 1 .45.68q.1.97-.9 1.12-37.44-10.53-72.44-27.47c-34.57-16.73-67.53-37.03-97.56-60.9q-30.36-24.14-46.67-40.37c-9.21-9.16-19.06-18.68-27.78-28.21q-44.99-49.18-80.34-106.12c-10.31-16.61-18.35-32.34-28.71-51.6-11.52-21.41-21.15-43.8-29.94-66.56-.77-1.98-1.87-4.18-2.77-6.14a.704.702 77.979 0 1 .64-.99h169.97a.7.69 0 0 1 .7.69q-.1 83.33.08 246.76c0 3.86.24 5.01 3.19 7.71q26.7 24.39 46.34 39.83 11.48 9.03 16.71 12.36c7.4 4.72 15 10.53 22.1 14.93 8.73 5.4 19.08 12.41 29.16 17.72q9.17 4.83 30.94 15.61c20.93 10.35 43.48 18.34 66.13 25.03M842.89 1504.49q3.46 4.9 9.91 11.97 7.57 8.3 14.57 20.14 10.26 17.36 15.61 33.39c4.81 14.39 7.55 31.41 7.57 46.93q.06 48.01-27.14 87.37-3.18 4.59-10.1 12.78-5.32 6.28-10.48 12.48-3.02.84-4.94 2.87c-5.21 5.46-9.06 7.76-17.12 13.96q-6.12 4.71-12.14 7.89-9.17 4.85-14.76 6.87-15.2 5.48-36.43 9.38c-15.44 2.84-30.31 2.84-44.9.18-22.45-4.08-41.81-9.7-59.16-21.85q-13.76-9.64-23.4-18.31-1.14-1.03-3.06-.27-.64-2.6-2-4.18c-5.94-6.92-13.34-15.32-18.43-22.77q-13.41-19.61-20.28-41.93c-9.99-32.48-8.13-68.24 4.5-99.91q9.2-23.07 22.17-39.58 5-6.36 14.56-16.62 14.42-12.99 28.59-22.24 6.19-4.04 15.73-8.04c28.58-11.99 61.44-16.84 91.98-10.53q29.54 6.11 54.27 21.29 6.5 3.99 19.13 14.89.91.79 2.72 1.94 1.48.94 3.03 1.9m-142.54-23.5a.394.394 50.731 0 0-.07.7q13.89 8.76 26.23 17.31 2.87 1.99 7.58 4.47a1.92 1.915 41.763 0 0 1.99-.11l32.19-22.25a.498.495 34.327 0 0-.17-.89q-32.42-7.72-64.37-.26-1.76.41-3.38 1.03m128.29 99.52a2.445 2.422-9.199 0 0 1.34-1.84l7.82-56.8a3.082 3.068-64.085 0 0-.9-2.62q-18.11-17.54-40.29-28.86-4.04-2.06-7.45-3.03a3.155 3.142-54.422 0 0-2.62.44l-42.35 29.26a2.549 2.546 72.575 0 0-1.09 2.09v41.32a2.34 2.34 18.193 0 0 .95 1.88q16.84 12.31 32.01 23.13c4.11 2.93 7.37 6.68 11.01 5.64q20.83-5.99 40.79-10.31a2.721 2.539-62.925 0 0 .58-.21zm-148.8-92.62q-4.73 1.56-6.44 2.48-22.43 12.04-39.8 29.73-1.76 1.79-1.48 3.73 4.86 33.9 8.05 54.78a2.757 2.754-88.482 0 0 2.16 2.28q21.2 4.48 40.92 10.11c4.74 1.36 7.92-3.01 11.36-5.56q20.74-15.32 31.78-22.93a2.282 2.28-17.259 0 0 .99-1.88v-40.29a3.235 3.213-73.666 0 0-1.47-2.71l-45.4-29.66a.794.765-37.155 0 0-.67-.08m196.97 128.39a.436.429-1.096 0 0 .46-.47q-.91-9.57-1.43-14.27c-2.11-19.16-8.61-38.06-18.01-55.08q-2.54-4.6-5.2-8.11a.622.622-59.618 0 0-1.11.29l-6.13 44.52a2.996 2.985 26.6 0 0 .84 2.51c12.73 12.74 21.49 21.34 28.99 29.72q.75.84 1.59.89m-258.38-76.59a.509.507-33.3 0 0-.93-.19c-8.12 12.62-15.18 26.91-19.11 41.85q-2.88 10.95-4.37 29.16-.22 2.67.03 4.36a.447.446 63.153 0 0 .76.25l29.86-29.85a2.503 2.496 63.039 0 0 .7-2.16zm116.848 107.116q10.553.023 22.561-.082a1.16 1.16 8.855 0 0 1.101-.804l13.78-41.43a1.802 1.799 27.999 0 0-.61-1.99q-21.03-16.04-31.69-23.89-2.17-1.59-4.714-2.725-.117-.052-.273-.052t-.273.051q-2.549 1.124-4.726 2.704-10.694 7.803-31.794 23.751a1.802 1.799-27.748 0 0-.619 1.987l13.598 41.49a1.16 1.16-8.604 0 0 1.098.809q12.007.158 22.561.181m-52.788-38.916a2.397 2.392-3.634 0 0-1.65-1.45l-42.1-10.54a3.372 3.36-58.716 0 0-3.05.75q-1.51 1.34-3.87 3.68-18.79 18.7-33.15 32.95c-1.61 1.6-3.31 2.97-3.38 5.23q-.01.58.9 5.54 4.03 21.78 15.3 41.72a2.841 2.83-9.873 0 0 1.97 1.38q15.27 2.61 46.54 8.86 4.02.8 8.53 1.16a1.666 1.656-71.24 0 0 1.53-.76q12.2-19.19 26.45-41.39 1.07-1.66.4-3.67-4.88-14.84-9.52-29.51-2.43-7.68-4.9-13.95m119.53 89.42 56.25-10.07a1.399 1.371 20.554 0 0 .61-.27q.69-.5 2.37-3.95 9.95-20.37 13.81-42 .56-3.12-1.53-5.27-17.04-17.61-38.69-39.29a2.472 2.463 61.413 0 0-2.26-.67q-1.41.29-3.12.72-31.1 7.78-38.81 9.56-2.27.52-2.87 2.26-4.56 13.16-14.17 43.48a2.996 2.96 37.828 0 0 .33 2.5l27.12 42.57a.949.935 68.717 0 0 .96.43m-119.27 7.95a2.226 2.223-43.304 0 0-.07 2.3l26.77 47.53a1.495 1.467-85.062 0 0 .33.4q1.91 1.59 4.12 1.93 21.18 3.27 44.03.1c1.62-.23 3.63-1.08 4.34-2.5 7.19-14.42 15.7-29.35 25.42-46.91a3.099 3.093 43.429 0 0-.09-3.17l-26.53-41.64a2.075 2.07-16.175 0 0-1.75-.96h-47.73a1.478 1.451 16.254 0 0-1.23.66zm-58.47.88q25.36 30.1 62.14 44.66 1.32.52 2.01.37a.525.521 69.072 0 0 .34-.77q-11.53-20.67-18.99-33.46c-1.06-1.81-2.73-3.75-4.61-4.11q-23.53-4.51-40.52-7.34a.399.398 74.68 0 0-.37.65m179.478 7.379q-.96.679-1.919 2.327-8.719 14.994-17.319 30.414-1.36 2.45-2.05 4.32a.478.477 89.77 0 0 .614.611c12.396-4.571 23.55-10.714 34.337-18.336 10.787-7.623 20.302-16.085 28.75-26.243a.478.477 19.737 0 0-.371-.783q-1.993.026-4.757.49-17.407 2.957-34.451 6.169-1.874.353-2.834 1.031"></path><path fill="#0535a0" fill-rule="evenodd" d="M700.35 1480.99q1.62-.62 3.38-1.03 31.95-7.46 64.37.26a.498.495 34.327 0 1 .17.89l-32.19 22.25a1.92 1.915 41.763 0 1-1.99.11q-4.71-2.48-7.58-4.47-12.34-8.55-26.23-17.31a.394.394 50.731 0 1 .07-.7M828.64 1580.51l-.2.09a2.721 2.539-62.925 0 1-.58.21q-19.96 4.32-40.79 10.31c-3.64 1.04-6.9-2.71-11.01-5.64q-15.17-10.82-32.01-23.13a2.34 2.34 18.193 0 1-.95-1.88v-41.32a2.549 2.546 72.575 0 1 1.09-2.09l42.35-29.26a3.155 3.142-54.422 0 1 2.62-.44q3.41.97 7.45 3.03 22.18 11.32 40.29 28.86a3.082 3.068-64.085 0 1 .9 2.62l-7.82 56.8a2.445 2.422-9.199 0 1-1.34 1.84M680.51 1487.97l45.4 29.66a3.235 3.213-73.666 0 1 1.47 2.71v40.29a2.282 2.28-17.259 0 1-.99 1.88q-11.04 7.61-31.78 22.93c-3.44 2.55-6.62 6.92-11.36 5.56q-19.72-5.63-40.92-10.11a2.757 2.754-88.482 0 1-2.16-2.28q-3.19-20.88-8.05-54.78-.28-1.94 1.48-3.73 17.37-17.69 39.8-29.73 1.71-.92 6.44-2.48a.794.765-37.155 0 1 .67.08M876.81 1616.28q-.84-.05-1.59-.89c-7.5-8.38-16.26-16.98-28.99-29.72a2.996 2.985 26.6 0 1-.84-2.51l6.13-44.52a.622.622-59.618 0 1 1.11-.29q2.66 3.51 5.2 8.11c9.4 17.02 15.9 35.92 18.01 55.08q.52 4.7 1.43 14.27a.436.429-1.096 0 1-.46.47M618.43 1539.69l6.94 43.42a2.503 2.496 63.039 0 1-.7 2.16l-29.86 29.85a.447.446 63.153 0 1-.76-.25q-.25-1.69-.03-4.36 1.49-18.21 4.37-29.16c3.93-14.94 10.99-29.23 19.11-41.85a.509.507-33.3 0 1 .93.19M735.433 1575.833q.156 0 .273.052 2.544 1.135 4.714 2.725 10.66 7.85 31.69 23.89a1.802 1.799 27.999 0 1 .61 1.99l-13.78 41.43a1.16 1.16 8.855 0 1-1.101.804q-12.008.105-22.561.082t-22.561-.181a1.16 1.16-8.604 0 1-1.098-.809l-13.598-41.49a1.802 1.799-27.748 0 1 .619-1.987q21.1-15.948 31.794-23.751 2.177-1.58 4.726-2.704.117-.051.273-.051M682.49 1607.89q2.47 6.27 4.9 13.95 4.64 14.67 9.52 29.51.67 2.01-.4 3.67-14.25 22.2-26.45 41.39a1.666 1.656-71.24 0 1-1.53.76q-4.51-.36-8.53-1.16-31.27-6.25-46.54-8.86a2.841 2.83-9.873 0 1-1.97-1.38q-11.27-19.94-15.3-41.72-.91-4.96-.9-5.54c.07-2.26 1.77-3.63 3.38-5.23q14.36-14.25 33.15-32.95 2.36-2.34 3.87-3.68a3.372 3.36-58.716 0 1 3.05-.75l42.1 10.54a2.397 2.392-3.634 0 1 1.65 1.45M802.02 1697.31a.949.935 68.717 0 1-.96-.43l-27.12-42.57a2.996 2.96 37.828 0 1-.33-2.5q9.61-30.32 14.17-43.48.6-1.74 2.87-2.26 7.71-1.78 38.81-9.56 1.71-.43 3.12-.72a2.472 2.463 61.413 0 1 2.26.67q21.65 21.68 38.69 39.29 2.09 2.15 1.53 5.27-3.86 21.63-13.81 42-1.68 3.45-2.37 3.95a1.399 1.371 20.554 0 1-.61.27zM682.75 1705.26l27.61-42.26a1.478 1.451 16.254 0 1 1.23-.66h47.73a2.075 2.07-16.175 0 1 1.75.96l26.53 41.64a3.099 3.093 43.429 0 1 .09 3.17c-9.72 17.56-18.23 32.49-25.42 46.91-.71 1.42-2.72 2.27-4.34 2.5q-22.85 3.17-44.03-.1-2.21-.34-4.12-1.93a1.495 1.467-85.062 0 1-.33-.4l-26.77-47.53a2.226 2.223-43.304 0 1 .07-2.3M624.28 1706.14a.399.398 74.68 0 1 .37-.65q16.99 2.83 40.52 7.34c1.88.36 3.55 2.3 4.61 4.11q7.46 12.79 18.99 33.46a.525.521 69.072 0 1-.34.77q-.69.15-2.01-.37-36.78-14.56-62.14-44.66M817.421 1732.855c-10.787 7.622-21.941 13.765-34.337 18.336a.478.477 89.77 0 1-.614-.611q.69-1.87 2.05-4.32 8.6-15.42 17.319-30.414.959-1.648 1.919-2.327.96-.678 2.834-1.031 17.044-3.212 34.451-6.169 2.764-.464 4.757-.49a.478.477 19.737 0 1 .371.783c-8.448 10.158-17.963 18.62-28.75 26.243"></path><path fill="#fccc04" fill-rule="evenodd" d="m842.83 1729.55.25 67.68-.02 4.95a1.37 1.323-26.75 0 1-.29.83l-2.21 2.85q-49.65 13.92-98 14.68-48.13.77-97.57-10.83-13.24-3.11-18.5-4.8 1-.15.9-1.12a.89.876-78.967 0 0-.45-.68q-1.77-.97.09-3.9.53-.85.33-1.85-.08-.4-1.12-.17l.63-.16a.301.299 82.439 0 0 .22-.29l-.17-66.47q1.92-.76 3.06.27 9.64 8.67 23.4 18.31c17.35 12.15 36.71 17.77 59.16 21.85 14.59 2.66 29.46 2.66 44.9-.18q21.23-3.9 36.43-9.38 5.59-2.02 14.76-6.87 6.02-3.18 12.14-7.89c8.06-6.2 11.91-8.5 17.12-13.96q1.92-2.03 4.94-2.87" data-source="https://football-logos.cc"></path><!-- source: https://football-logos.cc --></svg>