<svg xmlns="http://www.w3.org/2000/svg" viewBox="40.2 29.39 943.94 1463.99"><metadata xmlns:fl="https://football-logos.cc/bolivia/real-tomayapo">dl1_92d4f9f2e20e142130a5e2d65c5c57ec7084dc2f6227b24b712fb882e2b0d707</metadata><!-- Source: https://football-logos.cc --><path fill="#feeb01" fill-rule="evenodd" d="M606.36 97.34a.258.258-42.183 0 1 .14.44c-4.34 4.24-9.25 8.13-13.37 12.25q-3.53 3.53-33.16 32.37a1.789 1.785-26.725 0 0-.52 1.57l10.67 63.73a.491.487 9.081 0 1-.71.51q-18.38-9.55-32.5-17.91c-7.27-4.29-15.37-8.51-23.37-13.34a1.4 1.396-43.679 0 0-1.4-.03q-28.93 16.06-51.07 28.65-1.77 1-5.53 2.61a.503.498-6.675 0 1-.69-.54l10.89-63.8a1.48 1.48-62.933 0 0-.43-1.33l-46.08-44.51a.234.23 62.146 0 1 .12-.4l63.5-10.03a.749.738 8.551 0 0 .55-.4l29.12-57.66a.235.235 0 0 1 .42 0l28.65 57.58a1.001.979 80.727 0 0 .72.53z" data-source="https://football-logos.cc"></path><path fill="#fefefe" fill-rule="evenodd" d="M40.54 329.93q.47-1.66 2.36-2.6 6.08-3.02 13.58-5.62 35.12-12.2 65.79-22.67 87.24-29.78 191.43-65.93c13.4-4.64 25.22-9.12 35.64-11.69q3-.75 8.67.29 26.99 4.91 54.56 10.59c34.06 7.02 68.68 13.83 94.12 19.03 3.92.8 6.9.91 11.05.07q57.41-11.66 121.89-24.73 11.56-2.34 24.25-4.52c4.15-.72 6.53-.9 10.45.14q10.18 2.72 19.85 6.03 24.08 8.22 46.01 15.5 16.37 5.44 29.45 10.16c11.85 4.29 25.93 8.45 39.32 13.32 14.54 5.28 30.21 10.21 48.29 16.41q46.2 15.85 107.05 36.25 10.36 3.47 17.6 7.37 2.22 1.2 2.22 4.18.05 122.63-.08 336.66c-.01 25.17-.79 54.59-1.17 70.36q-.98 40.33-5.12 84.22-3.9 41.38-11.72 80.61-14.68 73.6-44.22 140.04-5.34 12.02-6.47 14.49-19.13 42.04-46.13 83.08-22.39 34.05-46.38 63.37-22.08 26.98-43.93 50.32c-6.79 7.26-12.24 13.47-18.93 20.39-13.71 14.19-25.62 27-41.03 42.62q-9.25 9.37-20.44 20.07-24.35 23.28-28.99 27.52-42.8 39.09-90.89 78.6c-20.63 16.95-44.43 34.92-61.86 47.87q-4.7 3.49-9.89-.38-42.34-31.51-60.16-46.38-32.15-26.82-33.82-28.2-13.37-11.12-30.24-26.17-32.13-28.68-64.83-60.43c-2.93-2.84-6.21-6.44-9.47-9.54q-6.74-6.38-13.56-13.86c-1.88-2.06-4.95-4.7-7.39-7.26-22.79-23.93-45.18-47.76-66.8-72.39q-24.72-28.16-41.06-50.68c-18-24.8-33.49-47.72-47.87-73.56-30.76-55.26-54.39-115.21-68.54-176.7q-9.52-41.37-14.19-80.62c-6.68-56.13-8.6-110.58-8.65-169.56q-.13-144.2-.08-343.74 0-1.17.33-2.33m7.64 5.07q-.18 18.7-.17 26.75.08 35.97.09 280.25c0 39.99.02 78.91 1.81 119.75 1.92 44.03 6.28 89.45 14.7 134.2q5.89 31.31 15.6 63.67c11.85 39.51 26.84 77.21 45.14 113.59 11.97 23.79 25.24 46.67 40.64 69.6q21.05 31.33 45.08 60.46 17.26 20.91 50.16 56.42 39.81 42.97 83.07 84.13 30.74 29.25 57.14 52.23 30.86 26.86 79.88 65.52 14.61 11.52 26.71 20.3 1.64 1.19 3.44 1.62a2.603 2.594-56.063 0 0 2.13-.42q29.69-21.43 57.78-44.44 26.95-22.08 51.89-43.38c7.81-6.67 13.83-12.36 21.2-18.77q5.87-5.11 34.89-32.37 19.95-18.75 30.63-29.62 48.29-49.15 80.22-85.01 6.02-6.75 7.94-8.83c13.02-14.05 29.68-35.66 43.49-54.47q21.94-29.86 43.08-66.68 6.97-12.14 12.43-23.45c1.02-2.11 2.67-4.61 3.76-6.89 7.08-14.73 16.68-34.86 23.45-52.78q8.56-22.66 14.17-39.55 10.84-32.63 17.98-66.53 6.37-30.25 9.91-57.31 4-30.47 6.22-65.99 2.62-41.79 3.1-87.5.37-35.25.41-65.5.09-70.67.07-293.97c0-5.12.77-7.35-4.18-9.03q-23.13-7.81-75.34-25.58-2.82-.96-77.82-26.43-84.75-28.78-117.12-39.72-18.84-6.36-29.71-9.87a6.647 6.522-39.579 0 0-2.93-.25q-6.95.96-15 2.51-8.2 1.58-135.67 27.51-6.22 1.26-10.16.47-53.98-10.87-101.23-20.43-31.86-6.45-53.12-10.53a4.232 4.056 46.213 0 0-1.18-.05q-1.92.19-4.54 1.05-30.92 10.09-73.46 25.14-25.89 9.15-40.23 14.04-15.99 5.46-22.41 7.64-16.25 5.51-31.47 10.87c-20.24 7.13-33.83 11.54-52.74 18.21q-6.35 2.24-21.27 7.27-38.32 12.92-55.99 19.56-2.45.92-2.47 2.59"></path><path fill="#01823e" fill-rule="evenodd" d="M48.18 335q.02-1.67 2.47-2.59 17.67-6.64 55.99-19.56 14.92-5.03 21.27-7.27c18.91-6.67 32.5-11.08 52.74-18.21q15.22-5.36 31.47-10.87 6.42-2.18 22.41-7.64 14.34-4.89 40.23-14.04 42.54-15.05 73.46-25.14 2.62-.86 4.54-1.05a4.232 4.056 46.213 0 1 1.18.05q21.26 4.08 53.12 10.53 47.25 9.56 101.23 20.43 3.94.79 10.16-.47 127.47-25.93 135.67-27.51 8.05-1.55 15-2.51a6.647 6.522-39.579 0 1 2.93.25q10.87 3.51 29.71 9.87 32.37 10.94 117.12 39.72 75 25.47 77.82 26.43 52.21 17.77 75.34 25.58c4.95 1.68 4.18 3.91 4.18 9.03q.02 223.3-.07 293.97-.04 30.25-.41 65.5-.48 45.71-3.1 87.5-2.22 35.52-6.22 65.99-3.54 27.06-9.91 57.31-7.14 33.9-17.98 66.53-5.61 16.89-14.17 39.55c-6.77 17.92-16.37 38.05-23.45 52.78-1.09 2.28-2.74 4.78-3.76 6.89q-5.46 11.31-12.43 23.45-21.14 36.82-43.08 66.68c-13.81 18.81-30.47 40.42-43.49 54.47q-1.92 2.08-7.94 8.83-31.93 35.86-80.22 85.01-10.68 10.87-30.63 29.62-29.02 27.26-34.89 32.37c-7.37 6.41-13.39 12.1-21.2 18.77q-24.94 21.3-51.89 43.38-28.09 23.01-57.78 44.44a2.603 2.594-56.063 0 1-2.13.42q-1.8-.43-3.44-1.62-12.1-8.78-26.71-20.3-49.02-38.66-79.88-65.52-26.4-22.98-57.14-52.23-43.26-41.16-83.07-84.13-32.9-35.51-50.16-56.42-24.03-29.13-45.08-60.46c-15.4-22.93-28.67-45.81-40.64-69.6-18.3-36.38-33.29-74.08-45.14-113.59q-9.71-32.36-15.6-63.67c-8.42-44.75-12.78-90.17-14.7-134.2-1.79-40.84-1.81-79.76-1.81-119.75q-.01-244.28-.09-280.25-.01-8.05.17-26.75m908.9 10.24q-2.45-1.25-3.5-1.61-65.7-22.32-87.82-29.71-16.4-5.47-181.33-61.64-12.63-4.31-13.44-4.5a5.93 5.92 48.993 0 0-1.84-.13q-2.76.24-6.53.95-47.52 9.03-98.76 19.64c-9.92 2.05-19.31 3.77-34.53 6.78-11.11 2.21-18.89 3.01-28.9 1.07q-40.38-7.86-75.09-14.93c-21.69-4.41-42.78-8.2-61.45-12.28q-4.72-1.04-9.43-1.7a5.736 5.667 40.774 0 0-2.36.16q-3.92 1.12-9.82 3.34c-5.83 2.2-12.4 4.11-17.31 5.82q-94.06 32.66-194.54 67.31-6.92 2.38-14.32 4.78-6.37 2.06-14.3 4.87-3.06 1.09-30.41 10.5-2.34.8-4.12 1.82a1.745 1.743-14.677 0 0-.89 1.52c-.04 101.43-.27 232.71.32 358.45q.08 16.48.63 33.01.85 25.67 1.2 32.98 1.43 29.96 4.72 61.93.58 5.62 2.06 15.63c2 13.47 3.7 26.2 6.28 38.95q10.98 54.33 28.53 102.43 18.92 51.84 47.87 102.66 16.76 29.42 37.43 58 21.17 29.29 42.93 54.15 42 48 89.61 95.36 14.32 14.24 34.89 33.54 24.69 23.17 35.95 33.16 21.61 19.17 30.28 26.47 16.15 13.59 27.83 23.15c17.25 14.12 36.31 28.49 53.9 41.62a1.806 1.795-44.821 0 0 2.15 0q13.94-10.38 25.59-19.1 12.35-9.24 25.11-19.74 25.22-20.76 29.15-24.13 63.15-54.13 123.22-115.28 23.76-24.18 45.97-48.28 23.17-25.14 41.84-47.95 11.95-14.61 22.85-29.95 14.43-20.3 21.4-31 15.02-23.05 34.62-60.12 1.84-3.46 4.74-9.76.78-1.7 4.61-9.83 36.37-77.18 52.05-163.94 2.03-11.24 4.29-27.99 2.65-19.55 3.43-28.1 5.52-60.47 5.72-112.87.46-125.7.29-359.98 0-4.63-.06-4.76a1.56 1.498-88.839 0 0-.71-.77"></path><path fill="#fefefe" fill-rule="evenodd" d="M957.79 346.01q.06.13.06 4.76.17 234.28-.29 359.98-.2 52.4-5.72 112.87-.78 8.55-3.43 28.1-2.26 16.75-4.29 27.99-15.68 86.76-52.05 163.94-3.83 8.13-4.61 9.83-2.9 6.3-4.74 9.76-19.6 37.07-34.62 60.12-6.97 10.7-21.4 31-10.9 15.34-22.85 29.95-18.67 22.81-41.84 47.95-22.21 24.1-45.97 48.28-60.07 61.15-123.22 115.28-3.93 3.37-29.15 24.13-12.76 10.5-25.11 19.74-11.65 8.72-25.59 19.1a1.806 1.795-44.821 0 1-2.15 0c-17.59-13.13-36.65-27.5-53.9-41.62q-11.68-9.56-27.83-23.15-8.67-7.3-30.28-26.47-11.26-9.99-35.95-33.16-20.57-19.3-34.89-33.54-47.61-47.36-89.61-95.36-21.76-24.86-42.93-54.15-20.67-28.58-37.43-58-28.95-50.82-47.87-102.66-17.55-48.1-28.53-102.43c-2.58-12.75-4.28-25.48-6.28-38.95q-1.48-10.01-2.06-15.63-3.29-31.97-4.72-61.93-.35-7.31-1.2-32.98-.55-16.53-.63-33.01c-.59-125.74-.36-257.02-.32-358.45a1.745 1.743-14.677 0 1 .89-1.52q1.78-1.02 4.12-1.82 27.35-9.41 30.41-10.5 7.93-2.81 14.3-4.87 7.4-2.4 14.32-4.78 100.48-34.65 194.54-67.31c4.91-1.71 11.48-3.62 17.31-5.82q5.9-2.22 9.82-3.34a5.736 5.667 40.774 0 1 2.36-.16q4.71.66 9.43 1.7c18.67 4.08 39.76 7.87 61.45 12.28q34.71 7.07 75.09 14.93c10.01 1.94 17.79 1.14 28.9-1.07 15.22-3.01 24.61-4.73 34.53-6.78q51.24-10.61 98.76-19.64 3.77-.71 6.53-.95a5.93 5.92 48.993 0 1 1.84.13q.81.19 13.44 4.5 164.93 56.17 181.33 61.64 22.12 7.39 87.82 29.71 1.05.36 3.5 1.61a1.56 1.498-88.839 0 1 .71.77M659.11 707.03l-1.29-3a1.292 1.289 78.062 0 0-1.18-.77h-15.43a.453.451 77.763 0 0-.41.64q2.61 5.87 14 31.05 3.17 7.01 4.95 11.83.2.54.09 1.18l-.44 508.26a.48.476-17.258 0 0 .75.39q33.66-23.34 63.76-52.93 45.91-45.13 81.82-100.2 44.58-68.38 71.5-144.19.59-1.66 4.39-12.79c3.96-11.58 7.58-25.04 10.1-33.94q10.57-37.31 16.73-79.81 4.59-31.69 7.8-83.2.03-.44 1.09-26.25c1.29-31.4 1.15-65.54 1.14-99.07q-.05-136.4-.03-248.59a1.004.991-81.871 0 0-.71-.96q-11.74-3.61-21.91-7.27-47.92-17.22-235.8-85.01a.333.332 10.371 0 0-.45.31q-.02 205.71-.05 411.54 0 9.03-.42 12.78m-295.37 69.89 25.76-.23a.33.33-.895 0 0 .32-.33V764.8a.48.47.623 0 0-.47-.47q-15.51-.03-25.84-.01-.53 0-.53-.54.25-.33.25-.55c.06-38.09.39-78.66.39-114.31q0-342.73.02-365.61a.296.291 80.265 0 0-.39-.28L106 376.19a1.03 1.022-10.308 0 0-.67.96q-.02 164.82.01 282.08c.01 30.72.95 59.58 2.46 89.02q2.74 53.56 9.62 95.96.05.33 2.9 16.03 6.83 37.58 19.08 76.43.85 2.67 6.26 18.73c8.59 25.48 20.45 53.21 33.88 80.35q7.42 15 21.98 40.28 6.67 11.58 23.27 36.88 6.28 9.57 16.33 22.92c11.39 15.11 19.93 25.5 30.67 37.74q40.72 46.39 91.27 82.78a.293.29-72.312 0 0 .46-.24zm291.78-385.09a.417.415 5.185 0 0-.41-.49q-30.64.04-155.13.02c-3.58 0-5.93-.39-8.01-3.06q-5.14-6.58-11.78-10.63a.595.589 29.371 0 0-.84.23c-1.98 3.86-4.1 7.88-7.2 10.88q-5.71 5.52-12.83 9.75a2.211 2.139 29.09 0 1-1.16.31c-7.07 0-11.93-11.43-17.65-14.11-10.23-4.8-16.7 2.58-24.01 7.99q-4.42 3.28-9.01-.04c-4.36-3.16-7.69-7.44-14.31-6.87-4.17.35-7.57 1.12-7.86 5.91q-1.64 26.8-3.01 40.78-.5 5.18-2.88 12.88c-4.32 13.98-25.18 32.9-4.73 43.21 6.16 3.11 11.3 4.88 18.39 6.44q10.76 2.37 21.21 4.91c8.39 2.03 15.11 3.95 21.86 8.98 4.87 3.63 8.07 9.91 10.32 15.61q8.19 20.75 12.34 29.92 2.02 4.45 7.21 4.83c7.49.55 8.78-3.62 11.52-10.34q13.72-33.61 23.82-56.85a1.76 1.753 11.789 0 1 1.61-1.05l83.58-.07a2.407 2.392 76.449 0 1 2.16 1.33l4.82 8.92c3.96 7.33 8.91 12.45 17.44 9.28a2.17 2.157 4.815 0 0 1.12-.94q1.42-2.38 2.43-5.07 13.23-35.03 26.01-70.24.3-.81 2.04-5.59 9.06-24.83 11.8-32.53.76-2.15 1.14-4.3M423.34 628.98q-3.89 14.49-19.09 11.98c-8.6-1.42-12.79-10.08-13.72-18.01-1.35-11.43 1.46-26.48 14.61-28.52 8.46-1.31 15.89 2.97 18.1 11.38a.808.807 82.522 0 0 .78.6h13.27a.49.49 84.627 0 0 .48-.58q-2.75-14.86-15.12-20.81c-11.5-5.54-28.9-3.37-37.44 6.17q-6.01 6.71-8.08 14.63c-4.28 16.4-.52 36.58 15.8 44.72 7.2 3.59 16.89 4.35 24.32 2.14q17.33-5.15 20.7-23.9a.548.547 4.872 0 0-.54-.64h-12.98a1.127 1.125 7.324 0 0-1.09.84m186.747-.048q-3.888 14.508-19.106 12.003c-8.611-1.418-12.81-10.086-13.745-18.024-1.357-11.442 1.449-26.511 14.613-28.56 8.469-1.315 15.91 2.966 18.126 11.385a.809.808 82.495 0 0 .782.6l13.285-.006a.49.49 84.6 0 0 .48-.581q-2.76-14.876-15.147-20.827c-11.516-5.541-28.935-3.36-37.48 6.195q-6.013 6.721-8.082 14.651c-4.277 16.42-.503 36.622 15.839 44.763 7.21 3.591 16.912 4.347 24.349 2.131q17.347-5.164 20.712-23.937a.548.548 4.844 0 0-.541-.641l-12.995.006a1.129 1.126 7.296 0 0-1.09.842M471.66 584.07v67.97a.45.45 81.857 0 0 .45.45q23.44-.03 27.64-.12c22.63-.49 32.14-18.14 30.75-38.61-1.31-19.29-12.19-29.62-31.51-30.04q-8.6-.19-26.87-.11a.46.46-84.133 0 0-.46.46m-11.621 55.038a.75.75 0 0 0-.751-.749l-12.62.022a.75.75 0 0 0-.749.751l.022 12.62a.75.75 0 0 0 .751.749l12.62-.022a.75.75 0 0 0 .749-.751zm93.25.14a.71.71 0 0 0-.711-.709l-12.5.022a.71.71 0 0 0-.709.711l.022 12.48a.71.71 0 0 0 .711.709l12.5-.022a.71.71 0 0 0 .709-.711zm93.49.03a.83.83 0 0 0-.831-.829l-12.46.022a.83.83 0 0 0-.829.831l.022 12.46a.83.83 0 0 0 .831.829l12.46-.022a.83.83 0 0 0 .829-.831zm-187.52 100.766c.045 18.796.196 38.021 25.187 37.961 24.992-.06 25.051-19.285 25.006-38.081-.045-18.795-.196-38.02-25.188-37.96s-25.05 19.285-25.005 38.08M431.215 776.7q4.493 0 7.139-.113a.517.513 89.05 0 0 .496-.517v-60.13a.59.59 45 0 1 .59-.59h16.27a.37.37 74.802 0 0 .37-.37v-11.05a.499.495-89.466 0 0-.486-.499q-4.392-.121-24.386-.119-19.995.002-24.387.124a.499.495 89.454 0 0-.486.499l.002 11.05a.37.37 87.55 0 0 .37.37l16.27-.003a.59.59 89.983 0 1 .591.59l.012 60.13a.517.513-89.061 0 0 .496.516q2.646.112 7.139.112m101.375-58.25 11.93 57.66a.727.712 84.031 0 0 .7.58h13.12a.378.373 5.579 0 0 .37-.3l12.17-58a.234.23-39.558 0 1 .46.04v58.04a.24.23 0 0 0 .24.23h13.38a.7.7 45 0 0 .7-.7v-72.14a.57.57-84.163 0 0-.57-.57h-21.55a.211.205-82.765 0 0-.2.16l-11.24 49.94a.185.183-44.651 0 1-.36 0l-10.27-49.7a.52.52-6.187 0 0-.51-.41h-22.01a.69.68-90 0 0-.68.69v72a.64.64 87.552 0 0 .64.64h13.08a.44.44-84.161 0 0 .44-.44v-57.71a.082.079 40.339 0 1 .16-.01m87.987 42.339q9.183-.019 9.478.024a1.14 1.133 87.776 0 1 .945.879l3.12 13.916a1.459 1.455-6.242 0 0 1.428 1.143l13.434-.029a.936.932 82.093 0 0 .895-1.188l-19.592-71.466a.965.959-7.596 0 0-.937-.712q-4.408.02-8.89.03t-8.891.007a.965.959 7.356 0 0-.935.716l-19.292 71.547a.936.932-82.333 0 0 .899 1.185l13.435-.027a1.459 1.455 6.002 0 0 1.423-1.149l3.062-13.929a1.14 1.133-88.016 0 1 .94-.883q.295-.045 9.478-.064M641.23 996.76a129.62 129.62 0 0 0-129.62-129.62 129.62 129.62 0 0 0-129.62 129.62 129.62 129.62 0 0 0 129.62 129.62 129.62 129.62 0 0 0 129.62-129.62M429.17 1204.6v1.88a.56.55-90 0 0 .55.56h5.2a.74.74-15.213 0 0 .74-.74v-33.33a.6.6-82.281 0 0-.6-.6h-5.1a.76.75 0 0 0-.76.75v12.01a.287.287 25.529 0 1-.51.18c-4.34-5.36-12.26-4.38-15.78 1.44-3.67 6.08-2.79 16.61 4.21 19.83q6.24 2.88 11.61-2.17a.262.261-21.552 0 1 .44.19m111.91-.01c3.52 4.18 9.95 3.88 13.85.3 6.06-5.55 5.13-20.31-3.97-22.71q-6.4-1.68-10.18 3.21a.229.228 63.714 0 1-.41-.14v-12.13a.69.68-90 0 0-.68-.69h-5.02a.74.73 90 0 0-.73.74v33.1a.84.84 11.245 0 0 .84.84h4.75a.734.731 85.036 0 0 .72-.86q-.17-.96 0-1.5a.483.483 34.073 0 1 .83-.16m-38.54-31.2a.59.59-81.881 0 0-.59-.59h-21.92a.59.59-8.902 0 0-.59.59v33.08a.59.59-70.179 0 0 .59.59h5.53a.59.59 65.228 0 0 .59-.59v-13.13a.59.59-53.509 0 1 .59-.59h14.36a.59.59 45 0 0 .59-.59v-4.28a.59.59-65.874 0 0-.59-.59h-14.34a.59.59-50.048 0 1-.59-.59v-7.8a.59.59 78.971 0 1 .59-.59h15.19a.59.59 84.157 0 0 .59-.59zm-121.31 28.01q.63-1.01 1.46-1.72c7.03-6.02 16.54-11.97 12.88-20.45-2.1-4.88-7.41-6.71-12.52-5.92q-8.88 1.36-10.08 10.22a.277.274-85.506 0 0 .27.32h5.7a.274.272-86.41 0 0 .27-.24c1.06-9.28 13.43-5.78 9.91 1.99q-.99 2.17-1.86 2.94-7.73 6.8-10.4 9.57c-2.84 2.96-4.19 4.28-4.03 8.32a.7.7 88.717 0 0 .7.67h22.7a.29.29 45 0 0 .29-.29v-4.69a.45.45-4.163 0 0-.45-.45h-14.69a.179.176-74.465 0 1-.15-.27m81.425-1.589-4.7-.01a1.106 1.096-72.184 0 0-.901.468c-3.632 5.251-10.486 2.436-10.682-3.684a.41.4-.554 0 1 .411-.409l16.32.036a.654.641-87.441 0 0 .641-.598c.688-7.989-3.768-14.299-12.259-13.908-17.081.792-15.098 30.516 5.344 25.102q3.873-1.031 6.304-6.246a.529.527 12.599 0 0-.478-.751m65.545.019h-4.7a1.106 1.096-72.313 0 0-.9.47c-3.62 5.26-10.48 2.46-10.69-3.66a.41.4-.682 0 1 .41-.41h16.32a.654.641-87.57 0 0 .64-.6c.67-7.99-3.8-14.29-12.29-13.88-17.08.83-15.03 30.55 5.4 25.09q3.87-1.04 6.29-6.26a.529.527 12.47 0 0-.48-.75m40.83-14.45q-.12-.46.12-2.26a.877.868 3.984 0 0-.87-.99h-4.35a.88.87 0 0 0-.88.87v23.51a.53.53 1.736 0 0 .53.53h5.12a.54.54-45 0 0 .54-.54q.05-10.48.13-12.51.3-6.96 7.37-6.94a.7.7 74.81 0 0 .7-.7v-3.87a.81.81-.69 0 0-.83-.81q-4.65.08-6.81 3.81a.422.421 52.301 0 1-.77-.1m32.823 14.358-4.689.019a1.103 1.093-72.546 0 0-.896.473c-3.591 5.263-10.447 2.497-10.681-3.608a.409.399-.915 0 1 .407-.411l16.284-.066a.653.64-87.803 0 0 .636-.602c.636-7.975-3.85-14.242-12.319-13.799-17.039.897-14.873 30.543 5.49 25.012q3.857-1.053 6.25-6.271a.528.526 12.238 0 0-.482-.747m11.757-14.384q-.121-.462.118-2.27a.881.872 3.934 0 0-.874-.993l-4.368.004a.884.874-.049 0 0-.883.874l.02 23.608a.53.53-8.202 0 0 .533.531l5.141-.004a.54.54 22.504 0 0 .542-.543q.041-10.523.119-12.562.296-6.989 7.395-6.975a.703.703-19.033 0 0 .702-.703l-.003-3.886a.814.814-.74 0 0-.834-.813q-4.669.084-6.835 3.832a.424.423 52.252 0 1-.773-.1m34.721 7.702a11.17 11.17 0 0 0-11.092-11.248l-2.14-.015a11.17 11.17 0 0 0-11.247 11.092l-.023 3.219a11.17 11.17 0 0 0 11.092 11.248l2.14.015a11.17 11.17 0 0 0 11.247-11.092zm-206.694 69.968a.483.483-34.192 0 1 .83.158q.171.539.003 1.499a.733.731-85.155 0 0 .721.858l4.747-.01a.84.84 82.215 0 0 .838-.841l-.069-33.079a.74.73 89.881 0 0-.731-.739l-5.016.011a.69.68 89.881 0 0-.679.691l.026 12.122a.229.228-63.833 0 1-.41.141q-3.788-4.879-10.18-3.187c-9.09 2.418-9.989 17.17-3.921 22.705 3.905 3.569 10.332 3.856 13.841-.329m121.913-11.684c-.34 5.9-3.54 12.8-10.42 8.17a1.146 1.133-86.636 0 1-.36-.41l-.52-1.06a1.133 1.121-13.142 0 0-1.01-.62h-4.75a.523.519 82.325 0 0-.5.66c2.89 10.11 16.39 10.36 21.34 2.19 4.53-7.48 4.35-25.52-6.43-28.08q-9.94-2.35-14.57 5.45c-2.35 3.97-1.84 9.39 1.25 12.82 3.89 4.32 11.09 5.26 15.34.62a.363.36-22.363 0 1 .63.26m-28.116.025c-.365 5.884-3.586 12.753-10.429 8.105a1.144 1.13-86.39 0 1-.358-.411l-.514-1.059a1.13 1.118-12.897 0 0-1.004-.623l-4.739-.02a.521.518 82.571 0 0-.501.656c2.839 10.097 16.304 10.404 21.277 2.276 4.55-7.442 4.448-25.437-6.294-28.037q-9.905-2.387-14.557 5.374c-2.361 3.95-1.875 9.358 1.193 12.793 3.861 4.326 11.039 5.294 15.298.684a.362.359-22.117 0 1 .628.262m56.533-.067c-.33 5.904-3.521 12.813-10.412 8.192a1.147 1.133-86.73 0 1-.361-.41l-.522-1.06a1.134 1.121-13.236 0 0-1.011-.618l-4.753.008a.523.52 82.231 0 0-.499.661c2.908 10.11 16.416 10.338 21.355 2.156 4.52-7.491 4.31-25.54-6.48-28.084q-9.949-2.335-14.568 5.477c-2.345 3.976-1.826 9.398 1.272 12.824 3.899 4.316 11.104 5.245 15.348.595a.363.36-22.457 0 1 .631.259m-90.777-9.628v23.47a.47.47 0 0 0 .47.47h5.47a.57.57 62.981 0 0 .57-.57v-32.07a.84.83 0 0 0-.84-.83h-3.58a1.791 1.786 21.402 0 0-1.31.57q-3.52 3.82-8.03 5.12a.93.93 81.575 0 0-.66.89v3.28a.621.617 84.309 0 0 .74.61l6.64-1.37a.44.439-5.877 0 1 .53.43m-25.309 16.638-4.684.032a1.102 1.092-72.705 0 0-.894.475c-3.572 5.266-10.427 2.523-10.678-3.575a.408.399-1.074 0 1 .406-.411l16.264-.112a.652.639-87.962 0 0 .634-.602c.613-7.967-3.885-14.215-12.343-13.749-17.016.944-14.77 30.548 5.553 24.968q3.849-1.063 6.225-6.282a.527.525 12.079 0 0-.483-.744"></path><path fill="#01823e" fill-rule="evenodd" d="M659.84 747.96q.16-.43.44-.32.75.3.79 1.28.45 14.21 0 26.18a1.701 1.693 1.133 0 0 1.7 1.76h12.51a1.45 1.45 0 0 0 1.45-1.45v-25.76a8.866 8.744-33.153 0 1 .79-3.64l18.97-41.86a.779.778 12.204 0 0-.71-1.1h-14.27a1.636 1.623-79.998 0 0-1.53 1.08q-3.96 11.02-8.13 20.9-.61 1.44-1.03 3.03c-.44 1.67-.75 3.43-1.7 4.01a.708.703 64.054 0 1-1.03-.36l-8.98-24.68q.42-3.75.42-12.78.03-205.83.05-411.54a.333.332 10.371 0 1 .45-.31q187.88 67.79 235.8 85.01 10.17 3.66 21.91 7.27a1.004.991-81.871 0 1 .71.96q-.02 112.19.03 248.59c.01 33.53.15 67.67-1.14 99.07q-1.06 25.81-1.09 26.25-3.21 51.51-7.8 83.2-6.16 42.5-16.73 79.81c-2.52 8.9-6.14 22.36-10.1 33.94q-3.8 11.13-4.39 12.79-26.92 75.81-71.5 144.19-35.91 55.07-81.82 100.2-30.1 29.59-63.76 52.93a.48.476-17.258 0 1-.75-.39zm148.515-8.248c-.094 18.85-.084 38.13 24.978 38.254 25.063.125 25.264-19.154 25.358-38.004.093-18.849.084-38.129-24.979-38.253s-25.264 19.154-25.357 38.003M754.02 775.49a1.3 1.29 90 0 0 1.29 1.3h12.88a.91.91-2.443 0 0 .91-.91v-27.19a1.368 1.364 2.146 0 1 1.47-1.36c9.29.7 21.87.48 28-7.82q1.92-2.59 2.49-4.47c3.82-12.47 1.85-27.18-13-30.85q-5.72-1.41-11.8-1.22-9.47.29-21.26.07a.97.96-89.421 0 0-.98.97zm-35.105-14.719q9.205 0 9.501.044a1.143 1.136 87.9 0 1 .945.883l3.097 13.956a1.463 1.459-6.118 0 0 1.429 1.149h13.467a.938.934 82.216 0 0 .899-1.189l-19.484-71.679a.967.961-7.473 0 0-.939-.716q-4.418.011-8.912.011-4.493-.001-8.911-.012a.967.961 7.479 0 0-.939.716l-19.492 71.676a.938.934-82.209 0 0 .899 1.189l13.466.002a1.463 1.459 6.125 0 0 1.429-1.148l3.099-13.956a1.143 1.136-87.893 0 1 .945-.883q.296-.044 9.501-.043M362.98 763.78q-.75.55-1.6.44a.967.962-86.661 0 1-.85-.96v-58.69a1.772 1.769 85.436 0 0-2.05-1.75q-6.43 1.01-11.42.28a1.327 1.323 3.971 0 0-1.51 1.31v71a1.39 1.39.208 0 0 1.38 1.39l16.81.12-.22 479.19a.293.29-72.312 0 1-.46.24q-50.55-36.39-91.27-82.78c-10.74-12.24-19.28-22.63-30.67-37.74q-10.05-13.35-16.33-22.92-16.6-25.3-23.27-36.88-14.56-25.28-21.98-40.28c-13.43-27.14-25.29-54.87-33.88-80.35q-5.41-16.06-6.26-18.73-12.25-38.85-19.08-76.43-2.85-15.7-2.9-16.03-6.88-42.4-9.62-95.96c-1.51-29.44-2.45-58.3-2.46-89.02q-.03-117.26-.01-282.08a1.03 1.022-10.308 0 1 .67-.96l257.25-93.16a.296.291 80.265 0 1 .39.28q-.02 22.88-.02 365.61c0 35.65-.33 76.22-.39 114.31q0 .22-.25.55m-152.59-24.5q8.84-3.44 9.53-13.3c1.36-19.34-9.81-23.15-26.42-23.03q-8.04.07-20.95.25a1.29 1.28 89.776 0 0-1.27 1.29v70.95a1.34 1.34 8.155 0 0 1.34 1.34h12.48a1.16 1.16-17.352 0 0 1.16-1.16v-29.23a.68.68-.428 0 1 .67-.68c5.37-.09 14.69-.95 16.57 4.06q1.18 3.14 1.15 6.99-.1 13.46.66 18.3a2.056 2.045-4.412 0 0 2.03 1.73h14.04a.848.844 73.796 0 0 .71-1.3q-1.99-3.13-2.1-6.5-.15-4.34-.28-14.67c-.09-6.6-2.69-12.04-9.29-14.07a.516.512-47.015 0 1-.03-.97m66.05 26.34a1.27 1.27-84.098 0 0-1.27-1.27h-28.02a1.27 1.27-58.244 0 1-1.27-1.27v-17a1.27 1.27-25.885 0 1 1.27-1.27h25.47a1.27 1.27-45 0 0 1.27-1.27v-9.81a1.27 1.27 45 0 0-1.27-1.27h-25.39a1.27 1.27-48.631 0 1-1.27-1.27v-14.08a1.27 1.27 31.424 0 1 1.27-1.27h27.3a1.27 1.27-45 0 0 1.27-1.27v-10.2a1.27 1.27-84.098 0 0-1.27-1.27h-42.61a1.27 1.27 6.027 0 0-1.27 1.27v71.17a1.27 1.27 14.326 0 0 1.27 1.27h43.25a1.27 1.27-15.13 0 0 1.27-1.27zm33.684-4.889q9.214.001 9.51.045a1.144 1.137 87.902 0 1 .946.884l3.1 13.97a1.464 1.46-6.116 0 0 1.43 1.15h13.48a.939.935 82.219 0 0 .9-1.19l-19.5-71.75a.968.962-7.47 0 0-.939-.717q-4.423.011-8.92.011-4.498-.001-8.921-.013a.968.962 7.482 0 0-.94.717l-19.515 71.746a.939.935-82.207 0 0 .9 1.19l13.48.003a1.464 1.46 6.128 0 0 1.43-1.15l3.103-13.969a1.144 1.137-87.89 0 1 .946-.884q.296-.044 9.51-.043"></path><path fill="#e91414" fill-rule="evenodd" d="M655.52 391.83q-.38 2.15-1.14 4.3-2.74 7.7-11.8 32.53-1.74 4.78-2.04 5.59-12.78 35.21-26.01 70.24-1.01 2.69-2.43 5.07a2.17 2.157 4.815 0 1-1.12.94c-8.53 3.17-13.48-1.95-17.44-9.28l-4.82-8.92a2.407 2.392 76.449 0 0-2.16-1.33l-83.58.07a1.76 1.753 11.789 0 0-1.61 1.05q-10.1 23.24-23.82 56.85c-2.74 6.72-4.03 10.89-11.52 10.34q-5.19-.38-7.21-4.83-4.15-9.17-12.34-29.92c-2.25-5.7-5.45-11.98-10.32-15.61-6.75-5.03-13.47-6.95-21.86-8.98q-10.45-2.54-21.21-4.91c-7.09-1.56-12.23-3.33-18.39-6.44-20.45-10.31.41-29.23 4.73-43.21q2.38-7.7 2.88-12.88 1.37-13.98 3.01-40.78c.29-4.79 3.69-5.56 7.86-5.91 6.62-.57 9.95 3.71 14.31 6.87q4.59 3.32 9.01.04c7.31-5.41 13.78-12.79 24.01-7.99 5.72 2.68 10.58 14.11 17.65 14.11a2.211 2.139 29.09 0 0 1.16-.31q7.12-4.23 12.83-9.75c3.1-3 5.22-7.02 7.2-10.88a.595.589 29.371 0 1 .84-.23q6.64 4.05 11.78 10.63c2.08 2.67 4.43 3.06 8.01 3.06q124.49.02 155.13-.02a.417.415 5.185 0 1 .41.49m-173.66 2.21q-9.69 9.74-13.13 11.9-12.71 7.99-23.37-1.75-2.04-1.87-6.72-6.84-1.86-1.98-3.94-3.15a1.44 1.44-34.722 0 0-.94-.17c-3.48.57-7.39 4.47-11.11 7.36q-7.96 6.2-17.06 2.78c-3.29-1.24-5.57-3.29-8.85-5.89a.787.785 24.847 0 0-1.26.46q-.32 1.64-.35 2.74-.46 12.8-2.24 32.2-1.25 13.6-8.2 25.5-5.14 8.8-6.81 11.92-1.63 3.04-.98 5.38c1.11 4.04 13.2 7.22 17.81 8.18q14.9 3.11 25.72 5.62c12.85 3 23.79 9.17 30.96 20.14q2.59 3.96 5.59 11.34 3.14 7.68 9.69 24.25a.202.199 46.096 0 0 .37.01l26.9-64.38a2.323 2.303 11.186 0 1 2.14-1.42h95.32a3.762 3.719 57.533 0 1 1.62.37q2.07 1.02 2.96 2.49 2.96 4.88 6.38 12.08.78 1.66 2.11 3.66a.487.486 38.289 0 0 .86-.1l35.36-95.56a.606.604 10.767 0 0-.56-.82q-71.48-.08-120.38-.01-12.42.01-18.22-.21c-8.52-.33-13.15-1.55-18.8-8.05a.597.595 46.911 0 0-.87-.03"></path><path fill="#fefefe" fill-rule="evenodd" d="M482.73 394.07c5.65 6.5 10.28 7.72 18.8 8.05q5.8.22 18.22.21 48.9-.07 120.38.01a.606.604 10.767 0 1 .56.82l-35.36 95.56a.487.486 38.289 0 1-.86.1q-1.33-2-2.11-3.66-3.42-7.2-6.38-12.08-.89-1.47-2.96-2.49a3.762 3.719 57.533 0 0-1.62-.37h-95.32a2.323 2.303 11.186 0 0-2.14 1.42l-26.9 64.38a.202.199 46.096 0 1-.37-.01q-6.55-16.57-9.69-24.25-3-7.38-5.59-11.34c-7.17-10.97-18.11-17.14-30.96-20.14q-10.82-2.51-25.72-5.62c-4.61-.96-16.7-4.14-17.81-8.18q-.65-2.34.98-5.38 1.67-3.12 6.81-11.92 6.95-11.9 8.2-25.5 1.78-19.4 2.24-32.2.03-1.1.35-2.74a.787.785 24.847 0 1 1.26-.46c3.28 2.6 5.56 4.65 8.85 5.89q9.1 3.42 17.06-2.78c3.72-2.89 7.63-6.79 11.11-7.36a1.44 1.44-34.722 0 1 .94.17q2.08 1.17 3.94 3.15 4.68 4.97 6.72 6.84 10.66 9.74 23.37 1.75 3.44-2.16 13.13-11.9a.597.595 46.911 0 1 .87.03"></path><path fill="#060606" fill-rule="evenodd" d="M424.43 628.14h12.98a.548.547 4.872 0 1 .54.64q-3.37 18.75-20.7 23.9c-7.43 2.21-17.12 1.45-24.32-2.14-16.32-8.14-20.08-28.32-15.8-44.72q2.07-7.92 8.08-14.63c8.54-9.54 25.94-11.71 37.44-6.17q12.37 5.95 15.12 20.81a.49.49 84.627 0 1-.48.58h-13.27a.808.807 82.522 0 1-.78-.6c-2.21-8.41-9.64-12.69-18.1-11.38-13.15 2.04-15.96 17.09-14.61 28.52.93 7.93 5.12 16.59 13.72 18.01q15.2 2.51 19.09-11.98a1.127 1.125 7.324 0 1 1.09-.84m185.657.792a1.129 1.126 7.296 0 1 1.09-.842l12.995-.006a.548.548 4.844 0 1 .541.641q-3.365 18.773-20.712 23.937c-7.437 2.216-17.139 1.46-24.349-2.131-16.342-8.141-20.116-28.343-15.839-44.763q2.069-7.93 8.082-14.651c8.545-9.555 25.964-11.736 37.48-6.195q12.387 5.951 15.147 20.827a.49.49 84.6 0 1-.48.581l-13.285.006a.809.808 82.495 0 1-.782-.6c-2.216-8.419-9.657-12.7-18.126-11.385-13.164 2.049-15.97 17.118-14.613 28.56.935 7.938 5.134 16.606 13.745 18.024q15.218 2.505 19.106-12.003M471.66 584.07a.46.46-60.182 0 1 .46-.46q18.27-.08 26.87.11c19.32.42 30.2 10.75 31.51 30.04 1.39 20.47-8.12 38.12-30.75 38.61q-4.2.09-27.64.12a.45.45-64.817 0 1-.45-.45zm14.23 12.15v43.42a.86.86-72.301 0 0 .86.86h11.07a18.94 18.11 90 0 0 18.11-18.94v-7.26a18.94 18.11 90 0 0-18.11-18.94h-11.07a.86.86 70.79 0 0-.86.86"></path><path fill="#fefefe" fill-rule="evenodd" d="M485.89 596.22a.86.86-72.351 0 1 .86-.86h11.07a18.94 18.11-90 0 1 18.11 18.94v7.26a18.94 18.11 90 0 1-18.11 18.94h-11.07a.86.86-57.193 0 1-.86-.86z"></path><path fill="#060606" fill-rule="evenodd" d="M460.061 651.728a.75.75 0 0 1-.749.751l-12.62.022a.75.75 0 0 1-.751-.749l-.022-12.62a.75.75 0 0 1 .749-.751l12.62-.022a.75.75 0 0 1 .751.749zm93.25 0a.71.71 0 0 1-.709.711l-12.5.022a.71.71 0 0 1-.711-.709l-.022-12.48a.71.71 0 0 1 .709-.711l12.5-.022a.71.71 0 0 1 .711.709zm93.49.01a.83.83 0 0 1-.829.831l-12.46.022a.83.83 0 0 1-.831-.829l-.022-12.46a.83.83 0 0 1 .829-.831l12.46-.022a.83.83 0 0 1 .831.829z"></path><path fill="#e91414" fill-rule="evenodd" d="M833.712 701.709c25.063.124 25.072 19.404 24.979 38.253-.094 18.85-.295 38.129-25.358 38.004-25.062-.124-25.072-19.404-24.978-38.254s.294-38.128 25.357-38.003m-.273 65.369q2.638-.001 4.585-1.065c4.546-2.493 5.126-10.733 5.176-15.263q.11-10.62.02-21.247c-.058-6.824-.424-16.744-9.798-16.741s-9.735 9.923-9.789 16.747q-.082 10.627.035 21.247c.053 4.53.638 12.77 5.186 15.26q1.947 1.063 4.585 1.062m-374.18-27.034c-.045-18.795.014-38.02 25.005-38.08 24.992-.06 25.143 19.165 25.188 37.96s-.014 38.021-25.006 38.081c-24.991.06-25.142-19.165-25.187-37.961m15.278.185q.059 6.508.337 13.025c.264 6.168 1.624 14.205 9.758 14.131 8.135-.074 9.348-8.135 9.5-14.306q.16-6.521.101-13.029-.06-6.507-.338-13.024c-.263-6.168-1.623-14.205-9.758-14.131s-9.348 8.134-9.5 14.306q-.159 6.521-.1 13.028m-264.147-.949a.516.512-47.015 0 0 .03.97c6.6 2.03 9.2 7.47 9.29 14.07q.13 10.33.28 14.67.11 3.37 2.1 6.5a.848.844 73.796 0 1-.71 1.3h-14.04a2.056 2.045-4.412 0 1-2.03-1.73q-.76-4.84-.66-18.3.03-3.85-1.15-6.99c-1.88-5.01-11.2-4.15-16.57-4.06a.68.68-.428 0 0-.67.68v29.23a1.16 1.16 28.725 0 1-1.16 1.16h-12.48a1.34 1.34-25.095 0 1-1.34-1.34v-70.95a1.29 1.28 89.776 0 1 1.27-1.29q12.91-.18 20.95-.25c16.61-.12 27.78 3.69 26.42 23.03q-.69 9.86-9.53 13.3m-24.155-23.811.191 18.219a1.15 1.15-78.577 0 0 1.162 1.138l8.119-.085a9.55 9.07-.6 0 0 9.455-9.17l-.025-2.379a9.55 9.07-.6 0 0-9.644-8.97l-8.12.085a1.15 1.15-10.041 0 0-1.138 1.162m90.205 50.151v9.92a1.27 1.27 33.798 0 1-1.27 1.27h-43.25a1.27 1.27 41.465 0 1-1.27-1.27v-71.17a1.27 1.27 29.937 0 1 1.27-1.27h42.61a1.27 1.27-60.187 0 1 1.27 1.27v10.2a1.27 1.27 45 0 1-1.27 1.27h-27.3a1.27 1.27-1.528 0 0-1.27 1.27v14.08a1.27 1.27-59.276 0 0 1.27 1.27h25.39a1.27 1.27-45 0 1 1.27 1.27v9.81a1.27 1.27 45 0 1-1.27 1.27h-25.47a1.27 1.27 17.896 0 0-1.27 1.27v17a1.27 1.27-86.197 0 0 1.27 1.27h28.02a1.27 1.27-60.187 0 1 1.27 1.27m33.691-62.486q4.497 0 8.92-.011a.968.962-7.47 0 1 .939.717l19.5 71.75a.939.935 82.219 0 1-.9 1.19h-13.48a1.464 1.46-6.116 0 1-1.43-1.15l-3.1-13.97a1.144 1.137 87.902 0 0-.946-.884q-.296-.044-9.51-.045t-9.51.043a1.144 1.137-87.89 0 0-.946.884l-3.103 13.969a1.464 1.46 6.128 0 1-1.43 1.15l-13.48-.003a.939.935-82.207 0 1-.9-1.19l19.515-71.746a.968.962 7.482 0 1 .94-.717q4.423.012 8.921.013m-.941 14.796c-1.21 9.52-3.67 19-6.25 29.21a1.527 1.52 7.201 0 0 1.48 1.9h11.88a.978.976 83.421 0 0 .95-1.2l-7.14-29.96a.468.468 41.864 0 0-.92.05m53.79 45.85q0 .54.53.54 10.33-.02 25.84.01a.48.47.623 0 1 .47.47v11.56a.33.33-.895 0 1-.32.33l-25.76.23-16.81-.12a1.39 1.39.208 0 1-1.38-1.39v-71a1.327 1.323 3.971 0 1 1.51-1.31q4.99.73 11.42-.28a1.772 1.769 85.436 0 1 2.05 1.75v58.69a.967.962-86.661 0 0 .85.96q.85.11 1.6-.44m296.13-56.75 8.98 24.68a.708.703 64.054 0 0 1.03.36c.95-.58 1.26-2.34 1.7-4.01q.42-1.59 1.03-3.03 4.17-9.88 8.13-20.9a1.636 1.623-79.998 0 1 1.53-1.08h14.27a.779.778 12.204 0 1 .71 1.1l-18.97 41.86a8.866 8.744-33.153 0 0-.79 3.64v25.76a1.45 1.45 0 0 1-1.45 1.45h-12.51a1.701 1.693 1.133 0 1-1.7-1.76q.45-11.97 0-26.18-.04-.98-.79-1.28-.28-.11-.44.32.11-.64-.09-1.18-1.78-4.82-4.95-11.83-11.39-25.18-14-31.05a.453.451 77.763 0 1 .41-.64h15.43a1.292 1.289 78.062 0 1 1.18.77zm94.91 68.46v-71.48a.97.96-89.421 0 1 .98-.97q11.79.22 21.26-.07 6.08-.19 11.8 1.22c14.85 3.67 16.82 18.38 13 30.85q-.57 1.88-2.49 4.47c-6.13 8.3-18.71 8.52-28 7.82a1.368 1.364 2.146 0 0-1.47 1.36v27.19a.91.91 35.525 0 1-.91.91h-12.88a1.3 1.29 90 0 1-1.29-1.3m14.913-60.111.174 19.96a.99.99 59.958 0 0 .999.981l7.75-.068a9.38 8.56-.5 0 0 9.305-8.641l-.042-4.82a9.38 8.56-.5 0 0-9.455-8.478l-7.749.068a.99.99-36.288 0 0-.982.998m-337.725-12.067q19.994-.002 24.386.119a.499.495-89.466 0 1 .486.499v11.05a.37.37-56.257 0 1-.37.37h-16.27a.59.59-45 0 0-.59.59v60.13a.517.513 89.05 0 1-.496.517q-2.646.113-7.139.113t-7.139-.112a.517.513-89.061 0 1-.496-.516l-.012-60.13a.59.59 89.984 0 0-.591-.59l-16.27.003a.37.37-54.473 0 1-.37-.37l-.002-11.05a.499.495 89.454 0 1 .486-.499q4.392-.122 24.387-.124M532.59 718.45a.082.079 40.339 0 0-.16.01v57.71a.44.44-60.192 0 1-.44.44h-13.08a.64.64-54.473 0 1-.64-.64v-72a.69.68-90 0 1 .68-.69h22.01a.52.52-6.187 0 1 .51.41l10.27 49.7a.185.183-44.651 0 0 .36 0l11.24-49.94a.211.205-82.765 0 1 .2-.16h21.55a.57.57-60.184 0 1 .57.57V776a.7.7 45 0 1-.7.7h-13.38a.24.23 0 0 1-.24-.23v-58.04a.234.23-39.558 0 0-.46-.04l-12.17 58a.378.373 5.579 0 1-.37.3h-13.12a.727.712 84.031 0 1-.7-.58zm87.987 42.339q-9.183.019-9.478.064a1.14 1.133-88.016 0 0-.94.883l-3.062 13.929a1.459 1.455 6.002 0 1-1.423 1.149l-13.435.027a.936.932-82.333 0 1-.899-1.185l19.292-71.547a.965.959 7.356 0 1 .935-.716q4.408.002 8.891-.007t8.89-.03a.965.959-7.596 0 1 .937.712l19.592 71.466a.936.932 82.093 0 1-.895 1.188l-13.434.029a1.459 1.455-6.242 0 1-1.428-1.143L631 761.692a1.14 1.133 87.776 0 0-.945-.879q-.295-.043-9.478-.024m.072-12.157q3.134-.018 6.325-.107a.49.488-7.017 0 0 .466-.595q-4.14-17.96-6.779-30.506-.02-.096-.192-.095t-.191.097q-2.495 12.576-6.428 30.582a.49.488 6.358 0 0 .473.59q3.192.052 6.326.034m98.266 12.139q-9.205-.001-9.501.043a1.143 1.136-87.893 0 0-.945.883l-3.099 13.956a1.463 1.459 6.125 0 1-1.429 1.148l-13.466-.002a.938.934-82.209 0 1-.899-1.189l19.492-71.676a.967.961 7.479 0 1 .939-.716q4.418.011 8.911.012 4.494 0 8.912-.011a.967.961-7.473 0 1 .939.716l19.484 71.679a.938.934 82.216 0 1-.899 1.189h-13.467a1.463 1.459-6.118 0 1-1.429-1.149l-3.097-13.956a1.143 1.136 87.9 0 0-.945-.883q-.296-.044-9.501-.044m-.271-11.577c1.854.012 4.647.448 6.382-.144a1.058 1.052 73.645 0 0 .684-1.26q-3.57-14.29-6.307-29.329-.066-.362-.557-.366-.491-.003-.561.358-2.932 15.003-6.688 29.245a1.058 1.052-72.901 0 0 .668 1.269c1.727.615 4.526.215 6.379.227"></path><path fill="#01823e" fill-rule="evenodd" d="M833.422 712.762c9.374-.003 9.74 9.917 9.798 16.741q.09 10.627-.02 21.247c-.05 4.53-.63 12.77-5.176 15.263q-1.947 1.064-4.585 1.065t-4.585-1.062c-4.548-2.49-5.133-10.73-5.186-15.26q-.117-10.62-.035-21.247c.054-6.824.414-16.743 9.789-16.747"></path><path fill="#fefefe" fill-rule="evenodd" d="M484.137 712.895c8.135-.074 9.495 7.963 9.758 14.131q.278 6.517.338 13.024.059 6.508-.101 13.029c-.152 6.171-1.365 14.232-9.5 14.306s-9.494-7.963-9.758-14.131q-.278-6.517-.337-13.025-.059-6.507.1-13.028c.152-6.172 1.365-14.233 9.5-14.306"></path><path fill="#01823e" fill-rule="evenodd" d="M186.235 715.469a1.15 1.15 27.325 0 1 1.138-1.162l8.12-.085a9.55 9.07-.6 0 1 9.644 8.97l.025 2.379a9.55 9.07-.6 0 1-9.455 9.17l-8.119.085a1.15 1.15-55.753 0 1-1.162-1.138zm582.698-.09a.99.99 45 0 1 .982-.998l7.749-.068a9.38 8.56-.5 0 1 9.455 8.478l.042 4.82a9.38 8.56-.5 0 1-9.305 8.641l-7.75.068a.99.99-45 0 1-.999-.981z"></path><path fill="#fefefe" fill-rule="evenodd" d="M620.469 717.329q.172-.001.192.095 2.639 12.546 6.779 30.506a.49.488-7.017 0 1-.466.595q-3.191.089-6.325.107t-6.326-.034a.49.488 6.358 0 1-.473-.59q3.933-18.006 6.428-30.582.019-.096.191-.097" data-source="https://football-logos.cc"></path><path fill="#01823e" fill-rule="evenodd" d="M309.19 717.93a.468.468 41.864 0 1 .92-.05l7.14 29.96a.978.976 83.421 0 1-.95 1.2h-11.88a1.527 1.52 7.201 0 1-1.48-1.9c2.58-10.21 5.04-19.69 6.25-29.21m409.656.165q.491.004.557.366 2.737 15.039 6.307 29.329a1.058 1.052 73.645 0 1-.684 1.26c-1.735.592-4.528.156-6.382.144-1.853-.012-4.652.388-6.379-.227a1.058 1.052-72.901 0 1-.668-1.269q3.756-14.242 6.688-29.245.07-.361.561-.358"></path><path fill="#060606" fill-rule="evenodd" d="M641.23 996.76a129.62 129.62 0 0 1-129.62 129.62 129.62 129.62 0 0 1-129.62-129.62 129.62 129.62 0 0 1 129.62-129.62 129.62 129.62 0 0 1 129.62 129.62m-102.88-89.27q.05-2.29-.02-2.99-1.1-12.33-3.65-23.08a1.961 1.91 13.283 0 0-.7-1.1l-7.91-6.17a3.805 3.727 72.162 0 0-1.14-.6q-.4-.1-6.65-.43-35.81-1.85-65.56 14.5c-3.35 1.85-4.75 3.29-4.7 7.13q.12 10.12 1.93 19.92a1.694 1.691 85.231 0 0 1.64 1.39q9.35.18 9.55.17c9.26-.03 18.32 1.89 27.29 5.03 3.45 1.21 6.5 3.32 9.14 4.41a1.377 1.373 42.952 0 0 1.16-.04q11.45-5.76 28.38-13.25 2.88-1.27 5.31-2.13 5.42-1.91 5.49-1.95a1.003.964 74.637 0 0 .44-.81m-1.1-27.3a.551.548-15.582 0 0-.38.67q3.39 12.05 4.24 25.7a3.485 3.46 13.551 0 0 1.72 2.79q4.7 2.77 14.15 8.89c9.09 5.9 15.22 13.07 22.52 21.17a1.191 1.176 67.167 0 0 .94.39c11.81-.64 22.64 1.83 33.78 5.16a.787.78 22.373 0 0 .9-.37q1.99-3.59 3.04-8.67.41-1.93-.65-3.73-11.96-20.25-30.37-33.84-14.15-10.45-30.03-17.01-9.72-4.02-19.86-1.15m-64.38 135.51a1.004.986-66.682 0 0 .98-.4c2.88-4.03 5.66-9 8.34-12.34q6.91-8.63 13.48-15.06.7-.68 11.2-10.05c2.2-1.96 1.42-4.45.85-7.02q-5.1-23.37-9.17-39.09-.76-2.94-2.37-3.93c-10.26-6.32-24.38-9.11-37.02-9.08-5.56.02-8.21-.57-11.82 3.09q-15.75 15.98-28.88 33.37a2.747 2.713 61.801 0 0-.54 1.83c1.02 15.87 2.35 28.33 10.53 43.05q2.88 5.18 3.8 7.38a.956.93 83.362 0 0 .7.57zm108.26 18.25 31.37 3.19a.718.689 23.015 0 0 .58-.22q8.65-9.63 13.09-21.73 3.97-10.79 6.2-17.98a4.538 4.369-35.783 0 0 .2-1.1c.28-5.72-2.27-13.2-4.12-18.33q-5.65-15.68-6.32-17.15c-2.59-5.71-4.69-11.42-9.47-13.25q-14.62-5.6-31.99-5.02a1.004 1.002 5.254 0 0-.94.78c-3.28 14.03-8.66 27.52-17.32 38.84a.918.908-41.378 0 0-.07 1.02q2.18 3.78 6.98 11.74 8.25 13.67 10.32 28.07.73 5.08 1.15 10.79a.392.391.936 0 0 .34.35M396.6 950.31q-1.89 3.33-2.6 5.48-10.56 31.73-4.31 64.77 2.68 14.13 9.03 27.54a1.781 1.776-8.064 0 0 1.32.99q8.57 1.31 16.54-2.99a1.084 1.082-12.148 0 0 .55-.85q1.45-18.45 11.78-33.38 1.89-2.73.25-5.5c-7.21-12.24-12.2-24.04-13.12-38.12q-.52-8.06-.6-9.07a3.288 3.272-81.84 0 0-2.08-2.79l-16.15-6.3a.5.498 25.048 0 0-.61.22m163.35 32.17L511.84 977a2.101 2.094 23.933 0 0-1.8.69q-2.38 2.7-2.65 2.94c-7.72 6.9-15.28 13.9-21.39 22.12-3.45 4.64-7.38 8.99-9.8 14.22a2.041 2.027-40.228 0 0-.12 1.38q1.82 7.02 4.37 13.95 4.84 13.17 10 26.24 1.76 4.48 3.25 5.31 9.04 5.06 18.26 6.74 16.94 3.1 34.62 2.52a1.039.967 20.505 0 0 .63-.26q17.94-16.42 31.43-37.79a1.679 1.665 57.44 0 0 .24-1.11q-1.88-13.45-4.97-22.93c-2.94-9.04-7.53-16.18-12.62-25.41-.36-.64-.53-2.01-.7-2.6a.763.746 83.981 0 0-.64-.53m44.06 96.59q1.3-.95 3.67-3.88 11.19-13.81 18.34-29.9 9.55-21.48 9.03-45.31a.518.515-28.984 0 0-.95-.27q-.29.45-.52 1.14-1.46 4.44-3.93 11.82c-3.38 10.1-8.51 18.69-15.02 26.06a1.963 1.947-23.191 0 0-.49 1.21q-.82 16.75-7.39 33.11-1.7 4.21-2.86 5.89a.092.088-89.047 0 0 .12.13m-203.35-26.88c15.19 29.98 41.88 52.79 73.78 62.87q1.85.58 3.32.71a.406.406-18.125 0 0 .34-.67q-6.11-7.05-12.46-15.48c-3.97-5.28-6.82-10.19-8.35-16.06a1.172 1.163 6.767 0 0-.58-.73q-20.71-10.89-34.86-30.72-1.48-2.08-3.45-3.73a.853.841-41.8 0 0-1.03-.05c-5.36 3.69-9.92 3.35-16.38 3.33a.368.364-13.371 0 0-.33.53m159.58 45.68c-2.17-3.12-5.54-6.68-7.75-10.31q-4.15-6.77-6.68-11.26a1.329 1.319 74.418 0 0-1.16-.66c-17.58.39-34.6-1.21-50.63-8.06a2.442 2.437 40.583 0 0-2.23.17q-14.79 9.1-31.63 15.69a.969.96 68.642 0 0-.54 1.25q2.91 7.35 8.12 13.71 8.11 9.92 12.97 15.79 1.35 1.63 2.74 2.1 7.06 2.4 16.2 3.27 20.25 1.94 41.56-2.38a3.289 3.27 16.395 0 0 1.68-.91l17.24-17.24a.914.903-39.934 0 0 .11-1.16m38.11-12.99q-16.12 10.26-35.04 14.17a.826.81 15.822 0 0-.44.24l-14.13 14.64a.342.338-74.637 0 0 .32.57q5.56-1.33 10.35-3.33 22.25-9.3 39.03-26.18a.072.071 5.842 0 0-.09-.11"></path><path fill="#fefefe" fill-rule="evenodd" d="M537.91 908.3q-.07.04-5.49 1.95-2.43.86-5.31 2.13-16.93 7.49-28.38 13.25a1.377 1.373 42.952 0 1-1.16.04c-2.64-1.09-5.69-3.2-9.14-4.41-8.97-3.14-18.03-5.06-27.29-5.03q-.2.01-9.55-.17a1.694 1.691 85.231 0 1-1.64-1.39q-1.81-9.8-1.93-19.92c-.05-3.84 1.35-5.28 4.7-7.13q29.75-16.35 65.56-14.5 6.25.33 6.65.43a3.805 3.727 72.162 0 1 1.14.6l7.91 6.17a1.961 1.91 13.283 0 1 .7 1.1q2.55 10.75 3.65 23.08.07.7.02 2.99a1.003.964 74.637 0 1-.44.81m-.66-28.11q10.14-2.87 19.86 1.15 15.88 6.56 30.03 17.01 18.41 13.59 30.37 33.84 1.06 1.8.65 3.73-1.05 5.08-3.04 8.67a.787.78 22.373 0 1-.9.37c-11.14-3.33-21.97-5.8-33.78-5.16a1.191 1.176 67.167 0 1-.94-.39c-7.3-8.1-13.43-15.27-22.52-21.17q-9.45-6.12-14.15-8.89a3.485 3.46 13.551 0 1-1.72-2.79q-.85-13.65-4.24-25.7a.551.548-15.582 0 1 .38-.67"></path><path fill="#fefefe" fill-rule="evenodd" d="m472.87 1015.7-39.92-7.68a.956.93 83.362 0 1-.7-.57q-.92-2.2-3.8-7.38c-8.18-14.72-9.51-27.18-10.53-43.05a2.747 2.713 61.801 0 1 .54-1.83q13.13-17.39 28.88-33.37c3.61-3.66 6.26-3.07 11.82-3.09 12.64-.03 26.76 2.76 37.02 9.08q1.61.99 2.37 3.93 4.07 15.72 9.17 39.09c.57 2.57 1.35 5.06-.85 7.02q-10.5 9.37-11.2 10.05-6.57 6.43-13.48 15.06c-2.68 3.34-5.46 8.31-8.34 12.34a1.004.986-66.682 0 1-.98.4m108.26 18.25a.392.391.936 0 1-.34-.35q-.42-5.71-1.15-10.79-2.07-14.4-10.32-28.07-4.8-7.96-6.98-11.74a.918.908-41.378 0 1 .07-1.02c8.66-11.32 14.04-24.81 17.32-38.84a1.004 1.002 5.254 0 1 .94-.78q17.37-.58 31.99 5.02c4.78 1.83 6.88 7.54 9.47 13.25q.67 1.47 6.32 17.15c1.85 5.13 4.4 12.61 4.12 18.33a4.538 4.369-35.783 0 1-.2 1.1q-2.23 7.19-6.2 17.98-4.44 12.1-13.09 21.73a.718.689 23.015 0 1-.58.22z"></path><path fill="#fefefe" fill-rule="evenodd" d="m397.21 950.09 16.15 6.3a3.288 3.272-81.84 0 1 2.08 2.79q.08 1.01.6 9.07c.92 14.08 5.91 25.88 13.12 38.12q1.64 2.77-.25 5.5-10.33 14.93-11.78 33.38a1.084 1.082-12.148 0 1-.55.85q-7.97 4.3-16.54 2.99a1.781 1.776-8.064 0 1-1.32-.99q-6.35-13.41-9.03-27.54-6.25-33.04 4.31-64.77.71-2.15 2.6-5.48a.5.498 25.048 0 1 .61-.22m163.38 32.92c.17.59.34 1.96.7 2.6 5.09 9.23 9.68 16.37 12.62 25.41q3.09 9.48 4.97 22.93a1.679 1.665 57.44 0 1-.24 1.11q-13.49 21.37-31.43 37.79a1.039.967 20.505 0 1-.63.26q-17.68.58-34.62-2.52-9.22-1.68-18.26-6.74-1.49-.83-3.25-5.31-5.16-13.07-10-26.24-2.55-6.93-4.37-13.95a2.041 2.027-40.228 0 1 .12-1.38c2.42-5.23 6.35-9.58 9.8-14.22 6.11-8.22 13.67-15.22 21.39-22.12q.27-.24 2.65-2.94a2.101 2.094 23.933 0 1 1.8-.69l48.11 5.48a.763.746 83.981 0 1 .64.53m43.3 95.93q1.16-1.68 2.86-5.89 6.57-16.36 7.39-33.11a1.963 1.947-23.191 0 1 .49-1.21c6.51-7.37 11.64-15.96 15.02-26.06q2.47-7.38 3.93-11.82.23-.69.52-1.14a.518.515-28.984 0 1 .95.27q.52 23.83-9.03 45.31-7.15 16.09-18.34 29.9-2.37 2.93-3.67 3.88a.092.088-89.047 0 1-.12-.13"></path><path fill="#fefefe" fill-rule="evenodd" d="M400.99 1051.66c6.46.02 11.02.36 16.38-3.33a.853.841-41.8 0 1 1.03.05q1.97 1.65 3.45 3.73 14.15 19.83 34.86 30.72a1.172 1.163 6.767 0 1 .58.73c1.53 5.87 4.38 10.78 8.35 16.06q6.35 8.43 12.46 15.48a.406.406-18.125 0 1-.34.67q-1.47-.13-3.32-.71c-31.9-10.08-58.59-32.89-73.78-62.87a.368.364-13.371 0 1 .33-.53"></path><path fill="#fefefe" fill-rule="evenodd" d="m560.13 1099.03-17.24 17.24a3.289 3.27 16.395 0 1-1.68.91q-21.31 4.32-41.56 2.38-9.14-.87-16.2-3.27-1.39-.47-2.74-2.1-4.86-5.87-12.97-15.79-5.21-6.36-8.12-13.71a.969.96 68.642 0 1 .54-1.25q16.84-6.59 31.63-15.69a2.442 2.437 40.583 0 1 2.23-.17c16.03 6.85 33.05 8.45 50.63 8.06a1.329 1.319 74.418 0 1 1.16.66q2.53 4.49 6.68 11.26c2.21 3.63 5.58 7.19 7.75 10.31a.914.903-39.934 0 1-.11 1.16m38.22-14.15a.072.071 5.842 0 1 .09.11q-16.78 16.88-39.03 26.18-4.79 2-10.35 3.33a.342.338-74.637 0 1-.32-.57l14.13-14.64a.826.81 15.822 0 1 .44-.24q18.92-3.91 35.04-14.17"></path><path fill="#060606" fill-rule="evenodd" d="M428.73 1204.41q-5.37 5.05-11.61 2.17c-7-3.22-7.88-13.75-4.21-19.83 3.52-5.82 11.44-6.8 15.78-1.44a.287.287 25.529 0 0 .51-.18v-12.01a.76.75 0 0 1 .76-.75h5.1a.6.6-56.86 0 1 .6.6v33.33a.74.74 33.757 0 1-.74.74h-5.2a.56.55 90 0 1-.55-.56v-1.88a.262.261-21.552 0 0-.44-.19m-5.199-17.907a8.06 6.12-88.5 0 0-6.329 7.897 8.06 6.12-88.5 0 0 5.907 8.217 8.06 6.12-88.5 0 0 6.329-7.897 8.06 6.12-88.5 0 0-5.907-8.217m116.719 18.247q-.17.54 0 1.5a.734.731 85.036 0 1-.72.86h-4.75a.84.84 36.834 0 1-.84-.84v-33.1a.74.73-90 0 1 .73-.74h5.02a.69.68-90 0 1 .68.69v12.13a.229.228 63.714 0 0 .41.14q3.78-4.89 10.18-3.21c9.1 2.4 10.03 17.16 3.97 22.71-3.9 3.58-10.33 3.88-13.85-.3a.483.483 34.073 0 0-.83.16m5.926-18.47a8.18 5.97-90.1 0 0-5.956 8.19 8.18 5.97-90.1 0 0 5.984 8.17 8.18 5.97-90.1 0 0 5.956-8.19 8.18 5.97-90.1 0 0-5.984-8.17m-43.636-12.89v4.33a.59.59 60.134 0 1-.59.59h-15.19a.59.59-55.575 0 0-.59.59v7.8a.59.59-65.874 0 0 .59.59h14.34a.59.59-50.048 0 1 .59.59v4.28a.59.59-45 0 1-.59.59h-14.36a.59.59 77.119 0 0-.59.59v13.13a.59.59-50.849 0 1-.59.59h-5.53a.59.59-49.164 0 1-.59-.59v-33.08a.59.59 32.674 0 1 .59-.59h21.92a.59.59 64.867 0 1 .59.59m-121.31 28.01a.179.176-74.465 0 0 .15.27h14.69a.45.45 15.564 0 1 .45.45v4.69a.29.29 45 0 1-.29.29h-22.7a.7.7 88.717 0 1-.7-.67c-.16-4.04 1.19-5.36 4.03-8.32q2.67-2.77 10.4-9.57.87-.77 1.86-2.94c3.52-7.77-8.85-11.27-9.91-1.99a.274.272-86.41 0 1-.27.24h-5.7a.277.274-85.506 0 1-.27-.32q1.2-8.86 10.08-10.22c5.11-.79 10.42 1.04 12.52 5.92 3.66 8.48-5.85 14.43-12.88 20.45q-.83.71-1.46 1.72"></path><path fill="#060606" fill-rule="evenodd" d="M462.655 1199.811a.529.527 12.599 0 1 .478.751q-2.431 5.215-6.304 6.246c-20.442 5.414-22.425-24.31-5.344-25.102 8.491-.391 12.947 5.919 12.259 13.908a.654.641-87.441 0 1-.641.598l-16.32-.036a.41.4-.554 0 0-.411.409c.196 6.12 7.05 8.935 10.682 3.684a1.106 1.096-72.184 0 1 .901-.468zm-15.897-7.737 10.42.072a.3.3-14.932 0 0 .302-.298l.002-.26a5.8 5.42-89.6 0 0-5.38-5.837l-.18-.002a5.8 5.42-89.6 0 0-5.46 5.762l-.002.26a.3.3-78.521 0 0 .298.303m81.922 8.506q-2.42 5.22-6.29 6.26c-20.43 5.46-22.48-24.26-5.4-25.09 8.49-.41 12.96 5.89 12.29 13.88a.654.641-87.57 0 1-.64.6h-16.32a.41.4-.682 0 0-.41.41c.21 6.12 7.07 8.92 10.69 3.66a1.106 1.096-72.313 0 1 .9-.47h4.7a.529.527 12.47 0 1 .48.75m-16.211-8.497 9.96.034a.43.43 45.089 0 0 .432-.428l.001-.37a5.34 5.32-89.8 0 0-5.301-5.359h-.18a5.34 5.32-89.8 0 0-5.339 5.321l-.001.37a.43.43 61.145 0 0 .428.432m57.331-6.603q2.16-3.73 6.81-3.81a.81.81-.69 0 1 .83.81v3.87a.7.7-56.258 0 1-.7.7q-7.07-.02-7.37 6.94-.08 2.03-.13 12.51a.54.54-45 0 1-.54.54h-5.12a.53.53 33.296 0 1-.53-.53V1183a.88.87 0 0 1 .88-.87h4.35a.877.868 3.984 0 1 .87.99q-.24 1.8-.12 2.26a.422.421 52.301 0 0 .77.1m32.053 14.258a.528.526 12.238 0 1 .482.747q-2.393 5.218-6.25 6.271c-20.363 5.531-22.529-24.115-5.49-25.012 8.469-.443 12.955 5.824 12.319 13.799a.653.64-87.803 0 1-.636.602l-16.284.066a.409.399-.915 0 0-.407.411c.234 6.105 7.09 8.871 10.681 3.608a1.103 1.093-72.546 0 1 .896-.473zm-15.667-7.812 10.077.246a.4.4 45 0 0 .409-.39l.008-.33a5.47 5.39-88.6 0 0-5.254-5.6l-.1-.002a5.47 5.39-88.6 0 0-5.522 5.336l-.008.33a.4.4 12.41 0 0 .39.41m27.424-6.572a.424.423 52.252 0 0 .773.1q2.166-3.748 6.835-3.832a.814.814-.74 0 1 .834.813l.003 3.886a.703.703 36.317 0 1-.702.703q-7.099-.014-7.395 6.975-.078 2.039-.119 12.562a.54.54 22.322 0 1-.542.543l-5.141.004a.53.53 25.134 0 1-.533-.531l-.02-23.608a.884.874-.049 0 1 .883-.874l4.368-.004a.881.872 3.934 0 1 .874.993q-.239 1.808-.118 2.27m34.698 10.921a11.17 11.17 0 0 1-11.247 11.092l-2.14-.015a11.17 11.17 0 0 1-11.092-11.248l.023-3.219a11.17 11.17 0 0 1 11.247-11.092l2.14.015a11.17 11.17 0 0 1 11.092 11.248zm-12.073-10.345a8.56 5.93-89.5 0 0-6.005 8.508 8.56 5.93-89.5 0 0 5.855 8.612 8.56 5.93-89.5 0 0 6.005-8.508 8.56 5.93-89.5 0 0-5.855-8.612"></path><path fill="#fefefe" fill-rule="evenodd" d="M446.758 1192.074a.3.3-52.778 0 1-.298-.303l.002-.26a5.8 5.42-89.6 0 1 5.46-5.762l.18.002a5.8 5.42-89.6 0 1 5.38 5.837l-.002.26a.3.3 34.12 0 1-.302.298zm139.428-.148a.4.4 38.047 0 1-.39-.41l.008-.33a5.47 5.39-88.6 0 1 5.522-5.336l.1.002a5.47 5.39-88.6 0 1 5.254 5.6l-.008.33a.4.4 48.894 0 1-.409.39zm-73.717.157a.43.43-62.743 0 1-.428-.432l.001-.37a5.34 5.32-89.8 0 1 5.339-5.321h.18a5.34 5.32-89.8 0 1 5.301 5.359l-.001.37a.43.43 45.089 0 1-.432.428zm123.766-6.153a8.56 5.93-89.5 0 1 5.855 8.612 8.56 5.93-89.5 0 1-6.005 8.508 8.56 5.93-89.5 0 1-5.855-8.612 8.56 5.93-89.5 0 1 6.005-8.508m-90.059.35a8.18 5.97-90.1 0 1 5.984 8.17 8.18 5.97-90.1 0 1-5.956 8.19 8.18 5.97-90.1 0 1-5.984-8.17 8.18 5.97-90.1 0 1 5.956-8.19m-122.645.223a8.06 6.12-88.5 0 1 5.907 8.217 8.06 6.12-88.5 0 1-6.329 7.897 8.06 6.12-88.5 0 1-5.907-8.217 8.06 6.12-88.5 0 1 6.329-7.897"></path><path fill="#060606" fill-rule="evenodd" d="M441.637 1263.024c-3.509 4.185-9.936 3.898-13.841.329-6.068-5.535-5.169-20.287 3.921-22.705q6.392-1.692 10.18 3.187a.229.228-63.833 0 0 .41-.141l-.026-12.122a.69.68 89.881 0 1 .679-.691l5.016-.011a.74.73 89.881 0 1 .731.739l.069 33.079a.84.84-59.201 0 1-.838.841l-4.747.01a.733.731-85.155 0 1-.721-.858q.168-.96-.003-1.499a.483.483-34.192 0 0-.83-.158m-5.281-17.954a8.06 6-90.6 0 0-5.916 8.123 8.06 6-90.6 0 0 6.084 7.997 8.06 6-90.6 0 0 5.916-8.123 8.06 6-90.6 0 0-6.084-7.997m126.564 6.01c-4.25 4.64-11.45 3.7-15.34-.62-3.09-3.43-3.6-8.85-1.25-12.82q4.63-7.8 14.57-5.45c10.78 2.56 10.96 20.6 6.43 28.08-4.95 8.17-18.45 7.92-21.34-2.19a.523.519 82.325 0 1 .5-.66h4.75a1.133 1.121-13.142 0 1 1.01.62l.52 1.06a1.146 1.133-86.636 0 0 .36.41c6.88 4.63 10.08-2.27 10.42-8.17a.363.36-22.363 0 0-.63-.26m-5.632-14.85a6.5 5.89-89.4 0 0-5.958 6.438 6.5 5.89-89.4 0 0 5.822 6.562 6.5 5.89-89.4 0 0 5.958-6.438 6.5 5.89-89.4 0 0-5.822-6.562m-21.854 15.135a.362.359-22.117 0 0-.628-.262c-4.259 4.61-11.437 3.642-15.298-.684-3.068-3.435-3.554-8.843-1.193-12.793q4.652-7.761 14.557-5.374c10.742 2.6 10.844 20.595 6.294 28.037-4.973 8.128-18.438 7.821-21.277-2.276a.521.518 82.571 0 1 .501-.656l4.739.02a1.13 1.118-12.897 0 1 1.004.623l.514 1.059a1.144 1.13-86.39 0 0 .358.411c6.843 4.648 10.064-2.221 10.429-8.105m-7.46-14.92a6.49 5.95-100.8 0 0-4.629 7.49 6.49 5.95-100.8 0 0 7.061 5.26 6.49 5.95-100.8 0 0 4.629-7.49 6.49 5.95-100.8 0 0-7.061-5.26m63.993 14.853a.363.36-22.457 0 0-.631-.259c-4.244 4.65-11.449 3.721-15.348-.595-3.098-3.426-3.617-8.848-1.272-12.824q4.619-7.812 14.568-5.477c10.79 2.544 11 20.593 6.48 28.084-4.939 8.182-18.447 7.954-21.355-2.156a.523.52 82.231 0 1 .499-.661l4.753-.008a1.134 1.121-13.236 0 1 1.011.618l.522 1.06a1.147 1.133-86.73 0 0 .361.41c6.891 4.621 10.082-2.288 10.412-8.192m-6.031-14.782a6.35 5.93-87.6 0 0-6.191 6.096 6.35 5.93-87.6 0 0 5.659 6.592 6.35 5.93-87.6 0 0 6.191-6.096 6.35 5.93-87.6 0 0-5.659-6.592m-85.276 4.724-6.64 1.37a.621.617 84.309 0 1-.74-.61v-3.28a.93.93 81.575 0 1 .66-.89q4.51-1.3 8.03-5.12a1.791 1.786 21.402 0 1 1.31-.57h3.58a.84.83 0 0 1 .84.83v32.07a.57.57-53.878 0 1-.57.57h-5.47a.47.47.017 0 1-.47-.47v-23.47a.44.439-5.877 0 0-.53-.43"></path><path fill="#fefefe" fill-rule="evenodd" d="M527.974 1236.445a6.49 5.95-100.8 0 1 7.061 5.26 6.49 5.95-100.8 0 1-4.629 7.49 6.49 5.95-100.8 0 1-7.061-5.26 6.49 5.95-100.8 0 1 4.629-7.49m29.314-.215a6.5 5.89-89.4 0 1 5.822 6.562 6.5 5.89-89.4 0 1-5.958 6.438 6.5 5.89-89.4 0 1-5.822-6.562 6.5 5.89-89.4 0 1 5.958-6.438m28.648.286a6.35 5.93-87.6 0 1 5.659 6.592 6.35 5.93-87.6 0 1-6.191 6.096 6.35 5.93-87.6 0 1-5.659-6.592 6.35 5.93-87.6 0 1 6.191-6.096"></path><path fill="#060606" fill-rule="evenodd" d="M475.881 1258.308a.527.525 12.079 0 1 .483.744q-2.376 5.219-6.225 6.282c-20.323 5.58-22.569-24.024-5.553-24.968 8.458-.466 12.956 5.782 12.343 13.749a.652.639-87.962 0 1-.634.602l-16.264.112a.408.399-1.074 0 0-.406.411c.251 6.098 7.106 8.841 10.678 3.575a1.102 1.092-72.705 0 1 .894-.475zm-15.672-7.853 10.137.248a.32.32-24.671 0 0 .328-.312l.006-.26a5.36 5.35-88.6 0 0-5.217-5.489l-.08-.002a5.36 5.35-88.6 0 0-5.48 5.228l-.006.26a.32.32 14.527 0 0 .312.327"></path><path fill="#fefefe" fill-rule="evenodd" d="M460.209 1250.455a.32.32 34.245 0 1-.312-.327l.006-.26a5.36 5.35-88.6 0 1 5.48-5.228l.08.002a5.36 5.35-88.6 0 1 5.217 5.489l-.006.26a.32.32 40.6 0 1-.328.312zm-23.853-5.385a8.06 6-90.6 0 1 6.084 7.997 8.06 6-90.6 0 1-5.916 8.123 8.06 6-90.6 0 1-6.084-7.997 8.06 6-90.6 0 1 5.916-8.123" data-source="https://football-logos.cc"></path><!-- source: https://football-logos.cc --></svg>