<svg xmlns="http://www.w3.org/2000/svg" viewBox="144.94 155.98 734.61 1123.95"><metadata xmlns:fl="https://football-logos.cc/bolivia/real-oruro">dl1_1df94163843ec3c98fad6e2074e6d8962508e1bdac56aba5a54ae5288de905af</metadata><!-- Source: https://football-logos.cc --><path fill="#feb902" fill-rule="evenodd" d="M529.57 230.72c4.43 18.86 10.95 38.71 23.37 52.83 9.99 11.34 26.69 10.58 39.47 4.51q20.86-9.9 33.61-29.32 3.27-4.97 5.2-10.49a.668.66 25.178 0 0-.29-.79q-12.94-7.46-13.44-21.31c-.5-13.92 11.92-24.58 25.05-25.31q17.04-.95 25.56 12.58c3.69 5.85 4.06 14.27 1.52 20.78q-4.63 11.9-18.11 15.33a.762.758 83.253 0 0-.58.74q.06 16.17 3.89 32.15c1.99 8.32 9.12 27.11 21.07 22.5 3-1.15 6.45-3.71 9.08-6.09q12.35-11.17 24.21-26.09a1.926 1.899 59.431 0 0 .38-1.52q-2.58-14.09 7.5-22.95c5.35-4.7 12.97-7.11 20.1-6.66 9.47.6 18.93 6.98 21.42 16.35 3.12 11.81-6.07 22.44-16.81 25.4q-8.45 2.34-17.17-.31a.497.496 20.705 0 0-.6.27q-5.41 11.9-11.16 27.49-13.39 36.32-24.56 72.07a.71.705 14.461 0 1-.82.48c-28.23-5.81-52.82-10.57-81.47-13.79q-63.13-7.09-129.24-4.51-71.27 2.79-140.67 18.42a.889.874-14.958 0 1-1.04-.59q-6.33-20.04-14.39-44.32-9.18-27.69-20.81-55.26a.368.352 69.791 0 0-.43-.21q-10.67 3.11-20.86-1.11c-18.17-7.51-18.33-30.5-.53-38.32 10.29-4.52 22.88-1.84 30.64 6.25q7.78 8.11 5.56 21.26a2.572 2.533 30.534 0 0 .54 2.03q10.4 12.8 21.48 23.29 5.32 5.03 9.5 7.52c10.39 6.2 17.92-5.75 20.73-13.85q6.52-18.8 6.56-39.91a.696.688 6.965 0 0-.53-.67q-11.85-2.97-17.16-12.62c-8.01-14.53.89-31.8 16.57-35.29q17.59-3.91 28.91 8.75c10.8 12.09 5.78 29.18-7.75 36.74a.705.694 66.328 0 0-.32.84c5.44 15.95 18.93 28.8 33.36 37.39q12.39 7.38 25.63 7.01c12.49-.34 20.59-8.64 26.78-19.38 7.51-13 12.05-27.1 15.6-42.14a.417.414 1.359 0 0-.48-.5q-8.63 1.61-16.17-1.74c-12.64-5.62-15.64-19.64-7.22-30.48q4.96-6.37 15.08-9.12a.594.586 77.851 0 0 .42-.66q-1.32-9.15 1.91-16.33c7.48-16.65 28.19-21.54 41.91-9.09q10.34 9.38 8.52 25.05a1.41 1.41 9.315 0 0 1.1 1.53c10.67 2.31 20.4 11.93 18.97 23.62-1.65 13.51-15.73 20.11-28.19 17.14a.339.332 89.862 0 0-.4.41m-17.669 29.725c2.84.002 5.171-1.296 5.197-4.469q.152-18.256.132-37.676a.929.926 86.098 0 1 .8-.92q8.37-1.22 14.18-5.4 2.98-2.15 3.29-4.2c.81-5.26-4.35-4.82-7.5-3.98q-6.73 1.79-9.85 2.5a.666.665-7.394 0 1-.82-.63q-.08-2.61-.014-14.351c.026-4.344-.644-7.19-5.37-7.193s-5.4 2.842-5.379 7.187q.053 11.741-.03 14.351a.666.665 7.46 0 1-.821.629q-3.119-.714-9.847-2.512c-3.149-.843-8.309-1.289-7.505 3.972q.308 2.05 3.285 4.203 5.806 4.187 14.174 5.417a.929.926-86.031 0 1 .799.921q-.043 19.42.088 37.676c.022 3.173 2.352 4.474 5.191 4.475m.007 79.874c28.209.004 53.606 1.472 83.802 4.328q35.63 3.373 83.48 13.473 2.84.6 3.69.33c3.17-1.04 4.31-4.94 4.23-7.75q-.1-3.53-4.11-4.37c-16.11-3.39-39.91-7.92-60.065-10.649q-56.231-7.608-111.025-7.616t-111.027 7.585c-20.156 2.723-43.957 7.246-60.068 10.632q-4.01.838-4.111 4.368c-.081 2.81 1.058 6.711 4.227 7.752q.85.27 3.69-.329 47.853-10.087 83.484-13.449c30.197-2.848 55.594-4.309 83.803-4.305" data-source="https://football-logos.cc"></path><path fill="#b61c29" fill-rule="evenodd" d="M511.946 184.126c4.726.003 5.396 2.849 5.37 7.193q-.066 11.741.014 14.351a.666.665-7.394 0 0 .82.63q3.12-.71 9.85-2.5c3.15-.84 8.31-1.28 7.5 3.98q-.31 2.05-3.29 4.2-5.81 4.18-14.18 5.4a.929.926 86.098 0 0-.8.92q.02 19.42-.132 37.676c-.026 3.173-2.357 4.471-5.197 4.469s-5.169-1.302-5.191-4.475q-.131-18.256-.088-37.676a.929.926-86.031 0 0-.799-.921q-8.368-1.23-14.174-5.417-2.977-2.153-3.285-4.203c-.804-5.261 4.356-4.815 7.505-3.972q6.728 1.798 9.847 2.512a.666.665 7.46 0 0 .821-.629q.083-2.61.03-14.351c-.021-4.345.653-7.19 5.379-7.187m-.036 143.939q54.794.008 111.025 7.616C643.09 338.41 666.89 342.94 683 346.33q4.01.84 4.11 4.37c.08 2.81-1.06 6.71-4.23 7.75q-.85.27-3.69-.33-47.85-10.1-83.48-13.473c-30.196-2.856-55.593-4.324-83.802-4.328s-53.606 1.457-83.803 4.305q-35.631 3.362-83.484 13.449-2.84.599-3.69.329c-3.169-1.041-4.308-4.942-4.227-7.752q.101-3.53 4.111-4.368c16.111-3.386 39.912-7.909 60.068-10.632q56.233-7.593 111.027-7.585M160.42 503.89q1.34.09 4.08-.07 76.45-4.58 149.04-24.8 106.05-29.54 198.16-88.77a1.15 1.126-44.87 0 1 1.23-.01c32.25 20.51 66.58 39.08 100.98 54.12q81.89 35.77 170.11 51.3 39.88 7.02 80.01 9.27a.742.73 85.925 0 1 .68.6q7.1 36.24 11.03 77.47 9.62 100.9-5.08 195.98-5.48 35.44-17.68 79.89-11.81 43.01-31.1 88.05-19.95 46.57-47.92 91.8-50.98 82.45-123.09 147.37c-7.09 6.38-14.54 12.27-21.65 18.35q-9.27 7.92-34.43 26.06c-18.57 13.39-37.86 24.93-57.54 36.28-8.38 4.84-16.35 8.63-24.51 12.98a1.518 1.477 44.226 0 1-1.4 0c-8.13-4.25-16.97-8.69-24.99-13.23q-120.74-68.35-203.6-180.53-26.39-35.71-47.78-73.95-42.9-76.67-65.82-162.41-25.85-96.68-24.1-199.4.61-36.13 3.77-67.24 4.01-39.57 10.76-78.44a.803.794-83.251 0 1 .84-.67m679.85 29.93c-3.13-.28-6.15-.25-9.55-.66q-30.3-3.65-47.84-6.58-32.05-5.36-65.99-14.51-27.85-7.51-62.98-19.83-17.1-6-33.18-12.82-23.07-9.8-32.61-14.33c-24.43-11.61-51-25.12-74.87-39.6a1.794 1.778-44.744 0 0-1.85 0q-16.2 9.83-36.92 20.97c-17.36 9.33-34.75 17.45-51.31 24.92q-1.59.72-22.89 9.71-9.4 3.97-17.99 7.13-14.81 5.45-18.22 6.54c-10.59 3.4-18.87 6.59-29.77 9.77q-47.54 13.88-86 20.52-32.48 5.6-65.08 8.33a.321.311 2.227 0 0-.29.26q-6.93 43.16-9.48 87.74c-.77 13.33-1.6 27.81-1.56 40.49q.18 50.6 6.34 99 2.05 16.1 6.5 38.63 4.97 25.18 8.3 38.27 12.43 48.83 31.38 94.53c19.58 47.19 45 92.04 74.7 132.63q22.07 30.15 47.03 57.18 15.83 17.14 29.79 29.96 9.2 8.45 23.85 21.14 12.25 10.61 30.53 24.19 9.2 6.84 12.8 9.19 8.09 5.29 13.13 8.74 9.09 6.24 19.94 12.73 15.85 9.48 35.37 19.7a1.194 1.185 44.277 0 0 1.13-.01c9.06-4.94 17.05-8.92 25.53-14.01 10.35-6.21 21.88-12.84 32.68-20.1q11.4-7.67 13.69-9.32 19.18-13.79 39.56-30.38c6.24-5.08 10.21-8.96 16.17-14.06q5.34-4.58 11.84-10.83 29.95-28.8 53.41-57.98 2.92-3.62 18.28-23.58c4.17-5.42 7.5-10.45 11.43-15.99q3.56-5.01 8.1-12.31c5.44-8.75 13.95-21.51 20.07-32.24q23.26-40.78 41.06-84.81c3.48-8.62 6.22-16.6 9.71-26.37q15.37-43.06 24.61-90.55 3.56-18.36 3.96-20.7 7.04-41.44 9.01-86.52 1.95-44.71-1.63-85.99-1.81-20.95-2.82-30.63-.93-8.97-6.22-46.75a.937.932 88.455 0 0-.85-.81"></path><path fill="#0f212e" fill-rule="evenodd" d="M841.12 534.63q5.29 37.78 6.22 46.75 1.01 9.68 2.82 30.63 3.58 41.28 1.63 85.99-1.97 45.08-9.01 86.52-.4 2.34-3.96 20.7-9.24 47.49-24.61 90.55c-3.49 9.77-6.23 17.75-9.71 26.37q-17.8 44.03-41.06 84.81c-6.12 10.73-14.63 23.49-20.07 32.24q-4.54 7.3-8.1 12.31c-3.93 5.54-7.26 10.57-11.43 15.99q-15.36 19.96-18.28 23.58-23.46 29.18-53.41 57.98-6.5 6.25-11.84 10.83c-5.96 5.1-9.93 8.98-16.17 14.06q-20.38 16.59-39.56 30.38-2.29 1.65-13.69 9.32c-10.8 7.26-22.33 13.89-32.68 20.1-8.48 5.09-16.47 9.07-25.53 14.01a1.194 1.185 44.277 0 1-1.13.01q-19.52-10.22-35.37-19.7-10.85-6.49-19.94-12.73-5.04-3.45-13.13-8.74-3.6-2.35-12.8-9.19-18.28-13.58-30.53-24.19-14.65-12.69-23.85-21.14-13.96-12.82-29.79-29.96-24.96-27.03-47.03-57.18c-29.7-40.59-55.12-85.44-74.7-132.63q-18.95-45.7-31.38-94.53-3.33-13.09-8.3-38.27-4.45-22.53-6.5-38.63-6.16-48.4-6.34-99c-.04-12.68.79-27.16 1.56-40.49q2.55-44.58 9.48-87.74a.321.311 2.227 0 1 .29-.26q32.6-2.73 65.08-8.33 38.46-6.64 86-20.52c10.9-3.18 19.18-6.37 29.77-9.77q3.41-1.09 18.22-6.54 8.59-3.16 17.99-7.13 21.3-8.99 22.89-9.71c16.56-7.47 33.95-15.59 51.31-24.92q20.72-11.14 36.92-20.97a1.794 1.778-44.744 0 1 1.85 0c23.87 14.48 50.44 27.99 74.87 39.6q9.54 4.53 32.61 14.33 16.08 6.82 33.18 12.82 35.13 12.32 62.98 19.83 33.94 9.15 65.99 14.51 17.54 2.93 47.84 6.58c3.4.41 6.42.38 9.55.66a.937.932 88.455 0 1 .85.81m-639.59 18.26q-2.52 19.54-3.98 32.87c-5.36 48.7-6.78 96.91-2.99 146.22q7.5 97.52 43.09 187.88c32 81.24 81.7 156.4 144.64 216.87q57.06 54.82 129.45 92.93a1.03 1.03-84.093 0 0 .94 0q47.76-24.71 90.22-58.53.53-.42 10.77-8.72c15.22-12.35 29.73-26.13 42.45-39.29q11.06-11.44 14.98-15.77 6.36-7.05 19.14-22.39c19.25-23.11 37.27-49.15 51.85-73.6q61.52-103.11 81.4-223.11 12.13-73.23 7.83-147.78-2.52-43.72-9.06-87.65a.534.522-.637 0 0-.46-.44q-33.25-3.53-68.06-10.91-8.53-1.8-20.93-4.69c-23.02-5.37-46.21-12.37-67.56-19.6q-56.24-19.05-111.59-47.29-17.72-9.05-32.12-17.03-4.67-2.59-7.98-4.78a.979.971 49.632 0 0-.94-.08q-.57.24-7.95 4.64-11.98 7.13-36.6 19.62-47.19 23.93-98.58 41.92-13.26 4.64-28.54 9.27-21.15 6.42-28.83 8.4-53.73 13.91-110.09 20.54a.584.584 33.323 0 0-.5.5"></path><path fill="#feb902" fill-rule="evenodd" d="M201.53 552.89a.584.584-40.305 0 1 .5-.5q56.36-6.63 110.09-20.54 7.68-1.98 28.83-8.4 15.28-4.63 28.54-9.27 51.39-17.99 98.58-41.92 24.62-12.49 36.6-19.62 7.38-4.4 7.95-4.64a.979.971 49.632 0 1 .94.08q3.31 2.19 7.98 4.78 14.4 7.98 32.12 17.03 55.35 28.24 111.59 47.29c21.35 7.23 44.54 14.23 67.56 19.6q12.4 2.89 20.93 4.69 34.81 7.38 68.06 10.91a.534.522-.637 0 1 .46.44q6.54 43.93 9.06 87.65 4.3 74.55-7.83 147.78-19.88 120-81.4 223.11c-14.58 24.45-32.6 50.49-51.85 73.6q-12.78 15.34-19.14 22.39-3.92 4.33-14.98 15.77c-12.72 13.16-27.23 26.94-42.45 39.29q-10.24 8.3-10.77 8.72-42.46 33.82-90.22 58.53a1.03 1.03-1.722 0 1-.94 0q-72.39-38.11-129.45-92.93c-62.94-60.47-112.64-135.63-144.64-216.87q-35.59-90.36-43.09-187.88c-3.79-49.31-2.37-97.52 2.99-146.22q1.46-13.33 3.98-32.87m18.17 22.72q-1.86 11.31-2.92 23.94c-4.12 48.83-5.83 91.31-1.49 135.2.9 9.11 1.11 17.59 2.38 26.12q5.33 35.79 8.05 48.22 5.12 23.45 7.74 33.27 13.06 48.95 33.54 94.45 14.46 32.13 32.3 61.94 42.62 71.22 104.02 127.93 22.21 20.51 52.34 42.15c10.22 7.35 22.23 14.92 31.91 20.83q11.4 6.95 24.11 13.35a1.769 1.757-45.864 0 0 1.63-.03c6.83-3.75 19.04-10.14 27.93-15.8q23.5-14.96 39.99-27.21 14.52-10.79 33.45-27.3c20.25-17.66 38.69-37.22 56.77-58.22q.98-1.14 14.66-18.18 7.89-9.83 13.98-18.69 14.55-21.17 23.16-35.3 32.79-53.78 54.4-115.23c2.4-6.84 4.92-15.91 7.57-23.84q2.86-8.55 5.27-17.98c8.73-34.19 15.56-68.46 18.46-103.26q2.21-26.5 2.48-33.48 2.55-65.23-7.38-132.98a.584.584 45 0 0-.5-.5q-45.31-6.15-75.34-14-30.3-7.92-39.73-10.75-66.47-19.96-128.42-50.34-24.85-12.18-46.14-23.81a1.036 1.016-44.449 0 0-.97 0c-12.1 6.6-23.74 13.08-36.59 19.38q-22.15 10.85-31.5 15.09-16.72 7.58-49.26 20.29c-9.66 3.77-25.28 9.07-36.66 12.78q-68.09 22.21-138.45 31.2a.913.907-88.711 0 0-.79.76"></path><path fill="#b61c29" fill-rule="evenodd" d="M219.7 575.61a.913.907-88.711 0 1 .79-.76q70.36-8.99 138.45-31.2c11.38-3.71 27-9.01 36.66-12.78q32.54-12.71 49.26-20.29 9.35-4.24 31.5-15.09c12.85-6.3 24.49-12.78 36.59-19.38a1.036 1.016-44.449 0 1 .97 0q21.29 11.63 46.14 23.81 61.95 30.38 128.42 50.34 9.43 2.83 39.73 10.75 30.03 7.85 75.34 14a.584.584-45 0 1 .5.5q9.93 67.75 7.38 132.98-.27 6.98-2.48 33.48c-2.9 34.8-9.73 69.07-18.46 103.26q-2.41 9.43-5.27 17.98c-2.65 7.93-5.17 17-7.57 23.84q-21.61 61.45-54.4 115.23-8.61 14.13-23.16 35.3-6.09 8.86-13.98 18.69-13.68 17.04-14.66 18.18c-18.08 21-36.52 40.56-56.77 58.22q-18.93 16.51-33.45 27.3-16.49 12.25-39.99 27.21c-8.89 5.66-21.1 12.05-27.93 15.8a1.769 1.757-45.864 0 1-1.63.03q-12.71-6.4-24.11-13.35c-9.68-5.91-21.69-13.48-31.91-20.83q-30.13-21.64-52.34-42.15-61.4-56.71-104.02-127.93-17.84-29.81-32.3-61.94-20.48-45.5-33.54-94.45-2.62-9.82-7.74-33.27-2.72-12.43-8.05-48.22c-1.27-8.53-1.48-17.01-2.38-26.12-4.34-43.89-2.63-86.37 1.49-135.2q1.06-12.63 2.92-23.94m260.24-3.62v7.88a3.267 3.264-85.103 0 1-3.82 3.22l-.44-.07a4.408 4.403 4.888 0 1-3.66-4.34v-32.73a4.202 4.196-6.488 0 1 3.26-4.09l.3-.07a3.538 3.533-6.559 0 1 4.34 3.44v6.82a.99.99 45 0 0 .99.99h10.72a.462.45-87.953 0 0 .45-.43c.4-6.93-.21-14.3-7.28-17.32q-6.29-2.68-14.12-1.09c-9.15 1.85-11.21 8.17-11.33 16.55q-.14 9.32.02 25.96c.13 13.12 12.72 15.95 23.17 13.37 5.98-1.47 9.14-5.75 9.51-11.82q.35-5.58.21-6.68a.666.659-3.407 0 0-.66-.58h-10.66a1 .99 0 0 0-1 .99m17.812-37.101.096 54.82a.57.57-22.537 0 0 .571.569l18.62-.033a13.65 13.19-.1 0 0 13.627-13.214l-.052-29.58a13.65 13.19-.1 0 0-13.673-13.166l-18.62.033a.57.57 22.476 0 0-.569.571m51.408 55.17q4.261-.005 5.64.034a.564.563.832 0 0 .58-.563v-46.12a.67.66 90 0 1 .66-.67h8.15a.58.58-45.019 0 0 .58-.58v-7.37a.572.568-89.912 0 0-.567-.572q-7.512-.014-15.113.074-7.6-.069-15.113-.036a.572.568 89.769 0 0-.565.573l.019 7.37a.58.58-76.757 0 0 .581.579l8.15-.021a.67.66 89.857 0 1 .662.669l.115 46.12a.564.563-.974 0 0 .581.561q1.379-.043 5.64-.048m-273 152.141a.56.56-44.988 0 0 .56-.56v-64.48a.45.44-89.377 0 1 .45-.45c6.63.05 13.87-.47 14.24 8.58q.53 13.05.35 42.71-.04 7.31.21 13.68a.72.72 88.754 0 0 .72.69h19.57a.511.504-2.561 0 0 .51-.55c-1.24-14.53-.48-32.92-.76-43.31q-.27-10.2-1.56-16.47c-1.37-6.7-3.59-11.23-10.02-12.99a.606.601 44.222 0 1-.02-1.16c7.23-2.2 10.05-7.73 10.96-14.83q1.87-14.69.49-28.7c-1.21-12.39-6.44-22.22-20.37-22.95q-15.67-.81-34.76-.29a.42.41 89.301 0 0-.4.42v140.25a.41.41 81.831 0 0 .41.41zm445.435-67.074q-.028 31.635.093 36.627c.436 17.895 6.997 31.009 26.93 31.027s26.518-13.084 26.986-30.979q.13-4.992.158-36.627.029-31.634-.093-36.627c-.436-17.895-6.997-31.009-26.93-31.027s-26.518 13.085-26.985 30.979q-.131 4.992-.159 36.627m-227.555.579q-.022 20.71-.049 25.546-.031 6.279 2.265 12.771c3.353 9.467 11.759 12.732 21.133 12.742 9.375.01 17.787-3.238 21.16-12.697q2.31-6.487 2.293-12.766-.017-4.836.005-25.546t.049-25.545q.031-6.279-2.265-12.771c-3.353-9.467-11.758-12.732-21.133-12.742s-17.787 3.237-21.16 12.697q-2.31 6.487-2.292 12.766.016 4.836-.006 25.545m136.933 37.036c-5.333.002-6.027-4.606-6.067-8.992q-.096-10.199-.186-77.519a.52.51 90 0 0-.51-.52h-16.16a.35.35 45 0 0-.35.35q.01 70.21-.02 72.76c-.11 11.04 2.11 23.79 14.518 26.937q4.036 1.022 8.782 1.02t8.782-1.029c12.404-3.16 14.611-15.912 14.49-26.952q-.033-2.55-.095-72.76a.35.35-72.389 0 0-.351-.35l-16.16.017a.52.51 89.941 0 0-.509.521q-.021 67.32-.106 77.519c-.036 4.386-.725 8.995-6.058 8.998M340.35 667.88a.46.46 33.305 0 1-.46-.46v-27.07a.46.46 30.311 0 1 .46-.46h18.07a.46.46 0 0 0 .46-.46V626.3a.46.46 82.914 0 0-.46-.46h-35.4a.46.46-8.171 0 0-.46.46v98.69a.46.46 67.496 0 0 .46.46h36.26a.46.46 45 0 0 .46-.46v-12.57a.46.46-45.015 0 0-.46-.46h-18.89a.46.46-51.104 0 1-.46-.46v-29.79a.46.46-51.816 0 1 .46-.46h17.14a.46.46 45 0 0 .46-.46v-12.45a.46.46 1.714 0 0-.46-.46zm54.267 40.272q3.592-.011 7.781-.07a.608.601-4.538 0 1 .602.508l2.73 16.5a.297.293 85.397 0 0 .29.25h15.72a.517.515-4.718 0 0 .51-.6l-16.21-98.29a.822.812-4.439 0 0-.808-.682q-4.574-.012-10.868.007-6.293.019-10.868.059a.822.812 4.088 0 0-.804.688l-15.607 98.387a.517.515 4.366 0 0 .514.597l15.72-.096a.297.293-85.748 0 0 .288-.252l2.629-16.517a.608.601 4.186 0 1 .599-.511q4.189.033 7.782.022m37.623-82.372a.53.53 45 0 0-.53.53v98.64a.53.53 87.564 0 0 .53.53h36.06a.53.53 87.563 0 0 .53-.53V712.5a.53.53-81.367 0 0-.53-.53h-18.58a.53.53-53.17 0 1-.53-.53v-85.13a.53.53-45 0 0-.53-.53zm155.91 47.75q.62-.5 1.59-.76c9.26-2.48 8.3-20.5 7.89-28.06-.77-13.95-6.58-18.77-20.13-18.78q-6.05-.01-25.34-.17a.69.69.409 0 0-.7.69v98.29a.75.74 0 0 0 .75.74h16.2a.4.39 0 0 0 .4-.39V680.2a.623.621-1.977 0 1 .58-.62c5.51-.38 11.21.17 11.29 7.12q.13 12.27.15 30.03.01 3.01.83 8.07a.681.679-5.052 0 0 .67.56h15.06a.7.7 88.822 0 0 .7-.73q-.6-12.43-.48-31.69c.04-7.02-1.47-16.7-9.35-18.91a.291.288 32.852 0 1-.11-.5m113.823.014q.622-.5 1.595-.759c9.287-2.472 8.353-20.538 7.954-28.117-.749-13.985-6.566-18.826-20.149-18.858q-6.065-.02-25.402-.211a.69.69.501 0 0-.703.69l-.157 98.532a.752.742.092 0 0 .75.743l16.24.026a.401.391.092 0 0 .402-.39l.072-45.001a.624.623-1.886 0 1 .582-.62c5.524-.372 11.237.188 11.306 7.155q.111 12.301.103 30.104.005 3.018.819 8.092a.682.681-4.961 0 0 .671.562l15.097.024a.703.702 88.914 0 0 .703-.731q-.582-12.461-.431-31.768c.051-7.037-1.447-16.744-9.343-18.972a.291.289 32.943 0 1-.109-.501M520.85 963a.396.39 67.549 0 1-.52-.22q-10.9-28.52-26.71-71.46c-.62-1.68-1.96-4.2-2.62-6.08-7.24-20.49-15.1-40.72-22.84-61.69q-5.49-14.85-11.4-30.3-.91-2.39-.56-6.26.48-5.16 5.04-6.8c5.8-2.09 11.84-3.21 17.2-4.63 5.12-1.36 7.68-1.85 7.45-7.99-.12-3.24.67-7.85-4.21-7.88q-7.85-.05-15.43-.06-36.14-.05-84.47-.08c-4.02 0-7.25-.32-8.54 3.65-1.4 4.32-1.18 9.55 4.16 10.98q10.62 2.84 14.39 4c9.83 3.03 16.64 11.39 20.36 20.9q6.04 15.46 8.28 21.81 5.13 14.51 8.07 21.91 5.32 13.42 15.89 42.57c6.42 17.71 17.94 47.54 29.23 78.27 5.62 15.29 10.03 26.12 15.39 41.25q3.25 9.15 11.07 29.51.89 2.34 1.61 3.06c2.46 2.45 7.93 1.9 11.24 1.4q3.81-.57 5.43-4.73c3.51-8.98 5.81-15.9 9.73-25.11q3.75-8.79 6.06-15.34c4.69-13.25 8.84-22.41 14.69-37.86q3.5-9.21 15.17-38.51c1-2.51 1.81-5.27 2.65-7.4q14.63-37.14 16.78-42.93c4.36-11.72 8.75-21.04 12.49-32.12 2.81-8.34 7.82-20.23 10.03-25.93q4.07-10.52 6.34-14.37 7.62-12.97 22.43-17.03c7.54-2.06 15.83-3.49 17.07-6.25 1.44-3.23 1.56-11.57-4.05-11.59q-33.38-.15-95-.02-3.26.01-4.63 1.13c-2.33 1.93-1.85 7.95-1.41 10.64q.42 2.64 3.73 3.45 2.02.49 11.47 1.76c5.78.77 14.8 2.39 18.77 5.93 6.26 5.59 3.9 14.71 1.03 21.87-2.74 6.82-5.19 12.39-7.65 18.94q-12.83 34.22-19.91 52.19c-1.32 3.37-2.54 7.5-3.97 11.12q-8.48 21.42-13.71 35.69c-5.41 14.75-10.51 26.74-15.36 40.35a.425.24-29.518 0 1-.06.1q-.13.13-.2.16m64.352 111.292a9.74 9.74 0 0 0-9.892-9.585l-1.899.029a9.74 9.74 0 0 0-9.586 9.892l.053 3.36a9.74 9.74 0 0 0 9.891 9.585l1.9-.029a9.74 9.74 0 0 0 9.586-9.892zm-124.122-.076a9.75 9.75 0 0 0-10.068-9.421l-1.879.062a9.75 9.75 0 0 0-9.421 10.068l.108 3.278a9.75 9.75 0 0 0 10.068 9.422l1.879-.062a9.75 9.75 0 0 0 9.422-10.068zm21.66 13.164a.08.08-14.999 0 0 .07-.12l-5.12-8.86a.408.405 66.482 0 1 .23-.59c3.87-1.15 4.37-4.14 3.88-7.74-.54-3.95-3.69-5.3-7.59-5.25q-.96.01-10.25.06a.72.72 2.969 0 0-.72.72v20.75a.84.84 85.841 0 0 .84.84h4a.762.761-88.408 0 0 .76-.72q.26-5.19.44-6.44.09-.67.12-.71a1.233 1.232 47.249 0 1 2.01.08l5.07 7.76a.512.503-16.872 0 0 .42.22zm12.93-12.01v2.84a.76.76 11.256 0 0 .76.76h2.14a1.389 1.387-84.37 0 1 1.36 1.66q-.28 1.44-.83 1.61c-4.25 1.3-8.19.3-8.68-4.41-.48-4.72.53-9.44 6.68-8.24a2.269 2.251 73.621 0 1 1.18.65l.91.94a.791.788 63.079 0 0 .7.23l4.22-.7a.7.697-15.243 0 0 .54-.94c-2.85-7.43-15.23-6.25-18.68-.43-3.78 6.34-1.34 18.15 7.81 18.29q5.94.08 10.36-2.12a2.71 2.707 76.657 0 0 1.49-2.42v-7.92a.66.65 0 0 0-.66-.65h-8.45a.85.85 5.845 0 0-.85.85m26.25-10.44a.52.52 0 0 0-.52.52l.01 14.57a3.17 3.17.18 0 1-3.19 3.17l-.37.01a3.57 3.561 89.604 0 1-3.61-3.57v-14.04a.52.52 0 0 0-.52-.52h-4.55a.5.5 45 0 0-.5.5q-.02 6.8-.21 14.67c-.15 6.38 5.98 7.56 11.06 7.03q7.08-.73 7.08-7.97.01-9.2-.04-13.87a.5.5-45 0 0-.5-.5zm40.23 22.5a.67.67-19.233 0 0 .67-.67v-3.53a.67.67 81.834 0 0-.67-.67h-8.53a.67.67 45 0 1-.67-.67v-16.17a.67.67-4.88 0 0-.67-.67h-4.5a.67.67-84.142 0 0-.67.67v21.04a.67.67 81.834 0 0 .67.67zm-17.98-4.935-8.485-.056a.66.66 35.468 0 1-.654-.649l-.186-16.195a.68.68 89.341 0 0-.685-.669l-4.302.017a.772.762-89.85 0 0-.759.765l-.025 21a.62.62-89.777 0 0 .624.629l14.521.032a.69.69 78.701 0 0 .7-.705l-.085-3.51a.67.67-76.592 0 0-.664-.659m-105.52 33.675q4.01-5.38 2.35-11.92-1.58-6.2-7.31-7.24-13.02-2.36-13.47 10.62-.35 10.25 9.28 11.83c2.91.48 5.1-.78 7.33 2.1a1.203 1.199-22.113 0 0 1.07.45q.55-.07 1.01-.64c.53-.66 1.63-1.99 1.48-2.98a.813.805 1.55 0 0-.65-.68q-.98-.18-1.19-.67a.887.866 52.263 0 1 .1-.87m121.41-3.59c-1.64-.24-3.55-.69-3.98-.32q-.22.19-.41.53c-1.97 3.66-6.05 1.93-6.8-1.62q-.97-4.59.5-8.06a2.125 2.036-9.477 0 1 .62-.83q3.44-2.8 5.73.41a.718.71-22.446 0 0 .71.29l3.17-.52a1.004.998-8.387 0 0 .83-1.11q-.43-3.28-4.2-4.32-6.35-1.74-10.62 1.84c-3.1 2.59-3.58 7.24-3.19 11.12q1.04 10.44 11.84 9.41c3.33-.32 6.41-2.41 6.41-6.1a.717.712-85.437 0 0-.61-.72m44.677-6.209a9.76 9.76 0 0 0-9.777-9.743l-1.84.004a9.76 9.76 0 0 0-9.743 9.777l.006 3.44a9.76 9.76 0 0 0 9.777 9.743l1.84-.004a9.76 9.76 0 0 0 9.743-9.777zm-152.293 13.13c4.479.03 8.391-1.561 8.813-6.522q.503-5.959.113-15.339a.681.671-.868 0 0-.68-.65h-4a.68.67.428 0 0-.68.66q-.21 8.41-.27 13.375c-.025 2.144-.827 4.017-3.266 4-2.439-.016-3.215-1.899-3.211-4.044q.007-4.965-.089-13.377a.68.67.349 0 0-.671-.669l-4-.055a.681.671 1.645 0 0-.689.641q-.517 9.374-.094 15.339c.355 4.966 4.245 6.611 8.724 6.641m25.906-.881v-6.63a1.207 1.205 27.781 0 1 2.2-.68l5.2 7.58a.381.368-16.671 0 0 .31.16h5.31a.14.139 75.001 0 0 .12-.21l-4.99-8.63a.348.345-23.519 0 1 .2-.5q4.32-1.34 4.3-6.21c-.01-5.89-3.87-6.8-9.38-6.65q-3.61.11-8.8.06a.5.5 45 0 0-.5.5v21.4a.49.48-90 0 0 .48.49h4.88a.68.67-90 0 0 .67-.68m15.52-21.75a.32.32-89.076 0 0-.32.31q-.59 10.99 0 16.59c.53 4.88 5.03 5.95 9.46 5.73 7.04-.36 8.06-4.58 7.94-11.23q-.09-5.48-.1-10.9a.46.45 90 0 0-.45-.46h-4.27a.5.5-89.415 0 0-.5.49l-.23 14.96a2.74 2.74 1.138 0 1-2.81 2.7l-.34.01a3.17 3.17-.09 0 1-3.18-3.17v-14.55a.48.48-45 0 0-.48-.48zm25.461.595a.49.49 0 0 0-.49-.489l-4.92.008a.49.49 0 0 0-.49.491l.038 21.3a.49.49 0 0 0 .49.489l4.92-.008a.49.49 0 0 0 .49-.491zm9.596 11.866q1.83 3.048 5.944 9.314a1.046 1.042-16.773 0 0 .869.465h4.17a.66.66 0 0 0 .66-.66v-21.29a.31.31-72.374 0 0-.31-.31h-4.73a.37.36-90 0 0-.36.37v11.17a.302.298 26.728 0 1-.541.175q-.198-.265-1.192-1.92-1.833-3.046-5.946-9.312a1.046 1.042-16.773 0 0-.87-.465h-4.17a.66.66 0 0 0-.66.66v21.29a.31.31-88.263 0 0 .31.31h4.73a.37.36-90 0 0 .36-.37v-11.17a.302.298 26.728 0 1 .541-.175q.198.265 1.195 1.918m43.171.457q1.225.001 3.143-.034a.746.745 89.46 0 1 .759.746v8.02a.64.64 45.021 0 0 .64.64h4.16a.76.76-15.217 0 0 .76-.76v-20.78a.65.64-90 0 0-.64-.65h-4.02a.73.73 0 0 0-.73.73v6.71a.76.753 86.419 0 1-.658.754q-.773.101-3.411.1t-3.412-.105a.76.753-86.35 0 1-.657-.754l.008-6.71a.73.73-61.102 0 0-.729-.731l-4.02-.005a.65.64-89.931 0 0-.64.65l-.025 20.78a.76.76-84.077 0 0 .759.761l4.16.005a.64.64-24.71 0 0 .64-.64l.01-8.02a.746.745-89.391 0 1 .76-.744q1.918.036 3.143.037M469.81 1097.72a.75.75 0 0 0-.75-.75h-4.36a.75.75 0 0 0-.75.75v20.82a.75.75 0 0 0 .75.75h4.36a.75.75 0 0 0 .75-.75z"></path><path fill="#fcfcfc" fill-rule="evenodd" d="M480.94 571h10.66a.666.659-3.407 0 1 .66.58q.14 1.1-.21 6.68c-.37 6.07-3.53 10.35-9.51 11.82-10.45 2.58-23.04-.25-23.17-13.37q-.16-16.64-.02-25.96c.12-8.38 2.18-14.7 11.33-16.55q7.83-1.59 14.12 1.09c7.07 3.02 7.68 10.39 7.28 17.32a.462.45-87.953 0 1-.45.43h-10.72a.99.99 45 0 1-.99-.99v-6.82a3.538 3.533-6.559 0 0-4.34-3.44l-.3.07a4.202 4.196-6.488 0 0-3.26 4.09v32.73a4.408 4.403 4.888 0 0 3.66 4.34l.44.07a3.267 3.264-85.103 0 0 3.82-3.22v-7.88a1 .99 0 0 1 1-.99m16.812-36.111a.57.57 22.227 0 1 .569-.571l18.62-.033a13.65 13.19-.1 0 1 13.673 13.166l.052 29.58a13.65 13.19-.1 0 1-13.627 13.214l-18.62.033a.57.57-22.329 0 1-.571-.569zm12.458 7.531v39.38a.56.56-8.139 0 0 .56.56h2.78a4.92 4.76-90 0 0 4.76-4.92v-30.66a4.92 4.76 90 0 0-4.76-4.92h-2.78a.56.56 5.854 0 0-.56.56m38.88-8.128q7.601-.088 15.113-.074a.572.568-89.912 0 1 .567.572v7.37a.58.58 45.005 0 1-.58.58h-8.15a.67.66 90 0 0-.66.67v46.12a.564.563.832 0 1-.58.563q-1.379-.039-5.64-.034t-5.64.048a.564.563-.974 0 1-.581-.561l-.115-46.12a.67.66 89.857 0 0-.662-.669l-8.15.021a.58.58-76.948 0 1-.581-.579l-.019-7.37a.572.568 89.769 0 1 .565-.573q7.513-.033 15.113.036"></path><path fill="#b61c29" fill-rule="evenodd" d="M510.21 542.42a.56.56 29.822 0 1 .56-.56h2.78a4.92 4.76 90 0 1 4.76 4.92v30.66a4.92 4.76 90 0 1-4.76 4.92h-2.78a.56.56 25.145 0 1-.56-.56z"></path><path fill="#fcfcfc" fill-rule="evenodd" d="M276.16 742.2h-19.42a.41.41-64.819 0 1-.41-.41V601.54a.42.41 89.301 0 1 .4-.42q19.09-.52 34.76.29c13.93.73 19.16 10.56 20.37 22.95q1.38 14.01-.49 28.7c-.91 7.1-3.73 12.63-10.96 14.83a.606.601 44.222 0 0 .02 1.16c6.43 1.76 8.65 6.29 10.02 12.99q1.29 6.27 1.56 16.47c.28 10.39-.48 28.78.76 43.31a.511.504-2.561 0 1-.51.55h-19.57a.72.72 88.754 0 1-.72-.69q-.25-6.37-.21-13.68.18-29.66-.35-42.71c-.37-9.05-7.61-8.53-14.24-8.58a.45.44-89.377 0 0-.45.45v64.48a.56.56 44.972 0 1-.56.56m.656-123.219-.212 40.459a1.01 1.01-4.152 0 0 1.005 1.015l6 .032a9.96 8.09-89.7 0 0 8.142-9.918l.118-22.559a9.96 8.09-89.7 0 0-8.038-10.003l-6-.031a1.01 1.01-23.596 0 0-1.015 1.005m471.923-11.461c19.933.018 26.494 13.132 26.93 31.027q.122 4.993.093 36.627-.028 31.635-.158 36.627c-.468 17.895-7.053 30.997-26.986 30.979s-26.494-13.132-26.93-31.027q-.121-4.992-.093-36.627t.159-36.627c.467-17.894 7.052-30.997 26.985-30.979m-7.066 67.795q-.016 35.91.046 38.939c.092 4.496 1.136 10.21 6.931 10.213s6.845-5.711 6.941-10.206q.064-3.03.081-38.94.016-35.91-.046-38.94c-.092-4.495-1.136-10.209-6.931-10.212s-6.845 5.71-6.941 10.206q-.064 3.029-.081 38.94"></path><path fill="#b61c29" fill-rule="evenodd" d="M276.816 618.981a1.01 1.01 31.37 0 1 1.015-1.005l6 .031a9.96 8.09-89.7 0 1 8.038 10.003l-.118 22.559a9.96 8.09-89.7 0 1-8.142 9.918l-6-.032a1.01 1.01 29.596 0 1-1.005-1.015z" data-source="https://football-logos.cc"></path><path fill="#fcfcfc" fill-rule="evenodd" d="M517.498 624.697c9.375.01 17.78 3.275 21.133 12.742q2.296 6.492 2.265 12.771-.027 4.835-.049 25.545t-.005 25.546q.017 6.279-2.293 12.766c-3.373 9.459-11.785 12.707-21.16 12.697s-17.78-3.275-21.133-12.742q-2.296-6.492-2.265-12.771.027-4.836.049-25.546.022-20.709.006-25.545-.018-6.279 2.292-12.766c3.373-9.46 11.786-12.707 21.16-12.697m6.076 19.874a5.94 5.94 0 0 0-5.929-5.951h-.22a5.94 5.94 0 0 0-5.951 5.929l-.108 62.3a5.94 5.94 0 0 0 5.929 5.951h.22a5.94 5.94 0 0 0 5.951-5.93zm107.406 82.206q-4.746.002-8.782-1.02c-12.408-3.147-14.628-15.897-14.518-26.937q.03-2.55.02-72.76a.35.35 45 0 1 .35-.35h16.16a.52.51-90 0 1 .51.52q.09 67.32.186 77.519c.04 4.386.734 8.994 6.067 8.992 5.333-.003 6.022-4.612 6.058-8.998q.085-10.199.106-77.519a.52.51 89.941 0 1 .509-.521l16.16-.017a.35.35-57.251 0 1 .351.35q.062 70.21.095 72.76c.121 11.04-2.086 23.792-14.49 26.952q-4.035 1.026-8.782 1.029M340.35 667.88h17.18a.46.46 33.305 0 1 .46.46v12.45a.46.46-45 0 1-.46.46h-17.14a.46.46 79.644 0 0-.46.46v29.79a.46.46-86.583 0 0 .46.46h18.89a.46.46-45 0 1 .46.46v12.57a.46.46-45 0 1-.46.46h-36.26a.46.46 67.568 0 1-.46-.46V626.3a.46.46 25.199 0 1 .46-.46h35.4a.46.46-54.995 0 1 .46.46v13.13a.46.46 45 0 1-.46.46h-18.07a.46.46-6.321 0 0-.46.46v27.07a.46.46 1.714 0 0 .46.46m54.014-42.105q6.294-.019 10.868-.007a.822.812-4.439 0 1 .808.682l16.21 98.29a.517.515-4.718 0 1-.51.6h-15.72a.297.293 85.397 0 1-.29-.25l-2.73-16.5a.608.601-4.538 0 0-.602-.508q-4.189.059-7.781.07-3.593.011-7.782-.022a.608.601 4.186 0 0-.599.511l-2.629 16.517a.297.293-85.748 0 1-.288.252l-15.72.096a.517.515 4.366 0 1-.514-.597l15.607-98.387a.822.812 4.088 0 1 .804-.688q4.575-.04 10.868-.059m.382 70.032q3.407-.002 6.177-.04a.539.538 85.475 0 0 .527-.617q-3.08-21.05-6.058-47.109-.134-1.175-.665-1.175-.531.001-.664 1.175-2.958 26.062-6.022 47.114a.539.538-85.519 0 0 .527.617q2.771.036 6.178.035m37.494-70.027h16.42a.53.53 45 0 1 .53.53v85.13a.53.53-78.782 0 0 .53.53h18.58a.53.53-55.667 0 1 .53.53v12.45a.53.53-54.458 0 1-.53.53h-36.06a.53.53-54.455 0 1-.53-.53v-98.64a.53.53-45.024 0 1 .53-.53m155.91 47.75a.291.288 32.852 0 0 .11.5c7.88 2.21 9.39 11.89 9.35 18.91q-.12 19.26.48 31.69a.7.7 88.822 0 1-.7.73h-15.06a.681.679-5.052 0 1-.67-.56q-.82-5.06-.83-8.07-.02-17.76-.15-30.03c-.08-6.95-5.78-7.5-11.29-7.12a.623.621-1.977 0 0-.58.62v44.89a.4.39 0 0 1-.4.39h-16.2a.75.74 0 0 1-.75-.74v-98.29a.69.69.409 0 1 .7-.69q19.29.16 25.34.17c13.55.01 19.36 4.83 20.13 18.78.41 7.56 1.37 25.58-7.89 28.06q-.97.26-1.59.76m-19.261-34.9-.098 28.279a.55.55 87.713 0 0 .548.552l5 .018a6.62 6.19-89.8 0 0 6.213-6.599l.056-16.139a6.62 6.19-89.8 0 0-6.167-6.642l-5-.017a.55.55 87.715 0 0-.552.548m133.084 34.914a.291.289 32.943 0 0 .109.501c7.896 2.228 9.394 11.935 9.343 18.972q-.151 19.307.431 31.768a.703.702 88.914 0 1-.703.731l-15.097-.024a.682.681-4.961 0 1-.671-.562q-.814-5.074-.819-8.092.008-17.803-.103-30.104c-.069-6.967-5.782-7.527-11.306-7.155a.624.623-1.886 0 0-.582.62l-.072 45.001a.401.391.092 0 1-.402.39l-16.24-.026a.752.742.092 0 1-.75-.743l.157-98.532a.69.69.501 0 1 .703-.69q19.337.191 25.402.211c13.583.032 19.4 4.873 20.149 18.858.399 7.579 1.333 25.645-7.954 28.117q-.973.259-1.595.759M682.56 638.68v28.28a.56.56-84.159 0 0 .56.56h5.01a6.38 6.29-90 0 0 6.29-6.38V644.5a6.38 6.29 90 0 0-6.29-6.38h-5.01a.56.56 81.846 0 0-.56.56"></path><path fill="#b61c29" fill-rule="evenodd" d="M748.695 626.169c5.795.003 6.839 5.717 6.931 10.212q.062 3.03.046 38.94-.017 35.91-.081 38.94c-.096 4.495-1.146 10.208-6.941 10.206s-6.839-5.717-6.931-10.213q-.062-3.029-.046-38.939.017-35.911.081-38.94c.096-4.496 1.146-10.209 6.941-10.206M568.889 638.63a.55.55-54.27 0 1 .552-.548l5 .017a6.62 6.19-89.8 0 1 6.167 6.642l-.056 16.139a6.62 6.19-89.8 0 1-6.213 6.599l-5-.018a.55.55-54.276 0 1-.548-.552zm113.671.05a.56.56-64.819 0 1 .56-.56h5.01a6.38 6.29 90 0 1 6.29 6.38v16.64a6.38 6.29 90 0 1-6.29 6.38h-5.01a.56.56-60.188 0 1-.56-.56zm-159.094 68.19a5.94 5.94 0 0 1-5.951 5.93h-.22a5.94 5.94 0 0 1-5.929-5.951l.108-62.3a5.94 5.94 0 0 1 5.951-5.929h.22a5.94 5.94 0 0 1 5.929 5.951zm-128.72-11.063q-3.407.001-6.178-.035a.539.538-85.519 0 1-.527-.617q3.064-21.052 6.022-47.114.133-1.174.664-1.175.531 0 .665 1.175 2.978 26.059 6.058 47.109a.539.538 85.475 0 1-.527.617q-2.77.038-6.177.04"></path><path fill="#feb902" fill-rule="evenodd" d="M520.85 963q.07-.03.2-.16a.425.24-29.518 0 0 .06-.1c4.85-13.61 9.95-25.6 15.36-40.35q5.23-14.27 13.71-35.69c1.43-3.62 2.65-7.75 3.97-11.12q7.08-17.97 19.91-52.19c2.46-6.55 4.91-12.12 7.65-18.94 2.87-7.16 5.23-16.28-1.03-21.87-3.97-3.54-12.99-5.16-18.77-5.93q-9.45-1.27-11.47-1.76-3.31-.81-3.73-3.45c-.44-2.69-.92-8.71 1.41-10.64q1.37-1.12 4.63-1.13 61.62-.13 95 .02c5.61.02 5.49 8.36 4.05 11.59-1.24 2.76-9.53 4.19-17.07 6.25q-14.81 4.06-22.43 17.03-2.27 3.85-6.34 14.37c-2.21 5.7-7.22 17.59-10.03 25.93-3.74 11.08-8.13 20.4-12.49 32.12q-2.15 5.79-16.78 42.93c-.84 2.13-1.65 4.89-2.65 7.4q-11.67 29.3-15.17 38.51c-5.85 15.45-10 24.61-14.69 37.86q-2.31 6.55-6.06 15.34c-3.92 9.21-6.22 16.13-9.73 25.11q-1.62 4.16-5.43 4.73c-3.31.5-8.78 1.05-11.24-1.4q-.72-.72-1.61-3.06-7.82-20.36-11.07-29.51c-5.36-15.13-9.77-25.96-15.39-41.25-11.29-30.73-22.81-60.56-29.23-78.27q-10.57-29.15-15.89-42.57-2.94-7.4-8.07-21.91-2.24-6.35-8.28-21.81c-3.72-9.51-10.53-17.87-20.36-20.9q-3.77-1.16-14.39-4c-5.34-1.43-5.56-6.66-4.16-10.98 1.29-3.97 4.52-3.65 8.54-3.65q48.33.03 84.47.08 7.58.01 15.43.06c4.88.03 4.09 4.64 4.21 7.88.23 6.14-2.33 6.63-7.45 7.99-5.36 1.42-11.4 2.54-17.2 4.63q-4.56 1.64-5.04 6.8-.35 3.87.56 6.26 5.91 15.45 11.4 30.3c7.74 20.97 15.6 41.2 22.84 61.69.66 1.88 2 4.4 2.62 6.08q15.81 42.94 26.71 71.46a.396.39 67.549 0 0 .52.22"></path><path fill="#fcfcfc" fill-rule="evenodd" d="M585.255 1077.652a9.74 9.74 0 0 1-9.586 9.892l-1.9.029a9.74 9.74 0 0 1-9.891-9.585l-.053-3.36a9.74 9.74 0 0 1 9.586-9.892l1.899-.029a9.74 9.74 0 0 1 9.892 9.585zm-11.009-8.421a6.99 4.96-91.1 0 0-4.825 7.084 6.99 4.96-91.1 0 0 5.093 6.894 6.99 4.96-91.1 0 0 4.825-7.084 6.99 4.96-91.1 0 0-5.093-6.894m-113.057 8.264a9.75 9.75 0 0 1-9.422 10.068l-1.879.062a9.75 9.75 0 0 1-10.068-9.422l-.108-3.278a9.75 9.75 0 0 1 9.421-10.068l1.879-.062a9.75 9.75 0 0 1 10.068 9.421zm-10.885-8.373a6.97 4.85-91.2 0 0-4.703 7.07 6.97 4.85-91.2 0 0 4.995 6.866 6.97 4.85-91.2 0 0 4.703-7.07 6.97 4.85-91.2 0 0-4.995-6.866m32.436 18.258h-5.84a.512.503-16.872 0 1-.42-.22l-5.07-7.76a1.233 1.232 47.249 0 0-2.01-.08q-.03.04-.12.71-.18 1.25-.44 6.44a.762.761-88.408 0 1-.76.72h-4a.84.84-74.427 0 1-.84-.84v-20.75a.72.72 20.266 0 1 .72-.72q9.29-.05 10.25-.06c3.9-.05 7.05 1.3 7.59 5.25.49 3.6-.01 6.59-3.88 7.74a.408.405 66.482 0 0-.23.59l5.12 8.86a.08.08-14.999 0 1-.07.12m-13.681-17.269.084 3.719a.82.82 66.815 0 0 .839.801l3.249-.074a3.03 2.47-1.3 0 0 2.973-2.538l-.01-.42a3.03 2.47-1.3 0 0-3.085-2.4l-3.249.074a.82.82-12.991 0 0-.801.838m27.461 4.409h8.45a.66.65 0 0 1 .66.65v7.92a2.71 2.707 76.657 0 1-1.49 2.42q-4.42 2.2-10.36 2.12c-9.15-.14-11.59-11.95-7.81-18.29 3.45-5.82 15.83-7 18.68.43a.7.697-15.243 0 1-.54.94l-4.22.7a.791.788 63.079 0 1-.7-.23l-.91-.94a2.269 2.251 73.621 0 0-1.18-.65c-6.15-1.2-7.16 3.52-6.68 8.24.49 4.71 4.43 5.71 8.68 4.41q.55-.17.83-1.61a1.389 1.387-84.37 0 0-1.36-1.66h-2.14a.76.76 36.836 0 1-.76-.76v-2.84a.85.85 29.824 0 1 .85-.85m25.4-9.59h4.14a.5.5 45 0 1 .5.5q.05 4.67.04 13.87 0 7.24-7.08 7.97c-5.08.53-11.21-.65-11.06-7.03q.19-7.87.21-14.67a.5.5-45 0 1 .5-.5h4.55a.52.52 0 0 1 .52.52v14.04a3.57 3.561 89.604 0 0 3.61 3.57l.37-.01a3.17 3.17.18 0 0 3.19-3.17l-.01-14.57a.52.52 0 0 1 .52-.52"></path><path fill="#fcfcfc" fill-rule="evenodd" d="M562.15 1087.43h-14.37a.67.67-64.841 0 1-.67-.67v-21.04a.67.67-60.194 0 1 .67-.67h4.5a.67.67 40.128 0 1 .67.67v16.17a.67.67-45 0 0 .67.67h8.53a.67.67-64.841 0 1 .67.67v3.53a.67.67 17.61 0 1-.67.67m-17.98-4.935a.67.67 55.143 0 1 .664.659l.085 3.51a.69.69-52.244 0 1-.7.705l-14.521-.032a.62.62-89.777 0 1-.624-.629l.025-21a.772.762-89.85 0 1 .759-.765l4.302-.017a.68.68 89.341 0 1 .685.669l.186 16.195a.66.66-5.326 0 0 .654.649z"></path><path fill="#b61c29" fill-rule="evenodd" d="M450.304 1069.122a6.97 4.85-91.2 0 1 4.995 6.866 6.97 4.85-91.2 0 1-4.703 7.07 6.97 4.85-91.2 0 1-4.995-6.866 6.97 4.85-91.2 0 1 4.703-7.07m18.755.989a.82.82 35.86 0 1 .801-.838l3.249-.074a3.03 2.47-1.3 0 1 3.085 2.4l.01.42a3.03 2.47-1.3 0 1-2.973 2.538l-3.249.074a.82.82 66.818 0 1-.839-.801zm105.187-.88a6.99 4.96-91.1 0 1 5.093 6.894 6.99 4.96-91.1 0 1-4.825 7.084 6.99 4.96-91.1 0 1-5.093-6.894 6.99 4.96-91.1 0 1 4.825-7.084"></path><path fill="#fcfcfc" fill-rule="evenodd" d="M438.55 1117.04q.21.49 1.19.67a.813.805 1.55 0 1 .65.68c.15.99-.95 2.32-1.48 2.98q-.46.57-1.01.64a1.203 1.199-22.113 0 1-1.07-.45c-2.23-2.88-4.42-1.62-7.33-2.1q-9.63-1.58-9.28-11.83.45-12.98 13.47-10.62 5.73 1.04 7.31 7.24 1.66 6.54-2.35 11.92a.887.866 52.263 0 0-.1.87m-7.9-2.47-.25-1.51a1.478 1.475 2.241 0 1 1.81-1.67q.94.23 2.09 1.16a.546.537-65.299 0 0 .87-.33c.78-4.15.72-12.45-5.82-10.8-3.44.87-3.6 5.73-3.33 8.66q.33 3.72 3.97 5.04a.498.497-84.781 0 0 .66-.55m130.02-1.27c0 3.69-3.08 5.78-6.41 6.1q-10.8 1.03-11.84-9.41c-.39-3.88.09-8.53 3.19-11.12q4.27-3.58 10.62-1.84 3.77 1.04 4.2 4.32a1.004.998-8.387 0 1-.83 1.11l-3.17.52a.718.71-22.446 0 1-.71-.29q-2.29-3.21-5.73-.41a2.125 2.036-9.477 0 0-.62.83q-1.47 3.47-.5 8.06c.75 3.55 4.83 5.28 6.8 1.62q.19-.34.41-.53c.43-.37 2.34.08 3.98.32a.717.712-85.437 0 1 .61.72m44.073-3.489a9.76 9.76 0 0 1-9.743 9.777l-1.84.004a9.76 9.76 0 0 1-9.777-9.743l-.006-3.44a9.76 9.76 0 0 1 9.743-9.777l1.84-.004a9.76 9.76 0 0 1 9.777 9.743zm-5.961-4.206a4.27 4.27 0 0 0-4.21-4.329l-.7-.01a4.27 4.27 0 0 0-4.329 4.21l-.065 4.699a4.27 4.27 0 0 0 4.21 4.33l.7.009a4.27 4.27 0 0 0 4.329-4.21zm-146.308 9.42c2.439.017 3.241-1.856 3.266-4q.06-4.965.27-13.375a.68.67.428 0 1 .68-.66h4a.681.671-.868 0 1 .68.65q.39 9.38-.113 15.339c-.422 4.961-4.334 6.552-8.813 6.522s-8.369-1.675-8.724-6.641q-.423-5.965.094-15.339a.681.671 1.645 0 1 .689-.641l4 .055a.68.67.349 0 1 .671.669q.096 8.412.089 13.377c-.004 2.145.772 4.028 3.211 4.044m25.876 3.595a.68.67 90 0 1-.67.68h-4.88a.49.48-90 0 1-.48-.49v-21.4a.5.5-45 0 1 .5-.5q5.19.05 8.8-.06c5.51-.15 9.37.76 9.38 6.65q.02 4.87-4.3 6.21a.348.345-23.519 0 0-.2.5l4.99 8.63a.14.139 75.001 0 1-.12.21h-5.31a.381.368-16.671 0 1-.31-.16l-5.2-7.58a1.207 1.205 27.781 0 0-2.2.68zm-.223-17.281.088 4.579a.39.39-79.101 0 0 .397.383l3.749-.072a3.04 2.26-1.1 0 0 2.996-2.318l-.016-.84a3.04 2.26-1.1 0 0-3.083-2.201l-3.749.072a.39.39-16.023 0 0-.382.397m20.943-3.989v14.55a3.17 3.17-.09 0 0 3.18 3.17l.34-.01a2.74 2.74 1.138 0 0 2.81-2.7l.23-14.96a.5.5-89.415 0 1 .5-.49h4.27a.46.45 90 0 1 .45.46q.01 5.42.1 10.9c.12 6.65-.9 10.87-7.94 11.23-4.43.22-8.93-.85-9.46-5.73q-.59-5.6 0-16.59a.32.32-89.076 0 1 .32-.31h4.72a.48.48 45 0 1 .48.48m20.299 21.415a.49.49 0 0 1-.49.491l-4.92.008a.49.49 0 0 1-.49-.489l-.038-21.3a.49.49 0 0 1 .49-.491l4.92-.008a.49.49 0 0 1 .49.489zm9.558-9.434q-.997-1.653-1.195-1.918a.302.298 26.728 0 0-.541.175v11.17a.37.36 90 0 1-.36.37h-4.73a.31.31-56.701 0 1-.31-.31v-21.29a.66.66-.049 0 1 .66-.66h4.17a1.046 1.042-16.773 0 1 .87.465q4.113 6.266 5.946 9.312.994 1.655 1.192 1.92a.302.298 26.728 0 0 .541-.175v-11.17a.37.36 90 0 1 .36-.37h4.73a.31.31-57.19 0 1 .31.31v21.29a.66.66-.049 0 1-.66.66h-4.17a1.046 1.042-16.773 0 1-.869-.465q-4.114-6.266-5.944-9.314m43.174-4.067q2.638.001 3.411-.1a.76.753 86.419 0 0 .658-.754v-6.71a.73.73 0 0 1 .73-.73h4.02a.65.64-90 0 1 .64.65v20.78a.76.76 33.746 0 1-.76.76h-4.16a.64.64 45.003 0 1-.64-.64v-8.02a.746.745 89.46 0 0-.759-.746q-1.918.035-3.143.034t-3.143-.037a.746.745-89.391 0 0-.76.744l-.01 8.02a.64.64 39.222 0 1-.64.64l-4.16-.005a.76.76-60.109 0 1-.759-.761l.025-20.78a.65.64-89.931 0 1 .64-.65l4.02.005a.73.73 62.89 0 1 .729.731l-.008 6.71a.76.753-86.35 0 0 .657.754q.773.103 3.412.105M469.81 1118.54a.75.75 0 0 1-.75.75h-4.36a.75.75 0 0 1-.75-.75v-20.82a.75.75 0 0 1 .75-.75h4.36a.75.75 0 0 1 .75.75z"></path><path fill="#b61c29" fill-rule="evenodd" d="M478.127 1101.339a.39.39 32.447 0 1 .382-.397l3.749-.072a3.04 2.26-1.1 0 1 3.083 2.201l.016.84a3.04 2.26-1.1 0 1-2.996 2.318l-3.749.072a.39.39-54.338 0 1-.397-.383zm-47.477 13.231a.498.497-84.781 0 1-.66.55q-3.64-1.32-3.97-5.04c-.27-2.93-.11-7.79 3.33-8.66 6.54-1.65 6.6 6.65 5.82 10.8a.546.537-65.299 0 1-.87.33q-1.15-.93-2.09-1.16a1.478 1.475 2.241 0 0-1.81 1.67zm168.067-4.266a4.27 4.27 0 0 1-4.329 4.21l-.7-.009a4.27 4.27 0 0 1-4.21-4.33l.065-4.699a4.27 4.27 0 0 1 4.329-4.21l.7.01a4.27 4.27 0 0 1 4.21 4.329z" data-source="https://football-logos.cc"></path><!-- source: https://football-logos.cc --></svg>