<svg xmlns="http://www.w3.org/2000/svg" viewBox="11.37 175.78 770.96 770.96"><metadata xmlns:fl="https://football-logos.cc/paraguay/rubio-nu">dl1_ba2994426f25442fe83cdab8d005a568c38a1f63a68e4cf48126104619c34b66</metadata><!-- Source: https://football-logos.cc --><path d="M0 0c0-159.67-129.438-289.109-289.109-289.109-159.67 0-289.109 129.439-289.109 289.109s129.439 289.108 289.109 289.108C-129.438 289.108 0 159.67 0 0" clip-path="url(#clipPath2)" style="fill:#0e0000;fill-opacity:1;fill-rule:nonzero;stroke:none" transform="matrix(1.33333 0 0 -1.33333 782.332 561.26)" data-source="https://football-logos.cc"></path><path d="M0 0c-145.695 0-263.813 118.11-263.813 263.814C-263.813 409.509-145.695 527.62 0 527.62s263.813-118.111 263.813-263.806C263.813 118.11 145.695 0 0 0m0 540.086c-152.58 0-276.28-123.692-276.28-276.272 0-152.587 123.7-276.28 276.28-276.28s276.28 123.693 276.28 276.28c0 152.58-123.7 276.272-276.28 276.272" clip-path="url(#clipPath4)" style="fill:#d4b586;fill-opacity:1;fill-rule:nonzero;stroke:none" transform="matrix(1.33333 0 0 -1.33333 396.853 913.007)"></path><path d="M0 0c-104.557 0-189.316 84.759-189.316 189.316 0 104.549 84.759 189.308 189.316 189.308s189.316-84.759 189.316-189.308C189.316 84.759 104.557 0 0 0m0 382.687c-106.801 0-193.379-86.579-193.379-193.371C-193.379 82.516-106.801-4.063 0-4.063s193.378 86.579 193.378 193.379C193.378 296.108 106.8 382.687 0 382.687" clip-path="url(#clipPath6)" style="fill:#d4b586;fill-opacity:1;fill-rule:nonzero;stroke:none" transform="matrix(1.33333 0 0 -1.33333 396.853 813.676)"></path><path d="M0 0c0-101.328-82.142-183.469-183.469-183.469-101.328 0-183.47 82.141-183.47 183.469s82.142 183.469 183.47 183.469C-82.142 183.469 0 101.327 0 0" clip-path="url(#clipPath8)" style="fill:#d4b586;fill-opacity:1;fill-rule:nonzero;stroke:none" transform="matrix(1.33333 0 0 -1.33333 641.48 561.26)"></path><path d="M0 0c0-5.943-4.818-10.761-10.761-10.761S-21.522-5.943-21.522 0s4.818 10.761 10.761 10.761S0 5.943 0 0" clip-path="url(#clipPath10)" style="fill:#d4b586;fill-opacity:1;fill-rule:nonzero;stroke:none" transform="matrix(1.33333 0 0 -1.33333 109.887 524.776)"></path><path d="M0 0c0-5.943-4.817-10.761-10.761-10.761S-21.521-5.943-21.521 0s4.817 10.761 10.76 10.761C-4.817 10.761 0 5.943 0 0" clip-path="url(#clipPath12)" style="fill:#d4b586;fill-opacity:1;fill-rule:nonzero;stroke:none" transform="matrix(1.33333 0 0 -1.33333 712.888 525.036)"></path><path d="M0 0v-156.389c0-5.944-.871-11.887-2.906-17.469-8.241-22.597-27.823-58.94-93.948-88.491-8.074-3.6-15.846-7.165-25.198-10.535a2.16 2.16 0 0 0-1.445 0c-9.351 3.37-17.124 6.935-25.197 10.535-66.125 29.551-85.707 64.966-93.949 87.563-2.035 5.582-2.906 12.453-2.906 18.397V0c0 6.167 6.461 10.153 12.011 7.455 12.012-5.859 27.454-9.436 43.205-9.436 25.229 0 48.006 12.539 60.823 27.167a8.918 8.918 0 0 0 13.472 0c12.816-14.628 35.594-27.167 60.822-27.167 15.751 0 31.194 3.577 43.205 9.436C-6.46 10.153 0 6.167 0 0" clip-path="url(#clipPath14)" style="fill:#004a25;fill-opacity:1;fill-rule:nonzero;stroke:none" transform="matrix(1.33333 0 0 -1.33333 561.354 395.15)"></path><path d="M0 0s40.267-51.471 114.038-20.498a.822.822 0 0 0 1.144-.752v-161.783s-8.229-32.867-31.504-53.513v127.281H52.077v-151.773s-22.715-13.22-36.373-18.259v169.838h-31.26v-170.423s-18.406 6.647-36.519 18.479v152.333h-31.65v-127.866s-24.054 21.036-32.429 53.756v161.598a.99.99 0 0 0 1.422.89C-105.046-25.451-47.732-50.375 0 0" clip-path="url(#clipPath16)" style="fill:#fefefe;fill-opacity:1;fill-rule:nonzero;stroke:none" transform="matrix(1.33333 0 0 -1.33333 397.655 367.273)"></path><path d="M0 0h4.896c-.71-3.261-3.655-5.697-7.186-5.697-4.047 0-7.339 3.222-7.339 7.2 0 3.971 3.292 7.193 7.339 7.193 3.539 0 6.499-2.459 7.193-5.72H.069c-.37 1.503-1.334 2.575-2.467 2.575-1.449 0-2.629-1.766-2.629-3.94 0-2.181 1.18-3.947 2.629-3.947C-1.326-2.336-.409-1.38 0 0" clip-path="url(#clipPath18)" style="fill:#004a25;fill-opacity:1;fill-rule:nonzero;stroke:none" transform="matrix(1.33333 0 0 -1.33333 298.5 484.139)"></path><path d="M0 0v-4.14h-11.001v14.393h4.772V0Z" clip-path="url(#clipPath20)" style="fill:#004a25;fill-opacity:1;fill-rule:nonzero;stroke:none" transform="matrix(1.33333 0 0 -1.33333 320.95 486.215)"></path><path d="M0 0v-9.324a5.6 5.6 0 0 0-5.602-5.602h-1.949a5.6 5.6 0 0 0-5.601 5.602V0h4.286v-9.179c0-.968.785-1.753 1.754-1.753h.779c.968 0 1.753.785 1.753 1.753V0z" clip-path="url(#clipPath22)" style="fill:#004a25;fill-opacity:1;fill-rule:nonzero;stroke:none" transform="matrix(1.33333 0 0 -1.33333 340.43 472.544)"></path><path d="M0 0v-9.324a5.6 5.6 0 0 0-5.602-5.602h-1.949a5.6 5.6 0 0 0-5.601 5.602V0h4.286v-9.179c0-.968.785-1.753 1.754-1.753h.779c.969 0 1.754.785 1.754 1.753V0z" clip-path="url(#clipPath24)" style="fill:#004a25;fill-opacity:1;fill-rule:nonzero;stroke:none" transform="matrix(1.33333 0 0 -1.33333 408.365 472.189)"></path><path d="M0 0v-9.324a5.6 5.6 0 0 0-5.602-5.602h-1.95a5.6 5.6 0 0 0-5.6 5.602V0h4.286v-9.179c0-.968.785-1.753 1.754-1.753h.779c.968 0 1.753.785 1.753 1.753V0z" clip-path="url(#clipPath26)" style="fill:#004a25;fill-opacity:1;fill-rule:nonzero;stroke:none" transform="matrix(1.33333 0 0 -1.33333 508.178 472.544)"></path><path d="M0 0h-3.083v2.606H0c.717 0 1.295-.579 1.295-1.303A1.3 1.3 0 0 0 0 0m-3.083 7.941h2.104c.725 0 1.303-.586 1.303-1.303 0-.725-.578-1.303-1.303-1.303h-2.104Zm5.584-3.438s.884.184 1.485.793a3.36 3.36 0 0 1-2.375 5.736h-9.074V-3.361h9.329A3.84 3.84 0 0 1 5.705.478c0 1.056 0 3.357-3.204 4.025" clip-path="url(#clipPath28)" style="fill:#004a25;fill-opacity:1;fill-rule:nonzero;stroke:none" transform="matrix(1.33333 0 0 -1.33333 353.238 487.253)"></path><path d="M0 0h-3.084v2.606H0c.717 0 1.295-.578 1.295-1.303A1.3 1.3 0 0 0 0 0m-3.084 7.941h2.105c.724 0 1.302-.586 1.302-1.303 0-.725-.578-1.303-1.302-1.303h-2.105Zm5.585-3.438s.883.184 1.484.793a3.36 3.36 0 0 1-2.374 5.736h-9.074V-3.361h9.328A3.84 3.84 0 0 1 5.705.478c0 1.056 0 3.357-3.204 4.025" clip-path="url(#clipPath30)" style="fill:#004a25;fill-opacity:1;fill-rule:nonzero;stroke:none" transform="matrix(1.33333 0 0 -1.33333 421.107 487.608)"></path><path d="M0 0h-2.505v2.29H0c.632 0 1.149-.509 1.149-1.141S.632 0 0 0m6.553-7.347c-.698 0-1.264.566-1.264 1.264v2.66c0 1.048-.847 2.06-1.897 2.22 0 0 2.382.928 2.382 3.164A4.3 4.3 0 0 1 1.476 6.26h-8.654V-8.133h4.673v5.165h1.911a1.935 1.935 0 0 0 1.935-1.935v-3.23h5.212z" clip-path="url(#clipPath32)" style="fill:#004a25;fill-opacity:1;fill-rule:nonzero;stroke:none" transform="matrix(1.33333 0 0 -1.33333 380.643 480.89)"></path><path d="M327.677 473.089h-4.675v14.127h4.675z" clip-path="url(#clipPath34)" style="fill:#004a25;fill-opacity:1;fill-rule:nonzero;stroke:none" transform="matrix(1.33333 0 0 -1.33333 0 1122.52)"></path><path d="M0 0h-3.992l-4.529 6.931L-8.667 0h-4.626v14.127h4.577l4.577-7.196-.048 7.196H0Z" clip-path="url(#clipPath36)" style="fill:#004a25;fill-opacity:1;fill-rule:nonzero;stroke:none" transform="matrix(1.33333 0 0 -1.33333 487.346 491.735)"></path><path d="M0 0s-.097 2.775 2.775 2.775c1.293 0 2.016.109 2.396.767.338.584.891.149 1.007-.299.281-1.095.213-2.464-1.893-2.464 0 0-.548-.11-1.144.487-.54.54-1.307-.247-1.74-.801A1.23 1.23 0 0 0 .431 0Z" clip-path="url(#clipPath38)" style="fill:#004a25;fill-opacity:1;fill-rule:nonzero;stroke:none" transform="matrix(1.33333 0 0 -1.33333 474.297 471.54)"></path><path d="M0 0c-1.504 0-2.722 1.843-2.722 4.109S-1.504 8.211 0 8.211c1.511 0 2.729-1.835 2.729-4.102C2.729 1.843 1.511 0 0 0m-.093 11.711c-4.171 0-7.548-3.431-7.548-7.663 0-4.24 3.377-7.672 7.548-7.672 4.163 0 7.548 3.432 7.548 7.672 0 4.232-3.385 7.663-7.548 7.663" clip-path="url(#clipPath40)" style="fill:#004a25;fill-opacity:1;fill-rule:nonzero;stroke:none" transform="matrix(1.33333 0 0 -1.33333 449.69 487.613)"></path><path d="M0 0a155 155 0 0 0-5.891-12.158c8.227 7.085 19.822 6.584 19.822 6.584C4.826-22.52-9.444-24.655-13.538-24.91v-.007c-2.93-4.395-5.489-7.779-7.247-9.977 10.801 6.191 22.959 3.763 22.959 3.763-12.62-21.194-29.86-17.609-34.169-16.299a163 163 0 0 0-9.151-8.549c13.375 6.252 24.247 1.179 24.247 1.179-8.211-19.366-36.79-12.805-38.625-12.366a181 181 0 0 0-8.296-5.504c20.955-.193 22.173-4.04 22.173-4.04-14.718-20.284-34.277-8.103-38.495-5.103a189 189 0 0 0-12.897-5.883C-71.028-90.973-68.6-99.207-68.6-99.207c-24.91-11.842-38.008 1.959-40.861 5.536-11.88-4.063-23.853-6.939-34.893-8.959 21.325-3.037 36.882-2.937 37.145-2.937l.022-1.927h-.3c-2.491 0-20.122.139-42.873 3.823-22.751-3.684-40.383-3.823-42.873-3.823h-.3l.023 1.927c.262 0 15.82-.1 37.144 2.937-11.04 2.02-23.012 4.896-34.893 8.959-2.853-3.577-15.951-17.378-40.861-5.536 0 0 2.429 8.234 24.439 11.511a189 189 0 0 0-12.898 5.883c-4.217-3-23.776-15.181-38.493 5.103 0 0 1.218 3.847 22.172 4.04a180 180 0 0 0-8.295 5.504c-1.835-.439-30.414-7-38.625 12.366 0 0 10.87 5.073 24.246-1.179a163 163 0 0 0-9.151 8.549c-4.309-1.31-21.548-4.895-34.169 16.299 0 0 12.159 2.428 22.959-3.763-1.757 2.198-4.317 5.582-7.247 9.977v.007c-4.093.255-18.363 2.39-27.468 19.336 0 0 11.594.501 19.821-6.584A154 154 0 0 0-300.719 0c-3.254.192-13.87 2.475-24.525 22.99 0 0 12.019.547 18.265-5.697l.092-.055a124 124 0 0 0-2.236 9.074h-.007c-3.47.679-15.034 4.503-21.441 25.743 0 0 14.379-4.279 19.39-12.143-.162 1.303-.895 7.579-1.049 16.276-3.323 2.767-14.008 12.658-13.083 25.009 0 0 8.01-.601 13.376-11.348.216 3.507.563 7.162 1.08 10.862v.008c-1.766 1.041-11.164 7.779-7.518 30.06 0 0 9.506-1.943 9.129-15.111h1.264a227 227 0 0 0 2.305 8.904v.008c-1.966 4.934-7.825 21.186-3.276 29.427 0 0 5.096-3.052 7.663-15.472a225 225 0 0 0 3.5 9.413c-1.727 4.764-7.031 21.324-1.01 30.815 0 0 4.603-3.647 5.62-18.333l.309-.972c2.459 5.312 5.042 10.254 7.686 14.633-.94 3.176-1.565 10.77 11.511 15.411 0 0-.741-11.772-9.853-16.382-2.49-4.141-4.934-8.782-7.263-13.762 2.953 2.081 9.29 5.736 14.263 2.976 0 0-1.927-12.05-19.636-15.496a234 234 0 0 1-3.446-9.337c2.852 1.851 9.706 5.983 13.985 5.983 0 0 1.048-9.236-18.279-19.736a199 199 0 0 1-1.65-6.269c3.191 2.352 9.351 5.991 15.296 4.464 0 0-.779-15.357-18.535-20.33a142 142 0 0 1-1.14-10.716c2.32 3.778 7.362 10.67 13.245 10.67 0 0 1.048-17.786-13.608-25.657.131-6.546.579-11.665.848-14.232 1.851 4.263 5.937 12.096 11.958 14.833 0 0 2.922-19.351-9.776-29.674.794-3.832 1.75-7.54 2.837-11.117l.656-.401s.516 11.688 12.636 17.894c0 0 5.974-21.456-7.756-32.566a151 151 0 0 1 5.844-12.065l.015.008s-2.336 11.317 9.128 21.617c0 0 11.673-19.319-1.449-34.385 2.891-4.301 5.389-7.601 7.108-9.698.077 3.068.787 16.444 6.908 21.733 0 0 11.548-17.701 4.07-34.006a156 156 0 0 1 8.913-8.327c-.432 3.13-2.259 17.439-.64 25.026 0 0 15.75-8.25 13.707-35.295 3.315-2.359 6.6-4.533 9.799-6.523-1.48 2.637-7.455 14.332-3.199 24.501 0 0 20.099-9.212 18.988-33.336 2.83-1.411 5.49-2.66 7.933-3.747-3.847 3.832-8.203 10.555-5.45 19.992 0 0 18.217-3.623 26.197-27.855 13.978-4.81 28.094-7.948 40.66-9.999 12.567 2.051 26.683 5.189 40.661 9.999 7.978 24.232 26.196 27.855 26.196 27.855 2.753-9.437-1.603-16.16-5.45-19.992a199 199 0 0 1 7.932 3.747c-1.109 24.124 18.99 33.336 18.99 33.336 4.256-10.169-1.72-21.864-3.199-24.501a190 190 0 0 1 9.798 6.523C-57.475-37.7-41.725-29.45-41.725-29.45c1.62-7.587-.208-21.896-.639-25.026a157 157 0 0 1 8.912 8.327c-7.479 16.305 4.07 34.006 4.07 34.006 6.122-5.289 6.831-18.665 6.908-21.733 1.72 2.097 4.217 5.397 7.109 9.698-13.122 15.066-1.449 34.385-1.449 34.385C-5.351-.093-7.687-11.41-7.687-11.41l.016-.008A152 152 0 0 1-1.827.647c-13.732 11.11-7.756 32.566-7.756 32.566C2.536 27.007 3.053 15.319 3.053 15.319l.655.401a127 127 0 0 1 2.837 11.117C-6.152 37.16-3.23 56.511-3.23 56.511c6.021-2.737 10.107-10.57 11.957-14.833.27 2.567.717 7.686.848 14.232C-5.081 63.781-4.032 81.567-4.032 81.567c5.882 0 10.925-6.892 13.245-10.67a141 141 0 0 1-1.142 10.716c-17.755 4.973-18.533 20.33-18.533 20.33 5.944 1.527 12.104-2.112 15.296-4.464a199 199 0 0 1-1.65 6.269c-19.329 10.5-18.28 19.736-18.28 19.736 4.28 0 11.133-4.132 13.986-5.983a234 234 0 0 1-3.447 9.337c-17.709 3.446-19.635 15.496-19.635 15.496 4.972 2.76 11.309-.895 14.261-2.976-2.328 4.98-4.771 9.621-7.261 13.762-9.114 4.61-9.854 16.382-9.854 16.382 13.076-4.641 12.451-12.235 11.511-15.411 2.644-4.379 5.227-9.321 7.686-14.633l.309.972c1.018 14.686 5.62 18.333 5.62 18.333 6.022-9.491.717-26.051-1.01-30.815a223 223 0 0 0 3.5-9.413c2.568 12.42 7.663 15.472 7.663 15.472 4.549-8.241-1.31-24.493-3.276-29.427v-.008a226 226 0 0 0 2.305-8.904h1.264c-.378 13.168 9.128 15.111 9.128 15.111 3.647-22.281-5.751-29.019-7.516-30.06v-.008c.516-3.7.863-7.355 1.079-10.862 5.366 10.747 13.377 11.348 13.377 11.348.925-12.351-9.761-22.242-13.084-25.009-.155-8.697-.886-14.973-1.048-16.276 5.011 7.864 19.39 12.143 19.39 12.143-6.408-21.24-17.972-25.064-21.441-25.743h-.008a123 123 0 0 0-2.236-9.074l.093.055c6.245 6.244 18.263 5.697 18.263 5.697C13.869 2.475 3.253.192 0 0" clip-path="url(#clipPath42)" style="fill:#b58400;fill-opacity:1;fill-rule:nonzero;stroke:none" transform="matrix(1.33333 0 0 -1.33333 597.415 641.383)"></path><path d="M0 0c-8.41 1.865-14.646-2.293-17.072-8.573-1.782-4.613-.688-8.938 1.171-11.45 2.864-3.735 7.1-6.086 11.46-7.782 14.253-5.544 20.931 2.086 22.949 7.31 2.619 6.78-.195 12.477-2.389 15.951l3.689-1.435c2.362-4.371 4.704-10.459 1.268-19.351C15.773-39.056 3.191-41.833-7.038-37.854c-6.987 2.718-10.879 7.62-12.894 12.559-2.638 6.651-1.502 12.09.41 17.036 1.288 3.334 2.821 5.806 4.918 8.57.284.401.993 1.404 1.379 2.404.558 1.445-.513 2.501-1.076 3.039l.301.778L.365.945Z" clip-path="url(#clipPath44)" style="fill:#d4b586;fill-opacity:1;fill-rule:nonzero;stroke:none" transform="matrix(1.33333 0 0 -1.33333 115.606 419.387)"></path><path d="m0 0-.699.457c2.595 4.349.203 6.272-1.894 7.642l-25.213 16.477c-3.045 1.99-5.353 1.843-7.391-1.574l-.699.457 11.15 17.367.699-.457c-2.247-4.779-.254-6.57 1.892-7.973L1.15 17.166c2.597-1.696 4.914-2.348 7.138 1.38l1.545 2.589c1.297 2.174 3.668 6.382-1.854 13.876l.433.724 9.646-8.341z" clip-path="url(#clipPath46)" style="fill:#d4b586;fill-opacity:1;fill-rule:nonzero;stroke:none" transform="matrix(1.33333 0 0 -1.33333 154.09 429.344)"></path><path d="M0 0c.796-2.761 2.555-9.639-3.856-15.953-4.67-4.599-10.727-5.669-15.379-4.173-2.791.88-5.579 3.029-9.209 6.713L-41.234-.434c-2.28 2.313-4.562 3.356-7.704.262l-.591.6 14.349 14.133.591-.6c-3.608-3.555-1.583-5.949.148-7.705l13.549-13.75c1.267-1.285 3.123-3.085 5.449-4.086 3.636-1.567 7.534-.599 10.294 2.119 2.759 2.718 3.999 7.062 2.57 10.72-.798 1.998-3.203 4.779-4.765 6.363l-12.663 12.85c-2.87 2.913-4.695 2.563-7.369-.072l-.926.934 14.597 13.791.603-.857c-3.524-3.471-1.509-5.688.348-7.573L8.102 5.531c2.532-2.57 4.731-3.273 7.746-.304l.549-.557L5.552-6.011Z" clip-path="url(#clipPath48)" style="fill:#d4b586;fill-opacity:1;fill-rule:nonzero;stroke:none" transform="matrix(1.33333 0 0 -1.33333 204.435 349.737)"></path><path d="m0 0 7.665-11.721c2.665-4.077 5.58-2.153 7.289-1.025 2.212 1.459 7.433 4.982 2.401 12.677C13.224 6.25 7.584 5.082 2.307 1.598Zm-10.323 16.292 9.16-13.959L.723 3.471C2.281 4.5 8.714 8.746 3.782 16.288c-1.932 2.956-3.551 3.07-5.407 3.378-1.47.269-3.193.153-6.812-2.235zm8.819-42.346-.418.938c4.272 2.82 2.387 5.609 1.021 7.699L-17.229 7.818c-1 1.529-3.099 4.74-7.271 1.986l-.301-.199-.467.714 18.847 12.44c3.87 2.553 6.112 3.085 6.799 3.246 1.874.435 8.769 1.12 12.142-3.803 4.87-7.11-.324-11.278-2.386-13.296 0 0 10.568 4.834 15.933-3.371 2.766-4.23 2.219-8.676.002-12.328-1.511-2.53-3.655-3.873-5.615-5.166z" clip-path="url(#clipPath50)" style="fill:#d4b586;fill-opacity:1;fill-rule:nonzero;stroke:none" transform="matrix(1.33333 0 0 -1.33333 230.05 309.227)"></path><path d="m0 0 3.979-17.44 1.951.417c6.624 1.413 9.27 5.309 7.939 11.142C12.644-.511 8.693 1.855 2.306.492zm4.506-19.75 3.03-13.282c1.147-5.024 3.887-4.802 6.502-4.304l.171-.751-19.988-4.267-.185.809c5.027 1.073 4.579 4.126 4.038 6.494l-6.64 29.105c-.922 4.042-2.894 5.074-6.502 4.304l-.184.809L6.806 3.875c8.989 1.918 15.404-1.193 16.853-7.546 1.226-5.371-1.92-9.251-6.006-11.456 3.03-1.049 5.397-3.269 7.271-5.231l7.009-7.345c4.077-4.277 5.621-4.251 7.402-4.174l.185-.808-13.72-2.928c-1.157 1.266-2.144 2.328-4.353 4.945C13.108-20.76 11.07-18.349 5.866-19.459z" clip-path="url(#clipPath52)" style="fill:#d4b586;fill-opacity:1;fill-rule:nonzero;stroke:none" transform="matrix(1.33333 0 0 -1.33333 308.254 245.732)"></path><path d="m0 0-.121-.001c-1.368-2.526-4.941-8.663-14.086-8.761-6.661-.07-11.842 3.343-14.185 7.623-1.419 2.556-1.937 6.019-1.986 11.161l-.178 18.116c-.031 3.229-.962 5.551-5.443 5.504l-.008.837 20.468.217.008-.837c-5.148-.055-5.36-3.166-5.336-5.618l.188-19.192c.017-1.794.103-4.364 1.095-6.686 1.549-3.631 5.081-5.627 9.018-5.585 3.936.042 7.911 2.297 9.45 5.901.829 1.982 1.035 5.632 1.012 7.844L-.277 28.46c-.04 4.066-1.63 5.604-5.445 5.563l-.007.778 20.467.217.009-.837c-5.026-.053-5.361-2.987-5.336-5.618L9.706-1.63c.035-3.588 1.145-5.609 5.444-5.564l.007-.777-15.078-.16z" clip-path="url(#clipPath54)" style="fill:#d4b586;fill-opacity:1;fill-rule:nonzero;stroke:none" transform="matrix(1.33333 0 0 -1.33333 404.119 277.898)"></path><path d="m0 0-3.718-17.148 2.971-.628c1.841-.39 9.444-1.997 11.349 6.785.746 3.441-.103 5.544-1.2 7.079-.85 1.235-2.156 2.38-6.432 3.284zm-4.231-19.521-2.958-13.647c-1.03-4.747 2.416-5.476 4.435-5.903 2.614-.553 9.326-1.972 11.268 6.988 1.595 7.357-3.242 10.552-9.479 11.871zm-19.292-17.641.179.831c5.049-1.067 5.956 1.968 6.484 4.401l6.495 29.964c.385 1.78 1.195 5.518-3.736 6.561l-.355.075.18.83L7.999.791c4.573-.967 6.545-2.191 7.147-2.566 1.64-1.03 6.679-5.012 5.418-10.827-1.632-7.535-10.131-7.476-13.039-7.419l-.026-.119c3.594-1.194 13.277-4.669 11.206-14.222-1.067-4.925-4.639-7.644-8.826-8.62-2.884-.694-5.365-.108-7.683.382z" clip-path="url(#clipPath56)" style="fill:#d4b586;fill-opacity:1;fill-rule:nonzero;stroke:none" transform="matrix(1.33333 0 0 -1.33333 456.935 239.881)"></path><path d="m0 0 19.227-6.951-.303-.781c-4.835 1.748-6.205-1.126-7.067-3.357L.974-39.256c-.668-1.729-2.005-5.187 2.831-6.935l.227-.082-.302-.781-19.226 6.951.302.781c4.778-1.728 6.183 1.07 7.067 3.356L2.756-7.798C4.2-4.061 3.133-1.959-.28-.725z" clip-path="url(#clipPath58)" style="fill:#d4b586;fill-opacity:1;fill-rule:nonzero;stroke:none" transform="matrix(1.33333 0 0 -1.33333 501.119 249.35)" data-source="https://football-logos.cc"></path><path d="M0 0c10.087-6.603 17.876 5.819 19.778 8.759 4.395 6.79 7.198 19.311.621 23.331C9.91 38.502 2.016 26.128.112 23.189-2.544 19.084-8.74 5.721 0 0m21.95 34.521c11.992-7.833 13.195-20.803 6.7-30.836-6.395-9.882-18.382-14.453-30.724-6.392-13.491 8.811-12.065 22.659-6.653 31.02 6.495 10.034 18.785 13.975 30.677 6.208" clip-path="url(#clipPath60)" style="fill:#d4b586;fill-opacity:1;fill-rule:nonzero;stroke:none" transform="matrix(1.33333 0 0 -1.33333 535.811 324.262)"></path><path d="m0 0-.049.111C-2.893.348-9.9 1.154-13.533 9.555c-2.648 6.119-1.529 12.288 1.485 16.189 1.792 2.347 4.764 4.232 9.454 6.367l16.53 7.521c2.945 1.341 4.711 3.143 2.931 7.26l.764.348 8.133-18.804-.764-.348c-2.046 4.729-4.979 3.661-7.215 2.643L.274 22.763c-1.635-.745-3.958-1.868-5.7-3.726-2.726-2.906-3.185-6.976-1.622-10.592 1.565-3.616 5.171-6.37 9.069-6.327 2.137.041 5.561 1.333 7.58 2.251l16.364 7.447c3.71 1.688 4.503 3.78 2.987 7.285l.709.322L37.794.62 37.03.272c-1.998 4.618-4.814 3.735-7.215 2.643L2.268-9.621c-3.273-1.489-4.695-3.335-2.987-7.285l-.709-.323-5.991 13.853z" clip-path="url(#clipPath62)" style="fill:#d4b586;fill-opacity:1;fill-rule:nonzero;stroke:none" transform="matrix(1.33333 0 0 -1.33333 656.733 454.018)"></path><path d="m0 0 15.84 11.824c4.574 3.414 3.738 6.13 1.96 9.404l.674.503 8.848-11.802-.674-.503c-3.489 3.853-6.688 1.91-9.095.114l-28.551-21.312-.643.857 7.906 44.94-19.5-14.554c-2.552-1.905-5.279-4.979-2.475-9.418l-.674-.503-9.17 12.23.674.503c1.905-2.14 4.912-4.349 8.921-1.283l22.918 17.107c-.011.215.039.549.052.632.062.418.349 2.339.363 2.72.602 4.606.037 6.561-.733 7.989l.674.503L6.628 37.53z" clip-path="url(#clipPath64)" style="fill:#d4b586;fill-opacity:1;fill-rule:nonzero;stroke:none" transform="matrix(1.33333 0 0 -1.33333 634.92 394.877)"></path><path d="M0 0s2.046 3.068 8.911 2.045c0 0 4.382-2.629 5.843-9.641 0 0 .73-4.382 4.236-4.382s1.406-2.775 1.406-2.775-6.534-4.286-9.886 1.216C7.158-8.034 5.844-3.944 5.844-3.944s-.731 3.506-3.798 2.63C2.046-1.314 0-1.607 0 0" clip-path="url(#clipPath66)" style="fill:#d4b586;fill-opacity:1;fill-rule:nonzero;stroke:none" transform="matrix(1.33333 0 0 -1.33333 644.719 339.422)"></path><path d="m0 0 9.938 5.884-10.497 1.18zm-8.122-11.635c-2.903-1.398-1.649-2.896-1.803-4.717l-1.029-.044-2.317 14.045.96.005c.099-.707.031-2.874 1.719-2.746.591.045 1.953.526 2.404.729L-1.98-.725l-.661 8.347-6.372 1.664c-.565.168-1.172.332-2.058.265-2.153-.162-2.257-2.739-2.314-3.626l-.898-.147-.949 9.854h1.133c.291-1.534 1.277-3.269 6.094-4.587l24.619-4.966.326-3.97Z" clip-path="url(#clipPath68)" style="fill:#d4b586;fill-opacity:1;fill-rule:nonzero;stroke:none" transform="matrix(1.33333 0 0 -1.33333 91.243 596.917)"></path><path d="M0 0c3.414 1.852 5.269 4.672 4.516 8.106-.535 2.443-2.514 4.144-5.002 3.616-1.037-.221-2.544-.67-4.253-5.149-.135-.375-.897-2.443-1.073-2.827-1.984-5.403-3.666-8.619-7.938-9.526-4.934-1.049-9.307 2.267-10.585 8.102-.427 1.946-.39 3.556-.287 5.268-.004.215.063 1.096-.082 1.758-.027.124-.209.952-1.295 1.154l-.154.704 8.455 1.623.172-.786c-4.993-1.971-5.938-6.373-5.33-9.147.662-3.021 3.083-4.758 5.447-4.256 2.447.519 3.097 2.304 5.406 8.599 2.095 5.687 4.169 7.513 7.113 8.138 4.313.917 9.885-1.537 11.101-7.083.109-.497.267-1.417.268-2.412.013-.258-.014-1.52-.01-1.735.021-.689.079-1.153.124-1.36.227-1.035.779-1.177 1.198-1.305l.136-.621L.172-.786Z" clip-path="url(#clipPath70)" style="fill:#d4b586;fill-opacity:1;fill-rule:nonzero;stroke:none" transform="matrix(1.33333 0 0 -1.33333 112.378 641.348)"></path><path d="m0 0-.032.076c-1.996.236-6.909.969-9.303 6.717-1.746 4.186-.841 8.305 1.352 10.846 1.306 1.529 3.431 2.715 6.771 4.024l11.768 4.608c2.097.821 3.374 1.986 2.2 4.801l.544.213 5.361-12.865-.543-.213c-1.349 3.235-3.432 2.597-5.024 1.974L.627 15.299c-1.165-.456-2.819-1.149-4.08-2.351-1.973-1.879-2.373-4.604-1.342-7.078s3.515-4.424 6.257-4.501c1.504-.031 3.936.744 5.373 1.307l11.651 4.562c2.641 1.034 3.239 2.419 2.24 4.818l.505.197L26.592-.612l-.544-.214c-1.316 3.16-3.315 2.643-5.024 1.973L1.412-6.532c-2.33-.912-3.366-2.114-2.24-4.818l-.505-.197-3.949 9.478z" clip-path="url(#clipPath72)" style="fill:#d4b586;fill-opacity:1;fill-rule:nonzero;stroke:none" transform="matrix(1.33333 0 0 -1.33333 104.631 686.493)"></path><path d="m0 0 11.648 6.613c3.363 1.909 2.997 3.82 2.03 6.191l.496.281 5.141-8.759-.496-.281c-2.086 2.912-4.406 1.878-6.176.873L-8.352-7l-1.127.635 9.464 29.713-14.339-8.14c-1.876-1.065-3.958-2.907-2.381-6.155l-.496-.282-5.328 9.078.496.281c1.137-1.615 3.018-3.372 5.971-1.65L.76 26.048c.009.145.068.368.082.424.074.276.411 1.55.449 1.808.751 3.063.512 4.435.094 5.469l.496.281 5.411-9.218z" clip-path="url(#clipPath74)" style="fill:#d4b586;fill-opacity:1;fill-rule:nonzero;stroke:none" transform="matrix(1.33333 0 0 -1.33333 138.041 735.15)"></path><path d="M0 0c3.806 4.555 3.617 9.136.371 12.571-2.384 2.525-5.48 3.202-7.66 2.849-3.271-.587-5.548-2.723-7.986-4.857-7.078-6.476-5.444-12.529-2.744-15.387 3.505-3.71 8.181-3.935 11.078-3.677l-2.512-2.256c-3.52-.081-8.128.384-12.724 5.249-7.096 7.51-4.95 16.057.769 21.065 3.906 3.421 8.241 4.662 12.014 4.354 5.06-.459 8.171-3.235 10.727-5.94 1.724-1.825 2.822-3.532 3.931-5.671.167-.298.339-.754.856-1.302.747-.79 2-.409 2.518-.233l.402-.77-8.031-7.034Z" clip-path="url(#clipPath76)" style="fill:#d4b586;fill-opacity:1;fill-rule:nonzero;stroke:none" transform="matrix(1.33333 0 0 -1.33333 177.02 764.725)"></path><path d="m0 0 10.53-9.751-.414-.414c-2.648 2.452-4.339 1-5.522-.183l-14.928-14.933c-.916-.917-2.749-2.75-.101-5.202l.124-.117-.413-.413-10.53 9.75.414.414c2.617-2.423 4.309-1.029 5.521.183L-.391-5.732C1.59-3.75 1.485-2.115-.384-.385z" clip-path="url(#clipPath78)" style="fill:#d4b586;fill-opacity:1;fill-rule:nonzero;stroke:none" transform="matrix(1.33333 0 0 -1.33333 192.309 761.01)"></path><path d="m0 0 5.745 11.549c1.787 3.593.555 5.472-1.566 7.04l.577 1.036 9.161-4.909-.462-.972c-3.364 1.42-4.87-1.322-5.81-3.214L-3.192-10.933l-1.254.946-8.053 29.491-7.52-14.498c-.997-2.004-1.219-3.702 1.175-6.097l-.524-.789-9.492 5.087.445.944c1.848-.798 4.402-1.356 5.945 1.84l8.771 17.634c-.073.135-3.463 5.921-3.463 5.921l.452 1.155 10.195-5.496z" clip-path="url(#clipPath80)" style="fill:#d4b586;fill-opacity:1;fill-rule:nonzero;stroke:none" transform="matrix(1.33333 0 0 -1.33333 265.583 844.342)"></path><path d="m0 0-11.766 3.619 1.153 3.593 11.765-3.62z" clip-path="url(#clipPath82)" style="fill:#d4b586;fill-opacity:1;fill-rule:nonzero;stroke:none" transform="matrix(1.33333 0 0 -1.33333 312.551 858.293)"></path><path d="M0 0c-.378-2.318-.108-4.964 3.235-5.378l-.093-1.227-15.251 1.89.092 1.227c3.848-.478 4.613 2.785 4.898 4.535l2.096 12.858c.186 1.14.372 2.57-1.002 2.74-.824.101-1.662-.168-2.815-.648l-.327.58 12.229 7.656.87-.107z" clip-path="url(#clipPath84)" style="fill:#d4b586;fill-opacity:1;fill-rule:nonzero;stroke:none" transform="matrix(1.33333 0 0 -1.33333 348.656 875.38)"></path><path d="M0 0c-3.749.367-4.797-3.488-5.032-6.191-.22-2.53.2-6.881 4.199-7.273 1.999-.195 3.854.855 5.138 3.06C4.627-7.666 4.998-.489 0 0m-12.607-25.493c2.007-.109 5.392-.308 8.641 1.309 3.29 1.613 6.4 3.364 7.949 10.557l-.076.095c-.916-.877-3.385-3.187-7.217-2.812-3.665.36-8.326 3.762-7.83 9.475C-10.689-1.68-6.323 2.643.549 1.97c7.83-.767 10.875-7.794 10.303-14.379-.41-4.709-2.854-9.586-7.391-12.969-5.479-4.081-11.268-3.514-13.726-3.273-1.416.138-1.995.239-2.699.352z" clip-path="url(#clipPath86)" style="fill:#d4b586;fill-opacity:1;fill-rule:nonzero;stroke:none" transform="matrix(1.33333 0 0 -1.33333 375.544 848.055)"></path><path d="M0 0c-.042-2.424.61-4.443 4.02-4.494l-.011-1.353-14.641.185.011 1.058c3.922-.057 3.646 3.992 3.679 5.82l-.107 12.409c.005.27-.023.543-.07.805a1.523 1.523 0 0 1-2.18 1.083c-.648-.328-1.328-.74-1.877-1.054l-.41.56 10.06 9.91 1.408.138z" clip-path="url(#clipPath88)" style="fill:#d4b586;fill-opacity:1;fill-rule:nonzero;stroke:none" transform="matrix(1.33333 0 0 -1.33333 410.371 879.51)"></path><path d="M0 0c.525 0 1.094.005 1.663.009.609.048 1.223.055 1.788.1 4.48.352 4.944 2.317 4.614 6.036-.111 1.251-.056 5.873-4.275 5.542-1.697-.135-4.279-1.773-4.984-6.671l-1.356.002-1.168 7.602 1.256.33a1.56 1.56 0 0 1 1.388-.826c.435.034 1.065.327 1.236.382 2.528 1.135 4.355 1.278 5.139 1.34 6.263.494 9.624-2.824 9.935-6.339.207-2.344-.879-4.912-4.756-6.642l.007-.08c6.362-.598 7.875-4.834 8.075-7.097.309-3.474-1.803-8.809-9.2-9.391-4.567-.359-7.649 1.309-10.062 2.83l-.186 2.101c3.557-2.081 5.745-2.56 7.877-2.392 4.394.347 4.523 4.082 4.337 6.184-.419 4.728-2.863 5.143-7.257 4.796-1.653-.129-3.892-.29-3.892-.29z" clip-path="url(#clipPath90)" style="fill:#d4b586;fill-opacity:1;fill-rule:nonzero;stroke:none" transform="matrix(1.33333 0 0 -1.33333 422.318 864.01)"></path><path d="m0 0-12.04-2.613-.833 3.676L-.832 3.677z" clip-path="url(#clipPath92)" style="fill:#d4b586;fill-opacity:1;fill-rule:nonzero;stroke:none" transform="matrix(1.33333 0 0 -1.33333 485.689 857.738)"></path><path d="M0 0c.826.19 1.07.255 1.868.614C6.351 2.634 5.79 6.938 4.66 9.528c-1.213 2.781-3.876 5.134-8.168 3.2a9.5 9.5 0 0 1-1.642-.922zm4.286-9.824c1.412-3.238 3.406-2.703 5.153-1.916l.234-.532-13.067-5.889-.232.533c.911.411 3.38 1.524 2.034 4.608l-8.572 19.65c-1.18 2.703-2.701 3.065-4.942 2.056l-.233.533L-.868 15.74c6.533 2.944 10.309-.503 11.689-3.664 1.395-3.198.408-5.831-.383-7.143-1.096-1.862-2.626-3.462-6.5-5.208-1.481-.667-2.329-.913-3.29-1.21Z" clip-path="url(#clipPath94)" style="fill:#d4b586;fill-opacity:1;fill-rule:nonzero;stroke:none" transform="matrix(1.33333 0 0 -1.33333 520.625 841.255)"></path><path d="m0 0-8.671 6.477 2.282-10.515zm13.705-1.86c2.569-1.884 4.264-1.407 5.953-.684l.309-.497-12.172-7.693-.31.496c.585.419 2.411 1.72 1.527 3.137-.311.497-1.361 1.463-1.747 1.762L1.739-1.271l-7.674-4.852 1.431-6.358c.108-.574.239-1.183.704-1.927 1.127-1.807 2.866-1.005 3.683-.637l.309-.496-7.71-4.874-.309.496c1.231.977 2.324 2.655 1.298 7.491l-5.478 25.047 3.32 2.099z" clip-path="url(#clipPath96)" style="fill:#d4b586;fill-opacity:1;fill-rule:nonzero;stroke:none" transform="matrix(1.33333 0 0 -1.33333 560.077 822.832)"></path><path d="m0 0 8.296-9.585 1.048.932c3.555 3.162 3.854 6.518 1.079 9.723-2.555 2.952-5.757 3.08-9.185.032Zm9.396-10.854 6.318-7.301c2.39-2.761 3.983-1.681 5.408-.47l.357-.412-10.73-9.545-.385.444c2.699 2.401 1.397 4.163.271 5.465L-3.211-6.677c-1.923 2.222-3.472 2.193-5.408.47l-.385.444L2.837 4.771c4.826 4.292 9.779 4.542 12.802 1.05 2.554-2.952 1.947-6.468.202-9.258 2.198.383 4.386-.198 6.187-.787l6.742-2.205c3.922-1.285 4.853-.738 5.911-.078l.384-.444-7.364-6.551c-1.132.398-2.09.725-4.316 1.609-8.413 3.359-10.466 4.172-13.26 1.688z" clip-path="url(#clipPath98)" style="fill:#d4b586;fill-opacity:1;fill-rule:nonzero;stroke:none" transform="matrix(1.33333 0 0 -1.33333 578.993 785.053)"></path><path d="m0 0-10.531 3.404 5.597-9.26zm13.958 2.571c3.11-.976 4.607.013 6.022 1.234l.461-.373-9.399-11.158-.46.373c.436.583 1.798 2.398.481 3.462-.461.374-1.795.959-2.269 1.121L2.104-.657l-5.926-7.034 3.433-5.585c.29-.511.614-1.047 1.305-1.606 1.679-1.359 3.116-.047 3.795.561l.46-.374-5.953-7.067-.461.373c.888 1.318 1.415 3.257-1.138 7.523L-15.753 8.181l2.564 3.043z" clip-path="url(#clipPath100)" style="fill:#d4b586;fill-opacity:1;fill-rule:nonzero;stroke:none" transform="matrix(1.33333 0 0 -1.33333 631.702 760.625)"></path><path d="M0 0c-4.308.799-8.356-.074-11.146-4.365-4.404-6.772.097-12.139 5.516-15.37 7.8-4.653 13.984-3.815 17.165 1.079 2.628 4.042.476 4.748-1.136 5.709L7.36-11.135c-1.245.742-2.863 2.287-4.752-.228l-.549.328L8.975-.398l.549-.328c-.818-1.726-.313-3.061 1.445-4.109l6.407-3.822c-.513-3.68-2.002-7.221-4.076-10.412-3.919-6.028-7.608-7.715-10.601-8.489-3.231-.828-7.698-.821-12.311 1.931-8.055 4.805-9.473 14.114-4.724 21.419 1.406 2.163 2.368 3.016 5.262 5.67a8 8 0 0 1 1.469 1.633c.622.958-.146 1.808-.516 2.177l.919.497L.323.497z" clip-path="url(#clipPath102)" style="fill:#d4b586;fill-opacity:1;fill-rule:nonzero;stroke:none" transform="matrix(1.33333 0 0 -1.33333 657.05 707.319)"></path><path d="m0 0-.034-.075C1.183-1.627 4.068-5.55 1.49-11.213c-1.877-4.124-5.551-6.36-8.959-6.603-2.041-.158-4.4.495-7.696 1.907l-11.613 4.972c-2.07.886-3.82.964-5.083-1.811l-.536.229L-26.628.156l.535-.229c-1.45-3.188.475-4.191 2.046-4.864l12.303-5.268c1.15-.493 2.814-1.161 4.583-1.201 2.765-.064 5.057 1.553 6.167 3.99s.818 5.52-1.038 7.479C-3.058 1.13-5.327 2.282-6.746 2.889l-11.497 4.923c-2.608 1.117-4.047.569-5.122-1.794l-.498.213 5.768 12.675.537-.23c-1.417-3.113.359-4.142 2.045-4.863L3.843 5.524c2.299-.985 3.909-.868 5.122 1.794l.498-.213-4.25-9.337Z" clip-path="url(#clipPath104)" style="fill:#d4b586;fill-opacity:1;fill-rule:nonzero;stroke:none" transform="matrix(1.33333 0 0 -1.33333 693.273 678.712)"></path><path d="m0 0-10.842-.839 8.598-6.568zm11.676 7.78c3.189.276 4.171 1.782 4.99 3.474l.56-.174L12.95-3.031l-.559.174c.172.715.717 2.946-.882 3.444-.56.174-1.992.212-2.482.183L2.157.19-.538-8.708 4.7-12.646c.456-.369.953-.75 1.793-1.011 2.04-.634 2.843 1.153 3.227 1.985l.559-.174-2.708-8.938-.559.174c.303 1.581.043 3.608-3.894 6.644L-17.393 1.651l1.165 3.85z" clip-path="url(#clipPath106)" style="fill:#d4b586;fill-opacity:1;fill-rule:nonzero;stroke:none" transform="matrix(1.33333 0 0 -1.33333 696.881 635.689)"></path><path d="M0 0c-.243-3.101.961-5.662 4.201-8.558l7.731-6.882 11.886-1.438c2.6-.313 4.063.359 4.434 3.444l.596-.072-1.789-14.9-.597.073c.439 3.658-1.616 4.175-3.491 4.402l-10.225 1.237-13.232-7.971c-3.167-1.898-3.539-2.837-3.746-4.557l-.596.073 1.874 15.605.597-.072c-.084-1.064-.19-2.66 1.087-2.815.64-.078 1.416.276 2.578.941l8.803 4.928-6.207 5.536c-.388.36-1.64 1.451-3.09 1.626-.766.092-1.932-.259-2.245-2.501l-.596.072L-.598.072z" clip-path="url(#clipPath108)" style="fill:#d4b586;fill-opacity:1;fill-rule:nonzero;stroke:none" transform="matrix(1.33333 0 0 -1.33333 684.534 570.542)"></path><path d="M0 0c6.785-5.005 12.7 2.827 14.149 4.705 3.348 4.341 7.682 11.461 1.636 15.922-6.92 5.104-12.696-3.59-14.145-5.468C-.384 12.535-6.852 5.055 0 0m16.717 21.972C24.778 16.025 25.09 7.205 20.143.793 15.27-5.523 6.707-7.947-1.59-1.828c-9.069 6.69-7.077 15.957-2.954 21.302 4.947 6.413 13.267 8.395 21.261 2.498" clip-path="url(#clipPath110)" style="fill:#d4b586;fill-opacity:1;fill-rule:nonzero;stroke:none" transform="matrix(1.33333 0 0 -1.33333 202.617 819.546)"></path><path d="m0 0 8.984 3.651 6.866-5.566L.694-.694Z" clip-path="url(#clipPath112)" style="fill:#d4b586;fill-opacity:1;fill-rule:nonzero;stroke:none" transform="matrix(1.33333 0 0 -1.33333 220.125 783.005)" data-source="https://football-logos.cc"></path><!-- source: https://football-logos.cc --></svg>