<?xml version="1.0" encoding="UTF-8"?>
<svg id="Calque_5" data-name="Calque 5" xmlns="http://www.w3.org/2000/svg" viewBox="0 0 579.09 745.42">
  <defs>
    <style>
      .cls-1, .cls-2 {
        fill: #fecc00;
      }

      .cls-3, .cls-4, .cls-2 {
        fill-rule: evenodd;
      }

      .cls-5 {
        fill: #fff;
      }

      .cls-4 {
        fill: #ebecec;
      }
    </style>
  </defs>
  <g>
    <g>
      <path class="cls-3" d="M273.37,54.58h-53.83l-14.74-45.35-1.9-5.85-1.9,5.85-14.73,45.35h-53.84l4.98,3.61,38.58,28.03-14.74,45.34-1.9,5.86,4.98-3.62,38.57-28.02,38.58,28.02,4.98,3.62-1.91-5.86-14.73-45.34,38.57-28.03,4.98-3.61ZM202.9,103.3l-39.75,28.88,15.19-46.73-39.75-28.87h49.13l15.18-46.73,15.19,46.73h49.13l-39.75,28.87,15.18,46.73-39.75-28.88Z"/>
      <polygon class="cls-2" points="227.47 85.45 242.65 132.18 202.9 103.3 163.15 132.18 178.34 85.45 138.59 56.58 187.72 56.58 202.9 9.85 218.09 56.58 267.22 56.58 227.47 85.45"/>
    </g>
    <g>
      <polygon class="cls-2" points="400.75 85.45 415.93 132.18 376.18 103.3 336.43 132.18 351.61 85.45 311.87 56.58 361 56.58 376.18 9.85 391.36 56.58 440.49 56.58 400.75 85.45"/>
      <path d="M446.65,54.58h-53.83l-14.74-45.35-1.9-5.85-1.9,5.85-14.74,45.35h-53.83l4.98,3.61,38.57,28.03-14.73,45.34-1.9,5.86,4.98-3.62,38.57-28.02,38.57,28.02,4.98,3.62-1.9-5.86-14.73-45.34,38.57-28.03,4.98-3.61ZM376.18,103.3l-39.75,28.88,15.18-46.73-39.74-28.87h49.13l15.18-46.73,15.18,46.73h49.13l-39.74,28.87,15.18,46.73-39.75-28.88Z"/>
    </g>
  </g>
  <g>
    <path class="cls-1" d="M356.41,578.95l1.35.96c-3.29,2.57-6.74,4.96-10.31,7.13l-1.44-1.03-21.31-15.2-.26-.19-9.11-6.5-.05-.03-27.2-19.41-.95-.68-16.54,11.8-17.59,12.55-1.98,1.41-18.51,13.22h-.01l-1.41,1.01c-3.4-2.32-6.66-4.83-9.77-7.52l1.34-.96h.01s7.88-5.63,7.88-5.63l4.85-3.46,1.09-.78,6.96-4.97,32.96-23.51,10.72-7.65,15.58,11.12,31.25,22.29,6,4.29,4.51,3.21,2.91,2.08,9.03,6.44h0Z"/>
    <g>
      <path d="M527.67,316.44c-18.81,0-35.63,10.83-43.65,27.26l-120.84-3.26-39.88-116.91c9.41-9.08,14.83-21.58,14.83-34.91,0-26.79-21.79-48.58-48.58-48.58s-48.58,21.79-48.58,48.58c0,13.33,5.41,25.84,14.82,34.91l-39.87,116.92-120.84,3.26c-8.02-16.43-24.84-27.27-43.66-27.27-26.79,0-48.58,21.79-48.58,48.58s21.79,48.58,48.58,48.58c8.11,0,16.06-2.03,23.11-5.84l56.53,44.8,2.97,2.34,36.01,28.54h.01l.66.53-.18.63-13.04,45.59-.43,1.52-21.72,75.96c-24.79,2.17-44.31,23.04-44.31,48.39,0,26.79,21.79,48.58,48.58,48.58s48.58-21.79,48.58-48.58c0-3.41-.34-6.75-1.02-10.01l69.94-49.91,1.6-1.14h.01s8.08-5.78,8.08-5.78l22.75-16.23,26.77,19.1,6.87,4.91,1.68,1.19h.01l67.06,47.86c-.69,3.26-1.03,6.61-1.03,10.01,0,26.79,21.79,48.58,48.58,48.58s48.58-21.79,48.58-48.58c0-25.35-19.52-46.23-44.32-48.4l-21.71-75.94-1.16-4.05h0s-5.49-19.21-5.49-19.21l-7-24.49,7-5.55,14.89-11.79,14.94-11.85,3.65-2.88,3.43-2.72,52.27-41.42c7.05,3.81,14.99,5.84,23.1,5.84,26.79,0,48.58-21.79,48.58-48.58s-21.79-48.58-48.58-48.58ZM527.67,390c-9.53,0-17.81-5.34-22.02-13.2l-76.23,60.4-4.42,3.5-9.78,7.75-9.49,7.52-1.65,1.31-5.51,4.36-1.35,1.07-.73.58-.14.11-9.4,7.45-5.58,4.42,5.48,19.18,8.58,30.01.51,1.79.78,2.74,30.15,105.51c3.7-2.17,8.01-3.42,12.62-3.42,13.79,0,24.98,11.19,24.98,24.98s-11.19,24.98-24.98,24.98-24.98-11.18-24.98-24.98c0-6.9,2.8-13.15,7.32-17.67l-71.96-51.35-1.44-1.03-21.31-15.2-.26-.19-9.11-6.5-.05-.03-27.2-19.41-.95-.68-16.54,11.8-17.59,12.55-1.98,1.41-18.51,13.22h-.01l-1.41,1.01-76.25,54.4c4.53,4.52,7.33,10.77,7.33,17.67,0,13.8-11.19,24.98-24.98,24.98s-24.98-11.18-24.98-24.98,11.18-24.98,24.98-24.98c4.6,0,8.91,1.25,12.61,3.42l31.45-110.04,1.11-3.88,2.27-7.95h0s1.09-3.81,1.09-3.81v-.03l9.59-33.52-8.25-6.54h-.01l-1.47-1.17-3.36-2.66-15.05-11.93-18.09-14.33-3.84-3.04-74.21-58.8c-4.21,7.86-12.49,13.2-22.03,13.2-13.79,0-24.98-11.18-24.98-24.98s11.19-24.98,24.98-24.98,24.98,11.19,24.98,24.98c0,.95-.06,1.88-.16,2.8l148.44-4.01,7.62-.2.66-.02,51.35-150.55c-11.28-2.39-19.74-12.42-19.74-24.42,0-13.79,11.18-24.98,24.98-24.98s24.98,11.19,24.98,24.98c0,12-8.46,22.02-19.74,24.42l50.75,148.8.6,1.75,2.16.06h.01l12.25.33,8.03.22,134.27,3.62c-.11-.92-.16-1.85-.16-2.8,0-13.79,11.18-24.98,24.97-24.98s24.98,11.19,24.98,24.98-11.18,24.98-24.98,24.98Z"/>
      <path class="cls-5" d="M527.67,328.24c-10.67,0-20.29,4.57-27.01,11.85-.68.73-1.32,1.48-1.93,2.26-.48.62-.95,1.26-1.4,1.91-.68.99-1.31,2.01-1.89,3.07-.48.87-.92,1.76-1.33,2.67-.83,1.84-1.5,3.75-2.02,5.72h0s-137.43-3.7-137.43-3.7l-45.2-132.5h.01c2.24-1.45,4.3-3.14,6.16-5.02.8-.81,1.56-1.65,2.28-2.53.63-.77,1.23-1.56,1.8-2.37.37-.54.74-1.1,1.09-1.66.53-.84,1.02-1.71,1.47-2.59.34-.68.67-1.37.98-2.06,1.98-4.53,3.08-9.5,3.08-14.67,0-20.28-16.5-36.78-36.78-36.78s-36.78,16.5-36.78,36.78c0,12.71,6.63,24.27,16.86,30.9l-45.19,132.5-137.43,3.71c-4.13-15.8-18.52-27.49-35.59-27.49-20.28,0-36.78,16.5-36.78,36.78s16.5,36.78,36.78,36.78c4.97,0,9.78-.99,14.2-2.84.37-.16.73-.32,1.09-.48.73-.33,1.44-.69,2.14-1.06.35-.19.7-.38,1.04-.58,1.84-1.07,3.59-2.3,5.22-3.67l61.73,48.91h0s2.74,2.17,2.74,2.17h0s7.06,5.6,7.06,5.6c0,0,0,.01.01.01l21.37,16.93,1.16.92h.01l15.02,11.91-13.77,48.18-26.23,91.77c-1.52-.19-3.06-.29-4.6-.29-20.28,0-36.78,16.5-36.78,36.78s16.5,36.78,36.78,36.78,36.78-16.5,36.78-36.78c0-5.13-1.04-10.1-3.03-14.66l71.2-50.8,1.49-1.07h.01l17.06-12.17,16.65-11.88h.01l9.77-6.98,11.06,7.89h.01l27.81,19.85,8.22,5.87h.01l1.53,1.1h.01l67.53,48.19c-.87,2-1.56,4.07-2.05,6.2-.64,2.74-.97,5.57-.97,8.46,0,20.28,16.5,36.78,36.78,36.78s36.78-16.5,36.78-36.78-16.5-36.78-36.78-36.78c-1.55,0-3.09.1-4.61.29h-.01l-26.22-91.77-6.49-22.7h0s-1.21-4.2-1.21-4.2v-.04l-3.57-12.49-2.5-8.75,2.5-1.98,2.61-2.07h.01l1.44-1.15,13.95-11.05,14.89-11.8,4.28-3.39,9.44-7.48,4.42-3.5,55.57-44.03c6.52,5.49,14.86,8.63,23.68,8.63,20.28,0,36.78-16.5,36.78-36.78s-16.5-36.78-36.78-36.78ZM527.67,390c-9.53,0-17.81-5.34-22.02-13.2l-76.23,60.4-4.42,3.5-9.78,7.75-9.49,7.52-1.65,1.31-5.51,4.36-1.35,1.07-.73.58-.14.11-9.4,7.45-5.58,4.42,5.48,19.18,8.58,30.01.51,1.79.78,2.74,30.15,105.51c3.7-2.17,8.01-3.42,12.62-3.42,13.79,0,24.98,11.19,24.98,24.98s-11.19,24.98-24.98,24.98-24.98-11.18-24.98-24.98c0-6.9,2.8-13.15,7.32-17.67l-71.96-51.35-1.44-1.03-21.31-15.2-.26-.19-9.11-6.5-.05-.03-27.2-19.41-.95-.68-16.54,11.8-17.59,12.55-1.98,1.41-18.51,13.22h-.01l-1.41,1.01-76.25,54.4c4.53,4.52,7.33,10.77,7.33,17.67,0,13.8-11.19,24.98-24.98,24.98s-24.98-11.18-24.98-24.98,11.18-24.98,24.98-24.98c4.6,0,8.91,1.25,12.61,3.42l31.45-110.04,1.11-3.88,2.27-7.95h0s1.09-3.81,1.09-3.81v-.03l9.59-33.52-8.25-6.54h-.01l-1.47-1.17-3.36-2.66-15.05-11.93-18.09-14.33-3.84-3.04-74.21-58.8c-4.21,7.86-12.49,13.2-22.03,13.2-13.79,0-24.98-11.18-24.98-24.98s11.19-24.98,24.98-24.98,24.98,11.19,24.98,24.98c0,.95-.06,1.88-.16,2.8l148.44-4.01,7.62-.2.66-.02,51.35-150.55c-11.28-2.39-19.74-12.42-19.74-24.42,0-13.79,11.18-24.98,24.98-24.98s24.98,11.19,24.98,24.98c0,12-8.46,22.02-19.74,24.42l50.75,148.8.6,1.75,2.16.06h.01l12.25.33,8.03.22,134.27,3.62c-.11-.92-.16-1.85-.16-2.8,0-13.79,11.18-24.98,24.97-24.98s24.98,11.19,24.98,24.98-11.18,24.98-24.98,24.98Z"/>
      <path class="cls-5" d="M527.67,328.24c-10.67,0-20.29,4.57-27.01,11.85-.67.73-1.31,1.48-1.93,2.26-.48.62-.95,1.26-1.4,1.91-.68.99-1.31,2.01-1.89,3.07-.48.87-.92,1.76-1.33,2.67-.83,1.84-1.5,3.75-2.02,5.72l-137.43-3.7-45.19-132.5c2.24-1.45,4.3-3.14,6.16-5.02.8-.81,1.56-1.65,2.28-2.53.63-.77,1.23-1.56,1.8-2.37.38-.54.74-1.1,1.09-1.66.53-.84,1.02-1.71,1.47-2.59.35-.68.68-1.37.98-2.06,1.98-4.53,3.08-9.5,3.08-14.67,0-20.28-16.5-36.78-36.78-36.78s-36.78,16.5-36.78,36.78c0,12.71,6.63,24.27,16.86,30.9l-45.19,132.5-137.43,3.71c-4.13-15.8-18.52-27.49-35.59-27.49-20.28,0-36.78,16.5-36.78,36.78s16.5,36.78,36.78,36.78c4.97,0,9.78-.99,14.2-2.84.37-.16.73-.32,1.09-.48.73-.33,1.44-.69,2.14-1.06.35-.19.7-.38,1.04-.58,1.84-1.07,3.59-2.3,5.22-3.67l61.73,48.91,2.74,2.17,7.06,5.6s0,.01.01.01l21.37,16.93,1.16.92h.01l15.02,11.91h.01l-13.77,48.18h-.01l-26.23,91.77c-1.52-.19-3.06-.29-4.6-.29-20.28,0-36.78,16.5-36.78,36.78s16.5,36.78,36.78,36.78,36.78-16.5,36.78-36.78c0-5.13-1.04-10.1-3.03-14.66l71.2-50.8,1.49-1.07h.01l17.06-12.17,16.65-11.88h.01l9.77-6.98,11.06,7.89h.01l27.81,19.85,8.22,5.87h.01l1.53,1.1h.01l67.53,48.19h.01c-.88,2-1.56,4.07-2.06,6.2-.64,2.74-.97,5.57-.97,8.46,0,20.28,16.5,36.78,36.78,36.78s36.78-16.5,36.78-36.78-16.5-36.78-36.78-36.78c-1.55,0-3.09.1-4.61.29l-26.23-91.77-6.49-22.7h0s-1.21-4.2-1.21-4.2v-.04l-3.57-12.49-2.5-8.75,2.5-1.98,2.61-2.07h.01l1.44-1.15,13.95-11.05,14.89-11.8,4.28-3.39,9.44-7.48,4.42-3.5,55.57-44.03c6.52,5.49,14.86,8.63,23.68,8.63,20.28,0,36.78-16.5,36.78-36.78s-16.5-36.78-36.78-36.78ZM527.67,390c-9.53,0-17.81-5.34-22.02-13.2l-76.23,60.4-4.42,3.5-9.78,7.75-9.49,7.52-1.65,1.31-5.51,4.36-1.35,1.07-.73.58-.14.11-9.4,7.45-5.58,4.42,5.48,19.18,8.58,30.01.51,1.79.78,2.74,30.15,105.51c3.7-2.17,8.01-3.42,12.62-3.42,13.79,0,24.98,11.19,24.98,24.98s-11.19,24.98-24.98,24.98-24.98-11.18-24.98-24.98c0-6.9,2.8-13.15,7.32-17.67l-71.96-51.35-1.44-1.03-21.31-15.2-.26-.19-9.11-6.5-.05-.03-27.2-19.41-.95-.68-16.54,11.8-17.59,12.55-1.98,1.41-18.51,13.22h-.01l-1.41,1.01-76.25,54.4c4.53,4.52,7.33,10.77,7.33,17.67,0,13.8-11.19,24.98-24.98,24.98s-24.98-11.18-24.98-24.98,11.18-24.98,24.98-24.98c4.6,0,8.91,1.25,12.61,3.42l31.45-110.04,1.11-3.88,2.27-7.95h0s1.09-3.81,1.09-3.81v-.03l9.59-33.52-8.25-6.54h-.01l-1.47-1.17-3.36-2.66-15.05-11.93-18.09-14.33-3.84-3.04-74.21-58.8c-4.21,7.86-12.49,13.2-22.03,13.2-13.79,0-24.98-11.18-24.98-24.98s11.19-24.98,24.98-24.98,24.98,11.19,24.98,24.98c0,.95-.06,1.88-.16,2.8l148.44-4.01,7.62-.2.66-.02,51.35-150.55c-11.28-2.39-19.74-12.42-19.74-24.42,0-13.79,11.18-24.98,24.98-24.98s24.98,11.19,24.98,24.98c0,12-8.46,22.02-19.74,24.42l50.75,148.8.6,1.75,2.16.06h.01l12.25.33,8.03.22,134.27,3.62c-.11-.92-.16-1.85-.16-2.8,0-13.79,11.18-24.98,24.97-24.98s24.98,11.19,24.98,24.98-11.18,24.98-24.98,24.98Z"/>
      <path class="cls-1" d="M552.65,365.02c0,13.8-11.18,24.98-24.98,24.98-9.53,0-17.81-5.34-22.02-13.2l-76.23,60.4-4.42,3.5-9.78,7.75-9.49,7.52-1.65,1.31-5.51,4.36-1.35,1.07-.73.58-.14.11-9.4,7.45-5.58,4.42,5.48,19.18,8.58,30.01.51,1.79.78,2.74,30.15,105.51c3.7-2.17,8.01-3.42,12.62-3.42,13.79,0,24.98,11.19,24.98,24.98s-11.19,24.98-24.98,24.98-24.98-11.18-24.98-24.98c0-6.9,2.8-13.15,7.32-17.67l-71.96-51.35-1.44-1.03-21.31-15.2-.26-.19-9.11-6.5-.05-.03-27.2-19.41-.95-.68-16.54,11.8-17.59,12.55-1.98,1.41-18.51,13.22h-.01l-1.41,1.01-76.25,54.4c4.53,4.52,7.33,10.77,7.33,17.67,0,13.8-11.19,24.98-24.98,24.98s-24.98-11.18-24.98-24.98,11.18-24.98,24.98-24.98c4.6,0,8.91,1.25,12.61,3.42l31.45-110.04,1.11-3.88,2.27-7.95h0s1.09-3.81,1.09-3.81v-.03l9.59-33.52-8.25-6.54h-.01l-1.47-1.17-3.36-2.66-15.05-11.93-18.09-14.33-3.84-3.04-74.21-58.8c-4.21,7.86-12.49,13.2-22.03,13.2-13.79,0-24.98-11.18-24.98-24.98s11.19-24.98,24.98-24.98,24.98,11.19,24.98,24.98c0,.95-.06,1.88-.16,2.8l148.44-4.01,7.62-.2.66-.02,51.35-150.55c-11.28-2.39-19.74-12.42-19.74-24.42,0-13.79,11.18-24.98,24.98-24.98s24.98,11.19,24.98,24.98c0,12-8.46,22.02-19.74,24.42l50.75,148.8.6,1.75,2.16.06h.01l12.25.33,8.03.22,134.27,3.62c-.11-.92-.16-1.85-.16-2.8,0-13.79,11.18-24.98,24.97-24.98s24.98,11.19,24.98,24.98Z"/>
    </g>
    <g>
      <g>
        <path d="M213.83,396.8c-.32-1.81-1.18-3.53-2.58-4.93l-.31-.31c-.64-.66-1.3-1.3-2.04-1.73-.54-.21-1.08-.53-1.72-.74-1.4-.43-2.78-.64-4.29-.54-1.5.11-2.9.54-4.29,1.18-.43.22-.86.43-1.29.64-.85.53-1.61,1.19-2.35,1.93h-.11c-2.58,2.58-3.98,5.47-4.08,8.58-.1,1.61.1,3.01.54,4.5.53,1.4,1.29,2.68,2.36,3.75.42.33.85.76,1.29,1.08.74.53,1.5.96,2.35,1.29.12,0,.22,0,.22.11,1.51.53,3,.64,4.6.53,2.48-.21,4.73-1.28,6.77-3.01.43-.31.74-.64,1.17-1.07.43-.41.87-.95,1.18-1.49.97-1.07,1.61-2.37,2.04-3.75.76-1.94.97-3.98.54-6.02ZM208.9,404.53c-.21.54-.54.97-.97,1.39-1.28,1.29-2.79,1.61-4.4.97-1.6-.65-3.21-1.72-4.72-3.22-.53-.54-1.07-1.07-1.5-1.71-.64-.87-1.18-1.82-1.49-2.89-.54-1.61-.22-3.01,1.07-4.29.11-.23.31-.33.42-.44,1.19-.86,2.37-1.07,3.75-.64,1.61.54,3.11,1.49,4.41,2.89,1.82,1.72,2.89,3.32,3.43,4.72h0c.43,1.18.43,2.25,0,3.22Z"/>
        <path d="M199.14,419.98c-.1.41-.33.95-.76,1.61l-1.07,1.38-2.35,3.65-.44.54c-.43.64-.74,1.07-1.17,1.28-.33.32-.75.22-1.28-.11-.44-.21-.54-.74-.44-1.61,0-.53,0-.96-.22-1.17-.21-.33-.74-.87-1.82-1.51l-9.65-6.54-.33.44c-.53.74-.95,1.28-1.28,1.5-.32.21-.86.11-1.5-.33-.31-.32-.64-.64-.75-.96-.1-.44.11-1.08.64-1.82l.54-.76c-1.5-.95-2.68-1.82-3.54-2.56-.96-.76-1.72-1.61-2.36-2.58-.74-1.4-1.07-2.68-.97-4.19.11-1.4.54-2.78,1.51-4.08.64-.95,1.4-1.71,2.35-2.25.97-.53,1.83-.43,2.58.11.64.33.97.86,1.18,1.5.11.64,0,1.3-.42,1.84-.22.31-.43.53-.76.74-.31.21-.64.33-1.07.54-.44.1-.64.2-.64.2-.33.44.2,1.08,1.6,1.94l4.4,3.01.76-1.07.42-.76c.43-.54.86-.97,1.19-1.18.41-.21.85-.1,1.49.21.53.43.86.86.76,1.4-.11.43-.44,1.18-1.08,2.14l-.76,1.08,9.66,6.54c.53.43.96.64,1.4.86.32.21.53.31.74.31s.66-.1,1.19-.31c.11-.1.31-.22.42-.22.53-.21.86-.21,1.19,0,.54.43.74.76.64,1.19Z"/>
        <path d="M230.34,390.8l-4.08,2.79-.74.53c-.87.54-1.51.87-2.04.97-.43.22-.97.1-1.39-.1-.43-.33-.97-.87-1.5-1.61l-7.84-11.7-.74.44c-.22.21-.54.32-.76.43-.31.21-.75.43-1.07.43-.42.1-.85-.12-1.28-.76-.33-.43-.44-.85-.21-1.18,0-.1.1-.32.21-.53.1-.11.32-.33.53-.54.64-.53.97-.97,1.28-1.4.23-.31.43-.85.43-1.38-.04-.36-.1-.75-.21-1.2-.2-.77-.53-1.68-1.07-2.78-.32-.74-.43-1.39-.32-1.82.1-.32.43-.86,1.17-1.28.23-.12.43-.33.54-.43.54-.22.86-.33,1.19-.33.31.11.64.54,1.18,1.3l2.89,4.29,2.14-1.4c.76-.54,1.3-.75,1.83-.87.54-.1.96.12,1.39.76.51.77.35,1.52-.43,2.28-.21.2-.46.41-.75.61l-2.14,1.4,6.22,9.12c.54.85,1.08,1.38,1.49,1.61,0,.1.12.1.23.1.43.21,1.17,0,2.04-.54.85-.53,1.49-.96,2.02-.96.43-.11.97.1,1.3.76.64.85.1,1.81-1.51,2.99Z"/>
        <polygon points="208.89 389.83 208.89 389.83 208.89 389.83 208.89 389.83"/>
        <path d="M368.5,364.16s-.02.03-.02.04c-.01,0-.01,0-.01,0l-.43.75-3.01,5.46-3,5.41-5.04,9.07c-.54,1.07-.85,1.71-.97,2.15,0,.32.12.64.43,1.17.43.66.54,1.19.33,1.61-.33.54-.64.76-1.07.76-.43-.1-.97-.33-1.61-.64l-5.47-3.01-.53-.33c-.66-.31-1.08-.74-1.4-1.07-.33-.31-.33-.74,0-1.28.2-.43.74-.64,1.6-.64h.33c.42,0,.64-.1.85-.22.33-.21.76-.85,1.3-1.92l3.26-5.86,5.52-9.92c.36-.68.66-1.25.89-1.72,0-.01.01-.02.01-.03.25-.49.44-.87.61-1.14.1-.43.1-.74.1-1.07-.1-.21-.21-.53-.53-.97-.21-.43-.33-.74-.43-.85-.11-.22,0-.43.1-.76.12-.2.33-.31.54-.43.32-.1.53-.1.86-.1s.64.1.97.22c.31.11.53.11.74.21.54.1,1.07.21,1.61.33,1.71.31,2.91.74,3.55,1.07.95.54.96,1.8-.08,3.7Z"/>
        <path d="M408.46,395.42c-.53-.64-1.92-1.84-4.06-3.32-.66-.66-1.3-1.08-1.73-1.3-.31-.21-.75-.21-1.18.1-.21.12-.31.33-.31.54-.12.22,0,.54,0,1.07v1.07c0,.23-.22.54-.54.87-.43.43-1.29,1.07-2.57,1.93l-4.62,3.43-7.72,5.57c-.43.33-.86.66-1.17.97-.43.33-.76.64-1.08.97-.65.53-1.07,1.28-1.5,2.04-.33.74-.54,1.61-.54,2.57,0,1.08.32,2.25.75,3.53.54,1.3,1.18,2.37,1.94,3.44.1.21.31.42.43.54,1.28,1.71,2.78,2.99,4.5,3.96,1.4.87,2.88,1.28,4.39,1.51.36,0,.72.04,1.07.04.18,0,.36-.01.54-.04,2.04,0,4.08-.76,6-2.15,1.19-.97,2.26-1.93,3.01-3.01.74-1.17,1.28-2.25,1.5-3.53.21-1.29.21-2.47-.1-3.75-.33-1.3-.87-2.58-1.83-3.75-1.28-1.83-3.12-3.01-5.37-3.65l7.73-5.69.85-.54c1.72-1.28,2.25-2.46,1.61-3.42ZM399.88,409.03c.97,1.3.87,2.68-.21,4.19-.96,1.6-2.24,2.88-3.75,3.96-.86.65-1.61,1.07-2.47,1.5-.75.33-1.61.54-2.35.76-1.72.31-3.01-.12-3.98-1.5-.95-1.3-.95-2.48-.21-3.65.75-1.07,1.94-2.25,3.43-3.32l2.8-2.04c.1-.11.2-.11.31-.21,1.18-.87,2.25-1.3,3.11-1.3,1.4,0,2.47.54,3.32,1.61Z"/>
        <path d="M350.55,368.82c-.31.64-.74,1.07-1.28,1.29-.22.11-.43.11-.64.11-.43.1-.86,0-1.29-.11-.64-.33-1.08-.65-1.39-1.07-.22-.43-.53-1.07-.76-1.83-.21-.85-.53-1.51-.74-1.92-.33-.54-.76-.87-1.51-1.08-.97-.43-1.93-.32-2.89.21-.96.54-1.72,1.4-2.47,2.36-.64,1.07-1.28,2.14-1.61,3.11-.04.13-.09.25-.13.38-.54,1.69-.71,3.27-.4,4.77.43,1.71,1.4,2.89,3.11,3.53h.21c.76.33,1.61.43,2.57.43.97-.1,1.94-.31,2.79-.74.97-.33,1.61-.54,2.04-.33.33.11.64.33.74.64.12.33.12.76,0,1.07-.41.97-1.6,1.73-3.53,2.27-2.68.53-5.15.41-7.4-.43-1.4-.54-2.68-1.3-3.86-2.25-1.17-.97-2.04-2.15-2.78-3.34-.66-1.28-.97-2.56-1.07-4.07-.12-1.5.1-3,.64-4.51.85-2.02,2.04-3.63,3.53-4.82.2-.16.4-.31.6-.44h0c1.46-.99,3.09-1.52,4.88-1.71,2.02-.21,3.96,0,6,.76.5.2,1.01.45,1.52.74.58.31,1.18.68,1.8,1.08.35.21.65.47.94.71t.02.02h.01c.15.13.29.24.43.34.54.54,1.07,1.07,1.39,1.71.76,1.08.86,2.04.53,3.12Z"/>
        <path d="M387.55,390.9l-2.99,3.55-6.12,7.3c-.75.95-1.29,1.61-1.39,2.02-.12.33,0,.76.21,1.19.33.75.33,1.28,0,1.72-.43.53-.86.64-1.18.53-.43-.22-.97-.53-1.5-.97l-2.89-2.35c-.54-.53-.87-.86-1.07-1.19-.12-.42-.23-.74-.12-1.07.12-.32.43-.85.76-1.49-2.37.21-4.4-.23-6.23-1.3-.54-.21-.97-.64-1.5-.97-2.15-1.81-3-3.96-2.68-6.53,0-.44.22-.97.65-1.82.54-.76,1.07-1.51,1.71-2.37l1.82-2.14,2.79-3.33.65-.74c.31-.33.54-.76.64-.97,0-.33,0-.64-.1-1.18-.12-.64-.12-1.07.21-1.29.2-.31.64-.54,1.07-.42.74.11,2.04.75,4.08,1.82.1,0,.31,0,.54.21.31.12.64.33.84.43.76.76,1.08,1.4.97,1.94-.21.64-.64,1.38-1.5,2.35l-6.33,7.61c-.64.76-1.07,1.4-1.39,1.94-.32.53-.53,1.17-.53,1.81.1.66.43,1.19,1.07,1.73.54.42,1.07.64,1.61.85.64.1,1.28.22,1.82.1.86-.2,1.71-.84,2.78-2.14l4.29-5.14.54-.64c.32-.43.53-.76.65-1.07.11-.23.11-.66,0-1.07-.12-.66-.12-1.08.11-1.4.31-.33.64-.44,1.17-.33.64,0,1.82.53,3.55,1.5l.53.33c.85.43,1.39.74,1.72,1.07.74.54.96,1.18.74,1.92Z"/>
        <path d="M251.58,367.74c-.65-1.38-1.4-2.57-2.37-3.53-.84-.96-1.92-1.72-3.11-2.14-.08-.04-.15-.07-.23-.1-1.1-.47-2.21-.66-3.52-.66-.42,0-.96.1-1.39.22-.86.11-1.71.42-2.68.75-1.93.97-3.54,2.47-4.62,4.61l-1.47-3.28v-.02s-2.49-5.5-2.49-5.5l-.32-.85c-.09-.19-.18-.38-.28-.55-.87-1.62-1.75-2.21-2.72-1.81l-.12.1c-.82.42-2.06,1.44-3.89,2.97-.06.04-.11.09-.17.14-.64.64-1.18,1.07-1.51,1.4-.33.43-.43.75-.21,1.18.11.33.32.54.42.54.22.1.54.1,1.07.2.43,0,.87.12,1.08.23.22.1.43.31.65.64.26.33.53.84.85,1.51h.01s.01.01.01.02c.18.39.38.85.62,1.36l1.07,2.37,3.54,7.94,1.62,3.63c.43,1.07.86,1.93,1.4,2.68.41.65.95,1.29,1.71,1.83.64.54,1.38.85,2.35,1.07,1.07.21,2.37.21,3.65,0,.11,0,.21,0,.43-.1,1.18-.22,2.25-.54,3.32-1.07,2.25-.97,3.97-2.27,5.47-3.88,1.4-1.6,2.37-3.42,2.68-5.46.43-2.15.11-4.19-.85-6.44ZM243.96,380.4c-1.18.54-2.15.54-3-.1-.22-.12-.43-.22-.53-.43-.97-.97-1.84-2.37-2.68-4.08l-.22-.52-1.08-2.6c-.74-1.49-.95-2.68-.85-3.63.31-1.4,1.07-2.37,2.35-3.01.97-.43,2.04-.33,3.01.21.32.22.64.54.97.86.6.55,1.12,1.17,1.57,1.83.61.86,1.1,1.81,1.53,2.79.86,1.71,1.19,3.43,1.19,5.14s-.76,2.9-2.26,3.54Z"/>
        <path d="M293.28,369.57c-.54-.22-.85-.54-.95-.76-.12-.43-.22-1.18-.22-2.35l-.42-22.62v-.97c-.12-2.25-.66-3.32-1.83-3.22-.97,0-2.68.43-5.03,1.28-.22.1-.43.1-.76.22-.31.1-.64.21-.85.31-.33.1-.54.33-.76.43-.21.21-.21.43-.21.74s0,.54.21.66c.1.1.43.31.86.54.43.21.74.42.85.64.22.21.33.43.43.85.1.66.1,1.73.22,3.34l.31,17.9c0,1.18-.1,2.04-.21,2.35-.1.33-.43.54-.97.76-.64.43-.97.85-.97,1.39s.22.97.64,1.07c.43.22.97.22,1.73.22l6.64-.1c.74,0,1.28-.12,1.71-.22.43-.21.64-.54.64-1.18,0-.54-.42-.97-1.07-1.28Z"/>
        <path d="M281.28,371.18c0-.53-.43-.96-1.28-1.19-.43-.1-.86-.31-1.07-.64-.23-.31-.43-1.07-.66-2.35l-1.17-6.66c-.21-1.61-.75-2.89-1.39-3.86-.76-1.07-1.83-1.71-3.22-2.25-1.4-.53-2.9-.74-4.72-.64-.86,0-1.71.11-2.68.32-.97.12-2.14.43-3.44.86-1.38.54-2.56,1.07-3.53,1.82-.97.65-1.4,1.5-1.18,2.37.11.74.42,1.17.96,1.38.65.33,1.29.33,2.04.22.53-.1.97-.32,1.4-.53.31-.33.74-.76,1.17-1.3.44-.64.87-1.07,1.18-1.28.33-.33.76-.53,1.4-.64,1.07-.22,1.92,0,2.68.43.21,0,.31.21.54.32.74.64,1.28,1.71,1.5,3.11l-1.4.21c-.21,0-.43.12-.64.12-1.07.21-2.25.53-3.44.95-1.28.54-2.56,1.19-3.75,1.94-1.18.74-2.03,1.71-2.68,2.89-.64,1.07-.85,2.36-.54,3.87.22,1.38.76,2.46,1.73,3.42.85.87,1.92,1.4,3.1,1.72,1.29.32,2.57.32,3.97.1.64-.1,1.08-.21,1.61-.42,2.15-.76,3.65-2.04,4.5-4.08.1.75.33,1.28.43,1.61.11.33.43.54.75.64.32.11.86.11,1.61,0l4.18-.74c.76-.11,1.3-.33,1.71-.54.33-.22.44-.64.33-1.18ZM270.66,369.35c-.64,1.51-1.61,2.37-2.89,2.68-.86.11-1.5-.1-2.14-.64-.54-.43-.97-1.17-1.07-2.04-.33-1.61.1-2.89,1.07-3.96.64-.54,1.28-1.07,2.14-1.4.64-.21,1.28-.43,1.92-.54l.87-.2.21,1.38c.22,1.07.32,1.94.32,2.58s-.1,1.4-.43,2.14Z"/>
      </g>
      <g>
        <path class="cls-4" d="M401.17,492.35c0,29.93-12,57.17-31.42,76.9-19.51,19.62-46.32,31.85-75.81,31.85s-56.3-12.23-75.71-31.85c-19.41-19.73-31.43-46.97-31.43-76.9s12.02-57.04,31.43-76.78c19.41-19.73,46.22-31.96,75.71-31.96s56.3,12.23,75.81,31.96c19.42,19.74,31.42,46.86,31.42,76.78Z"/>
        <path class="cls-3" d="M401.33,474.42s-.01-.07-.02-.11c-.35-2.19-.77-4.37-1.26-6.52-.47-2.07-1-4.13-1.59-6.15,0-.03-.01-.05-.02-.08-1.15-4-2.52-7.91-4.1-11.71-.42-1.01-.85-2.02-1.3-3.01-.94-2.08-1.93-4.13-2.99-6.14-.62-1.18-1.26-2.35-1.93-3.5-4.78-8.34-10.61-16-17.3-22.8-19.72-19.95-46.86-32.4-76.88-32.4s-57.17,12.45-76.89,32.4c-6.7,6.8-12.52,14.46-17.29,22.8-.67,1.15-1.31,2.32-1.93,3.5-2.47,4.68-4.61,9.57-6.39,14.62h-.01c-1.38,3.92-2.56,7.93-3.5,12.04-.02.07-.03.13-.04.2-.5,2.09-.91,4.22-1.26,6.35-1.02,6-1.54,12.16-1.54,18.44,0,1.87.05,3.73.14,5.58.24,4.99.82,9.89,1.71,14.69h0c.03.17.06.32.09.48.42,2.24.91,4.45,1.46,6.63.29,1.15.59,2.28.92,3.41,1.05,3.68,2.29,7.27,3.71,10.78h0c5.54,13.74,13.73,26.09,23.93,36.4,2.11,2.14,4.3,4.2,6.58,6.15,3.11,2.69,6.37,5.2,9.77,7.52.02.01.04.03.06.04,1.76,1.2,3.56,2.35,5.4,3.44,1.82,1.1,3.7,2.15,5.59,3.13.03.01.05.03.08.04,4.02,2.1,8.17,3.94,12.47,5.5.02.01.05.02.07.03,11.52,4.23,23.94,6.53,36.87,6.53,10.68,0,21-1.56,30.74-4.48.03-.01.05-.02.08-.03h.01c4.56-1.36,8.99-3.02,13.27-4.96.01-.01.03-.01.04-.02h.01c2.01-.91,4-1.88,5.95-2.92,1.91-1,3.78-2.07,5.62-3.19.03-.02.07-.04.1-.06,3.57-2.17,7.02-4.56,10.31-7.13,3.78-2.96,7.37-6.16,10.75-9.59,7.17-7.25,13.35-15.5,18.31-24.54,2.91-5.3,5.4-10.86,7.43-16.65.02-.05.03-.09.05-.14.45-1.3.88-2.6,1.28-3.92.66-2.15,1.25-4.32,1.78-6.52,1.05-4.3,1.84-8.7,2.35-13.18,0-.09.02-.18.03-.27h0c.48-4.19.73-8.44.73-12.75,0-6.1-.49-12.09-1.45-17.93ZM400.83,501.03c0,.05-.01.09-.01.14h0c-.05.61-.1,1.21-.16,1.81-.03.31-.06.63-.09.94-.07.68-.15,1.35-.23,2.03-.01.07-.02.15-.03.22-.1.78-.21,1.57-.33,2.35-.03.22-.06.45-.1.67-.07.49-.15.99-.24,1.48-.06.39-.13.79-.2,1.18-.11.61-.23,1.21-.34,1.82-.12.55-.23,1.11-.35,1.66-.16.78-.34,1.56-.52,2.33-.08.35-.16.69-.25,1.04-.14.57-.28,1.14-.44,1.7-.07.31-.15.62-.24.92h0c-.02.07-.03.13-.05.19-.11.44-.24.88-.37,1.31-.04.14-.08.29-.12.43-.07.23-.13.45-.2.68-.02.07-.05.15-.07.22-.06.19-.11.37-.17.55-.13.42-.26.84-.4,1.26-.03.1-.06.19-.09.29-.02.05-.03.1-.05.15h0c-.17.53-.34,1.05-.52,1.56-.19.58-.39,1.15-.6,1.72-.25.71-.52,1.41-.79,2.11-.09.25-.19.51-.29.76-.27.67-.54,1.34-.82,2.01-.11.28-.23.56-.35.84-.23.55-.47,1.1-.72,1.65-.35.8-.72,1.6-1.1,2.39-.37.79-.76,1.58-1.16,2.36-.29.6-.6,1.19-.92,1.78h0v.02l-.21.39c-.04.09-.08.17-.13.24-.35.66-.71,1.32-1.08,1.97-.1.19-.21.38-.32.56-.35.61-.7,1.22-1.07,1.83-.04.08-.09.16-.13.23-.32.54-.65,1.07-.99,1.6-.1.17-.19.33-.31.5-.06.11-.13.22-.21.33-.01,0-.02.03-.03.04,0,.02-.02.03-.03.05-.29.48-.6.96-.92,1.43-.19.29-.38.57-.57.85-.37.56-.74,1.11-1.13,1.65-.4.57-.8,1.13-1.21,1.69-.25.35-.51.7-.77,1.04-.91,1.23-1.86,2.44-2.83,3.63-.5.62-1.01,1.23-1.53,1.84-.01.02-.03.04-.06.06-.05.06-.11.13-.16.19-.41.5-.84.99-1.28,1.47-.07.08-.14.15-.21.23-.03.05-.07.09-.12.14-.48.54-.97,1.09-1.48,1.62-.03.04-.07.07-.1.11-.62.66-1.25,1.31-1.88,1.96-.4.4-.81.8-1.22,1.2-.32.32-.64.63-.97.94-.25.24-.51.48-.77.72l-.02.02c-.54.51-1.1,1.02-1.66,1.51-.01.01-.02.02-.03.03-1.07.96-2.15,1.9-3.26,2.81-.53.44-1.06.87-1.6,1.29-.18.14-.36.29-.54.43-.32.25-.64.5-.96.74h0c-.13.1-.25.2-.38.29-.04.03-.08.06-.12.09-.11.09-.23.18-.34.26-.64.49-1.29.96-1.94,1.43-.62.45-1.25.89-1.88,1.32-.49.34-.99.67-1.49,1-.22.15-.45.31-.68.45-.23.15-.46.3-.69.45-.5.32-1.01.64-1.51.95-.45.28-.92.56-1.37.83-.02.01-.03.02-.05.03-.02.01-.03.02-.05.03-.33.2-.66.4-.99.59-.75.44-1.51.87-2.27,1.29-.5.28-.99.55-1.5.81-.06.03-.12.06-.18.09-.24.13-.48.26-.72.38-1.49.77-3,1.51-4.53,2.21-.35.16-.7.32-1.05.47-.14.07-.29.14-.43.2h-.01s-.03.01-.04.02c-.41.18-.81.36-1.22.53-.69.3-1.38.58-2.08.86-.01.01-.02.01-.03.01-.79.32-1.59.63-2.39.93-.02.01-.04.02-.06.02-.76.29-1.53.57-2.3.83-.09.03-.17.06-.26.09-.8.28-1.61.54-2.42.79-.69.22-1.38.43-2.07.63-.19.06-.4.12-.59.18-.03,0-.05,0-.08.02t-.02.01c-.57.16-1.14.32-1.72.46-.07.03-.14.04-.21.06-.19.06-.37.1-.56.15-.71.19-1.42.37-2.14.54-.2.05-.4.1-.61.14-.74.18-1.49.34-2.24.5h-.03c-.09.02-.19.04-.28.06-.77.17-1.54.32-2.33.45-.88.17-1.76.32-2.64.45-.89.14-1.78.27-2.67.38-.68.09-1.35.17-2.03.24-.05.01-.11.01-.16.02-.08.01-.16.02-.25.03-.31.03-.62.06-.94.09-.66.07-1.33.13-2.01.18-.76.06-1.53.11-2.31.15-.32.03-.63.04-.96.05-.06.01-.13.01-.19.01-.55.03-1.11.05-1.66.06-.21.01-.41.02-.62.01-.14,0-.28,0-.42,0-.68.02-1.37.03-2.06.03-1.13,0-2.27-.02-3.39-.06-.56-.01-1.11-.03-1.66-.06-.33-.02-.65-.03-.97-.05-.6-.04-1.19-.07-1.78-.12-.34-.02-.67-.05-1.01-.08-.24-.02-.48-.04-.72-.07-.63-.05-1.26-.11-1.89-.18-.09-.01-.17-.02-.26-.03-.57-.06-1.14-.13-1.71-.2-.23-.03-.45-.06-.67-.09-.62-.08-1.24-.17-1.86-.27-.25-.04-.5-.08-.75-.12-.07-.01-.15-.02-.22-.03-.58-.09-1.15-.18-1.71-.3-.08-.01-.16-.02-.24-.04h-.02c-.07-.01-.13-.02-.18-.03-.76-.14-1.51-.28-2.25-.44-.14-.03-.28-.05-.41-.08-.82-.17-1.63-.36-2.44-.55-.64-.15-1.27-.3-1.89-.47-.04-.01-.08-.02-.12-.03-.46-.11-.91-.23-1.36-.36-.49-.13-.97-.26-1.45-.4-.47-.14-.93-.27-1.4-.41-.04,0-.09-.03-.13-.04-.16-.05-.31-.09-.47-.14-.06-.02-.12-.04-.18-.06-.58-.18-1.17-.36-1.75-.56-.15-.05-.29-.09-.44-.14-.03-.01-.07-.02-.1-.03-.07-.02-.14-.05-.21-.07-.54-.19-1.08-.38-1.62-.57-.02-.01-.05-.02-.07-.03-.3-.1-.6-.21-.9-.32-.33-.11-.65-.23-.97-.36-.67-.25-1.34-.51-2.01-.78-.59-.23-1.19-.47-1.77-.73-.01,0-.01-.01-.02-.01-.07-.03-.14-.06-.21-.09-.33-.13-.66-.27-.98-.42-.5-.21-1-.43-1.49-.66-.54-.24-1.08-.5-1.62-.76-.44-.2-.88-.42-1.31-.63-.44-.22-.88-.44-1.31-.66-.02,0-.05-.02-.07-.04h-.01c-.46-.24-.92-.46-1.37-.71-.48-.25-.96-.51-1.43-.77-.16-.09-.33-.18-.49-.26-.08-.05-.15-.09-.23-.13-.09-.05-.18-.1-.26-.15-.62-.35-1.24-.71-1.85-1.07-.04-.02-.07-.04-.11-.06-.19-.11-.38-.23-.56-.34l-1.53-.93s-.03-.01-.04-.02c-.61-.38-1.21-.76-1.81-1.15-.46-.3-.92-.61-1.38-.92-.02-.01-.04-.03-.06-.04h-.01c-.24-.15-.48-.31-.71-.48-.11-.08-.23-.16-.34-.24-.37-.26-.74-.52-1.11-.78-.61-.43-1.21-.86-1.81-1.32-.45-.32-.9-.66-1.34-1-.45-.33-.89-.68-1.33-1.02-.66-.52-1.32-1.05-1.96-1.59-.24-.2-.49-.4-.73-.61-.1-.08-.2-.17-.3-.25-.07-.07-.14-.13-.2-.19-.08-.06-.15-.12-.23-.19-.49-.42-.98-.84-1.46-1.27-.18-.16-.37-.32-.55-.49-.03-.03-.06-.05-.09-.09-.41-.36-.82-.73-1.22-1.11-1.09-1.01-2.16-2.05-3.2-3.1-.5-.51-1-1.03-1.49-1.55-.21-.22-.42-.45-.63-.67-.41-.44-.82-.88-1.21-1.33-.06-.06-.11-.12-.16-.18-.04-.04-.08-.08-.11-.12-.03-.04-.07-.07-.1-.11-.53-.58-1.05-1.19-1.56-1.79-.43-.49-.85-1-1.26-1.51-.01-.02-.03-.03-.04-.05-.22-.27-.44-.54-.66-.81-.35-.43-.7-.86-1.03-1.3-.21-.25-.4-.51-.6-.77-.35-.45-.69-.91-1.04-1.37-.39-.53-.78-1.07-1.16-1.61-.01-.02-.02-.03-.03-.05-.16-.21-.32-.43-.47-.66-.16-.22-.31-.44-.46-.66-.02-.01-.03-.03-.04-.06-.05-.07-.1-.14-.15-.21-.26-.36-.51-.73-.75-1.1-.08-.13-.17-.25-.25-.38-.04-.06-.08-.12-.12-.18-.41-.61-.81-1.23-1.2-1.86-.03-.04-.05-.08-.08-.12-.4-.63-.79-1.27-1.17-1.91-.12-.19-.23-.38-.35-.58-.3-.51-.6-1.02-.89-1.53-.1-.17-.2-.35-.3-.53-.35-.62-.69-1.23-1.02-1.85-.02-.03-.03-.07-.05-.1-.08-.14-.15-.28-.23-.42-.78-1.46-1.52-2.94-2.23-4.44-.38-.79-.75-1.58-1.1-2.39-.37-.8-.72-1.61-1.05-2.43-.33-.77-.64-1.55-.95-2.34-.01-.03-.03-.07-.04-.11-.12-.31-.24-.63-.35-.94-.2-.51-.39-1.03-.58-1.55-.22-.6-.44-1.21-.64-1.82-.03-.1-.07-.2-.1-.3-.08-.23-.16-.46-.24-.7-.02-.05-.03-.1-.05-.15-.17-.51-.33-1.02-.49-1.54-.01-.04-.02-.08-.04-.12-.14-.44-.27-.88-.39-1.32-.02-.05-.03-.1-.04-.14-.1-.27-.17-.54-.25-.81-.05-.17-.1-.33-.14-.5-.02-.05-.03-.1-.04-.15-.21-.72-.4-1.44-.59-2.16-.04-.16-.08-.32-.13-.49,0-.03-.01-.07-.02-.11t0,0h0c-.05-.21-.1-.41-.15-.62-.13-.52-.25-1.05-.37-1.57-.06-.25-.12-.5-.17-.75-.1-.44-.2-.87-.29-1.31-.03-.12-.05-.25-.08-.37-.06-.3-.12-.61-.18-.91,0-.05-.02-.09-.03-.14-.03-.17-.06-.33-.09-.5-.2-1.03-.38-2.06-.55-3.1-.05-.26-.09-.52-.13-.78h0c-.03-.17-.05-.33-.08-.5v-.03c-.09-.57-.17-1.14-.24-1.72-.07-.46-.13-.93-.18-1.39-.01-.08-.02-.17-.03-.25-.01-.04-.01-.08-.01-.12-.09-.62-.15-1.24-.21-1.87-.09-.82-.16-1.65-.23-2.48-.02-.23-.03-.47-.05-.71-.05-.69-.09-1.38-.12-2.07-.02-.14-.02-.28-.03-.41-.04-.87-.07-1.75-.09-2.62-.03-.91-.04-1.81-.04-2.72v-.08c0-.94.01-1.87.04-2.8,0-.76.04-1.51.08-2.26.01-.28.02-.57.04-.86.03-.62.07-1.25.12-1.87.02-.26.03-.52.05-.78,0-.05.01-.09.01-.14.07-.79.14-1.58.22-2.37.06-.67.14-1.35.22-2.02,0-.04.01-.09.02-.13.05-.49.12-.97.19-1.46.04-.32.08-.64.13-.96,0-.01,0-.02.01-.03.06-.52.14-1.04.23-1.55.09-.62.2-1.25.31-1.87.07-.4.14-.8.22-1.19.03-.23.08-.45.12-.67.02-.09.04-.18.06-.27.06-.32.12-.64.19-.96.06-.27.12-.55.17-.83.05-.2.09-.4.14-.6.01-.07.03-.13.04-.2.14-.64.29-1.27.44-1.9.14-.59.29-1.17.43-1.76.36-1.35.73-2.69,1.13-4.02.02-.05.03-.11.05-.16h0c.08-.26.15-.51.23-.75.08-.25.16-.5.24-.75.01-.05.02-.09.04-.14.18-.59.37-1.17.57-1.75.1-.29.19-.57.3-.86.15-.46.31-.91.48-1.37.25-.68.5-1.36.77-2.04.15-.41.31-.81.48-1.22l.15-.39c.03-.08.07-.16.1-.24.2-.48.39-.95.59-1.42.06-.14.12-.28.18-.42.03-.07.05-.13.09-.2.19-.47.4-.95.61-1.42.36-.8.72-1.6,1.1-2.39.35-.73.7-1.46,1.07-2.18.03-.05.05-.11.09-.17.31-.62.63-1.24.96-1.85.04-.08.09-.16.13-.24.03-.06.06-.13.1-.19.05-.11.11-.21.17-.32.26-.49.53-.98.81-1.47.23-.41.45-.81.69-1.21.09-.17.19-.34.29-.5.14-.24.28-.48.42-.72.23-.4.47-.8.72-1.19.33-.55.67-1.09,1.02-1.64.27-.43.54-.85.82-1.26.24-.38.49-.75.74-1.12.3-.45.6-.9.92-1.35.15-.22.3-.44.46-.66.28-.4.57-.8.86-1.2.01-.02.02-.03.04-.05.23-.33.47-.66.72-.98.05-.07.11-.15.16-.22.33-.45.66-.88,1.01-1.32.07-.1.14-.19.22-.29.49-.64.99-1.27,1.5-1.89.37-.46.75-.92,1.14-1.37.05-.06.11-.13.16-.19.23-.29.47-.56.71-.84.45-.52.9-1.04,1.36-1.55.48-.54.96-1.07,1.45-1.6.25-.27.5-.53.75-.79.45-.47.9-.94,1.35-1.4,19.41-19.73,46.22-31.96,75.71-31.96s56.3,12.23,75.81,31.96c.67.68,1.34,1.38,1.99,2.08.51.54,1.01,1.09,1.5,1.64.63.7,1.25,1.41,1.86,2.13.02.02.03.04.05.06.52.6,1.03,1.21,1.52,1.83.56.67,1.09,1.35,1.62,2.04.54.68,1.06,1.37,1.57,2.07.52.7,1.03,1.4,1.52,2.12.44.61.86,1.23,1.28,1.86.07.09.13.19.19.29.97,1.44,1.9,2.91,2.79,4.41.2.33.39.65.57.98.03.04.05.08.07.12.03.04.05.09.08.13.21.34.4.68.6,1.03.44.76.86,1.52,1.26,2.29.01.02.02.03.03.05.41.75.81,1.52,1.18,2.28.41.78.79,1.56,1.16,2.35.21.44.41.87.6,1.31h.01c.17.36.34.72.49,1.08.32.69.61,1.37.9,2.07.03.07.06.15.09.22.05.09.08.18.12.27.08.2.17.4.24.6.24.57.47,1.14.69,1.71.3.77.6,1.56.88,2.34.02.07.05.13.07.2.01.02.01.04.02.06.01.04.03.07.04.11.28.75.54,1.52.79,2.28.25.72.48,1.45.71,2.18.01.04.02.08.04.12.07.25.15.5.22.76.21.66.4,1.32.59,1.99,0,.03,0,.05.02.08.06.19.11.38.16.58v.02c.37,1.33.71,2.68,1.02,4.04.12.52.24,1.04.35,1.56.26,1.13.49,2.26.7,3.41,0,.03,0,.07.02.1.01.04.02.09.02.13.08.42.15.83.22,1.25.1.55.19,1.1.27,1.65.01.04.01.08.02.12.01.09.03.19.04.28.11.7.21,1.39.3,2.1.01.08.02.17.03.25.04.27.07.54.1.81.07.55.14,1.1.19,1.66.05.4.09.81.12,1.22.07.64.12,1.28.17,1.92.02.26.04.52.06.78v.06c.05.69.09,1.38.13,2.08v.09c0,.07.01.15.01.22.04.83.07,1.66.09,2.51.03.93.04,1.86.04,2.8s-.01,1.87-.04,2.8c-.01.76-.04,1.52-.08,2.28,0,.04,0,.07-.01.11,0,.13,0,.26-.01.39,0,.15,0,.3-.03.45,0,.05-.01.1-.01.15-.01.41-.04.82-.07,1.23-.01.1-.01.2-.02.29v.05c-.02.25-.04.51-.06.76v.04s-.01.09-.01.13Z"/>
        <g>
          <path id="path7474" class="cls-3" d="M291.74,498.61l7.07,21.88,22.85.85-18.23,13.63,6.33,22.52-18.35-13.51-18.87,12.97,6.87-21.98-17.9-14.37,22.52-.1,7.72-21.88Z"/>
          <path id="path7478" class="cls-3" d="M213.79,526.72l15.01,16.52,13.84-4.19-3.22,16.52,19.2,15.45c-7.09-2.04-14.37-2.26-21.03-6.02l.97,11.59-14.58-17.16-15.01-8.47,7.51-2.58-2.68-21.66Z"/>
          <path id="path7482" class="cls-3" d="M257.9,583.48c22.73,17.16,47.18,17.37,73.77.74-7.39-4.5-12.44-10.93-14.05-20.15-16.4,3.53-32.59,3.32-48.9-.76-.74,6.76-4.39,13.52-10.83,20.17h0Z"/>
          <path id="path7486" class="cls-3" d="M247.27,529.67l14.8-25.63-54.38,10.83,39.57,14.8Z"/>
          <path id="path7490" class="cls-3" d="M337.79,531.18l-14.8-25.63,54.48,10.83-39.68,14.8Z"/>
          <path id="path7494" class="cls-3" d="M258.97,401.53c22.73-17.05,42.15-16.19,68.74.43-6.54,6.11-8.15,12.65-10.83,19.84-16.29-3.65-32.6-3.44-48.9.74-.76-6.75-2.58-14.25-9.01-21.02h0Z"/>
          <path id="path7498" class="cls-3" d="M230.06,411.28l3.65,7.72,19.84-8.04-16.41,16.52,17.59,41.82c-5.69-4.5-12.44-7.51-17.16-13.51l-3.43,11.16-13.94-21.45-7.4-16.41,7.51-.64,9.76-17.16Z"/>
          <path id="path7502" class="cls-3" d="M355.47,410.95l-3.75,7.61-19.73-7.94,16.41,16.52-17.69,41.82c5.79-4.5,12.54-7.51,17.16-13.61l3.53,11.16,13.84-21.45,7.4-16.31-7.51-.64-9.65-17.16Z"/>
          <path id="path7522" class="cls-3" d="M371.09,526.72l-15.12,16.52-13.84-4.19,3.22,16.52-19.09,15.45c6.97-2.04,14.37-2.26,21.03-6.02l-1.07,11.59,14.58-17.16,15.01-8.47-7.4-2.58,2.68-21.66Z"/>
        </g>
      </g>
    </g>
    <g>
      <path class="cls-5" d="M227.48,450.37v53.3c0,5.9,1.42,7.61,3.18,7.61h1.06v1.17c-7.91.88-15.69,1.97-23.34,3.24v-1.48l.97-.19c1.89-.38,3.26-3.63,3.26-7.37v-26.74l-14.44,1.52s-.27,24.53.41,29.75c.65,4.99,3.89,3.99,3.89,3.99v1.54c-7.92,1.42-15.68,3.04-23.25,4.86v-1.75l.59-.15c1.03-.27,1.91-.89,2.53-2.11.62-1.22.98-3.04.98-5.69v-61.76c0-5.56-1.8-6.86-4.02-6.86h-.08v-2.55h22.61l.72-.69v3.04h-1.1c-1.81,0-3.28,2.73-3.28,9.56v23.24l14.43-1.19v-23.47c-.01-6.95-1.55-8.14-3.44-8.14h-.84v-2.35h23.54v1.89h-.94c-1.9,0-3.44,2.34-3.44,7.78Z"/>
      <path class="cls-5" d="M278.43,491.83l-3.04,17.63c-12.7.31-25.22,1.09-37.48,2.32v-1.2l.63-.05c2.46-.17,3.63-2.15,3.63-9.75l.2-48.38c0-7.66-1.62-9.81-3.62-9.81h-.84v-1.89h36.79l.68,17.63h-1.2s.24-10.86-11.34-12.59h-5.77v26.61h.63c1.73,0,3.45-.6,4.68-1.83.73-.72,1.42-1.73,1.9-3.14,1.6-4.69,1.24-7.49,1.24-7.49h1.21v29.05h-1.21c-.52-4.35-.75-8.57-3.76-10.63-.99-.67-2.18-.95-3.37-.95h-1.4v22.44c0,5.33,2.2,6.81,6.89,5.77,4.69-1.04,11.58-6.57,13.14-14.22l1.41.48Z"/>
      <path class="cls-5" d="M329.92,504.04c-1.89-4.54-11.48-29.02-11.48-29.02,0,0,10.82-1.23,11.38-15.48.6-15.1-9.13-18.84-15.74-18.84h-30.16v1.61c1.46,0,2.5.66,3.17,1.9.68,1.24.99,3.07.99,5.41v51.22c0,4.3-1.5,6.7-3.34,6.7h-.82v1.79c1.43-.02,2.86-.03,4.3-.03,6.42,0,12.8.12,19.13.36v-1.94h-.78c-1.99,0-3.6-2.17-3.6-7.21v-23.46h1.45l12.81,33.07c5.48.3,10.93.7,16.32,1.19v-2.22s-1.74-.51-3.63-5.05ZM302.97,472.33v-26.85c5.98,0,12.31,1.76,12.31,13.78,0,14.59-12.31,13.07-12.31,13.07Z"/>
      <path class="cls-5" d="M356.02,451.04v52.81c0,3.37.49,5.48,1.29,6.75.8,1.28,1.9,1.71,3.12,1.71v2.18c-7.73-1.15-15.58-2.1-23.55-2.87v-2.71l.46.72h.66c1.77,0,3.21-1.36,3.21-7.39v-52.89c0-4.93-1.47-6.76-3.29-6.76h-.98v-1.89h21.81l1.68-.9v2.79h-.45c-2.19,0-3.96,2.1-3.96,8.45Z"/>
      <path class="cls-5" d="M404.61,462.27h-1.1c-.35-9.95-6.57-15.65-14.22-15.65h-3.66v29.57h2.74c3.68,0,6.66-4.3,6.66-12.04v-.86h1.03v34.83l-.91-.22c0-5-.32-7.36-2.21-11.71-1.88-4.36-7.41-4.36-7.41-4.36v24.83c0,4.6.59,7.39,1.56,9.02.96,1.63,2.29,2.11,3.76,2.11v2.31c-7.92-1.77-16.03-3.32-24.3-4.65v-1.96h.56c2.01,0,3.64-1.39,3.64-7.94v-55.16c0-5.98-1.8-7.8-4.02-7.8h-.18v-1.89h37.36l.7,21.57Z"/>
      <g>
        <path class="cls-5" d="M447.94,466.23h-1.1c-.41-11.96-6.57-18.07-14.23-18.07h-3.65v33.38h2.73c3.68,0,6.67-4.26,6.67-13.65v-.86h1.03v40.3l-.91-.22c0-5-.37-9.61-2.24-13.97-2-4.66-7.2-4.98-7.2-4.98l-.03,27.53c0,9.53.86,13.02,5.17,13.81v3.02c-7.81-2.8-15.92-5.37-24.3-7.68v-2.32h.56c2.01,0,3.63-1.39,3.63-7.94v-62.65c0-6.43-1.34-8.47-4.19-8.47v-2.76h37.36l.7,25.53Z"/>
        <path class="cls-5" d="M447.24,440.7h-37.36v2.76c2.85,0,4.19,2.04,4.19,8.47v62.65c0,6.55-1.62,7.94-3.63,7.94h-.56v2.32c8.38,2.31,16.49,4.88,24.3,7.68v-3.02c-4.31-.79-5.17-4.28-5.17-13.81l.03-27.53s5.2.32,7.2,4.98c1.87,4.36,2.24,8.97,2.24,13.97l.91.22v-40.3h-1.03v.86c0,9.39-2.99,13.65-6.67,13.65h-2.73v-33.38h3.65c7.66,0,13.82,6.11,14.23,18.07h1.1l-.7-25.53ZM447.24,440.7h-37.36v2.76c2.85,0,4.19,2.04,4.19,8.47v62.65c0,6.55-1.62,7.94-3.63,7.94h-.56v2.32c8.38,2.31,16.49,4.88,24.3,7.68v-3.02c-4.31-.79-5.17-4.28-5.17-13.81l.03-27.53s5.2.32,7.2,4.98c1.87,4.36,2.24,8.97,2.24,13.97l.91.22v-40.3h-1.03v.86c0,9.39-2.99,13.65-6.67,13.65h-2.73v-33.38h3.65c7.66,0,13.82,6.11,14.23,18.07h1.1l-.7-25.53Z"/>
      </g>
      <path class="cls-5" d="M161.96,526.14c-4.8,4.51-10.32,6.17-13.8,6.17-1.81,0-3.16-.15-4.24-.37h0c-3.21-.67-3.94-2-7.06-2-2.86,0-3.57,4.14-3.73,6.03-.06.56-.06.92-.06.92l-1.35.46v-34.67l1.48-.21c1.34,13.46,9.39,23.6,16.4,23.6,6.56,0,10.21-5.37,10.51-15.04.3-9.94-6.73-10.51-14.6-14.52-7.28-3.71-15.11-9.16-14.3-31.06.79-21.28,12.09-26.82,19.28-26.82s10.78,5.74,13.37,5.74c.14,0,.28-.01.41-.03.12,0,.23-.03.34-.06.15-.04.3-.09.43-.15.08-.04.16-.08.24-.13.1-.05.19-.12.27-.18.94-.75,1.28-2.1,1.4-3.12h1.33v27.01h-1.47c-.59-6.67-2.42-11.53-4.19-15.24-2.2-4.8-6.03-7-9.66-7-4.75,0-9.17,3.77-9.15,10.41.06,19.95,25.86,9.09,27.69,40.12.91,15.41-3.81,24.79-9.53,30.14Z"/>
    </g>
    <g>
      <path d="M198.15,510.21c-.02-.25-.04-.51-.06-.8-.05-.86-.1-1.89-.14-3.05.05,1.86.13,3.43.22,4.54l.03-.13v-.03c-.02-.16-.03-.34-.05-.53ZM197.89,504.18c.02.76.04,1.49.06,2.18-.01-.38-.02-.78-.03-1.19-.01-.32-.02-.65-.03-.99ZM168.4,483.44h-.01c.04.09.08.18.12.28.04.08.08.17.12.26-.08-.18-.15-.36-.23-.54ZM198.15,510.21c-.02-.25-.04-.51-.06-.8-.05-.86-.1-1.89-.14-3.05.05,1.86.13,3.43.22,4.54l.03-.13v-.03c-.02-.16-.03-.34-.05-.53ZM197.89,504.18c.02.76.04,1.49.06,2.18-.01-.38-.02-.78-.03-1.19-.01-.32-.02-.65-.03-.99ZM168.39,483.44c.04.09.08.18.12.28.04.08.08.17.12.26-.08-.18-.15-.36-.23-.54h-.01ZM168.4,483.44h-.01c.04.09.08.18.12.28-.04-.1-.08-.19-.11-.28ZM198.15,510.21c-.02-.25-.04-.51-.06-.8-.05-.86-.1-1.89-.14-3.05.05,1.86.13,3.43.22,4.54l.03-.13v-.03c-.02-.16-.03-.34-.05-.53ZM197.89,504.18c.02.76.04,1.49.06,2.18-.01-.38-.02-.78-.03-1.19-.01-.32-.02-.65-.03-.99ZM198.15,510.21c-.02-.25-.04-.51-.06-.8-.05-.86-.1-1.89-.14-3.05.05,1.86.13,3.43.22,4.54l.03-.13v-.03c-.02-.16-.03-.34-.05-.53ZM197.89,504.18c.02.76.04,1.49.06,2.18-.01-.38-.02-.78-.03-1.19-.01-.32-.02-.65-.03-.99Z"/>
      <path d="M451.11,466.13l-.46-16.95-.24-8.58-.1-3.4H165.21c-1.71,0-2.06,2.99-2.09,3.22-.31-.21-.64-.46-.92-.67-2.5-1.84-6.28-4.62-12.05-4.62-1.39,0-2.78.16-4.14.47-3.87.89-7.54,2.99-10.44,6.06-.13.14-.26.28-.38.42h0c-2.55,2.82-4.47,6.32-5.78,10.48-.67,2.14-1.18,4.45-1.53,6.93v82.27c2.72-1.15,5.5-2.27,8.33-3.36,2.52-.98,5.09-1.93,7.7-2.85,1.42-.51,2.86-1.01,4.31-1.5,2.36-.8,4.76-1.58,7.19-2.34.99-.32,1.99-.63,2.99-.93,1.63-.5,3.28-.98,4.94-1.46,1.8-.52,3.62-1.03,5.45-1.52h.01c3.31-.91,6.68-1.78,10.09-2.6,1.04-.25,2.08-.5,3.13-.74,1.94-.45,3.88-.89,5.85-1.32.55-.12,1.11-.24,1.67-.36h.01c1.84-.39,3.69-.78,5.55-1.15,2.33-.46,4.67-.91,7.04-1.34,1.96-.35,3.93-.7,5.91-1.03,2.28-.38,4.57-.75,6.89-1.1h.01c2.62-.4,5.26-.77,7.92-1.12,4.84-.65,9.75-1.23,14.71-1.73,5.69-.58,11.45-1.06,17.28-1.44,6.45-.42,12.98-.72,19.59-.89,3.56-.1,7.14-.15,10.74-.17.9-.01,1.8-.01,2.7-.01,2.31,0,4.61.02,6.91.05,10.75.14,21.33.62,31.69,1.42,14.32,1.1,28.21,2.8,41.57,5.04h.01c4.27.72,8.47,1.49,12.62,2.32,4.43.88,8.8,1.83,13.09,2.83.33.08.67.16,1,.24h.01c.52.12,1.04.25,1.56.37,3.28.79,6.51,1.61,9.7,2.47.32.09.64.17.95.26,4.56,1.23,9.03,2.54,13.39,3.92,5.83,1.82,11.49,3.77,16.96,5.83,4.76,1.79,9.38,3.67,13.85,5.63v-73.45l-.09-3.6ZM161.63,526.14c-.31.29-.62.57-.94.84-.28.24-.57.48-.86.7-.22.17-.45.34-.68.5-.21.15-.41.3-.62.44-.07.05-.14.09-.21.14-.2.13-.4.26-.6.38-.53.33-1.06.63-1.59.9-.1.05-.2.1-.29.15-.19.1-.37.19-.56.27-.19.09-.38.17-.56.25s-.37.16-.56.23c-.73.3-1.45.54-2.14.73-.18.05-.35.1-.52.14-.43.11-.86.2-1.27.27-.19.04-.39.07-.57.09-.66.1-1.27.14-1.83.14-1.81,0-3.16-.15-4.24-.37h-.01c-3.21-.67-3.94-2-7.06-2-2.86,0-3.57,4.14-3.73,6.03-.06.56-.06.92-.06.92l-1.35.46v-34.67l1.48-.21c1.34,13.46,9.39,23.6,16.4,23.6,6.56,0,10.21-5.37,10.51-15.04.3-9.94-6.73-10.51-14.6-14.52-7.28-3.71-15.11-9.16-14.3-31.06.01-.33.03-.66.05-.99.03-.65.07-1.28.13-1.9.13-1.46.31-2.83.54-4.12.03-.18.06-.36.1-.54.19-1.05.42-2.05.69-3,.08-.29.16-.58.25-.87.68-2.27,1.53-4.24,2.51-5.93.12-.21.24-.42.37-.62.27-.45.55-.88.85-1.29.11-.15.21-.29.32-.43.13-.18.26-.35.41-.52.27-.34.56-.67.84-.98h0s.06-.07.06-.07c.1-.11.2-.21.3-.3.04-.06.08-.1.12-.13.12-.13.25-.26.38-.38.05-.05.1-.1.15-.14.22-.21.42-.39.64-.57.23-.21.46-.39.7-.57,1-.77,2.02-1.39,3.04-1.87.17-.08.34-.16.51-.23.35-.16.69-.3,1.03-.42.21-.07.42-.15.63-.21.2-.06.4-.12.6-.17.09-.03.18-.06.26-.07.22-.06.43-.11.65-.15.18-.04.36-.08.54-.11.18-.03.35-.06.53-.09.17-.03.35-.05.52-.06.18-.02.35-.03.52-.04.04-.01.07-.02.1-.01.22-.02.43-.03.64-.03.1-.01.2-.01.3-.01,7.36,0,10.78,5.74,13.37,5.74.14,0,.28-.01.41-.03.12,0,.23-.03.34-.06.15-.04.3-.09.43-.15.08-.04.16-.08.24-.13.1-.05.19-.12.27-.18.94-.75,1.28-2.1,1.4-3.12h1.33v27.01h-1.47c-.03-.31-.06-.62-.1-.92-.04-.39-.09-.77-.14-1.14-.05-.38-.1-.75-.16-1.11-.02-.17-.04-.34-.08-.5-.05-.33-.11-.65-.17-.96-.07-.38-.15-.75-.23-1.11-.05-.23-.1-.46-.16-.68-.29-1.26-.63-2.43-1-3.53-.09-.28-.19-.56-.29-.84-.1-.27-.2-.54-.3-.81-.12-.33-.25-.66-.38-.97-.23-.58-.47-1.13-.7-1.65-.16-.35-.32-.69-.48-1.02-2.2-4.8-6.03-7-9.66-7-.19,0-.38.01-.57.02-.14.01-.28.02-.43.04-.23.02-.46.06-.68.1-.19.04-.37.08-.55.13-.18.04-.36.09-.54.16-.18.06-.35.12-.53.19-.24.1-.48.21-.72.33-.03.01-.06.03-.09.04-.23.13-.46.26-.69.41-.16.11-.31.22-.46.33-.31.23-.6.48-.88.75-.14.14-.28.28-.41.42-.26.3-.51.61-.74.94-.12.17-.23.34-.33.52h-.01s0,.01.01.01c-.24.4-.46.82-.64,1.27-.07.17-.14.34-.21.52-.22.63-.4,1.3-.51,2.02-.03.17-.06.35-.08.53-.02.24-.05.49-.06.75-.02.27-.03.54-.03.82v.11c0,.97.07,1.88.19,2.71.03.24.07.47.11.69.04.21.08.42.13.62.18.78.42,1.5.7,2.16.13.31.27.6.43.89.16.3.32.59.5.86.17.25.33.49.51.72.03.04.06.09.11.13.15.2.31.4.49.59.02.04.06.07.09.11.13.14.25.28.39.41.65.66,1.38,1.26,2.16,1.82.22.15.44.3.67.45.14.1.3.2.45.29.15.1.31.19.46.29.28.17.56.33.84.49.02.02.05.03.08.05.29.17.59.33.9.5.27.15.55.3.83.45.82.44,1.66.88,2.51,1.33.42.23.84.46,1.26.69.42.24.84.48,1.25.72.32.19.63.39.95.59.24.16.48.32.73.48.25.17.49.34.73.51.02.01.04.03.07.05.22.16.43.32.64.49.24.18.48.37.71.56.47.39.93.8,1.37,1.23.45.43.88.89,1.31,1.38.85,1,1.65,2.11,2.37,3.38.12.21.23.41.34.62.22.42.44.85.64,1.3h.01c.08.18.15.36.23.54.08.2.17.41.25.62.17.43.33.87.48,1.32.11.32.21.65.31.99.09.3.18.61.26.92.07.27.14.53.2.8.07.27.13.55.19.83.08.38.16.78.23,1.19.07.41.14.83.2,1.25.07.43.12.86.17,1.31.1.89.18,1.82.24,2.79.91,15.41-3.81,24.79-9.53,30.14ZM231.53,442.59h-.94c-1.9,0-3.44,2.34-3.44,7.78v53.3c0,.56.01,1.08.04,1.56.01.32.03.62.06.91.05.58.12,1.1.22,1.57.02.12.04.23.07.34.13.6.29,1.11.49,1.52.05.12.1.22.16.32.05.1.11.19.17.28.06.09.12.17.18.25.26.31.54.53.84.66.1.05.2.09.31.11.21.06.42.09.64.09h1.06v1.17c-1.96.22-3.91.45-5.85.69-1.94.24-3.88.5-5.81.77-1.93.27-3.85.55-5.76.84-.32.05-.63.09-.95.15-1.37.2-2.73.42-4.08.65-.23.03-.45.07-.68.11h-.01c-.07.01-.13.02-.2.03v-1.2l.97-.19h.01s.02,0,.03-.01c1.86-.41,3.22-3.65,3.22-7.36v-27.02l-5.42.57-9.02.95s-.1,9.33-.02,17.71c.01.71.01,1.41.02,2.1.02.95.03,1.88.05,2.77v.17c.01.34.02.67.03.99,0,.41.02.81.03,1.19.04,1.16.09,2.19.14,3.05.02.29.04.55.06.8.02.19.03.37.05.53v.03l-.03.13c.02.3.05.56.08.78.65,4.99,3.89,3.99,3.89,3.99v1.04c-1.99.36-3.98.73-5.95,1.11-.1.02-.21.04-.31.06-1.36.27-2.72.54-4.07.82-.07,0-.14.02-.2.04-.91.19-1.82.38-2.72.57-.09.01-.18.03-.27.06,0-.01,0,0,0,0-.56.11-1.11.23-1.66.36-.64.13-1.28.27-1.92.42-.51.11-1.03.23-1.54.35-.12.02-.24.05-.36.08-1.42.32-2.83.65-4.24.99v-1.25l.59-.15c1.03-.27,1.91-.89,2.53-2.11.62-1.22.98-3.04.98-5.69v-62.26c0-.09,0-.18,0-.26,0-.17-.01-.33-.01-.49-.02-.56-.06-1.08-.11-1.55,0-.03,0-.06-.01-.08-.02-.16-.04-.32-.07-.47-.02-.1-.04-.2-.05-.29-.07-.39-.17-.75-.28-1.06-.03-.08-.06-.17-.09-.25-.15-.42-.34-.77-.55-1.06-.08-.11-.16-.22-.25-.32-.04-.04-.06-.07-.09-.09-.08-.08-.15-.15-.23-.21-.03-.03-.06-.06-.09-.07-.08-.07-.17-.13-.25-.18-.45-.28-.95-.41-1.48-.45-.15-.02-.3-.03-.45-.03h-.08v-2.55h23.33v2.35h-1.1c-1.81,0-3.28,2.73-3.28,9.56v23.24l10.59-.87,3.84-.32v-23.47c-.01-6.95-1.55-8.14-3.44-8.14h-.84v-2.35h23.54v1.89ZM275.06,509.46c-4.76.12-9.5.3-14.21.55-1.3.06-2.59.14-3.89.22-6.52.39-12.99.91-19.38,1.55v-1.2l.63-.05c.31-.02.59-.07.86-.16.07-.02.14-.04.2-.07.26-.1.49-.24.71-.43.06-.04.11-.09.16-.15.21-.21.4-.46.57-.77.08-.15.16-.31.23-.48.07-.17.14-.36.2-.56.12-.4.23-.85.33-1.37.01-.08.02-.18.04-.27.08-.52.15-1.09.2-1.73.01-.13.02-.25.03-.38.01-.15.02-.3.03-.46.01-.3.03-.61.04-.93,0-.11.01-.23.01-.35.01-.26.01-.52.01-.8.01-.27.01-.55.01-.84l.16-39.3.04-9.08c0-7.66-1.62-9.81-3.62-9.81h-.84v-1.89h36.79l.68,17.63h-1.2s.24-10.86-11.34-12.59h-5.77v26.61h.63c1.73,0,3.45-.6,4.68-1.83.73-.72,1.42-1.73,1.9-3.14,1.6-4.69,1.24-7.49,1.24-7.49h1.21v29.05h-1.21c-.52-4.35-.75-8.57-3.76-10.63-.99-.67-2.18-.95-3.37-.95h-1.4v22.44c0,.99.08,1.85.23,2.58.02.09.05.19.07.28.04.18.09.34.14.5.03.1.07.2.11.3.05.12.1.23.16.34.02.07.06.14.1.2.03.06.07.12.11.19.03.07.08.14.13.2.05.07.1.13.15.19.18.24.4.44.64.6.05.05.11.08.17.11h0c.09.07.19.12.29.16.19.11.4.18.61.25.29.08.6.13.94.16.52.04,1.09.02,1.72-.06.41-.05.85-.12,1.31-.23,4.69-1.04,11.58-6.57,13.14-14.22l1.41.48-3.04,17.63ZM333.22,511.31c-1.2-.11-2.4-.21-3.6-.31-.45-.04-.9-.08-1.35-.11-1.3-.11-2.6-.21-3.91-.3-2.48-.18-4.96-.33-7.46-.47l-12.81-33.07h-1.45v23.46c0,5.04,1.61,7.21,3.6,7.21h.78v1.94c-4.43-.17-8.88-.28-13.35-.33h-.01c-1.92-.02-3.84-.03-5.77-.03-.49,0-.98,0-1.47.01-.95,0-1.89.01-2.83.02v-1.79h.82c1.84,0,3.34-2.4,3.34-6.7v-51.22c0-2.34-.31-4.17-.99-5.41-.67-1.24-1.71-1.9-3.17-1.9v-1.61h30.16c6.61,0,16.34,3.74,15.74,18.84-.56,14.25-11.38,15.48-11.38,15.48,0,0,9.59,24.48,11.48,29.02.32.76.63,1.41.93,1.96.09.17.18.32.27.47.17.29.34.56.51.79.07.1.14.2.21.29.07.1.15.2.22.28.15.18.29.34.42.47.65.67,1.07.79,1.07.79v2.22ZM360.1,442.59h-.45c-2.19,0-3.96,2.1-3.96,8.45v52.81c0,3.37.49,5.48,1.29,6.75.8,1.28,1.9,1.71,3.12,1.71v2.18c-7.73-1.15-15.58-2.1-23.55-2.87v-1.99h1.12c.11,0,.22-.01.33-.02.06,0,.12-.01.18-.03.07-.01.14-.02.2-.04.09-.02.16-.04.24-.08.22-.08.43-.2.62-.37.25-.21.48-.49.68-.87.12-.21.23-.45.32-.72.03-.09.06-.18.09-.27.06-.19.11-.39.16-.6.1-.42.18-.9.24-1.43,0-.09.02-.18.03-.28.08-.77.12-1.66.12-2.68v-52.89c0-.33-.01-.65-.02-.95-.01-.26-.03-.52-.05-.76-.06-.7-.15-1.33-.29-1.87-.03-.17-.08-.32-.13-.47-.05-.17-.1-.33-.16-.48-.13-.35-.29-.66-.46-.92h0c-.29-.48-.64-.81-1.02-1.02-.08-.04-.16-.08-.24-.11-.11-.05-.22-.08-.33-.11-.06-.02-.13-.03-.2-.04-.13-.02-.26-.03-.39-.03h-.98v-1.89h23.49v1.89ZM403.18,462.27c0-.28-.02-.55-.04-.82-.03-.36-.06-.71-.1-1.05-.02-.22-.05-.44-.09-.65-.12-.86-.3-1.69-.52-2.47,0-.05-.02-.1-.04-.15-.12-.39-.24-.77-.37-1.13-.13-.37-.27-.73-.43-1.08-.18-.4-.37-.79-.57-1.16-.09-.17-.19-.34-.29-.5-.12-.22-.26-.43-.4-.64-.09-.14-.19-.27-.28-.41-.44-.61-.92-1.18-1.44-1.7-.17-.17-.35-.34-.53-.5-.15-.14-.31-.28-.48-.41-.05-.04-.11-.09-.16-.13-.16-.12-.31-.24-.48-.36-.18-.13-.34-.25-.52-.35-.22-.15-.45-.29-.69-.42-.21-.11-.42-.22-.63-.33-.57-.28-1.16-.52-1.77-.71-.6-.2-1.22-.35-1.85-.46-.37-.07-.74-.12-1.12-.15-.23-.02-.45-.04-.68-.05h-.05c-.23-.01-.46-.02-.69-.02h-3.66v29.57h2.74c3.68,0,6.66-4.3,6.66-12.04v-.86h1.03v34.83l-.91-.22c0-5-.32-7.36-2.21-11.71-1.88-4.36-7.41-4.36-7.41-4.36v24.83c0,4.6.59,7.39,1.56,9.02.96,1.63,2.29,2.11,3.76,2.11v2.31c-1.8-.4-3.61-.79-5.43-1.17-1.49-.31-3-.61-4.51-.92-.32-.06-.65-.12-.98-.19-1.66-.32-3.33-.63-5.01-.94h-.01c-2.77-.5-5.55-.98-8.36-1.43v-1.96h.56c2.01,0,3.64-1.39,3.64-7.94v-55.16c0-5.98-1.8-7.8-4.02-7.8h-.18v-1.89h37.36l.02.6.48,14.67.2,6.3h-1.1ZM446.51,466.23c-.03-1.01-.11-1.98-.22-2.91-.02-.16-.04-.31-.07-.47-.03-.23-.06-.46-.1-.68-.03-.19-.07-.38-.1-.56-.01-.07-.02-.14-.04-.21-.05-.25-.1-.5-.16-.74-.07-.35-.15-.68-.25-1.01-.12-.47-.26-.92-.41-1.36-.08-.26-.17-.51-.27-.76-.15-.39-.31-.77-.48-1.13-.16-.37-.34-.72-.53-1.07-.1-.19-.2-.37-.31-.55-.08-.13-.16-.26-.24-.39-.2-.33-.41-.65-.65-.95-.09-.12-.18-.24-.27-.36-.1-.13-.2-.25-.3-.37-.15-.18-.3-.35-.47-.52-.11-.13-.23-.26-.37-.38-.12-.12-.23-.23-.35-.34-.22-.21-.43-.39-.66-.57-.21-.17-.42-.33-.64-.48-.24-.17-.48-.33-.73-.48-.29-.17-.59-.33-.89-.48-.15-.07-.29-.14-.45-.21-.04-.02-.09-.04-.13-.06-.12-.06-.25-.11-.37-.15-.15-.06-.3-.12-.45-.17-.15-.05-.3-.09-.44-.14-.36-.11-.72-.21-1.09-.28-.11-.03-.22-.05-.34-.06-.07-.02-.14-.04-.21-.04-.53-.09-1.07-.15-1.61-.17-.21-.02-.42-.02-.63-.02h-3.65v33.38h2.73c3.68,0,6.67-4.26,6.67-13.65v-.86h1.03v40.3l-.91-.22c0-5-.37-9.61-2.24-13.97-2-4.66-7.2-4.98-7.2-4.98l-.03,27.53c0,9.53.86,13.02,5.17,13.81v3.02c-1.59-.57-3.2-1.13-4.82-1.68-.77-.26-1.53-.52-2.3-.78-2.47-.82-4.97-1.62-7.5-2.39-.12-.04-.25-.08-.37-.12-1.73-.53-3.47-1.05-5.23-1.55-1.35-.4-2.72-.78-4.08-1.16v-2.32h.56c2.01,0,3.63-1.39,3.63-7.94v-62.65c0-.4,0-.79-.02-1.15,0-.27-.01-.54-.03-.79,0-.06,0-.11-.01-.16,0-.21-.03-.41-.04-.6-.02-.27-.05-.54-.07-.78-.01-.05-.02-.09-.02-.13-.04-.25-.07-.49-.11-.71-.27-1.56-.74-2.6-1.4-3.25-.06-.07-.13-.13-.2-.17-.13-.12-.28-.22-.44-.31-.11-.06-.23-.12-.35-.16-.24-.1-.51-.17-.8-.21-.09-.02-.19-.03-.29-.03-.13-.02-.27-.02-.41-.02v-2.76h37.36l.31,11.2.39,14.33h-1.1Z"/>
      <path d="M314.95,459.26c0,14.59-12.31,13.07-12.31,13.07v-26.85c5.98,0,12.31,1.76,12.31,13.78Z"/>
    </g>
  </g>
</svg>