<svg xmlns="http://www.w3.org/2000/svg" viewBox="0 0 1024 1527.14"><metadata xmlns:fl="https://football-logos.cc/paraguay/sportivo-ameliano">dl1_37fdf063abc1a30a82446fcf1bf79878644f592388a90cb6cc4461bcb399acfb</metadata><!-- Source: https://football-logos.cc --><path fill="#004c8a" fill-rule="evenodd" d="M1021.93 0q-.59 1.2.94 1.37.76.08.93-.38.14-.41-.36-.99h.56v942.5q-.19-1.84-.86-1.44a.287.272 75.025 0 0-.13.24l.03 7.26a.37.37 87.522 0 0 .37.37h.26a.07.06 0 0 0 .07-.06l.26-3.13v5.75l-.49-1.65a.713.709 39.477 0 0-1.39.13q-.4 4.13-.84 7.05-5.65 37.62-16.7 73.35-1.41 4.55-7.1 22.16-4.12 12.76-7.9 21.86-6.66 16.05-11.98 27.77c-4.02 8.84-9.74 19.44-14.31 28.95a5.644 5.212-14.647 0 1-.73 1.14c-1.33 1.6-2.86 5.02-4.83 8.19-5.87 9.44-13.03 23.8-20.32 35.54q-2.66 4.29-7.02 11.19-7.03 11.09-24.94 34.55-21.37 28-37.6 46.64c-5.51 6.34-8.62 10.15-14.53 16.12q-2.69 2.71-6.16 7-2.54 3.13-6.29 6.89-10.57 10.6-26.71 25.53-6.71 6.2-7.26 6.74-7.23 7.12-34.24 29.24-30.14 24.68-72.66 54.84-37.24 26.42-83.6 54.75-2.54 1.55-5.56 3.36-6.06 3.62-28.04 16.49-3.99 2.33-5.36 2.95a5.076 4.802-73.155 0 0-.91.52l-1.78 1.28a2.968 2.887-72.361 0 1-.71.38c-2.99 1.11-5.63 3.37-8.47 4.62q-.53.24-12.2 6.81-5.36 3.02-12.31 6.58-19.89 10.19-28.35 14.55a1.146 1.135-45.281 0 1-1.02.01q-30.89-15.23-54.33-28.66-2.88-1.65-5.6-3.09c-9.53-5.02-20.24-11.58-35.87-20.85q-33.24-19.73-74.44-47.53c-6.93-4.68-12.92-9.31-19-13.3-5.7-3.74-10.59-7.76-15.82-11.51-16.31-11.68-32.26-24.39-53.87-41.09q-5.84-4.5-27.49-23.52c-1.65-1.44-2.75-3.19-4.37-4.08q-1.64-.9-3.35-2.78-3.09-3.39-6.25-5.61a11.68 11.644 86.098 0 1-2-1.75q-6.19-6.75-10.15-10.18-5.05-4.36-9.75-9.5-2.69-2.95-10.61-10.88c-2.65-2.66-4.27-5.39-7.22-8.17q-3.02-2.85-4.8-5.24c-1.51-2.04-3.33-3.27-4.76-5.23-1.69-2.32-4.25-4.14-5.83-6.59q-1.07-1.66-2.46-3.13-1.99-2.11-7.72-8.77-4.76-5.53-7.26-8.82c-4.92-6.46-10.02-12-14.43-17.84q-22.58-29.84-31.91-44.49-5.73-9-23.12-40.11c-1.3-2.32-3.69-6.1-5.54-8.86q-1.59-2.38-3.83-6.84-8.29-16.52-13.02-26.23-4.44-9.13-15.68-36.81-6.38-15.72-17.15-51.28-7.27-24.03-12.35-56.39-.4-2.57-.56-5.3-.33-5.69-1.15-1.35V0zm-21.04 26.23H20.93a.4.39 0 0 0-.4.39q-.01 412.69.02 824.52 0 15.7.35 23.2.81 17.25 1.57 23.18c1.37 10.68 2.33 36.81 5.48 53.51 2.38 12.65 7.73 28.61 10.77 40.63 2.2 8.71 4.78 17.96 7.6 28.85q3.86 14.93 8.87 28.13c4.62 12.19 10.76 23.74 17.15 37.31q4.89 10.41 12.4 24.28 9.99 18.44 13.16 23.93 5.94 10.26 20.86 33.66 4.01 6.28 9.09 13.44c9.18 12.92 13.91 19.99 24.05 32.74q29.32 36.87 64.12 72.25 8.95 9.1 17.57 16.91 22.45 20.35 47.64 39.64c16.28 12.47 33.1 25.66 45.89 35.08q42.42 31.23 87.41 57.42c10.12 5.88 20.84 12.27 29.86 18.07q9.17 5.9 22.63 13.1 25.52 13.65 44.76 23.73a.759.722 43.569 0 0 .72 0q24.32-13.45 44.78-23.96 12.88-6.61 21.22-12.02 3.18-2.06 20.8-12.76c9.1-5.52 17.43-9.9 24.86-14.56 25-15.69 49.88-31.9 74.21-50.03q16.77-12.5 37.92-28.6 23.36-17.8 41.04-32.95 19.45-16.66 33.76-31.48 13.45-13.94 32.13-34.61 19.18-21.24 38.42-46.82 18.78-24.95 33.46-48.56c14.28-22.96 26.84-47.28 38.39-71.61 2.49-5.23 4.54-10.57 6.08-13.7q3-6.09 4.57-10.25 7.99-21.23 10.91-32.26c7.46-28.13 13.54-49.25 17.46-75.6q4.36-29.34 7.34-55.72c1.13-10.02 1.39-20.29 1.39-31.14q-.04-227.22-.05-837.03a.31.3-90 0 0-.3-.31M.601 942.19a2.4.31-89.5 0 0-.331 2.397 2.4.31-89.5 0 0 .289 2.403 2.4.31-89.5 0 0 .331-2.397 2.4.31-89.5 0 0-.289-2.403" data-source="https://football-logos.cc"></path><path fill="#fefefe" fill-rule="evenodd" d="M1023.44 0q.5.58.36.99-.17.46-.93.38-1.53-.17-.94-1.37zM1000.89 26.23a.31.3 90 0 1 .3.31q.01 609.81.05 837.03c0 10.85-.26 21.12-1.39 31.14q-2.98 26.38-7.34 55.72c-3.92 26.35-10 47.47-17.46 75.6q-2.92 11.03-10.91 32.26-1.57 4.16-4.57 10.25c-1.54 3.13-3.59 8.47-6.08 13.7-11.55 24.33-24.11 48.65-38.39 71.61q-14.68 23.61-33.46 48.56-19.24 25.58-38.42 46.82-18.68 20.67-32.13 34.61-14.31 14.82-33.76 31.48-17.68 15.15-41.04 32.95-21.15 16.1-37.92 28.6c-24.33 18.13-49.21 34.34-74.21 50.03-7.43 4.66-15.76 9.04-24.86 14.56q-17.62 10.7-20.8 12.76-8.34 5.41-21.22 12.02-20.46 10.51-44.78 23.96a.759.722 43.569 0 1-.72 0q-19.24-10.08-44.76-23.73-13.46-7.2-22.63-13.1c-9.02-5.8-19.74-12.19-29.86-18.07q-44.99-26.19-87.41-57.42c-12.79-9.42-29.61-22.61-45.89-35.08q-25.19-19.29-47.64-39.64-8.62-7.81-17.57-16.91-34.8-35.38-64.12-72.25c-10.14-12.75-14.87-19.82-24.05-32.74q-5.08-7.16-9.09-13.44-14.92-23.4-20.86-33.66-3.17-5.49-13.16-23.93-7.51-13.87-12.4-24.28c-6.39-13.57-12.53-25.12-17.15-37.31q-5.01-13.2-8.87-28.13c-2.82-10.89-5.4-20.14-7.6-28.85-3.04-12.02-8.39-27.98-10.77-40.63-3.15-16.7-4.11-42.83-5.48-53.51q-.76-5.93-1.57-23.18-.35-7.5-.35-23.2-.03-411.83-.02-824.52a.4.39 0 0 1 .4-.39zM450.43 307.18q-1 .19-2.46.22-78.99 1.69-148.72 1.87c-62.23.16-97.14.24-131.12-.69q-15.66-.44-28.28.11a.438.437-15.05 0 0-.37.64q6.15 11.94 14.4 27.04 15.43 28.26 37.54 67.95 34.37 61.7 53.11 94.83 16.87 29.83 27.59 48.73 72.85 128.38 129.98 228.79 7.11 12.5 61.27 106.7 19.11 33.24 21.53 37.17c2.64 4.27 4.62 8.24 7.34 12.79q8.55 14.31 19.9 34.47a.313.308 45.53 0 0 .54.01q11.11-19.39 18.75-32.11c4.09-6.81 8.63-15.62 13.12-22.92q7.35-11.95 13.91-23.82 1.44-2.6 36.78-63.42 8.89-15.29 46.77-81.8 19.96-35.04 21.19-37.21 27.8-49.06 55.58-97.71 23.82-41.7 29.54-51.78c2.34-4.11 3.82-7.39 6-10.81q2.07-3.27 4.66-8.03c10.28-18.9 21.8-38.74 31.15-55.64q8.12-14.68 11.31-20.11 7.13-12.14 11.19-20.2c4.88-9.71 11.22-19.41 16.47-29.32q4.44-8.41 12.14-22.14 20.99-37.41 44.55-81.32a.46.454 21.663 0 0-.29-.66q-.91-.23-2.24-.25-13.75-.19-25.16.13c-27.16.77-53.8.65-81.85.48q-57.01-.33-101.67-1.02c-32.21-.5-72.72-.16-100.8-.77a.144.141 37.444 0 1-.04-.28q47.83-13.34 92.54-36.05a.786.784-35.063 0 1 .92.16q9.56 10.11 21.24 17.38 14.99 9.32 32.51 9.77 16.19.41 25.86-10.83 16.74-19.45 14.22-46.3-.32-3.36-2.32-14.67-9.32-52.48-12.56-69.09c-1.5-7.69-2.48-15.08-4.22-22.17q-4.99-20.39-19.7-34.22c-15.97-15.03-40.55-27.04-61.38-14.06-13.26 8.26-20.24 24.83-22.12 39.72q-.28 2.21-1.46 11.68a.724.718-1.622 0 1-.6.63q-48.95 8.99-92.42 11-45.39 2.1-96.74-2.16-24.42-2.02-60.21-8.67a.731.721 3.115 0 1-.6-.66q-1.22-14.74-5.01-26.24c-2.95-8.94-8.95-18.74-17.01-24.32q-16.05-11.1-36.12-3.67c-22.88 8.47-41.59 27.84-46.38 52.07q-7.18 36.25-16.53 87.5-3.57 19.59-3.19 26.21.91 15.65 8.87 29.35c3.72 6.38 9.85 13.46 16.91 16.23 10.95 4.29 23.95 2.95 34.8-1.11q18.15-6.8 33.66-23.61a.497.495-55.639 0 1 .58-.11q22.36 11.25 48.75 21.57 6.75 2.64 12.08 4.39c6.46 2.12 14.93 5.63 22.11 7.48q3.86 1 10.21 2.42a.237.233 45.516 0 1 0 .46m461.68-30.7a.245.243 59.329 0 0-.46-.12c-7.16 14.01-13.99 26.41-21.43 40.59q-14.23 27.1-24.44 45.89c-2.24 4.14-3.58 7.43-5.71 10.92-3.22 5.29-6.14 11.91-9.09 16.77-3.56 5.85-5.57 11.07-9.47 17.89q-1.62 2.82-4.96 9.16-19.75 37.45-35.88 66.58c-4.49 8.12-8.48 16.33-12.98 24.09-5.97 10.3-11.99 22.26-19.44 35.88q-9.35 17.09-69.07 126.47c-3.54 6.49-6.19 10.79-9.13 16.27q-5.43 10.15-6.63 12.3-18.59 33.3-38.07 68.69-.04.08-45.71 81.83-27.39 49.03-27.78 49.7-35.04 61.45-35.23 61.77-15.12 25.75-23.51 39.7a.337.337 74.133 0 1-.58 0q-5.43-9.16-10.94-19.46c-1.59-2.96-4.22-6.53-6.07-9.87-8.43-15.25-17.97-31.3-25.73-45q-61.59-108.66-94.79-168.83-10.24-18.58-20.55-37.23-62.02-112.27-62.77-113.65c-29.76-54.84-60.64-110.15-88.71-161.91q-45.58-84.07-70.05-129.44-15.13-28.05-17.24-31.95-2.26-4.17-4.37-7.79a.206.204 25.852 0 0-.38.13q4.04 28.64 5.33 36.89 4.14 26.53 12.59 70.71 3.07 16.02 12.21 57.38 4.17 18.87 9.75 40.77 8.47 33.22 10.6 40.55 8.65 29.76 15.83 52.92 8.43 27.21 25.59 73.36.24.63 6.63 16.9 12.24 31.11 25.44 60.02 10.46 22.91 13.99 30 20.39 40.9 36.82 69.93 28.62 50.58 65.05 104.51 10.33 15.3 21.91 31.07 14.99 20.41 22.67 30.55 26.03 34.38 56.69 70.05 25.5 29.66 50.16 56.72a5.024 5.009-69.089 0 1 1.3 2.92q.8 8.38.02 16.38a.722.713 4.11 0 1-.76.65c-12.75-.71-25.62-1.9-37.65.98-16.9 4.05-23.7 18.13-25.15 34.13q-1.05 11.55-.86 26.28a2.18 2.17-80.174 0 0 1.41 2.01q6.49 2.41 13.26.98a1.984 1.977 84.484 0 0 1.56-1.9q.19-13.22.74-22.61c.51-8.7 4.52-17.81 13.73-20.24q5.94-1.56 10.93-1.63 5.31-.08 57.6-.23 4.47-.01 8.33.46c6.8.83 12.92 1.87 16.41 7.83q3.04 5.19 3.4 11.32.68 11.71 1.48 25.1a1.807 1.802-83.698 0 0 1.31 1.64q6.03 1.74 12.58-.08a3.401 3.382 81.891 0 0 2.47-3.31q-.15-12.26-.84-22.83c-.92-14.16-5.16-26.91-17.98-33.54-5.79-2.99-12.85-4.01-20.13-4.6-6.14-.49-15.79.57-24.97.07a.653.643-89.538 0 1-.61-.63q-.24-7.71.02-13.5.26-5.68 4.53-10.24 33.36-35.6 63.41-70.78c13.9-16.26 28.41-34.32 40.14-49.92 8.67-11.54 15.38-19.83 21.82-28.82q29.6-41.33 43.81-63.56 5.56-8.7 14.76-23.25c11.01-17.43 18.89-31.27 30.1-50.39 5.27-9 9.48-17.87 14.35-26.37q4.69-8.16 10.45-19.94c4.29-8.75 10.31-19.91 15.22-30.78 4.92-10.9 9.71-20.17 14.82-32.02q12.05-27.98 19.96-47.28c2.17-5.31 3.77-10.33 5.91-15.2q1.3-2.94 4.39-11.4 24.66-67.38 39.75-123.35c2.3-8.52 3.92-13.54 5.47-19.82q13.95-56.24 17.67-74.36 6.85-33.35 13.72-70.55c2.17-11.7 3.66-21.73 5.81-34.89q3.6-22.07 5.69-39.17.5-4.09.53-5.27m-368.98 1096.4q52.28-23.45 101.94-53.6c39-23.68 76.03-48.76 110.19-77.88q19.4-16.52 33.53-30.37 25.44-24.92 50.38-57.09 38.19-49.27 67.54-105.89 12.55-24.23 20.72-44.36 9.15-22.59 16.74-46.05 1.79-5.53 2.18-12.62a.45.448-1.633 0 0-.5-.47q-7.77.87-9.59.98-25.44 1.59-44.93-12.57-10.59-7.7-16.46-18.84c-8.63-16.35-8.49-33.39-3.21-50.6a1.688 1.686 32.243 0 0-.37-1.63c-3.4-3.65-5.2-7.08-6.66-12.19-2.75-9.58-7.77-24.29-19.96-24.48-5.06-.07-9.24 3.5-11.85 7.6q-3.42 5.36-7.19 12.17c-6.43 11.63-12.83 18.82-22.76 25.75-10.61 7.39-17.21 18.16-16.72 31.13.38 10.2 5.89 17.07 15.87 19.71q6.88 1.81 12.79 2.04c6.48.25 12.45-2.58 18.97-.6a.972.966 16.528 0 1 .65 1.19q-7.83 27.78-20.78 56.72-34.73 77.61-92.89 140.83-17.48 19-36.92 35.79c-4.86 4.19-8.94 7.15-13.22 10.83q-3.82 3.28-10.18 7.75-6.91 4.86-13.78 9.74-48.88 34.78-103.49 60.25a.931.924 77.465 0 0-.53.84v125.6a.35.348 77.979 0 0 .49.32m-62.35-.28v-125.24a.758.754 12.045 0 0-.45-.69q-38.02-16.71-73.04-39.07c-10.78-6.89-22.76-15.45-32.4-22.51q-58.53-42.83-102.06-101.44c-6.36-8.57-17.01-23.34-24.46-35.21q-9.75-15.54-11.21-18.08-5.24-9.14-16.84-30.91c-3.34-6.28-6.23-13.33-8.99-18.86q-3.65-7.31-6.41-14.26-7.52-18.93-13.76-37.52-.7-2.09-1.24-4.61a.755.743 69.075 0 1 .35-.8q2.42-1.47 5.25-1.12c10.85 1.35 20.08 2.39 30.39-1.36 13.98-5.08 14.54-21.51 8.62-32.74q-3.21-6.1-7.21-10.78-2.25-2.64-12.07-10.37-4.02-3.16-8.69-8.69c-4.93-5.82-8.13-12.46-12.5-19.66-3.99-6.58-8.31-13.58-15.91-13.02-8.67.64-13.48 9.22-16.57 16.43-1.75 4.09-3.13 12.59-7.22 17.27q-1.97 2.24-2.51 3.14a1.233 1.225 52.75 0 0-.13.98q2.03 7.02 2.83 15.06 2.78 27.93-14.09 46.42c-15.84 17.34-39.65 23.39-62.71 19.13a.436.428-86.498 0 0-.51.46q.52 7.73 3.09 14.88 8.52 23.69 18.17 46.09 13.44 31.17 30.64 59.36 15.71 25.74 31.4 48.36 15.57 22.46 34.68 46.81 32.53 41.47 71.64 76.08c20.79 18.39 43.29 36.17 65.72 51.77q27.94 19.43 44.33 29.42 21.23 12.93 29.82 17.93 37.83 21.98 73.55 37.67a.357.352 12.02 0 0 .5-.32M135.267 871.022q-19.072 5.749-35.932 17.87c-11.81 8.488-20.536 22.233-21.674 36.932a.89.882-80.299 0 0 .645.92q19.164 5.343 36.51-3.445c20.065-10.164 27.587-30.388 21.168-51.896a.577.565-16.362 0 0-.717-.381m752.573-.062a.578.566 16.561 0 0-.72.38c-6.51 21.54.96 41.84 21.04 52.1q17.36 8.87 36.59 3.58a.892.884 80.498 0 0 .65-.92c-1.09-14.74-9.79-28.55-21.6-37.1q-16.86-12.21-35.96-18.04"></path><path fill="#004c8a" fill-rule="evenodd" d="M450.43 307.18a.237.233 45.516 0 0 0-.46q-6.35-1.42-10.21-2.42c-7.18-1.85-15.65-5.36-22.11-7.48q-5.33-1.75-12.08-4.39-26.39-10.32-48.75-21.57a.497.495-55.639 0 0-.58.11q-15.51 16.81-33.66 23.61c-10.85 4.06-23.85 5.4-34.8 1.11-7.06-2.77-13.19-9.85-16.91-16.23q-7.96-13.7-8.87-29.35-.38-6.62 3.19-26.21 9.35-51.25 16.53-87.5c4.79-24.23 23.5-43.6 46.38-52.07q20.07-7.43 36.12 3.67c8.06 5.58 14.06 15.38 17.01 24.32q3.79 11.5 5.01 26.24a.731.721 3.115 0 0 .6.66q35.79 6.65 60.21 8.67 51.35 4.26 96.74 2.16 43.47-2.01 92.42-11a.724.718-1.622 0 0 .6-.63q1.18-9.47 1.46-11.68c1.88-14.89 8.86-31.46 22.12-39.72 20.83-12.98 45.41-.97 61.38 14.06q14.71 13.83 19.7 34.22c1.74 7.09 2.72 14.48 4.22 22.17q3.24 16.61 12.56 69.09 2 11.31 2.32 14.67 2.52 26.85-14.22 46.3-9.67 11.24-25.86 10.83-17.52-.45-32.51-9.77-11.68-7.27-21.24-17.38a.786.784-35.063 0 0-.92-.16q-44.71 22.71-92.54 36.05a.144.141 37.444 0 0 .04.28c28.08.61 68.59.27 100.8.77q44.66.69 101.67 1.02c28.05.17 54.69.29 81.85-.48q11.41-.32 25.16-.13 1.33.02 2.24.25a.46.454 21.663 0 1 .29.66q-23.56 43.91-44.55 81.32-7.7 13.73-12.14 22.14c-5.25 9.91-11.59 19.61-16.47 29.32q-4.06 8.06-11.19 20.2-3.19 5.43-11.31 20.11c-9.35 16.9-20.87 36.74-31.15 55.64q-2.59 4.76-4.66 8.03c-2.18 3.42-3.66 6.7-6 10.81q-5.72 10.08-29.54 51.78-27.78 48.65-55.58 97.71-1.23 2.17-21.19 37.21-37.88 66.51-46.77 81.8-35.34 60.82-36.78 63.42-6.56 11.87-13.91 23.82c-4.49 7.3-9.03 16.11-13.12 22.92q-7.64 12.72-18.75 32.11a.313.308 45.53 0 1-.54-.01q-11.35-20.16-19.9-34.47c-2.72-4.55-4.7-8.52-7.34-12.79q-2.42-3.93-21.53-37.17-54.16-94.2-61.27-106.7-57.13-100.41-129.98-228.79-10.72-18.9-27.59-48.73-18.74-33.13-53.11-94.83-22.11-39.69-37.54-67.95-8.25-15.1-14.4-27.04a.438.437-15.05 0 1 .37-.64q12.62-.55 28.28-.11c33.98.93 68.89.85 131.12.69q69.73-.18 148.72-1.87 1.46-.03 2.46-.22m-90.42-74.73q2.83-10.19 4.82-21.63 5.51-31.63 4.95-63.64c-.22-12.62-.85-23.55-5.68-33.93-3.16-6.79-9.07-13.41-16.67-14.75q-5.8-1.03-10.7.49-31.01 9.6-38.5 41.26-1.41 5.92-4.27 22.73c-1.37 8.05-3.62 17.01-5.18 26.01-2.14 12.25-4.48 26.94-7.27 41.15q-2.08 10.59-2.46 15.39c-1.36 17.26 8.3 41.23 30.09 36.58 12.04-2.57 24.27-10.71 32.37-19.33 4.52-4.81 4.39-14.42 3.51-20.26-1.71-11.34-6.45-23.13-20.26-22.61q-6.87.26-11.78 2.78-3.57 1.83-5.27 1.69-3.83-.3-6-3.1c-4.67-6.03-.95-10.08 4.89-12.87 14.53-6.92 35.38-9.13 45.69 6.1q5.35 7.91 7.15 17.92a.294.291-42.736 0 0 .57.02m304.7-.19q1.46-7.68 5.54-14.94 6.63-11.78 20.02-13.7 16.52-2.36 31 7.02 3.97 2.57 3.08 6.85-1.28 6.14-7.97 7a3.558 3.526 51.591 0 1-1.75-.21q-1.28-.49-5.96-2.42c-6.13-2.51-14.69-3.12-20.14 1-9.21 6.96-10.94 20.64-10 31.9.76 8.92 11.17 15.55 19.73 20.72q9.78 5.9 19.97 6.99c18.12 1.93 25.81-16.59 27.01-31.76q.29-3.56-1-10.38-.42-2.23-1.91-10.3-3.77-20.4-7.26-40.5-4.79-27.54-7.16-40.18c-1.47-7.88-3.24-15.17-6.11-21.41-5.27-11.42-15.57-21.49-27.33-26.45-16.95-7.14-29.35-2.25-35.73 14.63q-3.49 9.23-3.98 18.89-1.98 38.9 4.85 77.57 2.05 11.61 4.77 19.7a.172.17 41.19 0 0 .33-.02m-152.792 64.598q33.739.039 66.072-8.651 27.5-7.387 49.76-17.717c11.65-5.41 19.86-9.17 26.44-13.46a.773.772-26.985 0 0 .3-.92c-2.76-7.17-4.82-13.07-6.69-20.56q-9.61-38.71-11.61-78.74a.493.49 83.727 0 0-.57-.46q-23.25 4.06-47.393 6.448-37.647 3.729-76.159 3.684t-76.151-3.86q-24.137-2.443-47.378-6.556a.493.49-83.595 0 0-.571.458q-2.092 40.025-11.791 78.713c-1.887 7.486-3.961 13.381-6.738 20.545a.773.772 27.117 0 0 .298.92c6.57 4.306 14.772 8.085 26.409 13.521q22.236 10.382 49.72 17.831 32.312 8.765 66.052 8.804m.517 640.91q.294 0 .355-.104 10.29-17.774 20.41-34.694.19-.32 6.46-11.12 57.38-98.82 110.88-193.34 13.82-24.43 17.7-31.33 15.44-27.45 47.24-83.94 49.25-87.5 107.69-193.32 16.26-29.43 27.75-50.96 1.35-2.54 2.54-5.05a.624.617-75.598 0 0-.52-.89q-6.48-.37-12.69-.376-47.502-.078-327.94-.02t-327.941.156q-6.21.008-12.689.381a.624.617 75.574 0 0-.52.89q1.191 2.51 2.542 5.049 11.499 21.525 27.771 50.949 58.484 105.795 107.77 193.275 31.823 56.477 47.275 83.921 3.883 6.898 17.713 31.322 53.539 94.498 110.96 193.294 6.274 10.798 6.464 11.118 10.127 16.915 20.425 34.685.061.104.355.104"></path><path fill="#fefefe" fill-rule="evenodd" d="M360.01 232.45a.294.291-42.736 0 1-.57-.02q-1.8-10.01-7.15-17.92c-10.31-15.23-31.16-13.02-45.69-6.1-5.84 2.79-9.56 6.84-4.89 12.87q2.17 2.8 6 3.1 1.7.14 5.27-1.69 4.91-2.52 11.78-2.78c13.81-.52 18.55 11.27 20.26 22.61.88 5.84 1.01 15.45-3.51 20.26-8.1 8.62-20.33 16.76-32.37 19.33-21.79 4.65-31.45-19.32-30.09-36.58q.38-4.8 2.46-15.39c2.79-14.21 5.13-28.9 7.27-41.15 1.56-9 3.81-17.96 5.18-26.01q2.86-16.81 4.27-22.73 7.49-31.66 38.5-41.26 4.9-1.52 10.7-.49c7.6 1.34 13.51 7.96 16.67 14.75 4.83 10.38 5.46 21.31 5.68 33.93q.56 32.01-4.95 63.64-1.99 11.44-4.82 21.63M664.71 232.26a.172.17 41.19 0 1-.33.02q-2.72-8.09-4.77-19.7-6.83-38.67-4.85-77.57.49-9.66 3.98-18.89c6.38-16.88 18.78-21.77 35.73-14.63 11.76 4.96 22.06 15.03 27.33 26.45 2.87 6.24 4.64 13.53 6.11 21.41q2.37 12.64 7.16 40.18 3.49 20.1 7.26 40.5 1.49 8.07 1.91 10.3 1.29 6.82 1 10.38c-1.2 15.17-8.89 33.69-27.01 31.76q-10.19-1.09-19.97-6.99c-8.56-5.17-18.97-11.8-19.73-20.72-.94-11.26.79-24.94 10-31.9 5.45-4.12 14.01-3.51 20.14-1q4.68 1.93 5.96 2.42a3.558 3.526 51.591 0 0 1.75.21q6.69-.86 7.97-7 .89-4.28-3.08-6.85-14.48-9.38-31-7.02-13.39 1.92-20.02 13.7-4.08 7.26-5.54 14.94M512.068 166.482q38.512.045 76.159-3.684 24.143-2.388 47.393-6.448a.493.49 83.727 0 1 .57.46q2 40.03 11.61 78.74c1.87 7.49 3.93 13.39 6.69 20.56a.773.772-26.985 0 1-.3.92c-6.58 4.29-14.79 8.05-26.44 13.46q-22.26 10.33-49.76 17.717-32.333 8.69-66.072 8.651t-66.052-8.804q-27.484-7.449-49.72-17.831c-11.637-5.436-19.839-9.215-26.409-13.521a.773.772 27.117 0 1-.298-.92c2.777-7.164 4.851-13.059 6.738-20.545q9.699-38.688 11.791-78.713a.493.49-83.595 0 1 .571-.458q23.241 4.113 47.378 6.556 37.638 3.816 76.151 3.86m76.622 51.968q-.58-9.29 2.38-18.71 5.15-16.42 20.47-25.46a2.579 2.578 58.813 0 0 .88-3.58l-.07-.1a2.91 2.902 60.995 0 0-3.75-1.08q-23.05 11.24-32.38 33.23-4.46 10.51-4.15 22.73.43 17.19 9.66 30.81c6.24 9.2 17.96 14.57 29.01 12.71 19.22-3.22 30.26-20.98 25.7-39.68-1.94-7.98-6.08-15.47-13.43-19.4q-10.55-5.65-22.06-.51-7.54 3.36-11.81 9.17a.251.248-28.572 0 1-.45-.13m-172.17-40.09c6.56.81 11.16 3.41 8.84 10.98q-1.56 5.07-2.58 7.71-8.67 22.55-16.87 45.37c-1.51 4.21-4.26 7.61-9.16 7.09q-3.59-.38-5.91-.94a.844.839-73 0 0-.99.53l-.85 2.31a.788.786-69.314 0 0 .45 1q19.39 7.81 39.2 13.4a.864.863 17.524 0 0 1.04-.54l.98-2.67a.823.821-68.732 0 0-.46-1.05c-6.08-2.42-10.79-4.92-8.34-12.73q1.07-3.44 7.35-21.25 4.28-12.17 7.75-21.12 9.3-24.01 10.79-27.73c.66-1.63.23-3.21-1.61-3.29q-8.92-.41-29.3-1.55a1.214 1.212 1.334 0 0-1.28 1.22l.01 2.2a1.068 1.064-86.675 0 0 .94 1.06m76.77 62.72q-1.44 3.66-3.73 7.14c-4.78 7.26-9.56 13.11-17.28 17.79q-9.94 6.03-21.44 8.64a.233.232 68.884 0 0-.15.34l2.17 3.89a.363.361-16.289 0 0 .33.18c20.76-1.07 40.88-10.81 52.6-27.91 8-11.66 11.78-23.93 10.88-38.15-.4-6.19-3.56-11.61-7.33-16.25-4.97-6.11-12.99-9.86-20.61-10.28q-18.95-1.05-29.24 14.6c-6.06 9.22-7.58 23.29-1.3 32.64q9.17 13.66 26.57 10.18 4.45-.89 8.1-3.16a.293.29-5.547 0 1 .43.35m56.04-12.24q.49-.52 5.03-4.49c5.26-4.59 9.71-12.26 8.42-19.31-1.59-8.66-9.03-14.88-17.78-15.28-11.85-.54-19.19 5.13-27.56 13.85a2.14 2.133-39.663 0 0-.25 2.63l1.03 1.59a1.471 1.47-36.029 0 0 2.16.34c2.24-1.8 5.34-4.78 8.26-5.98 9.87-4.06 17.07 2.37 18.31 11.72 1.53 11.57-8.37 18.2-17.5 22.5a2.505 2.481 61.137 0 0-1.02 3.59q.48.77 1.83.63c6.78-.72 12.1-.54 18.06 3.51 8.07 5.49 9.45 18.98 5.29 27.11-5 9.8-17.85 11.29-25.87 4.68q-2.12-1.74-6.66-7.14c-1.71-2.03-4.48-2.34-5.4.59-1.11 3.52-1.62 10.08 1.49 12.55q5.13 4.06 12.28 4.66c21.11 1.77 45.49-9.5 43.15-34.57-1.22-12.99-9.92-21.64-23.06-22.64a.321.321-66.263 0 1-.21-.54"></path><path fill="#004c8a" fill-rule="evenodd" d="M588.69 218.45a.251.248-28.572 0 0 .45.13q4.27-5.81 11.81-9.17 11.51-5.14 22.06.51c7.35 3.93 11.49 11.42 13.43 19.4 4.56 18.7-6.48 36.46-25.7 39.68-11.05 1.86-22.77-3.51-29.01-12.71q-9.23-13.62-9.66-30.81-.31-12.22 4.15-22.73 9.33-21.99 32.38-33.23a2.91 2.902 60.995 0 1 3.75 1.08l.07.1a2.579 2.578 58.813 0 1-.88 3.58q-15.32 9.04-20.47 25.46-2.96 9.42-2.38 18.71m2.74 6.26c-1.7 2.55-.98 4.86-.3 7.91q2.48 11.2 8.57 19.91c4.38 6.26 13.86 12.39 20.39 4.66 3.66-4.33 2.53-12.74 1.08-17.85-1.98-6.98-4.53-13.49-9.97-18.13-6.91-5.87-15.03-3.61-19.77 3.5M416.52 178.36a1.068 1.064-86.675 0 1-.94-1.06l-.01-2.2a1.214 1.212 1.334 0 1 1.28-1.22q20.38 1.14 29.3 1.55c1.84.08 2.27 1.66 1.61 3.29q-1.49 3.72-10.79 27.73-3.47 8.95-7.75 21.12-6.28 17.81-7.35 21.25c-2.45 7.81 2.26 10.31 8.34 12.73a.823.821-68.732 0 1 .46 1.05l-.98 2.67a.864.863 17.524 0 1-1.04.54q-19.81-5.59-39.2-13.4a.788.786-69.314 0 1-.45-1l.85-2.31a.844.839-73 0 1 .99-.53q2.32.56 5.91.94c4.9.52 7.65-2.88 9.16-7.09q8.2-22.82 16.87-45.37 1.02-2.64 2.58-7.71c2.32-7.57-2.28-10.17-8.84-10.98M493.29 241.08a.293.29-5.547 0 0-.43-.35q-3.65 2.27-8.1 3.16-17.4 3.48-26.57-10.18c-6.28-9.35-4.76-23.42 1.3-32.64q10.29-15.65 29.24-14.6c7.62.42 15.64 4.17 20.61 10.28 3.77 4.64 6.93 10.06 7.33 16.25.9 14.22-2.88 26.49-10.88 38.15-11.72 17.1-31.84 26.84-52.6 27.91a.363.361-16.289 0 1-.33-.18l-2.17-3.89a.233.232 68.884 0 1 .15-.34q11.5-2.61 21.44-8.64c7.72-4.68 12.5-10.53 17.28-17.79q2.29-3.48 3.73-7.14m2.38-8.64q.83-.92 2.08-5.39 3.28-11.67 1.66-21.64c-1.08-6.6-7.01-15.92-15.27-11.52-7.21 3.83-10.96 14.06-12.28 21.87-1.05 6.18-.34 13.79 4.74 18.07 5.51 4.64 12.99 3.61 18.26-.62a7.772 6.755-84.544 0 0 .81-.77"></path><path fill="#004c8a" fill-rule="evenodd" d="M549.33 228.84a.321.321-66.263 0 0 .21.54c13.14 1 21.84 9.65 23.06 22.64 2.34 25.07-22.04 36.34-43.15 34.57q-7.15-.6-12.28-4.66c-3.11-2.47-2.6-9.03-1.49-12.55.92-2.93 3.69-2.62 5.4-.59q4.54 5.4 6.66 7.14c8.02 6.61 20.87 5.12 25.87-4.68 4.16-8.13 2.78-21.62-5.29-27.11-5.96-4.05-11.28-4.23-18.06-3.51q-1.35.14-1.83-.63a2.505 2.481 61.137 0 1 1.02-3.59c9.13-4.3 19.03-10.93 17.5-22.5-1.24-9.35-8.44-15.78-18.31-11.72-2.92 1.2-6.02 4.18-8.26 5.98a1.471 1.47-36.029 0 1-2.16-.34l-1.03-1.59a2.14 2.133-39.663 0 1 .25-2.63c8.37-8.72 15.71-14.39 27.56-13.85 8.75.4 16.19 6.62 17.78 15.28 1.29 7.05-3.16 14.72-8.42 19.31q-4.54 3.97-5.03 4.49"></path><path fill="#fefefe" fill-rule="evenodd" d="M494.86 233.21c-5.27 4.23-12.75 5.26-18.26.62-5.08-4.28-5.79-11.89-4.74-18.07 1.32-7.81 5.07-18.04 12.28-21.87 8.26-4.4 14.19 4.92 15.27 11.52q1.62 9.97-1.66 21.64-1.25 4.47-2.08 5.39a7.772 6.755-84.544 0 1-.81.77M591.43 224.71c4.74-7.11 12.86-9.37 19.77-3.5 5.44 4.64 7.99 11.15 9.97 18.13 1.45 5.11 2.58 13.52-1.08 17.85-6.53 7.73-16.01 1.6-20.39-4.66q-6.09-8.71-8.57-19.91c-.68-3.05-1.4-5.36.3-7.91"></path><path fill="#004c8a" fill-rule="evenodd" d="M912.11 276.48q-.03 1.18-.53 5.27-2.09 17.1-5.69 39.17c-2.15 13.16-3.64 23.19-5.81 34.89q-6.87 37.2-13.72 70.55-3.72 18.12-17.67 74.36c-1.55 6.28-3.17 11.3-5.47 19.82q-15.09 55.97-39.75 123.35-3.09 8.46-4.39 11.4c-2.14 4.87-3.74 9.89-5.91 15.2q-7.91 19.3-19.96 47.28c-5.11 11.85-9.9 21.12-14.82 32.02-4.91 10.87-10.93 22.03-15.22 30.78q-5.76 11.78-10.45 19.94c-4.87 8.5-9.08 17.37-14.35 26.37-11.21 19.12-19.09 32.96-30.1 50.39q-9.2 14.55-14.76 23.25-14.21 22.23-43.81 63.56c-6.44 8.99-13.15 17.28-21.82 28.82-11.73 15.6-26.24 33.66-40.14 49.92q-30.05 35.18-63.41 70.78-4.27 4.56-4.53 10.24-.26 5.79-.02 13.5a.653.643-89.538 0 0 .61.63c9.18.5 18.83-.56 24.97-.07 7.28.59 14.34 1.61 20.13 4.6 12.82 6.63 17.06 19.38 17.98 33.54q.69 10.57.84 22.83a3.401 3.382 81.891 0 1-2.47 3.31q-6.55 1.82-12.58.08a1.807 1.802-83.698 0 1-1.31-1.64q-.8-13.39-1.48-25.1-.36-6.13-3.4-11.32c-3.49-5.96-9.61-7-16.41-7.83q-3.86-.47-8.33-.46-52.29.15-57.6.23-4.99.07-10.93 1.63c-9.21 2.43-13.22 11.54-13.73 20.24q-.55 9.39-.74 22.61a1.984 1.977 84.484 0 1-1.56 1.9q-6.77 1.43-13.26-.98a2.18 2.17-80.174 0 1-1.41-2.01q-.19-14.73.86-26.28c1.45-16 8.25-30.08 25.15-34.13 12.03-2.88 24.9-1.69 37.65-.98a.722.713 4.11 0 0 .76-.65q.78-8-.02-16.38a5.024 5.009-69.089 0 0-1.3-2.92q-24.66-27.06-50.16-56.72-30.66-35.67-56.69-70.05-7.68-10.14-22.67-30.55-11.58-15.77-21.91-31.07-36.43-53.93-65.05-104.51-16.43-29.03-36.82-69.93-3.53-7.09-13.99-30-13.2-28.91-25.44-60.02-6.39-16.27-6.63-16.9-17.16-46.15-25.59-73.36-7.18-23.16-15.83-52.92-2.13-7.33-10.6-40.55-5.58-21.9-9.75-40.77-9.14-41.36-12.21-57.38-8.45-44.18-12.59-70.71-1.29-8.25-5.33-36.89a.206.204 25.852 0 1 .38-.13q2.11 3.62 4.37 7.79 2.11 3.9 17.24 31.95 24.47 45.37 70.05 129.44c28.07 51.76 58.95 107.07 88.71 161.91q.75 1.38 62.77 113.65 10.31 18.65 20.55 37.23 33.2 60.17 94.79 168.83c7.76 13.7 17.3 29.75 25.73 45 1.85 3.34 4.48 6.91 6.07 9.87q5.51 10.3 10.94 19.46a.337.337 38.079 0 0 .58 0q8.39-13.95 23.51-39.7.19-.32 35.23-61.77.39-.67 27.78-49.7 45.67-81.75 45.71-81.83 19.48-35.39 38.07-68.69 1.2-2.15 6.63-12.3c2.94-5.48 5.59-9.78 9.13-16.27q59.72-109.38 69.07-126.47c7.45-13.62 13.47-25.58 19.44-35.88 4.5-7.76 8.49-15.97 12.98-24.09q16.13-29.13 35.88-66.58 3.34-6.34 4.96-9.16c3.9-6.82 5.91-12.04 9.47-17.89 2.95-4.86 5.87-11.48 9.09-16.77 2.13-3.49 3.47-6.78 5.71-10.92q10.21-18.79 24.44-45.89c7.44-14.18 14.27-26.58 21.43-40.59a.245.243 59.329 0 1 .46.12M152.37 396.46q.38 3.07 1.21 6.97 3.49 16.55 8.6 41.39c.48 2.31 1.48 5.27 2.05 7.95q3.66 17.14 9.08 38.42 21.37 83.91 51.77 162.54c8.06 20.85 14.11 34.57 21.82 52.42q28.4 65.76 68.2 133.04 25.33 42.83 49.89 78.79 9.33 13.66 23.74 33.73c27.78 38.69 57.95 76.46 88.85 111.47q19.69 22.29 33.7 37.73a.313.313 90 0 0 .46 0q13.08-14.37 36.72-41.2 4.58-5.19 24.33-28.33c4.22-4.94 7.16-9.03 10.92-13.33q2.12-2.44 8.15-9.99 8.57-10.76 19.61-25.07c49.07-63.62 93.56-132.48 131.09-204.16q3.53-6.75 4.09-7.95c3.23-6.96 6.69-13.09 9.99-19.93q24.19-50.21 41.49-94.53 22.83-58.5 41.63-124.01 5.13-17.88 10.91-41 7.39-29.58 9.96-41.24 7.29-33.08 11.11-52.52a.274.273-25.409 0 0-.51-.18q-1.6 2.91-8.1 14.99-11.35 21.13-19.08 35.89c-7.4 14.16-16.48 30.76-26.11 48.55q-13.21 24.38-13.71 25.14-.69 1.05-9.74 17.93-7.68 14.33-9.72 17.91c-6.2 10.87-10.59 19.64-16.59 30.31q-9.01 16.03-12.54 22.77-1.48 2.83-39.2 72.01-4.71 8.64-11.95 21.58-6.51 11.62-11.91 21.59-2.37 4.37-11.76 21.63-1.84 3.38-7.71 13.82-4.8 8.53-29.46 53.37-1.38 2.51-2.71 4.97-9.93 18.39-20.69 37.73-1.56 2.81-7.36 13.01-12.71 22.32-21.87 39.2c-4.52 8.34-8.74 15.18-13.93 24.77-6.25 11.57-12.86 22.02-19.05 32.95q-2.61 4.6-8.56 14.42-20.82 34.29-36.09 58.94a.27.27 0 0 1-.46 0c-14.16-22.14-33.02-53.32-48.98-80.4q-7.53-12.77-15.69-27.21-12.45-22.03-36.74-65.33-4.69-8.36-5.43-9.66-8.4-14.76-17.56-31.46-1.77-3.23-3.61-6.55-33.52-60.57-93.17-169.1-24.27-44.14-45.41-82.99-4.63-8.5-5.94-10.75c-5.38-9.22-9.48-17.62-14.74-26.94q-6.1-10.81-9.98-17.96-17.13-31.59-34.23-62.79-1.43-2.62-9.33-17.59c-6.15-11.65-13.83-24.46-19.45-35.85a.159.159 28.257 0 0-.3.09"></path><path fill="#fefefe" fill-rule="evenodd" d="M512.31 332.624q280.438-.058 327.94.02 6.21.006 12.69.376a.624.617-75.598 0 1 .52.89q-1.19 2.51-2.54 5.05-11.49 21.53-27.75 50.96-58.44 105.82-107.69 193.32-31.8 56.49-47.24 83.94-3.88 6.9-17.7 31.33-53.5 94.52-110.88 193.34-6.27 10.8-6.46 11.12-10.12 16.92-20.41 34.694-.061.104-.355.104t-.355-.104q-10.298-17.77-20.425-34.685-.19-.32-6.464-11.118-57.421-98.796-110.96-193.294-13.83-24.424-17.713-31.322-15.452-27.444-47.275-83.921-49.286-87.48-107.77-193.275-16.272-29.424-27.771-50.949-1.351-2.539-2.542-5.049a.624.617 75.574 0 1 .52-.89q6.479-.373 12.689-.381 47.503-.098 327.941-.156M489.2 839.88l-1.03-217.86a1.447 1.438-72.509 0 0-.61-1.18l-111.09-79.41a5.154 5.041 2.485 0 1-1.35-1.44q-7.82-12.58-13.51-22.79-2.49-4.46-5.77-10.34-9.14-16.41-49.75-89.49a.271.271-12.003 0 1 .26-.4c10.78.81 21.45 2.69 32.04 3.98q57.47 7 114.02 15.12a.83.829-85.544 0 1 .7.82q-.13 40.97 0 85.05c.01 6.08 6.53 11.73 11.65 14.24 5.97 2.93 12.64 3 17.85-1.26 5.44-4.45 5.32-11.35 5.33-17.67q.07-50.87 0-109.87a1.385 1.384 3.592 0 0-1.2-1.36l-245.63-32.71a.392.39 79.032 0 0-.39.58l104.2 186.72a1.189 1.153 3.521 0 0 .31.34l108.07 76.04a1.029 1.014 17.458 0 1 .43.81q1.25 40.19.89 78.08a.306.305-59.677 0 1-.57.15q-24.85-42.9-33.77-58.52-2.69-4.73-5.39-7.65c-8.8-9.56-25.29-4.31-26.21 8.91-.48 7.03 1.41 9.51 5.5 16.67q58.65 102.84 94.47 164.58a.296.292 30.315 0 0 .55-.14m150.52-279.81q-59.33 107.79-70.58 128.57c-3.16 5.85-3.62 13.51.7 19.07q5.2 6.7 13.47 8.89c7.37 1.95 12.43-2.36 15.8-8.48q26.18-47.51 54.22-98.59 3.75-6.84 4.64-8.28c4.25-6.94 7.35-13.75 11.44-20.78q7.39-12.73 15.81-28.6c3.84-7.23 8.52-15.1 13.13-23.52q30.94-56.55 57.93-105.01 3.14-5.62 5.48-10.12c4.46-8.57 9.4-16.23 13.51-24.12q.85-1.62 7.74-14.17a.495.489 10.581 0 0-.5-.72L507.52 408.2a.796.79 86.765 0 0-.7.79q1.67 311.76 2.07 399.78.03 5.67 1.13 7.79 1.84 3.59 5.13 6.05c6.31 4.73 14.42 6.31 21.45 1.73 4-2.61 5.44-5.94 5.3-11.08-.38-13.68.46-28.67.48-42q.12-84.41.07-211.49a.32.32 45 0 1 .32-.32h96.58a.421.419 14.306 0 1 .37.62"></path><path fill="#004c8a" fill-rule="evenodd" d="M489.2 839.88a.296.292 30.315 0 1-.55.14q-35.82-61.74-94.47-164.58c-4.09-7.16-5.98-9.64-5.5-16.67.92-13.22 17.41-18.47 26.21-8.91q2.7 2.92 5.39 7.65 8.92 15.62 33.77 58.52a.306.305-59.677 0 0 .57-.15q.36-37.89-.89-78.08a1.029 1.014 17.458 0 0-.43-.81l-108.07-76.04a1.189 1.153 3.521 0 1-.31-.34l-104.2-186.72a.392.39 79.032 0 1 .39-.58l245.63 32.71a1.385 1.384 3.592 0 1 1.2 1.36q.07 59 0 109.87c-.01 6.32.11 13.22-5.33 17.67-5.21 4.26-11.88 4.19-17.85 1.26-5.12-2.51-11.64-8.16-11.65-14.24q-.13-44.08 0-85.05a.83.829-85.544 0 0-.7-.82q-56.55-8.12-114.02-15.12c-10.59-1.29-21.26-3.17-32.04-3.98a.271.271-12.003 0 0-.26.4q40.61 73.08 49.75 89.49 3.28 5.88 5.77 10.34 5.69 10.21 13.51 22.79a5.154 5.041 2.485 0 0 1.35 1.44l111.09 79.41a1.447 1.438-72.509 0 1 .61 1.18zM639.72 560.07a.421.419 14.306 0 0-.37-.62h-96.58a.32.32 0 0 0-.32.32q.05 127.08-.07 211.49c-.02 13.33-.86 28.32-.48 42 .14 5.14-1.3 8.47-5.3 11.08-7.03 4.58-15.14 3-21.45-1.73q-3.29-2.46-5.13-6.05-1.1-2.12-1.13-7.79-.4-88.02-2.07-399.78a.796.79 86.765 0 1 .7-.79l274.99-33.99a.495.489 10.581 0 1 .5.72q-6.89 12.55-7.74 14.17c-4.11 7.89-9.05 15.55-13.51 24.12q-2.34 4.5-5.48 10.12-26.99 48.46-57.93 105.01c-4.61 8.42-9.29 16.29-13.13 23.52q-8.42 15.87-15.81 28.6c-4.09 7.03-7.19 13.84-11.44 20.78q-.89 1.44-4.64 8.28-28.04 51.08-54.22 98.59c-3.37 6.12-8.43 10.43-15.8 8.48q-8.27-2.19-13.47-8.89c-4.32-5.56-3.86-13.22-.7-19.07q11.25-20.78 70.58-128.57m-96.1-35.53h114.64a.875.866-75.324 0 0 .76-.45l58.74-106.19a.411.407 10.982 0 0-.41-.6q-58.28 6.7-121.5 15.32c-18.02 2.46-35.09 4.37-53.53 6.92a.465.462-5.981 0 0-.4.49q.59 9.31.6 19.72 0 37.91-.05 63.64a1.15 1.15-45 0 0 1.15 1.15"></path><path fill="#fefefe" fill-rule="evenodd" d="M152.37 396.46a.159.159 28.257 0 1 .3-.09c5.62 11.39 13.3 24.2 19.45 35.85q7.9 14.97 9.33 17.59 17.1 31.2 34.23 62.79 3.88 7.15 9.98 17.96c5.26 9.32 9.36 17.72 14.74 26.94q1.31 2.25 5.94 10.75 21.14 38.85 45.41 82.99 59.65 108.53 93.17 169.1 1.84 3.32 3.61 6.55 9.16 16.7 17.56 31.46.74 1.3 5.43 9.66 24.29 43.3 36.74 65.33 8.16 14.44 15.69 27.21c15.96 27.08 34.82 58.26 48.98 80.4a.27.27 0 0 0 .46 0q15.27-24.65 36.09-58.94 5.95-9.82 8.56-14.42c6.19-10.93 12.8-21.38 19.05-32.95 5.19-9.59 9.41-16.43 13.93-24.77q9.16-16.88 21.87-39.2 5.8-10.2 7.36-13.01 10.76-19.34 20.69-37.73 1.33-2.46 2.71-4.97 24.66-44.84 29.46-53.37 5.87-10.44 7.71-13.82 9.39-17.26 11.76-21.63 5.4-9.97 11.91-21.59 7.24-12.94 11.95-21.58 37.72-69.18 39.2-72.01 3.53-6.74 12.54-22.77c6-10.67 10.39-19.44 16.59-30.31q2.04-3.58 9.72-17.91 9.05-16.88 9.74-17.93.5-.76 13.71-25.14c9.63-17.79 18.71-34.39 26.11-48.55q7.73-14.76 19.08-35.89 6.5-12.08 8.1-14.99a.274.273-25.409 0 1 .51.18q-3.82 19.44-11.11 52.52-2.57 11.66-9.96 41.24-5.78 23.12-10.91 41-18.8 65.51-41.63 124.01-17.3 44.32-41.49 94.53c-3.3 6.84-6.76 12.97-9.99 19.93q-.56 1.2-4.09 7.95c-37.53 71.68-82.02 140.54-131.09 204.16q-11.04 14.31-19.61 25.07-6.03 7.55-8.15 9.99c-3.76 4.3-6.7 8.39-10.92 13.33q-19.75 23.14-24.33 28.33-23.64 26.83-36.72 41.2a.313.313-90 0 1-.46 0q-14.01-15.44-33.7-37.73c-30.9-35.01-61.07-72.78-88.85-111.47q-14.41-20.07-23.74-33.73-24.56-35.96-49.89-78.79-39.8-67.28-68.2-133.04c-7.71-17.85-13.76-31.57-21.82-52.42q-30.4-78.63-51.77-162.54-5.42-21.28-9.08-38.42c-.57-2.68-1.57-5.64-2.05-7.95q-5.11-24.84-8.6-41.39-.83-3.9-1.21-6.97"></path><path fill="#fefefe" fill-rule="evenodd" d="M543.62 524.54a1.15 1.15-45 0 1-1.15-1.15q.05-25.73.05-63.64-.01-10.41-.6-19.72a.465.462-5.981 0 1 .4-.49c18.44-2.55 35.51-4.46 53.53-6.92q63.22-8.62 121.5-15.32a.411.407 10.982 0 1 .41.6l-58.74 106.19a.875.866-75.324 0 1-.76.45z"></path><path fill="#004c8a" fill-rule="evenodd" d="M543.13 1372.88a.35.348 77.979 0 1-.49-.32v-125.6a.931.924 77.465 0 1 .53-.84q54.61-25.47 103.49-60.25 6.87-4.88 13.78-9.74 6.36-4.47 10.18-7.75c4.28-3.68 8.36-6.64 13.22-10.83q19.44-16.79 36.92-35.79 58.16-63.22 92.89-140.83 12.95-28.94 20.78-56.72a.972.966 16.528 0 0-.65-1.19c-6.52-1.98-12.49.85-18.97.6q-5.91-.23-12.79-2.04c-9.98-2.64-15.49-9.51-15.87-19.71-.49-12.97 6.11-23.74 16.72-31.13 9.93-6.93 16.33-14.12 22.76-25.75q3.77-6.81 7.19-12.17c2.61-4.1 6.79-7.67 11.85-7.6 12.19.19 17.21 14.9 19.96 24.48 1.46 5.11 3.26 8.54 6.66 12.19a1.688 1.686 32.243 0 1 .37 1.63c-5.28 17.21-5.42 34.25 3.21 50.6q5.87 11.14 16.46 18.84 19.49 14.16 44.93 12.57 1.82-.11 9.59-.98a.45.448-1.633 0 1 .5.47q-.39 7.09-2.18 12.62-7.59 23.46-16.74 46.05-8.17 20.13-20.72 44.36-29.35 56.62-67.54 105.89-24.94 32.17-50.38 57.09-14.13 13.85-33.53 30.37c-34.16 29.12-71.19 54.2-110.19 77.88q-49.66 30.15-101.94 53.6m313.713-340.313c9.406 3.932 19.539 5.218 29.408 2.253 16.959-5.1 27.189-26.04 20.041-42.478-4.379-10.065-13.37-17.437-23.562-21.697-10.191-4.261-21.754-5.482-31.993-1.529-16.721 6.459-24.439 28.45-16.156 44.102 4.823 9.107 12.855 15.417 22.262 19.349m.377 22.583q-.11.08-.72.08-33.86.18-57.69-.44-1.93-.05-3.34 1.66-4.03 4.91-5.35 7.44-1.55 2.97 1.17 4.57c12.03 7.07 26.84 14.74 38.25 21.49q16.29 9.65 18.91 11.1 2.77 1.52 3.31 1.63a1.282 1.28 23.373 0 0 1.29-.51l4.97-7.05a.878.868-52.643 0 0-.15-1.17q-2.67-2.23-4.05-3.03c-10.75-6.17-20.16-11.9-30.23-17.18q-4.8-2.51-9.88-6.27a.45.447 62.938 0 1 .26-.81l62.1-.29a2.155 2.132 12.175 0 0 1.93-1.23l4.17-8.91a1.039 1.036-57.816 0 0-.28-1.24q-1.98-1.67-2.41-1.9-34.95-18.92-46.48-25.3c-4.88-2.71-12.71-7.79-16.25-7.16a1.592 1.583-82.471 0 0-1.18.91l-2.61 5.68a1.1 1.096-51.715 0 0 .13 1.12q.58.92 3.89 2.93 16.04 9.71 33.94 19.34 4.54 2.45 6.32 3.88a.418.415-43.466 0 1-.02.66m-51.77 80.13 16.27-20.27a1.4 1.393-60.267 0 1 1.56-.43l15.67 5.74a2.553 2.546-62.306 0 0 2.97-.93l5.38-7.65a.803.802-48.445 0 0-.06-1.01q-1.56-1.68-3.95-2.52-30.34-10.69-65.12-21.21c-2.08-.63-2.78-1.18-4.21.43q-3.89 4.39-6.42 8.36-1.49 2.33.16 4.75 10.22 14.95 36.98 55.83 1.41 2.16 2.85 3.48a.798.797 47.75 0 0 1.02.05q4.03-3.09 6.56-6.94a2.621 2.607 44.558 0 0-.03-2.91l-9.66-14.02a.642.628-43.334 0 1 .03-.75m-55.33-17.26q-4.56 1.94-6.94 6.61a1.49 1.482 48.009 0 0-.06 1.21q.9 2.4 3.49 4.81 15.13 14.1 44.84 42.7.46.43 2.75 1.77a.974.961-53.605 0 0 1.2-.19l6.08-6.68a1.286 1.268-34.533 0 0 .25-1.3q-.61-1.66-2.08-3.05-39.08-36.93-48.57-45.71a.916.905 54.676 0 0-.96-.17m30.53 55.6a.341.329 41.287 0 0-.43.02l-22.62 20.98a.41.41 87.703 0 1-.58-.02l-39.21-42.27a1.31 1.31-33.168 0 0-1.48-.31q-3.72 1.65-7.59 5.55a1.499 1.487-35.924 0 0-.28 1.71q1.12 2.3 3.13 4.46c17.3 18.56 27.63 29.1 40.88 44.52q2 2.33 4.85 2.42a1.885 1.882 32.049 0 0 .96-.22q2.57-1.4 6.28-5.15 9.46-9.56 21.02-19.97 3.38-3.04.57-6.45-2.52-3.06-5.5-5.27m-68.46 59.81-11.95-14.84a.511.505 50.904 0 1 .07-.72l23.6-19.02a1.133 1.128-30.57 0 0 .34-1.31q-2.14-5.16-5.56-7.78a.882.873 48.902 0 0-.96-.07q-3.53 1.97-7.79 5.54c-5.8 4.86-9.18 7.31-16.25 12.98a1.387 1.387-87.916 0 1-1.95-.21l-10.05-12.48a.775.775-3.859 0 1 .11-1.09l25.26-20.35a1.875 1.866 54.331 0 0 .4-2.47l-3.94-6.06a1.805 1.803 58.664 0 0-2.42-.59q-4.79 2.73-9.67 6.71-7.14 5.82-24.86 20.18a2.077 2.066-28.945 0 0-.66 2.27q.88 2.58 2.68 4.78 20.41 24.91 39.88 49.37 2.16 2.7 4.96.44 26.42-21.33 33.69-27.01a1.116 1.116 54.527 0 0 .25-1.49l-5.11-7.89a1.45 1.447-35.832 0 0-2.12-.34l-26.77 21.58a.847.839-38.445 0 1-1.18-.13m-88.78 12.54 43.05 34.56a1.612 1.605-40.433 0 0 1.8.14q2.25-1.26 4.93-2.78 2.85-1.62 1.77-5.07-7.89-25.08-15.5-50.29a.497.494-70.874 0 1 .88-.43l29.11 42.26a1.54 1.54 56.552 0 0 2.14.4l6.59-4.54a1.104 1.092 63.32 0 0 .41-1.26q-1.18-3.49-3.44-6.82-24.03-35.27-33.17-49.08-.82-1.23-2.37-3.04a2.01 1.992 63.263 0 0-1.97-.66c-3.47.78-6.73 3.6-12.29 7.5a2.051 2.044 64.064 0 0-.78 2.27l15.98 51.96a.349.345 10.705 0 1-.55.37q-22.55-17.76-38.19-30.53-1.62-1.32-4.52-3.05a2.463 2.458 45.869 0 0-2.46-.04l-10.76 6.01a2.257 2.252 63.501 0 0-.96 2.88q.83 1.88 2.14 3.77 14.81 21.49 36.77 53.73c1.03 1.51 2.69 1.95 4.32.87q2.22-1.47 5.03-3.31a1.148 1.141 63.744 0 0 .45-1.34q-.67-1.9-2-4.01-5.04-7.98-24-35-1.6-2.28-3.04-4.95a.417.416 5.383 0 1 .63-.52m-35.94 61.8 23.91-13.34a.56.555-40.98 0 1 .61.04q5.14 3.86 10.3 8.72 2.04 1.92 4.23 2.91a1.085 1.078-40.949 0 0 .74.05q4.7-1.28 8.52-4.65a2.261 2.253-41.507 0 0 .2-3.19q-1.78-2.02-4.39-4.11-12.47-9.97-42.58-35.77-5.5-4.71-11.1-8.2a.937.934 46.115 0 0-.95-.02l-9.8 5.47a.82.82 59.131 0 0-.42.7q-.03 2.61.49 5.88c1.27 8 3.44 16.71 4.83 25.37q3.04 19.02 7.3 42.82a1.608 1.603 73.001 0 0 2.23 1.19l8.11-3.59a1.355 1.345-9.264 0 0 .79-1.09q.16-1.51-.1-3.15-1.12-7.27-3.13-15.57a.436.429-21.363 0 1 .21-.47M480.78 1372.6a.357.352 12.02 0 1-.5.32q-35.72-15.69-73.55-37.67-8.59-5-29.82-17.93-16.39-9.99-44.33-29.42c-22.43-15.6-44.93-33.38-65.72-51.77q-39.11-34.61-71.64-76.08-19.11-24.35-34.68-46.81-15.69-22.62-31.4-48.36-17.2-28.19-30.64-59.36-9.65-22.4-18.17-46.09-2.57-7.15-3.09-14.88a.436.428-86.498 0 1 .51-.46c23.06 4.26 46.87-1.79 62.71-19.13q16.87-18.49 14.09-46.42-.8-8.04-2.83-15.06a1.233 1.225 52.75 0 1 .13-.98q.54-.9 2.51-3.14c4.09-4.68 5.47-13.18 7.22-17.27 3.09-7.21 7.9-15.79 16.57-16.43 7.6-.56 11.92 6.44 15.91 13.02 4.37 7.2 7.57 13.84 12.5 19.66q4.67 5.53 8.69 8.69 9.82 7.73 12.07 10.37 4 4.68 7.21 10.78c5.92 11.23 5.36 27.66-8.62 32.74-10.31 3.75-19.54 2.71-30.39 1.36q-2.83-.35-5.25 1.12a.755.743 69.075 0 0-.35.8q.54 2.52 1.24 4.61 6.24 18.59 13.76 37.52 2.76 6.95 6.41 14.26c2.76 5.53 5.65 12.58 8.99 18.86q11.6 21.77 16.84 30.91 1.46 2.54 11.21 18.08c7.45 11.87 18.1 26.64 24.46 35.21q43.53 58.61 102.06 101.44c9.64 7.06 21.62 15.62 32.4 22.51q35.02 22.36 73.04 39.07a.758.754 12.045 0 1 .45.69zm-310.83-370.32q2.54 4.42 5.92 7.45a.807.796 51.355 0 0 .93.11c22.54-12.48 3.5-51.26-20.05-43.82q-7.67 2.43-11.63 9.83c-2.39 4.48-2.21 10.61-1.64 15.41q.67 5.68 2.01 14.72c.95 6.4-2.41 11.79-9.16 11.97-5.46.14-10.13-4.95-12.18-9.58-3.2-7.22-.43-13.8 5.25-18.48a1.2 1.2 59.843 0 0 .36-1.36q-1.45-3.87-5.15-7.42a1.263 1.251 56.453 0 0-1.3-.27c-6.41 2.29-10.5 6.65-11.71 13.57-2.55 14.57 6.99 32.52 22.35 35.64 9.63 1.96 19.74-2.96 22.91-12.51 2.89-8.69.29-19.66-.92-27.41-.91-5.82.11-11.79 6.28-13.04 4.74-.97 9.38 3.1 11.58 7.12q4.16 7.6-1.39 14.23-.11.12-2.39 2.92a.823.808 49.896 0 0-.07.92m-25.8 53.23 19.84-12.86a.732.727 59.906 0 1 1.04.28c5.33 10.09 13.37 23.66 26.69 23.21 8.15-.27 15.56-4.94 19.78-11.84 4.47-7.3 3.43-14.02-.14-21.27q-2.53-5.15-11.91-19.72-1.76-2.73-3.86-4.4a1.463 1.454 47.494 0 0-1.71-.08q-5 3.33-36.7 23.6c-4.38 2.8-9.2 6.52-14.53 9.48q-2.25 1.25-4.09 3.07a1.322 1.315 63.283 0 0-.37 1.13q.81 5.17 4.89 9.29a.853.852-39.112 0 0 1.07.11m51.672 16.834c-16.467 11.505-24.183 31.088-11.645 49.032s33.579 17.433 50.046 5.928c16.467-11.506 24.183-31.088 11.646-49.033-12.538-17.944-33.58-17.433-50.047-5.927m29.118 90.676q8.36-6.85 17.06-16.37l.08-.08 2.11-1.7a.863.858-42.784 0 1 1.12.04q5.87 5.48 10.87 11.94 1.38 1.78.86 3.46-.8 2.59-5.08 8.92-4.58 6.78-7.52 12.03-1.41 2.52.81 5.19 3.15 3.79 5.52 6.05a.623.622-52.685 0 0 .96-.13q4.3-6.97 12.05-18.54 4.03-6.03 3.59-12.79a.486.481-78.92 0 1 .69-.47c9.8 4.76 19.67-.95 23.97-10.13q2.91-6.23 1.13-13.33-1.06-4.21-7.56-11.26-8.56-9.28-15.29-16.01c-1.78-1.77-3.41-3.73-5.61-1.67-6.32 5.9-9.59 8.7-14.83 14.21q-3.37 3.54-7.39 7.28c-6.42 5.97-11.68 11.86-17.84 17.23q-1.48 1.29-6.65 6.58a1.553 1.498-20.98 0 0-.43.92c-.27 2.71 4.88 7.15 6.4 8.59a.75.737 46.835 0 0 .98.04m53.51 54.12 39.44-41.5a.591.584-53.338 0 1 .72-.11q2.26 1.32 4.66 3.59 5.12 4.83 9.11 8.36a1.226 1.218-41.414 0 0 1.52.09q3.63-2.52 5.64-6.67a1.833 1.816-56.113 0 0-.41-2.14l-36.4-33.1a1.202 1.197-34.622 0 0-1.27-.23q-4.28 1.77-6.24 6.8a1.254 1.234 42.156 0 0 .06 1.04q1.05 2.06 1.85 2.74c5.64 4.77 9.36 7.58 11.31 10.23a.77.761-41.852 0 1-.06.98q-21.19 22.69-36.12 39.03-1.81 1.97-1.82 3.36a1.962 1.952-62.857 0 0 .38 1.19q2.89 3.89 6.41 6.45a.93.927 39.754 0 0 1.22-.11m44.543-6.022c-6.742 8.17-14.986 17.736-20.27 24.635a2.905 2.899-42.954 0 0-.123 3.357q1.87 2.87 6.46 6.46a.664.66 39.74 0 0 .9-.08q6.98-7.68 7.693-8.589 8.558-10.883 14.577-18.176c6.744-8.169 14.988-17.735 20.271-24.634a2.905 2.899-42.954 0 0 .124-3.357q-1.87-2.87-6.46-6.46a.664.66 39.74 0 0-.9.08q-6.98 7.68-7.693 8.589-8.558 10.883-14.579 18.175m27.477 45.562q-.17-.24-.07-.53c6.54-18.77 11.54-34.95 17.72-50.83q1.22-3.15-1.39-4.77-4.13-2.56-8.25-4.95a.411.404 25.496 0 0-.58.2q-1.23 3.22-1.43 3.82-3.35 9.98-18.34 57.76-1.56 4.94-1.74 7.47a2.648 2.641 21.545 0 0 .98 2.25l7.74 6.21a1.17 1.162-37.074 0 0 1.18.16q1.88-.8 3.82-2.11 24.95-16.96 52.63-35.12.68-.45 3.29-2.87a1.584 1.57 44.753 0 0-.02-2.32l-6.7-6.1a.763.759-41.168 0 0-.93-.06q-21.8 15.14-47.24 31.92-.4.27-.67-.13m38.764 3.508c-11.563 17.116-11.18 37.766 6.924 49.997 18.104 12.23 37.405 4.878 48.968-12.237 11.562-17.115 11.179-37.766-6.925-49.997-18.103-12.23-37.405-4.878-48.967 12.237"></path><path fill="#004c8a" fill-rule="evenodd" d="M135.267 871.022a.577.565-16.362 0 1 .717.381c6.419 21.508-1.103 41.732-21.168 51.896q-17.346 8.788-36.51 3.445a.89.882-80.299 0 1-.645-.92c1.138-14.699 9.864-28.444 21.674-36.932q16.86-12.121 35.932-17.87M887.84 870.96q19.1 5.83 35.96 18.04c11.81 8.55 20.51 22.36 21.6 37.1a.892.884 80.498 0 1-.65.92q-19.23 5.29-36.59-3.58c-20.08-10.26-27.55-30.56-21.04-52.1a.578.566 16.561 0 1 .72-.38"></path><path fill="#fefefe" fill-rule="evenodd" d="M1024 942.5v1.48q-.27.61 0 .91v.85l-.26 3.13a.07.06 0 0 1-.07.06h-.26a.37.37-54.465 0 1-.37-.37l-.03-7.26a.287.272 75.025 0 1 .13-.24q.67-.4.86 1.44M.601 942.19a2.4.31-89.5 0 1 .289 2.403 2.4.31-89.5 0 1-.331 2.397 2.4.31-89.5 0 1-.289-2.403 2.4.31-89.5 0 1 .331-2.397" data-source="https://football-logos.cc"></path><path fill="#004c8a" fill-rule="evenodd" d="M1024 943.98v.91q-.27-.3 0-.91"></path><path fill="#fefefe" fill-rule="evenodd" d="M170.02 1001.36q2.28-2.8 2.39-2.92 5.55-6.63 1.39-14.23c-2.2-4.02-6.84-8.09-11.58-7.12-6.17 1.25-7.19 7.22-6.28 13.04 1.21 7.75 3.81 18.72.92 27.41-3.17 9.55-13.28 14.47-22.91 12.51-15.36-3.12-24.9-21.07-22.35-35.64 1.21-6.92 5.3-11.28 11.71-13.57a1.263 1.251 56.453 0 1 1.3.27q3.7 3.55 5.15 7.42a1.2 1.2 59.843 0 1-.36 1.36c-5.68 4.68-8.45 11.26-5.25 18.48 2.05 4.63 6.72 9.72 12.18 9.58 6.75-.18 10.11-5.57 9.16-11.97q-1.34-9.04-2.01-14.72c-.57-4.8-.75-10.93 1.64-15.41q3.96-7.4 11.63-9.83c23.55-7.44 42.59 31.34 20.05 43.82a.807.796 51.355 0 1-.93-.11q-3.38-3.03-5.92-7.45a.823.808 49.896 0 1 .07-.92M882.73 970.645c10.192 4.26 19.183 11.632 23.562 21.697 7.148 16.438-3.082 37.378-20.041 42.478-9.869 2.965-20.002 1.679-29.408-2.253s-17.439-10.242-22.262-19.349c-8.283-15.652-.565-37.643 16.156-44.102 10.239-3.953 21.802-2.732 31.993 1.529m-21.605 50.113c14.405 6.513 29.511 4.733 35.12-11.536 4.202-12.187-7.989-22.254-17.595-26.597-14.405-6.516-29.511-4.736-35.119 11.533-4.202 12.188 7.989 22.254 17.594 26.6"></path><path fill="#004c8a" fill-rule="evenodd" d="M878.65 982.625c9.606 4.343 21.797 14.41 17.595 26.597-5.609 16.269-20.715 18.049-35.12 11.536-9.605-4.346-21.796-14.412-17.594-26.6 5.608-16.269 20.714-18.049 35.119-11.533"></path><path fill="#fefefe" fill-rule="evenodd" d="M143.08 1055.4q-4.08-4.12-4.89-9.29a1.322 1.315 63.283 0 1 .37-1.13q1.84-1.82 4.09-3.07c5.33-2.96 10.15-6.68 14.53-9.48q31.7-20.27 36.7-23.6a1.463 1.454 47.494 0 1 1.71.08q2.1 1.67 3.86 4.4 9.38 14.57 11.91 19.72c3.57 7.25 4.61 13.97.14 21.27-4.22 6.9-11.63 11.57-19.78 11.84-13.32.45-21.36-13.12-26.69-23.21a.732.727 59.906 0 0-1.04-.28l-19.84 12.86a.853.852-39.112 0 1-1.07-.11m49.628-31.137-18.326 11.318a.88.88 59.974 0 0-.286 1.211l6.621 10.721a12.42 10.89 58.3 0 0 15.791 4.844l1.293-.798a12.42 10.89 58.3 0 0 2.739-16.29l-6.62-10.72a.88.88-2.696 0 0-1.212-.286M857.22 1055.15a.418.415-43.466 0 0 .02-.66q-1.78-1.43-6.32-3.88-17.9-9.63-33.94-19.34-3.31-2.01-3.89-2.93a1.1 1.096-51.715 0 1-.13-1.12l2.61-5.68a1.592 1.583-82.471 0 1 1.18-.91c3.54-.63 11.37 4.45 16.25 7.16q11.53 6.38 46.48 25.3.43.23 2.41 1.9a1.039 1.036-57.816 0 1 .28 1.24l-4.17 8.91a2.155 2.132 12.175 0 1-1.93 1.23l-62.1.29a.45.447 62.938 0 0-.26.81q5.08 3.76 9.88 6.27c10.07 5.28 19.48 11.01 30.23 17.18q1.38.8 4.05 3.03a.878.868-52.643 0 1 .15 1.17l-4.97 7.05a1.282 1.28 23.373 0 1-1.29.51q-.54-.11-3.31-1.63-2.62-1.45-18.91-11.1c-11.41-6.75-26.22-14.42-38.25-21.49q-2.72-1.6-1.17-4.57 1.32-2.53 5.35-7.44 1.41-1.71 3.34-1.66 23.83.62 57.69.44.61 0 .72-.08"></path><path fill="#004c8a" fill-rule="evenodd" d="M192.708 1024.263a.88.88 5.712 0 1 1.212.286l6.62 10.72a12.42 10.89 58.3 0 1-2.739 16.29l-1.293.798a12.42 10.89 58.3 0 1-15.791-4.844l-6.621-10.721a.88.88 77.955 0 1 .286-1.211z"></path><path fill="#fefefe" fill-rule="evenodd" d="M245.869 1078.271c12.537 17.945 4.821 37.527-11.646 49.033s-37.508 12.016-50.046-5.928-4.822-37.527 11.645-49.032c16.467-11.506 37.509-12.017 50.047 5.927m-52.907 36.192c9.601 14.727 28.872 8.791 39.244-.65 8.411-7.655 11.556-18.156 5.008-28.2-6.549-10.044-17.426-11.403-27.823-6.796-12.824 5.682-26.03 20.92-16.429 35.646"></path><path fill="#004c8a" fill-rule="evenodd" d="M237.214 1085.613c6.548 10.044 3.403 20.545-5.008 28.2-10.372 9.441-29.643 15.377-39.244.65s3.605-29.964 16.429-35.646c10.397-4.607 21.274-3.248 27.823 6.796"></path><path fill="#fefefe" fill-rule="evenodd" d="M805.45 1135.28a.642.628-43.334 0 0-.03.75l9.66 14.02a2.621 2.607 44.558 0 1 .03 2.91q-2.53 3.85-6.56 6.94a.798.797 47.75 0 1-1.02-.05q-1.44-1.32-2.85-3.48-26.76-40.88-36.98-55.83-1.65-2.42-.16-4.75 2.53-3.97 6.42-8.36c1.43-1.61 2.13-1.06 4.21-.43q34.78 10.52 65.12 21.21 2.39.84 3.95 2.52a.803.802-48.445 0 1 .06 1.01l-5.38 7.65a2.553 2.546-62.306 0 1-2.97.93l-15.67-5.74a1.4 1.393-60.267 0 0-1.56.43zm-7.219-10.004a.6.6-57.522 0 0 .969.02l11.384-14.944a.6.6-69.922 0 0-.276-.929l-29.063-10.332a.6.6-77.324 0 0-.693.909z"></path><path fill="#004c8a" fill-rule="evenodd" d="M798.231 1125.276 780.552 1100a.6.6-60.58 0 1 .693-.909l29.063 10.332a.6.6-29.791 0 1 .276.929l-11.384 14.944a.6.6-16.174 0 1-.969-.02"></path><path fill="#fefefe" fill-rule="evenodd" d="M223.96 1162.98c-1.52-1.44-6.67-5.88-6.4-8.59a1.553 1.498-20.98 0 1 .43-.92q5.17-5.29 6.65-6.58c6.16-5.37 11.42-11.26 17.84-17.23q4.02-3.74 7.39-7.28c5.24-5.51 8.51-8.31 14.83-14.21 2.2-2.06 3.83-.1 5.61 1.67q6.73 6.73 15.29 16.01 6.5 7.05 7.56 11.26 1.78 7.1-1.13 13.33c-4.3 9.18-14.17 14.89-23.97 10.13a.486.481-78.92 0 0-.69.47q.44 6.76-3.59 12.79-7.75 11.57-12.05 18.54a.623.622-52.685 0 1-.96.13q-2.37-2.26-5.52-6.05-2.22-2.67-.81-5.19 2.94-5.25 7.52-12.03 4.28-6.33 5.08-8.92.52-1.68-.86-3.46-5-6.46-10.87-11.94a.863.858-42.784 0 0-1.12-.04l-2.11 1.7-.08.08q-8.7 9.52-17.06 16.37a.75.737 46.835 0 1-.98-.04m42.074-39.367-12.076 11.621a1.63 1.63 39.852 0 0-.044 2.305l10.297 10.7a10.24 9.59 46.1 0 0 14.01.729l.605-.583a10.24 9.59 46.1 0 0-.19-14.028l-10.297-10.7a1.63 1.63 22.049 0 0-2.305-.044M750.12 1118.02a.916.905 54.676 0 1 .96.17q9.49 8.78 48.57 45.71 1.47 1.39 2.08 3.05a1.286 1.268-34.533 0 1-.25 1.3l-6.08 6.68a.974.961-53.605 0 1-1.2.19q-2.29-1.34-2.75-1.77-29.71-28.6-44.84-42.7-2.59-2.41-3.49-4.81a1.49 1.482 48.009 0 1 .06-1.21q2.38-4.67 6.94-6.61"></path><path fill="#004c8a" fill-rule="evenodd" d="M266.034 1123.613a1.63 1.63 52.427 0 1 2.305.044l10.297 10.7a10.24 9.59 46.1 0 1 .19 14.028l-.605.583a10.24 9.59 46.1 0 1-14.01-.729l-10.297-10.7a1.63 1.63 84.325 0 1 .044-2.305z"></path><path fill="#fefefe" fill-rule="evenodd" d="M277.23 1217.25q-3.52-2.56-6.41-6.45a1.962 1.952-62.857 0 1-.38-1.19q.01-1.39 1.82-3.36 14.93-16.34 36.12-39.03a.77.761-41.852 0 0 .06-.98c-1.95-2.65-5.67-5.46-11.31-10.23q-.8-.68-1.85-2.74a1.254 1.234 42.156 0 1-.06-1.04q1.96-5.03 6.24-6.8a1.202 1.197-34.622 0 1 1.27.23l36.4 33.1a1.833 1.816-56.113 0 1 .41 2.14q-2.01 4.15-5.64 6.67a1.226 1.218-41.414 0 1-1.52-.09q-3.99-3.53-9.11-8.36-2.4-2.27-4.66-3.59a.591.584-53.338 0 0-.72.11l-39.44 41.5a.93.927 39.754 0 1-1.22.11M780.65 1173.62q2.98 2.21 5.5 5.27 2.81 3.41-.57 6.45-11.56 10.41-21.02 19.97-3.71 3.75-6.28 5.15a1.885 1.882 32.049 0 1-.96.22q-2.85-.09-4.85-2.42c-13.25-15.42-23.58-25.96-40.88-44.52q-2.01-2.16-3.13-4.46a1.499 1.487-35.924 0 1 .28-1.71q3.87-3.9 7.59-5.55a1.31 1.31-33.168 0 1 1.48.31l39.21 42.27a.41.41 67.496 0 0 .58.02l22.62-20.98a.341.329 41.287 0 1 .43-.02M713.37 1233.56l26.77-21.58a1.45 1.447-35.832 0 1 2.12.34l5.11 7.89a1.116 1.116 54.527 0 1-.25 1.49q-7.27 5.68-33.69 27.01-2.8 2.26-4.96-.44-19.47-24.46-39.88-49.37-1.8-2.2-2.68-4.78a2.077 2.066-28.945 0 1 .66-2.27q17.72-14.36 24.86-20.18 4.88-3.98 9.67-6.71a1.805 1.803 58.664 0 1 2.42.59l3.94 6.06a1.875 1.866 54.331 0 1-.4 2.47l-25.26 20.35a.775.775-43.103 0 0-.11 1.09l10.05 12.48a1.387 1.387 86.881 0 0 1.95.21c7.07-5.67 10.45-8.12 16.25-12.98q4.26-3.57 7.79-5.54a.882.873 48.902 0 1 .96.07q3.42 2.62 5.56 7.78a1.133 1.128-30.57 0 1-.34 1.31l-23.6 19.02a.511.505 50.904 0 0-.07.72l11.95 14.84a.847.839-38.445 0 0 1.18.13M332.23 1218.725q-6.019 7.293-14.577 18.176-.713.909-7.693 8.589a.664.66 39.74 0 1-.9.08q-4.59-3.59-6.46-6.46a2.905 2.899-42.954 0 1 .123-3.357c5.284-6.899 13.528-16.465 20.27-24.635q6.021-7.292 14.579-18.175.713-.909 7.693-8.589a.664.66 39.74 0 1 .9-.08q4.59 3.59 6.46 6.46a2.905 2.899-42.954 0 1-.124 3.357c-5.283 6.899-13.527 16.465-20.271 24.634M350.47 1256.68q.27.4.67.13 25.44-16.78 47.24-31.92a.763.759-41.168 0 1 .93.06l6.7 6.1a1.584 1.57 44.753 0 1 .02 2.32q-2.61 2.42-3.29 2.87-27.68 18.16-52.63 35.12-1.94 1.31-3.82 2.11a1.17 1.162-37.074 0 1-1.18-.16l-7.74-6.21a2.648 2.641 21.545 0 1-.98-2.25q.18-2.53 1.74-7.47 14.99-47.78 18.34-57.76.2-.6 1.43-3.82a.411.404 25.496 0 1 .58-.2q4.12 2.39 8.25 4.95 2.61 1.62 1.39 4.77c-6.18 15.88-11.18 32.06-17.72 50.83q-.1.29.07.53M623.41 1245.97a.417.416 5.383 0 0-.63.52q1.44 2.67 3.04 4.95 18.96 27.02 24 35 1.33 2.11 2 4.01a1.148 1.141 63.744 0 1-.45 1.34q-2.81 1.84-5.03 3.31c-1.63 1.08-3.29.64-4.32-.87q-21.96-32.24-36.77-53.73-1.31-1.89-2.14-3.77a2.257 2.252 63.501 0 1 .96-2.88l10.76-6.01a2.463 2.458 45.869 0 1 2.46.04q2.9 1.73 4.52 3.05 15.64 12.77 38.19 30.53a.349.345 10.705 0 0 .55-.37l-15.98-51.96a2.051 2.044 64.064 0 1 .78-2.27c5.56-3.9 8.82-6.72 12.29-7.5a2.01 1.992 63.263 0 1 1.97.66q1.55 1.81 2.37 3.04 9.14 13.81 33.17 49.08 2.26 3.33 3.44 6.82a1.104 1.092 63.32 0 1-.41 1.26l-6.59 4.54a1.54 1.54 87.605 0 1-2.14-.4l-29.11-42.26a.497.494-70.874 0 0-.88.43q7.61 25.21 15.5 50.29 1.08 3.45-1.77 5.07-2.68 1.52-4.93 2.78a1.612 1.605-40.433 0 1-1.8-.14zM438.201 1247.951c18.104 12.231 18.487 32.882 6.925 49.997-11.563 17.115-30.864 24.467-48.968 12.237-18.104-12.231-18.487-32.881-6.924-49.997 11.562-17.115 30.864-24.467 48.967-12.237m-38.007 18.261c-6.344 8.466-10.071 19.548-3.63 28.666q5.586 7.912 15.04 9.075c9.485 1.172 17.129-4.808 22.669-12.2s9.135-16.408 5.348-25.182q-3.77-8.748-12.932-11.889c-10.56-3.622-20.15 3.065-26.495 11.53M587.47 1307.77a.436.429-21.363 0 0-.21.47q2.01 8.3 3.13 15.57.26 1.64.1 3.15a1.355 1.345-9.264 0 1-.79 1.09l-8.11 3.59a1.608 1.603 73.001 0 1-2.23-1.19q-4.26-23.8-7.3-42.82c-1.39-8.66-3.56-17.37-4.83-25.37q-.52-3.27-.49-5.88a.82.82-71.246 0 1 .42-.7l9.8-5.47a.937.934 46.115 0 1 .95.02q5.6 3.49 11.1 8.2 30.11 25.8 42.58 35.77 2.61 2.09 4.39 4.11a2.261 2.253-41.507 0 1-.2 3.19q-3.82 3.37-8.52 4.65a1.085 1.078-40.949 0 1-.74-.05q-2.19-.99-4.23-2.91-5.16-4.86-10.3-8.72a.56.555-40.98 0 0-.61-.04zm-2.281-12.486a.61.61 70.671 0 0 .91.389l16.201-9.734a.61.61 39.702 0 0 .083-.986l-22.804-19.604a.61.61-82.156 0 0-.993.597z"></path><path fill="#004c8a" fill-rule="evenodd" d="M434.273 1291.753c-5.54 7.392-13.184 13.372-22.669 12.2q-9.454-1.163-15.04-9.075c-6.441-9.118-2.714-20.2 3.63-28.666 6.345-8.465 15.935-15.152 26.495-11.53q9.162 3.141 12.932 11.889c3.787 8.774.191 17.79-5.348 25.182M585.189 1295.284l-6.603-29.338a.61.61-43.689 0 1 .993-.597l22.804 19.604a.61.61 84.592 0 1-.083.986l-16.201 9.734a.61.61-79.283 0 1-.91-.389" data-source="https://football-logos.cc"></path><!-- source: https://football-logos.cc --></svg>