<svg xmlns="http://www.w3.org/2000/svg" viewBox="67.88 0 888.14 986.17"><metadata xmlns:fl="https://football-logos.cc/paraguay/sportivo-san-lorenzo">dl1_d8708397cb093db32591859a3126fa0ae2c74f127064c74a1b1f46867b95f4da</metadata><!-- Source: https://football-logos.cc --><path fill="#e7060c" fill-rule="evenodd" d="M521.4 0q39.75 33.43 86.24 56.85c60.65 30.57 127.31 49.11 195.41 52.61 9.75.5 23.94.35 30.85.21q57.34-1.16 110.48-18.88a1.951 1.945 43.358 0 1 1.11-.03Q956 93.6 956 104.01q.09 330.9-.13 565.76-.02 18.34-1.94 30.67c-6.79 43.44-30.38 83.91-68.15 106.93q-8.6 5.23-30.61 14.62-18.34 7.82-36.63 15.67-54.96 23.56-75.31 32.3-104.93 45.06-111.49 47.78-21.32 8.84-46.09 19.96-9.17 4.11-28.37 15.09-14.06 8.04-28.83 19.19c-6 4.53-11.24 9.72-16.21 14.04a.621.612-43.866 0 1-.82-.01q-11.01-10.16-14.41-12.74c-21.97-16.72-45.58-29.99-70.74-40.94q-15.73-6.85-34.12-14.52-.8-.33-79.04-34.04-20.84-8.98-30.26-13.01-38.82-16.61-78.48-33.5-17.29-7.37-21.27-9.05-20.24-8.52-31.08-13.54-33.4-15.44-54.48-45.47-24.13-34.38-28.49-75.54-1.16-10.9-1.16-28.4-.02-475.85.01-555.26 0-9.5 1.36-12.3 2.59-5.33 9.08-7.05a1.951 1.945-43.358 0 1 1.11.03q50.92 16.86 105.06 18.79c47.37 1.68 94.52-4.25 139.97-17.05q51.22-14.43 96.84-38.14Q464.9 31.62 502.78 0zm409.49 120.28q-17.87 4.61-31.96 7.08-48.62 8.52-93.71 6.31-12.35-.61-12.62-.62-4.9-.15-12.65-.97-25.21-2.66-40.78-5.53-74.56-13.72-142.77-47.98-45.31-22.75-84.03-54.42a.679.672-45.333 0 0-.86.01c-29.03 24.1-61.73 44.34-95.76 60.3-94.64 44.4-202.78 62.56-305.6 39.87q-9.74-2.15-17.21-4.38a.265.262 8.3 0 0-.34.25q-.13 278.01.03 555.97l-.05 4.15q-.1 8.22 1.31 16.48 6.93 40.37 33.32 69.75 12.58 14 26.74 21.76 9.94 5.44 19.82 9.7 58.06 24.98 108.95 46.86 14.16 6.09 29.57 12.71 8.3 3.56 106.01 45.09 25.3 10.75 35.56 15.84c20.54 10.2 39.99 21.68 57.95 36.08a.4.4-78.191 0 0 .52 0c6.76-5.5 16.5-12.95 25.3-18.28q27.68-16.75 49.15-25.76c20.03-8.4 37.56-15.99 57.24-24.32q29.5-12.5 149.09-63.9 32.09-13.8 34.62-14.84 18.05-7.46 32.49-14.28c22.91-10.83 40.37-28.31 52.95-50.27q11.4-19.92 15.83-46.98 1.72-10.54 1.46-29.98-.19-15.07-.03-39.23.07-10.41.24-13.14.53-8.82.54-13.07c.23-129.42.1-286.22-.01-480.02a.248.242 82.089 0 0-.31-.24" data-source="https://football-logos.cc"></path><path fill="#fff" fill-rule="evenodd" d="M930.89 120.28a.248.242 82.089 0 1 .31.24c.11 193.8.24 350.6.01 480.02q-.01 4.25-.54 13.07-.17 2.73-.24 13.14-.16 24.16.03 39.23.26 19.44-1.46 29.98-4.43 27.06-15.83 46.98c-12.58 21.96-30.04 39.44-52.95 50.27q-14.44 6.82-32.49 14.28-2.53 1.04-34.62 14.84-119.59 51.4-149.09 63.9c-19.68 8.33-37.21 15.92-57.24 24.32q-21.47 9.01-49.15 25.76c-8.8 5.33-18.54 12.78-25.3 18.28a.4.4-5.261 0 1-.52 0c-17.96-14.4-37.41-25.88-57.95-36.08q-10.26-5.09-35.56-15.84-97.71-41.53-106.01-45.09-15.41-6.62-29.57-12.71-50.89-21.88-108.95-46.86-9.88-4.26-19.82-9.7-14.16-7.76-26.74-21.76-26.39-29.38-33.32-69.75-1.41-8.26-1.31-16.48l.05-4.15q-.16-277.96-.03-555.97a.265.262 8.3 0 1 .34-.25q7.47 2.23 17.21 4.38c102.82 22.69 210.96 4.53 305.6-39.87 34.03-15.96 66.73-36.2 95.76-60.3a.679.672-45.333 0 1 .86-.01q38.72 31.67 84.03 54.42 68.21 34.26 142.77 47.98 15.57 2.87 40.78 5.53 7.75.82 12.65.97.27.01 12.62.62 45.09 2.21 93.71-6.31 14.09-2.47 31.96-7.08M734.6 416.15q-4.74-11.42-7.52-17.76-13.96-31.84-36.92-57.9a3.958 3.899 24.586 0 1-.99-2.6V139.64a.652.64-81.523 0 0-.45-.62l-50.01-16.06a.442.442 9.074 0 0-.58.42V294.4a.313.308-74.408 0 1-.47.27q-22.3-13.7-46.97-22.47a1.189 1.186-80.264 0 1-.79-1.12V101.76a1.218 1.213 13.676 0 0-.66-1.08Q576.48 93.92 566 88.22c-10.28-5.6-21.27-12.85-27.97-17.52a.432.425-72.758 0 0-.67.36v187.91a.858.854 2.747 0 1-.94.85q-25.4-2.52-49.46.15a.688.684-3.021 0 1-.76-.68V71.22a.457.45 72.691 0 0-.71-.38q-14.9 10.43-30.16 18.72-11.78 6.41-20.8 11.14a1.484 1.473-14.253 0 0-.78 1.3v169.44a.836.828-10.085 0 1-.55.78q-25.11 8.98-47.51 22.98a.412.41 73.885 0 1-.63-.35V123.89a.682.679 81.015 0 0-.89-.65l-48.56 15.51a1.035 1.027-8.929 0 0-.72.98v198.23a4.956 4.922 65.031 0 1-1.14 3.16c-5.67 6.87-12.08 14.43-17.1 21.93q-17.33 25.86-27.59 54.1a.33.329-35.151 0 1-.64-.11V150.87a.479.475-3.724 0 0-.54-.47q-2.48.31-9.16 1.51-20.95 3.74-39.5 5.79a.313.312-3.075 0 0-.28.31v642.73a.83.818 12.261 0 0 .49.75l48.28 20.93a.485.482 11.958 0 0 .68-.44V553.81a.278.277-54.337 0 1 .54-.09q9.44 28.26 25.37 53.01 7.39 11.48 20.34 26.9a1.372 1.359-65.27 0 1 .32.88v207.01a1.711 1.703 11.958 0 0 1.02 1.56l48.09 20.85a.578.576-78.07 0 0 .81-.53V677.59a.275.273 16.023 0 1 .42-.23q9.08 5.59 19.66 11.11c9.16 4.78 17.36 7.92 28.22 12.24a.875.871 10.947 0 1 .55.81v180.9a3.101 3.089-78.515 0 0 1.88 2.85q15.76 6.74 30.05 13.85 9.99 4.97 19.61 11.06a.587.583 16.265 0 0 .9-.49v-196.5a.485.482 2.707 0 1 .53-.48q25.03 2.53 50.01.02a.597.594-3.044 0 1 .66.59V909.6a.573.569 74.191 0 0 .87.49c12.64-7.69 26.08-14.73 39.84-20.48q7.62-3.19 11.04-5.34a1.753 1.741 74.321 0 0 .83-1.49V701.12a.31.298 80.731 0 1 .2-.29q24.94-9.08 47.44-22.81a.38.378-15.983 0 1 .58.32v185.11a.653.649 78.211 0 0 .91.6l49.13-21.07a.633.62 78.806 0 0 .38-.58V634.35a1.366 1.337-25.418 0 1 .32-.87q30.45-35.05 45.41-78.76a.154.154 54.437 0 1 .3.05v267.34a.53.525 78.601 0 0 .73.49l48.62-20.86a.706.7 78.741 0 0 .43-.65V158.48a.638.633-85.818 0 0-.54-.63l-48.33-7.3a.546.545-85.505 0 0-.63.54v265a.156.156-56.237 0 1-.3.06M143.14 153.97a.393.388-86.169 0 0-.44.39q-.02 287.67.02 593.64 0 4.07.5 6.41a3.663 3.486 22.81 0 0 .59 1.35c2.72 3.89 8.45 6.93 12.93 9.22q16.88 8.6 34.38 15.62a.634.628 11.053 0 0 .87-.58V159.2a.63.63-45 0 0-.63-.63q-16.5-.13-33.62-2.55-3.87-.55-14.6-2.05m736.944.024q-10.736 1.501-14.609 2.051-17.131 2.421-33.642 2.551a.63.63 45.068 0 0-.63.631l-.014 621.218a.634.629-11.052 0 0 .871.581q17.511-7.024 34.402-15.629c4.483-2.292 10.217-5.334 12.939-9.226a3.666 3.489-22.809 0 0 .59-1.351q.501-2.341.501-6.414.046-306.167.033-594.021a.393.388 86.17 0 0-.441-.391"></path><path fill="#e7060c" fill-rule="evenodd" d="M734.9 416.09v-265a.546.545-85.505 0 1 .63-.54l48.33 7.3a.638.633-85.818 0 1 .54.63v642.61a.706.7 78.741 0 1-.43.65l-48.62 20.86a.53.525 78.601 0 1-.73-.49V554.77a.154.154 54.437 0 0-.3-.05q-14.96 43.71-45.41 78.76a1.366 1.337-25.418 0 0-.32.87V842.4a.633.62 78.806 0 1-.38.58l-49.13 21.07a.653.649 78.211 0 1-.91-.6V678.34a.38.378-15.983 0 0-.58-.32q-22.5 13.73-47.44 22.81a.31.298 80.731 0 0-.2.29v181.66a1.753 1.741 74.321 0 1-.83 1.49q-3.42 2.15-11.04 5.34c-13.76 5.75-27.2 12.79-39.84 20.48a.573.569 74.191 0 1-.87-.49V713.32a.597.594-3.044 0 0-.66-.59q-24.98 2.51-50.01-.02a.485.482 2.707 0 0-.53.48v196.5a.587.583 16.265 0 1-.9.49q-9.62-6.09-19.61-11.06-14.29-7.11-30.05-13.85a3.101 3.089-78.515 0 1-1.88-2.85v-180.9a.875.871 10.947 0 0-.55-.81c-10.86-4.32-19.06-7.46-28.22-12.24q-10.58-5.52-19.66-11.11a.275.273 16.023 0 0-.42.23V863.4a.578.576-78.07 0 1-.81.53l-48.09-20.85a1.711 1.703 11.958 0 1-1.02-1.56V634.51a1.372 1.359-65.27 0 0-.32-.88q-12.95-15.42-20.34-26.9-15.93-24.75-25.37-53.01a.278.277-54.337 0 0-.54.09v268.17a.485.482 11.958 0 1-.68.44l-48.28-20.93a.83.818 12.261 0 1-.49-.75V158.01a.313.312-3.075 0 1 .28-.31q18.55-2.05 39.5-5.79 6.68-1.2 9.16-1.51a.479.475-3.724 0 1 .54.47v266.17a.33.329-35.151 0 0 .64.11q10.26-28.24 27.59-54.1c5.02-7.5 11.43-15.06 17.1-21.93a4.956 4.922 65.031 0 0 1.14-3.16V139.73a1.035 1.027-8.929 0 1 .72-.98l48.56-15.51a.682.679 81.015 0 1 .89.65v170.96a.412.41 73.885 0 0 .63.35q22.4-14 47.51-22.98a.836.828-10.085 0 0 .55-.78V102a1.484 1.473-14.253 0 1 .78-1.3q9.02-4.73 20.8-11.14 15.26-8.29 30.16-18.72a.457.45 72.691 0 1 .71.38v188.07a.688.684-3.021 0 0 .76.68q24.06-2.67 49.46-.15a.858.854 2.747 0 0 .94-.85V71.06a.432.425-72.758 0 1 .67-.36c6.7 4.67 17.69 11.92 27.97 17.52q10.48 5.7 23.24 12.46a1.218 1.213 13.676 0 1 .66 1.08v169.32a1.189 1.186-80.264 0 0 .79 1.12q24.67 8.77 46.97 22.47a.313.308-74.408 0 0 .47-.27V123.38a.442.442 9.074 0 1 .58-.42l50.01 16.06a.652.64-81.523 0 1 .45.62v198.25a3.958 3.899 24.586 0 0 .99 2.6q22.96 26.06 36.92 57.9 2.78 6.34 7.52 17.76a.156.156-56.237 0 0 .3-.06m-429.165 71.406c.385 71.562 41.37 136.616 102.562 171.68 31.828 18.238 67.959 27.873 104.815 27.674s72.88-10.223 104.51-28.803c60.81-35.721 101.091-101.213 100.705-172.775s-41.37-136.615-102.562-171.679c-31.828-18.238-67.959-27.873-104.814-27.674-36.856.198-72.881 10.222-104.51 28.802-60.811 35.722-101.092 101.213-100.706 172.775M143.14 153.97q10.73 1.5 14.6 2.05 17.12 2.42 33.62 2.55a.63.63-45 0 1 .63.63v620.82a.634.628 11.053 0 1-.87.58q-17.5-7.02-34.38-15.62c-4.48-2.29-10.21-5.33-12.93-9.22a3.663 3.486 22.81 0 1-.59-1.35q-.5-2.34-.5-6.41-.04-305.97-.02-593.64a.393.388-86.169 0 1 .44-.39M880.084 153.994a.393.388 86.17 0 1 .441.391q.013 287.854-.033 594.021 0 4.073-.501 6.414a3.666 3.489-22.809 0 1-.59 1.351c-2.722 3.892-8.456 6.934-12.939 9.226q-16.891 8.605-34.402 15.629a.634.629-11.052 0 1-.871-.581l.014-621.218a.63.63 45.008 0 1 .63-.631q16.511-.13 33.642-2.551 3.873-.55 14.609-2.051" data-source="https://football-logos.cc"></path><path fill="#fff" fill-rule="evenodd" d="M510.951 285.919c36.855-.199 72.986 9.436 104.814 27.674 61.192 35.064 102.177 100.117 102.562 171.679.386 71.562-39.895 137.054-100.705 172.775-31.63 18.58-67.655 28.604-104.51 28.803s-72.987-9.436-104.815-27.674c-61.192-35.064-102.177-100.118-102.562-171.68-.386-71.562 39.895-137.053 100.706-172.775 31.629-18.58 67.654-28.604 104.51-28.802M433.69 494.08q-.09 11.18.05 31.29c.08 11.13 2.09 23.1 12.59 29.31q8.99 5.32 19.69 6.08c15.32 1.1 38.08.01 45.26-16.78q2.74-6.41 3.07-15.01.19-4.98.29-17.28c.13-15.29-3.26-27.34-14.06-37.53q-14.13-13.33-22.14-20.35c-6.48-5.68-11.89-11.69-11.99-20.81q-.1-9.16.08-13.23.35-7.97 8.22-7.52c4.69.27 5.49 3.96 5.56 8.05q.05 3.62.09 27.03a.8.79 89.633 0 0 .79.79h30.76a.96.96-89.39 0 0 .96-.94q.14-6.92-.04-29.63c-.07-8.15-2.11-16.95-9.29-22.1-11.15-8.01-27.84-8.48-41.18-6.59-4.91.69-10.05 2.36-14.19 4.37-16.91 8.24-15.67 31.37-14.91 46.93.58 12.07 4.74 21.2 13.69 29.07q5.67 4.98 20.7 19.04c3.29 3.08 6.43 6.53 8.53 9.32q4.59 6.11 4.78 14.41.28 12.05-.2 17.99c-.33 4.16-3.87 6.57-8.07 6.32q-6.87-.41-6.84-8.56.07-14.94.05-33.78a.61.6 90 0 0-.6-.61h-30.93a.72.72 45 0 0-.72.72m-40.24-44.55 30.57.03a.34.34-89.132 0 0 .34-.33q.23-14.55.04-31.23c-.29-24.92-21.07-30.61-41.4-29.72-17.33.76-34.26 8.64-35.94 27.76q-.38 4.31-.31 12.96.06 9.15-.1 92.26-.03 14.18 1.58 18.86 4.93 14.37 20.44 18.72 14.72 4.13 32.91.52c4.04-.8 8.1-2.82 11.41-4.88 8.84-5.51 11.39-15.59 11.52-25.73q.24-19.39-.03-34.77a.63.63 89.538 0 0-.63-.62h-30.59a.44.44 87.522 0 0-.44.44q.07 19.29-.1 35.91-.06 6.37-5.87 6.89c-6.11.55-7-4.66-6.98-9.44q.13-44.83 0-107.67c-.02-8.89 12.92-11.03 12.94-.41q.05 29.51.02 29.73a.627.626 4.333 0 0 .62.72m128.78 44.71q-.45 28.35-.03 34.86c.56 8.58 1.91 16.09 8.16 22.25 4.67 4.59 11.87 7.41 19.21 8.69q8.88 1.54 21.93.52 10.69-.84 19.34-6.26c13.8-8.65 12.39-26.89 12.38-41.52q-.01-5.52-.65-10.47c-.97-7.54-2.2-14.15-5.94-19.2q-6.51-8.78-16.32-17.41-11.71-10.29-18.99-18.14c-7.37-7.94-6.22-15.83-5.8-27.54q.23-6.35 5.36-7.66 2.95-.75 5.31.55c3.52 1.93 3.01 8.29 3.03 12.43q.04 8.43.11 22.16a.68.68-10.378 0 0 .68.68h30.77a.47.47-89.377 0 0 .47-.46q.3-15.36.12-31.15-.05-4.54-1.6-10.09c-5.82-20.83-38.76-20.09-54.56-16.33-6.23 1.48-14.12 5.51-17.74 11.37-6.99 11.35-6 25.51-5.64 38.46q.4 14.11 8.54 24.45 1.9 2.42 13.48 12.6 6.82 6 13.51 12.36c6.8 6.47 12.27 12.78 12.53 22.46q.15 5.6.13 13.31c-.02 5.92-.68 10.96-7.35 11.19-7.67.25-8.14-5.84-8.06-11.68q.08-6.5.23-30.41a.84.83.337 0 0-.84-.84h-30.94a.83.83-89.651 0 0-.83.82m156.1 64.44a.61.61 5.847 0 0 .61-.61v-23.9a.61.61-8.151 0 0-.61-.61h-32.39a.61.61-54.474 0 1-.61-.61V390.77a.61.61 90 0 0-.61-.61h-31.45a.61.61-86.507 0 0-.61.61v167.3a.61.61-2.428 0 0 .61.61z"></path><path fill-rule="evenodd" d="M434.41 493.36h30.93a.61.6 90 0 1 .6.61q.02 18.84-.05 33.78-.03 8.15 6.84 8.56c4.2.25 7.74-2.16 8.07-6.32q.48-5.94.2-17.99-.19-8.3-4.78-14.41c-2.1-2.79-5.24-6.24-8.53-9.32q-15.03-14.06-20.7-19.04c-8.95-7.87-13.11-17-13.69-29.07-.76-15.56-2-38.69 14.91-46.93 4.14-2.01 9.28-3.68 14.19-4.37 13.34-1.89 30.03-1.42 41.18 6.59 7.18 5.15 9.22 13.95 9.29 22.1q.18 22.71.04 29.63a.96.96-89.39 0 1-.96.94h-30.76a.8.79 89.633 0 1-.79-.79q-.04-23.41-.09-27.03c-.07-4.09-.87-7.78-5.56-8.05q-7.87-.45-8.22 7.52-.18 4.07-.08 13.23c.1 9.12 5.51 15.13 11.99 20.81q8.01 7.02 22.14 20.35c10.8 10.19 14.19 22.24 14.06 37.53q-.1 12.3-.29 17.28-.33 8.6-3.07 15.01c-7.18 16.79-29.94 17.88-45.26 16.78q-10.7-.76-19.69-6.08c-10.5-6.21-12.51-18.18-12.59-29.31q-.14-20.11-.05-31.29a.72.72-45 0 1 .72-.72M392.83 448.81q.03-.22-.02-29.73c-.02-10.62-12.96-8.48-12.94.41q.13 62.84 0 107.67c-.02 4.78.87 9.99 6.98 9.44q5.81-.52 5.87-6.89.17-16.62.1-35.91a.44.44-54.474 0 1 .44-.44h30.59a.63.63 89.538 0 1 .63.62q.27 15.38.03 34.77c-.13 10.14-2.68 20.22-11.52 25.73-3.31 2.06-7.37 4.08-11.41 4.88q-18.19 3.61-32.91-.52-15.51-4.35-20.44-18.72-1.61-4.68-1.58-18.86.16-83.11.1-92.26-.07-8.65.31-12.96c1.68-19.12 18.61-27 35.94-27.76 20.33-.89 41.11 4.8 41.4 29.72q.19 16.68-.04 31.23a.34.34-89.132 0 1-.34.33l-30.57-.03a.627.626 4.333 0 1-.62-.72M523.06 493.42H554a.84.83.337 0 1 .84.84q-.15 23.91-.23 30.41c-.08 5.84.39 11.93 8.06 11.68 6.67-.23 7.33-5.27 7.35-11.19q.02-7.71-.13-13.31c-.26-9.68-5.73-15.99-12.53-22.46q-6.69-6.36-13.51-12.36-11.58-10.18-13.48-12.6-8.14-10.34-8.54-24.45c-.36-12.95-1.35-27.11 5.64-38.46 3.62-5.86 11.51-9.89 17.74-11.37 15.8-3.76 48.74-4.5 54.56 16.33q1.55 5.55 1.6 10.09.18 15.79-.12 31.15a.47.47-89.377 0 1-.47.46h-30.77a.68.68 38.18 0 1-.68-.68q-.07-13.73-.11-22.16c-.02-4.14.49-10.5-3.03-12.43q-2.36-1.3-5.31-.55-5.13 1.31-5.36 7.66c-.42 11.71-1.57 19.6 5.8 27.54q7.28 7.85 18.99 18.14 9.81 8.63 16.32 17.41c3.74 5.05 4.97 11.66 5.94 19.2q.64 4.95.65 10.47c.01 14.63 1.42 32.87-12.38 41.52q-8.65 5.42-19.34 6.26-13.05 1.02-21.93-.52c-7.34-1.28-14.54-4.1-19.21-8.69-6.25-6.16-7.6-13.67-8.16-22.25q-.42-6.51.03-34.86a.83.83-89.651 0 1 .83-.82M678.33 558.68h-65.06a.61.61 35.529 0 1-.61-.61v-167.3a.61.61-51.112 0 1 .61-.61h31.45a.61.61-90 0 1 .61.61v142.18a.61.61 87.542 0 0 .61.61h32.39a.61.61 25.185 0 1 .61.61v23.9a.61.61 29.814 0 1-.61.61" data-source="https://football-logos.cc"></path><!-- source: https://football-logos.cc --></svg>