<svg xmlns="http://www.w3.org/2000/svg" viewBox="124.15 -0.39 520.4 768.39"><metadata xmlns:fl="https://football-logos.cc/venezuela/universidad-central">dl1_cad7eda22a600ca0c5d5d4fdf1db4fe3a97f8c7cd4971456342c0df72f3ff415</metadata><!-- Source: https://football-logos.cc --><path fill-rule="evenodd" d="m488.85 0 21.93 58.9a.748.745 79.874 0 0 .7.49h64.38a.254.249-63.973 0 1 .15.45l-51.59 41.12a.456.455 61.643 0 0-.14.47l18.13 61.37a.279.277-81.288 0 1-.42.31l-53.29-35.63a.85.85 42.224 0 0-.94 0l-53.65 35.64a.21.21 80.591 0 1-.32-.23l17.66-60.61a.985.972 28.322 0 0-.31-1.01L401.52 59.9a.289.286 64.728 0 1 .18-.51h63.49a.82.81-79.538 0 0 .76-.53L488.12 0zm44.42 150.408-15.018-50.774a.612.609 62.556 0 1 .21-.67l42.48-33.878a.246.245-63.962 0 0-.15-.44l-53.252-.004a.417.413-10.081 0 1-.39-.27l-18.476-49.705a.245.245 31.791 0 0-.46 0L469.48 64.379a.408.405 10.467 0 1-.379.26l-52.962-.004a.25.249 65.064 0 0-.16.439l41.325 34.455a.694.69 28.709 0 1 .21.71l-14.596 50.112a.268.264 81.453 0 0 .4.3L487.986 121a.46.46 75.048 0 1 .5 0l44.414 29.678a.244.242 8.554 0 0 .37-.27M256.401 59.176 278.769-.175a.33.33 80.204 0 1 .618.002l22.043 59.348a.33.33-17.904 0 0 .309.215h64.488a.33.33-25.983 0 1 .205.588l-51.468 41.034a.33.33 81.569 0 0-.111.351l18.109 61.302a.33.33-47.933 0 1-.5.368l-53.449-35.741a.33.33 44.534 0 0-.366 0l-53.665 35.649a.33.33-63.42 0 1-.5-.368l17.678-60.696a.33.33 8.965 0 0-.106-.345L192.2 59.973a.33.33 14.474 0 1 .211-.583h63.681a.33.33 2.115 0 0 .309-.214m22.251 61.792a.32.32 80.749 0 1 .355 0l44.328 29.631a.32.32-.349 0 0 .484-.357l-15.008-50.815a.32.32-70.287 0 1 .107-.341L351.425 65.2a.32.32 10.657 0 0-.2-.57h-53.162a.32.32 86.358 0 1-.3-.209l-18.425-49.619a.32.32 28.106 0 0-.6-.002l-18.71 49.623a.32.32 61.369 0 1-.299.207h-52.846a.32.32-84.151 0 0-.205.566l41.371 34.5a.32.32 18.591 0 1 .102.335l-14.626 50.239a.32.32-20.604 0 0 .484.356z" data-source="https://football-logos.cc"></path><path fill="#f0c015" fill-rule="evenodd" d="m278.652 120.968-44.643 29.658a.32.32 26.76 0 1-.484-.356l14.626-50.239a.32.32 14.538 0 0-.102-.335l-41.371-34.5a.32.32 83.123 0 1 .205-.566h52.846a.32.32-75.941 0 0 .299-.207l18.71-49.623a.32.32 80.508 0 1 .6.002l18.425 49.619a.32.32 89.681 0 0 .3.209h53.162a.32.32 60.882 0 1 .2.57l-42.507 33.886a.32.32-67.709 0 0-.107.341l15.008 50.815a.32.32 45.661 0 1-.484.357l-44.328-29.631a.32.32 42.715 0 0-.355 0M533.27 150.408a.244.242 8.554 0 1-.37.27L488.486 121a.46.46 43.52 0 0-.5 0l-44.668 29.651a.268.264 81.453 0 1-.4-.3l14.596-50.112a.694.69 28.709 0 0-.21-.71l-41.325-34.455a.25.249 65.064 0 1 .16-.439l52.962.004a.408.405 10.467 0 0 .379-.26l18.734-49.712a.245.245 77.477 0 1 .46 0l18.476 49.705a.417.413-10.081 0 0 .39.27l53.252.004a.246.245-63.962 0 1 .15.44l-42.48 33.878a.612.609 62.556 0 0-.21.67z"></path><path fill-rule="evenodd" d="M387.18 768h-5.55q-96.68-43.11-162.41-126.47-36.26-46-58.71-98.28-2.75-6.41-6.53-17.32a2.948 2.79-55.517 0 1-.14-.89V397.15a.648.641-73.562 0 0-.29-.54l-17.84-11.92a1.131 1.112 12.513 0 1-.48-.74l-11.06-66.21a1.287 1.283 62.399 0 1 .34-1.09q13.11-13.42 28.87-25.89a1.137 1.132 70.908 0 0 .43-.89v-22.65a2.176 2.165 68.258 0 1 .67-1.57c56.51-53.4 131.07-83.14 208.03-90.83q22.01-2.2 43.23-.07c77.32 7.77 152.45 37.42 208.69 91.13a1.493 1.471 22.147 0 1 .46 1.07v22.85a1.137 1.132-70.908 0 0 .43.89q15.48 12.22 28.88 25.89a1.23 1.216-63.109 0 1 .34 1.06l-11.05 66.25a1.159 1.154 77.783 0 1-.5.78l-17.71 11.77a.785.779 73.833 0 0-.36.66v127.97a2.809 2.678-36.505 0 1-.16.92q-5.33 15.16-9.9 25.06C560.26 647.64 484.6 724.82 387.18 768m-2.804-565.235c80.453 0 158.006 32.2 221.33 80.447a.302.301-71.427 0 0 .484-.242v-12.34a1.26 1.244-68.863 0 0-.4-.92c-49.03-45.4-111.27-72.45-177.29-83.194-14.67-2.388-29.814-4.239-44.124-4.239-14.31.001-29.454 1.852-44.123 4.24-66.02 10.744-128.26 37.795-177.289 83.196a1.26 1.244 68.862 0 0-.4.92v12.34a.302.301 71.426 0 0 .484.242c63.323-48.248 140.876-80.449 221.328-80.45m.003 70.016 6.371-.002q25.89-.019 49.77 4.411c71.13 13.17 135.92 48.52 189.1 97.27a.375.374-64.436 0 0 .62-.22l9.18-55.04a.994.967-63.426 0 0-.27-.85q-16-16.04-39.407-33.556c-61.887-46.301-137.535-77.31-215.364-77.311-77.828 0-153.477 31.008-215.365 77.308q-23.407 17.515-39.407 33.555a.994.967 63.427 0 0-.27.85l9.179 55.04a.375.374 64.437 0 0 .62.22c53.181-48.749 117.971-84.098 189.102-97.267q23.88-4.429 49.77-4.41zm-.025 486.739q.109 0 .138-.013C470.72 721.37 538.96 655.86 584.59 572.34q11.83-21.66 21.29-47.28a5.551 5.417-35.688 0 0 .33-1.87V361.12a.636.613 20.45 0 0-.23-.48q-45.49-37.01-98.89-58.95c-38.58-15.85-80.94-25.24-122.541-24.068l-.138.002-.137-.002c-41.601-1.182-83.963 8.198-122.547 24.039q-53.405 21.927-98.904 58.926a.636.613-20.436 0 0-.23.48l-.039 162.07a5.551 5.417 35.702 0 0 .33 1.87q9.454 25.623 21.279 47.285c45.61 83.531 113.834 149.057 200.054 187.215q.029.013.137.013M138.991 381.003a.32.32 42.007 0 0 .027.5l14.316 10.197a.32.32-86.327 0 0 .506-.261v-22.888a.32.32 52.969 0 0-.532-.239zm490.69.554a.38.38-84.212 0 0 .033-.594l-14.172-12.601a.38.38 67.871 0 0-.632.284v22.687a.38.38 68.79 0 0 .6.31z"></path><path fill="#fff" fill-rule="evenodd" d="M384.376 182.277c14.31 0 29.454 1.851 44.124 4.239 66.02 10.744 128.26 37.794 177.29 83.194a1.26 1.244-68.863 0 1 .4.92v12.34a.302.301-71.427 0 1-.484.242c-63.324-48.247-140.877-80.447-221.33-80.447-80.452.001-158.005 32.202-221.328 80.45a.302.301 71.426 0 1-.484-.242v-12.34a1.26 1.244 68.862 0 1 .4-.92c49.029-45.401 111.269-72.452 177.289-83.196 14.669-2.388 29.813-4.239 44.123-4.24"></path><path fill="#f0c015" fill-rule="evenodd" d="M384.379 207.483c77.829.001 153.477 31.01 215.364 77.311q23.407 17.516 39.407 33.556a.994.967-63.426 0 1 .27.85l-9.18 55.04a.375.374-64.436 0 1-.62.22c-53.18-48.75-117.97-84.1-189.1-97.27q-23.88-4.43-49.77-4.411l-6.371.002-6.371-.002q-25.89-.019-49.77 4.41c-71.131 13.169-135.921 48.518-189.102 97.267a.375.374 64.437 0 1-.62-.22l-9.179-55.04a.994.967 63.427 0 1 .27-.85q16-16.04 39.407-33.555c61.888-46.3 137.537-77.308 215.365-77.308m.65 33.164q-.177.003-3.122-23.216a.862.853 86.274 0 0-.847-.751h-8.56a.609.605 86.622 0 0-.6.68l6.38 49.79a.777.776-3.411 0 0 .758.671q2.591.026 6.44-.037 3.848-.064 6.437-.176a.777.776 1.517 0 0 .735-.695l4.731-49.974a.609.605-88.516 0 0-.622-.66l-8.555.283a.862.853-88.167 0 0-.822.779q-2.176 23.304-2.353 23.306m43.368-22.286a.41.41-83.23 0 0-.458.356l-6.268 50.036a.41.41-84.008 0 0 .356.458l9.536 1.198a.41.41 5.742 0 0 .458-.356l2.498-19.996a.41.41 39.73 0 1 .458-.356l10.626 1.338a.41.41-77.449 0 0 .458-.356l1.258-10.056a.41.41-28.207 0 0-.356-.458l-10.626-1.328a.41.41 40.238 0 1-.356-.458l.948-7.576a.41.41 43.111 0 1 .458-.356l10.616 1.328a.41.41-60.515 0 0 .458-.356l1.248-9.976a.41.41 69.382 0 0-.356-.458zm-90.273 35.472a1.165 1.161-6.567 0 0-1.046 1.314l.741 5.501a.56.56 45 0 1-.474.631l-.38.05a.444.434-6.847 0 1-.494-.379l-4.321-31.975a.52.51-7.898 0 1 .443-.575l.412-.053a.507.507 13.353 0 1 .571.435l.853 6.343a.694.694-20.365 0 0 .78.596l9.038-1.228a.34.34 71.28 0 0 .295-.383l-1.617-11.976a1.732 1.716 27.328 0 0-.188-.582q-1.522-2.64-4.015-2.404-2.104.205-11.363 1.449c-3.83.511-6.388 1.316-5.795 5.654q5.19 38.225 5.296 39.417c.358 3.775 1.412 6.436 5.518 5.885l12.747-1.743c2.953-.406 3.91-2.767 3.479-5.546q-1.505-9.649-1.394-10.139a.842.839 4.16 0 0-.898-1.036zm-46.503 16.154q-.636.173-.781-.353-4.11-14.864-10.47-38.514a.57.568 74.968 0 0-.69-.4l-8.88 2.42a.468.459 74.91 0 0-.32.57q8.93 32.71 11.71 43.03c.88 3.27 1.9 5.35 5.54 4.74q.346-.057 6.547-1.747 6.2-1.689 6.528-1.815c3.446-1.321 3.27-3.631 2.369-6.896q-2.839-10.303-11.736-43.022a.468.459 74.608 0 0-.565-.329l-8.88 2.419a.57.568 74.549 0 0-.392.695q6.516 23.607 10.514 38.502.142.526-.494.7m190.559-5.927a1.165 1.161 16.045 0 0-1.47.81l-1.43 5.36a.56.56 63.256 0 1-.68.4l-.37-.1a.444.434 15.765 0 1-.31-.54l8.3-31.16a.519.509 14.714 0 1 .63-.36l.4.11a.507.507 44.497 0 1 .36.62l-1.65 6.18a.694.694-3.305 0 0 .49.85l8.81 2.34a.34.34-73.997 0 0 .42-.24l3.11-11.67a1.731 1.715 49.94 0 0 .05-.61q-.39-3.02-2.78-3.76-2.02-.62-11.04-3.03c-3.73-1-6.4-1.24-7.52 2.99q-9.9 37.26-10.26 38.4c-1.12 3.62-1.17 6.48 2.83 7.55l12.43 3.29c2.88.76 4.67-1.05 5.34-3.78q2.32-9.48 2.61-9.89a.841.839 26.772 0 0-.43-1.3z"></path><path fill-rule="evenodd" d="M385.478 267.784q-3.849.063-6.44.037a.777.776-3.411 0 1-.758-.671l-6.38-49.79a.609.605 86.622 0 1 .6-.68h8.56a.862.853 86.274 0 1 .847.751q2.945 23.219 3.122 23.216.177-.002 2.353-23.306a.862.853-88.167 0 1 .822-.779l8.555-.283a.609.605-88.516 0 1 .622.66l-4.731 49.974a.777.776 1.517 0 1-.735.695q-2.589.112-6.437.176m-.073-4.169q-.185.003-.219-.258-2.106-16.377-5.576-43.857a.254.252 86.081 0 0-.25-.22h-4.32a.262.255-3.83 0 0-.26.29l5.78 45.1a.656.649-2.341 0 0 .62.565q2.038.079 4.252.042 2.214-.036 4.248-.181a.656.649.464 0 0 .601-.585l4.3-45.265a.262.255 1.953 0 0-.27-.282l-4.317.142a.254.252-87.959 0 0-.243.228q-2.568 27.579-4.137 44.016-.025.262-.209.265M428.397 218.361l20.956 2.628a.41.41-81.336 0 1 .356.458l-1.248 9.976a.41.41-42.412 0 1-.458.356l-10.616-1.328a.41.41 5.726 0 0-.458.356l-.948 7.576a.41.41-6.341 0 0 .356.458l10.626 1.328a.41.41-37.059 0 1 .356.458l-1.258 10.056a.41.41-51.284 0 1-.458.356l-10.626-1.338a.41.41 32.493 0 0-.458.356l-2.498 19.996a.41.41 40.703 0 1-.458.356l-9.536-1.198a.41.41-49.141 0 1-.356-.458l6.268-50.036a.41.41-66.177 0 1 .458-.356m15.973 24.556a.4.4 80.406 0 0-.347-.447l-10.646-1.34a.4.4 38.344 0 1-.347-.447l1.61-12.856a.4.4 44.677 0 1 .447-.347l10.646 1.33a.4.4 39.652 0 0 .447-.347l.59-4.706a.4.4-24.972 0 0-.347-.447l-15.756-1.98a.4.4 11.843 0 0-.447.347l-5.6 44.766a.4.4 89.954 0 0 .347.447l4.306.54a.4.4 83.525 0 0 .447-.347l2.5-19.996a.4.4-48.659 0 1 .447-.347l10.656 1.33a.4.4-83.782 0 0 .447-.347z"></path><path fill="#fff" fill-rule="evenodd" d="M385.432 265.277q-2.214.037-4.252-.042a.656.649-2.341 0 1-.62-.565l-5.78-45.1a.262.255-3.83 0 1 .26-.29h4.32a.254.252 86.081 0 1 .25.22q3.47 27.48 5.576 43.857.034.261.219.258.184-.003.209-.265 1.569-16.437 4.137-44.016a.254.252-87.959 0 1 .243-.228l4.317-.142a.262.255 1.953 0 1 .27.282l-4.3 45.265a.656.649.464 0 1-.601.585q-2.034.145-4.248.181"></path><path fill-rule="evenodd" d="m338.124 253.833 8.188-.744a.842.839 4.16 0 1 .898 1.036q-.111.49 1.394 10.139c.431 2.779-.526 5.14-3.479 5.546l-12.747 1.743c-4.106.551-5.16-2.11-5.518-5.885q-.106-1.192-5.296-39.417c-.593-4.338 1.965-5.143 5.795-5.654q9.259-1.244 11.363-1.449 2.493-.236 4.015 2.404a1.732 1.716 27.328 0 1 .188.582l1.617 11.976a.34.34 83.236 0 1-.295.383l-9.038 1.228a.694.694 34.953 0 1-.78-.596l-.853-6.343a.507.507-1.185 0 0-.571-.435l-.412.053a.52.51-7.898 0 0-.443.575l4.321 31.975a.444.434-6.847 0 0 .494.379l.38-.05a.56.56 0 0 0 .474-.631l-.741-5.501a1.165 1.161-6.567 0 1 1.046-1.314m3.444-22.127-1.193-8.644a1.489 1.487-7.898 0 0-1.673-1.264l-13.356 1.789a1.43 1.43-70.284 0 0-1.228 1.605l5.724 42.54a1.438 1.436-7.777 0 0 1.614 1.224l13.436-1.779a1.378 1.375-7.754 0 0 1.183-1.554l-1.278-9.215a.527.526 83.27 0 0-.565-.447l-3.78.338a.493.488-6.641 0 0-.442.552l.829 6.132a.517.517 20.21 0 1-.439.583l-5.542.736a.602.599 82.128 0 1-.681-.518l-4.972-36.908a.725.725-70.082 0 1 .626-.812l5.297-.699a.643.64 82.085 0 1 .728.552l.839 6.311a.559.557 83.425 0 0 .599.477l3.783-.383a.554.551-6.576 0 0 .491-.616"></path><path fill="#fff" fill-rule="evenodd" d="m444.37 242.917-.6 4.806a.4.4-47.392 0 1-.447.347l-10.656-1.33a.4.4 89.582 0 0-.447.347l-2.5 19.996a.4.4-46.57 0 1-.447.347l-4.306-.54a.4.4-45.196 0 1-.347-.447l5.6-44.766a.4.4 42.205 0 1 .447-.347l15.756 1.98a.4.4 44.487 0 1 .347.447l-.59 4.706a.4.4-19.47 0 1-.447.347l-10.646-1.33a.4.4 25.006 0 0-.447.347l-1.61 12.856a.4.4-8.01 0 0 .347.447l10.646 1.34a.4.4-46.386 0 1 .347.447M341.568 231.706a.554.551-6.576 0 1-.491.616l-3.783.383a.559.557 83.425 0 1-.599-.477l-.839-6.311a.643.64 82.085 0 0-.728-.552l-5.297.699a.725.725-87.285 0 0-.626.812l4.972 36.908a.602.599 82.128 0 0 .681.518l5.542-.736a.517.517-42.029 0 0 .439-.583l-.829-6.132a.493.488-6.641 0 1 .442-.552l3.78-.338a.527.526 83.27 0 1 .565.447l1.278 9.215a1.378 1.375-7.754 0 1-1.183 1.554l-13.436 1.779a1.438 1.436-7.777 0 1-1.614-1.224l-5.724-42.54a1.43 1.43 44.937 0 1 1.228-1.605l13.356-1.789a1.489 1.487-7.898 0 1 1.673 1.264z"></path><path fill-rule="evenodd" d="M294.277 279.733q-6.201 1.69-6.547 1.747c-3.64.61-4.66-1.47-5.54-4.74q-2.78-10.32-11.71-43.03a.468.459 74.91 0 1 .32-.57l8.88-2.42a.57.568 74.968 0 1 .69.4q6.36 23.65 10.47 38.514.145.526.781.353t.494-.7q-3.998-14.895-10.514-38.502a.57.568 74.549 0 1 .392-.695l8.88-2.419a.468.459 74.608 0 1 .565.329q8.897 32.719 11.736 43.022c.901 3.265 1.077 5.575-2.369 6.896q-.328.126-6.528 1.815m-1.966-7.238q-2.617.714-2.747.735a.545.543-12.388 0 1-.614-.39l-10.55-38.71a.28.28 65.069 0 0-.34-.2l-4.16 1.14a.28.28 82.325 0 0-.2.34l11.63 42.63a1.211 1.206 76.25 0 0 1.427.87q2.146-.47 6.827-1.747 4.68-1.276 6.767-1.96a1.211 1.206 73.244 0 0 .789-1.474l-11.62-42.633a.28.28 33.715 0 0-.345-.191l-4.163 1.129a.28.28-4.812 0 0-.191.345l10.56 38.707a.545.543-18.118 0 1-.33.648q-.124.048-2.74.761M490.45 267.82q-.29.41-2.61 9.89c-.67 2.73-2.46 4.54-5.34 3.78l-12.43-3.29c-4-1.07-3.95-3.93-2.83-7.55q.36-1.14 10.26-38.4c1.12-4.23 3.79-3.99 7.52-2.99q9.02 2.41 11.04 3.03 2.39.74 2.78 3.76a1.731 1.715 49.94 0 1-.05.61l-3.11 11.67a.34.34-39.46 0 1-.42.24l-8.81-2.34a.694.694 51.052 0 1-.49-.85l1.65-6.18a.507.507 14.764 0 0-.36-.62l-.4-.11a.519.509 14.714 0 0-.63.36l-8.3 31.16a.444.434 15.765 0 0 .31.54l.37.1a.56.56 90 0 0 .68-.4l1.43-5.36a1.165 1.161 16.045 0 1 1.47-.81l7.84 2.46a.841.839 26.772 0 1 .43 1.3m-1.246-24.414a.79.79 37.316 0 0 .561.967l3.172.844a.79.79-61.625 0 0 .966-.56l2.344-8.794a.79.79 35.841 0 0-.56-.966l-14.304-3.814a.79.79 64.001 0 0-.967.56l-11.382 42.683a.79.79 23.003 0 0 .56.967l14.253 3.794a.79.79-34.291 0 0 .966-.56l2.494-9.364a.79.79 82.527 0 0-.56-.967l-3.113-.832a.79.79-69.717 0 0-.968.56l-1.432 5.373a.79.79-34.672 0 1-.967.56l-4.963-1.323a.79.79-38.275 0 1-.56-.967l9.542-35.764a.79.79-36.44 0 1 .967-.56l4.963 1.323a.79.79 46.887 0 1 .56.968z"></path><path fill="#fff" fill-rule="evenodd" d="M293.584 277.163q-4.681 1.277-6.827 1.747a1.211 1.206 76.25 0 1-1.427-.87l-11.63-42.63a.28.28-70.675 0 1 .2-.34l4.16-1.14a.28.28-69.954 0 1 .34.2l10.55 38.71a.545.543-12.388 0 0 .614.39q.13-.021 2.747-.735 2.616-.713 2.74-.761a.545.543-18.118 0 0 .33-.648l-10.56-38.707a.28.28 17.445 0 1 .191-.345l4.163-1.129a.28.28 21.333 0 1 .345.191l11.62 42.633a1.211 1.206 73.244 0 1-.789 1.474q-2.087.684-6.767 1.96M489.204 243.406l1.572-5.872a.79.79-1.876 0 0-.56-.968l-4.963-1.323a.79.79-70.889 0 0-.967.56l-9.542 35.764a.79.79-68.557 0 0 .56.967l4.963 1.323a.79.79-53.086 0 0 .967-.56l1.432-5.373a.79.79-38.548 0 1 .968-.56l3.113.832a.79.79-33.572 0 1 .56.967l-2.494 9.364a.79.79-34.549 0 1-.966.56l-14.253-3.794a.79.79 55.281 0 1-.56-.967l11.382-42.683a.79.79 60.87 0 1 .967-.56l14.304 3.814a.79.79-1.014 0 1 .56.966l-2.344 8.794a.79.79-48.356 0 1-.966.56l-3.172-.844a.79.79 48.273 0 1-.561-.967M384.411 277.624l.138-.002c41.601-1.172 83.961 8.218 122.541 24.068q53.4 21.94 98.89 58.95a.636.613 20.45 0 1 .23.48v162.07a5.551 5.417-35.688 0 1-.33 1.87q-9.46 25.62-21.29 47.28c-45.63 83.52-113.87 149.03-200.098 187.167q-.029.013-.138.013-.108 0-.137-.013c-86.22-38.158-154.444-103.684-200.054-187.215q-11.825-21.662-21.279-47.285a5.551 5.417 35.702 0 1-.33-1.87l.039-162.07a.636.613-20.436 0 1 .23-.48q45.499-36.999 98.904-58.926c38.584-15.841 80.946-25.221 122.547-24.039zm-.075 461.966q.147.001.166-.006C463.08 711.87 525.78 655.77 566.85 583.55q14.84-26.11 24.19-52.76a1.805 1.797 55.183 0 0 .11-.62l.22-166.39a1.312 1.297-71.229 0 0-.5-1.03c-51.41-39.97-114.8-62.08-179.373-68.245q-14.029-1.341-27.065-1.344-13.035-.002-27.065 1.332c-64.575 6.137-127.975 28.22-179.402 68.168a1.312 1.297 71.254 0 0-.501 1.03l.148 166.39a1.805 1.797-55.158 0 0 .11.62q9.339 26.654 24.167 52.77c41.039 72.238 103.715 128.365 182.281 156.113q.019.006.166.006"></path><path fill-rule="evenodd" d="M384.432 293.161q13.036.003 27.065 1.344C476.07 300.67 539.46 322.78 590.87 362.75a1.312 1.297-71.229 0 1 .5 1.03l-.22 166.39a1.805 1.797 55.183 0 1-.11.62q-9.35 26.65-24.19 52.76c-41.07 72.22-103.77 128.32-182.348 156.034q-.019.007-.166.006-.147 0-.166-.006c-78.566-27.748-141.242-83.875-182.281-156.113q-14.828-26.116-24.167-52.77a1.805 1.797-55.158 0 1-.11-.62l-.148-166.39a1.312 1.297 71.254 0 1 .501-1.03c51.427-39.948 114.827-62.031 179.402-68.168q14.03-1.334 27.065-1.332M366.61 372.57q2.49.49 8.35 1.93c9.05 2.23 16.55 7.54 21.41 15.56a.716.715 63.018 0 0 .89.29l16.32-6.91a.816.812-11.443 0 0 .5-.75v-26.94a.55.55 45 0 1 .55-.55h64.81a4.401 4.257-55.681 0 0 1.7-.35l50.66-21.44a.34.339-44.126 0 0 .01-.62q-48.25-22.45-101.53-30.34-28.19-4.18-48.5-3.71-50.72 1.18-101.44 17.08-53.29 16.7-96.81 49.57a1.134 1.124-18.691 0 0-.45.9v114.12a.387.383 78.855 0 0 .53.36l72.22-30.57a.698.693 78.482 0 0 .42-.64v-14.91a.57.57-78.858 0 0-.57-.57h-27.16a.59.59-45 0 1-.59-.59v-77.9a.39.39-45 0 1 .39-.39h125.86a.51.51 0 0 1 .51.51v52.2a.305.303-11.098 0 0 .42.28l21.88-9.26a1.296 1.293 1.286 0 0 .65-.62q4.14-8.51-2-15.78-4.3-5.1-9.21-9.59a.215.212 71.254 0 1 .18-.37m129.2-17.38h44.33a.74.74-45 0 1 .74.74v77.4a.75.74 90 0 1-.74.75H513a.47.47-45 0 0-.47.47v105.84a.325.324 78.593 0 0 .45.3l72.42-30.65a.535.534 78.211 0 0 .32-.49v-143.1a1.017.997-71.569 0 0-.39-.8q-21.21-16.35-45.68-28.87a1.5 1.473-42.667 0 0-1.27-.04l-42.65 18.05a.209.208-56.422 0 0 .08.4m-230.82 71.77-.02 40.5v146.26a1.175 1.166-70.24 0 0 .42.9l57.81 47.42a1.599 1.561 64.117 0 0 1 .36h120.41a1.479 1.467-64.663 0 0 .94-.34l57.85-47.46a1.104 1.1 70.304 0 0 .4-.85V425.94a.59.59 35.539 0 1 .59-.59h27.31a.4.4-88.254 0 0 .4-.4v-60.59a.46.46 0 0 0-.46-.46H423.49a.67.66 0 0 0-.67.66v60.16a.63.63-45 0 0 .63.63h25.85a.51.5 0 0 1 .51.5v161.12a.933.932-19.761 0 1-.34.72L423.49 609a1.295 1.21 23.756 0 1-.8.28h-76.62a1.266 1.24-25.292 0 1-.78-.27l-25.92-21.27a1.104 1.1-70.304 0 1-.4-.85V425.84a.49.48 90 0 1 .48-.49h26.03a.47.46 0 0 0 .47-.46v-60.37a.62.62 0 0 0-.62-.62h-108.2a.47.46-90 0 0-.46.47v60.37a.62.61 0 0 0 .62.61h26.94a.765.752 82.507 0 1 .73.57q.12.44.03 1.04m112.37-47.86q1.32 1.76 2.29 3.23c5.08 7.74 2.88 17.36-3.31 23.78-5.74 5.95-10.1 10.41-12.3 17.97q-3.19 10.98-3.3 26.16a1.598 1.589 26.388 0 0 .33.97c14.28 18.31 14.84 41.65 11.89 63.84a.555.544-88.653 0 0 .58.62q11.69-.91 22.32.04a1.07 1.07 18.854 0 0 1-.49c7.21-11.27-3.75-21.25-7.44-31.72-4.74-13.46-5.47-28.3-.2-41.78q3.66-9.37 5.02-13.46c6.41-19.29 5.02-41.32-16.6-49.54a.246.244 81.559 0 0-.28.38m21.8 209.76 41.33-17.49a.925.924 78.416 0 0 .56-.85V434.76a.67.67 45 0 0-.67-.67h-25.83a.49.49 29.806 0 1-.49-.49v-43.77a.313.31 78.741 0 0-.43-.29l-13.9 5.89a.808.804-18.577 0 0-.47.94c3.27 12.82.97 24.16-3.16 36.91a1.931 1.818 49.616 0 0-.05.99q2.2 10.52 5.53 19.66c1.67 4.56 4.62 12.63 8.75 14.48 20.65 9.22 9.31 34.91 2.15 49.31a.343.342-66.698 0 0 .19.48l12.01 4.53a1.094 1.078 10.698 0 1 .7 1.01v16.98a.49.49-45 0 1-.49.49h-8.73a1.094 1.091 14.242 0 0-.96.57l-14.68 26.82a4.765 4.684 62.105 0 0-.57 1.91l-1.4 17.91a.443.439 80.589 0 0 .61.44m-30.7-180.21-13.16 5.57a.943.939 78.804 0 0-.58.87v18.55a.46.46 45 0 1-.46.46h-26.24a.34.34-2.475 0 0-.34.34v148.3a1.001.984 19.829 0 0 .37.77l20.15 16.54a2.36 2.355-25.349 0 0 1.49.53h21.15a.303.301 87.392 0 0 .3-.33l-2.27-29.22a7.183 7.129 28.592 0 0-.86-2.88l-14.47-26.43a1.014 1.004 75.28 0 0-.88-.52h-8.86a.51.51 0 0 1-.51-.51v-17.15a.834.827 79.915 0 1 .54-.78l10.68-3.96a.277.269-26.096 0 0 .14-.39q-.66-1.15-2.74-6.05c-8.4-19.75-6.9-43.5 5.18-61.9a2.351 2.277 62.09 0 0 .38-1.31q-.09-7.57 1.83-19.35 2.03-12.44 9.52-20.64a.32.319 9.797 0 0-.36-.51m25.01 31.45c-6.11 13.05-5.81 27.92-1.24 41.4 4.04 11.92 14.9 20.93 8.21 34.36a.24.239 17.275 0 0 .18.34l7.91 1.32a.42.42 63.409 0 0 .44-.22c4.93-9.69 15.39-31.89 6.16-41.5q-2.43-2.54-3.35-2.9-6.5-2.6-9.61-9.1-5.15-10.78-8.16-23.65a.289.286-39.408 0 0-.54-.05m-23.92 75.3c3.38-20.87 2.38-43.48-10.14-61.08a.554.553 41.292 0 0-.94.06q-17.05 31.42-.57 63a.772.767 71.377 0 0 .82.41l10.13-1.69a.85.85-69.845 0 0 .7-.7m-113.67-59.09-72.37 30.63a.706.7 78.741 0 0-.43.65v40.11a6.415 6.024 38.625 0 0 .25 1.74q1.12 3.83 2.04 6.14 25.33 63.84 71.1 113.08a.81.806 57.12 0 0 .92.2l23.14-9.79a.354.352 52.782 0 0 .08-.6l-23.84-19.56a1.57 1.566-70.285 0 1-.57-1.21V456.52a.233.229-11.238 0 0-.32-.21M384.32 717.9q-3.57-21.64-5.05-46.06a.732.731 88.338 0 0-.73-.69h-57.36a2.024 1.983-24.897 0 1-1.27-.45l-33.49-27.47a.897.883 52.692 0 0-.91-.13l-23.83 10.09a.533.531-33.26 0 0-.18.86q52.61 54.09 122.56 79.55a.78.78-46.553 0 0 .54 0c68.38-24.6 124.76-71.37 164.93-132.54q22.14-33.71 35.53-70.18a10.537 10.475 55.292 0 0 .65-3.64v-10.6a.39.388 78.528 0 0-.54-.36l-72.37 30.63a.455.446-12.219 0 0-.27.41v70.8a.737.708-20.883 0 1-.26.55l-63.52 52.11a1.684 1.637-63.777 0 1-1.04.37h-57.54a.663.651-88.12 0 0-.65.62q-1.46 23.38-5 46.13a.101.101 83.588 0 1-.2 0m.058-114.023q6.833 0 7.491-.022a.669.668-87.45 0 0 .671-.615l2.66-34.14a5.243 5.19 61.99 0 1 .63-2.1l16.4-29.97a.998.982 14.164 0 1 .87-.51h6.83a.68.68-5.385 0 0 .68-.68v-9.12a.735.725 10.557 0 0-.473-.68c-11.549-4.335-23.334-5.938-35.756-5.938s-24.207 1.601-35.757 5.935a.735.725-10.553 0 0-.473.68v9.12a.68.68-8.154 0 0 .68.681h6.83a.998.982-14.16 0 1 .87.51l16.397 29.971a5.243 5.19-61.986 0 1 .63 2.1l2.658 34.14a.669.668 87.454 0 0 .671.615q.658.022 7.491.023m13.905-8.495a.54.54-11.667 0 0-.328.456l-.32 4.161a.54.54-78.099 0 0 .538.581h21.534a.54.54 20.132 0 0 .342-.123l20.784-17.055a.54.54-22.667 0 0 .197-.417v-4.88a.54.54 69.946 0 0-.75-.497zm-13.837 98.207q.219-.001 2.11-25.032a.464.463 89.75 0 0-.502-.499q-.763.063-1.701.067-.939.003-1.703-.054a.464.463 89.831 0 0-.498.502q2.075 25.017 2.294 25.016"></path><path fill="#f0c015" fill-rule="evenodd" d="M366.61 372.57a.215.212 71.254 0 0-.18.37q4.91 4.49 9.21 9.59 6.14 7.27 2 15.78a1.296 1.293 1.286 0 1-.65.62l-21.88 9.26a.305.303-11.098 0 1-.42-.28v-52.2a.51.51 0 0 0-.51-.51H228.32a.39.39-45 0 0-.39.39v77.9a.59.59-44.968 0 0 .59.59h27.16a.57.57-53.166 0 1 .57.57v14.91a.698.693 78.482 0 1-.42.64l-72.22 30.57a.387.383 78.855 0 1-.53-.36V366.29a1.134 1.124-18.691 0 1 .45-.9q43.52-32.87 96.81-49.57 50.72-15.9 101.44-17.08 20.31-.47 48.5 3.71 53.28 7.89 101.53 30.34a.34.339-44.126 0 1-.01.62l-50.66 21.44a4.401 4.257-55.681 0 1-1.7.35h-64.81a.55.55 45 0 0-.55.55v26.94a.816.812-11.443 0 1-.5.75l-16.32 6.91a.716.715 63.018 0 1-.89-.29c-4.86-8.02-12.36-13.33-21.41-15.56q-5.86-1.44-8.35-1.93" data-source="https://football-logos.cc"></path><path fill="#1c5794" fill-rule="evenodd" d="M495.81 355.19a.209.208-56.422 0 1-.08-.4l42.65-18.05a1.5 1.473-42.667 0 1 1.27.04q24.47 12.52 45.68 28.87a1.017.997-71.569 0 1 .39.8v143.1a.535.534 78.211 0 1-.32.49l-72.42 30.65a.325.324 78.593 0 1-.45-.3V434.55a.47.47 45 0 1 .47-.47h27.14a.75.74 90 0 0 .74-.75v-77.4a.74.74-45 0 0-.74-.74z"></path><path fill="#fff" fill-rule="evenodd" d="m264.97 467.46.02-40.5q.09-.6-.03-1.04a.765.752 82.507 0 0-.73-.57h-26.94a.62.61 0 0 1-.62-.61v-60.37a.47.46-90 0 1 .46-.47h108.2a.62.62 45 0 1 .62.62v60.37a.47.46 0 0 1-.47.46h-26.03a.49.48 90 0 0-.48.49v161.05a1.104 1.1-70.304 0 0 .4.85l25.92 21.27a1.266 1.24-25.292 0 0 .78.27h76.62a1.295 1.21 23.756 0 0 .8-.28l25.98-21.31a.933.932-19.761 0 0 .34-.72V425.85a.51.5 0 0 0-.51-.5h-25.85a.63.63-45 0 1-.63-.63v-60.16a.67.66 0 0 1 .67-.66h108.15a.46.46-45 0 1 .46.46v60.59a.4.4-56.699 0 1-.4.4h-27.31a.59.59-2.48 0 0-.59.59v187.81a1.104 1.1 70.304 0 1-.4.85l-57.85 47.46a1.479 1.467-64.663 0 1-.94.34H324.2a1.599 1.561 64.117 0 1-1-.36l-57.81-47.42a1.175 1.166-70.24 0 1-.42-.9z"></path><path fill="#db7229" fill-rule="evenodd" d="M377.64 378.72c21.62 8.22 23.01 30.25 16.6 49.54q-1.36 4.09-5.02 13.46c-5.27 13.48-4.54 28.32.2 41.78 3.69 10.47 14.65 20.45 7.44 31.72a1.07 1.07 18.854 0 1-1 .49q-10.63-.95-22.32-.04a.555.544-88.653 0 1-.58-.62c2.95-22.19 2.39-45.53-11.89-63.84a1.598 1.589 26.388 0 1-.33-.97q.11-15.18 3.3-26.16c2.2-7.56 6.56-12.02 12.3-17.97 6.19-6.42 8.39-16.04 3.31-23.78q-.97-1.47-2.29-3.23a.246.244 81.559 0 1 .28-.38"></path><path fill="#1c5794" fill-rule="evenodd" d="m398.55 588.42 1.4-17.91a4.765 4.684 62.105 0 1 .57-1.91l14.68-26.82a1.094 1.091 14.242 0 1 .96-.57h8.73a.49.49 0 0 0 .49-.49v-16.98a1.094 1.078 10.698 0 0-.7-1.01l-12.01-4.53a.343.342-66.698 0 1-.19-.48c7.16-14.4 18.5-40.09-2.15-49.31-4.13-1.85-7.08-9.92-8.75-14.48q-3.33-9.14-5.53-19.66a1.931 1.818 49.616 0 1 .05-.99c4.13-12.75 6.43-24.09 3.16-36.91a.808.804-18.577 0 1 .47-.94l13.9-5.89a.313.31 78.741 0 1 .43.29v43.77a.49.49 5.847 0 0 .49.49h25.83a.67.67 45 0 1 .67.67v135.76a.925.924 78.416 0 1-.56.85l-41.33 17.49a.443.439 80.589 0 1-.61-.44M368.82 409.16q-7.49 8.2-9.52 20.64-1.92 11.78-1.83 19.35a2.351 2.277 62.09 0 1-.38 1.31c-12.08 18.4-13.58 42.15-5.18 61.9q2.08 4.9 2.74 6.05a.277.269-26.096 0 1-.14.39l-10.68 3.96a.834.827 79.915 0 0-.54.78v17.15a.51.51 0 0 0 .51.51h8.86a1.014 1.004 75.28 0 1 .88.52l14.47 26.43a7.183 7.129 28.592 0 1 .86 2.88l2.27 29.22a.303.301 87.392 0 1-.3.33h-21.15a2.36 2.355-25.349 0 1-1.49-.53l-20.15-16.54a1.001.984 19.829 0 1-.37-.77v-148.3a.34.34 35.536 0 1 .34-.34h26.24a.46.46 0 0 0 .46-.46v-18.55a.943.939 78.804 0 1 .58-.87l13.16-5.57a.32.319 9.797 0 1 .36.51"></path><path fill="#af2e2e" fill-rule="evenodd" d="m264.99 426.96-.02 40.5z"></path><path fill="#da4d2a" fill-rule="evenodd" d="M394.01 440.15q3.01 12.87 8.16 23.65 3.11 6.5 9.61 9.1.92.36 3.35 2.9c9.23 9.61-1.23 31.81-6.16 41.5a.42.42 63.429 0 1-.44.22l-7.91-1.32a.24.239 17.275 0 1-.18-.34c6.69-13.43-4.17-22.44-8.21-34.36-4.57-13.48-4.87-28.35 1.24-41.4a.289.286-39.408 0 1 .54.05M368.85 516.1l-10.13 1.69a.772.767 71.377 0 1-.82-.41q-16.48-31.58.57-63a.554.553 41.292 0 1 .94-.06c12.52 17.6 13.52 40.21 10.14 61.08a.85.85 75.806 0 1-.7.7"></path><path fill="#1c5794" fill-rule="evenodd" d="M255.88 456.31a.233.229-11.238 0 1 .32.21V617.7a1.57 1.566-70.285 0 0 .57 1.21l23.84 19.56a.354.352 52.782 0 1-.08.6l-23.14 9.79a.81.806 57.12 0 1-.92-.2q-45.77-49.24-71.1-113.08-.92-2.31-2.04-6.14a6.415 6.024 38.625 0 1-.25-1.74v-40.11a.706.7 78.741 0 1 .43-.65z"></path><path fill="#af2e2e" fill-rule="evenodd" d="M384.32 717.9a.101.101 11.963 0 0 .2 0q3.54-22.75 5-46.13a.663.651-88.12 0 1 .65-.62h57.54a1.684 1.637-63.777 0 0 1.04-.37l63.52-52.11a.737.708-20.883 0 0 .26-.55v-70.8a.455.446-12.219 0 1 .27-.41l72.37-30.63a.39.388 78.528 0 1 .54.36v10.6a10.537 10.475 55.292 0 1-.65 3.64q-13.39 36.47-35.53 70.18C509.36 662.23 452.98 709 384.6 733.6a.78.78-10.963 0 1-.54 0q-69.95-25.46-122.56-79.55a.533.531-33.26 0 1 .18-.86l23.83-10.09a.897.883 52.692 0 1 .91.13l33.49 27.47a2.024 1.983-24.897 0 0 1.27.45h57.36a.732.731 88.338 0 1 .73.69q1.48 24.42 5.05 46.06"></path><path fill="#f0c015" fill-rule="evenodd" d="M384.381 520.102c12.422 0 24.207 1.603 35.756 5.938a.735.725 10.557 0 1 .473.68v9.12a.68.68 32.074 0 1-.68.68h-6.83a.998.982 14.164 0 0-.87.51L395.83 567a5.243 5.19 61.99 0 0-.63 2.1l-2.66 34.14a.669.668-87.45 0 1-.671.615q-.658.022-7.491.022-6.833-.001-7.491-.023a.669.668 87.454 0 1-.671-.615l-2.658-34.14a5.243 5.19-61.986 0 0-.63-2.1l-16.397-29.971a.998.982-14.16 0 0-.87-.51h-6.83a.68.68 25.195 0 1-.68-.681v-9.12a.735.725-10.553 0 1 .473-.68c11.55-4.334 23.335-5.935 35.757-5.935"></path><path fill="#af2e2e" fill-rule="evenodd" d="m398.283 595.382 41.997-17.774a.54.54-70.822 0 1 .75.497v4.88a.54.54 18.649 0 1-.197.417l-20.784 17.055a.54.54 64.418 0 1-.342.123h-21.534a.54.54-51.398 0 1-.538-.581l.32-4.161a.54.54 23.301 0 1 .328-.456"></path><path fill="#f0c015" fill-rule="evenodd" d="M384.353 668.125q.938-.004 1.701-.067a.464.463 89.75 0 1 .502.499q-1.891 25.031-2.11 25.032t-2.294-25.016a.464.463 89.831 0 1 .498-.502q.764.057 1.703.054" data-source="https://football-logos.cc"></path><!-- source: https://football-logos.cc --></svg>