<svg xmlns="http://www.w3.org/2000/svg" viewBox="83.23 80.87 1594.72 1594.72"><metadata xmlns:fl="https://football-logos.cc/bolivia/universitario-de-vinto">dl1_71e5c52534fb7474f627de8a5b9b5d58935ba9c67feb63b07606c799cfe2cbb0</metadata><!-- Source: https://football-logos.cc --><path fill-rule="evenodd" d="M1677.95 878.23a797.36 797.36 0 0 1-797.36 797.36A797.36 797.36 0 0 1 83.23 878.23 797.36 797.36 0 0 1 880.59 80.87a797.36 797.36 0 0 1 797.36 797.36M179.07 645.32q-5.78 16.66-9.47 29.75c-15.84 56.26-25.15 114.19-27.67 172.61a5.22 5.014-49.555 0 0 .06 1.01l.39 2.35-.36 16.56q-.24 2.41-.24 4.15c.06 11.7-.21 29.05.3 41.67q.77 18.99 3.74 45.57 3.21 28.78 5.42 40.52 3.19 16.9 4.79 26.47 2.65 15.85 11.53 47.18 42.96 155.2 144.1 276.68 82.7 99.34 192.44 164.26 153.57 90.85 332.44 101.68 59.72 3.62 119.84-2.52c105.55-10.78 207.5-44.11 298.68-97.94q108.14-63.85 188.78-158.72 105.67-124.33 149.7-283.27 2.25-6.69 3.94-13.59 7.98-32.58 13.53-67.22 1.53-9.58 2.88-21.27.58-5.03 2.28-21.34 4.24-40.78 3.11-82.32l-.02-16.56q-1.85-52.3-10.95-103.29-6.61-37.01-16.94-73.17-4.21-14.71-9.23-29.2-46.02-137.48-140.31-247.71c-87.23-101.97-200.71-178.31-327.79-220.7-69.35-23.14-141.76-35.51-215.29-37.39q-6.14-.16-23.5-.09c-159.12.6-315.57 53.85-441.98 150.54q-121.86 93.2-197.31 226.71-34.1 60.33-56.89 128.59" data-source="https://football-logos.cc"></path><path fill="#fff" fill-rule="evenodd" d="m1582.14 645.37-179.14.22q-.83.18-1.29-.83c-53.82-119.03-146.16-216.52-262.42-275.57-132.65-67.38-286.81-80.19-429.23-35.94-155.72 48.4-283.64 162.96-350.59 311.49q-.43.95-1.18.85l-179.22-.27q22.79-68.26 56.89-128.59 75.45-133.51 197.31-226.71c126.41-96.69 282.86-149.94 441.98-150.54q17.36-.07 23.5.09c73.53 1.88 145.94 14.25 215.29 37.39 127.08 42.39 240.56 118.73 327.79 220.7q94.29 110.23 140.31 247.71M949.29 237.05l-31.99-.11a.62.62 11.218 0 0-.62.62q.07 15.39-.12 22.19c-.09 3.31-.15 8.28-3.89 9.16-8.23 1.96-7.73-6.59-7.78-11.66q-.2-23.01 0-66.02.02-4.23.86-7.61c.95-3.79 5.75-3.8 8.66-2.57a1.621 1.592 87.703 0 1 .83.78q1.19 2.42 1.25 4.69.32 12.03.18 29.25a.49.49-45 0 0 .49.49l31.86.11a.44.44-89.334 0 0 .44-.43q.34-12.73-.34-23.41-.43-6.78-1.94-12.21c-3.25-11.67-14.75-18.49-26.29-20.47-13.87-2.39-30.12-.39-39.96 9.93-7 7.35-8.65 15.61-8.76 24.98q-.3 25.66-.04 54.86.06 6.88 1.42 15.23 2.93 18.08 21.25 23.46c16.86 4.95 40.93 2.36 50.58-15.21q2.59-4.7 3.48-14.47.91-9.92.6-21.41a.181.17 88.212 0 0-.17-.17m-128.65 50.798a.5.5 15.554 0 0 .502-.498l.186-52.25a.5.5 27.395 0 1 .502-.498l19.15.066a.5.5 23.34 0 0 .502-.498l.076-22.93a.5.5-7.494 0 0-.498-.502l-19.35-.066a.5.5-52.866 0 1-.498-.502l.076-22.94a.5.5-42.966 0 1 .502-.498l21.64.076a.5.5-25.25 0 0 .502-.498l.086-24.1a.5.5 21.194 0 0-.498-.502l-54.39-.186a.5.5 2.57 0 0-.502.498l-.436 125.22a.5.5 54.394 0 0 .498.502zm42.79-25.248a.53.53 0 0 0-.53-.53h-22.72a.53.53 0 0 0-.53.53v24.72a.53.53 0 0 0 .53.53h22.72a.53.53 0 0 0 .53-.53zm117.92-.02a.5.5 0 0 0-.5-.5h-22.76a.5.5 0 0 0-.5.5v24.76a.5.5 0 0 0 .5.5h22.76a.5.5 0 0 0 .5-.5z"></path><path fill-rule="evenodd" d="M949.29 237.05a.181.17 88.212 0 1 .17.17q.31 11.49-.6 21.41-.89 9.77-3.48 14.47c-9.65 17.57-33.72 20.16-50.58 15.21q-18.32-5.38-21.25-23.46-1.36-8.35-1.42-15.23-.26-29.2.04-54.86c.11-9.37 1.76-17.63 8.76-24.98 9.84-10.32 26.09-12.32 39.96-9.93 11.54 1.98 23.04 8.8 26.29 20.47q1.51 5.43 1.94 12.21.68 10.68.34 23.41a.44.44-89.334 0 1-.44.43l-31.86-.11a.49.49-45 0 1-.49-.49q.14-17.22-.18-29.25-.06-2.27-1.25-4.69a1.621 1.592 87.703 0 0-.83-.78c-2.91-1.23-7.71-1.22-8.66 2.57q-.84 3.38-.86 7.61-.2 43.01 0 66.02c.05 5.07-.45 13.62 7.78 11.66 3.74-.88 3.8-5.85 3.89-9.16q.19-6.8.12-22.19a.62.62 36.842 0 1 .62-.62zm-128.65 50.798-31.95-.106a.5.5-47.88 0 1-.498-.502l.436-125.22a.5.5 33.302 0 1 .502-.498l54.39.186a.5.5 42.776 0 1 .498.502l-.086 24.1a.5.5-25.883 0 1-.502.498l-21.64-.076a.5.5-42.018 0 0-.502.498l-.076 22.94a.5.5 78.49 0 0 .498.502l19.35.066a.5.5 29.627 0 1 .498.502l-.076 22.93a.5.5 41.584 0 1-.502.498l-19.15-.066a.5.5.431 0 0-.502.498l-.186 52.25a.5.5 40.691 0 1-.502.498m42.79-.528a.53.53 0 0 1-.53.53h-22.72a.53.53 0 0 1-.53-.53V262.6a.53.53 0 0 1 .53-.53h22.72a.53.53 0 0 1 .53.53zm117.92.02a.5.5 0 0 1-.5.5h-22.76a.5.5 0 0 1-.5-.5v-24.76a.5.5 0 0 1 .5-.5h22.76a.5.5 0 0 1 .5.5zM1403 645.59q-.4 1.13-.02 2 42.52 96.99 47.8 203.45l.46 16.77q1.91 104.96-33.31 203.52c-.21.59-.07 1.16-.24 1.8q-.45.47-.69 1.12c-53.94 145.91-163.99 263.72-306.31 326.59-116.22 51.34-247.85 62.01-371 30.75-181.97-46.18-330.6-180.45-395.47-357.33q-.18-.5-.77-1.24l-.38-2.29a.856.668 37.982 0 0-.03-.12q-35-98.37-33.17-203.02l.47-16.54q5.35-106.44 47.92-203.29.56-1.26.03-2.17.75.1 1.18-.85c66.95-148.53 194.87-263.09 350.59-311.49 142.42-44.25 296.58-31.44 429.23 35.94 116.26 59.05 208.6 156.54 262.42 275.57q.46 1.01 1.29.83m18.28 232.63A540.68 540.68 0 0 0 880.6 337.54a540.68 540.68 0 0 0-540.68 540.68A540.68 540.68 0 0 0 880.6 1418.9a540.68 540.68 0 0 0 540.68-540.68"></path><path fill="#d8031f" fill-rule="evenodd" d="M1421.28 878.22A540.68 540.68 0 0 1 880.6 1418.9a540.68 540.68 0 0 1-540.68-540.68A540.68 540.68 0 0 1 880.6 337.54a540.68 540.68 0 0 1 540.68 540.68m-541.3 461.64q4.051 0 14.763.342 27.187.868 61.257-2.692c34.39-3.59 68.58-11.89 100.24-25.95q70.6-31.33 110.85-96.74 14.03-22.82 23.45-48.56 21.68-59.26 20.62-122.78-.38-22.5-.31-22.96.02-.1.03-450.83c0-9.26-.29-16.62-.29-26.23a.73.73 0 0 0-.73-.73l-159.3-.56a.794.793-84.762 0 0-.78.65q-.45 2.51-.44 4.83.22 61.93-.39 148.1-.36 50.03-.36 59.25 0 2.54-.08 17-.31 60.51-.52 80.05-.08 7.3-.08 8.25-.21 61.47-1.52 167.72-.25 20.5-1.21 29.94c-4.69 45.82-21.99 87.15-61.88 112.61-29.44 18.78-66.48 25.89-101.053 23.872q-.606-.036-2.262-.036t-2.263.035c-34.573 2.017-71.612-5.096-101.051-23.877-39.889-25.463-57.186-66.794-61.873-112.614q-.96-9.44-1.209-29.94-1.303-106.25-1.509-167.72 0-.95-.08-8.25-.208-19.54-.515-80.05-.079-14.46-.079-17 .001-9.22-.356-59.25-.605-86.17-.381-148.1.01-2.32-.44-4.83a.794.793 84.766 0 0-.78-.651l-159.3.551a.73.73-44.963 0 0-.73.73c0 9.61-.291 16.97-.291 26.23q-.018 450.73.002 450.83.07.46-.311 22.96-1.064 63.519 20.612 122.781 9.418 25.74 23.447 48.561 40.246 65.413 110.844 96.747c31.659 14.062 65.849 22.364 100.238 25.956q34.07 3.562 61.257 2.696 10.713-.341 14.763-.341"></path><path fill="#fff" fill-rule="evenodd" d="M879.985 1194.406q1.656 0 2.262.036c34.573 2.018 71.613-5.092 101.053-23.872 39.89-25.46 57.19-66.79 61.88-112.61q.96-9.44 1.21-29.94 1.31-106.25 1.52-167.72 0-.95.08-8.25.21-19.54.52-80.05.08-14.46.08-17 0-9.22.36-59.25.61-86.17.39-148.1-.01-2.32.44-4.83a.794.793-84.762 0 1 .78-.65l159.3.56a.73.73 0 0 1 .73.73c0 9.61.29 16.97.29 26.23q-.01 450.73-.03 450.83-.07.46.31 22.96 1.06 63.52-20.62 122.78-9.42 25.74-23.45 48.56-40.25 65.41-110.85 96.74c-31.66 14.06-65.85 22.36-100.24 25.95q-34.07 3.56-61.257 2.692-10.712-.342-14.763-.342-4.05 0-14.763.341-27.187.866-61.257-2.696c-34.389-3.592-68.579-11.894-100.238-25.956q-70.598-31.334-110.844-96.747-14.029-22.821-23.447-48.561-21.676-59.262-20.612-122.781.381-22.5.311-22.96-.02-.1-.002-450.83c0-9.26.291-16.62.291-26.23a.73.73 45 0 1 .73-.73l159.3-.551a.794.793 84.766 0 1 .78.651q.45 2.51.44 4.83-.224 61.93.381 148.1.357 50.03.356 59.25 0 2.54.079 17 .307 60.51.515 80.05.08 7.3.08 8.25.206 61.47 1.509 167.72.249 20.5 1.209 29.94c4.687 45.82 21.984 87.151 61.873 112.614 29.439 18.781 66.478 25.894 101.051 23.877q.606-.035 2.263-.035m-8.375 37.474 10.27 15.5a.881.877-48.616 0 0 1.52-.1q.74-1.47.65-3.28-.67-13.76-10.93-23.65-8.11-7.82-19.88-8.55a1.153 1.152 3.424 0 0-1.23 1.09c-.54 10.69 1.48 21.11 9.24 28.61q5.79 5.6 14.17 9.32 2.32 1.03 4.65.03a1.181 1.18 57.389 0 0 .41-1.87c-2.63-2.92-5.28-8.95-9.45-16.72a.198.192-30.718 0 1 .07-.26l.25-.17a.194.186-32.809 0 1 .26.05m31.17-3.71c-7.44 1.39-13.81 6.03-16.16 13.38-.78 2.47-.8 5.23-1.27 7.49a1.292 1.267 34.257 0 0 .19.95q1.37 2.1 4.04 1.31c2.6-.78 5.93-1.81 7.94-3.57q8.16-7.16 6.94-18.31a1.431 1.428 81.582 0 0-1.68-1.25m-18.599 89.998q2.504.001 7.575.185c9.494.347 18.134-6.043 23.264-13.653q6.3-9.35 9.64-21.55a4.454 4.194-36.939 0 0 .15-.87q.3-3.61.24-15.77-.02-5.19-1-7.49c-1.65-3.94-5.5-8.83-10.09-9.46-5.61-.77-10.7-.29-15.89 2.22-4.33 2.1-8.34 4.17-13.324 5.182q-.274.056-.555.056t-.556-.056c-4.983-1.014-8.993-3.085-13.322-5.186-5.189-2.512-10.279-2.994-15.889-2.225-4.59.628-8.442 5.517-10.093 9.456q-.981 2.3-1.003 7.49-.063 12.16.235 15.77a4.454 4.194 36.957 0 0 .15.87q3.336 12.201 9.633 21.553c5.128 7.612 13.766 14.005 23.26 13.661q5.071-.183 7.575-.183"></path><path fill="#d8031f" fill-rule="evenodd" d="M358.29 645.59q.53.91-.03 2.17-42.57 96.85-47.92 203.29l-167.96-.01-.39-2.35a5.22 5.014-49.555 0 1-.06-1.01c2.52-58.42 11.83-116.35 27.67-172.61q3.69-13.09 9.47-29.75zm1223.85-.22q5.02 14.49 9.23 29.2 10.33 36.16 16.94 73.17 9.1 50.99 10.95 103.29l-168.48.01q-5.28-106.46-47.8-203.45-.38-.87.02-2z"></path><path fill="#fff" fill-rule="evenodd" d="m142.38 851.04 167.96.01-.47 16.54-167.85.01zm1476.88-.01.02 16.56-168.04.22-.46-16.77z"></path><path fill="#d8031f" fill-rule="evenodd" d="M309.87 867.59q-1.83 104.65 33.17 203.02a.856.668 37.982 0 1 .03.12l.38 2.29-175.89.14q-8.88-31.33-11.53-47.18-1.6-9.57-4.79-26.47-2.21-11.74-5.42-40.52-2.97-26.58-3.74-45.57c-.51-12.62-.24-29.97-.3-41.67q0-1.74.24-4.15zm1309.41 0q1.13 41.54-3.11 82.32-1.7 16.31-2.28 21.34-1.35 11.69-2.88 21.27-5.55 34.64-13.53 67.22-1.69 6.9-3.94 13.59l-175.85-.2c.17-.64.03-1.21.24-1.8q35.22-98.56 33.31-203.52z"></path><path fill="#fff" fill-rule="evenodd" d="M343.45 1073.02q.59.74.77 1.24c64.87 176.88 213.5 311.15 395.47 357.33 123.15 31.26 254.78 20.59 371-30.75 142.32-62.87 252.37-180.68 306.31-326.59q.24-.65.69-1.12l175.85.2q-44.03 158.94-149.7 283.27-80.64 94.87-188.78 158.72c-91.18 53.83-193.13 87.16-298.68 97.94q-60.12 6.14-119.84 2.52-178.87-10.83-332.44-101.68-109.74-64.92-192.44-164.26-101.14-121.48-144.1-276.68zm1025.518 117.85c-12.007 18.301-13.767 41.021 4.725 55.376 10.213 7.929 21.22 15.006 35.393 24.305s25.047 16.578 36.387 22.79c20.531 11.247 40.672.587 52.679-17.713s13.767-41.021-4.725-55.376c-10.213-7.929-21.22-15.006-35.393-24.305s-25.047-16.578-36.387-22.791c-20.531-11.246-40.672-.586-52.679 17.714m-990.068-7.32q-21.47 15.9-71.7 52.89-14.01 10.32-22.28 17.23c-17.43 14.56-13.99 36.41-2.42 53.57 10.07 14.94 23.89 25.11 42.92 21.44q5.08-.98 11.24-4.94 6.62-4.26 14.36-9.96l80.05-59.03a.672.666-36.698 0 0 .14-.93l-22.24-30.13a.478.472-36.161 0 0-.67-.1q-53.64 39.6-91.53 67.44c-2.33 1.72-7.93 5.7-10.81 4.56-2.26-.89-4.49-4.38-2.76-6.79 2.5-3.5 6.17-6.01 9.72-8.62q33.49-24.7 88.82-65.5a.47.47 49.074 0 0 .1-.66l-22.43-30.4a.364.364-58.288 0 0-.51-.07m1061.497 164.429a.47.47 0 0 0-.036-.664l-109.697-98.425a.47.47 0 0 0-.664.036l-25.137 28.016a.47.47 0 0 0 .036.663l109.697 98.425a.47.47 0 0 0 .664-.036zM413.23 1352.23q0 .15.11.21a.137.071-62.769 0 1 0 .16l-30.71 61.16a.695.68-55.321 0 0 .14.82l24.01 22.53a.43.43 43.058 0 0 .6-.02l100.89-107.55a.496.488 42.966 0 0-.03-.7l-22.8-21.39a.51.51 73.231 0 0-.72.02l-44.66 47.61a.161.16 79.513 0 1-.26-.18l29.28-62.13a.702.693-55.748 0 0-.15-.82l-22.91-21.5a.347.347 42.562 0 0-.48.02l-100.98 107.65a.446.439 43.643 0 0 .02.63l22.86 21.45a.481.474 42.844 0 0 .67-.02l45.03-48a.058.051 70.61 0 1 .09.05m903.37 11.49 2.51-2.84q8.71-9.83 2.14-21.02-6.4-10.88-16.62-20.67c-9.88-9.47-22.71-13.46-35.02-6.09q-8.94 5.35-20.64 14.87-13.18 10.72-28.09 23.14a.57.57-22.449 0 0-.08.8l93.93 113.56a.448.441 49.954 0 0 .63.06l29.11-24.07a.391.384-40.197 0 0 .05-.54l-42.04-50.83a.562.548-39.873 0 1 .08-.78c2.76-2.31 7.12-5.28 10.37-3.05q3.32 2.27 6.82 6.43 11.18 13.31 33.69 40.68a.504.504 45 0 0 .71.07l26.81-22.18a.54.54 25.498 0 0 .08-.76c-14.94-18.18-25.88-32.09-36.29-43.25-6.45-6.92-15.81-8.29-24.43-4.44q-.6.26-3.26 1.28a.342.341-6.088 0 1-.46-.37m-754.911 3.064a.62.62 0 0 0-.158-.863l-30.736-21.203a.62.62 0 0 0-.863.158l-83.541 121.1a.62.62 0 0 0 .158.863l30.736 21.203a.62.62 0 0 0 .863-.158zm635.727 169.632a.41.41 51.927 0 0 .581.204l34.104-19.225a.41.41-37.132 0 0 .172-.528l-10.836-23.634a.41.41 11.779 0 1 .172-.528l11.399-6.428a.41.41 6.959 0 1 .543.131l14.358 21.654a.41.41-.059 0 0 .543.131l33.674-18.99a.41.41-46.064 0 0 .122-.608l-91.581-117.756a.41.41 33.571 0 0-.525-.105l-48.009 27.06a.41.41-13.739 0 0-.179.509zM577.12 1490.43a.199.19 23.699 0 1-.1-.24q18.36-46.11 35.38-94.67a.545.544 22.35 0 0-.28-.67l-35.69-17.49a.361.36 22.192 0 0-.5.21l-44.92 141.97a.816.804 21.984 0 0 .42.97l51.3 25.13a.846.844-60.105 0 0 1.07-.29l82.07-123.4a.622.619 29.634 0 0-.25-.9l-35.41-17.35a.527.525-61.289 0 0-.68.2q-28.06 44.81-52.15 86.46a.208.193 27.876 0 1-.26.07m500.379-65.798q-38.831 13.905-39.175 14.027a.536.531-19.785 0 0-.324.681l9.7 27.09a.396.392-19.561 0 0 .51.24l20.73-7.42a.44.427-19.265 0 1 .56.26l39.66 110.76a.57.569 70.508 0 0 .728.348q8.9-3.206 17.623-6.329 8.723-3.124 17.634-6.296a.57.569 70.086 0 0 .342-.732l-39.667-110.757a.44.427-20.141 0 1 .268-.557l20.727-7.426a.396.392-19.845 0 0 .242-.509l-9.702-27.09a.536.531-19.62 0 0-.683-.32q-.343.124-39.173 14.03m-375.028 162.102a.51.51-35.466 0 0 .635-.343l8.188-27.482a.51.51 23.063 0 0-.343-.635l-26.152-7.798a.51.51-39.85 0 1-.343-.635l9.018-30.262a.51.51 51.515 0 1 .635-.343l22.112 6.588a.51.51 48.207 0 0 .635-.343l7.778-26.082a.51.51-74.162 0 0-.343-.635l-22.112-6.588a.51.51-30.745 0 1-.343-.635l7.738-25.952a.51.51-40.976 0 1 .635-.343l23.692 7.068a.51.51-45.243 0 0 .635-.343l8.198-27.502a.51.51 27.457 0 0-.343-.635l-60.672-18.088a.51.51 11.471 0 0-.635.343l-42.088 141.192a.51.51 17.904 0 0 .343.635zm314.552-143.427a.45.45 0 0 0-.532-.35l-36.91 7.576a.45.45 0 0 0-.35.531l29.646 144.429a.45.45 0 0 0 .532.35l36.91-7.576a.45.45 0 0 0 .35-.532zm-195.692 84.079 3.786-.127q13.124-.422 16.742-12.88 3.51-12.121 3.604-26.269c.096-13.681-5.815-25.743-19.623-29.626q-10.027-2.821-24.978-4.784-16.839-2.214-36.101-4.518a.57.57-9.554 0 0-.637.491l-18.003 146.226a.448.44-83.432 0 0 .389.499l37.478 4.621a.391.384 6.418 0 0 .426-.335l8.061-65.449a.562.548 6.742 0 1 .622-.477c3.574.419 8.725 1.547 9.337 5.44q.631 3.97.012 9.37-1.993 17.263-6.421 52.412a.504.504-85.999 0 0 .437.564l34.525 4.248a.54.54 8.134 0 0 .607-.464c2.949-23.339 5.543-40.839 6.503-56.066.598-9.438-4.834-17.18-13.551-20.799q-.601-.257-3.168-1.489a.342.341 40.526 0 1-.047-.588m98.349-25.556a.64.631 87.384 0 0 .67.62l34.92-1.94a.321.32-2.771 0 0 .3-.33q-.26-9.49-1.57-18.18-.87-5.85-2.53-9.99c-3.96-9.93-15.88-14.9-25.86-16.38-21.01-3.13-52.42 1.61-54.92 28.63-1.39 14.96-.25 35.54 12.72 45.62 9.89 7.69 24.66 15.18 32.3 20.41 3.26 2.24 6.77 4.54 7.92 7.82q3.36 9.61 2.03 19.52-.8 5.97-6.61 6.43c-7.44.6-7.29-8.05-7.56-13.56q-.28-5.74-.92-16.71a.45.45 86.748 0 0-.47-.42l-35.01 1.95a.4.4 88.584 0 0-.38.42c.54 9.79.95 18.74 3.25 28.51q2.11 8.92 7.9 14.32c16.67 15.55 52.88 13.61 68.96-2 6.85-6.66 7.69-14.81 7.77-24.31q.14-14.72-3.51-27.33-2.72-9.39-9.87-15.38c-9.97-8.35-22.77-14.88-34.39-21.35-7.73-4.31-9.19-12.46-8.51-20.69.4-4.8 3.34-8.62 8.49-7.41 3.14.74 3.86 4.69 4.1 7.47q.65 7.41.78 14.26"></path><path fill-rule="evenodd" d="M1458.034 1195.947c14.173 9.299 25.18 16.376 35.393 24.305 18.492 14.355 16.732 37.075 4.725 55.376s-32.148 28.96-52.679 17.713c-11.34-6.212-22.214-13.491-36.387-22.79s-25.18-16.376-35.393-24.305c-18.492-14.355-16.732-37.075-4.725-55.376s32.148-28.96 52.679-17.714c11.34 6.213 22.214 13.492 36.387 22.791m19.095 65.842a5.91 5.91 0 0 0-1.695-8.184l-77.162-50.686a5.91 5.91 0 0 0-8.184 1.695l-.077.117a5.91 5.91 0 0 0 1.695 8.184l77.162 50.686a5.91 5.91 0 0 0 8.184-1.695zM378.9 1183.55a.364.364-11.547 0 1 .51.07l22.43 30.4a.47.47 87.037 0 1-.1.66q-55.33 40.8-88.82 65.5c-3.55 2.61-7.22 5.12-9.72 8.62-1.73 2.41.5 5.9 2.76 6.79 2.88 1.14 8.48-2.84 10.81-4.56q37.89-27.84 91.53-67.44a.478.472-36.161 0 1 .67.1l22.24 30.13a.672.666-36.698 0 1-.14.93l-80.05 59.03q-7.74 5.7-14.36 9.96-6.16 3.96-11.24 4.94c-19.03 3.67-32.85-6.5-42.92-21.44-11.57-17.16-15.01-39.01 2.42-53.57q8.27-6.91 22.28-17.23 50.23-36.99 71.7-52.89"></path><path fill="#fff" fill-rule="evenodd" d="M1477.052 1261.906a5.91 5.91 0 0 1-8.184 1.695l-77.162-50.686a5.91 5.91 0 0 1-1.695-8.184l.077-.117a5.91 5.91 0 0 1 8.184-1.695l77.162 50.686a5.91 5.91 0 0 1 1.695 8.184z" data-source="https://football-logos.cc"></path><path fill="#d8031f" fill-rule="evenodd" d="M871.61 1231.88a.194.186-32.809 0 0-.26-.05l-.25.17a.198.192-30.718 0 0-.07.26c4.17 7.77 6.82 13.8 9.45 16.72a1.181 1.18 57.389 0 1-.41 1.87q-2.33 1-4.65-.03-8.38-3.72-14.17-9.32c-7.76-7.5-9.78-17.92-9.24-28.61a1.153 1.152 3.424 0 1 1.23-1.09q11.77.73 19.88 8.55 10.26 9.89 10.93 23.65.09 1.81-.65 3.28a.881.877-48.616 0 1-1.52.1zm31.17-3.71a1.431 1.428 81.582 0 1 1.68 1.25q1.22 11.15-6.94 18.31c-2.01 1.76-5.34 2.79-7.94 3.57q-2.67.79-4.04-1.31a1.292 1.267 34.257 0 1-.19-.95c.47-2.26.49-5.02 1.27-7.49 2.35-7.35 8.72-11.99 16.16-13.38"></path><path fill-rule="evenodd" d="M1415.26 1375.994a.47.47 0 0 1-.664.036l-109.697-98.425a.47.47 0 0 1-.036-.663l25.137-28.016a.47.47 0 0 1 .664-.036l109.697 98.425a.47.47 0 0 1 .036.664z"></path><path fill="#d8031f" fill-rule="evenodd" d="M884.191 1257.018q.281 0 .555-.056c4.984-1.012 8.994-3.082 13.324-5.182 5.19-2.51 10.28-2.99 15.89-2.22 4.59.63 8.44 5.52 10.09 9.46q.98 2.3 1 7.49.06 12.16-.24 15.77a4.454 4.194-36.939 0 1-.15.87q-3.34 12.2-9.64 21.55c-5.13 7.61-13.77 14-23.264 13.653q-5.071-.184-7.575-.185-2.504 0-7.575.183c-9.494.344-18.132-6.049-23.26-13.661q-6.297-9.352-9.633-21.553a4.454 4.194 36.957 0 1-.15-.87q-.298-3.61-.235-15.77.022-5.19 1.003-7.49c1.651-3.939 5.503-8.828 10.093-9.456 5.61-.769 10.7-.287 15.889 2.225 4.329 2.101 8.339 4.172 13.322 5.186q.274.056.556.056"></path><path fill-rule="evenodd" d="M413.23 1352.23a.058.051 70.61 0 0-.09-.05l-45.03 48a.481.474 42.844 0 1-.67.02l-22.86-21.45a.446.439 43.643 0 1-.02-.63l100.98-107.65a.347.347 42.562 0 1 .48-.02l22.91 21.5a.702.693-55.748 0 1 .15.82l-29.28 62.13a.161.16 79.513 0 0 .26.18l44.66-47.61a.51.51 81.038 0 1 .72-.02l22.8 21.39a.496.488 42.966 0 1 .03.7l-100.89 107.55a.43.43 43.058 0 1-.6.02l-24.01-22.53a.695.68-55.321 0 1-.14-.82l30.71-61.16a.137.071-62.769 0 0 0-.16q-.11-.06-.11-.21m903.83 11.86q2.66-1.02 3.26-1.28c8.62-3.85 17.98-2.48 24.43 4.44 10.41 11.16 21.35 25.07 36.29 43.25a.54.54 25.501 0 1-.08.76l-26.81 22.18a.504.504 0 0 1-.71-.07q-22.51-27.37-33.69-40.68-3.5-4.16-6.82-6.43c-3.25-2.23-7.61.74-10.37 3.05a.562.548-39.873 0 0-.08.78l42.04 50.83a.391.384-40.197 0 1-.05.54l-29.11 24.07a.448.441 49.954 0 1-.63-.06l-93.93-113.56a.57.57-10.355 0 1 .08-.8q14.91-12.42 28.09-23.14 11.7-9.52 20.64-14.87c12.31-7.37 25.14-3.38 35.02 6.09q10.22 9.79 16.62 20.67 6.57 11.19-2.14 21.02l-2.51 2.84a.342.341-6.088 0 0 .46.37m-50.378-17.278 20.461 24.734a.41.41-43.069 0 0 .577.054l2.165-1.791a8.64 8.48 50.4 0 0 1.027-12.063l-9.969-12.05a8.64 8.48 50.4 0 0-12.041-1.252l-2.166 1.791a.41.41 59.481 0 0-.054.577"></path><path fill="#fff" fill-rule="evenodd" d="M1266.682 1346.812a.41.41 87.038 0 1 .054-.577l2.166-1.791a8.64 8.48 50.4 0 1 12.041 1.252l9.969 12.05a8.64 8.48 50.4 0 1-1.027 12.063l-2.165 1.791a.41.41-7.884 0 1-.577-.054z"></path><path fill-rule="evenodd" d="M478.148 1487.884a.62.62 0 0 1-.863.158l-30.736-21.203a.62.62 0 0 1-.158-.863l83.541-121.1a.62.62 0 0 1 .863-.158l30.736 21.203a.62.62 0 0 1 .158.863zm719.268 48.532-55.462-138.113a.41.41 14.451 0 1 .179-.509l48.009-27.06a.41.41-87.314 0 1 .525.105l91.581 117.756a.41.41-1.55 0 1-.122.608l-33.674 18.99a.41.41 10.891 0 1-.543-.131l-14.358-21.654a.41.41-44.193 0 0-.543-.131l-11.399 6.428a.41.41-6.16 0 0-.172.528l10.836 23.634a.41.41 5.936 0 1-.172.528l-34.104 19.225a.41.41-84.866 0 1-.581-.204m-12.696-122.496a.271.267-82.535 0 0-.41.32l23.09 55.37a.686.686 63.769 0 0 .97.33l10.73-6.05a.377.369-33.081 0 0 .12-.54q-17.62-24.35-33.63-48.46-.39-.59-.87-.97m-607.6 76.51a.208.193 27.876 0 0 .26-.07q24.09-41.65 52.15-86.46a.527.525-61.289 0 1 .68-.2l35.41 17.35a.622.619 29.634 0 1 .25.9l-82.07 123.4a.846.844-60.105 0 1-1.07.29l-51.3-25.13a.816.804 21.984 0 1-.42-.97l44.92-141.97a.361.36 22.192 0 1 .5-.21l35.69 17.49a.545.544 22.35 0 1 .28.67q-17.02 48.56-35.38 94.67a.199.19 23.699 0 0 .1.24m550.391 73.859q-8.723 3.123-17.623 6.329a.57.569 70.508 0 1-.728-.348l-39.66-110.76a.44.427-19.265 0 0-.56-.26l-20.73 7.42a.396.392-19.561 0 1-.51-.24l-9.7-27.09a.536.531-19.785 0 1 .324-.681q.344-.122 39.175-14.027 38.83-13.906 39.173-14.03a.536.531-19.62 0 1 .683.32l9.702 27.09a.396.392-19.845 0 1-.242.509l-20.727 7.426a.44.427-20.141 0 0-.268.557l39.667 110.757a.57.569 70.086 0 1-.342.732q-8.911 3.172-17.634 6.296"></path><path fill="#fff" fill-rule="evenodd" d="M1184.72 1413.92q.48.38.87.97 16.01 24.11 33.63 48.46a.377.369-33.081 0 1-.12.54l-10.73 6.05a.686.686 63.769 0 1-.97-.33l-23.09-55.37a.271.267-82.535 0 1 .41-.32"></path><path fill-rule="evenodd" d="m702.471 1586.734-63.132-18.818a.51.51 53.107 0 1-.343-.635l42.088-141.192a.51.51 50.19 0 1 .635-.343l60.672 18.088a.51.51 54.258 0 1 .343.635l-8.198 27.502a.51.51-36.654 0 1-.635.343l-23.692-7.068a.51.51-76.798 0 0-.635.343l-7.738 25.952a.51.51 87.371 0 0 .343.635l22.112 6.588a.51.51-44.836 0 1 .343.635l-7.778 26.082a.51.51-27.449 0 1-.635.343l-22.112-6.588a.51.51-3.684 0 0-.635.343l-9.018 30.262a.51.51-71.37 0 0 .343.635l26.152 7.798a.51.51 47.375 0 1 .343.635l-8.188 27.482a.51.51-66.935 0 1-.635.343m344.198 1.001a.45.45 0 0 1-.35.532l-36.91 7.576a.45.45 0 0 1-.532-.35l-29.646-144.429a.45.45 0 0 1 .35-.531l36.91-7.576a.45.45 0 0 1 .532.35zm-225.338-60.349a.342.341 40.526 0 0 .047.588q2.567 1.232 3.168 1.489c8.717 3.619 14.149 11.361 13.551 20.799-.96 15.227-3.554 32.727-6.503 56.066a.54.54 43.063 0 1-.607.464l-34.525-4.248a.504.504 64.662 0 1-.437-.564q4.428-35.149 6.421-52.412.619-5.4-.012-9.37c-.612-3.893-5.763-5.021-9.337-5.44a.562.548 6.742 0 0-.622.477l-8.061 65.449a.391.384 6.418 0 1-.426.335l-37.478-4.621a.448.44-83.432 0 1-.389-.499l18.003-146.226a.57.57 20.876 0 1 .637-.491q19.262 2.304 36.101 4.518 14.951 1.963 24.978 4.784c13.808 3.883 19.719 15.945 19.623 29.626q-.094 14.148-3.604 26.269-3.618 12.458-16.742 12.88zm-22.036-47.902-3.866 31.947a.41.41 37.614 0 0 .358.456l2.75.333a8.53 8.52-83.1 0 0 9.483-7.445l1.915-15.824a8.53 8.52-83.1 0 0-7.433-9.492l-2.75-.333a.41.41-32.795 0 0-.457.358m120.385 22.346q-.13-6.85-.78-14.26c-.24-2.78-.96-6.73-4.1-7.47-5.15-1.21-8.09 2.61-8.49 7.41-.68 8.23.78 16.38 8.51 20.69 11.62 6.47 24.42 13 34.39 21.35q7.15 5.99 9.87 15.38 3.65 12.61 3.51 27.33c-.08 9.5-.92 17.65-7.77 24.31-16.08 15.61-52.29 17.55-68.96 2q-5.79-5.4-7.9-14.32c-2.3-9.77-2.71-18.72-3.25-28.51a.4.4 88.637 0 1 .38-.42l35.01-1.95a.45.45 86.748 0 1 .47.42q.64 10.97.92 16.71c.27 5.51.12 14.16 7.56 13.56q5.81-.46 6.61-6.43 1.33-9.91-2.03-19.52c-1.15-3.28-4.66-5.58-7.92-7.82-7.64-5.23-22.41-12.72-32.3-20.41-12.97-10.08-14.11-30.66-12.72-45.62 2.5-27.02 33.91-31.76 54.92-28.63 9.98 1.48 21.9 6.45 25.86 16.38q1.66 4.14 2.53 9.99 1.31 8.69 1.57 18.18a.321.32-2.771 0 1-.3.33l-34.92 1.94a.64.631 87.384 0 1-.67-.62"></path><path fill="#fff" fill-rule="evenodd" d="M799.295 1479.484a.41.41 45.398 0 1 .457-.358l2.75.333a8.53 8.52-83.1 0 1 7.433 9.492l-1.915 15.824a8.53 8.52-83.1 0 1-9.483 7.445l-2.75-.333a.41.41 50.371 0 1-.358-.456z" data-source="https://football-logos.cc"></path><!-- source: https://football-logos.cc --></svg>