<svg xmlns="http://www.w3.org/2000/svg" viewBox="0.26 0.22 241.48 291.11"><metadata xmlns:fl="https://football-logos.cc/iceland/vikingur-r">dl1_c31a62da6196cfd853351b1861eff0a233f6b9d94c6bf4f24a514a4a0d928581</metadata><!-- Source: https://football-logos.cc --><g fill="none" fill-rule="evenodd" data-source="https://football-logos.cc"><path fill="#1A1919" d="m231.816 34.556-.795-2.685-36.64 16.462C180.688 19.787 152.931.215 120.993.215S61.3 19.787 47.605 48.334L10.966 31.871l-.796 2.685C3.29 57.786-.04 80.987.276 103.516c.589 42.373 12.717 80.722 36.046 113.981 20.369 29.04 49.268 54.358 83.575 73.225l1.096.605 1.096-.605c34.309-18.863 63.21-44.186 83.577-73.225 23.328-33.259 35.456-71.61 36.046-113.982.313-22.524-3.017-45.726-9.896-68.96"></path><path fill="#DA322A" d="M44.081 120.616c2.758 21.715 9.273 41.31 19.716 59.136v-27.407c-8.557-8.844-15.34-19.647-19.716-31.73M178.19 152.344v27.407c10.442-17.826 16.957-37.42 19.717-59.136-4.378 12.083-11.161 22.887-19.716 31.73M132.431 176.283v53.898c8.45-6.505 16.07-13.291 22.882-20.393v-40.682a77.7 77.7 0 0 1-22.882 7.177M86.675 169.106v40.681c6.81 7.101 14.43 13.887 22.878 20.393v-53.897a77.7 77.7 0 0 1-22.878-7.177"></path><path fill="#FFFFFE" d="M40.163 214.4c-22.707-32.37-34.51-69.702-35.085-110.963a197 197 0 0 1-.02-2.84c0-20.205 3.025-40.96 8.939-61.776 3.982 1.788 27.453 12.335 31.28 14.054-4.502 9.936-7.018 21.917-7.427 35.718a235 235 0 0 0-.107 7.06c0 28.425 5.283 53.246 16.086 75.688 13.407 27.856 34.96 51.54 65.885 72.4l1.279.861 1.279-.862c30.928-20.86 52.478-44.543 65.885-72.4 10.803-22.44 16.086-47.262 16.086-75.688q.001-3.491-.106-7.059c-.41-13.802-2.922-25.782-7.429-35.718 3.828-1.718 27.3-12.265 31.28-14.054 5.914 20.818 8.94 41.57 8.94 61.773q.001 1.422-.02 2.843c-.575 41.26-12.38 78.594-35.082 110.964-19.717 28.105-47.653 52.672-80.833 71.115-33.18-18.443-61.118-43.01-80.83-71.115"></path><path fill="#D4682C" d="M78.38 132.175c-6.832-6.15-8.886-13.77-9.343-19.381-.702-8.635 2.076-17.976 7.008-24.117-4.932-6.142-7.71-15.483-7.008-24.117.457-5.613 2.51-13.231 9.343-19.383-3.755-2.667-7.29-5.73-10.675-8.67a268 268 0 0 0-4.3-3.677C50.932 47.615 43.32 67.21 43.32 88.677c0 21.465 7.612 41.06 20.087 55.847a278 278 0 0 0 4.299-3.68c3.384-2.939 6.92-6.002 10.675-8.669"></path><path fill="#D4682C" d="M168.163 112.345c.63-7.712-1.978-16.039-6.523-21.093H80.5v-.164c-4.64 5.036-7.312 13.46-6.676 21.257.4 4.932 2.31 11.754 8.954 16.983 6.627-3.85 13.96-6 22.36-3.922 7.454 1.844 12.934 6.19 15.855 12.228 2.92-6.039 8.401-10.384 15.853-12.228 8.403-2.079 15.735.073 22.363 3.922 6.642-5.229 8.554-12.051 8.954-16.983M104.058 46.924c9.236-2.284 14.534-8.919 14.534-18.2V5.41c-20.133.66-38.357 9.575-51.831 23.69a301 301 0 0 1 3.966 3.4c9.993 8.674 20.324 17.643 33.331 14.423"></path><path fill="#D4682C" d="M163.606 45.177c6.833 6.15 8.886 13.77 9.343 19.382.703 8.635-2.076 17.976-7.007 24.116 4.931 6.142 7.71 15.484 7.007 24.117-.457 5.613-2.51 13.232-9.343 19.383 3.756 2.667 7.293 5.73 10.677 8.67a286 286 0 0 0 4.295 3.678c12.48-14.787 20.087-34.381 20.087-55.847s-7.607-41.06-20.087-55.847a285 285 0 0 0-4.297 3.678c-3.382 2.94-6.92 6.003-10.675 8.67M137.928 46.924c13.007 3.22 23.337-5.75 33.331-14.422a310 310 0 0 1 3.969-3.402c-13.476-14.114-31.7-23.03-51.834-23.689v23.312c0 9.282 5.296 15.917 14.534 18.201"></path><path fill="#D4682C" d="M73.823 65.007c-.635 7.797 2.038 16.221 6.677 21.257V86.1h81.14c4.544-5.055 7.152-13.382 6.523-21.093-.4-4.93-2.313-11.754-8.953-16.982-6.63 3.85-13.962 5.999-22.363 3.921-7.452-1.845-12.935-6.189-15.854-12.229-2.922 6.04-8.4 10.384-15.854 12.23-8.402 2.077-15.734-.072-22.36-3.922-6.645 5.228-8.554 12.051-8.956 16.982M104.058 130.428c-13.007-3.219-23.338 5.75-33.332 14.422a300 300 0 0 1-3.965 3.402c13.474 14.113 31.698 23.03 51.83 23.69V148.63c0-9.285-5.297-15.917-14.533-18.202M137.928 130.428c-9.238 2.285-14.534 8.917-14.534 18.202v23.312c20.134-.66 38.358-9.577 51.834-23.69a293 293 0 0 1-3.969-3.402c-9.994-8.673-20.324-17.64-33.331-14.422"></path></g><!-- source: https://football-logos.cc --></svg>