<svg xmlns="http://www.w3.org/2000/svg" viewBox="0 -0.02 90.96 112.02"><metadata xmlns:fl="https://football-logos.cc/lithuania/zalgiris-vilnius">dl1_72f49b16cd0f1040f1f76c6a4b84c324510ea0e67c4326e5d96449862ce537fc</metadata><!-- Source: https://football-logos.cc --><defs data-source="https://football-logos.cc"><linearGradient id="a" x1="45.222" x2="45.222" y1="110.371" y2="1.505" gradientUnits="userSpaceOnUse"><stop offset="0" stop-color="#005342"></stop><stop offset="1" stop-color="#009375"></stop></linearGradient></defs><path d="m76.96 18.512 5.434 2.279v3.27l3.8 1.84q4.055 32-9.409 56.3a33.2 33.2 0 0 1 14.17 7.41q-14.195.746-7.742 6.924-1.889 1.729-9.931-.847.863 5.088-2.391 7.384t-18.816 5.148a14.3 14.3 0 0 1-6.9 3.781 14.3 14.3 0 0 1-6.9-3.781q-15.567-2.74-18.783-5.081t-2.57-7.421q-7.9 2.546-9.816.73Q13.581 90.355 0 89.9a36.7 36.7 0 0 1 13.847-7.322Q.093 57.9 4.147 25.9l3.8-1.928v-3.151l4.733-1.988v-5.2l8.733-3.388V11.5l2.191-.788V9.4l6.016-2.335V5.279h12.288a18.5 18.5 0 0 1 .607-2.459q.653-2.365 2.822-1.661a5.97 5.97 0 0 1 4.52-1.1.843.843 0 0 1 .743 1.093q-.141.925-.287 2.484t.587 1.643h9.123v1.782L66.036 9.4v1.316l2.189.788v-1.259l8.735 3.388z" style="fill:#fff" data-source="https://football-logos.cc"></path><path d="m10.63 45.24-.049.642Q12.093 71.376 23.424 86.9l.008.012 2.422 3.156a29.5 29.5 0 0 1-6.881-2.583q-1.237-1.839-2.311-3.67l-1.446-2.574-.456-.87a78 78 0 0 1-3.235-7.13l-.044-.112-.286-.7a89 89 0 0 1-4.771-18.635Q6 50.875 5.749 48.036q-.421-4.718-.422-9.706 0-3.1.164-6.372v-.11q0-.45.066-1.116.108-1.264.246-2.29l.138-.861A.8.8 0 0 1 6 27.316v-.011a21 21 0 0 1 1.932-.988l-.045.01.064-.019Q8.588 26 9.5 25.64a76 76 0 0 1 7.371-2.426 82 82 0 0 1 11.611-2.134 134 134 0 0 1 16.088-.924h1.42a136 136 0 0 1 15.719.924 74 74 0 0 1 13.368 2.71l.01.019q2.05.576 3.727 1.144l1.235.439A26 26 0 0 1 84.2 27.3l.4 2.938.1 1.723q.164 3.269.164 6.372a107 107 0 0 1-1.058 15.193l-.039.271a89 89 0 0 1-4.517 17.954l.028-.07a72.5 72.5 0 0 1-3.595 8.463l-.456.87-1.447 2.571q-.93 1.589-1.982 3.18l-.327.487a29.4 29.4 0 0 1-6.882 2.585q1.263-1.484 2.423-3.072 11.466-15.7 12.884-41.6l.006-.039v-.039h-.005a96 96 0 0 0-11.013-3.867 85 85 0 0 0-47.32.149A96 96 0 0 0 10.633 45.2v.032l-.083.018h.007l.083-.02v.007l-.086.015v.006l.086-.017m69.482-20.756a118.4 118.4 0 0 0-27.807-6.124L50.55 16.8l-1.54.183-12.121-.511-1.273 1.913a93.7 93.7 0 0 0-25.511 6.243V21.95l19.805-7.6h6.171l.808-.859-4.853-.006V7.52h10.5l.377-.44.375-.7.549-2.858a.99.99 0 0 1 .614-.869q.566-.266.767.037l.34.256a3.1 3.1 0 0 1 .952-.889 3.5 3.5 0 0 1 .715-.347l.41-.11 1-.091a.48.48 0 0 1 .349.2 1.48 1.48 0 0 1 .063.961l-.229 1.92a2.7 2.7 0 0 0 .482 1.657 2.9 2.9 0 0 1 .368.833l.108.44h7.7v6l-7.89-.007-.142.219.523.66h9.734l20.417 7.7v2.4M58.955 13.519V9.013l5.84 2.244v1.9a.41.41 0 0 0 .185.358l3.294 1.264.147.028.249-.075a.4.4 0 0 0 .181-.349V12.8l5.849 2.248v4.1l-14.831-5.593-.164-.036zM47.179 2.86l-.293.21a1.7 1.7 0 0 0-.42.631l-.056.129a1.9 1.9 0 0 1-.614.65l-.174-.31-.677-.861-.183.055a.76.76 0 0 0-.375.466l-.047.23a8 8 0 0 1-.24 1.14l-.147 1.355-.61 1.045a2.5 2.5 0 0 1-.677.613l-.825.559a5.7 5.7 0 0 1-1.473.615 4.8 4.8 0 0 0-1.411.593l.1.065.228.376a1.1 1.1 0 0 0 .3.459l-2.5 1.775 5.951.567h.018l5.458.532a.6.6 0 0 1 .041-.131l.013-.026v-.018l.174-.275a.87.87 0 0 1 .5-.31l-.825-1.53.182.192.066.056a2.66 2.66 0 0 0 1.9.64 4.9 4.9 0 0 0 1.327-.237l-.49-.415q-.851-.989-1.383-1.493a4.7 4.7 0 0 1-.823-1 13 13 0 0 0-.157-1.684l-.091-.44a1.6 1.6 0 0 0-.294-.613q-.521-.54-.358-2.545v-.01l.028-.2-.457-.476.166-.22.082-.193a.27.27 0 0 0-.037-.218q-.139-.194-.532-.11l-.65.155-.054.018-.485.368-.56.676.129.035.384-.41a2.4 2.4 0 0 1 .467-.366q.267-.174.4-.11M48.37 7.08a1.1 1.1 0 0 1 .082.44 2.67 2.67 0 0 1-.687 1.456q.321-1.062.073-1.42l-.008-.036a.63.63 0 0 1-.009-.44.45.45 0 0 1 .4-.237zm1.849 9.129-1.748-2-10.42-.921-2.16 2.482 12.754.713zm.219 8.826.037 11.235 3.664.293q-.038-6.519 0-11.362zm5.211.256q-.037 4.011-.019 11.426l3.662.5.019-4.011.476.073 1.757 4.321 3.772.7-1.894-4.476a1.93 1.93 0 0 0 1.217-.147.84.84 0 0 0 .429-.7q-.016-3.306.047-5.383a1.37 1.37 0 0 0-.605-1.09 3.74 3.74 0 0 0-1.876-.6l-6.986-.623m5.758 2.41.082.182q-.034 1.356-.035 3.341l-.047.185-.293.008-1.812-.23.046-3.77 1.794.19a.56.56 0 0 1 .265.094m5.165 10.885 3.654.825q.007-6.813.1-12.543l-3.655-.487q-.072 5.687-.1 12.2m-17.533-9.213-3.552 2.014.019 2.536h-1.65l-.256-.065q-.127-.054-.082-.164l-.017-6.621a.12.12 0 0 1 .066-.136q.063-.082.274-.054 2.115-.028 3.983.008l-.642-1.923q-2.619-.025-5.2.028a2.66 2.66 0 0 0-1.6.375 1.18 1.18 0 0 0-.54.952l.01 8.095a1.51 1.51 0 0 0 .649 1.4 4.23 4.23 0 0 0 2.206.34q3.16-.084 6.346.054l-.009-6.839m.519 14.23v8.24h-1.496v-6.474H46.3v-3.063h-1.781v3.063h-1.78v6.474h-1.492v-8.24h-1.782v9.842h11.872v-9.842h-1.78M46.3 51.926h-1.781V46.97H46.3zm32.9-23.658-4.944-.816a2.7 2.7 0 0 0-1.831.129.91.91 0 0 0-.605.952l-.065 4.935a1.75 1.75 0 0 0 1.036 1.667l.98.311 1.866.42a1.5 1.5 0 0 1 .542.176l.136.246-.01 1.812a.21.21 0 0 1-.072.2l-.349-.028L72 37.305l.6 2.711 4.5 1.216a3.4 3.4 0 0 0 2.171.129 1 1 0 0 0 .2-.149 1.94 1.94 0 0 0 .426-1.363v-4.778a1.76 1.76 0 0 0-.476-1.245 2.5 2.5 0 0 0-1.316-.632l-2.245-.5-.43-.155a.5.5 0 0 1-.129-.258v-.457h-.009l.009-1.84q-.009-.155.129-.174.083-.064.338 0l4.039.732zM66.09 42.171a84 84 0 0 1 12.487 3.744q-1.7 25.847-12.487 40.15zM30.515 9.013l.028 4.469h-.633l-.155.028-14.98 5.76-.007-4.222 5.84-2.244v1.583a.437.437 0 0 0 .431.424l.157-.028 3.193-1.219a.4.4 0 0 0 .275-.4v-1.9l5.851-2.244m.816 16.517.009 11.71q3.378-.549 6.775-.823l.622-2.335-3.662.321-.009-9.148zm-15.878.209q-.225-.16-.876-.541l-.052-.03q-.719.225-1.574.476l.811.623.729.556q.21.157.273.148l.832-.123.689-.107q.09-.08.778-.974t1.128-1.355l.134-.142q-.849.171-2.033.521zm-4.568 4.69 3.789-.679q-2.058 5.579-4.074 12.308Q14.556 40.9 18.254 40q.287-1.374.633-2.729l-3.425.825a109 109 0 0 1 3.957-11.245l-7.912 1.237q-.348 1.209-.622 2.344m15.464 6.079.329 1.548 3.673-.65q-1.677-6.465-3.3-11.482l-3.857.448q-1.683 5.513-3.331 13.2l3.671-.851q.147-.954.338-1.721l2.473-.495m-2.07-1.685q.4-2.261.872-4.661l.8 4.351-1.676.31m.075 7.5v43.892Q13.568 71.91 11.867 46.065a83.5 83.5 0 0 1 12.487-3.744m21.38 15.911a3.1 3.1 0 0 0 .907.568 22.3 22.3 0 0 1 4.9.3 3.7 3.7 0 0 0-1.029-.6l-1.308-.459a11.1 11.1 0 0 0-4.524-.685l1.052.879m-1.125 4.715a23 23 0 0 0-4.834.76l-.183.255-.038.094-.035.045-.148.257-.009.008a11.5 11.5 0 0 0-.722 1.666q-.084.257-.825 2.811l2.628 3.269q.642.743.989.724l1.57-.113 1.191-.193 2.333-.623.119-.054 1.016-2.391a15.4 15.4 0 0 0 .8-2.6 6.2 6.2 0 0 0-.7-1.1L46 63.634a2.35 2.35 0 0 0-.916-.741l-.476.054m-5.786-3.854a6 6 0 0 0-.687.457l-1.081.833-.312.283q-.392.387-.356.542a3 3 0 0 1 .356-.2 7 7 0 0 1 1.2-.385l.1-.009a3.1 3.1 0 0 1 .586-.879q.967-.96.467-.788l-.073.028-.142.084-.033.008-.026.028m-2.08.6a13.38 13.38 0 0 1 17.306.253l.622.588a13.363 13.363 0 0 1 0 18.854l-.622.584a13 13 0 0 1-1.868 1.4 13.56 13.56 0 0 1-13.853 0 14 14 0 0 1-1.585-1.137l-.916-.849a13.6 13.6 0 0 1-2.5-3.373 12.4 12.4 0 0 1-1.169-3.395 14.6 14.6 0 0 1 0-5.3 12.4 12.4 0 0 1 1.169-3.4 13.6 13.6 0 0 1 2.5-3.381l.916-.841M34.8 62.874l-.384.678A12.5 12.5 0 0 0 33.33 65.9l-.12.371a4.5 4.5 0 0 0-.265 1.648 3.55 3.55 0 0 0 .385 1.391l.026.054a3.5 3.5 0 0 0 .916 1.21 17 17 0 0 1 2.471-1.474q.376-.185.769-.34a14.7 14.7 0 0 1 1.658-4.86l.237-.42a5.3 5.3 0 0 1-.9-1.144 6.3 6.3 0 0 1-.618-1.275l-.074.019-1.072.384a4.9 4.9 0 0 0-1.575.879 3 3 0 0 0-.366.532m1.941-4.524V39.988a103.4 103.4 0 0 1 17.306.033V58.5a13.87 13.87 0 0 0-8.77-2.939 14.3 14.3 0 0 0-5.642 1.136 14 14 0 0 0-2.894 1.656m-4.055 10.628a13.7 13.7 0 0 0 .5 4.6q.063.22.138.435a11.7 11.7 0 0 0 1.536 2.98l.532-.98a8.05 8.05 0 0 1-1.283-4.981 4.3 4.3 0 0 1-.759-.978l-.668-1.072m13.248 3.552a20.6 20.6 0 0 1-4.567.751L39.931 77.3a10 10 0 0 0 1.647 1.885 5.7 5.7 0 0 0 2.122 1.35 4.57 4.57 0 0 0 2.656-.08q.788-.222 2.4-.816a8.7 8.7 0 0 0 1.656-3.966v-.036L47.7 73.065a3.5 3.5 0 0 0-1.024-.759l-.441.127-.054.009-.054.037-.119.017-.066.037h-.009m-10.768 4.98a12.6 12.6 0 0 0 1.575 1.714l.687.576a12 12 0 0 0 2.537 1.576h.009l1.658.548 1.024.166.586-1.319a10.24 10.24 0 0 1-3.69-3.177 4.7 4.7 0 0 1-2.042-.358l-1.891-.839-.248.541a2.7 2.7 0 0 0-.2.575m10.111 6.841a14 14 0 0 0 8.77-2.893v10.511a55.7 55.7 0 0 1-17.306.108V81.625a13.98 13.98 0 0 0 8.536 2.729m-34.963 10.79q3.791-4.863-6.484-6.475 6.768-4.3 11.71-4.937l.935 1.506q-1.806.237-1.881.773t1.345 2.589a10.2 10.2 0 0 1 1.7 4.887 22 22 0 0 0-2.426.8q-4.671 1.823-4.9.861M18.73 93.3a14.1 14.1 0 0 0-1.655-5.4 55.6 55.6 0 0 0 10.243 3.535l.759.187 1.046.248 2.986.678 4.349.722a63.4 63.4 0 0 0 17.3-.136l1.31-.194a103 103 0 0 0 10.122-2.292l.62-.174a50.6 50.6 0 0 0 7.555-2.809 14.1 14.1 0 0 0-1.657 5.405v.762a19 19 0 0 1 .1 4.763 3.72 3.72 0 0 1-1.264 2.654 10.6 10.6 0 0 1-1.85 1.118q-2.926 1.134-5.491 1.884a74 74 0 0 1-10.247 2.256 49.4 49.4 0 0 1-14.667.194l-.924-.1a65 65 0 0 1-9.288-1.877l-.759-.217q-2.6-.756-5.2-1.734l-.376-.173a10.7 10.7 0 0 1-1.851-1.116 3.73 3.73 0 0 1-1.264-2.656 19.2 19.2 0 0 1 .1-4.762V93.3m24.837-5.275a.8.8 0 0 1-.177.409.56.56 0 0 1-.319.136.5.5 0 0 1-.459-.209.92.92 0 0 1-.129-.545.9.9 0 0 1 .075-.353.65.65 0 0 1 .192-.265.42.42 0 0 1 .312-.119.45.45 0 0 1 .3.1.6.6 0 0 1 .151.248 1.1 1.1 0 0 1 .052.6m.226-1.605a1.57 1.57 0 0 0-.987-.155 1.4 1.4 0 0 0-.586.181 1.3 1.3 0 0 0-.4.422 1.6 1.6 0 0 0-.174.457 2.5 2.5 0 0 0-.065.605 2.2 2.2 0 0 0 .065.551 1.4 1.4 0 0 0 .23.492 1.1 1.1 0 0 0 .3.291 1.5 1.5 0 0 0 .366.153 1.7 1.7 0 0 0 .373.042.85.85 0 0 0 .433-.131.67.67 0 0 0 .3-.372 1.1 1.1 0 0 1-.026.426.93.93 0 0 1-.265.465.74.74 0 0 1-.54.207.84.84 0 0 1-.483-.1 2 2 0 0 1-.534-.41v.966a3.3 3.3 0 0 0 .526.224 1.9 1.9 0 0 0 .672.079 1.8 1.8 0 0 0 .8-.245 1.16 1.16 0 0 0 .495-.521 2.5 2.5 0 0 0 .248-.733 5.6 5.6 0 0 0 .017-1.547 2.6 2.6 0 0 0-.127-.568 1.43 1.43 0 0 0-.633-.778m-3.505-.047-.532.807h.422v3.525h1v-4.335h-.886m4.6 3.444h1.648v.888h.924v-.888h.34v-.778h-.34v-2.666h-1.4l-1.172 2.71zm-9.459 6.525-.009 6.482 1.957.167v-6.475zM45.55 99.6l-1-2.757-1.85-.032.011 6.473 1.8.044v-2.518l1.035 2.518 1.985-.035v-6.454l-1.985.007V99.6m-7.39-3.031v6.473l3.627.22.311-1.172-1.941-.082.01-5.3zm-14.036.7a.72.72 0 0 0-.227.54.767.767 0 0 0 .767.761.755.755 0 0 0 .761-.761.766.766 0 0 0-.761-.769.72.72 0 0 0-.54.229m5.165-1.667q.859 3.635 1.775 6.738l2.034.239 1.785-6.308-1.958-.211-.844 4.313q-.438-2.307-.823-4.524zm13.926 14A22 22 0 0 1 40.6 108.2l-.578-.375a44.3 44.3 0 0 0 10.14 0l-.58.375a21.8 21.8 0 0 1-4.5 2.171q-.859-.3-1.875-.762m30.75-24.6L74.9 83.5a25.8 25.8 0 0 1 8.9 3.268q1.362.753 2.807 1.671-10.275 1.611-6.484 6.475-.228.958-4.9-.861a22 22 0 0 0-2.426-.8 10.2 10.2 0 0 1 1.7-4.886 17 17 0 0 0 1.008-1.6 2 2 0 0 0 .338-.987q-.075-.535-1.881-.773M52.519 60.439q-.618-.992-.89-1.038t-1.536-.135a33 33 0 0 0-3.369-.018 15 15 0 0 0-1.126 3.4 17.5 17.5 0 0 1 3.16 3.917 8 8 0 0 1 2.434-.035q.916.12 2.316.422l.541-1.374.351-1.178a2.3 2.3 0 0 0 .1-.924 1.4 1.4 0 0 0-.246-.5l-1.732-2.536m3.352 3.551a2.35 2.35 0 0 0-.916-.365 13.5 13.5 0 0 1-.53 1.885l-.376.952a2.3 2.3 0 0 0-.156.726 1.8 1.8 0 0 0 .156.548l.448 1.025a9.3 9.3 0 0 1 .42 1.684 8 8 0 0 1 .038 1.713l1.814 1.126q1.4-1.136 1.079-4.23a13.9 13.9 0 0 0-1.243-4.513zm.668 9.669v-.073l-1.666-.978-.092.127-.054.047-.1.136-.056.054-.045.065-.11.109-.046.065-.9.814v.02a14.7 14.7 0 0 1-2.673 1.666 8.2 8.2 0 0 1-.595 2.27 9.4 9.4 0 0 1-1.062 1.8q1.437 1.629 3.031.686a11.3 11.3 0 0 0 1.877-1.418l.88-.926.694-.888a5.9 5.9 0 0 0 .771-1.309 5 5 0 0 0 .183-1.629v-.082l-.019-.01V74l-.009-.066v-.246zM58.2 96.051a1.87 1.87 0 0 0-1 .356.76.76 0 0 0-.312.685l-.009 1.9.009.138-.009.31a.56.56 0 0 0 .164.485.8.8 0 0 0 .4.166l1.545-.157h.267q.091.01.091.148v1.071l-.046.1-.193.045-2.088.229.358 1.062 2.4-.293a2.6 2.6 0 0 0 1.153-.375.87.87 0 0 0 .331-.7v-2.49a.5.5 0 0 0-.258-.5l-.713-.063-1.208.19h-.229l-.094-.146v-.823a.092.092 0 0 1 .084-.11.2.2 0 0 1 .165-.063l2.2-.323-.329-1.226-2.675.386m8.116.993a.72.72 0 0 0-.538-.23.74.74 0 0 0-.541.23.73.73 0 0 0-.22.539.75.75 0 0 0 .761.76.73.73 0 0 0 .538-.22.74.74 0 0 0 .229-.54.71.71 0 0 0-.229-.539m-15.9-10.671h-2.461v.807h1.383l-1.29 3.525h1.034l1.328-3.591v-.741m-3.883 2.666h-.769l.769-1.787zm1.792 7.772v6.461l1.951-.08v-6.456l-1.951.073m5.788-.323v5.246l-.028.1-.146.028-.686.056-.174-.009q-.046-.028-.021-.1v-5.237l-1.993.138v5.474a.74.74 0 0 0 .347.706 2.44 2.44 0 0 0 1.18.155l1.988-.155a2.6 2.6 0 0 0 1.179-.349 1.06 1.06 0 0 0 .34-.732v-5.5l-1.986.181" style="fill:url(#a)" data-source="https://football-logos.cc"></path><!-- source: https://football-logos.cc --></svg>