<svg xmlns="http://www.w3.org/2000/svg" xml:space="preserve" viewBox="0 0.01 411.78 525.22"><metadata xmlns:fl="https://football-logos.cc/venezuela/zamora">dl1_c62221bcd741f434826abd64375a3b152c81408f0cd5275c7120b99e238815ab</metadata><!-- Source: https://football-logos.cc --><path d="M1375.5 3939.16h313.98c20.55-4.2 41.58-7.48 62.6-8.88 163.07-14.01 325.19-44.38 482.65-87.83 103.71-28.04 205.11-63.55 305.57-100.46 12.61-5.13 25.68-11.68 32.22-24.76 7.95-19.16 4.67-41.12 8.43-61.21 19.14-9.34 40.63-11.67 60.73-18.68 119.61-37.85 225.19-107.46 329.86-174.74 36.91-26.17 76.63-48.13 113.06-74.3-55.59-21.02-113.06-37.37-169.13-57.46 9.81-27.57 19.62-55.14 28.5-82.7 20.09-63.08 45.8-124.75 63.54-188.75-81.75 38.77-159.79 85.96-242.95 121.93-87.84 40.18-181.75 71.96-278.94 77.1-23.35 2.8-47.65 4.2-71.01 0-13.56-.94-33.17-6.54-39.24 9.81-6.08 39.24 1.85 78.95-2.82 118.2-11.68 7.95-25.21 10.28-37.84 14.49-208.84 64.48-425.16 105.13-643.37 117.74-37.37-1.4-74.75 6.07-112.13 4.68-42.52-.94-85.03 2.33-127.08-2.81-235.48-7.48-469.095-50.93-693.829-120.08-12.613-4.2-25.699-7.94-36.91-14.48-7.938-42.52 6.539-87.37-7.473-128.49-28.035-3.27-55.133 6.54-83.164 3.74-35.512-3.74-71.953-6.07-107-13.55-116.336-22.9-222.399-78.03-327.52-130.82-36.437-20.09-72.89-40.19-110.73-57.46 7.469 32.7 21.492 63.53 30.836 95.3 21.023 58.41 40.18 117.74 61.672 176.15-55.602 19.62-112.133 35.5-166.801 57 16.36 14.48 35.043 26.63 53.73 37.84 119.61 76.63 236.883 160.73 372.379 206.98 24.766 9.35 50.926 12.62 75.223 22.89 3.742 22.43-1.398 44.86 3.742 66.83 5.606 17.27 23.36 24.75 38.774 30.83 235.949 89.7 483.111 152.31 734.941 175.21 28.5 1.86 57.47 4.67 85.5 10.74m102.33-61.68c-7.01-15.88-6.55-33.63-6.55-50.45 26.64-.47 53.27-.47 79.9 0v51.39c-24.76-.47-49.06 1.87-73.35-.94m-88.78-74.75c-12.61-6.07-20.09-17.75-28.5-28.03-.46 9.81-.93 19.62-1.4 29.43-24.76-4.67-49.53-6.08-74.29-5.61-.47-24.29 1.4-49.52-.93-73.81-7.01-45.32-2.81-91.11-3.74-136.43 26.63 2.33 52.8 6.53 79.43 5.6.93 30.84-1.87 61.67.93 92.04 2.8 16.82 4.67 35.51 18.69 46.72 15.89 15.43 39.72 9.35 59.81 10.75.47 21.5.47 43.46 0 64.95-16.82 0-35.04 2.8-50-5.61m-506.468-2.8c-56.062-11.22-111.664-24.77-166.797-39.25-2.332-68.21 0-136.43-.93-204.64-1.402-26.64 3.27-52.8 5.606-79.43 58.402 14.95 116.805 28.96 174.738 43.92 42.981 11.21 80.364 46.25 87.836 90.64 5.141 19.62-1.867 39.71-11.211 57.01-7.011 14.48-24.297 17.74-37.383 23.82 9.352 14.48 22.899 28.04 23.836 46.26.461 14.48 1.395 31.3-8.414 43.45-15.886 19.15-43.922 24.29-67.281 18.22m589.168 3.73c0-18.68.94-37.37-.93-56.06-7.02-49.53-2.8-99.52-3.74-149.51 26.64-.47 52.79-.47 79.42 0 1.41 42.52-3.26 85.03 2.81 127.09 3.27 26.15 1.87 52.32 1.87 78.48-26.63.47-52.8.47-79.43 0m136.43-.93c-11.21-29.9-2.34-61.67-6.54-92.04-6.54-38.78-.94-78.5-8.88-116.81 28.04.47 56.54-1.4 84.11-5.6-1.87 39.24 7 78.02 5.14 117.27-.47 19.63 14.47 43.45 36.9 37.38 18.69-2.34 20.1-24.3 21.5-39.25-1.4-38.78-6.08-78.5 0-117.27 26.63-5.14 54.66-1.4 81.75-2.34.47 42.05-.46 84.11.47 126.15-.47 15.42.48 31.77-5.13 46.25-8.41 21.96-28.04 38.32-50.46 43.46-29.44 10.28-59.81-2.34-83.64-19.15-2.34 7 .47 18.21-9.34 20.08-21.03 5.61-43.92 3.27-65.88 1.87m-561.6-50.46c-15.42-10.75-21.03-29.43-24.76-46.72 23.36 0 46.72 1.4 69.15 7.01 6.53 6.07 11.68 13.08 18.21 19.15 12.16 7.48 27.57 8.88 39.72.93 0-8.4 4.67-21.48-5.61-25.69-35.97-16.35-78.95-17.29-109.79-44.86-22.9-16.81-26.63-50.45-17.76-76.15 11.69-20.56 35.51-31.3 58.87-29.9 28.04 2.8 56.07 13.08 77.56 31.3 4.21-4.2 7.94-8.41 12.15-12.62 24.76.47 49.52 6.55 73.82 10.29-4.2 26.16-10.75 51.86-9.35 78.49.94 30.84 0 61.68-7 91.58-8.41 25.7-39.25 31.3-63.08 30.37-39.24-2.34-80.36-8.41-112.13-33.18m862.5 15.88c-15.42-7.94-29.45-24.29-26.16-42.97 22.42-6.55 46.24-11.23 69.14-9.36 14.49 10.29 35.5 21.5 51.39 7.48 9.82-6.07 16.35-24.29 4.21-30.37-41.11-5.61-86.43 7.01-123.83-16.35-17.74-12.14-22.42-35.04-20.08-55.13-1.87-22.9 15.88-39.71 33.18-51.4 33.16-18.68 76.15-19.62 110.26-1.4 3.74-7.94 6.08-20.09 16.35-21.02 24.29-4.21 49.06-6.54 73.36-10.75-7.01 40.19-2.34 81.3-3.74 121.94 0 30.84 6.06 68.69-22.43 89.71-30.83 19.15-67.75 27.1-103.72 27.57-19.15-.47-40.65 2.8-57.93-7.95m265.38-46.25c-29.91-11.21-39.72-52.33-20.56-77.09 27.57-42.05 82.23-48.59 121.01-76.16.92-7.01 2.8-17.75-5.61-21.02-14.01-3.27-30.36-2.33-42.05 7.01-8.42 7.94-12.15 19.15-19.16 27.56-25.69 8.41-51.86 14.02-78.49 16.35 2.34-23.83 11.22-48.59 29.91-64.94 30.83-28.04 72.42-40.18 113.06-46.25 21.97-3.74 45.33.47 65.41 10.75 14.03 7 20.57 22.89 23.83 37.37 6.54 21.49-5.14 43.92-18.23 60.74-31.29 32.24-78.02 39.72-114.47 64-.46 7.01-3.73 18.7 7.02 19.17 21.49 5.6 39.24-12.62 49.99-28.97 23.83-9.35 49.53-13.08 74.3-19.63 1.39 37.39-30.38 65.89-63.08 78.5-38.32 14.95-82.24 28.5-122.88 12.61" style="fill:#000;fill-opacity:1;fill-rule:nonzero;stroke:none" transform="matrix(.13333 0 0 -.13333 0 525.227)" data-source="https://football-logos.cc"></path><path d="M1477.83 3877.48c24.29 2.81 48.59.47 73.35.94v-51.39c-26.63-.47-53.26-.47-79.9 0 0 16.82-.46 34.57 6.55 50.45M1389.05 3802.73c14.96 8.41 33.18 5.61 50 5.61.47-21.49.47-43.45 0-64.95-20.09-1.4-43.92 4.68-59.81-10.75-14.02-11.21-15.89-29.9-18.69-46.72-2.8-30.37 0-61.2-.93-92.04-26.63.93-52.8-3.27-79.43-5.6.93 45.32-3.27 91.11 3.74 136.43 2.33 24.29.46 49.52.93 73.81 24.76-.47 49.53.94 74.29 5.61.47-9.81.94-19.62 1.4-29.43 8.41 10.28 15.89 21.96 28.5 28.03M882.582 3799.93c23.359 6.07 51.395.93 67.281-18.22 9.809-12.15 8.875-28.97 8.414-43.45-.937-18.22-14.484-31.78-23.836-46.26 13.086-6.08 30.372-9.34 37.383-23.82 9.344-17.3 16.352-37.39 11.211-57.01-7.472-44.39-44.855-79.43-87.836-90.64-57.933-14.96-116.336-28.97-174.738-43.92-2.336 26.63-7.008 52.79-5.606 79.43.93 68.21-1.402 136.43.93 204.64 55.133 14.48 110.735 28.03 166.797 39.25m-78.019-81.76c-1.872-13.56-.942-27.57-.942-41.12 23.367 5.61 48.121 7.94 68.215 21.02 7.008 7.48 11.684 23.83.469 29.9-22.895 4.21-46.258-2.79-67.742-9.8m.46-97.19c1.403-16.82 3.743-34.1 4.211-50.93 23.825 6.55 48.586 10.29 71.008 21.5 21.028 9.81 16.36 54.2-10.738 48.12-21.965-4.67-44.852-7.94-64.481-18.69M1471.75 3803.66c26.63.47 52.8.47 79.43 0 0-26.16 1.4-52.33-1.87-78.48-6.07-42.06-1.4-84.57-2.81-127.09-26.63-.47-52.78-.47-79.42 0 .94 49.99-3.28 99.98 3.74 149.51 1.87 18.69.93 37.38.93 56.06M1608.18 3802.73c21.96 1.4 44.85 3.74 65.88-1.87 9.81-1.87 7-13.08 9.34-20.08 23.83 16.81 54.2 29.43 83.64 19.15 22.42-5.14 42.05-21.5 50.46-43.46 5.61-14.48 4.66-30.83 5.13-46.25-.93-42.04 0-84.1-.47-126.15-27.09.94-55.12-2.8-81.75 2.34-6.08 38.77-1.4 78.49 0 117.27-1.4 14.95-2.81 36.91-21.5 39.25-22.43 6.07-37.37-17.75-36.9-37.38 1.86-39.25-7.01-78.03-5.14-117.27-27.57 4.2-56.07 6.07-84.11 5.6 7.94 38.31 2.34 78.03 8.88 116.81 4.2 30.37-4.67 62.14 6.54 92.04M1046.58 3752.27c31.77 24.77 72.89 30.84 112.13 33.18 23.83.93 54.67-4.67 63.08-30.37 7-29.9 7.94-60.74 7-91.58-1.4-26.63 5.15-52.33 9.35-78.49-24.3-3.74-49.06-9.82-73.82-10.29-4.21 4.21-7.94 8.42-12.15 12.62-21.49-18.22-49.52-28.5-77.56-31.3-23.36-1.4-47.18 9.34-58.87 29.9-8.87 25.7-5.14 59.34 17.76 76.15 30.84 27.57 73.82 28.51 109.79 44.86 10.28 4.21 5.61 17.29 5.61 25.69-12.15 7.95-27.56 6.55-39.72-.93-6.53-6.07-11.68-13.08-18.21-19.15-22.43-5.61-45.79-7.01-69.15-7.01 3.73 17.29 9.34 35.97 24.76 46.72m53.26-109.32c-5.14-6.08-10.74-16.36-3.27-22.9 9.35-13.08 29.9-9.81 42.05-1.87 13.08 13.09 14.95 33.17 15.89 50.93-18.69-7.47-38.31-14.02-54.67-26.16M1909.08 3768.15c17.28 10.75 38.78 7.48 57.93 7.95 35.97-.47 72.89-8.42 103.72-27.57 28.49-21.02 22.43-58.87 22.43-89.71 1.4-40.64-3.27-81.75 3.74-121.94-24.3 4.21-49.07 6.54-73.36 10.75-10.27.93-12.61 13.08-16.35 21.02-34.11-18.22-77.1-17.28-110.26 1.4-17.3 11.69-35.05 28.5-33.18 51.4-2.34 20.09 2.34 42.99 20.08 55.13 37.4 23.36 82.72 10.74 123.83 16.35 12.14 6.08 5.61 24.3-4.21 30.37-15.89 14.02-36.9 2.81-51.39-7.48-22.9-1.87-46.72 2.81-69.14 9.36-3.29 18.68 10.74 35.03 26.16 42.97m48.58-127.54c-12.61-3.27-12.14-20.56-3.73-27.57 8.87-13.08 26.15-12.15 39.71-8.88 16.36 8.88 16.36 29.44 20.09 45.79-18.69-3.27-38.31-3.27-56.07-9.34" style="fill:#fdfdfd;fill-opacity:1;fill-rule:nonzero;stroke:none" transform="matrix(.13333 0 0 -.13333 0 525.227)"></path><path d="M804.563 3718.17c21.484 7.01 44.847 14.01 67.742 9.8 11.215-6.07 6.539-22.42-.469-29.9-20.094-13.08-44.848-15.41-68.215-21.02 0 13.55-.93 27.56.942 41.12" style="fill:#000;fill-opacity:1;fill-rule:nonzero;stroke:none" transform="matrix(.13333 0 0 -.13333 0 525.227)"></path><path d="M2174.46 3721.9c40.64 15.89 84.56 2.34 122.88-12.61 32.7-12.61 64.47-41.11 63.08-78.5-24.77 6.55-50.47 10.28-74.3 19.63-10.75 16.35-28.5 34.57-49.99 28.97-10.75-.47-7.48-12.16-7.02-19.17 36.45-24.28 83.18-31.76 114.47-64 13.09-16.82 24.77-39.25 18.23-60.74-3.26-14.48-9.8-30.37-23.83-37.37-20.08-10.28-43.44-14.49-65.41-10.75-40.64 6.07-82.23 18.21-113.06 46.25-18.69 16.35-27.57 41.11-29.91 64.94 26.63-2.33 52.8-7.94 78.49-16.35 7.01-8.41 10.74-19.62 19.16-27.56 11.69-9.34 28.04-10.28 42.05-7.01 8.41 3.27 6.53 14.01 5.61 21.02-38.78 27.57-93.44 34.11-121.01 76.16-19.16 24.76-9.35 65.88 20.56 77.09" style="fill:#fdfdfd;fill-opacity:1;fill-rule:nonzero;stroke:none" transform="matrix(.13333 0 0 -.13333 0 525.227)"></path><path d="M1099.84 3642.95c16.36 12.14 35.98 18.69 54.67 26.16-.94-17.76-2.81-37.84-15.89-50.93-12.15-7.94-32.7-11.21-42.05 1.87-7.47 6.54-1.87 16.82 3.27 22.9M1957.66 3640.61c17.76 6.07 37.38 6.07 56.07 9.34-3.73-16.35-3.73-36.91-20.09-45.79-13.56-3.27-30.84-4.2-39.71 8.88-8.41 7.01-8.88 24.3 3.73 27.57M805.023 3620.98c19.629 10.75 42.516 14.02 64.481 18.69 27.098 6.08 31.766-38.31 10.738-48.12-22.422-11.21-47.183-14.95-71.008-21.5-.468 16.83-2.808 34.11-4.211 50.93M584.027 3186.93c12.149 15.42 21.028 34.11 36.911 46.73 20.554-7.95 38.316-21.5 57.933-31.31 32.246-15.89 64.484-31.77 96.719-48.12 210.25-99.06 440.12-156.99 672.33-169.6 45.33-5.61 90.64-2.34 135.97-3.28 34.57-1.4 68.68 4.67 102.78 5.14 161.66 12.15 320.99 46.73 473.77 100.93 90.18 31.3 176.61 72.42 261.18 116.8 16.82 10.28 33.17 21.49 50 31.77 26.15-32.7 49.52-67.28 74.28-100.92 108.39-151.38 213.52-305.56 311.63-463.95 6.08-11.21 17.77-27.57 5.14-38.78-43.44-48.6-85.03-99.99-120.55-155.12-55.12-85.03-87.36-183.62-94.83-284.53-4.2-29.91-4.2-60.75 0-90.65 7.94-97.18 34.1-192.96 83.62-277.52 37.39-62.62 83.65-121.5 141.58-166.34 63.07-53.25 137.83-91.58 215.84-116.8v-198.1c-11.21-40.65-12.6-83.18-21.95-124.29-14.47-71.49-36.44-141.1-63.07-208.86-32.24-74.751-74.77-145.759-128.95-206.97-32.7-32.719-63.55-67.75-100.93-95.308-61.67-45.801-128.01-86.903-200.91-112.614-115.4-41.097-229.4-86.429-342.48-133.609-75.21-33.649-151.36-64.488-224.24-102.797-143.45-73.352-271.94-173.812-381.26-291.55-21.97-21.02-38.32-46.731-60.28-67.282-13.08 4.2-20.56 16.82-28.97 26.629-29.43 35.98-61.67 69.16-95.3 100.922-71.96 64.937-148.11 125.679-232.69 173.808-35.97 20.563-71.95 42.063-110.73 57.942-174.269 83.168-352.746 156.519-534.504 221.937-35.972 13.063-72.882 25.684-107.457 42.043-86.906 43.93-166.332 102.309-230.808 175.68-37.848 45.777-73.821 94.379-99.52 148.559-53.734 106.54-90.644 221.94-107.93 340.61-7.945 46.26-7.476 93.46-16.351 139.25v66.34c3.734 16.81 6.074 33.63 13.543 49.06 10.285 6.07 21.965 9.81 33.18 14.01 39.71 14.94 77.558 35.99 114.004 58.41 111.199 78.49 200.898 188.75 249.031 316.3 37.371 87.37 40.18 185.02 32.703 278.47-16.352 138.77-74.285 273.33-169.606 376.11-15.882 21.03-37.375 37.38-52.792 58.87 21.492 39.25 48.589 76.16 71.949 114.94 94.847 143.9 190.168 287.81 292.015 427.04m38.778 22.43c-121.477-166.33-237.344-337.8-348.547-511.61-9.809-17.76-24.293-33.17-31.774-52.33 9.352-14.01 22.899-24.76 34.582-36.45 108.395-114.93 176.141-268.18 185.485-426.57v-93.44c-4.207-79.89-27.567-158.4-65.41-228.94-16.356-36.44-39.25-69.15-62.141-101.39-56.531-74.28-125.687-140.17-208.383-184.08-31.773-20.56-69.152-29.44-102.32-47.67-2.805-33.63 0-67.74-.934-101.38-1.87-34.11 4.207-67.75 6.07-101.85 12.149-93.92 34.106-187.36 70.083-275.2 34.582-85.501 76.16-170.54 140.168-238.29 67.285-78.488 153.718-139.691 248.097-181.281 73.821-30.828 149.977-54.66 223.801-85.039 88.305-32.692 174.742-70.531 261.645-107.918 52.793-24.754 106.993-47.184 158.853-74.293 82.7-39.707 160.73-89.231 232.68-145.77 29.9-26.168 62.6-49.519 89.7-78.488 30.37-32.242 64.01-60.742 91.11-95.77 5.15-5.62 10.28-13.09 18.69-13.09 15.89 15.41 30.37 32.7 44.86 49.977 133.16 142.981 294.82 260.25 474.69 337.813 160.27 72.879 323.32 138.758 488.71 198.109 82.24 32.692 159.8 78.949 225.68 138.75 38.31 30.379 68.67 68.68 98.58 107 48.13 62.621 84.09 133.621 109.34 208.38 30.36 89.71 52.32 182.7 59.79 277.53 6.08 40.18 3.28 80.84 3.74 121.48 0 19.62 1.4 39.72-.92 59.33-16.36 10.74-35.99 13.56-53.28 21.97-76.15 34.1-147.16 80.82-204.17 141.56-49.05 46.25-85.5 104.19-116.8 163.54-32.72 71.01-55.61 147.64-63.08 225.66 0 23.36-3.28 46.72-4.68 70.09 4.21 30.83 3.28 62.61 8.42 93.44 14.47 94.38 50.45 185.49 105.58 263.52 31.32 49.99 70.56 93.91 109.33 138.29-26.62 52.33-62.6 99.52-92.5 150.45-92.97 141.1-189.69 279.87-290.14 415.83-66.36-41.59-137.37-74.76-209.33-105.13-178-74.28-367.69-121.47-560.19-136.43-26.17-3.74-52.33-.93-78.5-4.67-28.96-4.2-57.93-1.4-86.9-2.34-20.56-.46-41.12 0-61.67 3.27-276.13 10.28-548.988 87.37-792.882 216.8-18.215 9.34-35.04 22.89-55.133 26.63" style="fill:#000;fill-opacity:1;fill-rule:nonzero;stroke:none" transform="matrix(.13333 0 0 -.13333 0 525.227)"></path><path d="M622.805 3209.36c20.093-3.74 36.918-17.29 55.133-26.63 243.894-129.43 516.752-206.52 792.882-216.8 20.55-3.27 41.11-3.73 61.67-3.27 28.97.94 57.94-1.86 86.9 2.34 26.17 3.74 52.33.93 78.5 4.67 192.5 14.96 382.19 62.15 560.19 136.43 71.96 30.37 142.97 63.54 209.33 105.13 100.45-135.96 197.17-274.73 290.14-415.83 29.9-50.93 65.88-98.12 92.5-150.45-38.77-44.38-78.01-88.3-109.33-138.29-55.13-78.03-91.11-169.14-105.58-263.52-5.14-30.83-4.21-62.61-8.42-93.44 1.4-23.37 4.68-46.73 4.68-70.09 7.47-78.02 30.36-154.65 63.08-225.66 31.3-59.35 67.75-117.29 116.8-163.54 57.01-60.74 128.02-107.46 204.17-141.56 17.29-8.41 36.92-11.23 53.28-21.97 2.32-19.61.92-39.71.92-59.33-.46-40.64 2.34-81.3-3.74-121.48-7.47-94.83-29.43-187.82-59.79-277.53-25.25-74.759-61.21-145.759-109.34-208.38-29.91-38.32-60.27-76.621-98.58-107-65.88-59.801-143.44-106.058-225.68-138.75-165.39-59.351-328.44-125.23-488.71-198.109-179.87-77.563-341.53-194.832-474.69-337.813-14.49-17.277-28.97-34.566-44.86-49.976-8.41 0-13.54 7.468-18.69 13.09-27.1 35.027-60.74 63.527-91.11 95.769-27.1 28.969-59.8 52.32-89.7 78.488-71.95 56.539-149.98 106.063-232.68 145.77-51.86 27.109-106.06 49.539-158.853 74.293-86.903 37.387-173.34 75.226-261.645 107.918-73.824 30.379-149.98 54.211-223.801 85.039-94.379 41.59-180.812 102.793-248.097 181.281-64.008 67.75-105.586 152.789-140.168 238.29-35.977 87.84-57.934 181.28-70.082 275.2-1.864 34.1-7.942 67.74-6.07 101.85.933 33.64-1.872 67.75.933 101.38 33.168 18.23 70.547 27.11 102.32 47.67 82.696 43.91 151.852 109.8 208.383 184.08 22.891 32.24 45.785 64.95 62.141 101.39 37.843 70.54 61.203 149.05 65.41 228.94v93.44c-9.344 158.39-77.09 311.64-185.485 426.57-11.683 11.69-25.23 22.44-34.582 36.45 7.481 19.16 21.965 34.57 31.774 52.33 111.203 173.81 227.07 345.28 348.547 511.61m-3.739-57.47c-106.054-150.44-211.179-301.36-308.828-457.41-8.414-14.49-21.961-27.1-25.234-44.38 10.277-15.89 23.363-29.44 36.445-43.46 135.492-154.65 196.231-370.04 167.735-572.82-8.875-81.75-46.258-156.51-85.036-228-25.23-39.25-50.46-78.96-82.699-113.07-30.371-28.5-57.937-60.73-91.578-85.97-41.117-34.11-87.836-60.73-136.43-82.69-12.144-5.14-24.296-9.36-35.507-16.36-3.266-21.49-7.473-43.46-4.203-65.41 4.671-30.37 0-61.67 5.14-92.51 13.547-141.57 55.598-280.32 123.809-405.548 26.168-46.723 59.336-89.242 94.386-129.422 21.957-25.231 48.586-45.32 73.817-66.352 58.402-47.187 126.148-81.277 196.234-106.988 95.317-34.578 188.758-73.352 283.141-109.801 99.515-42.98 200.442-83.629 297.152-132.679 144.84-66.821 275.66-162.61 387.79-275.68 15.89-15.871 28.5-35.02 45.33-49.988 17.29 14.5 30.83 32.707 45.78 49.539 91.11 95.777 195.77 179.41 310.7 245.281 86.44 50 178.48 87.848 269.6 128.027 77.08 32.231 153.71 64.481 231.73 94.84 87.38 36.91 179.42 63.539 260.71 113.07 44.86 28.5 89.25 59.332 125.21 99.051 40.19 36.899 74.3 79.899 102.33 126.621 28.5 47.188 48.6 98.119 71.02 148.569 8.88 27.1 16.36 55.14 24.76 82.71 16.82 62.14 25.7 126.14 33.64 190.15 2.33 22.9-.94 45.79 2.8 68.69 5.15 26.63-2.8 53.27-2.33 80.36 1.4 7.47-4.68 10.27-10.75 12.15-234.07 90.64-407.41 321.44-427.03 572.35-3.74 70.55-1.4 142.5 15.88 211.64 29.44 134.1 107 252.31 198.11 353.23-7.96 17.28-20.58 32.24-30.38 48.59-67.28 109.32-141.09 213.99-212.59 320.51-28.03 38.78-56.06 78.03-83.63 116.81-8.87 12.14-15.88 25.69-28.51 33.17-15.41-5.61-28.96-14.95-42.97-22.89-31.77-19.63-67.27-32.71-101.39-48.6-116.81-53.26-239.21-93.44-364.43-121.01-79.9-20.09-162.12-28.03-243.42-37.85-52.8-7.94-106.07-.93-158.87-5.13-49.99 4.2-99.98-2.34-149.97 4.68-246.69 19.14-488.717 90.16-707.842 204.16-17.754 8.89-33.637 21.97-52.797 26.64-7.473-3.27-11.676-10.75-16.825-16.82" style="fill:#fdfdfd;fill-opacity:1;fill-rule:nonzero;stroke:none" transform="matrix(.13333 0 0 -.13333 0 525.227)"></path><path d="M619.066 3151.89c5.149 6.07 9.352 13.55 16.825 16.82 19.16-4.67 35.043-17.75 52.797-26.64 219.125-114 461.152-185.02 707.842-204.16 49.99-7.02 99.98-.48 149.97-4.68 52.8 4.2 106.07-2.81 158.87 5.13 81.3 9.82 163.52 17.76 243.42 37.85 125.22 27.57 247.62 67.75 364.43 121.01 34.12 15.89 69.62 28.97 101.39 48.6 14.01 7.94 27.56 17.28 42.97 22.89 12.63-7.48 19.64-21.03 28.51-33.17 27.57-38.78 55.6-78.03 83.63-116.81 71.5-106.52 145.31-211.19 212.59-320.51 9.8-16.35 22.42-31.31 30.38-48.59-91.11-100.92-168.67-219.13-198.11-353.23-17.28-69.14-19.62-141.09-15.88-211.64 19.62-250.91 192.96-481.71 427.03-572.35 6.07-1.88 12.15-4.68 10.75-12.15-.47-27.09 7.48-53.73 2.33-80.36-3.74-22.9-.47-45.79-2.8-68.69-7.94-64.01-16.82-128.01-33.64-190.15-8.4-27.57-15.88-55.61-24.76-82.71-22.42-50.45-42.52-101.381-71.02-148.569-28.03-46.722-62.14-89.722-102.33-126.621-35.96-39.719-80.35-70.551-125.21-99.051-81.29-49.531-173.33-76.16-260.71-113.07-78.02-30.359-154.65-62.609-231.73-94.84-91.12-40.179-183.16-78.027-269.6-128.027-114.93-65.871-219.59-149.504-310.7-245.281-14.95-16.832-28.49-35.04-45.78-49.54-16.83 14.97-29.44 34.118-45.33 49.989-112.13 113.07-242.95 208.859-387.79 275.68-96.71 49.05-197.637 89.699-297.152 132.679-94.383 36.449-187.824 75.223-283.141 109.801-70.086 25.711-137.832 59.801-196.234 106.988-25.231 21.032-51.86 41.121-73.817 66.352-35.05 40.18-68.218 82.699-94.386 129.422C114.469 1069.49 72.418 1208.24 58.871 1349.81c-5.14 30.84-.469 62.14-5.14 92.51-3.27 21.95.937 43.92 4.203 65.41 11.21 7 23.363 11.22 35.507 16.36 48.594 21.96 95.313 48.58 136.43 82.69 33.641 25.24 61.207 57.47 91.578 85.97 32.239 34.11 57.469 73.82 82.699 113.07 38.778 71.49 76.161 146.25 85.036 228 28.496 202.78-32.243 418.17-167.735 572.82-13.082 14.02-26.168 27.57-36.445 43.46 3.273 17.28 16.82 29.89 25.234 44.38 97.649 156.05 202.774 306.97 308.828 457.41m-8.871-65.88c-55.601-77.09-109.332-156.05-161.664-235.48-35.039-53.73-71.949-106.06-105.586-160.72-7.011-11.68-17.293-21.49-20.562-35.04 11.215-19.16 28.031-34.57 41.586-52.33 93.914-119.61 151.847-267.72 160.719-419.57 4.671-33.17 5.14-66.35.468-99.53-3.265-44.37-7.476-89.69-22.426-131.74-16.816-54.67-41.578-106.54-68.683-157-45.785-74.28-99.981-144.82-169.129-199.03-28.504-23.84-57.941-45.79-89.242-64.93-28.965-17.3-60.738-29.44-90.172-46.26-5.606-48.6.93-97.66 5.137-145.78 11.683-114.01 42.988-225.68 92.039-328.94 29.902-58.851 64.008-116.789 110.269-164.922 17.289-23.359 40.649-40.179 61.207-60.258 37.848-32.242 80.36-57.941 123.809-81.781 43.457-20.551 89.246-35.488 134.098-52.789 184.082-65.879 363.5-143.43 540.577-225.68 48.13-23.82 93.44-52.769 139.7-80.351 58.4-39.719 117.27-80.82 169.13-128.949 35.98-28.508 65.41-64.008 99.06-94.379 46.72 42.508 86.9 91.57 136.89 130.347 50 43.454 104.19 80.84 158.85 117.274C1974.01 442.469 2103.9 494.801 2231.45 549c99.99 41.102 199.98 81.762 300.9 119.602 79.42 29.429 156.05 69.617 218.65 126.617 37.38 28.5 65.89 65.883 94.39 102.32 32.7 42.981 59.33 90.172 79.42 140.161 39.72 95.79 66.82 196.71 78.03 299.97 3.28 49.05 10.28 98.11 4.67 146.71-87.37 36.44-170.53 87.82-235.94 156.97-93.45 90.65-157.92 209.79-186.89 336.41-36.44 146.24-21.96 304.16 36.9 442.93 26.65 64.01 64.95 122.87 106.54 178.01 13.08 18.22 29.43 33.17 41.11 51.86-6.07 19.16-20.09 34.58-30.37 51.39-89.25 142.97-185.03 281.74-281.28 419.57-5.13 9.34-16.34 2.8-23.36 0-46.25-22.42-91.1-47.66-138.75-67.28-208.39-89.71-433.12-142.03-660.19-152.32h-186.89c-172.87 10.29-345.27 41.59-508.804 98.59-85.973 28.04-169.602 63.54-249.496 105.59-16.356 7.01-31.305 18.7-49.059 20.56-12.613-12.15-20.562-27.1-30.836-40.65" style="fill:#000;fill-opacity:1;fill-rule:nonzero;stroke:none" transform="matrix(.13333 0 0 -.13333 0 525.227)"></path><path d="M610.195 3086.01c10.274 13.55 18.223 28.5 30.836 40.65 17.754-1.86 32.703-13.55 49.059-20.56 79.894-42.05 163.523-77.55 249.496-105.59 163.534-57 335.934-88.3 508.804-98.59h186.89c227.07 10.29 451.8 62.61 660.19 152.32 47.65 19.62 92.5 44.86 138.75 67.28 7.02 2.8 18.23 9.34 23.36 0 96.25-137.83 192.03-276.6 281.28-419.57 10.28-16.81 24.3-32.23 30.37-51.39-11.68-18.69-28.03-33.64-41.11-51.86-41.59-55.14-79.89-114-106.54-178.01-58.86-138.77-73.34-296.69-36.9-442.93 28.97-126.62 93.44-245.76 186.89-336.41 65.41-69.15 148.57-120.53 235.94-156.97 5.61-48.6-1.39-97.66-4.67-146.71-11.21-103.26-38.31-204.18-78.03-299.97-20.09-49.989-46.72-97.18-79.42-140.161-28.5-36.437-57.01-73.82-94.39-102.32-62.6-57-139.23-97.188-218.65-126.617-100.92-37.84-200.91-78.5-300.9-119.602-127.55-54.199-257.44-106.531-375.18-180.828-54.66-36.434-108.85-73.82-158.85-117.274-49.99-38.777-90.17-87.839-136.89-130.347-33.65 30.371-63.08 65.871-99.06 94.379-51.86 48.129-110.73 89.23-169.13 128.949-46.26 27.582-91.57 56.531-139.7 80.351-177.077 82.25-356.495 159.801-540.577 225.68-44.852 17.301-90.641 32.238-134.098 52.789-43.449 23.84-85.961 49.539-123.809 81.781-20.558 20.079-43.918 36.899-61.207 60.258-46.261 48.133-80.367 106.071-110.269 164.922-49.051 103.26-80.356 214.93-92.04 328.94-4.206 48.12-10.742 97.18-5.136 145.78 29.434 16.82 61.207 28.96 90.172 46.26 31.301 19.14 60.738 41.09 89.242 64.93 69.148 54.21 123.344 124.75 169.129 199.03 27.105 50.46 51.867 102.33 68.683 157 14.95 42.05 19.161 87.37 22.426 131.74 4.672 33.18 4.203 66.36-.468 99.53-8.872 151.85-66.805 299.96-160.719 419.57-13.555 17.76-30.371 33.17-41.586 52.33 3.269 13.55 13.551 23.36 20.562 35.04 33.637 54.66 70.547 106.99 105.586 160.72 52.332 79.43 106.063 158.39 161.664 235.48m-140.172-373.77c-9.808-15.42-21.492-29.44-28.968-45.79-4.668-7.01 2.34-12.62 6.074-18.22 32.246-40.66 58.871-85.51 83.633-131.3 21.031-47.19 43.457-94.37 56.539-144.37 36.914-126.61 44.851-261.65 20.086-391.06-11.211-61.68-34.571-120.55-60.739-177.55-66.808-134.09-168.195-249.96-292.476-334.07-23.367-18.68-50.93-29.89-76.16-45.77-1.867-18.24 3.265-36.45 4.207-54.67 9.344-118.2 44.383-233.15 94.847-339.67 21.02-43.461 50.922-81.782 83.164-117.739 13.083-17.769 29.434-32.722 47.188-46.722 51.395-47.2 114.004-80.829 179.414-105.137 161.195-60.262 321.449-124.281 478.908-193.434 77.55-34.578 156.05-67.738 228.47-112.59 81.29-47.199 156.52-104.199 227.54-165.41 14.01-11.668 24.29-28.5 42.04-35.039 123.82 124.762 272.87 222.871 431.25 298.102 160.73 70.539 323.32 137.359 487.79 198.57 37.83 14.469 76.61 27.09 111.19 48.117 36.44 21.5 72.42 44.864 103.26 74.293 26.16 27.11 54.66 51.848 75.69 83.629 28.03 34.57 47.18 75.68 65.87 115.86 44.86 111.67 70.56 230.83 75.23 350.9-13.56 9.34-28.03 16.36-42.05 24.29-59.33 33.65-114.01 74.75-161.19 123.81-132.7 130.82-214.46 309.77-233.61 494.33.47 41.11-11.21 81.76-2.81 122.41 3.75 73.35 16.82 146.71 42.05 215.86 20.56 67.27 54.66 128.95 92.52 187.82 14.94 23.36 33.17 44.38 47.65 68.22-7.47 18.22-20.08 33.63-31.3 49.99-55.15 86.9-115.41 171-173.35 256.5-9.34 13.55-17.29 30.37-31.76 38.78-18.23-5.14-34.58-16.35-51.87-23.36-123.8-52.8-251.37-98.11-383.59-125.21-97.64-23.83-198.09-35.52-298.09-43.92-66.81-7.94-134.09-2.34-200.9-4.21-31.31-1.87-62.14 5.14-93.45 5.14-249.49 19.16-495.25 85.97-720.457 196.23-67.742-98.58-135.957-197.63-201.84-297.61" style="fill:#fdfdfd;fill-opacity:1;fill-rule:nonzero;stroke:none" transform="matrix(.13333 0 0 -.13333 0 525.227)" data-source="https://football-logos.cc"></path><path d="M470.023 2712.24c65.883 99.98 134.098 199.03 201.84 297.61 225.207-110.26 470.967-177.07 720.457-196.23 31.31 0 62.14-7.01 93.45-5.14 66.81 1.87 134.09-3.73 200.9 4.21 100 8.4 200.45 20.09 298.09 43.92 132.22 27.1 259.79 72.41 383.59 125.21 17.29 7.01 33.64 18.22 51.87 23.36 14.47-8.41 22.42-25.23 31.76-38.78 57.94-85.5 118.2-169.6 173.35-256.5 11.22-16.36 23.83-31.77 31.3-49.99-14.48-23.84-32.71-44.86-47.65-68.22-37.86-58.87-71.96-120.55-92.52-187.82-25.23-69.15-38.3-142.51-42.05-215.86-8.4-40.65 3.28-81.3 2.81-122.41 19.15-184.56 100.91-363.51 233.61-494.33 47.18-49.06 101.86-90.16 161.19-123.81 14.02-7.93 28.49-14.95 42.05-24.29-4.67-120.07-30.37-239.23-75.23-350.9-18.69-40.18-37.84-81.29-65.87-115.86-21.03-31.781-49.53-56.519-75.69-83.629-30.84-29.429-66.82-52.793-103.26-74.293-34.58-21.027-73.36-33.648-111.19-48.117-164.47-61.211-327.06-128.031-487.79-198.57-158.38-75.231-307.43-173.34-431.25-298.102-17.75 6.539-28.03 23.371-42.04 35.039-71.02 61.211-146.25 118.211-227.54 165.41-72.42 44.852-150.92 78.012-228.47 112.59-157.459 69.153-317.713 133.172-478.908 193.434-65.41 24.308-128.019 57.937-179.414 105.137-17.754 14-34.105 28.953-47.188 46.722-32.242 35.957-62.144 74.278-83.164 117.739-50.464 106.52-85.503 221.47-94.847 339.67-.942 18.22-6.074 36.43-4.207 54.67 25.23 15.88 52.793 27.09 76.16 45.77 124.281 84.11 225.668 199.98 292.476 334.07 26.168 57 49.528 115.87 60.739 177.55 24.765 129.41 16.828 264.45-20.086 391.06-13.082 50-35.508 97.18-56.539 144.37-24.762 45.79-51.387 90.64-83.633 131.3-3.734 5.6-10.742 11.21-6.074 18.22 7.476 16.35 19.16 30.37 28.968 45.79m188.762 208.38c.469-140.17-.469-280.34 0-420.51 20.086-.47 40.649-.47 60.742 0 .461 143.44-.468 286.88.461 429.85-.461 7.47-.461 14.48-1.863 21.49-11.223 7.01-22.898 13.08-35.508 16.36-12.152-13.09-24.765-28.51-23.832-47.19m1018.545-140.17c-34.58 1.86-68.21-6.54-102.79-4.67-37.85.93-75.69-2.81-113.07 2.8-27.56 3.73-55.13 1.87-83.16 1.87v-850.36c18.22 0 36.44-1.86 54.19 1.41 11.68 38.79 33.65 81.77 75.69 93.91 14.02 4.68 27.57 12.15 42.99 12.15 25.7 1.87 52.33-2.8 78.02 1.87 15.89 7.95 28.97 21.49 44.86 29.44 27.57 13.55 55.6 27.56 80.83 45.32 14.01 9.81 9.34 28.96 13.08 42.98 6.55 7.01 22.43 7.95 21.49 19.62-30.36 15.43-64.01 26.17-98.12 29.44-19.15 1.87-29.9 22.9-29.9 40.65-4.67 17.75 6.08 36.91-.93 53.73-28.5 6.07-61.21 13.08-76.62 40.65 3.73 14.95 17.75 24.3 23.82 37.84-1.87 15.42-17.28 32.24-6.07 47.19 19.62 21.03 41.11 40.18 57.47 64.01 19.16 24.3 17.76 57.47 32.23 84.57 13.09 25.7 23.83 55.6 49.53 71.95 27.57 17.29 14.49 61.68 43.92 77.56 19.63 12.62 43.46 8.88 65.41 6.54 29.43 2.81 59.35 3.27 88.77 3.27 30.84 1.87 59.34-12.14 88.31-20.09 30.38-8.88 45.32-38.31 66.81-58.87 33.17-30.83 35.98-79.89 36.92-122.41 1.87-22.89-11.21-42.99-14.5-65.41-5.61-35.04-24.29-65.41-38.3-97.65-6.54-15.42-19.62-26.17-28.98-40.18-6.07-18.22-9.33-37.38-12.6-56.07 7.94-2.34 16.34-3.74 23.36-7.48 7.01-14.01 5.13-30.37 11.21-44.85 7.48-19.62 28.02-29.43 45.31-38.78 48.6-23.83 88.79-60.74 133.64-91.11 22.42-16.35 52.79-15.42 75.68-30.84 26.65-16.81 55.61-30.83 76.63-54.65 14.48-21.97 17.29-49.54 18.7-75.71h45.78c-12.62 49.07-21.96 98.6-24.77 149.06-7.95 55.13-1.4 110.73 3.73 165.85 18.23 139.71 71.03 274.74 153.72 388.74 5.61 11.21 21.96 22.9 13.56 35.98-12.15 21.49-28.03 41.11-40.19 62.6-20.55 35.05-46.25 66.35-67.74 100.46-25.69 38.31-53.27 74.75-78.49 113.06-5.6 7.95-11.21 16.82-20.09 21.02-228.47-106.51-477.51-170.06-729.34-186.41m-840.533 122.41c-.934-134.09-.469-268.65-.469-402.75 13.551 0 27.567-.93 40.649.93 13.55 25.24 21.961 54.2 24.761 83.17.469 90.17-.468 180.82.469 270.99-.469 8.88 0 17.29-1.871 26.17-21.023 7.48-42.043 14.95-63.539 21.49m181.743-57c-.46-87.37.47-174.28-.46-261.65-1.41-28.03 9.35-54.66 18.22-80.83 12.62-6.54 28.97-2.34 42.98-3.27.47 93.45-.47 186.9 0 280.34 0 16.82 1.4 33.17-1.4 49.99-19.15 6.54-39.24 10.28-59.34 15.42m177.55-41.58v-304.17c21.96-.47 43.45-.47 65.41 0 .47 90.65-.47 180.82.47 270.99-.47 8.41-.47 17.29-2.8 25.23-20.56 5.61-42.06 7.01-63.08 7.95m-698.031-106.06c-7.473-11.21-15.879-21.97-21.028-34.58 6.547-11.21 15.418-21.49 22.895-32.7 14.488-20.1 25.23-42.99 41.121-62.14a4290 4290 0 0 1 0 189.69c-17.293-17.75-28.969-40.18-42.988-60.27m441.527-77.09c-14.953-43.46-26.637-87.84-41.582-131.3-2.805-4.2-3.742-13.54-10.746-12.61-65.418-1.86-131.289.93-197.168-.93 50.461-39.25 102.785-75.23 154.183-113.07 10.274-6.08 5.606-19.16 3.266-28.5-14.945-44.39-29.902-88.77-44.379-133.16-4.207-12.61-7.015-25.7-8.883-39.25 20.094 10.75 36.914 26.17 55.602 39.25 36.445 25.7 71.488 52.8 107.93 78.49 20.554-11.21 37.839-27.56 56.531-41.11 37.85-26.17 74.29-54.2 112.13-80.37-19.62 61.68-41.58 122.42-59.33 184.56-.93 5.61-4.21 13.54 1.86 17.29 50.94 40.64 106.54 74.28 156.52 115.4-64.47 2.33-128.48 0-192.96.94-12.14-2.34-14.02 11.67-16.82 20.55-12.15 48.12-32.232 93.92-44.857 142.04-2.797 10.75-5.602 21.96-13.074 30.83-9.348-14.95-12.149-32.7-18.223-49.05m263.044-188.3c-7.94-4.2-6.07-14.01-6.54-21.49.47-160.26-.47-320.51 0-480.78 21.02 0 42.52-2.79 63.08 1.88 2.8 9.81 2.33 20.08 2.8 30.37-1.41 170.07.94 340.6-1.41 510.67-19.61-12.61-39.24-26.16-57.93-40.65m-543.376 35.98c-1.402-179.42-.469-358.82-.469-538.72 20.086-.46 40.649-.46 60.742 0 .461 160.74-.468 320.99 0 481.25 0 5.61-.468 11.22-1.402 16.82-18.227 15.42-37.379 30.37-58.871 40.65m178.476-302.29c-1.867-8.41-1.402-17.29-1.867-26.17.934-70.08 0-140.16.465-210.26 21.965-.46 43.453-.46 65.41 0-.468 93.92.938 187.83-.933 281.75-21.492-14.02-43.45-28.51-63.075-45.32m180.81 44.38v-280.81c20.1-.46 40.66-.46 60.74 0 .47 70.1-.47 140.18.47 210.26-.47 8.88 0 17.76-1.87 26.64-17.75 16.81-39.71 28.49-59.34 43.91m748.96-349.01c-25.22-1.41-51.86-.94-75.69-11.68-20.09-7-35.51-24.29-39.24-45.32-13.55-60.28-31.31-119.62-43.45-179.89-3.28-23.82 21.95-35.98 41.58-38.77 28.97-3.28 58.41-2.35 87.36-.94 28.98 4.2 63.55 17.76 71.5 49.52 13.07 56.54 28.02 112.61 41.58 168.68 3.73 13.54 4.67 30.83-7.48 41.11-21.03 17.75-49.98 16.35-76.16 17.29m-878.84-2.33c-2.336-12.15-4.672-24.3-6.078-36.46 28.504-.92 57.469.48 85.969-1.41-44.387-65.4-92.043-129.41-137.828-194.34-8.414-12.62-10.746-28.04-14.02-42.53 65.41 0 130.824-1.87 196.237.47 4.2 11.69 5.14 23.84 6.54 35.98-31.769.93-64.011-.46-95.781.93 12.145 23.35 28.969 43.46 43.449 64.94 30.844 42.52 61.202 85.04 91.112 128.03 9.34 13.08 11.68 28.96 12.61 44.39-60.73.46-121.472.92-182.21 0m267.25-.94c-33.17-60.28-58.87-124.28-90.64-185.49-14.96-28.97-26.17-59.8-42.05-88.78 28.97.94 57.93-2.33 86.43 1.88 11.69 23.36 19.63 48.58 32.24 71.48 13.55 2.81 27.1 1.41 40.65 1.41-3.27-24.77-6.54-49.53-5.14-74.77 28.03 0 56.07-.47 84.1 0-1.87 29.91 2.81 59.35 4.68 88.78 0 62.14.46 124.28 0 186.89-36.92-.93-73.83 2.33-110.27-1.4m187.82-1.41c-4.67-13.54-6.54-28.03-9.81-42.04-17.29-77.1-40.18-152.78-54.67-230.35 21.97-.47 43.46-1.87 64.95.47 16.82 45.79 21.02 94.38 36.44 140.63 3.28-7.94 6.54-15.88 6.54-24.76 3.27-38.77 7.01-77.56 10.75-116.34 19.62-.47 39.25-2.33 58.4.47 29.44 45.32 48.6 96.72 80.36 140.63-8.87-47.65-25.23-93.43-33.17-141.1 25.7.94 52.33-4.67 77.1 2.33 7.47 21.04 10.27 42.99 15.41 64.5 10.75 43.44 21.96 86.89 32.71 130.81 6.08 25.7 14.48 50.92 16.82 77.1-38.78 0-77.56 2.33-115.87-.94-19.63-46.26-42.99-90.64-65.89-135.02-7.47 45.32-6.07 90.63-6.07 136.42-29.9 0-59.34 0-88.77.46-8.41-.46-17.29.47-25.23-3.27m540.57 1.41c-8.87-28.03-14.01-57-21.95-85.5-13.55-63.08-30.83-125.69-45.32-188.3 29.44-.94 58.87-.94 87.84 0 9.81 43.46 18.21 86.91 30.83 129.89 7.96 1.41 21.96 1.88 21.96-9.33-1.4-40.19-27.57-78.03-16.35-118.69 28.03-5.6 57-1.4 85.5-2.34-7.47 28.98 1.41 57.94 8.88 85.51 5.14 16.35 11.68 37.37-2.34 50.93-6.07 7.01-23.35 4.66-22.89 15.87 17.76 7.02 38.3 13.56 47.65 31.79 8.42 18.21 12.62 38.77 11.69 58.87.93 11.67-11.21 17.28-20.1 21.95-31.76 14.02-67.27 10.29-101.37 10.75-21.5-.46-42.52 1.39-64.03-1.4m285.48 0c-25.23-47.2-47.66-96.25-70.09-144.84-22.89-42.05-41.1-86.91-62.61-129.43 28.98.94 57.94-2.33 86.45 1.88 11.68 23.36 19.63 48.58 32.24 71.48 13.07 2.81 27.11 1.41 40.64 1.41-3.26-24.77-6.53-49.53-5.14-74.77 28.03 0 56.07-.47 84.1 0-1.87 29.91 2.81 59.35 4.67 88.78 0 62.14.46 124.28 0 186.89-36.9-.93-73.81 2.33-110.26-1.4M394.336 1539.98c-12.617-8.89-23.359-19.64-35.512-29.45-34.57-31.76-73.351-57.94-111.66-84.56-13.551-9.8-37.383-15.89-32.711-37.84 4.68-94.39 26.168-187.82 61.211-275.67 30.836-72.88 68.215-145.769 127.086-199.972 49.52-53.726 113.996-90.648 180.809-118.679C762.504 727.012 940.52 656.91 1115.26 578.422c65.88-28.504 131.76-58.402 193.9-95.781 87.84-50.93 170.07-112.129 243.89-181.282 6.54-6.07 13.08 2.801 18.22 6.082 86.44 77.547 180.35 146.707 280.81 204.637 69.15 41.602 143.42 73.352 217.26 105.594 91.56 38.308 182.68 77.566 275.65 112.137 68.69 28.961 139.23 52.793 207.45 82.23 57 28.973 110.26 65.871 154.19 112.121 25.69 26.18 46.71 57.02 66.8 87.39 30.83 47.19 48.13 100.91 65.41 154.18 21.02 69.15 35.52 140.16 41.13 212.12 0 11.68 8.4 28.96-6.55 33.63-58.86 30.37-112.13 70.09-161.66 114-8.87 7.47-17.28 18.23-29.9 16.83H406.484c-3.269-.46-8.879-1.4-12.148-2.33" style="fill:#000;fill-opacity:1;fill-rule:nonzero;stroke:none" transform="matrix(.13333 0 0 -.13333 0 525.227)"></path><path d="M658.785 2920.62c-.933 18.68 11.68 34.1 23.832 47.19 12.61-3.28 24.285-9.35 35.508-16.36 1.402-7.01 1.402-14.02 1.863-21.49-.929-142.97 0-286.41-.461-429.85-20.093-.47-40.656-.47-60.742 0-.469 140.17.469 280.34 0 420.51M1677.33 2780.45c251.83 16.35 500.87 79.9 729.34 186.41 8.88-4.2 14.49-13.07 20.09-21.02 25.22-38.31 52.8-74.75 78.49-113.06 21.49-34.11 47.19-65.41 67.74-100.46 12.16-21.49 28.04-41.11 40.19-62.6 8.4-13.08-7.95-24.77-13.56-35.98-82.69-114-135.49-249.03-153.72-388.74-5.13-55.12-11.68-110.72-3.73-165.85 2.81-50.46 12.15-99.99 24.77-149.06h-45.78c-1.41 26.17-4.22 53.74-18.7 75.71-21.02 23.82-49.98 37.84-76.63 54.65-22.89 15.42-53.26 14.49-75.68 30.84-44.85 30.37-85.04 67.28-133.64 91.11-17.29 9.35-37.83 19.16-45.31 38.78-6.08 14.48-4.2 30.84-11.21 44.85-7.02 3.74-15.42 5.14-23.36 7.48 3.27 18.69 6.53 37.85 12.6 56.07 9.36 14.01 22.44 24.76 28.98 40.18 14.01 32.24 32.69 62.61 38.3 97.65 3.29 22.42 16.37 42.52 14.5 65.41-.94 42.52-3.75 91.58-36.92 122.41-21.49 20.56-36.43 49.99-66.81 58.87-28.97 7.95-57.47 21.96-88.31 20.09-29.42 0-59.34-.46-88.77-3.27-21.95 2.34-45.78 6.08-65.41-6.54-29.43-15.88-16.35-60.27-43.92-77.56-25.7-16.35-36.44-46.25-49.53-71.95-14.47-27.1-13.07-60.27-32.23-84.57-16.36-23.83-37.85-42.98-57.47-64.01-11.21-14.95 4.2-31.77 6.07-47.19-6.07-13.54-20.09-22.89-23.82-37.84 15.41-27.57 48.12-34.58 76.62-40.65 7.01-16.82-3.74-35.98.93-53.73 0-17.75 10.75-38.78 29.9-40.65 34.11-3.27 67.76-14.01 98.12-29.44.94-11.67-14.94-12.61-21.49-19.62-3.74-14.02.93-33.17-13.08-42.98-25.23-17.76-53.26-31.77-80.83-45.32-15.89-7.95-28.97-21.49-44.86-29.44-25.69-4.67-52.32 0-78.02-1.87-15.42 0-28.97-7.47-42.99-12.15-42.04-12.14-64.01-55.12-75.69-93.91-17.75-3.27-35.97-1.41-54.19-1.41v850.36c28.03 0 55.6 1.86 83.16-1.87 37.38-5.61 75.22-1.87 113.07-2.8 34.58-1.87 68.21 6.53 102.79 4.67M836.797 2902.86c21.496-6.54 42.516-14.01 63.539-21.49 1.871-8.88 1.402-17.29 1.871-26.17-.937-90.17 0-180.82-.469-270.99-2.8-28.97-11.211-57.93-24.761-83.17-13.082-1.86-27.098-.93-40.649-.93 0 134.1-.465 268.66.469 402.75M1018.54 2845.86c20.1-5.14 40.19-8.88 59.34-15.42 2.8-16.82 1.4-33.17 1.4-49.99-.47-93.44.47-186.89 0-280.34-14.01.93-30.36-3.27-42.98 3.27-8.87 26.17-19.63 52.8-18.22 80.83.93 87.37 0 174.28.46 261.65M1196.09 2804.28c21.02-.94 42.52-2.34 63.08-7.95 2.33-7.94 2.33-16.82 2.8-25.23-.94-90.17 0-180.34-.47-270.99-21.96-.47-43.45-.47-65.41 0zM498.059 2698.22c14.019 20.09 25.695 42.52 42.988 60.27a4290 4290 0 0 0 0-189.69c-15.891 19.15-26.633 42.04-41.121 62.14-7.477 11.21-16.348 21.49-22.895 32.7 5.149 12.61 13.555 23.37 21.028 34.58" style="fill:#fdfdfd;fill-opacity:1;fill-rule:nonzero;stroke:none" transform="matrix(.13333 0 0 -.13333 0 525.227)"></path><path d="M939.586 2621.13c6.074 16.35 8.875 34.1 18.223 49.05 7.472-8.87 10.277-20.08 13.074-30.83 12.625-48.12 32.707-93.92 44.857-142.04 2.8-8.88 4.68-22.89 16.82-20.55 64.48-.94 128.49 1.39 192.96-.94-49.98-41.12-105.58-74.76-156.52-115.4-6.07-3.75-2.79-11.68-1.86-17.29 17.75-62.14 39.71-122.88 59.33-184.56-37.84 26.17-74.28 54.2-112.13 80.37-18.692 13.55-35.977 29.9-56.531 41.11-36.442-25.69-71.485-52.79-107.93-78.49-18.688-13.08-35.508-28.5-55.602-39.25 1.868 13.55 4.676 26.64 8.883 39.25 14.477 44.39 29.434 88.77 44.379 133.16 2.34 9.34 7.008 22.42-3.266 28.5-51.398 37.84-103.722 73.82-154.183 113.07 65.879 1.86 131.75-.93 197.168.93 7.004-.93 7.941 8.41 10.746 12.61 14.945 43.46 26.629 87.84 41.582 131.3" style="fill:#fdfdfd;fill-opacity:1;fill-rule:nonzero;stroke:none" transform="matrix(.13333 0 0 -.13333 0 525.227)"></path><path d="M1202.63 2432.83c18.69 14.49 38.32 28.04 57.93 40.65 2.35-170.07 0-340.6 1.41-510.67-.47-10.29 0-20.56-2.8-30.37-20.56-4.67-42.06-1.88-63.08-1.88-.47 160.27.47 320.52 0 480.78.47 7.48-1.4 17.29 6.54 21.49M659.254 2468.81c21.492-10.28 40.644-25.23 58.871-40.65.934-5.6 1.402-11.21 1.402-16.82-.468-160.26.461-320.51 0-481.25a1337 1337 0 0 0-60.742 0c0 179.9-.933 359.3.469 538.72M837.73 2166.52c19.625 16.81 41.583 31.3 63.075 45.32 1.871-93.92.465-187.83.933-281.75-21.957-.46-43.445-.46-65.41 0-.465 70.1.469 140.18-.465 210.26.465 8.88 0 17.76 1.867 26.17M1018.54 2210.9c19.63-15.42 41.59-27.1 59.34-43.91 1.87-8.88 1.4-17.76 1.87-26.64-.94-70.08 0-140.16-.47-210.26-20.08-.46-40.64-.46-60.74 0zM1767.5 1861.89c26.18-.94 55.13.46 76.16-17.29 12.15-10.28 11.21-27.57 7.48-41.11-13.56-56.07-28.51-112.14-41.58-168.68-7.95-31.76-42.52-45.32-71.5-49.52-28.95-1.41-58.39-2.34-87.36.94-19.63 2.79-44.86 14.95-41.58 38.77 12.14 60.27 29.9 119.61 43.45 179.89 3.73 21.03 19.15 38.32 39.24 45.32 23.83 10.74 50.47 10.27 75.69 11.68m-28.49-49.06c-13.56-49.99-22.9-100.91-36.92-150.91-3.27-13.08-5.61-27.11-7.01-40.65 7.94.46 15.42.46 23.36 1.4 5.15 5.14 6.55 12.61 8.41 19.62 10.28 49.06 23.37 97.66 35.98 146.71 2.33 11.21 3.27 22.89 3.74 34.58-9.35-2.34-26.16 2.8-27.56-10.75M888.66 1859.56c60.738.92 121.48.46 182.21 0-.93-15.43-3.27-31.31-12.61-44.39-29.91-42.99-60.268-85.51-91.112-128.03-14.48-21.48-31.304-41.59-43.449-64.94 31.77-1.39 64.012 0 95.781-.93-1.4-12.14-2.34-24.29-6.54-35.98-65.413-2.34-130.827-.47-196.237-.47 3.274 14.49 5.606 29.91 14.02 42.53 45.785 64.93 93.441 128.94 137.828 194.34-28.5 1.89-57.465.49-85.969 1.41 1.406 12.16 3.742 24.31 6.078 36.46M1155.91 1858.62c36.44 3.73 73.35.47 110.27 1.4.46-62.61 0-124.75 0-186.89-1.87-29.43-6.55-58.87-4.68-88.78-28.03-.47-56.07 0-84.1 0-1.4 25.24 1.87 50 5.14 74.77-13.55 0-27.1 1.4-40.65-1.41-12.61-22.9-20.55-48.12-32.24-71.48-28.5-4.21-57.46-.94-86.43-1.88 15.88 28.98 27.09 59.81 42.05 88.78 31.77 61.21 57.47 125.21 90.64 185.49m3.27-163.07c7.01.47 14.49.94 21.49 2.34 8.41 20.56 6.54 43.45 5.14 65.43-11.21-21.51-19.15-44.87-26.63-67.77M1343.73 1857.21c7.94 3.74 16.82 2.81 25.23 3.27 29.43-.46 58.87-.46 88.77-.46 0-45.79-1.4-91.1 6.07-136.42 22.9 44.38 46.26 88.76 65.89 135.02 38.31 3.27 77.09.94 115.87.94-2.34-26.18-10.74-51.4-16.82-77.1-10.75-43.92-21.96-87.37-32.71-130.81-5.14-21.51-7.94-43.46-15.41-64.5-24.77-7-51.4-1.39-77.1-2.33 7.94 47.67 24.3 93.45 33.17 141.1-31.76-43.91-50.92-95.31-80.36-140.63-19.15-2.8-38.78-.94-58.4-.47-3.74 38.78-7.48 77.57-10.75 116.34 0 8.88-3.26 16.82-6.54 24.76-15.42-46.25-19.62-94.84-36.44-140.63-21.49-2.34-42.98-.94-64.95-.47 14.49 77.57 37.38 153.25 54.67 230.35 3.27 14.01 5.14 28.5 9.81 42.04M1884.3 1858.62c21.51 2.79 42.53.94 64.03 1.4 34.1-.46 69.61 3.27 101.37-10.75 8.89-4.67 21.03-10.28 20.1-21.95.93-20.1-3.27-40.66-11.69-58.87-9.35-18.23-29.89-24.77-47.65-31.79-.46-11.21 16.82-8.86 22.89-15.87 14.02-13.56 7.48-34.58 2.34-50.93-7.47-27.57-16.35-56.53-8.88-85.51-28.5.94-57.47-3.26-85.5 2.34-11.22 40.66 14.95 78.5 16.35 118.69 0 11.21-14 10.74-21.96 9.33-12.62-42.98-21.02-86.43-30.83-129.89-28.97-.94-58.4-.94-87.84 0 14.49 62.61 31.77 125.22 45.32 188.3 7.94 28.5 13.08 57.47 21.95 85.5m79.44-36.44c-8.87-22.44-14.02-46.26-15.88-70.55 8.4 1.39 20.54-.47 24.76 9.33 7 17.77 12.61 36.45 12.61 55.6-4.68 7.96-14.01 6.54-21.49 5.62M2169.78 1858.62c36.45 3.73 73.36.47 110.26 1.4.46-62.61 0-124.75 0-186.89-1.86-29.43-6.54-58.87-4.67-88.78-28.03-.47-56.07 0-84.1 0-1.39 25.24 1.88 50 5.14 74.77-13.53 0-27.57 1.4-40.64-1.41-12.61-22.9-20.56-48.12-32.24-71.48-28.51-4.21-57.47-.94-86.45-1.88 21.51 42.52 39.72 87.38 62.61 129.43 22.43 48.59 44.86 97.64 70.09 144.84m3.26-162.6c7.49.47 14.5.47 21.97.93 5.15 21.97 7.48 43.93 4.67 66.37-11.2-21.51-18.68-44.4-26.64-67.3" style="fill:#fdfdfd;fill-opacity:1;fill-rule:nonzero;stroke:none" transform="matrix(.13333 0 0 -.13333 0 525.227)"></path><path d="M1739.01 1812.83c1.4 13.55 18.21 8.41 27.56 10.75-.47-11.69-1.41-23.37-3.74-34.58-12.61-49.05-25.7-97.65-35.98-146.71-1.86-7.01-3.26-14.48-8.41-19.62-7.94-.94-15.42-.94-23.36-1.4 1.4 13.54 3.74 27.57 7.01 40.65 14.02 50 23.36 100.92 36.92 150.91M1963.74 1822.18c7.48.92 16.81 2.34 21.49-5.62 0-19.15-5.61-37.83-12.61-55.6-4.22-9.8-16.36-7.94-24.76-9.33 1.86 24.29 7.01 48.11 15.88 70.55M1159.18 1695.55c7.48 22.9 15.42 46.26 26.63 67.77 1.4-21.98 3.27-44.87-5.14-65.43-7-1.4-14.48-1.87-21.49-2.34M2173.04 1696.02c7.96 22.9 15.44 45.79 26.64 67.3 2.81-22.44.48-44.4-4.67-66.37-7.47-.46-14.48-.46-21.97-.93" style="fill:#000;fill-opacity:1;fill-rule:nonzero;stroke:none" transform="matrix(.13333 0 0 -.13333 0 525.227)"></path><path d="M394.336 1539.98c3.269.93 8.879 1.87 12.148 2.33H2681.86c12.62 1.4 21.03-9.36 29.9-16.83 49.53-43.91 102.8-83.63 161.66-114 14.95-4.67 6.55-21.95 6.55-33.63-5.61-71.96-20.11-142.97-41.13-212.12-17.28-53.27-34.58-106.99-65.41-154.18-20.09-30.37-41.11-61.21-66.8-87.39-43.93-46.25-97.19-83.148-154.19-112.121-68.22-29.437-138.76-53.269-207.45-82.23-92.97-34.571-184.09-73.829-275.65-112.137-73.84-32.242-148.11-63.992-217.26-105.594-100.46-57.93-194.37-127.09-280.81-204.637-5.14-3.281-11.68-12.152-18.22-6.082-73.82 69.153-156.05 130.352-243.89 181.282-62.14 37.379-128.02 67.277-193.9 95.781-174.74 78.488-352.756 148.59-531.701 215.387-66.813 28.031-131.289 64.953-180.809 118.679-58.871 54.203-96.25 127.092-127.086 199.972-35.043 87.85-56.531 181.28-61.211 275.67-4.672 21.95 19.16 28.04 32.711 37.84 38.309 26.62 77.09 52.8 111.66 84.56 12.153 9.81 22.895 20.56 35.512 29.45m867.164-128.5V626.559h214.93c.46 94.832-.47 190.14 0 285 42.98 0 85.97.472 128.95-.457 7.94-47.672 38.31-87.852 73.35-119.614 45.79-38.328 108.86-45.328 166.8-43.929 49.99-.469 102.8 12.613 139.23 48.132 33.18 28.489 49.53 70.547 61.67 111.661-42.51 14.019-85.03 28.027-128.94 37.378-5.62-31.781-19.16-68.21-51.87-81.3-28.96-9.801-65.41-10.739-89.71 11.211-17.75 14.488-28.96 36.918-28.49 60.277-.47 31.312 0 62.141 0 93.442-1.88 29.44 14.47 57.47 38.31 74.29 30.37 16.82 72.42 17.29 99.99-6.07 14.48-10.75 20.09-28.04 28.03-43.46 11.21-1.87 22.42 2.33 33.64 4.21 31.76 7.94 64.01 13.08 94.83 23.37-18.68 49.99-49.99 100.44-99.97 123.81-48.59 21.48-103.73 23.82-155.58 18.22-35.52-7.01-73.36-14.02-102.33-37.84-20.57-16.37-41.12-34.11-54.67-57.46-13.08-21.52-17.75-47.2-28.5-69.63-41.58-3.28-83.17-.94-124.74-1.41v210.26c104.19.46 208.85-.47 313.03 0v144.83z" style="fill:#fdfdfd;fill-opacity:1;fill-rule:nonzero;stroke:none" transform="matrix(.13333 0 0 -.13333 0 525.227)"></path><path d="M1261.5 1411.48h527.96v-144.83c-104.18-.47-208.84.46-313.03 0v-210.26c41.57.47 83.16-1.87 124.74 1.41 10.75 22.43 15.42 48.11 28.5 69.63 13.55 23.35 34.1 41.09 54.67 57.46 28.97 23.82 66.81 30.83 102.33 37.84 51.85 5.6 106.99 3.26 155.58-18.22 49.98-23.37 81.29-73.82 99.97-123.81-30.82-10.29-63.07-15.43-94.83-23.37-11.22-1.88-22.43-6.08-33.64-4.21-7.94 15.42-13.55 32.71-28.03 43.46-27.57 23.36-69.62 22.89-99.99 6.07-23.84-16.82-40.19-44.85-38.31-74.29 0-31.301-.47-62.13 0-93.442-.47-23.359 10.74-45.789 28.49-60.277 24.3-21.95 60.75-21.012 89.71-11.211 32.71 13.09 46.25 49.519 51.87 81.3 43.91-9.351 86.43-23.359 128.94-37.378-12.14-41.114-28.49-83.172-61.67-111.661-36.43-35.519-89.24-48.601-139.23-48.132-57.94-1.399-121.01 5.601-166.8 43.929-35.04 31.762-65.41 71.942-73.35 119.614-42.98.929-85.97.457-128.95.457-.47-94.86.46-190.168 0-285H1261.5z" style="fill:#000;fill-opacity:1;fill-rule:nonzero;stroke:none" transform="matrix(.13333 0 0 -.13333 0 525.227)" data-source="https://football-logos.cc"></path><!-- source: https://football-logos.cc --></svg>